<?xml version="1.0" encoding="UTF-8" standalone="no"?>
<!-- Created with Inkscape (http://www.inkscape.org/) -->
<svg
   xmlns:dc="http://purl.org/dc/elements/1.1/"
   xmlns:cc="http://web.resource.org/cc/"
   xmlns:rdf="http://www.w3.org/1999/02/22-rdf-syntax-ns#"
   xmlns:svg="http://www.w3.org/2000/svg"
   xmlns="http://www.w3.org/2000/svg"
   xmlns:sodipodi="http://inkscape.sourceforge.net/DTD/sodipodi-0.dtd"
   xmlns:inkscape="http://www.inkscape.org/namespaces/inkscape"
   width="1cm"
   height="1cm"
   id="svg14878"
   sodipodi:version="0.32"
   inkscape:version="0.43"
   version="1.0"
   sodipodi:docbase="/world/proj/Kproj/symsolon/data"
   sodipodi:docname="sign-02-taurus.svg">
  <defs
     id="defs3" />
  <sodipodi:namedview
     inkscape:document-units="mm"
     id="base"
     pagecolor="#000000"
     bordercolor="#666666"
     borderopacity="1.0"
     inkscape:pageopacity="1"
     inkscape:pageshadow="2"
     inkscape:zoom="11.373555"
     inkscape:cx="17.716535"
     inkscape:cy="17.569873"
     inkscape:current-layer="layer1"
     inkscape:window-width="966"
     inkscape:window-height="589"
     inkscape:window-x="0"
     inkscape:window-y="25" />
  <metadata
     id="metadata4">
    <rdf:RDF>
      <cc:Work
         rdf:about="">
        <dc:format>image/svg+xml</dc:format>
        <dc:type
           rdf:resource="http://purl.org/dc/dcmitype/StillImage" />
      </cc:Work>
    </rdf:RDF>
  </metadata>
  <g
     inkscape:label="Layer 1"
     inkscape:groupmode="layer"
     id="layer1">
    <g
       style="visibility:visible;fill:#ffffff;fill-opacity:1"
       id="g8499"
       transform="matrix(8.2093e-3,0,0,8.706427e-3,-43.96544,-8.891476)">
      <desc
         id="desc8501">Drawing</desc>
      <g
         id="g8503"
         style="fill:#ffffff;fill-opacity:1">
        <g
           id="g8505"
           style="fill:#ffffff;stroke:none;fill-opacity:1">
          <path
             id="path8507"
             d="M 7556,5041 L 7427,5034 L 7435,4884 L 7443,4735 L 7572,4741 L 7564,4891 L 7556,5041 z "
             style="fill:#ffffff;fill-opacity:1" />
          <path
             id="path8509"
             d="M 7435,4884 L 7427,5034 L 7412,5033 L 7435,4884 z "
             style="fill:#ffffff;fill-opacity:1" />
          <path
             id="path8511"
             d="M 7412,5033 L 7287,5014 L 7310,4865 L 7332,4717 L 7458,4736 L 7435,4884 L 7412,5033 z "
             style="fill:#ffffff;fill-opacity:1" />
          <path
             id="path8513"
             d="M 7310,4865 L 7287,5014 L 7272,5011 L 7310,4865 z "
             style="fill:#ffffff;fill-opacity:1" />
          <path
             id="path8515"
             d="M 7272,5011 L 7151,4979 L 7189,4834 L 7226,4689 L 7347,4720 L 7310,4865 L 7272,5011 z "
             style="fill:#ffffff;fill-opacity:1" />
          <path
             id="path8517"
             d="M 7189,4834 L 7151,4979 L 7137,4975 L 7189,4834 z "
             style="fill:#ffffff;fill-opacity:1" />
          <path
             id="path8519"
             d="M 7137,4975 L 7021,4933 L 7073,4792 L 7124,4651 L 7240,4693 L 7189,4834 L 7137,4975 z "
             style="fill:#ffffff;fill-opacity:1" />
          <path
             id="path8521"
             d="M 7073,4792 L 7021,4933 L 7007,4927 L 7073,4792 z "
             style="fill:#ffffff;fill-opacity:1" />
          <path
             id="path8523"
             d="M 7007,4927 L 6897,4874 L 6962,4738 L 7027,4603 L 7138,4657 L 7073,4792 L 7007,4927 z "
             style="fill:#ffffff;fill-opacity:1" />
          <path
             id="path8525"
             d="M 6962,4738 L 6897,4874 L 6884,4867 L 6962,4738 z "
             style="fill:#ffffff;fill-opacity:1" />
          <path
             id="path8527"
             d="M 6884,4867 L 6780,4803 L 6858,4675 L 6936,4547 L 7040,4610 L 6962,4738 L 6884,4867 z "
             style="fill:#ffffff;fill-opacity:1" />
          <path
             id="path8529"
             d="M 6858,4675 L 6780,4803 L 6768,4795 L 6858,4675 z "
             style="fill:#ffffff;fill-opacity:1" />
          <path
             id="path8531"
             d="M 6768,4795 L 6671,4723 L 6761,4603 L 6851,4482 L 6948,4555 L 6858,4675 L 6768,4795 z "
             style="fill:#ffffff;fill-opacity:1" />
          <path
             id="path8533"
             d="M 6761,4603 L 6671,4723 L 6660,4714 L 6761,4603 z "
             style="fill:#ffffff;fill-opacity:1" />
          <path
             id="path8535"
             d="M 6660,4714 L 6570,4632 L 6671,4521 L 6772,4410 L 6862,4491 L 6761,4603 L 6660,4714 z "
             style="fill:#ffffff;fill-opacity:1" />
          <path
             id="path8537"
             d="M 6671,4521 L 6570,4632 L 6560,4622 L 6671,4521 z "
             style="fill:#ffffff;fill-opacity:1" />
          <path
             id="path8539"
             d="M 6560,4622 L 6479,4532 L 6590,4431 L 6701,4330 L 6782,4420 L 6671,4521 L 6560,4622 z "
             style="fill:#ffffff;fill-opacity:1" />
          <path
             id="path8541"
             d="M 6590,4431 L 6479,4532 L 6469,4521 L 6590,4431 z "
             style="fill:#ffffff;fill-opacity:1" />
          <path
             id="path8543"
             d="M 6469,4521 L 6397,4424 L 6517,4334 L 6637,4244 L 6710,4341 L 6590,4431 L 6469,4521 z "
             style="fill:#ffffff;fill-opacity:1" />
          <path
             id="path8545"
             d="M 6517,4334 L 6397,4424 L 6389,4412 L 6517,4334 z "
             style="fill:#ffffff;fill-opacity:1" />
          <path
             id="path8547"
             d="M 6389,4412 L 6325,4308 L 6454,4230 L 6582,4152 L 6645,4256 L 6517,4334 L 6389,4412 z "
             style="fill:#ffffff;fill-opacity:1" />
          <path
             id="path8549"
             d="M 6454,4230 L 6325,4308 L 6318,4295 L 6454,4230 z "
             style="fill:#ffffff;fill-opacity:1" />
          <path
             id="path8551"
             d="M 6318,4295 L 6265,4185 L 6400,4120 L 6535,4055 L 6589,4165 L 6454,4230 L 6318,4295 z "
             style="fill:#ffffff;fill-opacity:1" />
          <path
             id="path8553"
             d="M 6400,4120 L 6265,4185 L 6259,4171 L 6400,4120 z "
             style="fill:#ffffff;fill-opacity:1" />
          <path
             id="path8555"
             d="M 6259,4171 L 6217,4056 L 6358,4004 L 6499,3952 L 6541,4068 L 6400,4120 L 6259,4171 z "
             style="fill:#ffffff;fill-opacity:1" />
          <path
             id="path8557"
             d="M 6358,4004 L 6217,4056 L 6213,4041 L 6358,4004 z "
             style="fill:#ffffff;fill-opacity:1" />
          <path
             id="path8559"
             d="M 6213,4041 L 6181,3920 L 6327,3883 L 6472,3846 L 6503,3966 L 6358,4004 L 6213,4041 z "
             style="fill:#ffffff;fill-opacity:1" />
          <path
             id="path8561"
             d="M 6327,3883 L 6181,3920 L 6178,3906 L 6327,3883 z "
             style="fill:#ffffff;fill-opacity:1" />
          <path
             id="path8563"
             d="M 6178,3906 L 6159,3781 L 6308,3758 L 6456,3735 L 6475,3860 L 6327,3883 L 6178,3906 z "
             style="fill:#ffffff;fill-opacity:1" />
          <path
             id="path8565"
             d="M 6308,3758 L 6159,3781 L 6158,3765 L 6308,3758 z "
             style="fill:#ffffff;fill-opacity:1" />
          <path
             id="path8567"
             d="M 6158,3765 L 6151,3637 L 6301,3629 L 6451,3621 L 6457,3750 L 6308,3758 L 6158,3765 z "
             style="fill:#ffffff;fill-opacity:1" />
          <path
             id="path8569"
             d="M 6301,3629 L 6151,3637 L 6151,3621 L 6301,3629 z "
             style="fill:#ffffff;fill-opacity:1" />
          <path
             id="path8571"
             d="M 6151,3621 L 6158,3493 L 6308,3500 L 6457,3508 L 6451,3637 L 6301,3629 L 6151,3621 z "
             style="fill:#ffffff;fill-opacity:1" />
          <path
             id="path8573"
             d="M 6308,3500 L 6158,3493 L 6159,3477 L 6308,3500 z "
             style="fill:#ffffff;fill-opacity:1" />
          <path
             id="path8575"
             d="M 6159,3477 L 6178,3352 L 6327,3375 L 6475,3398 L 6456,3523 L 6308,3500 L 6159,3477 z "
             style="fill:#ffffff;fill-opacity:1" />
          <path
             id="path8577"
             d="M 6327,3375 L 6178,3352 L 6181,3338 L 6327,3375 z "
             style="fill:#ffffff;fill-opacity:1" />
          <path
             id="path8579"
             d="M 6181,3338 L 6213,3217 L 6358,3254 L 6503,3292 L 6472,3412 L 6327,3375 L 6181,3338 z "
             style="fill:#ffffff;fill-opacity:1" />
          <path
             id="path8581"
             d="M 6358,3254 L 6213,3217 L 6217,3202 L 6358,3254 z "
             style="fill:#ffffff;fill-opacity:1" />
          <path
             id="path8583"
             d="M 6217,3202 L 6259,3087 L 6400,3138 L 6541,3190 L 6499,3306 L 6358,3254 L 6217,3202 z "
             style="fill:#ffffff;fill-opacity:1" />
          <path
             id="path8585"
             d="M 6400,3138 L 6259,3087 L 6265,3073 L 6400,3138 z "
             style="fill:#ffffff;fill-opacity:1" />
          <path
             id="path8587"
             d="M 6265,3073 L 6318,2963 L 6454,3028 L 6589,3093 L 6535,3203 L 6400,3138 L 6265,3073 z "
             style="fill:#ffffff;fill-opacity:1" />
          <path
             id="path8589"
             d="M 6454,3028 L 6318,2963 L 6325,2950 L 6454,3028 z "
             style="fill:#ffffff;fill-opacity:1" />
          <path
             id="path8591"
             d="M 6325,2950 L 6389,2846 L 6517,2924 L 6645,3002 L 6582,3106 L 6454,3028 L 6325,2950 z "
             style="fill:#ffffff;fill-opacity:1" />
          <path
             id="path8593"
             d="M 6517,2924 L 6389,2846 L 6397,2834 L 6517,2924 z "
             style="fill:#ffffff;fill-opacity:1" />
          <path
             id="path8595"
             d="M 6397,2834 L 6469,2737 L 6590,2827 L 6710,2917 L 6637,3014 L 6517,2924 L 6397,2834 z "
             style="fill:#ffffff;fill-opacity:1" />
          <path
             id="path8597"
             d="M 6590,2827 L 6469,2737 L 6479,2726 L 6590,2827 z "
             style="fill:#ffffff;fill-opacity:1" />
          <path
             id="path8599"
             d="M 6479,2726 L 6560,2636 L 6671,2737 L 6782,2838 L 6701,2928 L 6590,2827 L 6479,2726 z "
             style="fill:#ffffff;fill-opacity:1" />
          <path
             id="path8601"
             d="M 6671,2737 L 6560,2636 L 6570,2626 L 6671,2737 z "
             style="fill:#ffffff;fill-opacity:1" />
          <path
             id="path8603"
             d="M 6570,2626 L 6660,2544 L 6761,2655 L 6862,2767 L 6772,2848 L 6671,2737 L 6570,2626 z "
             style="fill:#ffffff;fill-opacity:1" />
          <path
             id="path8605"
             d="M 6761,2655 L 6660,2544 L 6671,2535 L 6761,2655 z "
             style="fill:#ffffff;fill-opacity:1" />
          <path
             id="path8607"
             d="M 6671,2535 L 6768,2463 L 6858,2583 L 6948,2703 L 6851,2776 L 6761,2655 L 6671,2535 z "
             style="fill:#ffffff;fill-opacity:1" />
          <path
             id="path8609"
             d="M 6858,2583 L 6768,2463 L 6780,2455 L 6858,2583 z "
             style="fill:#ffffff;fill-opacity:1" />
          <path
             id="path8611"
             d="M 6780,2455 L 6884,2391 L 6962,2520 L 7040,2648 L 6936,2711 L 6858,2583 L 6780,2455 z "
             style="fill:#ffffff;fill-opacity:1" />
          <path
             id="path8613"
             d="M 6962,2520 L 6884,2391 L 6897,2384 L 6962,2520 z "
             style="fill:#ffffff;fill-opacity:1" />
          <path
             id="path8615"
             d="M 6897,2384 L 7007,2331 L 7073,2466 L 7138,2601 L 7027,2655 L 6962,2520 L 6897,2384 z "
             style="fill:#ffffff;fill-opacity:1" />
          <path
             id="path8617"
             d="M 7073,2466 L 7007,2331 L 7021,2325 L 7073,2466 z "
             style="fill:#ffffff;fill-opacity:1" />
          <path
             id="path8619"
             d="M 7021,2325 L 7137,2283 L 7189,2424 L 7240,2565 L 7124,2607 L 7073,2466 L 7021,2325 z "
             style="fill:#ffffff;fill-opacity:1" />
          <path
             id="path8621"
             d="M 7189,2424 L 7137,2283 L 7151,2279 L 7189,2424 z "
             style="fill:#ffffff;fill-opacity:1" />
          <path
             id="path8623"
             d="M 7151,2279 L 7272,2247 L 7310,2393 L 7347,2538 L 7226,2569 L 7189,2424 L 7151,2279 z "
             style="fill:#ffffff;fill-opacity:1" />
          <path
             id="path8625"
             d="M 7310,2393 L 7272,2247 L 7287,2244 L 7310,2393 z "
             style="fill:#ffffff;fill-opacity:1" />
          <path
             id="path8627"
             d="M 7287,2244 L 7412,2225 L 7435,2374 L 7458,2522 L 7332,2541 L 7310,2393 L 7287,2244 z "
             style="fill:#ffffff;fill-opacity:1" />
          <path
             id="path8629"
             d="M 7435,2374 L 7412,2225 L 7427,2224 L 7435,2374 z "
             style="fill:#ffffff;fill-opacity:1" />
          <path
             id="path8631"
             d="M 7427,2224 L 7556,2217 L 7564,2367 L 7572,2517 L 7443,2523 L 7435,2374 L 7427,2224 z "
             style="fill:#ffffff;fill-opacity:1" />
          <path
             id="path8633"
             d="M 7564,2367 L 7556,2217 L 7572,2217 L 7564,2367 z "
             style="fill:#ffffff;fill-opacity:1" />
          <path
             id="path8635"
             d="M 7572,2217 L 7701,2224 L 7693,2374 L 7685,2523 L 7556,2517 L 7564,2367 L 7572,2217 z "
             style="fill:#ffffff;fill-opacity:1" />
          <path
             id="path8637"
             d="M 7693,2374 L 7701,2224 L 7716,2225 L 7693,2374 z "
             style="fill:#ffffff;fill-opacity:1" />
          <path
             id="path8639"
             d="M 7716,2225 L 7841,2244 L 7818,2393 L 7796,2541 L 7670,2522 L 7693,2374 L 7716,2225 z "
             style="fill:#ffffff;fill-opacity:1" />
          <path
             id="path8641"
             d="M 7818,2393 L 7841,2244 L 7856,2247 L 7818,2393 z "
             style="fill:#ffffff;fill-opacity:1" />
          <path
             id="path8643"
             d="M 7856,2247 L 7977,2279 L 7939,2424 L 7902,2569 L 7781,2538 L 7818,2393 L 7856,2247 z "
             style="fill:#ffffff;fill-opacity:1" />
          <path
             id="path8645"
             d="M 7939,2424 L 7977,2279 L 7991,2283 L 7939,2424 z "
             style="fill:#ffffff;fill-opacity:1" />
          <path
             id="path8647"
             d="M 7991,2283 L 8107,2325 L 8055,2466 L 8004,2607 L 7888,2565 L 7939,2424 L 7991,2283 z "
             style="fill:#ffffff;fill-opacity:1" />
          <path
             id="path8649"
             d="M 8055,2466 L 8107,2325 L 8121,2331 L 8055,2466 z "
             style="fill:#ffffff;fill-opacity:1" />
          <path
             id="path8651"
             d="M 8121,2331 L 8231,2384 L 8166,2520 L 8101,2655 L 7990,2601 L 8055,2466 L 8121,2331 z "
             style="fill:#ffffff;fill-opacity:1" />
          <path
             id="path8653"
             d="M 8166,2520 L 8231,2384 L 8244,2391 L 8166,2520 z "
             style="fill:#ffffff;fill-opacity:1" />
          <path
             id="path8655"
             d="M 8244,2391 L 8348,2455 L 8270,2583 L 8192,2711 L 8088,2648 L 8166,2520 L 8244,2391 z "
             style="fill:#ffffff;fill-opacity:1" />
          <path
             id="path8657"
             d="M 8270,2583 L 8348,2455 L 8360,2463 L 8270,2583 z "
             style="fill:#ffffff;fill-opacity:1" />
          <path
             id="path8659"
             d="M 8360,2463 L 8457,2535 L 8367,2655 L 8277,2776 L 8180,2703 L 8270,2583 L 8360,2463 z "
             style="fill:#ffffff;fill-opacity:1" />
          <path
             id="path8661"
             d="M 8367,2655 L 8457,2535 L 8468,2544 L 8367,2655 z "
             style="fill:#ffffff;fill-opacity:1" />
          <path
             id="path8663"
             d="M 8468,2544 L 8558,2626 L 8457,2737 L 8356,2848 L 8266,2767 L 8367,2655 L 8468,2544 z "
             style="fill:#ffffff;fill-opacity:1" />
          <path
             id="path8665"
             d="M 8457,2737 L 8558,2626 L 8568,2636 L 8457,2737 z "
             style="fill:#ffffff;fill-opacity:1" />
          <path
             id="path8667"
             d="M 8568,2636 L 8649,2726 L 8538,2827 L 8427,2928 L 8346,2838 L 8457,2737 L 8568,2636 z "
             style="fill:#ffffff;fill-opacity:1" />
          <path
             id="path8669"
             d="M 8538,2827 L 8649,2726 L 8659,2737 L 8538,2827 z "
             style="fill:#ffffff;fill-opacity:1" />
          <path
             id="path8671"
             d="M 8659,2737 L 8731,2834 L 8611,2924 L 8491,3014 L 8418,2917 L 8538,2827 L 8659,2737 z "
             style="fill:#ffffff;fill-opacity:1" />
          <path
             id="path8673"
             d="M 8611,2924 L 8731,2834 L 8739,2846 L 8611,2924 z "
             style="fill:#ffffff;fill-opacity:1" />
          <path
             id="path8675"
             d="M 8739,2846 L 8803,2950 L 8674,3028 L 8546,3106 L 8483,3002 L 8611,2924 L 8739,2846 z "
             style="fill:#ffffff;fill-opacity:1" />
          <path
             id="path8677"
             d="M 8674,3028 L 8803,2950 L 8810,2963 L 8674,3028 z "
             style="fill:#ffffff;fill-opacity:1" />
          <path
             id="path8679"
             d="M 8810,2963 L 8863,3073 L 8728,3138 L 8593,3203 L 8539,3093 L 8674,3028 L 8810,2963 z "
             style="fill:#ffffff;fill-opacity:1" />
          <path
             id="path8681"
             d="M 8728,3138 L 8863,3073 L 8869,3087 L 8728,3138 z "
             style="fill:#ffffff;fill-opacity:1" />
          <path
             id="path8683"
             d="M 8869,3087 L 8911,3202 L 8770,3254 L 8629,3306 L 8587,3190 L 8728,3138 L 8869,3087 z "
             style="fill:#ffffff;fill-opacity:1" />
          <path
             id="path8685"
             d="M 8770,3254 L 8911,3202 L 8915,3217 L 8770,3254 z "
             style="fill:#ffffff;fill-opacity:1" />
          <path
             id="path8687"
             d="M 8915,3217 L 8947,3338 L 8801,3375 L 8656,3412 L 8625,3292 L 8770,3254 L 8915,3217 z "
             style="fill:#ffffff;fill-opacity:1" />
          <path
             id="path8689"
             d="M 8801,3375 L 8947,3338 L 8950,3352 L 8801,3375 z "
             style="fill:#ffffff;fill-opacity:1" />
          <path
             id="path8691"
             d="M 8950,3352 L 8969,3477 L 8820,3500 L 8672,3523 L 8653,3398 L 8801,3375 L 8950,3352 z "
             style="fill:#ffffff;fill-opacity:1" />
          <path
             id="path8693"
             d="M 8820,3500 L 8969,3477 L 8970,3493 L 8820,3500 z "
             style="fill:#ffffff;fill-opacity:1" />
          <path
             id="path8695"
             d="M 8970,3493 L 8977,3621 L 8827,3629 L 8677,3637 L 8671,3508 L 8820,3500 L 8970,3493 z "
             style="fill:#ffffff;fill-opacity:1" />
          <path
             id="path8697"
             d="M 8827,3629 L 8977,3621 L 8977,3637 L 8827,3629 z "
             style="fill:#ffffff;fill-opacity:1" />
          <path
             id="path8699"
             d="M 8977,3637 L 8970,3765 L 8820,3758 L 8671,3750 L 8677,3621 L 8827,3629 L 8977,3637 z "
             style="fill:#ffffff;fill-opacity:1" />
          <path
             id="path8701"
             d="M 8820,3758 L 8970,3765 L 8969,3781 L 8820,3758 z "
             style="fill:#ffffff;fill-opacity:1" />
          <path
             id="path8703"
             d="M 8969,3781 L 8950,3906 L 8801,3883 L 8653,3860 L 8672,3735 L 8820,3758 L 8969,3781 z "
             style="fill:#ffffff;fill-opacity:1" />
          <path
             id="path8705"
             d="M 8801,3883 L 8950,3906 L 8947,3920 L 8801,3883 z "
             style="fill:#ffffff;fill-opacity:1" />
          <path
             id="path8707"
             d="M 8947,3920 L 8915,4041 L 8770,4004 L 8625,3966 L 8656,3846 L 8801,3883 L 8947,3920 z "
             style="fill:#ffffff;fill-opacity:1" />
          <path
             id="path8709"
             d="M 8770,4004 L 8915,4041 L 8911,4056 L 8770,4004 z "
             style="fill:#ffffff;fill-opacity:1" />
          <path
             id="path8711"
             d="M 8911,4056 L 8869,4171 L 8728,4120 L 8587,4068 L 8629,3952 L 8770,4004 L 8911,4056 z "
             style="fill:#ffffff;fill-opacity:1" />
          <path
             id="path8713"
             d="M 8728,4120 L 8869,4171 L 8863,4185 L 8728,4120 z "
             style="fill:#ffffff;fill-opacity:1" />
          <path
             id="path8715"
             d="M 8863,4185 L 8810,4295 L 8674,4230 L 8539,4165 L 8593,4055 L 8728,4120 L 8863,4185 z "
             style="fill:#ffffff;fill-opacity:1" />
          <path
             id="path8717"
             d="M 8674,4230 L 8810,4295 L 8803,4308 L 8674,4230 z "
             style="fill:#ffffff;fill-opacity:1" />
          <path
             id="path8719"
             d="M 8803,4308 L 8739,4412 L 8611,4334 L 8483,4256 L 8546,4152 L 8674,4230 L 8803,4308 z "
             style="fill:#ffffff;fill-opacity:1" />
          <path
             id="path8721"
             d="M 8611,4334 L 8739,4412 L 8731,4424 L 8611,4334 z "
             style="fill:#ffffff;fill-opacity:1" />
          <path
             id="path8723"
             d="M 8731,4424 L 8659,4521 L 8538,4431 L 8418,4341 L 8491,4244 L 8611,4334 L 8731,4424 z "
             style="fill:#ffffff;fill-opacity:1" />
          <path
             id="path8725"
             d="M 8538,4431 L 8659,4521 L 8649,4532 L 8538,4431 z "
             style="fill:#ffffff;fill-opacity:1" />
          <path
             id="path8727"
             d="M 8649,4532 L 8568,4622 L 8457,4521 L 8346,4420 L 8427,4330 L 8538,4431 L 8649,4532 z "
             style="fill:#ffffff;fill-opacity:1" />
          <path
             id="path8729"
             d="M 8457,4521 L 8568,4622 L 8558,4632 L 8457,4521 z "
             style="fill:#ffffff;fill-opacity:1" />
          <path
             id="path8731"
             d="M 8558,4632 L 8468,4714 L 8367,4603 L 8266,4491 L 8356,4410 L 8457,4521 L 8558,4632 z "
             style="fill:#ffffff;fill-opacity:1" />
          <path
             id="path8733"
             d="M 8367,4603 L 8468,4714 L 8457,4723 L 8367,4603 z "
             style="fill:#ffffff;fill-opacity:1" />
          <path
             id="path8735"
             d="M 8457,4723 L 8360,4795 L 8270,4675 L 8180,4555 L 8277,4482 L 8367,4603 L 8457,4723 z "
             style="fill:#ffffff;fill-opacity:1" />
          <path
             id="path8737"
             d="M 8270,4675 L 8360,4795 L 8348,4803 L 8270,4675 z "
             style="fill:#ffffff;fill-opacity:1" />
          <path
             id="path8739"
             d="M 8348,4803 L 8244,4867 L 8166,4738 L 8088,4610 L 8192,4547 L 8270,4675 L 8348,4803 z "
             style="fill:#ffffff;fill-opacity:1" />
          <path
             id="path8741"
             d="M 8166,4738 L 8244,4867 L 8231,4874 L 8166,4738 z "
             style="fill:#ffffff;fill-opacity:1" />
          <path
             id="path8743"
             d="M 8231,4874 L 8121,4927 L 8055,4792 L 7990,4657 L 8101,4603 L 8166,4738 L 8231,4874 z "
             style="fill:#ffffff;fill-opacity:1" />
          <path
             id="path8745"
             d="M 8055,4792 L 8121,4927 L 8107,4933 L 8055,4792 z "
             style="fill:#ffffff;fill-opacity:1" />
          <path
             id="path8747"
             d="M 8107,4933 L 7991,4975 L 7939,4834 L 7888,4693 L 8004,4651 L 8055,4792 L 8107,4933 z "
             style="fill:#ffffff;fill-opacity:1" />
          <path
             id="path8749"
             d="M 7939,4834 L 7991,4975 L 7977,4979 L 7939,4834 z "
             style="fill:#ffffff;fill-opacity:1" />
          <path
             id="path8751"
             d="M 7977,4979 L 7856,5011 L 7818,4865 L 7781,4720 L 7902,4689 L 7939,4834 L 7977,4979 z "
             style="fill:#ffffff;fill-opacity:1" />
          <path
             id="path8753"
             d="M 7818,4865 L 7856,5011 L 7841,5014 L 7818,4865 z "
             style="fill:#ffffff;fill-opacity:1" />
          <path
             id="path8755"
             d="M 7841,5014 L 7716,5033 L 7693,4884 L 7670,4736 L 7796,4717 L 7818,4865 L 7841,5014 z "
             style="fill:#ffffff;fill-opacity:1" />
          <path
             id="path8757"
             d="M 7693,4884 L 7716,5033 L 7701,5034 L 7693,4884 z "
             style="fill:#ffffff;fill-opacity:1" />
          <path
             id="path8759"
             d="M 7701,5034 L 7572,5041 L 7564,4891 L 7556,4741 L 7685,4735 L 7693,4884 L 7701,5034 z "
             style="fill:#ffffff;fill-opacity:1" />
          <path
             id="path8761"
             d="M 7564,4891 L 7572,5041 L 7556,5041 L 7564,4891 z "
             style="fill:#ffffff;fill-opacity:1" />
        </g>
        <g
           id="g8763"
           style="fill:#ffffff;fill-opacity:1" />
      </g>
    </g>
    <g
       style="visibility:visible;fill:#ffffff;fill-opacity:1"
       id="g8765"
       transform="matrix(8.2093e-3,0,0,8.706427e-3,-43.96544,-8.891476)">
      <desc
         id="desc8767">Drawing</desc>
      <g
         id="g8769"
         style="fill:#ffffff;fill-opacity:1">
        <g
           id="g8771"
           style="fill:#ffffff;stroke:none;fill-opacity:1">
          <path
             id="path8773"
             d="M 6746,1262 L 6676,1335 L 6568,1231 L 6460,1127 L 6530,1054 L 6638,1158 L 6746,1262 z "
             style="fill:#ffffff;fill-opacity:1" />
          <path
             id="path8775"
             d="M 6568,1231 L 6447,1142 L 6460,1127 L 6568,1231 z "
             style="fill:#ffffff;fill-opacity:1" />
          <path
             id="path8777"
             d="M 6689,1320 L 6627,1404 L 6506,1315 L 6385,1226 L 6447,1142 L 6568,1231 L 6689,1320 z "
             style="fill:#ffffff;fill-opacity:1" />
          <path
             id="path8779"
             d="M 6506,1315 L 6375,1242 L 6385,1226 L 6506,1315 z "
             style="fill:#ffffff;fill-opacity:1" />
          <path
             id="path8781"
             d="M 6637,1388 L 6586,1480 L 6455,1407 L 6323,1335 L 6375,1242 L 6506,1315 L 6637,1388 z "
             style="fill:#ffffff;fill-opacity:1" />
          <path
             id="path8783"
             d="M 6455,1407 L 6315,1352 L 6323,1335 L 6455,1407 z "
             style="fill:#ffffff;fill-opacity:1" />
          <path
             id="path8785"
             d="M 6594,1463 L 6555,1562 L 6415,1506 L 6276,1451 L 6315,1352 L 6455,1407 L 6594,1463 z "
             style="fill:#ffffff;fill-opacity:1" />
          <path
             id="path8787"
             d="M 6415,1506 L 6270,1471 L 6276,1451 L 6415,1506 z "
             style="fill:#ffffff;fill-opacity:1" />
          <path
             id="path8789"
             d="M 6561,1542 L 6536,1645 L 6391,1610 L 6245,1574 L 6270,1471 L 6415,1506 L 6561,1542 z "
             style="fill:#ffffff;fill-opacity:1" />
          <path
             id="path8791"
             d="M 6391,1610 L 6242,1591 L 6245,1574 L 6391,1610 z "
             style="fill:#ffffff;fill-opacity:1" />
          <path
             id="path8793"
             d="M 6539,1628 L 6533,1681 L 6384,1662 L 6235,1643 L 6242,1591 L 6391,1610 L 6539,1628 z "
             style="fill:#ffffff;fill-opacity:1" />
          <path
             id="path8795"
             d="M 6384,1662 L 6234,1655 L 6235,1643 L 6384,1662 z "
             style="fill:#ffffff;fill-opacity:1" />
          <path
             id="path8797"
             d="M 6534,1669 L 6531,1721 L 6382,1715 L 6232,1708 L 6234,1655 L 6384,1662 L 6534,1669 z "
             style="fill:#ffffff;fill-opacity:1" />
          <path
             id="path8799"
             d="M 6382,1715 L 6232,1721 L 6232,1708 L 6382,1715 z "
             style="fill:#ffffff;fill-opacity:1" />
          <path
             id="path8801"
             d="M 6532,1708 L 6534,1761 L 6384,1767 L 6234,1773 L 6232,1721 L 6382,1715 L 6532,1708 z "
             style="fill:#ffffff;fill-opacity:1" />
          <path
             id="path8803"
             d="M 6384,1767 L 6235,1787 L 6234,1773 L 6384,1767 z "
             style="fill:#ffffff;fill-opacity:1" />
          <path
             id="path8805"
             d="M 6533,1747 L 6539,1799 L 6391,1819 L 6242,1839 L 6235,1787 L 6384,1767 L 6533,1747 z "
             style="fill:#ffffff;fill-opacity:1" />
          <path
             id="path8807"
             d="M 6391,1819 L 6245,1853 L 6242,1839 L 6391,1819 z "
             style="fill:#ffffff;fill-opacity:1" />
          <path
             id="path8809"
             d="M 6537,1785 L 6549,1837 L 6403,1870 L 6257,1904 L 6245,1853 L 6391,1819 L 6537,1785 z "
             style="fill:#ffffff;fill-opacity:1" />
          <path
             id="path8811"
             d="M 6403,1870 L 6261,1919 L 6257,1904 L 6403,1870 z "
             style="fill:#ffffff;fill-opacity:1" />
          <path
             id="path8813"
             d="M 6545,1822 L 6562,1873 L 6420,1921 L 6278,1969 L 6261,1919 L 6403,1870 L 6545,1822 z "
             style="fill:#ffffff;fill-opacity:1" />
          <path
             id="path8815"
             d="M 6420,1921 L 6283,1983 L 6278,1969 L 6420,1921 z "
             style="fill:#ffffff;fill-opacity:1" />
          <path
             id="path8817"
             d="M 6556,1858 L 6579,1908 L 6442,1970 L 6306,2033 L 6283,1983 L 6420,1921 L 6556,1858 z "
             style="fill:#ffffff;fill-opacity:1" />
          <path
             id="path8819"
             d="M 6442,1970 L 6313,2046 L 6306,2033 L 6442,1970 z "
             style="fill:#ffffff;fill-opacity:1" />
          <path
             id="path8821"
             d="M 6571,1894 L 6600,1941 L 6471,2018 L 6341,2094 L 6313,2046 L 6442,1970 L 6571,1894 z "
             style="fill:#ffffff;fill-opacity:1" />
          <path
             id="path8823"
             d="M 6471,2018 L 6350,2107 L 6341,2094 L 6471,2018 z "
             style="fill:#ffffff;fill-opacity:1" />
          <path
             id="path8825"
             d="M 6591,1928 L 6625,1974 L 6505,2064 L 6384,2153 L 6350,2107 L 6471,2018 L 6591,1928 z "
             style="fill:#ffffff;fill-opacity:1" />
          <path
             id="path8827"
             d="M 6505,2064 L 6394,2165 L 6384,2153 L 6505,2064 z "
             style="fill:#ffffff;fill-opacity:1" />
          <path
             id="path8829"
             d="M 6615,1962 L 6655,2006 L 6545,2107 L 6435,2209 L 6394,2165 L 6505,2064 L 6615,1962 z "
             style="fill:#ffffff;fill-opacity:1" />
          <path
             id="path8831"
             d="M 6545,2107 L 6445,2220 L 6435,2209 L 6545,2107 z "
             style="fill:#ffffff;fill-opacity:1" />
          <path
             id="path8833"
             d="M 6644,1995 L 6691,2036 L 6592,2149 L 6492,2261 L 6445,2220 L 6545,2107 L 6644,1995 z "
             style="fill:#ffffff;fill-opacity:1" />
          <path
             id="path8835"
             d="M 6592,2149 L 6504,2270 L 6492,2261 L 6592,2149 z "
             style="fill:#ffffff;fill-opacity:1" />
          <path
             id="path8837"
             d="M 6680,2027 L 6733,2066 L 6645,2187 L 6557,2309 L 6504,2270 L 6592,2149 L 6680,2027 z "
             style="fill:#ffffff;fill-opacity:1" />
          <path
             id="path8839"
             d="M 6645,2187 L 6568,2316 L 6557,2309 L 6645,2187 z "
             style="fill:#ffffff;fill-opacity:1" />
          <path
             id="path8841"
             d="M 6722,2058 L 6782,2094 L 6705,2223 L 6629,2352 L 6568,2316 L 6645,2187 L 6722,2058 z "
             style="fill:#ffffff;fill-opacity:1" />
          <path
             id="path8843"
             d="M 6705,2223 L 6640,2358 L 6629,2352 L 6705,2223 z "
             style="fill:#ffffff;fill-opacity:1" />
          <path
             id="path8845"
             d="M 6770,2088 L 6838,2121 L 6772,2256 L 6707,2391 L 6640,2358 L 6705,2223 L 6770,2088 z "
             style="fill:#ffffff;fill-opacity:1" />
          <path
             id="path8847"
             d="M 6772,2256 L 6723,2397 L 6707,2391 L 6772,2256 z "
             style="fill:#ffffff;fill-opacity:1" />
          <path
             id="path8849"
             d="M 6821,2114 L 6978,2168 L 6929,2310 L 6880,2452 L 6723,2397 L 6772,2256 L 6821,2114 z "
             style="fill:#ffffff;fill-opacity:1" />
          <path
             id="path8851"
             d="M 6929,2310 L 6900,2457 L 6880,2452 L 6929,2310 z "
             style="fill:#ffffff;fill-opacity:1" />
          <path
             id="path8853"
             d="M 6959,2163 L 7147,2200 L 7117,2348 L 7088,2495 L 6900,2457 L 6929,2310 L 6959,2163 z "
             style="fill:#ffffff;fill-opacity:1" />
          <path
             id="path8855"
             d="M 7117,2348 L 7104,2497 L 7088,2495 L 7117,2348 z "
             style="fill:#ffffff;fill-opacity:1" />
          <path
             id="path8857"
             d="M 7130,2198 L 7352,2217 L 7339,2367 L 7326,2516 L 7104,2497 L 7117,2348 L 7130,2198 z "
             style="fill:#ffffff;fill-opacity:1" />
          <path
             id="path8859"
             d="M 7339,2367 L 7340,2517 L 7326,2516 L 7339,2367 z "
             style="fill:#ffffff;fill-opacity:1" />
          <path
             id="path8861"
             d="M 7338,2217 L 7594,2215 L 7595,2365 L 7596,2515 L 7340,2517 L 7339,2367 L 7338,2217 z "
             style="fill:#ffffff;fill-opacity:1" />
          <path
             id="path8863"
             d="M 7595,2365 L 7607,2514 L 7596,2515 L 7595,2365 z "
             style="fill:#ffffff;fill-opacity:1" />
          <path
             id="path8865"
             d="M 7583,2216 L 7838,2194 L 7850,2344 L 7862,2493 L 7607,2514 L 7595,2365 L 7583,2216 z "
             style="fill:#ffffff;fill-opacity:1" />
          <path
             id="path8867"
             d="M 7850,2344 L 7875,2492 L 7862,2493 L 7850,2344 z "
             style="fill:#ffffff;fill-opacity:1" />
          <path
             id="path8869"
             d="M 7826,2196 L 8043,2160 L 8068,2308 L 8092,2456 L 7875,2492 L 7850,2344 L 7826,2196 z "
             style="fill:#ffffff;fill-opacity:1" />
          <path
             id="path8871"
             d="M 8068,2308 L 8107,2453 L 8092,2456 L 8068,2308 z "
             style="fill:#ffffff;fill-opacity:1" />
          <path
             id="path8873"
             d="M 8029,2163 L 8212,2114 L 8251,2258 L 8290,2403 L 8107,2453 L 8068,2308 L 8029,2163 z "
             style="fill:#ffffff;fill-opacity:1" />
          <path
             id="path8875"
             d="M 8251,2258 L 8307,2397 L 8290,2403 L 8251,2258 z "
             style="fill:#ffffff;fill-opacity:1" />
          <path
             id="path8877"
             d="M 8194,2120 L 8344,2058 L 8401,2197 L 8457,2336 L 8307,2397 L 8251,2258 L 8194,2120 z "
             style="fill:#ffffff;fill-opacity:1" />
          <path
             id="path8879"
             d="M 8401,2197 L 8472,2329 L 8457,2336 L 8401,2197 z "
             style="fill:#ffffff;fill-opacity:1" />
          <path
             id="path8881"
             d="M 8329,2065 L 8393,2031 L 8464,2163 L 8536,2295 L 8472,2329 L 8401,2197 L 8329,2065 z "
             style="fill:#ffffff;fill-opacity:1" />
          <path
             id="path8883"
             d="M 8464,2163 L 8546,2289 L 8536,2295 L 8464,2163 z "
             style="fill:#ffffff;fill-opacity:1" />
          <path
             id="path8885"
             d="M 8382,2037 L 8439,2001 L 8521,2126 L 8603,2252 L 8546,2289 L 8464,2163 L 8382,2037 z "
             style="fill:#ffffff;fill-opacity:1" />
          <path
             id="path8887"
             d="M 8521,2126 L 8614,2244 L 8603,2252 L 8521,2126 z "
             style="fill:#ffffff;fill-opacity:1" />
          <path
             id="path8889"
             d="M 8428,2008 L 8477,1970 L 8570,2087 L 8663,2205 L 8614,2244 L 8521,2126 L 8428,2008 z "
             style="fill:#ffffff;fill-opacity:1" />
          <path
             id="path8891"
             d="M 8570,2087 L 8674,2196 L 8663,2205 L 8570,2087 z "
             style="fill:#ffffff;fill-opacity:1" />
          <path
             id="path8893"
             d="M 8466,1979 L 8509,1938 L 8613,2047 L 8716,2155 L 8674,2196 L 8570,2087 L 8466,1979 z "
             style="fill:#ffffff;fill-opacity:1" />
          <path
             id="path8895"
             d="M 8613,2047 L 8727,2144 L 8716,2155 L 8613,2047 z "
             style="fill:#ffffff;fill-opacity:1" />
          <path
             id="path8897"
             d="M 8498,1949 L 8534,1907 L 8649,2004 L 8763,2101 L 8727,2144 L 8613,2047 L 8498,1949 z "
             style="fill:#ffffff;fill-opacity:1" />
          <path
             id="path8899"
             d="M 8649,2004 L 8772,2089 L 8763,2101 L 8649,2004 z "
             style="fill:#ffffff;fill-opacity:1" />
          <path
             id="path8901"
             d="M 8525,1920 L 8555,1876 L 8679,1960 L 8802,2045 L 8772,2089 L 8649,2004 L 8525,1920 z "
             style="fill:#ffffff;fill-opacity:1" />
          <path
             id="path8903"
             d="M 8679,1960 L 8811,2031 L 8802,2045 L 8679,1960 z "
             style="fill:#ffffff;fill-opacity:1" />
          <path
             id="path8905"
             d="M 8546,1890 L 8570,1845 L 8703,1915 L 8835,1986 L 8811,2031 L 8679,1960 L 8546,1890 z "
             style="fill:#ffffff;fill-opacity:1" />
          <path
             id="path8907"
             d="M 8703,1915 L 8842,1971 L 8835,1986 L 8703,1915 z "
             style="fill:#ffffff;fill-opacity:1" />
          <path
             id="path8909"
             d="M 8563,1859 L 8582,1813 L 8721,1869 L 8860,1925 L 8842,1971 L 8703,1915 L 8563,1859 z "
             style="fill:#ffffff;fill-opacity:1" />
          <path
             id="path8911"
             d="M 8721,1869 L 8866,1910 L 8860,1925 L 8721,1869 z "
             style="fill:#ffffff;fill-opacity:1" />
          <path
             id="path8913"
             d="M 8577,1828 L 8590,1781 L 8734,1822 L 8879,1863 L 8866,1910 L 8721,1869 L 8577,1828 z "
             style="fill:#ffffff;fill-opacity:1" />
          <path
             id="path8915"
             d="M 8734,1822 L 8882,1848 L 8879,1863 L 8734,1822 z "
             style="fill:#ffffff;fill-opacity:1" />
          <path
             id="path8917"
             d="M 8587,1797 L 8595,1749 L 8743,1774 L 8890,1800 L 8882,1848 L 8734,1822 L 8587,1797 z "
             style="fill:#ffffff;fill-opacity:1" />
          <path
             id="path8919"
             d="M 8743,1774 L 8892,1785 L 8890,1800 L 8743,1774 z "
             style="fill:#ffffff;fill-opacity:1" />
          <path
             id="path8921"
             d="M 8593,1764 L 8597,1715 L 8746,1726 L 8896,1737 L 8892,1785 L 8743,1774 L 8593,1764 z "
             style="fill:#ffffff;fill-opacity:1" />
          <path
             id="path8923"
             d="M 8746,1726 L 8896,1724 L 8896,1737 L 8746,1726 z "
             style="fill:#ffffff;fill-opacity:1" />
          <path
             id="path8925"
             d="M 8596,1729 L 8595,1681 L 8745,1678 L 8895,1675 L 8896,1724 L 8746,1726 L 8596,1729 z "
             style="fill:#ffffff;fill-opacity:1" />
          <path
             id="path8927"
             d="M 8745,1678 L 8894,1657 L 8895,1675 L 8745,1678 z "
             style="fill:#ffffff;fill-opacity:1" />
          <path
             id="path8929"
             d="M 8597,1700 L 8583,1603 L 8731,1582 L 8880,1560 L 8894,1657 L 8745,1678 L 8597,1700 z "
             style="fill:#ffffff;fill-opacity:1" />
          <path
             id="path8931"
             d="M 8731,1582 L 8875,1539 L 8880,1560 L 8731,1582 z "
             style="fill:#ffffff;fill-opacity:1" />
          <path
             id="path8933"
             d="M 8588,1624 L 8559,1530 L 8703,1487 L 8847,1444 L 8875,1539 L 8731,1582 L 8588,1624 z "
             style="fill:#ffffff;fill-opacity:1" />
          <path
             id="path8935"
             d="M 8703,1487 L 8841,1427 L 8847,1444 L 8703,1487 z "
             style="fill:#ffffff;fill-opacity:1" />
          <path
             id="path8937"
             d="M 8566,1547 L 8526,1456 L 8663,1396 L 8801,1336 L 8841,1427 L 8703,1487 L 8566,1547 z "
             style="fill:#ffffff;fill-opacity:1" />
          <path
             id="path8939"
             d="M 8663,1396 L 8793,1321 L 8801,1336 L 8663,1396 z "
             style="fill:#ffffff;fill-opacity:1" />
          <path
             id="path8941"
             d="M 8533,1470 L 8484,1384 L 8614,1309 L 8744,1235 L 8793,1321 L 8663,1396 L 8533,1470 z "
             style="fill:#ffffff;fill-opacity:1" />
          <path
             id="path8943"
             d="M 8614,1309 L 8736,1222 L 8744,1235 L 8614,1309 z "
             style="fill:#ffffff;fill-opacity:1" />
          <path
             id="path8945"
             d="M 8492,1396 L 8435,1317 L 8557,1229 L 8679,1142 L 8736,1222 L 8614,1309 L 8492,1396 z "
             style="fill:#ffffff;fill-opacity:1" />
          <path
             id="path8947"
             d="M 8557,1229 L 8670,1131 L 8679,1142 L 8557,1229 z "
             style="fill:#ffffff;fill-opacity:1" />
          <path
             id="path8949"
             d="M 8443,1328 L 8382,1256 L 8495,1158 L 8608,1060 L 8670,1131 L 8557,1229 L 8443,1328 z "
             style="fill:#ffffff;fill-opacity:1" />
        </g>
        <g
           id="g8951"
           style="fill:#ffffff;fill-opacity:1" />
      </g>
    </g>
  </g>
</svg>
