<?xml version="1.0" encoding="UTF-8" standalone="no"?>
<!-- Created with Inkscape (http://www.inkscape.org/) -->
<svg
   xmlns:dc="http://purl.org/dc/elements/1.1/"
   xmlns:cc="http://web.resource.org/cc/"
   xmlns:rdf="http://www.w3.org/1999/02/22-rdf-syntax-ns#"
   xmlns:svg="http://www.w3.org/2000/svg"
   xmlns="http://www.w3.org/2000/svg"
   xmlns:sodipodi="http://inkscape.sourceforge.net/DTD/sodipodi-0.dtd"
   xmlns:inkscape="http://www.inkscape.org/namespaces/inkscape"
   width="1cm"
   height="1cm"
   id="svg14878"
   sodipodi:version="0.32"
   inkscape:version="0.43"
   version="1.0"
   sodipodi:docbase="/world/proj/Kproj/symsolon/data"
   sodipodi:docname="sign-01-aries.svg">
  <defs
     id="defs3" />
  <sodipodi:namedview
     inkscape:document-units="mm"
     id="base"
     pagecolor="#000000"
     bordercolor="#666666"
     borderopacity="1.0"
     inkscape:pageopacity="1"
     inkscape:pageshadow="2"
     inkscape:zoom="11.373555"
     inkscape:cx="17.716535"
     inkscape:cy="17.716535"
     inkscape:current-layer="layer1"
     inkscape:window-width="966"
     inkscape:window-height="589"
     inkscape:window-x="0"
     inkscape:window-y="25" />
  <metadata
     id="metadata4">
    <rdf:RDF>
      <cc:Work
         rdf:about="">
        <dc:format>image/svg+xml</dc:format>
        <dc:type
           rdf:resource="http://purl.org/dc/dcmitype/StillImage" />
      </cc:Work>
    </rdf:RDF>
  </metadata>
  <g
     inkscape:label="Layer 1"
     inkscape:groupmode="layer"
     id="layer1">
    <g
       style="visibility:visible;fill:#ff0707;fill-opacity:1"
       id="g8195"
       transform="matrix(9.082454e-3,0,0,8.508674e-3,-8.348434,-6.265023)">
      <desc
         id="desc8197">Drawing</desc>
      <g
         id="g8199"
         style="fill:#ff0707;fill-opacity:1">
        <g
           id="g8201"
           style="fill:#ff0707;stroke:none;fill-opacity:1">
          <path
             id="path8203"
             d="M 1156,2748 L 1122,2719 L 1220,2606 L 1319,2493 L 1352,2522 L 1254,2635 L 1156,2748 z "
             style="fill:#ff0707;fill-opacity:1" />
          <path
             id="path8205"
             d="M 1220,2606 L 1122,2719 L 1108,2705 L 1220,2606 z "
             style="fill:#ff0707;fill-opacity:1" />
          <path
             id="path8207"
             d="M 1108,2705 L 1079,2672 L 1191,2573 L 1304,2474 L 1333,2507 L 1220,2606 L 1108,2705 z "
             style="fill:#ff0707;fill-opacity:1" />
          <path
             id="path8209"
             d="M 1191,2573 L 1079,2672 L 1067,2657 L 1191,2573 z "
             style="fill:#ff0707;fill-opacity:1" />
          <path
             id="path8211"
             d="M 1067,2657 L 1042,2620 L 1166,2536 L 1291,2452 L 1316,2489 L 1191,2573 L 1067,2657 z "
             style="fill:#ff0707;fill-opacity:1" />
          <path
             id="path8213"
             d="M 1166,2536 L 1042,2620 L 1033,2604 L 1166,2536 z "
             style="fill:#ff0707;fill-opacity:1" />
          <path
             id="path8215"
             d="M 1033,2604 L 1012,2564 L 1146,2496 L 1279,2427 L 1300,2467 L 1166,2536 L 1033,2604 z "
             style="fill:#ff0707;fill-opacity:1" />
          <path
             id="path8217"
             d="M 1146,2496 L 1012,2564 L 1006,2549 L 1146,2496 z "
             style="fill:#ff0707;fill-opacity:1" />
          <path
             id="path8219"
             d="M 1006,2549 L 989,2506 L 1129,2452 L 1269,2398 L 1286,2442 L 1146,2496 L 1006,2549 z "
             style="fill:#ff0707;fill-opacity:1" />
          <path
             id="path8221"
             d="M 1129,2452 L 989,2506 L 984,2492 L 1129,2452 z "
             style="fill:#ff0707;fill-opacity:1" />
          <path
             id="path8223"
             d="M 984,2492 L 972,2445 L 1116,2406 L 1261,2366 L 1274,2412 L 1129,2452 L 984,2492 z "
             style="fill:#ff0707;fill-opacity:1" />
          <path
             id="path8225"
             d="M 1116,2406 L 972,2445 L 968,2427 L 1116,2406 z "
             style="fill:#ff0707;fill-opacity:1" />
          <path
             id="path8227"
             d="M 968,2427 L 954,2327 L 1102,2306 L 1251,2285 L 1265,2385 L 1116,2406 L 968,2427 z "
             style="fill:#ff0707;fill-opacity:1" />
          <path
             id="path8229"
             d="M 1102,2306 L 954,2327 L 952,2305 L 1102,2306 z "
             style="fill:#ff0707;fill-opacity:1" />
          <path
             id="path8231"
             d="M 952,2305 L 953,2198 L 1103,2199 L 1253,2199 L 1252,2306 L 1102,2306 L 952,2305 z "
             style="fill:#ff0707;fill-opacity:1" />
          <path
             id="path8233"
             d="M 1103,2199 L 953,2198 L 954,2180 L 1103,2199 z "
             style="fill:#ff0707;fill-opacity:1" />
          <path
             id="path8235"
             d="M 954,2180 L 968,2068 L 1117,2087 L 1266,2106 L 1251,2218 L 1103,2199 L 954,2180 z "
             style="fill:#ff0707;fill-opacity:1" />
          <path
             id="path8237"
             d="M 1117,2087 L 968,2068 L 971,2053 L 1117,2087 z "
             style="fill:#ff0707;fill-opacity:1" />
          <path
             id="path8239"
             d="M 971,2053 L 998,1939 L 1144,1974 L 1290,2008 L 1263,2122 L 1117,2087 L 971,2053 z "
             style="fill:#ff0707;fill-opacity:1" />
          <path
             id="path8241"
             d="M 1144,1974 L 998,1939 L 1002,1925 L 1144,1974 z "
             style="fill:#ff0707;fill-opacity:1" />
          <path
             id="path8243"
             d="M 1002,1925 L 1041,1812 L 1183,1861 L 1324,1910 L 1285,2023 L 1144,1974 L 1002,1925 z "
             style="fill:#ff0707;fill-opacity:1" />
          <path
             id="path8245"
             d="M 1183,1861 L 1041,1812 L 1046,1798 L 1183,1861 z "
             style="fill:#ff0707;fill-opacity:1" />
          <path
             id="path8247"
             d="M 1046,1798 L 1096,1689 L 1233,1751 L 1369,1814 L 1319,1923 L 1183,1861 L 1046,1798 z "
             style="fill:#ff0707;fill-opacity:1" />
          <path
             id="path8249"
             d="M 1233,1751 L 1096,1689 L 1103,1676 L 1233,1751 z "
             style="fill:#ff0707;fill-opacity:1" />
          <path
             id="path8251"
             d="M 1103,1676 L 1163,1572 L 1293,1648 L 1423,1723 L 1362,1827 L 1233,1751 L 1103,1676 z "
             style="fill:#ff0707;fill-opacity:1" />
          <path
             id="path8253"
             d="M 1293,1648 L 1163,1572 L 1172,1559 L 1293,1648 z "
             style="fill:#ff0707;fill-opacity:1" />
          <path
             id="path8255"
             d="M 1172,1559 L 1242,1464 L 1363,1553 L 1484,1642 L 1414,1737 L 1293,1648 L 1172,1559 z "
             style="fill:#ff0707;fill-opacity:1" />
          <path
             id="path8257"
             d="M 1363,1553 L 1242,1464 L 1253,1450 L 1363,1553 z "
             style="fill:#ff0707;fill-opacity:1" />
          <path
             id="path8259"
             d="M 1253,1450 L 1332,1367 L 1441,1469 L 1551,1572 L 1472,1655 L 1363,1553 L 1253,1450 z "
             style="fill:#ff0707;fill-opacity:1" />
          <path
             id="path8261"
             d="M 1441,1469 L 1332,1367 L 1347,1352 L 1441,1469 z "
             style="fill:#ff0707;fill-opacity:1" />
          <path
             id="path8263"
             d="M 1347,1352 L 1433,1283 L 1528,1400 L 1622,1516 L 1535,1586 L 1441,1469 L 1347,1352 z "
             style="fill:#ff0707;fill-opacity:1" />
          <path
             id="path8265"
             d="M 1528,1400 L 1433,1283 L 1448,1273 L 1528,1400 z "
             style="fill:#ff0707;fill-opacity:1" />
          <path
             id="path8267"
             d="M 1448,1273 L 1494,1244 L 1573,1371 L 1653,1498 L 1607,1527 L 1528,1400 L 1448,1273 z "
             style="fill:#ff0707;fill-opacity:1" />
          <path
             id="path8269"
             d="M 1573,1371 L 1494,1244 L 1505,1237 L 1573,1371 z "
             style="fill:#ff0707;fill-opacity:1" />
          <path
             id="path8271"
             d="M 1505,1237 L 1553,1213 L 1621,1347 L 1689,1480 L 1642,1504 L 1573,1371 L 1505,1237 z "
             style="fill:#ff0707;fill-opacity:1" />
          <path
             id="path8273"
             d="M 1621,1347 L 1553,1213 L 1566,1207 L 1621,1347 z "
             style="fill:#ff0707;fill-opacity:1" />
          <path
             id="path8275"
             d="M 1566,1207 L 1615,1188 L 1670,1327 L 1725,1467 L 1676,1486 L 1621,1347 L 1566,1207 z "
             style="fill:#ff0707;fill-opacity:1" />
          <path
             id="path8277"
             d="M 1670,1327 L 1615,1188 L 1629,1183 L 1670,1327 z "
             style="fill:#ff0707;fill-opacity:1" />
          <path
             id="path8279"
             d="M 1629,1183 L 1679,1169 L 1720,1313 L 1761,1457 L 1711,1471 L 1670,1327 L 1629,1183 z "
             style="fill:#ff0707;fill-opacity:1" />
          <path
             id="path8281"
             d="M 1720,1313 L 1679,1169 L 1695,1165 L 1720,1313 z "
             style="fill:#ff0707;fill-opacity:1" />
          <path
             id="path8283"
             d="M 1695,1165 L 1747,1156 L 1772,1304 L 1797,1452 L 1746,1461 L 1720,1313 L 1695,1165 z "
             style="fill:#ff0707;fill-opacity:1" />
          <path
             id="path8285"
             d="M 1772,1304 L 1747,1156 L 1764,1154 L 1772,1304 z "
             style="fill:#ff0707;fill-opacity:1" />
          <path
             id="path8287"
             d="M 1764,1154 L 1816,1151 L 1825,1301 L 1834,1451 L 1781,1454 L 1772,1304 L 1764,1154 z "
             style="fill:#ff0707;fill-opacity:1" />
          <path
             id="path8289"
             d="M 1825,1301 L 1816,1151 L 1840,1152 L 1825,1301 z "
             style="fill:#ff0707;fill-opacity:1" />
          <path
             id="path8291"
             d="M 1840,1152 L 1893,1157 L 1878,1306 L 1863,1456 L 1810,1450 L 1825,1301 L 1840,1152 z "
             style="fill:#ff0707;fill-opacity:1" />
          <path
             id="path8293"
             d="M 1878,1306 L 1893,1157 L 1919,1162 L 1921,1162 L 1878,1306 z "
             style="fill:#ff0707;fill-opacity:1" />
          <path
             id="path8295"
             d="M 1921,1162 L 1973,1178 L 1930,1322 L 1888,1466 L 1836,1450 L 1878,1306 L 1921,1162 z "
             style="fill:#ff0707;fill-opacity:1" />
          <path
             id="path8297"
             d="M 1930,1322 L 1973,1178 L 1996,1187 L 1930,1322 z "
             style="fill:#ff0707;fill-opacity:1" />
          <path
             id="path8299"
             d="M 1996,1187 L 2048,1212 L 1982,1347 L 1916,1481 L 1864,1456 L 1930,1322 L 1996,1187 z "
             style="fill:#ff0707;fill-opacity:1" />
          <path
             id="path8301"
             d="M 1982,1347 L 2048,1212 L 2066,1223 L 1982,1347 z "
             style="fill:#ff0707;fill-opacity:1" />
          <path
             id="path8303"
             d="M 2066,1223 L 2117,1257 L 2032,1381 L 1947,1505 L 1897,1471 L 1982,1347 L 2066,1223 z "
             style="fill:#ff0707;fill-opacity:1" />
          <path
             id="path8305"
             d="M 2032,1381 L 2117,1257 L 2131,1269 L 2032,1381 z "
             style="fill:#ff0707;fill-opacity:1" />
          <path
             id="path8307"
             d="M 2131,1269 L 2180,1312 L 2081,1424 L 1982,1537 L 1933,1494 L 2032,1381 L 2131,1269 z "
             style="fill:#ff0707;fill-opacity:1" />
          <path
             id="path8309"
             d="M 2081,1424 L 2180,1312 L 2191,1322 L 2081,1424 z "
             style="fill:#ff0707;fill-opacity:1" />
          <path
             id="path8311"
             d="M 2191,1322 L 2239,1374 L 2129,1476 L 2020,1578 L 1971,1527 L 2081,1424 L 2191,1322 z "
             style="fill:#ff0707;fill-opacity:1" />
          <path
             id="path8313"
             d="M 2129,1476 L 2239,1374 L 2250,1388 L 2129,1476 z "
             style="fill:#ff0707;fill-opacity:1" />
          <path
             id="path8315"
             d="M 2250,1388 L 2343,1515 L 2222,1603 L 2101,1692 L 2008,1565 L 2129,1476 L 2250,1388 z "
             style="fill:#ff0707;fill-opacity:1" />
          <path
             id="path8317"
             d="M 2222,1603 L 2343,1515 L 2353,1529 L 2222,1603 z "
             style="fill:#ff0707;fill-opacity:1" />
          <path
             id="path8319"
             d="M 2353,1529 L 2441,1685 L 2310,1759 L 2179,1832 L 2092,1677 L 2222,1603 L 2353,1529 z "
             style="fill:#ff0707;fill-opacity:1" />
          <path
             id="path8321"
             d="M 2310,1759 L 2441,1685 L 2446,1696 L 2310,1759 z "
             style="fill:#ff0707;fill-opacity:1" />
          <path
             id="path8323"
             d="M 2446,1696 L 2529,1877 L 2392,1939 L 2256,2001 L 2174,1821 L 2310,1759 L 2446,1696 z "
             style="fill:#ff0707;fill-opacity:1" />
          <path
             id="path8325"
             d="M 2392,1939 L 2529,1877 L 2533,1886 L 2392,1939 z "
             style="fill:#ff0707;fill-opacity:1" />
          <path
             id="path8327"
             d="M 2533,1886 L 2609,2088 L 2469,2141 L 2329,2194 L 2252,1992 L 2392,1939 L 2533,1886 z "
             style="fill:#ff0707;fill-opacity:1" />
          <path
             id="path8329"
             d="M 2469,2141 L 2609,2088 L 2612,2095 L 2469,2141 z "
             style="fill:#ff0707;fill-opacity:1" />
          <path
             id="path8331"
             d="M 2612,2095 L 2682,2315 L 2539,2361 L 2396,2406 L 2326,2187 L 2469,2141 L 2612,2095 z "
             style="fill:#ff0707;fill-opacity:1" />
          <path
             id="path8333"
             d="M 2539,2361 L 2682,2315 L 2685,2324 L 2539,2361 z "
             style="fill:#ff0707;fill-opacity:1" />
          <path
             id="path8335"
             d="M 2685,2324 L 2805,2804 L 2659,2841 L 2514,2877 L 2394,2397 L 2539,2361 L 2685,2324 z "
             style="fill:#ff0707;fill-opacity:1" />
          <path
             id="path8337"
             d="M 2659,2841 L 2805,2804 L 2807,2815 L 2659,2841 z "
             style="fill:#ff0707;fill-opacity:1" />
          <path
             id="path8339"
             d="M 2807,2815 L 2897,3324 L 2749,3350 L 2601,3377 L 2511,2867 L 2659,2841 L 2807,2815 z "
             style="fill:#ff0707;fill-opacity:1" />
          <path
             id="path8341"
             d="M 2749,3350 L 2897,3324 L 2898,3334 L 2749,3350 z "
             style="fill:#ff0707;fill-opacity:1" />
          <path
             id="path8343"
             d="M 2898,3334 L 2955,3846 L 2805,3863 L 2656,3879 L 2600,3367 L 2749,3350 L 2898,3334 z "
             style="fill:#ff0707;fill-opacity:1" />
          <path
             id="path8345"
             d="M 2805,3863 L 2955,3846 L 2955,3857 L 2805,3863 z "
             style="fill:#ff0707;fill-opacity:1" />
          <path
             id="path8347"
             d="M 2955,3857 L 2975,4343 L 2825,4349 L 2675,4355 L 2656,3869 L 2805,3863 L 2955,3857 z "
             style="fill:#ff0707;fill-opacity:1" />
          <path
             id="path8349"
             d="M 2825,4349 L 2975,4355 L 2972,4381 L 2964,4406 L 2952,4429 L 2936,4450 L 2917,4468 L 2895,4482 L 2871,4492 L 2845,4498 L 2819,4499 L 2793,4496 L 2768,4488 L 2745,4476 L 2724,4460 L 2706,4441 L 2692,4419 L 2682,4395 L 2676,4369 L 2675,4355 L 2825,4349 z "
             style="fill:#ff0707;fill-opacity:1" />
          <path
             id="path8351"
             d="M 2675,4343 L 2695,3857 L 2845,3863 L 2995,3869 L 2975,4355 L 2825,4349 L 2675,4343 z "
             style="fill:#ff0707;fill-opacity:1" />
          <path
             id="path8353"
             d="M 2845,3863 L 2695,3857 L 2696,3846 L 2845,3863 z "
             style="fill:#ff0707;fill-opacity:1" />
          <path
             id="path8355"
             d="M 2696,3846 L 2753,3334 L 2902,3350 L 3051,3367 L 2994,3879 L 2845,3863 L 2696,3846 z "
             style="fill:#ff0707;fill-opacity:1" />
          <path
             id="path8357"
             d="M 2902,3350 L 2753,3334 L 2754,3324 L 2902,3350 z "
             style="fill:#ff0707;fill-opacity:1" />
          <path
             id="path8359"
             d="M 2754,3324 L 2846,2814 L 2993,2841 L 3141,2867 L 3049,3377 L 2902,3350 L 2754,3324 z "
             style="fill:#ff0707;fill-opacity:1" />
          <path
             id="path8361"
             d="M 2993,2841 L 2846,2814 L 2848,2803 L 2993,2841 z "
             style="fill:#ff0707;fill-opacity:1" />
          <path
             id="path8363"
             d="M 2848,2803 L 2972,2323 L 3117,2361 L 3262,2398 L 3139,2878 L 2993,2841 L 2848,2803 z "
             style="fill:#ff0707;fill-opacity:1" />
          <path
             id="path8365"
             d="M 3117,2361 L 2972,2323 L 2974,2314 L 3117,2361 z "
             style="fill:#ff0707;fill-opacity:1" />
          <path
             id="path8367"
             d="M 2974,2314 L 3047,2094 L 3190,2141 L 3332,2188 L 3259,2408 L 3117,2361 L 2974,2314 z "
             style="fill:#ff0707;fill-opacity:1" />
          <path
             id="path8369"
             d="M 3190,2141 L 3047,2094 L 3050,2086 L 3190,2141 z "
             style="fill:#ff0707;fill-opacity:1" />
          <path
             id="path8371"
             d="M 3050,2086 L 3130,1884 L 3269,1939 L 3409,1994 L 3329,2196 L 3190,2141 L 3050,2086 z "
             style="fill:#ff0707;fill-opacity:1" />
          <path
             id="path8373"
             d="M 3269,1939 L 3130,1884 L 3134,1874 L 3269,1939 z "
             style="fill:#ff0707;fill-opacity:1" />
          <path
             id="path8375"
             d="M 3134,1874 L 3220,1694 L 3356,1759 L 3491,1823 L 3405,2004 L 3269,1939 L 3134,1874 z "
             style="fill:#ff0707;fill-opacity:1" />
          <path
             id="path8377"
             d="M 3356,1759 L 3220,1694 L 3227,1682 L 3356,1759 z "
             style="fill:#ff0707;fill-opacity:1" />
          <path
             id="path8379"
             d="M 3227,1682 L 3319,1526 L 3448,1603 L 3577,1680 L 3485,1835 L 3356,1759 L 3227,1682 z "
             style="fill:#ff0707;fill-opacity:1" />
          <path
             id="path8381"
             d="M 3448,1603 L 3319,1526 L 3330,1511 L 3448,1603 z "
             style="fill:#ff0707;fill-opacity:1" />
          <path
             id="path8383"
             d="M 3330,1511 L 3428,1384 L 3546,1476 L 3665,1568 L 3567,1695 L 3448,1603 L 3330,1511 z "
             style="fill:#ff0707;fill-opacity:1" />
          <path
             id="path8385"
             d="M 3546,1476 L 3428,1384 L 3440,1371 L 3546,1476 z "
             style="fill:#ff0707;fill-opacity:1" />
          <path
             id="path8387"
             d="M 3440,1371 L 3491,1319 L 3598,1424 L 3704,1530 L 3653,1582 L 3546,1476 L 3440,1371 z "
             style="fill:#ff0707;fill-opacity:1" />
          <path
             id="path8389"
             d="M 3598,1424 L 3491,1319 L 3502,1309 L 3598,1424 z "
             style="fill:#ff0707;fill-opacity:1" />
          <path
             id="path8391"
             d="M 3502,1309 L 3555,1265 L 3650,1381 L 3746,1497 L 3693,1540 L 3598,1424 L 3502,1309 z "
             style="fill:#ff0707;fill-opacity:1" />
          <path
             id="path8393"
             d="M 3650,1381 L 3555,1265 L 3569,1255 L 3650,1381 z "
             style="fill:#ff0707;fill-opacity:1" />
          <path
             id="path8395"
             d="M 3569,1255 L 3623,1220 L 3704,1347 L 3785,1473 L 3731,1508 L 3650,1381 L 3569,1255 z "
             style="fill:#ff0707;fill-opacity:1" />
          <path
             id="path8397"
             d="M 3704,1347 L 3623,1220 L 3642,1210 L 3704,1347 z "
             style="fill:#ff0707;fill-opacity:1" />
          <path
             id="path8399"
             d="M 3642,1210 L 3697,1185 L 3759,1322 L 3821,1458 L 3766,1483 L 3704,1347 L 3642,1210 z "
             style="fill:#ff0707;fill-opacity:1" />
          <path
             id="path8401"
             d="M 3759,1322 L 3697,1185 L 3720,1177 L 3759,1322 z "
             style="fill:#ff0707;fill-opacity:1" />
          <path
             id="path8403"
             d="M 3720,1177 L 3776,1162 L 3816,1306 L 3855,1451 L 3799,1466 L 3759,1322 L 3720,1177 z "
             style="fill:#ff0707;fill-opacity:1" />
          <path
             id="path8405"
             d="M 3816,1306 L 3776,1162 L 3802,1157 L 3802,1157 L 3816,1306 z "
             style="fill:#ff0707;fill-opacity:1" />
          <path
             id="path8407"
             d="M 3802,1157 L 3859,1152 L 3873,1301 L 3887,1450 L 3829,1456 L 3816,1306 L 3802,1157 z "
             style="fill:#ff0707;fill-opacity:1" />
          <path
             id="path8409"
             d="M 3873,1301 L 3859,1152 L 3881,1151 L 3873,1301 z "
             style="fill:#ff0707;fill-opacity:1" />
          <path
             id="path8411"
             d="M 3881,1151 L 3938,1154 L 3930,1304 L 3922,1454 L 3865,1451 L 3873,1301 L 3881,1151 z "
             style="fill:#ff0707;fill-opacity:1" />
          <path
             id="path8413"
             d="M 3930,1304 L 3938,1154 L 3954,1156 L 3930,1304 z "
             style="fill:#ff0707;fill-opacity:1" />
          <path
             id="path8415"
             d="M 3954,1156 L 4009,1165 L 3986,1313 L 3962,1461 L 3907,1452 L 3930,1304 L 3954,1156 z "
             style="fill:#ff0707;fill-opacity:1" />
          <path
             id="path8417"
             d="M 3986,1313 L 4009,1165 L 4024,1168 L 3986,1313 z "
             style="fill:#ff0707;fill-opacity:1" />
          <path
             id="path8419"
             d="M 4024,1168 L 4078,1182 L 4039,1327 L 4001,1472 L 3947,1458 L 3986,1313 L 4024,1168 z "
             style="fill:#ff0707;fill-opacity:1" />
          <path
             id="path8421"
             d="M 4039,1327 L 4078,1182 L 4092,1187 L 4039,1327 z "
             style="fill:#ff0707;fill-opacity:1" />
          <path
             id="path8423"
             d="M 4092,1187 L 4144,1206 L 4091,1347 L 4038,1487 L 3987,1468 L 4039,1327 L 4092,1187 z "
             style="fill:#ff0707;fill-opacity:1" />
          <path
             id="path8425"
             d="M 4091,1347 L 4144,1206 L 4157,1212 L 4091,1347 z "
             style="fill:#ff0707;fill-opacity:1" />
          <path
             id="path8427"
             d="M 4157,1212 L 4207,1236 L 4141,1371 L 4075,1506 L 4025,1481 L 4091,1347 L 4157,1212 z "
             style="fill:#ff0707;fill-opacity:1" />
          <path
             id="path8429"
             d="M 4141,1371 L 4207,1236 L 4218,1242 L 4141,1371 z "
             style="fill:#ff0707;fill-opacity:1" />
          <path
             id="path8431"
             d="M 4218,1242 L 4266,1271 L 4189,1400 L 4112,1528 L 4064,1499 L 4141,1371 L 4218,1242 z "
             style="fill:#ff0707;fill-opacity:1" />
          <path
             id="path8433"
             d="M 4189,1400 L 4266,1271 L 4281,1281 L 4189,1400 z "
             style="fill:#ff0707;fill-opacity:1" />
          <path
             id="path8435"
             d="M 4281,1281 L 4371,1351 L 4278,1469 L 4186,1588 L 4097,1518 L 4189,1400 L 4281,1281 z "
             style="fill:#ff0707;fill-opacity:1" />
          <path
             id="path8437"
             d="M 4278,1469 L 4371,1351 L 4386,1365 L 4278,1469 z "
             style="fill:#ff0707;fill-opacity:1" />
          <path
             id="path8439"
             d="M 4386,1365 L 4467,1449 L 4359,1553 L 4252,1657 L 4171,1574 L 4278,1469 L 4386,1365 z "
             style="fill:#ff0707;fill-opacity:1" />
          <path
             id="path8441"
             d="M 4359,1553 L 4467,1449 L 4479,1463 L 4359,1553 z "
             style="fill:#ff0707;fill-opacity:1" />
          <path
             id="path8443"
             d="M 4479,1463 L 4551,1557 L 4431,1648 L 4312,1738 L 4240,1643 L 4359,1553 L 4479,1463 z "
             style="fill:#ff0707;fill-opacity:1" />
          <path
             id="path8445"
             d="M 4431,1648 L 4551,1557 L 4560,1571 L 4431,1648 z "
             style="fill:#ff0707;fill-opacity:1" />
          <path
             id="path8447"
             d="M 4560,1571 L 4622,1674 L 4493,1752 L 4365,1829 L 4303,1725 L 4431,1648 L 4560,1571 z "
             style="fill:#ff0707;fill-opacity:1" />
          <path
             id="path8449"
             d="M 4493,1752 L 4622,1674 L 4629,1687 L 4493,1752 z "
             style="fill:#ff0707;fill-opacity:1" />
          <path
             id="path8451"
             d="M 4629,1687 L 4681,1797 L 4545,1861 L 4410,1925 L 4358,1816 L 4493,1752 L 4629,1687 z "
             style="fill:#ff0707;fill-opacity:1" />
          <path
             id="path8453"
             d="M 4545,1861 L 4681,1797 L 4686,1809 L 4545,1861 z "
             style="fill:#ff0707;fill-opacity:1" />
          <path
             id="path8455"
             d="M 4686,1809 L 4728,1922 L 4587,1974 L 4446,2026 L 4405,1913 L 4545,1861 L 4686,1809 z "
             style="fill:#ff0707;fill-opacity:1" />
          <path
             id="path8457"
             d="M 4587,1974 L 4728,1922 L 4732,1935 L 4587,1974 z "
             style="fill:#ff0707;fill-opacity:1" />
          <path
             id="path8459"
             d="M 4732,1935 L 4762,2049 L 4617,2088 L 4472,2126 L 4442,2013 L 4587,1974 L 4732,1935 z "
             style="fill:#ff0707;fill-opacity:1" />
          <path
             id="path8461"
             d="M 4617,2088 L 4762,2049 L 4765,2063 L 4617,2088 z "
             style="fill:#ff0707;fill-opacity:1" />
          <path
             id="path8463"
             d="M 4765,2063 L 4784,2174 L 4636,2199 L 4488,2224 L 4469,2113 L 4617,2088 L 4765,2063 z "
             style="fill:#ff0707;fill-opacity:1" />
          <path
             id="path8465"
             d="M 4636,2199 L 4784,2174 L 4786,2190 L 4636,2199 z "
             style="fill:#ff0707;fill-opacity:1" />
          <path
             id="path8467"
             d="M 4786,2190 L 4792,2297 L 4643,2306 L 4493,2316 L 4486,2209 L 4636,2199 L 4786,2190 z "
             style="fill:#ff0707;fill-opacity:1" />
          <path
             id="path8469"
             d="M 4643,2306 L 4792,2297 L 4792,2315 L 4643,2306 z "
             style="fill:#ff0707;fill-opacity:1" />
          <path
             id="path8471"
             d="M 4792,2315 L 4787,2415 L 4637,2406 L 4487,2397 L 4493,2298 L 4643,2306 L 4792,2315 z "
             style="fill:#ff0707;fill-opacity:1" />
          <path
             id="path8473"
             d="M 4637,2406 L 4787,2415 L 4785,2431 L 4637,2406 z "
             style="fill:#ff0707;fill-opacity:1" />
          <path
             id="path8475"
             d="M 4785,2431 L 4777,2477 L 4629,2452 L 4481,2427 L 4489,2381 L 4637,2406 L 4785,2431 z "
             style="fill:#ff0707;fill-opacity:1" />
          <path
             id="path8477"
             d="M 4629,2452 L 4777,2477 L 4774,2489 L 4629,2452 z "
             style="fill:#ff0707;fill-opacity:1" />
          <path
             id="path8479"
             d="M 4774,2489 L 4763,2533 L 4618,2496 L 4473,2459 L 4484,2415 L 4629,2452 L 4774,2489 z "
             style="fill:#ff0707;fill-opacity:1" />
          <path
             id="path8481"
             d="M 4618,2496 L 4763,2533 L 4759,2547 L 4618,2496 z "
             style="fill:#ff0707;fill-opacity:1" />
          <path
             id="path8483"
             d="M 4759,2547 L 4745,2587 L 4603,2536 L 4462,2485 L 4477,2445 L 4618,2496 L 4759,2547 z "
             style="fill:#ff0707;fill-opacity:1" />
          <path
             id="path8485"
             d="M 4603,2536 L 4745,2587 L 4738,2602 L 4603,2536 z "
             style="fill:#ff0707;fill-opacity:1" />
          <path
             id="path8487"
             d="M 4738,2602 L 4720,2639 L 4585,2573 L 4451,2507 L 4469,2471 L 4603,2536 L 4738,2602 z "
             style="fill:#ff0707;fill-opacity:1" />
          <path
             id="path8489"
             d="M 4585,2573 L 4720,2639 L 4711,2655 L 4585,2573 z "
             style="fill:#ff0707;fill-opacity:1" />
          <path
             id="path8491"
             d="M 4711,2655 L 4690,2688 L 4564,2606 L 4438,2524 L 4460,2491 L 4585,2573 L 4711,2655 z "
             style="fill:#ff0707;fill-opacity:1" />
          <path
             id="path8493"
             d="M 4564,2606 L 4690,2688 L 4677,2704 L 4564,2606 z "
             style="fill:#ff0707;fill-opacity:1" />
          <path
             id="path8495"
             d="M 4677,2704 L 4652,2733 L 4539,2635 L 4426,2537 L 4451,2508 L 4564,2606 L 4677,2704 z "
             style="fill:#ff0707;fill-opacity:1" />
        </g>
        <g
           id="g8497"
           style="fill:#ff0707;fill-opacity:1" />
      </g>
    </g>
  </g>
</svg>
