<?xml version="1.0" encoding="UTF-8" standalone="no"?>
<!-- Created with Inkscape (http://www.inkscape.org/) -->
<svg
   xmlns:dc="http://purl.org/dc/elements/1.1/"
   xmlns:cc="http://web.resource.org/cc/"
   xmlns:rdf="http://www.w3.org/1999/02/22-rdf-syntax-ns#"
   xmlns:svg="http://www.w3.org/2000/svg"
   xmlns="http://www.w3.org/2000/svg"
   xmlns:xlink="http://www.w3.org/1999/xlink"
   xmlns:sodipodi="http://inkscape.sourceforge.net/DTD/sodipodi-0.dtd"
   xmlns:inkscape="http://www.inkscape.org/namespaces/inkscape"
   width="1cm"
   height="1cm"
   id="svg14878"
   sodipodi:version="0.32"
   inkscape:version="0.43"
   version="1.0"
   sodipodi:docbase="/world/proj/Kproj/symsolon/data"
   sodipodi:docname="sign-06-virgo.svg">
  <defs
     id="defs3">
    <linearGradient
       id="linearGradient9012">
      <stop
         style="stop-color:#75573d;stop-opacity:1;"
         offset="0"
         id="stop9014" />
      <stop
         style="stop-color:#ffffff;stop-opacity:0;"
         offset="1"
         id="stop9016" />
    </linearGradient>
    <radialGradient
       inkscape:collect="always"
       xlink:href="#linearGradient9012"
       id="radialGradient9026"
       cx="7179"
       cy="7240.5"
       fx="7179"
       fy="7240.5"
       r="1417"
       gradientTransform="matrix(1,0,0,0.880381,0,866.1007)"
       gradientUnits="userSpaceOnUse" />
    <radialGradient
       inkscape:collect="always"
       xlink:href="#linearGradient9012"
       id="radialGradient9028"
       cx="8929"
       cy="6818.5"
       fx="8929"
       fy="6818.5"
       r="496"
       gradientTransform="matrix(1,0,0,1.59375,0,-4048.484)"
       gradientUnits="userSpaceOnUse" />
    <radialGradient
       inkscape:collect="always"
       xlink:href="#linearGradient9012"
       id="radialGradient9030"
       cx="8445"
       cy="7595.5"
       fx="8445"
       fy="7595.5"
       r="151"
       gradientTransform="matrix(1,0,0,10.14901,0,-69491.28)"
       gradientUnits="userSpaceOnUse" />
    <radialGradient
       inkscape:collect="always"
       xlink:href="#linearGradient9012"
       id="radialGradient9032"
       cx="5576.5"
       cy="7125.5"
       fx="5576.5"
       fy="7125.5"
       r="439.5"
       gradientTransform="matrix(1,0,0,2.758817,0,-12532.45)"
       gradientUnits="userSpaceOnUse" />
    <linearGradient
       inkscape:collect="always"
       xlink:href="#linearGradient9012"
       id="linearGradient9894"
       x1="5762"
       y1="7240.5"
       x2="8596"
       y2="7240.5"
       gradientUnits="userSpaceOnUse" />
    <linearGradient
       inkscape:collect="always"
       xlink:href="#linearGradient9012"
       id="linearGradient9896"
       x1="8433"
       y1="6818.5"
       x2="9425"
       y2="6818.5"
       gradientUnits="userSpaceOnUse" />
    <linearGradient
       inkscape:collect="always"
       xlink:href="#linearGradient9012"
       id="linearGradient9898"
       x1="8294"
       y1="7595.5"
       x2="8596"
       y2="7595.5"
       gradientUnits="userSpaceOnUse" />
    <linearGradient
       inkscape:collect="always"
       xlink:href="#linearGradient9012"
       id="linearGradient9900"
       x1="5137"
       y1="7125.5"
       x2="6016"
       y2="7125.5"
       gradientUnits="userSpaceOnUse" />
  </defs>
  <sodipodi:namedview
     inkscape:document-units="mm"
     id="base"
     pagecolor="#000000"
     bordercolor="#666666"
     borderopacity="1.0"
     inkscape:pageopacity="1"
     inkscape:pageshadow="2"
     inkscape:zoom="11.373555"
     inkscape:cx="17.716535"
     inkscape:cy="18.085197"
     inkscape:current-layer="layer1"
     inkscape:window-width="966"
     inkscape:window-height="589"
     inkscape:window-x="42"
     inkscape:window-y="66" />
  <metadata
     id="metadata4">
    <rdf:RDF>
      <cc:Work
         rdf:about="">
        <dc:format>image/svg+xml</dc:format>
        <dc:type
           rdf:resource="http://purl.org/dc/dcmitype/StillImage" />
      </cc:Work>
    </rdf:RDF>
  </metadata>
  <g
     inkscape:label="Layer 1"
     inkscape:groupmode="layer"
     id="layer1">
    <g
       style="visibility:visible;fill:url(#linearGradient9894);fill-opacity:1.0"
       id="g10267"
       transform="matrix(7.959431e-3,0,0,7.959431e-3,-40.14472,-41.65488)">
      <desc
         id="desc10269"
         style="fill-opacity:1.0;fill:url(#linearGradient9894)">Drawing</desc>
      <g
         id="g10271"
         style="fill:url(#linearGradient9894);fill-opacity:1.0">
        <g
           id="g10273"
           style="fill:url(#linearGradient9894);stroke:none;fill-opacity:1.0">
          <path
             id="path10275"
             d="M 8296,8345 L 8267,7693 L 8416,7686 L 8566,7679 L 8596,8331 L 8446,8338 L 8296,8345 z "
             style="fill:url(#linearGradient9894);fill-opacity:1.0" />
          <path
             id="path10277"
             d="M 8416,7686 L 8566,7675 L 8566,7679 L 8416,7686 z "
             style="fill:url(#linearGradient9894);fill-opacity:1.0" />
          <path
             id="path10279"
             d="M 8267,7697 L 8240,7333 L 8390,7322 L 8539,7311 L 8566,7675 L 8416,7686 L 8267,7697 z "
             style="fill:url(#linearGradient9894);fill-opacity:1.0" />
          <path
             id="path10281"
             d="M 8390,7322 L 8539,7302 L 8539,7311 L 8390,7322 z "
             style="fill:url(#linearGradient9894);fill-opacity:1.0" />
          <path
             id="path10283"
             d="M 8241,7341 L 8195,6985 L 8344,6966 L 8492,6947 L 8539,7302 L 8390,7322 L 8241,7341 z "
             style="fill:url(#linearGradient9894);fill-opacity:1.0" />
          <path
             id="path10285"
             d="M 8344,6966 L 8491,6937 L 8492,6947 L 8344,6966 z "
             style="fill:url(#linearGradient9894);fill-opacity:1.0" />
          <path
             id="path10287"
             d="M 8196,6995 L 8163,6829 L 8310,6799 L 8457,6770 L 8491,6937 L 8344,6966 L 8196,6995 z "
             style="fill:url(#linearGradient9894);fill-opacity:1.0" />
          <path
             id="path10289"
             d="M 8310,6799 L 8455,6761 L 8457,6770 L 8310,6799 z "
             style="fill:url(#linearGradient9894);fill-opacity:1.0" />
          <path
             id="path10291"
             d="M 8165,6838 L 8124,6683 L 8269,6645 L 8414,6606 L 8455,6761 L 8310,6799 L 8165,6838 z "
             style="fill:url(#linearGradient9894);fill-opacity:1.0" />
          <path
             id="path10293"
             d="M 8269,6645 L 8410,6593 L 8414,6606 L 8269,6645 z "
             style="fill:url(#linearGradient9894);fill-opacity:1.0" />
          <path
             id="path10295"
             d="M 8128,6696 L 8077,6556 L 8218,6505 L 8359,6453 L 8410,6593 L 8269,6645 L 8128,6696 z "
             style="fill:url(#linearGradient9894);fill-opacity:1.0" />
          <path
             id="path10297"
             d="M 8218,6505 L 8352,6437 L 8359,6453 L 8218,6505 z "
             style="fill:url(#linearGradient9894);fill-opacity:1.0" />
          <path
             id="path10299"
             d="M 8084,6572 L 8023,6451 L 8157,6383 L 8291,6316 L 8352,6437 L 8218,6505 L 8084,6572 z "
             style="fill:url(#linearGradient9894);fill-opacity:1.0" />
          <path
             id="path10301"
             d="M 8157,6383 L 8282,6301 L 8291,6316 L 8157,6383 z "
             style="fill:url(#linearGradient9894);fill-opacity:1.0" />
          <path
             id="path10303"
             d="M 8031,6466 L 7996,6413 L 8122,6330 L 8247,6248 L 8282,6301 L 8157,6383 L 8031,6466 z "
             style="fill:url(#linearGradient9894);fill-opacity:1.0" />
          <path
             id="path10305"
             d="M 8122,6330 L 8239,6236 L 8247,6248 L 8122,6330 z "
             style="fill:url(#linearGradient9894);fill-opacity:1.0" />
          <path
             id="path10307"
             d="M 8005,6424 L 7967,6377 L 8084,6283 L 8201,6189 L 8239,6236 L 8122,6330 L 8005,6424 z "
             style="fill:url(#linearGradient9894);fill-opacity:1.0" />
          <path
             id="path10309"
             d="M 8084,6283 L 8190,6177 L 8201,6189 L 8084,6283 z "
             style="fill:url(#linearGradient9894);fill-opacity:1.0" />
          <path
             id="path10311"
             d="M 7978,6389 L 7937,6348 L 8043,6242 L 8149,6136 L 8190,6177 L 8084,6283 L 7978,6389 z "
             style="fill:url(#linearGradient9894);fill-opacity:1.0" />
          <path
             id="path10313"
             d="M 8043,6242 L 8135,6123 L 8149,6136 L 8043,6242 z "
             style="fill:url(#linearGradient9894);fill-opacity:1.0" />
          <path
             id="path10315"
             d="M 7951,6360 L 7906,6326 L 7998,6207 L 8090,6089 L 8135,6123 L 8043,6242 L 7951,6360 z "
             style="fill:url(#linearGradient9894);fill-opacity:1.0" />
          <path
             id="path10317"
             d="M 7998,6207 L 8073,6077 L 8090,6089 L 7998,6207 z "
             style="fill:url(#linearGradient9894);fill-opacity:1.0" />
          <path
             id="path10319"
             d="M 7923,6337 L 7876,6310 L 7950,6180 L 8025,6050 L 8073,6077 L 7998,6207 L 7923,6337 z "
             style="fill:url(#linearGradient9894);fill-opacity:1.0" />
          <path
             id="path10321"
             d="M 7950,6180 L 8005,6040 L 8025,6050 L 7950,6180 z "
             style="fill:url(#linearGradient9894);fill-opacity:1.0" />
          <path
             id="path10323"
             d="M 7896,6319 L 7844,6299 L 7899,6160 L 7954,6020 L 8005,6040 L 7950,6180 L 7896,6319 z "
             style="fill:url(#linearGradient9894);fill-opacity:1.0" />
          <path
             id="path10325"
             d="M 7899,6160 L 7932,6013 L 7954,6020 L 7899,6160 z "
             style="fill:url(#linearGradient9894);fill-opacity:1.0" />
          <path
             id="path10327"
             d="M 7866,6306 L 7811,6294 L 7844,6147 L 7877,6001 L 7932,6013 L 7899,6160 L 7866,6306 z "
             style="fill:url(#linearGradient9894);fill-opacity:1.0" />
          <path
             id="path10329"
             d="M 7844,6147 L 7855,5998 L 7877,6001 L 7844,6147 z "
             style="fill:url(#linearGradient9894);fill-opacity:1.0" />
          <path
             id="path10331"
             d="M 7833,6297 L 7774,6293 L 7785,6143 L 7796,5993 L 7855,5998 L 7844,6147 L 7833,6297 z "
             style="fill:url(#linearGradient9894);fill-opacity:1.0" />
          <path
             id="path10333"
             d="M 7785,6143 L 7779,5993 L 7796,5993 L 7785,6143 z "
             style="fill:url(#linearGradient9894);fill-opacity:1.0" />
          <path
             id="path10335"
             d="M 7791,6293 L 7732,6295 L 7726,6145 L 7720,5996 L 7779,5993 L 7785,6143 L 7791,6293 z "
             style="fill:url(#linearGradient9894);fill-opacity:1.0" />
          <path
             id="path10337"
             d="M 7726,6145 L 7707,5997 L 7720,5996 L 7726,6145 z "
             style="fill:url(#linearGradient9894);fill-opacity:1.0" />
          <path
             id="path10339"
             d="M 7746,6294 L 7691,6301 L 7671,6153 L 7652,6004 L 7707,5997 L 7726,6145 L 7746,6294 z "
             style="fill:url(#linearGradient9894);fill-opacity:1.0" />
          <path
             id="path10341"
             d="M 7671,6153 L 7637,6007 L 7652,6004 L 7671,6153 z "
             style="fill:url(#linearGradient9894);fill-opacity:1.0" />
          <path
             id="path10343"
             d="M 7705,6299 L 7654,6311 L 7620,6165 L 7586,6019 L 7637,6007 L 7671,6153 L 7705,6299 z "
             style="fill:url(#linearGradient9894);fill-opacity:1.0" />
          <path
             id="path10345"
             d="M 7620,6165 L 7570,6023 L 7586,6019 L 7620,6165 z "
             style="fill:url(#linearGradient9894);fill-opacity:1.0" />
          <path
             id="path10347"
             d="M 7670,6306 L 7623,6323 L 7573,6181 L 7523,6040 L 7570,6023 L 7620,6165 L 7670,6306 z "
             style="fill:url(#linearGradient9894);fill-opacity:1.0" />
          <path
             id="path10349"
             d="M 7573,6181 L 7507,6046 L 7523,6040 L 7573,6181 z "
             style="fill:url(#linearGradient9894);fill-opacity:1.0" />
          <path
             id="path10351"
             d="M 7638,6316 L 7595,6337 L 7529,6202 L 7464,6068 L 7507,6046 L 7573,6181 L 7638,6316 z "
             style="fill:url(#linearGradient9894);fill-opacity:1.0" />
          <path
             id="path10353"
             d="M 7529,6202 L 7448,6076 L 7464,6068 L 7529,6202 z "
             style="fill:url(#linearGradient9894);fill-opacity:1.0" />
          <path
             id="path10355"
             d="M 7610,6329 L 7570,6355 L 7489,6228 L 7408,6102 L 7448,6076 L 7529,6202 L 7610,6329 z "
             style="fill:url(#linearGradient9894);fill-opacity:1.0" />
          <path
             id="path10357"
             d="M 7489,6228 L 7394,6112 L 7408,6102 L 7489,6228 z "
             style="fill:url(#linearGradient9894);fill-opacity:1.0" />
          <path
             id="path10359"
             d="M 7584,6344 L 7547,6375 L 7452,6259 L 7357,6143 L 7394,6112 L 7489,6228 L 7584,6344 z "
             style="fill:url(#linearGradient9894);fill-opacity:1.0" />
          <path
             id="path10361"
             d="M 7452,6259 L 7344,6154 L 7357,6143 L 7452,6259 z "
             style="fill:url(#linearGradient9894);fill-opacity:1.0" />
          <path
             id="path10363"
             d="M 7559,6363 L 7526,6398 L 7418,6294 L 7310,6189 L 7344,6154 L 7452,6259 L 7559,6363 z "
             style="fill:url(#linearGradient9894);fill-opacity:1.0" />
          <path
             id="path10365"
             d="M 7418,6294 L 7300,6201 L 7310,6189 L 7418,6294 z "
             style="fill:url(#linearGradient9894);fill-opacity:1.0" />
          <path
             id="path10367"
             d="M 7536,6386 L 7505,6425 L 7387,6333 L 7269,6240 L 7300,6201 L 7418,6294 L 7536,6386 z "
             style="fill:url(#linearGradient9894);fill-opacity:1.0" />
          <path
             id="path10369"
             d="M 7387,6333 L 7261,6252 L 7269,6240 L 7387,6333 z "
             style="fill:url(#linearGradient9894);fill-opacity:1.0" />
          <path
             id="path10371"
             d="M 7513,6414 L 7486,6457 L 7359,6377 L 7233,6296 L 7261,6252 L 7387,6333 L 7513,6414 z "
             style="fill:url(#linearGradient9894);fill-opacity:1.0" />
          <path
             id="path10373"
             d="M 7359,6377 L 7224,6312 L 7233,6296 L 7359,6377 z "
             style="fill:url(#linearGradient9894);fill-opacity:1.0" />
          <path
             id="path10375"
             d="M 7495,6441 L 7447,6541 L 7311,6477 L 7176,6412 L 7224,6312 L 7359,6377 L 7495,6441 z "
             style="fill:url(#linearGradient9894);fill-opacity:1.0" />
          <path
             id="path10377"
             d="M 7311,6477 L 7169,6431 L 7176,6412 L 7311,6477 z "
             style="fill:url(#linearGradient9894);fill-opacity:1.0" />
          <path
             id="path10379"
             d="M 7454,6523 L 7416,6640 L 7273,6594 L 7131,6548 L 7169,6431 L 7311,6477 L 7454,6523 z "
             style="fill:url(#linearGradient9894);fill-opacity:1.0" />
          <path
             id="path10381"
             d="M 7273,6594 L 7127,6562 L 7131,6548 L 7273,6594 z "
             style="fill:url(#linearGradient9894);fill-opacity:1.0" />
          <path
             id="path10383"
             d="M 7420,6626 L 7391,6760 L 7244,6728 L 7098,6695 L 7127,6562 L 7273,6594 L 7420,6626 z "
             style="fill:url(#linearGradient9894);fill-opacity:1.0" />
          <path
             id="path10385"
             d="M 7244,6728 L 7096,6706 L 7098,6695 L 7244,6728 z "
             style="fill:url(#linearGradient9894);fill-opacity:1.0" />
          <path
             id="path10387"
             d="M 7393,6749 L 7371,6899 L 7223,6877 L 7074,6856 L 7096,6706 L 7244,6728 L 7393,6749 z "
             style="fill:url(#linearGradient9894);fill-opacity:1.0" />
          <path
             id="path10389"
             d="M 7223,6877 L 7073,6863 L 7074,6856 L 7223,6877 z "
             style="fill:url(#linearGradient9894);fill-opacity:1.0" />
          <path
             id="path10391"
             d="M 7372,6891 L 7357,7056 L 7208,7042 L 7058,7029 L 7073,6863 L 7223,6877 L 7372,6891 z "
             style="fill:url(#linearGradient9894);fill-opacity:1.0" />
          <path
             id="path10393"
             d="M 7208,7042 L 7058,7036 L 7058,7029 L 7208,7042 z "
             style="fill:url(#linearGradient9894);fill-opacity:1.0" />
          <path
             id="path10395"
             d="M 7357,7048 L 7342,7424 L 7192,7418 L 7043,7412 L 7058,7036 L 7208,7042 L 7357,7048 z "
             style="fill:url(#linearGradient9894);fill-opacity:1.0" />
          <path
             id="path10397"
             d="M 7192,7418 L 7042,7418 L 7043,7412 L 7192,7418 z "
             style="fill:url(#linearGradient9894);fill-opacity:1.0" />
          <path
             id="path10399"
             d="M 7342,7418 L 7341,8338 L 7191,8338 L 7041,8338 L 7042,7418 L 7192,7418 L 7342,7418 z "
             style="fill:url(#linearGradient9894);fill-opacity:1.0" />
          <path
             id="path10401"
             d="M 7191,8338 L 7341,8338 L 7339,8364 L 7332,8390 L 7321,8413 L 7306,8435 L 7287,8453 L 7266,8468 L 7242,8479 L 7217,8486 L 7191,8488 L 7165,8486 L 7139,8479 L 7116,8468 L 7094,8453 L 7076,8434 L 7061,8413 L 7050,8389 L 7043,8364 L 7041,8341 L 7191,8338 z "
             style="fill:url(#linearGradient9894);fill-opacity:1.0" />
          <path
             id="path10403"
             d="M 7041,8341 L 7032,7854 L 7182,7851 L 7332,7848 L 7341,8335 L 7191,8338 L 7041,8341 z "
             style="fill:url(#linearGradient9894);fill-opacity:1.0" />
          <path
             id="path10405"
             d="M 7182,7851 L 7332,7841 L 7332,7848 L 7182,7851 z "
             style="fill:url(#linearGradient9894);fill-opacity:1.0" />
          <path
             id="path10407"
             d="M 7033,7860 L 7005,7427 L 7155,7418 L 7304,7408 L 7332,7841 L 7182,7851 L 7033,7860 z "
             style="fill:url(#linearGradient9894);fill-opacity:1.0" />
          <path
             id="path10409"
             d="M 7155,7418 L 7303,7399 L 7304,7408 L 7155,7418 z "
             style="fill:url(#linearGradient9894);fill-opacity:1.0" />
          <path
             id="path10411"
             d="M 7006,7437 L 6957,7061 L 7106,7042 L 7255,7023 L 7303,7399 L 7155,7418 L 7006,7437 z "
             style="fill:url(#linearGradient9894);fill-opacity:1.0" />
          <path
             id="path10413"
             d="M 7106,7042 L 7253,7013 L 7255,7023 L 7106,7042 z "
             style="fill:url(#linearGradient9894);fill-opacity:1.0" />
          <path
             id="path10415"
             d="M 6959,7071 L 6927,6906 L 7074,6877 L 7221,6848 L 7253,7013 L 7106,7042 L 6959,7071 z "
             style="fill:url(#linearGradient9894);fill-opacity:1.0" />
          <path
             id="path10417"
             d="M 7074,6877 L 7219,6840 L 7221,6848 L 7074,6877 z "
             style="fill:url(#linearGradient9894);fill-opacity:1.0" />
          <path
             id="path10419"
             d="M 6928,6914 L 6890,6765 L 7035,6728 L 7181,6690 L 7219,6840 L 7074,6877 L 6928,6914 z "
             style="fill:url(#linearGradient9894);fill-opacity:1.0" />
          <path
             id="path10421"
             d="M 7035,6728 L 7178,6680 L 7181,6690 L 7035,6728 z "
             style="fill:url(#linearGradient9894);fill-opacity:1.0" />
          <path
             id="path10423"
             d="M 6893,6775 L 6849,6641 L 6991,6594 L 7133,6547 L 7178,6680 L 7035,6728 L 6893,6775 z "
             style="fill:url(#linearGradient9894);fill-opacity:1.0" />
          <path
             id="path10425"
             d="M 6991,6594 L 7128,6534 L 7133,6547 L 6991,6594 z "
             style="fill:url(#linearGradient9894);fill-opacity:1.0" />
          <path
             id="path10427"
             d="M 6853,6654 L 6802,6537 L 6940,6477 L 7078,6417 L 7128,6534 L 6991,6594 L 6853,6654 z "
             style="fill:url(#linearGradient9894);fill-opacity:1.0" />
          <path
             id="path10429"
             d="M 6940,6477 L 7070,6402 L 7078,6417 L 6940,6477 z "
             style="fill:url(#linearGradient9894);fill-opacity:1.0" />
          <path
             id="path10431"
             d="M 6810,6551 L 6753,6451 L 6883,6377 L 7013,6302 L 7070,6402 L 6940,6477 L 6810,6551 z "
             style="fill:url(#linearGradient9894);fill-opacity:1.0" />
          <path
             id="path10433"
             d="M 6883,6377 L 7001,6285 L 7013,6302 L 6883,6377 z "
             style="fill:url(#linearGradient9894);fill-opacity:1.0" />
          <path
             id="path10435"
             d="M 6764,6468 L 6700,6385 L 6818,6294 L 6937,6202 L 7001,6285 L 6883,6377 L 6764,6468 z "
             style="fill:url(#linearGradient9894);fill-opacity:1.0" />
          <path
             id="path10437"
             d="M 6818,6294 L 6925,6188 L 6937,6202 L 6818,6294 z "
             style="fill:url(#linearGradient9894);fill-opacity:1.0" />
          <path
             id="path10439"
             d="M 6712,6399 L 6677,6365 L 6784,6259 L 6890,6153 L 6925,6188 L 6818,6294 L 6712,6399 z "
             style="fill:url(#linearGradient9894);fill-opacity:1.0" />
          <path
             id="path10441"
             d="M 6784,6259 L 6880,6143 L 6890,6153 L 6784,6259 z "
             style="fill:url(#linearGradient9894);fill-opacity:1.0" />
          <path
             id="path10443"
             d="M 6688,6374 L 6651,6344 L 6747,6228 L 6843,6113 L 6880,6143 L 6784,6259 L 6688,6374 z "
             style="fill:url(#linearGradient9894);fill-opacity:1.0" />
          <path
             id="path10445"
             d="M 6747,6228 L 6831,6104 L 6843,6113 L 6747,6228 z "
             style="fill:url(#linearGradient9894);fill-opacity:1.0" />
          <path
             id="path10447"
             d="M 6663,6353 L 6625,6327 L 6709,6202 L 6793,6078 L 6831,6104 L 6747,6228 L 6663,6353 z "
             style="fill:url(#linearGradient9894);fill-opacity:1.0" />
          <path
             id="path10449"
             d="M 6709,6202 L 6779,6070 L 6793,6078 L 6709,6202 z "
             style="fill:url(#linearGradient9894);fill-opacity:1.0" />
          <path
             id="path10451"
             d="M 6639,6335 L 6599,6314 L 6669,6181 L 6739,6049 L 6779,6070 L 6709,6202 L 6639,6335 z "
             style="fill:url(#linearGradient9894);fill-opacity:1.0" />
          <path
             id="path10453"
             d="M 6669,6181 L 6724,6042 L 6739,6049 L 6669,6181 z "
             style="fill:url(#linearGradient9894);fill-opacity:1.0" />
          <path
             id="path10455"
             d="M 6614,6321 L 6572,6304 L 6627,6165 L 6682,6025 L 6724,6042 L 6669,6181 L 6614,6321 z "
             style="fill:url(#linearGradient9894);fill-opacity:1.0" />
          <path
             id="path10457"
             d="M 6627,6165 L 6666,6020 L 6682,6025 L 6627,6165 z "
             style="fill:url(#linearGradient9894);fill-opacity:1.0" />
          <path
             id="path10459"
             d="M 6587,6309 L 6543,6297 L 6583,6153 L 6622,6008 L 6666,6020 L 6627,6165 L 6587,6309 z "
             style="fill:url(#linearGradient9894);fill-opacity:1.0" />
          <path
             id="path10461"
             d="M 6583,6153 L 6606,6004 L 6622,6008 L 6583,6153 z "
             style="fill:url(#linearGradient9894);fill-opacity:1.0" />
          <path
             id="path10463"
             d="M 6559,6301 L 6514,6294 L 6537,6145 L 6560,5997 L 6606,6004 L 6583,6153 L 6559,6301 z "
             style="fill:url(#linearGradient9894);fill-opacity:1.0" />
          <path
             id="path10465"
             d="M 6537,6145 L 6544,5996 L 6560,5997 L 6537,6145 z "
             style="fill:url(#linearGradient9894);fill-opacity:1.0" />
          <path
             id="path10467"
             d="M 6529,6295 L 6481,6293 L 6489,6143 L 6497,5993 L 6544,5996 L 6537,6145 L 6529,6295 z "
             style="fill:url(#linearGradient9894);fill-opacity:1.0" />
          <path
             id="path10469"
             d="M 6489,6143 L 6483,5993 L 6497,5993 L 6489,6143 z "
             style="fill:url(#linearGradient9894);fill-opacity:1.0" />
          <path
             id="path10471"
             d="M 6495,6293 L 6447,6295 L 6441,6145 L 6436,5995 L 6483,5993 L 6489,6143 L 6495,6293 z "
             style="fill:url(#linearGradient9894);fill-opacity:1.0" />
          <path
             id="path10473"
             d="M 6441,6145 L 6424,5996 L 6436,5995 L 6441,6145 z "
             style="fill:url(#linearGradient9894);fill-opacity:1.0" />
          <path
             id="path10475"
             d="M 6459,6294 L 6414,6299 L 6396,6150 L 6379,6001 L 6424,5996 L 6441,6145 L 6459,6294 z "
             style="fill:url(#linearGradient9894);fill-opacity:1.0" />
          <path
             id="path10477"
             d="M 6396,6150 L 6365,6004 L 6379,6001 L 6396,6150 z "
             style="fill:url(#linearGradient9894);fill-opacity:1.0" />
          <path
             id="path10479"
             d="M 6428,6297 L 6385,6306 L 6354,6159 L 6323,6013 L 6365,6004 L 6396,6150 L 6428,6297 z "
             style="fill:url(#linearGradient9894);fill-opacity:1.0" />
          <path
             id="path10481"
             d="M 6354,6159 L 6308,6016 L 6323,6013 L 6354,6159 z "
             style="fill:url(#linearGradient9894);fill-opacity:1.0" />
          <path
             id="path10483"
             d="M 6400,6302 L 6360,6315 L 6314,6172 L 6268,6029 L 6308,6016 L 6354,6159 L 6400,6302 z "
             style="fill:url(#linearGradient9894);fill-opacity:1.0" />
          <path
             id="path10485"
             d="M 6314,6172 L 6253,6035 L 6268,6029 L 6314,6172 z "
             style="fill:url(#linearGradient9894);fill-opacity:1.0" />
          <path
             id="path10487"
             d="M 6375,6309 L 6337,6326 L 6276,6189 L 6215,6052 L 6253,6035 L 6314,6172 L 6375,6309 z "
             style="fill:url(#linearGradient9894);fill-opacity:1.0" />
          <path
             id="path10489"
             d="M 6276,6189 L 6201,6059 L 6215,6052 L 6276,6189 z "
             style="fill:url(#linearGradient9894);fill-opacity:1.0" />
          <path
             id="path10491"
             d="M 6351,6319 L 6316,6339 L 6241,6209 L 6165,6080 L 6201,6059 L 6276,6189 L 6351,6319 z "
             style="fill:url(#linearGradient9894);fill-opacity:1.0" />
          <path
             id="path10493"
             d="M 6241,6209 L 6151,6089 L 6165,6080 L 6241,6209 z "
             style="fill:url(#linearGradient9894);fill-opacity:1.0" />
          <path
             id="path10495"
             d="M 6330,6330 L 6297,6355 L 6207,6234 L 6118,6113 L 6151,6089 L 6241,6209 L 6330,6330 z "
             style="fill:url(#linearGradient9894);fill-opacity:1.0" />
          <path
             id="path10497"
             d="M 6207,6234 L 6106,6124 L 6118,6113 L 6207,6234 z "
             style="fill:url(#linearGradient9894);fill-opacity:1.0" />
          <path
             id="path10499"
             d="M 6309,6344 L 6278,6373 L 6176,6263 L 6075,6152 L 6106,6124 L 6207,6234 L 6309,6344 z "
             style="fill:url(#linearGradient9894);fill-opacity:1.0" />
          <path
             id="path10501"
             d="M 6176,6263 L 6064,6163 L 6075,6152 L 6176,6263 z "
             style="fill:url(#linearGradient9894);fill-opacity:1.0" />
          <path
             id="path10503"
             d="M 6289,6362 L 6260,6395 L 6147,6295 L 6035,6196 L 6064,6163 L 6176,6263 L 6289,6362 z "
             style="fill:url(#linearGradient9894);fill-opacity:1.0" />
          <path
             id="path10505"
             d="M 6147,6295 L 6026,6207 L 6035,6196 L 6147,6295 z "
             style="fill:url(#linearGradient9894);fill-opacity:1.0" />
          <path
             id="path10507"
             d="M 6269,6384 L 6242,6421 L 6120,6332 L 5999,6244 L 6026,6207 L 6147,6295 L 6269,6384 z "
             style="fill:url(#linearGradient9894);fill-opacity:1.0" />
          <path
             id="path10509"
             d="M 6120,6332 L 5989,6259 L 5999,6244 L 6120,6332 z "
             style="fill:url(#linearGradient9894);fill-opacity:1.0" />
          <path
             id="path10511"
             d="M 6252,6405 L 6204,6492 L 6072,6419 L 5941,6346 L 5989,6259 L 6120,6332 L 6252,6405 z "
             style="fill:url(#linearGradient9894);fill-opacity:1.0" />
          <path
             id="path10513"
             d="M 6072,6419 L 5933,6364 L 5941,6346 L 6072,6419 z "
             style="fill:url(#linearGradient9894);fill-opacity:1.0" />
          <path
             id="path10515"
             d="M 6212,6473 L 6172,6577 L 6032,6523 L 5892,6468 L 5933,6364 L 6072,6419 L 6212,6473 z "
             style="fill:url(#linearGradient9894);fill-opacity:1.0" />
          <path
             id="path10517"
             d="M 6032,6523 L 5887,6483 L 5892,6468 L 6032,6523 z "
             style="fill:url(#linearGradient9894);fill-opacity:1.0" />
          <path
             id="path10519"
             d="M 6176,6563 L 6143,6685 L 5998,6645 L 5853,6605 L 5887,6483 L 6032,6523 L 6176,6563 z "
             style="fill:url(#linearGradient9894);fill-opacity:1.0" />
          <path
             id="path10521"
             d="M 5998,6645 L 5851,6616 L 5853,6605 L 5998,6645 z "
             style="fill:url(#linearGradient9894);fill-opacity:1.0" />
          <path
             id="path10523"
             d="M 6145,6674 L 6118,6814 L 5971,6786 L 5823,6757 L 5851,6616 L 5998,6645 L 6145,6674 z "
             style="fill:url(#linearGradient9894);fill-opacity:1.0" />
          <path
             id="path10525"
             d="M 5971,6786 L 5822,6766 L 5823,6757 L 5971,6786 z "
             style="fill:url(#linearGradient9894);fill-opacity:1.0" />
          <path
             id="path10527"
             d="M 6119,6806 L 6097,6966 L 5949,6946 L 5800,6925 L 5822,6766 L 5971,6786 L 6119,6806 z "
             style="fill:url(#linearGradient9894);fill-opacity:1.0" />
          <path
             id="path10529"
             d="M 5949,6946 L 5799,6935 L 5800,6925 L 5949,6946 z "
             style="fill:url(#linearGradient9894);fill-opacity:1.0" />
          <path
             id="path10531"
             d="M 6098,6957 L 6070,7336 L 5921,7325 L 5771,7314 L 5799,6935 L 5949,6946 L 6098,6957 z "
             style="fill:url(#linearGradient9894);fill-opacity:1.0" />
          <path
             id="path10533"
             d="M 5921,7325 L 5771,7324 L 5771,7314 L 5921,7325 z "
             style="fill:url(#linearGradient9894);fill-opacity:1.0" />
          <path
             id="path10535"
             d="M 6071,7326 L 6062,8339 L 5912,8338 L 5762,8337 L 5771,7324 L 5921,7325 L 6071,7326 z "
             style="fill:url(#linearGradient9894);fill-opacity:1.0" />
        </g>
        <g
           id="g10537"
           style="fill:url(#linearGradient9894);fill-opacity:1.0" />
      </g>
    </g>
    <g
       style="visibility:visible;fill:url(#linearGradient9896);fill-opacity:1.0"
       id="g10539"
       transform="matrix(7.959431e-3,0,0,7.959431e-3,-40.14472,-41.65488)">
      <desc
         id="desc10541"
         style="fill-opacity:1.0;fill:url(#linearGradient9896)">Drawing</desc>
      <g
         id="g10543"
         style="fill:url(#linearGradient9896);fill-opacity:1.0">
        <g
           id="g10545"
           style="fill:url(#linearGradient9896);stroke:none;fill-opacity:1.0">
          <path
             id="path10547"
             d="M 8475,7309 L 8555,7306 L 8561,7455 L 8568,7605 L 8489,7609 L 8482,7459 L 8475,7309 z "
             style="fill:url(#linearGradient9896);fill-opacity:1.0" />
          <path
             id="path10549"
             d="M 8561,7455 L 8582,7604 L 8568,7605 L 8561,7455 z "
             style="fill:url(#linearGradient9896);fill-opacity:1.0" />
          <path
             id="path10551"
             d="M 8541,7307 L 8618,7296 L 8638,7445 L 8658,7594 L 8582,7604 L 8561,7455 L 8541,7307 z "
             style="fill:url(#linearGradient9896);fill-opacity:1.0" />
          <path
             id="path10553"
             d="M 8638,7445 L 8672,7591 L 8658,7594 L 8638,7445 z "
             style="fill:url(#linearGradient9896);fill-opacity:1.0" />
          <path
             id="path10555"
             d="M 8604,7299 L 8677,7282 L 8711,7428 L 8745,7574 L 8672,7591 L 8638,7445 L 8604,7299 z "
             style="fill:url(#linearGradient9896);fill-opacity:1.0" />
          <path
             id="path10557"
             d="M 8711,7428 L 8758,7571 L 8745,7574 L 8711,7428 z "
             style="fill:url(#linearGradient9896);fill-opacity:1.0" />
          <path
             id="path10559"
             d="M 8664,7286 L 8734,7263 L 8781,7405 L 8828,7548 L 8758,7571 L 8711,7428 L 8664,7286 z "
             style="fill:url(#linearGradient9896);fill-opacity:1.0" />
          <path
             id="path10561"
             d="M 8781,7405 L 8840,7543 L 8828,7548 L 8781,7405 z "
             style="fill:url(#linearGradient9896);fill-opacity:1.0" />
          <path
             id="path10563"
             d="M 8722,7267 L 8788,7239 L 8847,7377 L 8906,7515 L 8840,7543 L 8781,7405 L 8722,7267 z "
             style="fill:url(#linearGradient9896);fill-opacity:1.0" />
          <path
             id="path10565"
             d="M 8847,7377 L 8918,7509 L 8906,7515 L 8847,7377 z "
             style="fill:url(#linearGradient9896);fill-opacity:1.0" />
          <path
             id="path10567"
             d="M 8776,7245 L 8838,7211 L 8909,7343 L 8980,7475 L 8918,7509 L 8847,7377 L 8776,7245 z "
             style="fill:url(#linearGradient9896);fill-opacity:1.0" />
          <path
             id="path10569"
             d="M 8909,7343 L 8992,7469 L 8980,7475 L 8909,7343 z "
             style="fill:url(#linearGradient9896);fill-opacity:1.0" />
          <path
             id="path10571"
             d="M 8827,7218 L 8885,7180 L 8967,7305 L 9050,7431 L 8992,7469 L 8909,7343 L 8827,7218 z "
             style="fill:url(#linearGradient9896);fill-opacity:1.0" />
          <path
             id="path10573"
             d="M 8967,7305 L 9060,7423 L 9050,7431 L 8967,7305 z "
             style="fill:url(#linearGradient9896);fill-opacity:1.0" />
          <path
             id="path10575"
             d="M 8875,7187 L 8929,7145 L 9021,7263 L 9114,7381 L 9060,7423 L 8967,7305 L 8875,7187 z "
             style="fill:url(#linearGradient9896);fill-opacity:1.0" />
          <path
             id="path10577"
             d="M 9021,7263 L 9124,7373 L 9114,7381 L 9021,7263 z "
             style="fill:url(#linearGradient9896);fill-opacity:1.0" />
          <path
             id="path10579"
             d="M 8919,7153 L 8968,7107 L 9071,7217 L 9173,7327 L 9124,7373 L 9021,7263 L 8919,7153 z "
             style="fill:url(#linearGradient9896);fill-opacity:1.0" />
          <path
             id="path10581"
             d="M 9071,7217 L 9182,7318 L 9173,7327 L 9071,7217 z "
             style="fill:url(#linearGradient9896);fill-opacity:1.0" />
          <path
             id="path10583"
             d="M 8959,7116 L 9004,7067 L 9115,7168 L 9226,7269 L 9182,7318 L 9071,7217 L 8959,7116 z "
             style="fill:url(#linearGradient9896);fill-opacity:1.0" />
          <path
             id="path10585"
             d="M 9115,7168 L 9234,7259 L 9226,7269 L 9115,7168 z "
             style="fill:url(#linearGradient9896);fill-opacity:1.0" />
          <path
             id="path10587"
             d="M 8996,7077 L 9035,7025 L 9155,7116 L 9274,7207 L 9234,7259 L 9115,7168 L 8996,7077 z "
             style="fill:url(#linearGradient9896);fill-opacity:1.0" />
          <path
             id="path10589"
             d="M 9155,7116 L 9281,7196 L 9274,7207 L 9155,7116 z "
             style="fill:url(#linearGradient9896);fill-opacity:1.0" />
          <path
             id="path10591"
             d="M 9028,7036 L 9062,6981 L 9189,7062 L 9316,7142 L 9281,7196 L 9155,7116 L 9028,7036 z "
             style="fill:url(#linearGradient9896);fill-opacity:1.0" />
          <path
             id="path10593"
             d="M 9189,7062 L 9322,7130 L 9316,7142 L 9189,7062 z "
             style="fill:url(#linearGradient9896);fill-opacity:1.0" />
          <path
             id="path10595"
             d="M 9056,6993 L 9084,6937 L 9218,7005 L 9351,7074 L 9322,7130 L 9189,7062 L 9056,6993 z "
             style="fill:url(#linearGradient9896);fill-opacity:1.0" />
          <path
             id="path10597"
             d="M 9218,7005 L 9357,7061 L 9351,7074 L 9218,7005 z "
             style="fill:url(#linearGradient9896);fill-opacity:1.0" />
          <path
             id="path10599"
             d="M 9079,6949 L 9102,6891 L 9241,6948 L 9380,7004 L 9357,7061 L 9218,7005 L 9079,6949 z "
             style="fill:url(#linearGradient9896);fill-opacity:1.0" />
          <path
             id="path10601"
             d="M 9241,6948 L 9385,6990 L 9380,7004 L 9241,6948 z "
             style="fill:url(#linearGradient9896);fill-opacity:1.0" />
          <path
             id="path10603"
             d="M 9097,6905 L 9115,6846 L 9259,6889 L 9402,6932 L 9385,6990 L 9241,6948 L 9097,6905 z "
             style="fill:url(#linearGradient9896);fill-opacity:1.0" />
          <path
             id="path10605"
             d="M 9259,6889 L 9406,6917 L 9402,6932 L 9259,6889 z "
             style="fill:url(#linearGradient9896);fill-opacity:1.0" />
          <path
             id="path10607"
             d="M 9111,6861 L 9123,6801 L 9270,6830 L 9417,6858 L 9406,6917 L 9259,6889 L 9111,6861 z "
             style="fill:url(#linearGradient9896);fill-opacity:1.0" />
          <path
             id="path10609"
             d="M 9270,6830 L 9419,6842 L 9417,6858 L 9270,6830 z "
             style="fill:url(#linearGradient9896);fill-opacity:1.0" />
          <path
             id="path10611"
             d="M 9120,6817 L 9125,6758 L 9275,6770 L 9424,6783 L 9419,6842 L 9270,6830 L 9120,6817 z "
             style="fill:url(#linearGradient9896);fill-opacity:1.0" />
          <path
             id="path10613"
             d="M 9275,6770 L 9425,6767 L 9424,6783 L 9275,6770 z "
             style="fill:url(#linearGradient9896);fill-opacity:1.0" />
          <path
             id="path10615"
             d="M 9125,6774 L 9123,6715 L 9273,6711 L 9423,6708 L 9425,6767 L 9275,6770 L 9125,6774 z "
             style="fill:url(#linearGradient9896);fill-opacity:1.0" />
          <path
             id="path10617"
             d="M 9273,6711 L 9422,6690 L 9423,6708 L 9273,6711 z "
             style="fill:url(#linearGradient9896);fill-opacity:1.0" />
          <path
             id="path10619"
             d="M 9125,6732 L 9117,6674 L 9265,6653 L 9414,6632 L 9422,6690 L 9273,6711 L 9125,6732 z "
             style="fill:url(#linearGradient9896);fill-opacity:1.0" />
          <path
             id="path10621"
             d="M 9265,6653 L 9410,6615 L 9414,6632 L 9265,6653 z "
             style="fill:url(#linearGradient9896);fill-opacity:1.0" />
          <path
             id="path10623"
             d="M 9120,6692 L 9105,6635 L 9250,6596 L 9395,6558 L 9410,6615 L 9265,6653 L 9120,6692 z "
             style="fill:url(#linearGradient9896);fill-opacity:1.0" />
          <path
             id="path10625"
             d="M 9250,6596 L 9389,6540 L 9395,6558 L 9250,6596 z "
             style="fill:url(#linearGradient9896);fill-opacity:1.0" />
          <path
             id="path10627"
             d="M 9111,6653 L 9089,6597 L 9228,6541 L 9367,6485 L 9389,6540 L 9250,6596 L 9111,6653 z "
             style="fill:url(#linearGradient9896);fill-opacity:1.0" />
          <path
             id="path10629"
             d="M 9228,6541 L 9359,6468 L 9367,6485 L 9228,6541 z "
             style="fill:url(#linearGradient9896);fill-opacity:1.0" />
          <path
             id="path10631"
             d="M 9097,6614 L 9067,6561 L 9198,6488 L 9329,6415 L 9359,6468 L 9228,6541 L 9097,6614 z "
             style="fill:url(#linearGradient9896);fill-opacity:1.0" />
          <path
             id="path10633"
             d="M 9198,6488 L 9319,6399 L 9329,6415 L 9198,6488 z "
             style="fill:url(#linearGradient9896);fill-opacity:1.0" />
          <path
             id="path10635"
             d="M 9078,6577 L 9040,6527 L 9161,6438 L 9281,6348 L 9319,6399 L 9198,6488 L 9078,6577 z "
             style="fill:url(#linearGradient9896);fill-opacity:1.0" />
          <path
             id="path10637"
             d="M 9161,6438 L 9269,6334 L 9281,6348 L 9161,6438 z "
             style="fill:url(#linearGradient9896);fill-opacity:1.0" />
          <path
             id="path10639"
             d="M 9052,6541 L 9007,6494 L 9116,6390 L 9224,6287 L 9269,6334 L 9161,6438 L 9052,6541 z "
             style="fill:url(#linearGradient9896);fill-opacity:1.0" />
          <path
             id="path10641"
             d="M 9116,6390 L 9211,6275 L 9224,6287 L 9116,6390 z "
             style="fill:url(#linearGradient9896);fill-opacity:1.0" />
          <path
             id="path10643"
             d="M 9020,6506 L 8967,6462 L 9062,6347 L 9158,6231 L 9211,6275 L 9116,6390 L 9020,6506 z "
             style="fill:url(#linearGradient9896);fill-opacity:1.0" />
          <path
             id="path10645"
             d="M 9062,6347 L 9144,6221 L 9158,6231 L 9062,6347 z "
             style="fill:url(#linearGradient9896);fill-opacity:1.0" />
          <path
             id="path10647"
             d="M 8981,6473 L 8919,6433 L 9001,6307 L 9082,6181 L 9144,6221 L 9062,6347 L 8981,6473 z "
             style="fill:url(#linearGradient9896);fill-opacity:1.0" />
          <path
             id="path10649"
             d="M 9001,6307 L 9068,6173 L 9082,6181 L 9001,6307 z "
             style="fill:url(#linearGradient9896);fill-opacity:1.0" />
          <path
             id="path10651"
             d="M 8933,6441 L 8863,6405 L 8931,6271 L 8998,6138 L 9068,6173 L 9001,6307 L 8933,6441 z "
             style="fill:url(#linearGradient9896);fill-opacity:1.0" />
          <path
             id="path10653"
             d="M 8931,6271 L 8985,6132 L 8998,6138 L 8931,6271 z "
             style="fill:url(#linearGradient9896);fill-opacity:1.0" />
          <path
             id="path10655"
             d="M 8877,6411 L 8798,6381 L 8852,6241 L 8906,6101 L 8985,6132 L 8931,6271 L 8877,6411 z "
             style="fill:url(#linearGradient9896);fill-opacity:1.0" />
          <path
             id="path10657"
             d="M 8852,6241 L 8894,6097 L 8906,6101 L 8852,6241 z "
             style="fill:url(#linearGradient9896);fill-opacity:1.0" />
          <path
             id="path10659"
             d="M 8811,6385 L 8723,6360 L 8765,6216 L 8806,6072 L 8894,6097 L 8852,6241 L 8811,6385 z "
             style="fill:url(#linearGradient9896);fill-opacity:1.0" />
          <path
             id="path10661"
             d="M 8765,6216 L 8794,6069 L 8806,6072 L 8765,6216 z "
             style="fill:url(#linearGradient9896);fill-opacity:1.0" />
          <path
             id="path10663"
             d="M 8735,6363 L 8638,6344 L 8668,6197 L 8697,6049 L 8794,6069 L 8765,6216 L 8735,6363 z "
             style="fill:url(#linearGradient9896);fill-opacity:1.0" />
          <path
             id="path10665"
             d="M 8668,6197 L 8681,6047 L 8697,6049 L 8668,6197 z "
             style="fill:url(#linearGradient9896);fill-opacity:1.0" />
          <path
             id="path10667"
             d="M 8655,6346 L 8433,6326 L 8446,6177 L 8459,6028 L 8681,6047 L 8668,6197 L 8655,6346 z "
             style="fill:url(#linearGradient9896);fill-opacity:1.0" />
        </g>
        <g
           id="g10669"
           style="fill:url(#linearGradient9896);fill-opacity:1.0" />
      </g>
    </g>
    <g
       style="visibility:visible;fill:url(#linearGradient9898);fill-opacity:1.0"
       id="g10671"
       transform="matrix(7.959431e-3,0,0,7.959431e-3,-40.14472,-41.65488)">
      <desc
         id="desc10673"
         style="fill-opacity:1.0;fill:url(#linearGradient9898)">Drawing</desc>
      <g
         id="g10675"
         style="fill:url(#linearGradient9898);fill-opacity:1.0">
        <g
           id="g10677"
           style="fill:url(#linearGradient9898);stroke:none;fill-opacity:1.0">
          <path
             id="path10679"
             d="M 8594,6063 L 8596,9128 L 8296,9128 L 8294,6063 L 8594,6063 z "
             style="fill:url(#linearGradient9898);fill-opacity:1.0" />
        </g>
        <g
           id="g10681"
           style="fill:url(#linearGradient9898);fill-opacity:1.0" />
      </g>
    </g>
    <g
       style="visibility:visible;fill:url(#linearGradient9900);fill-opacity:1.0"
       id="g10935"
       transform="matrix(7.959431e-3,0,0,7.959431e-3,-40.14472,-41.65488)">
      <desc
         id="desc10937"
         style="fill-opacity:1.0;fill:url(#linearGradient9900)">Drawing</desc>
      <g
         id="g10939"
         style="fill:url(#linearGradient9900);fill-opacity:1.0">
        <g
           id="g10941"
           style="fill:url(#linearGradient9900);stroke:none;fill-opacity:1.0">
          <path
             id="path10943"
             d="M 5137,6728 L 5749,5969 L 5866,6063 L 5983,6157 L 5371,6916 L 5254,6822 L 5137,6728 z "
             style="fill:url(#linearGradient9900);fill-opacity:1.0" />
          <path
             id="path10945"
             d="M 5866,6063 L 5749,5969 L 5767,5950 L 5788,5935 L 5812,5923 L 5837,5916 L 5863,5913 L 5889,5915 L 5915,5921 L 5938,5932 L 5960,5946 L 5979,5964 L 5994,5985 L 6006,6009 L 6013,6034 L 6016,6060 L 6016,6063 L 5866,6063 z "
             style="fill:url(#linearGradient9900);fill-opacity:1.0" />
          <path
             id="path10947"
             d="M 6016,6063 L 6016,8338 L 5866,8338 L 5716,8338 L 5716,6063 L 5866,6063 L 6016,6063 z "
             style="fill:url(#linearGradient9900);fill-opacity:1.0" />
        </g>
        <g
           id="g10949"
           style="fill:url(#linearGradient9900);fill-opacity:1.0" />
      </g>
    </g>
  </g>
</svg>
