<?xml version="1.0" encoding="UTF-8" standalone="no"?>
<!-- Created with Inkscape (http://www.inkscape.org/) -->
<svg
   xmlns:dc="http://purl.org/dc/elements/1.1/"
   xmlns:cc="http://web.resource.org/cc/"
   xmlns:rdf="http://www.w3.org/1999/02/22-rdf-syntax-ns#"
   xmlns:svg="http://www.w3.org/2000/svg"
   xmlns="http://www.w3.org/2000/svg"
   xmlns:sodipodi="http://inkscape.sourceforge.net/DTD/sodipodi-0.dtd"
   xmlns:inkscape="http://www.inkscape.org/namespaces/inkscape"
   width="1cm"
   height="1cm"
   id="svg14878"
   sodipodi:version="0.32"
   inkscape:version="0.43"
   version="1.0"
   sodipodi:docbase="/world/proj/Kproj/symsolon/data"
   sodipodi:docname="sign-12-pisces.svg">
  <defs
     id="defs3" />
  <sodipodi:namedview
     inkscape:document-units="mm"
     id="base"
     pagecolor="#000000"
     bordercolor="#666666"
     borderopacity="1.0"
     inkscape:pageopacity="1"
     inkscape:pageshadow="2"
     inkscape:zoom="11.373555"
     inkscape:cx="17.716535"
     inkscape:cy="17.716535"
     inkscape:current-layer="layer1"
     inkscape:window-width="966"
     inkscape:window-height="589"
     inkscape:window-x="0"
     inkscape:window-y="25" />
  <metadata
     id="metadata4">
    <rdf:RDF>
      <cc:Work
         rdf:about="">
        <dc:format>image/svg+xml</dc:format>
        <dc:type
           rdf:resource="http://purl.org/dc/dcmitype/StillImage" />
      </cc:Work>
    </rdf:RDF>
  </metadata>
  <g
     inkscape:label="Layer 1"
     inkscape:groupmode="layer"
     id="layer1">
    <g
       style="visibility:visible;fill:#f4adff;fill-opacity:1"
       id="g11443"
       transform="matrix(1.040106e-2,0,0,1.040106e-2,-162.0909,-106.6546)">
      <desc
         id="desc11445">Drawing</desc>
      <g
         id="g11447"
         style="fill:#f4adff;fill-opacity:1">
        <g
           id="g11449"
           style="fill:#f4adff;stroke:none;fill-opacity:1">
          <path
             id="path11451"
             d="M 16149,10321 L 16339,10453 L 16253,10576 L 16167,10699 L 15977,10567 L 16063,10444 L 16149,10321 z "
             style="fill:#f4adff;fill-opacity:1" />
          <path
             id="path11453"
             d="M 16253,10576 L 16339,10453 L 16356,10467 L 16253,10576 z "
             style="fill:#f4adff;fill-opacity:1" />
          <path
             id="path11455"
             d="M 16356,10467 L 16521,10623 L 16418,10732 L 16315,10841 L 16150,10685 L 16253,10576 L 16356,10467 z "
             style="fill:#f4adff;fill-opacity:1" />
          <path
             id="path11457"
             d="M 16418,10732 L 16521,10623 L 16535,10638 L 16418,10732 z "
             style="fill:#f4adff;fill-opacity:1" />
          <path
             id="path11459"
             d="M 16535,10638 L 16675,10814 L 16557,10907 L 16440,11000 L 16300,10825 L 16418,10732 L 16535,10638 z "
             style="fill:#f4adff;fill-opacity:1" />
          <path
             id="path11461"
             d="M 16557,10907 L 16675,10814 L 16686,10831 L 16557,10907 z "
             style="fill:#f4adff;fill-opacity:1" />
          <path
             id="path11463"
             d="M 16686,10831 L 16800,11023 L 16671,11099 L 16542,11176 L 16428,10984 L 16557,10907 L 16686,10831 z "
             style="fill:#f4adff;fill-opacity:1" />
          <path
             id="path11465"
             d="M 16671,11099 L 16800,11023 L 16809,11040 L 16671,11099 z "
             style="fill:#f4adff;fill-opacity:1" />
          <path
             id="path11467"
             d="M 16809,11040 L 16897,11245 L 16760,11304 L 16622,11364 L 16533,11159 L 16671,11099 L 16809,11040 z "
             style="fill:#f4adff;fill-opacity:1" />
          <path
             id="path11469"
             d="M 16760,11304 L 16897,11245 L 16904,11262 L 16760,11304 z "
             style="fill:#f4adff;fill-opacity:1" />
          <path
             id="path11471"
             d="M 16904,11262 L 16967,11476 L 16823,11518 L 16679,11561 L 16616,11347 L 16760,11304 L 16904,11262 z "
             style="fill:#f4adff;fill-opacity:1" />
          <path
             id="path11473"
             d="M 16823,11518 L 16967,11476 L 16971,11493 L 16823,11518 z "
             style="fill:#f4adff;fill-opacity:1" />
          <path
             id="path11475"
             d="M 16971,11493 L 17009,11713 L 16861,11738 L 16713,11764 L 16675,11544 L 16823,11518 L 16971,11493 z "
             style="fill:#f4adff;fill-opacity:1" />
          <path
             id="path11477"
             d="M 16861,11738 L 17009,11713 L 17011,11730 L 16861,11738 z "
             style="fill:#f4adff;fill-opacity:1" />
          <path
             id="path11479"
             d="M 17011,11730 L 17024,11952 L 16874,11961 L 16724,11969 L 16711,11747 L 16861,11738 L 17011,11730 z "
             style="fill:#f4adff;fill-opacity:1" />
          <path
             id="path11481"
             d="M 16874,11961 L 17024,11952 L 17024,11969 L 16874,11961 z "
             style="fill:#f4adff;fill-opacity:1" />
          <path
             id="path11483"
             d="M 17024,11969 L 17011,12190 L 16861,12181 L 16711,12173 L 16724,11952 L 16874,11961 L 17024,11969 z "
             style="fill:#f4adff;fill-opacity:1" />
          <path
             id="path11485"
             d="M 16861,12181 L 17011,12190 L 17009,12207 L 16861,12181 z "
             style="fill:#f4adff;fill-opacity:1" />
          <path
             id="path11487"
             d="M 17009,12207 L 16971,12423 L 16823,12397 L 16675,12371 L 16713,12156 L 16861,12181 L 17009,12207 z "
             style="fill:#f4adff;fill-opacity:1" />
          <path
             id="path11489"
             d="M 16823,12397 L 16971,12423 L 16967,12441 L 16823,12397 z "
             style="fill:#f4adff;fill-opacity:1" />
          <path
             id="path11491"
             d="M 16967,12441 L 16903,12649 L 16760,12605 L 16616,12561 L 16680,12354 L 16823,12397 L 16967,12441 z "
             style="fill:#f4adff;fill-opacity:1" />
          <path
             id="path11493"
             d="M 16760,12605 L 16903,12649 L 16896,12667 L 16760,12605 z "
             style="fill:#f4adff;fill-opacity:1" />
          <path
             id="path11495"
             d="M 16896,12667 L 16808,12862 L 16671,12800 L 16534,12738 L 16623,12543 L 16760,12605 L 16896,12667 z "
             style="fill:#f4adff;fill-opacity:1" />
          <path
             id="path11497"
             d="M 16671,12800 L 16808,12862 L 16798,12881 L 16671,12800 z "
             style="fill:#f4adff;fill-opacity:1" />
          <path
             id="path11499"
             d="M 16798,12881 L 16684,13061 L 16557,12980 L 16430,12900 L 16544,12720 L 16671,12800 L 16798,12881 z "
             style="fill:#f4adff;fill-opacity:1" />
          <path
             id="path11501"
             d="M 16557,12980 L 16684,13061 L 16670,13079 L 16557,12980 z "
             style="fill:#f4adff;fill-opacity:1" />
          <path
             id="path11503"
             d="M 16670,13079 L 16531,13239 L 16418,13141 L 16304,13043 L 16444,12882 L 16557,12980 L 16670,13079 z "
             style="fill:#f4adff;fill-opacity:1" />
          <path
             id="path11505"
             d="M 16418,13141 L 16531,13239 L 16519,13252 L 16418,13141 z "
             style="fill:#f4adff;fill-opacity:1" />
          <path
             id="path11507"
             d="M 16519,13252 L 16440,13324 L 16339,13213 L 16238,13102 L 16317,13030 L 16418,13141 L 16519,13252 z "
             style="fill:#f4adff;fill-opacity:1" />
          <path
             id="path11509"
             d="M 16339,13213 L 16440,13324 L 16430,13332 L 16339,13213 z "
             style="fill:#f4adff;fill-opacity:1" />
          <path
             id="path11511"
             d="M 16430,13332 L 16345,13398 L 16253,13279 L 16161,13160 L 16247,13094 L 16339,13213 L 16430,13332 z "
             style="fill:#f4adff;fill-opacity:1" />
          <path
             id="path11513"
             d="M 16253,13279 L 16345,13398 L 16334,13405 L 16253,13279 z "
             style="fill:#f4adff;fill-opacity:1" />
          <path
             id="path11515"
             d="M 16334,13405 L 16243,13465 L 16161,13339 L 16080,13213 L 16172,13153 L 16253,13279 L 16334,13405 z "
             style="fill:#f4adff;fill-opacity:1" />
          <path
             id="path11517"
             d="M 16161,13339 L 16243,13465 L 16232,13471 L 16161,13339 z "
             style="fill:#f4adff;fill-opacity:1" />
          <path
             id="path11519"
             d="M 16232,13471 L 16134,13523 L 16063,13391 L 15992,13259 L 16091,13206 L 16161,13339 L 16232,13471 z "
             style="fill:#f4adff;fill-opacity:1" />
        </g>
        <g
           id="g11521"
           style="fill:#f4adff;fill-opacity:1" />
      </g>
    </g>
    <g
       style="visibility:visible;fill:#f4adff;fill-opacity:1"
       id="g11523"
       transform="matrix(1.040106e-2,0,0,1.040106e-2,-162.0909,-106.6546)">
      <desc
         id="desc11525">Drawing</desc>
      <g
         id="g11527"
         style="fill:#f4adff;fill-opacity:1">
        <g
           id="g11529"
           style="fill:#f4adff;stroke:none;fill-opacity:1">
          <path
             id="path11531"
             d="M 16168,11718 L 18427,11718 L 18427,12018 L 16168,12018 L 16168,11718 z "
             style="fill:#f4adff;fill-opacity:1" />
        </g>
        <g
           id="g11533"
           style="fill:#f4adff;fill-opacity:1" />
      </g>
    </g>
    <g
       style="visibility:visible;fill:#f4adff;fill-opacity:1"
       id="g11535"
       transform="matrix(1.040106e-2,0,0,1.040106e-2,-162.0909,-106.6546)">
      <desc
         id="desc11537">Drawing</desc>
      <g
         id="g11539"
         style="fill:#f4adff;fill-opacity:1">
        <g
           id="g11541"
           style="fill:#f4adff;stroke:none;fill-opacity:1">
          <path
             id="path11543"
             d="M 18578,10573 L 18384,10708 L 18298,10585 L 18213,10461 L 18406,10327 L 18492,10450 L 18578,10573 z "
             style="fill:#f4adff;fill-opacity:1" />
          <path
             id="path11545"
             d="M 18298,10585 L 18195,10476 L 18213,10461 L 18298,10585 z "
             style="fill:#f4adff;fill-opacity:1" />
          <path
             id="path11547"
             d="M 18402,10694 L 18234,10852 L 18131,10743 L 18028,10634 L 18195,10476 L 18298,10585 L 18402,10694 z "
             style="fill:#f4adff;fill-opacity:1" />
          <path
             id="path11549"
             d="M 18131,10743 L 18013,10650 L 18028,10634 L 18131,10743 z "
             style="fill:#f4adff;fill-opacity:1" />
          <path
             id="path11551"
             d="M 18248,10836 L 18106,11015 L 17989,10922 L 17871,10829 L 18013,10650 L 18131,10743 L 18248,10836 z "
             style="fill:#f4adff;fill-opacity:1" />
          <path
             id="path11553"
             d="M 17989,10922 L 17860,10846 L 17871,10829 L 17989,10922 z "
             style="fill:#f4adff;fill-opacity:1" />
          <path
             id="path11555"
             d="M 18118,10999 L 18002,11194 L 17873,11118 L 17744,11041 L 17860,10846 L 17989,10922 L 18118,10999 z "
             style="fill:#f4adff;fill-opacity:1" />
          <path
             id="path11557"
             d="M 17873,11118 L 17735,11058 L 17744,11041 L 17873,11118 z "
             style="fill:#f4adff;fill-opacity:1" />
          <path
             id="path11559"
             d="M 18010,11177 L 17920,11386 L 17782,11327 L 17645,11267 L 17735,11058 L 17873,11118 L 18010,11177 z "
             style="fill:#f4adff;fill-opacity:1" />
          <path
             id="path11561"
             d="M 17782,11327 L 17639,11284 L 17645,11267 L 17782,11327 z "
             style="fill:#f4adff;fill-opacity:1" />
          <path
             id="path11563"
             d="M 17926,11369 L 17862,11588 L 17718,11545 L 17574,11503 L 17639,11284 L 17782,11327 L 17926,11369 z "
             style="fill:#f4adff;fill-opacity:1" />
          <path
             id="path11565"
             d="M 17718,11545 L 17570,11520 L 17574,11503 L 17718,11545 z "
             style="fill:#f4adff;fill-opacity:1" />
          <path
             id="path11567"
             d="M 17866,11571 L 17827,11795 L 17679,11769 L 17531,11744 L 17570,11520 L 17718,11545 L 17866,11571 z "
             style="fill:#f4adff;fill-opacity:1" />
          <path
             id="path11569"
             d="M 17679,11769 L 17529,11761 L 17531,11744 L 17679,11769 z "
             style="fill:#f4adff;fill-opacity:1" />
          <path
             id="path11571"
             d="M 17829,11778 L 17816,12004 L 17666,11996 L 17516,11987 L 17529,11761 L 17679,11769 L 17829,11778 z "
             style="fill:#f4adff;fill-opacity:1" />
          <path
             id="path11573"
             d="M 17666,11996 L 17516,12004 L 17516,11987 L 17666,11996 z "
             style="fill:#f4adff;fill-opacity:1" />
          <path
             id="path11575"
             d="M 17816,11987 L 17829,12212 L 17679,12221 L 17529,12230 L 17516,12004 L 17666,11996 L 17816,11987 z "
             style="fill:#f4adff;fill-opacity:1" />
          <path
             id="path11577"
             d="M 17679,12221 L 17531,12247 L 17529,12230 L 17679,12221 z "
             style="fill:#f4adff;fill-opacity:1" />
          <path
             id="path11579"
             d="M 17827,12195 L 17866,12415 L 17718,12441 L 17570,12467 L 17531,12247 L 17679,12221 L 17827,12195 z "
             style="fill:#f4adff;fill-opacity:1" />
          <path
             id="path11581"
             d="M 17718,12441 L 17574,12485 L 17570,12467 L 17718,12441 z "
             style="fill:#f4adff;fill-opacity:1" />
          <path
             id="path11583"
             d="M 17861,12397 L 17926,12609 L 17782,12653 L 17639,12696 L 17574,12485 L 17718,12441 L 17861,12397 z "
             style="fill:#f4adff;fill-opacity:1" />
          <path
             id="path11585"
             d="M 17782,12653 L 17646,12715 L 17639,12696 L 17782,12653 z "
             style="fill:#f4adff;fill-opacity:1" />
          <path
             id="path11587"
             d="M 17919,12591 L 18009,12790 L 17873,12852 L 17736,12914 L 17646,12715 L 17782,12653 L 17919,12591 z "
             style="fill:#f4adff;fill-opacity:1" />
          <path
             id="path11589"
             d="M 17873,12852 L 17746,12932 L 17736,12914 L 17873,12852 z "
             style="fill:#f4adff;fill-opacity:1" />
          <path
             id="path11591"
             d="M 17999,12772 L 18116,12955 L 17989,13035 L 17862,13116 L 17746,12932 L 17873,12852 L 17999,12772 z "
             style="fill:#f4adff;fill-opacity:1" />
          <path
             id="path11593"
             d="M 17989,13035 L 17875,13134 L 17862,13116 L 17989,13035 z "
             style="fill:#f4adff;fill-opacity:1" />
          <path
             id="path11595"
             d="M 18102,12937 L 18244,13101 L 18131,13199 L 18017,13297 L 17875,13134 L 17989,13035 L 18102,12937 z "
             style="fill:#f4adff;fill-opacity:1" />
          <path
             id="path11597"
             d="M 18131,13199 L 18030,13310 L 18017,13297 L 18131,13199 z "
             style="fill:#f4adff;fill-opacity:1" />
          <path
             id="path11599"
             d="M 18232,13088 L 18312,13162 L 18211,13273 L 18110,13384 L 18030,13310 L 18131,13199 L 18232,13088 z "
             style="fill:#f4adff;fill-opacity:1" />
          <path
             id="path11601"
             d="M 18211,13273 L 18120,13392 L 18110,13384 L 18211,13273 z "
             style="fill:#f4adff;fill-opacity:1" />
          <path
             id="path11603"
             d="M 18303,13154 L 18390,13221 L 18298,13340 L 18207,13459 L 18120,13392 L 18211,13273 L 18303,13154 z "
             style="fill:#f4adff;fill-opacity:1" />
          <path
             id="path11605"
             d="M 18298,13340 L 18217,13466 L 18207,13459 L 18298,13340 z "
             style="fill:#f4adff;fill-opacity:1" />
          <path
             id="path11607"
             d="M 18380,13214 L 18474,13275 L 18392,13401 L 18310,13527 L 18217,13466 L 18298,13340 L 18380,13214 z "
             style="fill:#f4adff;fill-opacity:1" />
          <path
             id="path11609"
             d="M 18392,13401 L 18321,13533 L 18310,13527 L 18392,13401 z "
             style="fill:#f4adff;fill-opacity:1" />
          <path
             id="path11611"
             d="M 18463,13268 L 18563,13322 L 18492,13454 L 18421,13586 L 18321,13533 L 18392,13401 L 18463,13268 z "
             style="fill:#f4adff;fill-opacity:1" />
        </g>
        <g
           id="g11613"
           style="fill:#f4adff;fill-opacity:1" />
      </g>
    </g>
  </g>
</svg>
