<?xml version="1.0" encoding="UTF-8" standalone="no"?>
<!-- Created with Inkscape (http://www.inkscape.org/) -->
<svg
   xmlns:dc="http://purl.org/dc/elements/1.1/"
   xmlns:cc="http://web.resource.org/cc/"
   xmlns:rdf="http://www.w3.org/1999/02/22-rdf-syntax-ns#"
   xmlns:svg="http://www.w3.org/2000/svg"
   xmlns="http://www.w3.org/2000/svg"
   xmlns:sodipodi="http://inkscape.sourceforge.net/DTD/sodipodi-0.dtd"
   xmlns:inkscape="http://www.inkscape.org/namespaces/inkscape"
   width="1cm"
   height="1cm"
   id="svg14878"
   sodipodi:version="0.32"
   inkscape:version="0.43"
   version="1.0"
   sodipodi:docbase="/world/proj/Kproj/symsolon/data"
   sodipodi:docname="sign-11-aquarius.svg">
  <defs
     id="defs3" />
  <sodipodi:namedview
     inkscape:document-units="mm"
     id="base"
     pagecolor="#000000"
     bordercolor="#666666"
     borderopacity="1.0"
     inkscape:pageopacity="1"
     inkscape:pageshadow="2"
     inkscape:zoom="11.373555"
     inkscape:cx="17.716535"
     inkscape:cy="17.716535"
     inkscape:current-layer="layer1"
     inkscape:window-width="966"
     inkscape:window-height="589"
     inkscape:window-x="0"
     inkscape:window-y="25" />
  <metadata
     id="metadata4">
    <rdf:RDF>
      <cc:Work
         rdf:about="">
        <dc:format>image/svg+xml</dc:format>
        <dc:type
           rdf:resource="http://purl.org/dc/dcmitype/StillImage" />
      </cc:Work>
    </rdf:RDF>
  </metadata>
  <g
     inkscape:label="Layer 1"
     inkscape:groupmode="layer"
     id="layer1">
    <g
       style="visibility:visible;fill:#6f3d00;fill-opacity:1"
       id="g11387"
       transform="matrix(7.297384e-3,0,0,7.297384e-3,-67.30833,-71.34864)">
      <desc
         id="desc11389">Drawing</desc>
      <g
         id="g11391"
         style="fill:#6f3d00;fill-opacity:1">
        <g
           id="g11393"
           style="fill:#6f3d00;stroke:none;fill-opacity:1">
          <path
             id="path11395"
             d="M 9444,12918 L 10323,12132 L 10423,12244 L 10523,12356 L 9644,13142 L 9544,13030 L 9444,12918 z "
             style="fill:#6f3d00;fill-opacity:1" />
          <path
             id="path11397"
             d="M 10423,12244 L 10323,12132 L 10344,12117 L 10367,12105 L 10392,12097 L 10418,12094 L 10444,12096 L 10470,12102 L 10494,12112 L 10516,12126 L 10523,12132 L 10423,12244 z "
             style="fill:#6f3d00;fill-opacity:1" />
          <path
             id="path11399"
             d="M 10523,12132 L 11401,12917 L 11301,13029 L 11201,13141 L 10323,12356 L 10423,12244 L 10523,12132 z "
             style="fill:#6f3d00;fill-opacity:1" />
          <path
             id="path11401"
             d="M 11301,13029 L 11401,13141 L 11380,13156 L 11357,13168 L 11332,13176 L 11306,13179 L 11280,13177 L 11254,13171 L 11230,13161 L 11208,13147 L 11201,13141 L 11301,13029 z "
             style="fill:#6f3d00;fill-opacity:1" />
          <path
             id="path11403"
             d="M 11201,12917 L 12079,12132 L 12179,12244 L 12279,12356 L 11401,13141 L 11301,13029 L 11201,12917 z "
             style="fill:#6f3d00;fill-opacity:1" />
          <path
             id="path11405"
             d="M 12179,12244 L 12079,12132 L 12100,12117 L 12123,12105 L 12148,12097 L 12174,12094 L 12200,12096 L 12226,12102 L 12250,12112 L 12272,12126 L 12279,12132 L 12179,12244 z "
             style="fill:#6f3d00;fill-opacity:1" />
          <path
             id="path11407"
             d="M 12279,12132 L 13158,12918 L 13058,13030 L 12958,13142 L 12079,12356 L 12179,12244 L 12279,12132 z "
             style="fill:#6f3d00;fill-opacity:1" />
          <path
             id="path11409"
             d="M 13058,13030 L 13158,13142 L 13137,13157 L 13114,13169 L 13089,13177 L 13063,13180 L 13037,13178 L 13011,13172 L 12987,13162 L 12965,13148 L 12958,13142 L 13058,13030 z "
             style="fill:#6f3d00;fill-opacity:1" />
          <path
             id="path11411"
             d="M 12958,12918 L 13836,12133 L 13936,12245 L 14036,12357 L 13158,13142 L 13058,13030 L 12958,12918 z "
             style="fill:#6f3d00;fill-opacity:1" />
        </g>
        <g
           id="g11413"
           style="fill:#6f3d00;fill-opacity:1" />
      </g>
    </g>
    <g
       style="visibility:visible;fill:#6f3d00;fill-opacity:1"
       id="g11415"
       transform="matrix(7.297384e-3,0,0,7.297384e-3,-67.30833,-71.34864)">
      <desc
         id="desc11417">Drawing</desc>
      <g
         id="g11419"
         style="fill:#6f3d00;fill-opacity:1">
        <g
           id="g11421"
           style="fill:#6f3d00;stroke:none;fill-opacity:1">
          <path
             id="path11423"
             d="M 9370,11832 L 10249,11046 L 10349,11158 L 10449,11270 L 9570,12056 L 9470,11944 L 9370,11832 z "
             style="fill:#6f3d00;fill-opacity:1" />
          <path
             id="path11425"
             d="M 10349,11158 L 10249,11046 L 10270,11031 L 10293,11019 L 10318,11011 L 10344,11008 L 10370,11010 L 10396,11016 L 10420,11026 L 10442,11040 L 10449,11046 L 10349,11158 z "
             style="fill:#6f3d00;fill-opacity:1" />
          <path
             id="path11427"
             d="M 10449,11046 L 11327,11831 L 11227,11943 L 11127,12055 L 10249,11270 L 10349,11158 L 10449,11046 z "
             style="fill:#6f3d00;fill-opacity:1" />
          <path
             id="path11429"
             d="M 11227,11943 L 11327,12055 L 11306,12070 L 11283,12082 L 11258,12090 L 11232,12093 L 11206,12091 L 11180,12085 L 11156,12075 L 11134,12061 L 11127,12055 L 11227,11943 z "
             style="fill:#6f3d00;fill-opacity:1" />
          <path
             id="path11431"
             d="M 11127,11831 L 12005,11046 L 12105,11158 L 12205,11270 L 11327,12055 L 11227,11943 L 11127,11831 z "
             style="fill:#6f3d00;fill-opacity:1" />
          <path
             id="path11433"
             d="M 12105,11158 L 12005,11046 L 12026,11031 L 12049,11019 L 12074,11011 L 12100,11008 L 12126,11010 L 12152,11016 L 12176,11026 L 12198,11040 L 12205,11046 L 12105,11158 z "
             style="fill:#6f3d00;fill-opacity:1" />
          <path
             id="path11435"
             d="M 12205,11046 L 13084,11832 L 12984,11944 L 12884,12056 L 12005,11270 L 12105,11158 L 12205,11046 z "
             style="fill:#6f3d00;fill-opacity:1" />
          <path
             id="path11437"
             d="M 12984,11944 L 13084,12056 L 13063,12071 L 13040,12083 L 13015,12091 L 12989,12094 L 12963,12092 L 12937,12086 L 12913,12076 L 12891,12062 L 12884,12056 L 12984,11944 z "
             style="fill:#6f3d00;fill-opacity:1" />
          <path
             id="path11439"
             d="M 12884,11832 L 13762,11047 L 13862,11159 L 13962,11271 L 13084,12056 L 12984,11944 L 12884,11832 z "
             style="fill:#6f3d00;fill-opacity:1" />
        </g>
        <g
           id="g11441"
           style="fill:#6f3d00;fill-opacity:1" />
      </g>
    </g>
  </g>
</svg>
