<?xml version="1.0" encoding="UTF-8" standalone="no"?>
<!-- Created with Inkscape (http://www.inkscape.org/) -->
<svg
   xmlns:dc="http://purl.org/dc/elements/1.1/"
   xmlns:cc="http://web.resource.org/cc/"
   xmlns:rdf="http://www.w3.org/1999/02/22-rdf-syntax-ns#"
   xmlns:svg="http://www.w3.org/2000/svg"
   xmlns="http://www.w3.org/2000/svg"
   xmlns:sodipodi="http://inkscape.sourceforge.net/DTD/sodipodi-0.dtd"
   xmlns:inkscape="http://www.inkscape.org/namespaces/inkscape"
   width="1cm"
   height="1cm"
   id="svg14878"
   sodipodi:version="0.32"
   inkscape:version="0.43"
   version="1.0"
   sodipodi:docbase="/world/proj/Kproj/symsolon/data"
   sodipodi:docname="sign-08-scorpion.svg">
  <defs
     id="defs3" />
  <sodipodi:namedview
     inkscape:document-units="mm"
     id="base"
     pagecolor="#000000"
     bordercolor="#666666"
     borderopacity="1.0"
     inkscape:pageopacity="1"
     inkscape:pageshadow="2"
     inkscape:zoom="11.373555"
     inkscape:cx="17.716535"
     inkscape:cy="18.018647"
     inkscape:current-layer="layer1"
     inkscape:window-width="966"
     inkscape:window-height="589"
     inkscape:window-x="0"
     inkscape:window-y="25" />
  <metadata
     id="metadata4">
    <rdf:RDF>
      <cc:Work
         rdf:about="">
        <dc:format>image/svg+xml</dc:format>
        <dc:type
           rdf:resource="http://purl.org/dc/dcmitype/StillImage" />
      </cc:Work>
    </rdf:RDF>
  </metadata>
  <g
     inkscape:label="Layer 1"
     inkscape:groupmode="layer"
     id="layer1">
    <g
       style="visibility:visible;fill:#953e00;fill-opacity:1"
       id="g10839"
       transform="matrix(6.837551e-3,0,0,6.837551e-3,-101.9557,-32.2284)">
      <desc
         id="desc10841">Drawing</desc>
      <g
         id="g10843"
         style="fill:#953e00;fill-opacity:1">
        <g
           id="g10845"
           style="fill:#953e00;stroke:none;fill-opacity:1">
          <path
             id="path10847"
             d="M 15041,6795 L 15898,5731 L 16015,5825 L 16132,5919 L 15275,6983 L 15158,6889 L 15041,6795 z "
             style="fill:#953e00;fill-opacity:1" />
          <path
             id="path10849"
             d="M 16015,5825 L 15898,5731 L 15916,5712 L 15937,5697 L 15961,5685 L 15986,5678 L 16012,5675 L 16038,5677 L 16063,5683 L 16087,5694 L 16109,5708 L 16128,5726 L 16143,5747 L 16155,5771 L 16162,5796 L 16165,5822 L 16165,5825 L 16015,5825 z "
             style="fill:#953e00;fill-opacity:1" />
          <path
             id="path10851"
             d="M 16165,5825 L 16165,9015 L 16015,9015 L 15865,9015 L 15865,5825 L 16015,5825 L 16165,5825 z "
             style="fill:#953e00;fill-opacity:1" />
        </g>
        <g
           id="g10853"
           style="fill:#953e00;fill-opacity:1" />
      </g>
    </g>
    <g
       style="visibility:visible;fill:#953e00;fill-opacity:1"
       id="g10855"
       transform="matrix(6.837551e-3,0,0,6.837551e-3,-101.9557,-32.2284)">
      <desc
         id="desc10857">Drawing</desc>
      <g
         id="g10859"
         style="fill:#953e00;fill-opacity:1">
        <g
           id="g10861"
           style="fill:#953e00;stroke:none;fill-opacity:1">
          <path
             id="path10863"
             d="M 15908,6784 L 16956,5720 L 17063,5825 L 17170,5930 L 16122,6994 L 16015,6889 L 15908,6784 z "
             style="fill:#953e00;fill-opacity:1" />
          <path
             id="path10865"
             d="M 17063,5825 L 16956,5720 L 16976,5703 L 16999,5690 L 17023,5680 L 17049,5676 L 17075,5675 L 17101,5680 L 17125,5689 L 17148,5701 L 17168,5718 L 17185,5738 L 17198,5761 L 17208,5785 L 17212,5811 L 17213,5825 L 17063,5825 z "
             style="fill:#953e00;fill-opacity:1" />
          <path
             id="path10867"
             d="M 17213,5825 L 17213,9015 L 17063,9015 L 16913,9015 L 16913,5825 L 17063,5825 L 17213,5825 z "
             style="fill:#953e00;fill-opacity:1" />
        </g>
        <g
           id="g10869"
           style="fill:#953e00;fill-opacity:1" />
      </g>
    </g>
    <g
       style="visibility:visible;fill:#953e00;fill-opacity:1"
       id="g10871"
       transform="matrix(6.837551e-3,0,0,6.837551e-3,-101.9557,-32.2284)">
      <desc
         id="desc10873">Drawing</desc>
      <g
         id="g10875"
         style="fill:#953e00;fill-opacity:1">
        <g
           id="g10877"
           style="fill:#953e00;stroke:none;fill-opacity:1">
          <path
             id="path10879"
             d="M 16956,6784 L 18003,5720 L 18110,5825 L 18217,5930 L 17170,6994 L 17063,6889 L 16956,6784 z "
             style="fill:#953e00;fill-opacity:1" />
          <path
             id="path10881"
             d="M 18110,5825 L 18003,5720 L 18023,5703 L 18046,5690 L 18070,5680 L 18096,5676 L 18122,5675 L 18148,5680 L 18172,5689 L 18195,5701 L 18215,5718 L 18232,5738 L 18245,5761 L 18255,5785 L 18259,5811 L 18260,5825 L 18110,5825 z "
             style="fill:#953e00;fill-opacity:1" />
          <path
             id="path10883"
             d="M 18260,5825 L 18260,9015 L 18110,9015 L 17960,9015 L 17960,5825 L 18110,5825 L 18260,5825 z "
             style="fill:#953e00;fill-opacity:1" />
        </g>
        <g
           id="g10885"
           style="fill:#953e00;fill-opacity:1" />
      </g>
    </g>
    <g
       style="visibility:visible;fill:#953e00;fill-opacity:1"
       id="g10887"
       transform="matrix(6.837551e-3,0,0,6.837551e-3,-101.9557,-32.2284)">
      <desc
         id="desc10889">Drawing</desc>
      <g
         id="g10891"
         style="fill:#953e00;fill-opacity:1">
        <g
           id="g10893"
           style="fill:#953e00;stroke:none;fill-opacity:1">
          <path
             id="path10895"
             d="M 17996,8823 L 19615,6918 L 19843,7112 L 18224,9017 L 17996,8823 z "
             style="fill:#953e00;fill-opacity:1" />
        </g>
        <g
           id="g10897"
           style="fill:#953e00;fill-opacity:1" />
      </g>
    </g>
    <g
       style="visibility:visible;fill:#953e00;fill-opacity:1"
       id="g10899"
       transform="matrix(6.837551e-3,0,0,6.837551e-3,-101.9557,-32.2284)">
      <desc
         id="desc10901">Drawing</desc>
      <g
         id="g10903"
         style="fill:#953e00;fill-opacity:1">
        <g
           id="g10905"
           style="fill:#953e00;stroke:none;fill-opacity:1">
          <path
             id="path10907"
             d="M 18939,6958 L 19891,6768 L 19949,7062 L 18997,7252 L 18939,6958 z "
             style="fill:#953e00;fill-opacity:1" />
        </g>
        <g
           id="g10909"
           style="fill:#953e00;fill-opacity:1" />
      </g>
    </g>
    <g
       style="visibility:visible;fill:#953e00;fill-opacity:1"
       id="g10911"
       transform="matrix(6.837551e-3,0,0,6.837551e-3,-101.9557,-32.2284)">
      <desc
         id="desc10913">Drawing</desc>
      <g
         id="g10915"
         style="fill:#953e00;fill-opacity:1">
        <g
           id="g10917"
           style="fill:#953e00;stroke:none;fill-opacity:1">
          <path
             id="path10919"
             d="M 19580,7761 L 19675,6899 L 19973,6931 L 19878,7793 L 19580,7761 z "
             style="fill:#953e00;fill-opacity:1" />
        </g>
        <g
           id="g10921"
           style="fill:#953e00;fill-opacity:1" />
      </g>
    </g>
    <g
       style="visibility:visible;fill:#953e00;fill-opacity:1"
       id="g10923"
       transform="matrix(6.837551e-3,0,0,6.837551e-3,-101.9557,-32.2284)">
      <desc
         id="desc10925">Drawing</desc>
      <g
         id="g10927"
         style="fill:#953e00;fill-opacity:1">
        <g
           id="g10929"
           style="fill:#953e00;stroke:none;fill-opacity:1">
          <path
             id="path10931"
             d="M 19253,6915 L 20026,6723 L 19920,7396 L 19253,6915 z "
             style="fill:#953e00;fill-opacity:1" />
        </g>
        <g
           id="g10933"
           style="fill:#953e00;fill-opacity:1" />
      </g>
    </g>
  </g>
</svg>
