<?xml version="1.0" encoding="UTF-8" standalone="no"?>
<!-- Created with Inkscape (http://www.inkscape.org/) -->
<svg
   xmlns:dc="http://purl.org/dc/elements/1.1/"
   xmlns:cc="http://web.resource.org/cc/"
   xmlns:rdf="http://www.w3.org/1999/02/22-rdf-syntax-ns#"
   xmlns:svg="http://www.w3.org/2000/svg"
   xmlns="http://www.w3.org/2000/svg"
   xmlns:sodipodi="http://inkscape.sourceforge.net/DTD/sodipodi-0.dtd"
   xmlns:inkscape="http://www.inkscape.org/namespaces/inkscape"
   width="1cm"
   height="1cm"
   id="svg14878"
   sodipodi:version="0.32"
   inkscape:version="0.43"
   version="1.0"
   sodipodi:docbase="/world/proj/Kproj/symsolon/data"
   sodipodi:docname="sign-07-libra.svg">
  <defs
     id="defs3" />
  <sodipodi:namedview
     inkscape:document-units="mm"
     id="base"
     pagecolor="#000000"
     bordercolor="#666666"
     borderopacity="1.0"
     inkscape:pageopacity="1"
     inkscape:pageshadow="2"
     inkscape:zoom="6.3498476"
     inkscape:cx="7.7534335"
     inkscape:cy="18.903451"
     inkscape:current-layer="layer1"
     inkscape:window-width="966"
     inkscape:window-height="589"
     inkscape:window-x="0"
     inkscape:window-y="25" />
  <metadata
     id="metadata4">
    <rdf:RDF>
      <cc:Work
         rdf:about="">
        <dc:format>image/svg+xml</dc:format>
        <dc:type
           rdf:resource="http://purl.org/dc/dcmitype/StillImage" />
      </cc:Work>
    </rdf:RDF>
  </metadata>
  <g
     inkscape:label="Layer 1"
     inkscape:groupmode="layer"
     id="layer1">
    <g
       style="visibility:visible;fill:#2d2d2d;fill-opacity:1"
       id="g10683"
       transform="matrix(8.992685e-3,0,0,8.992685e-3,-92.13332,-48.73266)">
      <desc
         id="desc10685">Drawing</desc>
      <g
         id="g10687"
         style="fill:#2d2d2d;fill-opacity:1">
        <g
           id="g10689"
           style="fill:#2d2d2d;stroke:none;fill-opacity:1">
          <path
             id="path10691"
             d="M 10301,7869 L 14158,7869 L 14158,8169 L 10301,8169 L 10301,7869 z "
             style="fill:#2d2d2d;fill-opacity:1" />
        </g>
        <g
           id="g10693"
           style="fill:#2d2d2d;fill-opacity:1" />
      </g>
    </g>
    <g
       style="visibility:visible;fill:#2d2d2d;fill-opacity:1"
       id="g10695"
       transform="matrix(8.992685e-3,0,0,8.992685e-3,-92.13332,-48.73266)">
      <desc
         id="desc10697">Drawing</desc>
      <g
         id="g10699"
         style="fill:#2d2d2d;fill-opacity:1">
        <g
           id="g10701"
           style="fill:#2d2d2d;stroke:none;fill-opacity:1">
          <path
             id="path10703"
             d="M 10301,7247 L 11436,7245 L 11436,7395 L 11436,7545 L 10301,7547 L 10301,7397 L 10301,7247 z "
             style="fill:#2d2d2d;fill-opacity:1" />
          <path
             id="path10705"
             d="M 11436,7395 L 11586,7401 L 11583,7427 L 11575,7452 L 11563,7475 L 11547,7496 L 11528,7514 L 11506,7528 L 11481,7538 L 11456,7544 L 11436,7545 L 11436,7395 z "
             style="fill:#2d2d2d;fill-opacity:1" />
          <path
             id="path10707"
             d="M 11286,7389 L 11288,7332 L 11438,7338 L 11588,7344 L 11586,7401 L 11436,7395 L 11286,7389 z "
             style="fill:#2d2d2d;fill-opacity:1" />
          <path
             id="path10709"
             d="M 11438,7338 L 11288,7332 L 11289,7321 L 11438,7338 z "
             style="fill:#2d2d2d;fill-opacity:1" />
          <path
             id="path10711"
             d="M 11289,7321 L 11297,7260 L 11446,7277 L 11595,7295 L 11587,7356 L 11438,7338 L 11289,7321 z "
             style="fill:#2d2d2d;fill-opacity:1" />
          <path
             id="path10713"
             d="M 11446,7277 L 11297,7260 L 11298,7249 L 11446,7277 z "
             style="fill:#2d2d2d;fill-opacity:1" />
          <path
             id="path10715"
             d="M 11298,7249 L 11311,7185 L 11458,7213 L 11605,7242 L 11593,7306 L 11446,7277 L 11298,7249 z "
             style="fill:#2d2d2d;fill-opacity:1" />
          <path
             id="path10717"
             d="M 11458,7213 L 11311,7185 L 11313,7174 L 11458,7213 z "
             style="fill:#2d2d2d;fill-opacity:1" />
          <path
             id="path10719"
             d="M 11313,7174 L 11331,7107 L 11476,7147 L 11621,7186 L 11603,7252 L 11458,7213 L 11313,7174 z "
             style="fill:#2d2d2d;fill-opacity:1" />
          <path
             id="path10721"
             d="M 11476,7147 L 11331,7107 L 11335,7097 L 11476,7147 z "
             style="fill:#2d2d2d;fill-opacity:1" />
          <path
             id="path10723"
             d="M 11335,7097 L 11359,7029 L 11500,7080 L 11641,7130 L 11617,7197 L 11476,7147 L 11335,7097 z "
             style="fill:#2d2d2d;fill-opacity:1" />
          <path
             id="path10725"
             d="M 11500,7080 L 11359,7029 L 11363,7018 L 11500,7080 z "
             style="fill:#2d2d2d;fill-opacity:1" />
          <path
             id="path10727"
             d="M 11363,7018 L 11393,6951 L 11530,7012 L 11667,7074 L 11637,7141 L 11500,7080 L 11363,7018 z "
             style="fill:#2d2d2d;fill-opacity:1" />
          <path
             id="path10729"
             d="M 11530,7012 L 11393,6951 L 11399,6939 L 11530,7012 z "
             style="fill:#2d2d2d;fill-opacity:1" />
          <path
             id="path10731"
             d="M 11399,6939 L 11436,6873 L 11567,6946 L 11698,7019 L 11661,7085 L 11530,7012 L 11399,6939 z "
             style="fill:#2d2d2d;fill-opacity:1" />
          <path
             id="path10733"
             d="M 11567,6946 L 11436,6873 L 11443,6862 L 11567,6946 z "
             style="fill:#2d2d2d;fill-opacity:1" />
          <path
             id="path10735"
             d="M 11443,6862 L 11487,6798 L 11610,6883 L 11734,6967 L 11691,7031 L 11567,6946 L 11443,6862 z "
             style="fill:#2d2d2d;fill-opacity:1" />
          <path
             id="path10737"
             d="M 11610,6883 L 11487,6798 L 11496,6786 L 11610,6883 z "
             style="fill:#2d2d2d;fill-opacity:1" />
          <path
             id="path10739"
             d="M 11496,6786 L 11546,6726 L 11661,6822 L 11776,6919 L 11725,6979 L 11610,6883 L 11496,6786 z "
             style="fill:#2d2d2d;fill-opacity:1" />
          <path
             id="path10741"
             d="M 11661,6822 L 11546,6726 L 11557,6714 L 11661,6822 z "
             style="fill:#2d2d2d;fill-opacity:1" />
          <path
             id="path10743"
             d="M 11557,6714 L 11616,6658 L 11719,6766 L 11823,6875 L 11765,6931 L 11661,6822 L 11557,6714 z "
             style="fill:#2d2d2d;fill-opacity:1" />
          <path
             id="path10745"
             d="M 11719,6766 L 11616,6658 L 11629,6647 L 11719,6766 z "
             style="fill:#2d2d2d;fill-opacity:1" />
          <path
             id="path10747"
             d="M 11629,6647 L 11695,6597 L 11786,6716 L 11876,6836 L 11810,6886 L 11719,6766 L 11629,6647 z "
             style="fill:#2d2d2d;fill-opacity:1" />
          <path
             id="path10749"
             d="M 11786,6716 L 11695,6597 L 11710,6587 L 11786,6716 z "
             style="fill:#2d2d2d;fill-opacity:1" />
          <path
             id="path10751"
             d="M 11710,6587 L 11784,6543 L 11860,6673 L 11936,6802 L 11861,6846 L 11786,6716 L 11710,6587 z "
             style="fill:#2d2d2d;fill-opacity:1" />
          <path
             id="path10753"
             d="M 11860,6673 L 11784,6543 L 11800,6535 L 11860,6673 z "
             style="fill:#2d2d2d;fill-opacity:1" />
          <path
             id="path10755"
             d="M 11800,6535 L 11883,6499 L 11943,6637 L 12002,6775 L 11919,6810 L 11860,6673 L 11800,6535 z "
             style="fill:#2d2d2d;fill-opacity:1" />
          <path
             id="path10757"
             d="M 11943,6637 L 11883,6499 L 11901,6493 L 11943,6637 z "
             style="fill:#2d2d2d;fill-opacity:1" />
          <path
             id="path10759"
             d="M 11901,6493 L 11992,6466 L 12035,6610 L 12077,6754 L 11985,6781 L 11943,6637 L 11901,6493 z "
             style="fill:#2d2d2d;fill-opacity:1" />
          <path
             id="path10761"
             d="M 12035,6610 L 11992,6466 L 12010,6462 L 12035,6610 z "
             style="fill:#2d2d2d;fill-opacity:1" />
          <path
             id="path10763"
             d="M 12010,6462 L 12111,6445 L 12136,6593 L 12160,6741 L 12059,6758 L 12035,6610 L 12010,6462 z "
             style="fill:#2d2d2d;fill-opacity:1" />
          <path
             id="path10765"
             d="M 12136,6593 L 12111,6445 L 12128,6443 L 12136,6593 z "
             style="fill:#2d2d2d;fill-opacity:1" />
          <path
             id="path10767"
             d="M 12128,6443 L 12238,6437 L 12246,6587 L 12254,6737 L 12144,6743 L 12136,6593 L 12128,6443 z "
             style="fill:#2d2d2d;fill-opacity:1" />
          <path
             id="path10769"
             d="M 12246,6587 L 12238,6437 L 12254,6437 L 12246,6587 z "
             style="fill:#2d2d2d;fill-opacity:1" />
          <path
             id="path10771"
             d="M 12254,6437 L 12364,6443 L 12356,6593 L 12348,6743 L 12238,6737 L 12246,6587 L 12254,6437 z "
             style="fill:#2d2d2d;fill-opacity:1" />
          <path
             id="path10773"
             d="M 12356,6593 L 12364,6443 L 12381,6445 L 12356,6593 z "
             style="fill:#2d2d2d;fill-opacity:1" />
          <path
             id="path10775"
             d="M 12381,6445 L 12480,6462 L 12455,6610 L 12429,6758 L 12330,6741 L 12356,6593 L 12381,6445 z "
             style="fill:#2d2d2d;fill-opacity:1" />
          <path
             id="path10777"
             d="M 12455,6610 L 12480,6462 L 12498,6466 L 12455,6610 z "
             style="fill:#2d2d2d;fill-opacity:1" />
          <path
             id="path10779"
             d="M 12498,6466 L 12587,6493 L 12543,6637 L 12500,6780 L 12411,6753 L 12455,6610 L 12498,6466 z "
             style="fill:#2d2d2d;fill-opacity:1" />
          <path
             id="path10781"
             d="M 12543,6637 L 12587,6493 L 12605,6500 L 12543,6637 z "
             style="fill:#2d2d2d;fill-opacity:1" />
          <path
             id="path10783"
             d="M 12605,6500 L 12684,6536 L 12622,6673 L 12560,6809 L 12481,6773 L 12543,6637 L 12605,6500 z "
             style="fill:#2d2d2d;fill-opacity:1" />
          <path
             id="path10785"
             d="M 12622,6673 L 12684,6536 L 12702,6545 L 12622,6673 z "
             style="fill:#2d2d2d;fill-opacity:1" />
          <path
             id="path10787"
             d="M 12702,6545 L 12771,6589 L 12692,6716 L 12612,6843 L 12542,6800 L 12622,6673 L 12702,6545 z "
             style="fill:#2d2d2d;fill-opacity:1" />
          <path
             id="path10789"
             d="M 12692,6716 L 12771,6589 L 12787,6601 L 12692,6716 z "
             style="fill:#2d2d2d;fill-opacity:1" />
          <path
             id="path10791"
             d="M 12787,6601 L 12848,6651 L 12752,6766 L 12657,6882 L 12596,6832 L 12692,6716 L 12787,6601 z "
             style="fill:#2d2d2d;fill-opacity:1" />
          <path
             id="path10793"
             d="M 12752,6766 L 12848,6651 L 12862,6664 L 12752,6766 z "
             style="fill:#2d2d2d;fill-opacity:1" />
          <path
             id="path10795"
             d="M 12862,6664 L 12914,6719 L 12805,6822 L 12696,6925 L 12643,6869 L 12752,6766 L 12862,6664 z "
             style="fill:#2d2d2d;fill-opacity:1" />
          <path
             id="path10797"
             d="M 12805,6822 L 12914,6719 L 12925,6733 L 12805,6822 z "
             style="fill:#2d2d2d;fill-opacity:1" />
          <path
             id="path10799"
             d="M 12925,6733 L 12970,6793 L 12850,6883 L 12729,6972 L 12684,6912 L 12805,6822 L 12925,6733 z "
             style="fill:#2d2d2d;fill-opacity:1" />
          <path
             id="path10801"
             d="M 12850,6883 L 12970,6793 L 12979,6806 L 12850,6883 z "
             style="fill:#2d2d2d;fill-opacity:1" />
          <path
             id="path10803"
             d="M 12979,6806 L 13016,6870 L 12887,6946 L 12758,7022 L 12720,6959 L 12850,6883 L 12979,6806 z "
             style="fill:#2d2d2d;fill-opacity:1" />
          <path
             id="path10805"
             d="M 12887,6946 L 13016,6870 L 13023,6883 L 12887,6946 z "
             style="fill:#2d2d2d;fill-opacity:1" />
          <path
             id="path10807"
             d="M 13023,6883 L 13054,6948 L 12918,7012 L 12782,7076 L 12751,7010 L 12887,6946 L 13023,6883 z "
             style="fill:#2d2d2d;fill-opacity:1" />
          <path
             id="path10809"
             d="M 12918,7012 L 13054,6948 L 13059,6960 L 12918,7012 z "
             style="fill:#2d2d2d;fill-opacity:1" />
          <path
             id="path10811"
             d="M 13059,6960 L 13084,7027 L 12943,7079 L 12802,7131 L 12777,7064 L 12918,7012 L 13059,6960 z "
             style="fill:#2d2d2d;fill-opacity:1" />
          <path
             id="path10813"
             d="M 12943,7079 L 13084,7027 L 13087,7038 L 12943,7079 z "
             style="fill:#2d2d2d;fill-opacity:1" />
          <path
             id="path10815"
             d="M 13087,7038 L 13106,7105 L 12962,7146 L 12818,7187 L 12799,7120 L 12943,7079 L 13087,7038 z "
             style="fill:#2d2d2d;fill-opacity:1" />
          <path
             id="path10817"
             d="M 12962,7146 L 13106,7105 L 13109,7115 L 12962,7146 z "
             style="fill:#2d2d2d;fill-opacity:1" />
          <path
             id="path10819"
             d="M 13109,7115 L 13123,7182 L 12976,7213 L 12829,7243 L 12815,7177 L 12962,7146 L 13109,7115 z "
             style="fill:#2d2d2d;fill-opacity:1" />
          <path
             id="path10821"
             d="M 12976,7213 L 13123,7182 L 13124,7191 L 12976,7213 z "
             style="fill:#2d2d2d;fill-opacity:1" />
          <path
             id="path10823"
             d="M 13124,7191 L 13134,7255 L 12985,7277 L 12837,7298 L 12827,7234 L 12976,7213 L 13124,7191 z "
             style="fill:#2d2d2d;fill-opacity:1" />
          <path
             id="path10825"
             d="M 12985,7277 L 13134,7255 L 13135,7264 L 12985,7277 z "
             style="fill:#2d2d2d;fill-opacity:1" />
          <path
             id="path10827"
             d="M 13135,7264 L 13140,7325 L 12990,7337 L 12841,7350 L 12836,7289 L 12985,7277 L 13135,7264 z "
             style="fill:#2d2d2d;fill-opacity:1" />
          <path
             id="path10829"
             d="M 12990,7337 L 13140,7325 L 13140,7333 L 12990,7337 z "
             style="fill:#2d2d2d;fill-opacity:1" />
          <path
             id="path10831"
             d="M 13140,7333 L 13142,7390 L 12992,7394 L 12842,7398 L 12840,7342 L 12990,7337 L 13140,7333 z "
             style="fill:#2d2d2d;fill-opacity:1" />
          <path
             id="path10833"
             d="M 12992,7394 L 12991,7544 L 12965,7542 L 12940,7535 L 12916,7523 L 12895,7508 L 12876,7490 L 12862,7468 L 12851,7444 L 12844,7419 L 12842,7398 L 12992,7394 z "
             style="fill:#2d2d2d;fill-opacity:1" />
          <path
             id="path10835"
             d="M 12993,7244 L 14159,7252 L 14158,7402 L 14157,7552 L 12991,7544 L 12992,7394 L 12993,7244 z "
             style="fill:#2d2d2d;fill-opacity:1" />
        </g>
        <g
           id="g10837"
           style="fill:#2d2d2d;fill-opacity:1" />
      </g>
    </g>
  </g>
</svg>
