<?xml version="1.0" encoding="UTF-8" standalone="no"?>
<!-- Created with Inkscape (http://www.inkscape.org/) -->
<svg
   xmlns:dc="http://purl.org/dc/elements/1.1/"
   xmlns:cc="http://web.resource.org/cc/"
   xmlns:rdf="http://www.w3.org/1999/02/22-rdf-syntax-ns#"
   xmlns:svg="http://www.w3.org/2000/svg"
   xmlns="http://www.w3.org/2000/svg"
   xmlns:sodipodi="http://inkscape.sourceforge.net/DTD/sodipodi-0.dtd"
   xmlns:inkscape="http://www.inkscape.org/namespaces/inkscape"
   width="1cm"
   height="1cm"
   id="svg14878"
   sodipodi:version="0.32"
   inkscape:version="0.43"
   version="1.0"
   sodipodi:docbase="/world/proj/Kproj/symsolon/data"
   sodipodi:docname="sign-05-leo.svg">
  <defs
     id="defs3" />
  <sodipodi:namedview
     inkscape:document-units="mm"
     id="base"
     pagecolor="#000000"
     bordercolor="#666666"
     borderopacity="1.0"
     inkscape:pageopacity="1"
     inkscape:pageshadow="2"
     inkscape:zoom="11.373555"
     inkscape:cx="17.716535"
     inkscape:cy="17.716535"
     inkscape:current-layer="layer1"
     inkscape:window-width="966"
     inkscape:window-height="589"
     inkscape:window-x="0"
     inkscape:window-y="25" />
  <metadata
     id="metadata4">
    <rdf:RDF>
      <cc:Work
         rdf:about="">
        <dc:format>image/svg+xml</dc:format>
        <dc:type
           rdf:resource="http://purl.org/dc/dcmitype/StillImage" />
      </cc:Work>
    </rdf:RDF>
  </metadata>
  <g
     inkscape:label="Layer 1"
     inkscape:groupmode="layer"
     id="layer1">
    <g
       style="visibility:visible;fill:#fffd9a;fill-opacity:1"
       id="g9761"
       transform="matrix(9.716948e-3,0,0,9.716948e-3,-13.41712,-56.10358)">
      <desc
         id="desc9763">Drawing</desc>
      <g
         id="g9765"
         style="fill:#fffd9a;fill-opacity:1">
        <g
           id="g9767"
           style="fill:#fffd9a;stroke:none;fill-opacity:1">
          <path
             id="path9769"
             d="M 2317,7967 L 2272,7964 L 2279,7815 L 2287,7665 L 2333,7667 L 2325,7817 L 2317,7967 z "
             style="fill:#fffd9a;fill-opacity:1" />
          <path
             id="path9771"
             d="M 2279,7815 L 2272,7964 L 2257,7963 L 2279,7815 z "
             style="fill:#fffd9a;fill-opacity:1" />
          <path
             id="path9773"
             d="M 2257,7963 L 2212,7956 L 2235,7808 L 2258,7660 L 2302,7666 L 2279,7815 L 2257,7963 z "
             style="fill:#fffd9a;fill-opacity:1" />
          <path
             id="path9775"
             d="M 2235,7808 L 2212,7956 L 2198,7953 L 2235,7808 z "
             style="fill:#fffd9a;fill-opacity:1" />
          <path
             id="path9777"
             d="M 2198,7953 L 2155,7942 L 2192,7797 L 2230,7652 L 2273,7663 L 2235,7808 L 2198,7953 z "
             style="fill:#fffd9a;fill-opacity:1" />
          <path
             id="path9779"
             d="M 2192,7797 L 2155,7942 L 2141,7938 L 2192,7797 z "
             style="fill:#fffd9a;fill-opacity:1" />
          <path
             id="path9781"
             d="M 2141,7938 L 2100,7923 L 2151,7782 L 2203,7641 L 2244,7656 L 2192,7797 L 2141,7938 z "
             style="fill:#fffd9a;fill-opacity:1" />
          <path
             id="path9783"
             d="M 2151,7782 L 2100,7923 L 2086,7917 L 2151,7782 z "
             style="fill:#fffd9a;fill-opacity:1" />
          <path
             id="path9785"
             d="M 2086,7917 L 2047,7898 L 2112,7763 L 2178,7628 L 2217,7647 L 2151,7782 L 2086,7917 z "
             style="fill:#fffd9a;fill-opacity:1" />
          <path
             id="path9787"
             d="M 2112,7763 L 2047,7898 L 2034,7891 L 2112,7763 z "
             style="fill:#fffd9a;fill-opacity:1" />
          <path
             id="path9789"
             d="M 2034,7891 L 1997,7869 L 2075,7740 L 2153,7612 L 2190,7635 L 2112,7763 L 2034,7891 z "
             style="fill:#fffd9a;fill-opacity:1" />
          <path
             id="path9791"
             d="M 2075,7740 L 1997,7869 L 1986,7860 L 2075,7740 z "
             style="fill:#fffd9a;fill-opacity:1" />
          <path
             id="path9793"
             d="M 1986,7860 L 1951,7835 L 2041,7715 L 2131,7595 L 2165,7620 L 2075,7740 L 1986,7860 z "
             style="fill:#fffd9a;fill-opacity:1" />
          <path
             id="path9795"
             d="M 2041,7715 L 1951,7835 L 1940,7826 L 2041,7715 z "
             style="fill:#fffd9a;fill-opacity:1" />
          <path
             id="path9797"
             d="M 1940,7826 L 1908,7797 L 2009,7686 L 2110,7575 L 2142,7604 L 2041,7715 L 1940,7826 z "
             style="fill:#fffd9a;fill-opacity:1" />
          <path
             id="path9799"
             d="M 2009,7686 L 1908,7797 L 1898,7787 L 2009,7686 z "
             style="fill:#fffd9a;fill-opacity:1" />
          <path
             id="path9801"
             d="M 1898,7787 L 1869,7755 L 1980,7654 L 2091,7553 L 2120,7585 L 2009,7686 L 1898,7787 z "
             style="fill:#fffd9a;fill-opacity:1" />
          <path
             id="path9803"
             d="M 1980,7654 L 1869,7755 L 1860,7744 L 1980,7654 z "
             style="fill:#fffd9a;fill-opacity:1" />
          <path
             id="path9805"
             d="M 1860,7744 L 1835,7709 L 1955,7620 L 2075,7530 L 2100,7564 L 1980,7654 L 1860,7744 z "
             style="fill:#fffd9a;fill-opacity:1" />
          <path
             id="path9807"
             d="M 1955,7620 L 1835,7709 L 1826,7698 L 1955,7620 z "
             style="fill:#fffd9a;fill-opacity:1" />
          <path
             id="path9809"
             d="M 1826,7698 L 1804,7661 L 1932,7583 L 2060,7505 L 2083,7542 L 1955,7620 L 1826,7698 z "
             style="fill:#fffd9a;fill-opacity:1" />
          <path
             id="path9811"
             d="M 1932,7583 L 1804,7661 L 1797,7648 L 1932,7583 z "
             style="fill:#fffd9a;fill-opacity:1" />
          <path
             id="path9813"
             d="M 1797,7648 L 1778,7609 L 1913,7544 L 2048,7478 L 2067,7517 L 1932,7583 L 1797,7648 z "
             style="fill:#fffd9a;fill-opacity:1" />
          <path
             id="path9815"
             d="M 1913,7544 L 1778,7609 L 1772,7595 L 1913,7544 z "
             style="fill:#fffd9a;fill-opacity:1" />
          <path
             id="path9817"
             d="M 1772,7595 L 1757,7554 L 1898,7503 L 2039,7451 L 2054,7492 L 1913,7544 L 1772,7595 z "
             style="fill:#fffd9a;fill-opacity:1" />
          <path
             id="path9819"
             d="M 1898,7503 L 1757,7554 L 1753,7540 L 1898,7503 z "
             style="fill:#fffd9a;fill-opacity:1" />
          <path
             id="path9821"
             d="M 1753,7540 L 1742,7497 L 1887,7460 L 2032,7422 L 2043,7465 L 1898,7503 L 1753,7540 z "
             style="fill:#fffd9a;fill-opacity:1" />
          <path
             id="path9823"
             d="M 1887,7460 L 1742,7497 L 1739,7483 L 1887,7460 z "
             style="fill:#fffd9a;fill-opacity:1" />
          <path
             id="path9825"
             d="M 1739,7483 L 1732,7438 L 1880,7416 L 2029,7393 L 2035,7437 L 1887,7460 L 1739,7483 z "
             style="fill:#fffd9a;fill-opacity:1" />
          <path
             id="path9827"
             d="M 1880,7416 L 1732,7438 L 1731,7423 L 1880,7416 z "
             style="fill:#fffd9a;fill-opacity:1" />
          <path
             id="path9829"
             d="M 1731,7423 L 1728,7378 L 1878,7370 L 2028,7362 L 2030,7408 L 1880,7416 L 1731,7423 z "
             style="fill:#fffd9a;fill-opacity:1" />
          <path
             id="path9831"
             d="M 1878,7370 L 1728,7378 L 1728,7362 L 1878,7370 z "
             style="fill:#fffd9a;fill-opacity:1" />
          <path
             id="path9833"
             d="M 1728,7362 L 1731,7317 L 1880,7324 L 2030,7332 L 2028,7378 L 1878,7370 L 1728,7362 z "
             style="fill:#fffd9a;fill-opacity:1" />
          <path
             id="path9835"
             d="M 1880,7324 L 1731,7317 L 1732,7302 L 1880,7324 z "
             style="fill:#fffd9a;fill-opacity:1" />
          <path
             id="path9837"
             d="M 1732,7302 L 1739,7257 L 1887,7280 L 2035,7303 L 2029,7347 L 1880,7324 L 1732,7302 z "
             style="fill:#fffd9a;fill-opacity:1" />
          <path
             id="path9839"
             d="M 1887,7280 L 1739,7257 L 1742,7243 L 1887,7280 z "
             style="fill:#fffd9a;fill-opacity:1" />
          <path
             id="path9841"
             d="M 1742,7243 L 1753,7200 L 1898,7237 L 2043,7275 L 2032,7318 L 1887,7280 L 1742,7243 z "
             style="fill:#fffd9a;fill-opacity:1" />
          <path
             id="path9843"
             d="M 1898,7237 L 1753,7200 L 1757,7186 L 1898,7237 z "
             style="fill:#fffd9a;fill-opacity:1" />
          <path
             id="path9845"
             d="M 1757,7186 L 1772,7145 L 1913,7196 L 2054,7248 L 2039,7289 L 1898,7237 L 1757,7186 z "
             style="fill:#fffd9a;fill-opacity:1" />
          <path
             id="path9847"
             d="M 1913,7196 L 1772,7145 L 1778,7131 L 1913,7196 z "
             style="fill:#fffd9a;fill-opacity:1" />
          <path
             id="path9849"
             d="M 1778,7131 L 1797,7092 L 1932,7157 L 2067,7223 L 2048,7262 L 1913,7196 L 1778,7131 z "
             style="fill:#fffd9a;fill-opacity:1" />
          <path
             id="path9851"
             d="M 1932,7157 L 1797,7092 L 1804,7079 L 1932,7157 z "
             style="fill:#fffd9a;fill-opacity:1" />
          <path
             id="path9853"
             d="M 1804,7079 L 1826,7042 L 1955,7120 L 2083,7198 L 2060,7235 L 1932,7157 L 1804,7079 z "
             style="fill:#fffd9a;fill-opacity:1" />
          <path
             id="path9855"
             d="M 1955,7120 L 1826,7042 L 1835,7031 L 1955,7120 z "
             style="fill:#fffd9a;fill-opacity:1" />
          <path
             id="path9857"
             d="M 1835,7031 L 1860,6996 L 1980,7086 L 2100,7176 L 2075,7210 L 1955,7120 L 1835,7031 z "
             style="fill:#fffd9a;fill-opacity:1" />
          <path
             id="path9859"
             d="M 1980,7086 L 1860,6996 L 1869,6985 L 1980,7086 z "
             style="fill:#fffd9a;fill-opacity:1" />
          <path
             id="path9861"
             d="M 1869,6985 L 1898,6953 L 2009,7054 L 2120,7155 L 2091,7187 L 1980,7086 L 1869,6985 z "
             style="fill:#fffd9a;fill-opacity:1" />
          <path
             id="path9863"
             d="M 2009,7054 L 1898,6953 L 1908,6943 L 2009,7054 z "
             style="fill:#fffd9a;fill-opacity:1" />
          <path
             id="path9865"
             d="M 1908,6943 L 1940,6914 L 2041,7025 L 2142,7136 L 2110,7165 L 2009,7054 L 1908,6943 z "
             style="fill:#fffd9a;fill-opacity:1" />
          <path
             id="path9867"
             d="M 2041,7025 L 1940,6914 L 1951,6905 L 2041,7025 z "
             style="fill:#fffd9a;fill-opacity:1" />
          <path
             id="path9869"
             d="M 1951,6905 L 1986,6880 L 2075,7000 L 2165,7120 L 2131,7145 L 2041,7025 L 1951,6905 z "
             style="fill:#fffd9a;fill-opacity:1" />
          <path
             id="path9871"
             d="M 2075,7000 L 1986,6880 L 1997,6871 L 2075,7000 z "
             style="fill:#fffd9a;fill-opacity:1" />
          <path
             id="path9873"
             d="M 1997,6871 L 2034,6849 L 2112,6977 L 2190,7105 L 2153,7128 L 2075,7000 L 1997,6871 z "
             style="fill:#fffd9a;fill-opacity:1" />
          <path
             id="path9875"
             d="M 2112,6977 L 2034,6849 L 2047,6842 L 2112,6977 z "
             style="fill:#fffd9a;fill-opacity:1" />
          <path
             id="path9877"
             d="M 2047,6842 L 2086,6823 L 2151,6958 L 2217,7093 L 2178,7112 L 2112,6977 L 2047,6842 z "
             style="fill:#fffd9a;fill-opacity:1" />
          <path
             id="path9879"
             d="M 2151,6958 L 2086,6823 L 2100,6817 L 2151,6958 z "
             style="fill:#fffd9a;fill-opacity:1" />
          <path
             id="path9881"
             d="M 2100,6817 L 2141,6802 L 2192,6943 L 2244,7084 L 2203,7099 L 2151,6958 L 2100,6817 z "
             style="fill:#fffd9a;fill-opacity:1" />
          <path
             id="path9883"
             d="M 2192,6943 L 2141,6802 L 2155,6798 L 2192,6943 z "
             style="fill:#fffd9a;fill-opacity:1" />
          <path
             id="path9885"
             d="M 2155,6798 L 2198,6787 L 2235,6932 L 2273,7077 L 2230,7088 L 2192,6943 L 2155,6798 z "
             style="fill:#fffd9a;fill-opacity:1" />
          <path
             id="path9887"
             d="M 2235,6932 L 2198,6787 L 2212,6784 L 2235,6932 z "
             style="fill:#fffd9a;fill-opacity:1" />
          <path
             id="path9889"
             d="M 2212,6784 L 2257,6777 L 2279,6925 L 2302,7074 L 2258,7080 L 2235,6932 L 2212,6784 z "
             style="fill:#fffd9a;fill-opacity:1" />
          <path
             id="path9891"
             d="M 2279,6925 L 2257,6777 L 2272,6776 L 2279,6925 z "
             style="fill:#fffd9a;fill-opacity:1" />
          <path
             id="path9893"
             d="M 2272,6776 L 2317,6773 L 2325,6923 L 2333,7073 L 2287,7075 L 2279,6925 L 2272,6776 z "
             style="fill:#fffd9a;fill-opacity:1" />
          <path
             id="path9895"
             d="M 2325,6923 L 2317,6773 L 2333,6773 L 2325,6923 z "
             style="fill:#fffd9a;fill-opacity:1" />
          <path
             id="path9897"
             d="M 2333,6773 L 2378,6776 L 2371,6925 L 2363,7075 L 2317,7073 L 2325,6923 L 2333,6773 z "
             style="fill:#fffd9a;fill-opacity:1" />
          <path
             id="path9899"
             d="M 2371,6925 L 2378,6776 L 2393,6777 L 2371,6925 z "
             style="fill:#fffd9a;fill-opacity:1" />
          <path
             id="path9901"
             d="M 2393,6777 L 2438,6784 L 2415,6932 L 2392,7080 L 2348,7074 L 2371,6925 L 2393,6777 z "
             style="fill:#fffd9a;fill-opacity:1" />
          <path
             id="path9903"
             d="M 2415,6932 L 2438,6784 L 2452,6787 L 2415,6932 z "
             style="fill:#fffd9a;fill-opacity:1" />
          <path
             id="path9905"
             d="M 2452,6787 L 2495,6798 L 2458,6943 L 2420,7088 L 2377,7077 L 2415,6932 L 2452,6787 z "
             style="fill:#fffd9a;fill-opacity:1" />
          <path
             id="path9907"
             d="M 2458,6943 L 2495,6798 L 2509,6802 L 2458,6943 z "
             style="fill:#fffd9a;fill-opacity:1" />
          <path
             id="path9909"
             d="M 2509,6802 L 2550,6817 L 2499,6958 L 2447,7099 L 2406,7084 L 2458,6943 L 2509,6802 z "
             style="fill:#fffd9a;fill-opacity:1" />
          <path
             id="path9911"
             d="M 2499,6958 L 2550,6817 L 2564,6823 L 2499,6958 z "
             style="fill:#fffd9a;fill-opacity:1" />
          <path
             id="path9913"
             d="M 2564,6823 L 2603,6842 L 2538,6977 L 2472,7112 L 2433,7093 L 2499,6958 L 2564,6823 z "
             style="fill:#fffd9a;fill-opacity:1" />
          <path
             id="path9915"
             d="M 2538,6977 L 2603,6842 L 2616,6849 L 2538,6977 z "
             style="fill:#fffd9a;fill-opacity:1" />
          <path
             id="path9917"
             d="M 2616,6849 L 2653,6871 L 2575,7000 L 2497,7128 L 2460,7105 L 2538,6977 L 2616,6849 z "
             style="fill:#fffd9a;fill-opacity:1" />
          <path
             id="path9919"
             d="M 2575,7000 L 2653,6871 L 2664,6880 L 2575,7000 z "
             style="fill:#fffd9a;fill-opacity:1" />
          <path
             id="path9921"
             d="M 2664,6880 L 2699,6905 L 2609,7025 L 2519,7145 L 2485,7120 L 2575,7000 L 2664,6880 z "
             style="fill:#fffd9a;fill-opacity:1" />
          <path
             id="path9923"
             d="M 2609,7025 L 2699,6905 L 2710,6914 L 2609,7025 z "
             style="fill:#fffd9a;fill-opacity:1" />
          <path
             id="path9925"
             d="M 2710,6914 L 2742,6943 L 2641,7054 L 2540,7165 L 2508,7136 L 2609,7025 L 2710,6914 z "
             style="fill:#fffd9a;fill-opacity:1" />
          <path
             id="path9927"
             d="M 2641,7054 L 2742,6943 L 2752,6953 L 2641,7054 z "
             style="fill:#fffd9a;fill-opacity:1" />
          <path
             id="path9929"
             d="M 2752,6953 L 2781,6985 L 2670,7086 L 2559,7187 L 2530,7155 L 2641,7054 L 2752,6953 z "
             style="fill:#fffd9a;fill-opacity:1" />
          <path
             id="path9931"
             d="M 2670,7086 L 2781,6985 L 2790,6996 L 2670,7086 z "
             style="fill:#fffd9a;fill-opacity:1" />
          <path
             id="path9933"
             d="M 2790,6996 L 2815,7031 L 2695,7120 L 2575,7210 L 2550,7176 L 2670,7086 L 2790,6996 z "
             style="fill:#fffd9a;fill-opacity:1" />
          <path
             id="path9935"
             d="M 2695,7120 L 2815,7031 L 2824,7042 L 2695,7120 z "
             style="fill:#fffd9a;fill-opacity:1" />
          <path
             id="path9937"
             d="M 2824,7042 L 2846,7079 L 2718,7157 L 2590,7235 L 2567,7198 L 2695,7120 L 2824,7042 z "
             style="fill:#fffd9a;fill-opacity:1" />
          <path
             id="path9939"
             d="M 2718,7157 L 2846,7079 L 2853,7092 L 2718,7157 z "
             style="fill:#fffd9a;fill-opacity:1" />
          <path
             id="path9941"
             d="M 2853,7092 L 2872,7131 L 2737,7196 L 2602,7262 L 2583,7223 L 2718,7157 L 2853,7092 z "
             style="fill:#fffd9a;fill-opacity:1" />
          <path
             id="path9943"
             d="M 2737,7196 L 2872,7131 L 2878,7145 L 2737,7196 z "
             style="fill:#fffd9a;fill-opacity:1" />
          <path
             id="path9945"
             d="M 2878,7145 L 2893,7186 L 2752,7237 L 2611,7289 L 2596,7248 L 2737,7196 L 2878,7145 z "
             style="fill:#fffd9a;fill-opacity:1" />
          <path
             id="path9947"
             d="M 2752,7237 L 2893,7186 L 2897,7200 L 2752,7237 z "
             style="fill:#fffd9a;fill-opacity:1" />
          <path
             id="path9949"
             d="M 2897,7200 L 2908,7243 L 2763,7280 L 2618,7318 L 2607,7275 L 2752,7237 L 2897,7200 z "
             style="fill:#fffd9a;fill-opacity:1" />
          <path
             id="path9951"
             d="M 2763,7280 L 2908,7243 L 2911,7257 L 2763,7280 z "
             style="fill:#fffd9a;fill-opacity:1" />
          <path
             id="path9953"
             d="M 2911,7257 L 2918,7302 L 2770,7324 L 2621,7347 L 2615,7303 L 2763,7280 L 2911,7257 z "
             style="fill:#fffd9a;fill-opacity:1" />
          <path
             id="path9955"
             d="M 2770,7324 L 2918,7302 L 2919,7317 L 2770,7324 z "
             style="fill:#fffd9a;fill-opacity:1" />
          <path
             id="path9957"
             d="M 2919,7317 L 2922,7362 L 2772,7370 L 2622,7378 L 2620,7332 L 2770,7324 L 2919,7317 z "
             style="fill:#fffd9a;fill-opacity:1" />
          <path
             id="path9959"
             d="M 2772,7370 L 2922,7362 L 2922,7378 L 2772,7370 z "
             style="fill:#fffd9a;fill-opacity:1" />
          <path
             id="path9961"
             d="M 2922,7378 L 2919,7423 L 2770,7416 L 2620,7408 L 2622,7362 L 2772,7370 L 2922,7378 z "
             style="fill:#fffd9a;fill-opacity:1" />
          <path
             id="path9963"
             d="M 2770,7416 L 2919,7423 L 2918,7438 L 2770,7416 z "
             style="fill:#fffd9a;fill-opacity:1" />
          <path
             id="path9965"
             d="M 2918,7438 L 2911,7483 L 2763,7460 L 2615,7437 L 2621,7393 L 2770,7416 L 2918,7438 z "
             style="fill:#fffd9a;fill-opacity:1" />
          <path
             id="path9967"
             d="M 2763,7460 L 2911,7483 L 2908,7497 L 2763,7460 z "
             style="fill:#fffd9a;fill-opacity:1" />
          <path
             id="path9969"
             d="M 2908,7497 L 2897,7540 L 2752,7503 L 2607,7465 L 2618,7422 L 2763,7460 L 2908,7497 z "
             style="fill:#fffd9a;fill-opacity:1" />
          <path
             id="path9971"
             d="M 2752,7503 L 2897,7540 L 2893,7554 L 2752,7503 z "
             style="fill:#fffd9a;fill-opacity:1" />
          <path
             id="path9973"
             d="M 2893,7554 L 2878,7595 L 2737,7544 L 2596,7492 L 2611,7451 L 2752,7503 L 2893,7554 z "
             style="fill:#fffd9a;fill-opacity:1" />
          <path
             id="path9975"
             d="M 2737,7544 L 2878,7595 L 2872,7609 L 2737,7544 z "
             style="fill:#fffd9a;fill-opacity:1" />
          <path
             id="path9977"
             d="M 2872,7609 L 2853,7648 L 2718,7583 L 2583,7517 L 2602,7478 L 2737,7544 L 2872,7609 z "
             style="fill:#fffd9a;fill-opacity:1" />
          <path
             id="path9979"
             d="M 2718,7583 L 2853,7648 L 2846,7661 L 2718,7583 z "
             style="fill:#fffd9a;fill-opacity:1" />
          <path
             id="path9981"
             d="M 2846,7661 L 2824,7698 L 2695,7620 L 2567,7542 L 2590,7505 L 2718,7583 L 2846,7661 z "
             style="fill:#fffd9a;fill-opacity:1" />
          <path
             id="path9983"
             d="M 2695,7620 L 2824,7698 L 2815,7709 L 2695,7620 z "
             style="fill:#fffd9a;fill-opacity:1" />
          <path
             id="path9985"
             d="M 2815,7709 L 2790,7744 L 2670,7654 L 2550,7564 L 2575,7530 L 2695,7620 L 2815,7709 z "
             style="fill:#fffd9a;fill-opacity:1" />
          <path
             id="path9987"
             d="M 2670,7654 L 2790,7744 L 2781,7755 L 2670,7654 z "
             style="fill:#fffd9a;fill-opacity:1" />
          <path
             id="path9989"
             d="M 2781,7755 L 2752,7787 L 2641,7686 L 2530,7585 L 2559,7553 L 2670,7654 L 2781,7755 z "
             style="fill:#fffd9a;fill-opacity:1" />
          <path
             id="path9991"
             d="M 2641,7686 L 2752,7787 L 2742,7797 L 2641,7686 z "
             style="fill:#fffd9a;fill-opacity:1" />
          <path
             id="path9993"
             d="M 2742,7797 L 2710,7826 L 2609,7715 L 2508,7604 L 2540,7575 L 2641,7686 L 2742,7797 z "
             style="fill:#fffd9a;fill-opacity:1" />
          <path
             id="path9995"
             d="M 2609,7715 L 2710,7826 L 2699,7835 L 2609,7715 z "
             style="fill:#fffd9a;fill-opacity:1" />
          <path
             id="path9997"
             d="M 2699,7835 L 2664,7860 L 2575,7740 L 2485,7620 L 2519,7595 L 2609,7715 L 2699,7835 z "
             style="fill:#fffd9a;fill-opacity:1" />
          <path
             id="path9999"
             d="M 2575,7740 L 2664,7860 L 2653,7869 L 2575,7740 z "
             style="fill:#fffd9a;fill-opacity:1" />
          <path
             id="path10001"
             d="M 2653,7869 L 2616,7891 L 2538,7763 L 2460,7635 L 2497,7612 L 2575,7740 L 2653,7869 z "
             style="fill:#fffd9a;fill-opacity:1" />
          <path
             id="path10003"
             d="M 2538,7763 L 2616,7891 L 2603,7898 L 2538,7763 z "
             style="fill:#fffd9a;fill-opacity:1" />
          <path
             id="path10005"
             d="M 2603,7898 L 2564,7917 L 2499,7782 L 2433,7647 L 2472,7628 L 2538,7763 L 2603,7898 z "
             style="fill:#fffd9a;fill-opacity:1" />
          <path
             id="path10007"
             d="M 2499,7782 L 2564,7917 L 2550,7923 L 2499,7782 z "
             style="fill:#fffd9a;fill-opacity:1" />
          <path
             id="path10009"
             d="M 2550,7923 L 2509,7938 L 2458,7797 L 2406,7656 L 2447,7641 L 2499,7782 L 2550,7923 z "
             style="fill:#fffd9a;fill-opacity:1" />
          <path
             id="path10011"
             d="M 2458,7797 L 2509,7938 L 2495,7942 L 2458,7797 z "
             style="fill:#fffd9a;fill-opacity:1" />
          <path
             id="path10013"
             d="M 2495,7942 L 2452,7953 L 2415,7808 L 2377,7663 L 2420,7652 L 2458,7797 L 2495,7942 z "
             style="fill:#fffd9a;fill-opacity:1" />
          <path
             id="path10015"
             d="M 2415,7808 L 2452,7953 L 2438,7956 L 2415,7808 z "
             style="fill:#fffd9a;fill-opacity:1" />
          <path
             id="path10017"
             d="M 2438,7956 L 2393,7963 L 2371,7815 L 2348,7666 L 2392,7660 L 2415,7808 L 2438,7956 z "
             style="fill:#fffd9a;fill-opacity:1" />
          <path
             id="path10019"
             d="M 2371,7815 L 2393,7963 L 2378,7964 L 2371,7815 z "
             style="fill:#fffd9a;fill-opacity:1" />
          <path
             id="path10021"
             d="M 2378,7964 L 2333,7967 L 2325,7817 L 2317,7667 L 2363,7665 L 2371,7815 L 2378,7964 z "
             style="fill:#fffd9a;fill-opacity:1" />
          <path
             id="path10023"
             d="M 2325,7817 L 2333,7967 L 2317,7967 L 2325,7817 z "
             style="fill:#fffd9a;fill-opacity:1" />
        </g>
        <g
           id="g10025"
           style="fill:#fffd9a;fill-opacity:1" />
      </g>
    </g>
    <g
       style="visibility:visible;fill:#fffd9a;fill-opacity:1"
       id="g10027"
       transform="matrix(9.716948e-3,0,0,9.716948e-3,-13.41712,-56.10358)">
      <desc
         id="desc10029">Drawing</desc>
      <g
         id="g10031"
         style="fill:#fffd9a;fill-opacity:1">
        <g
           id="g10033"
           style="fill:#fffd9a;stroke:none;fill-opacity:1">
          <path
             id="path10035"
             d="M 2636,7360 L 2577,7232 L 2713,7169 L 2849,7106 L 2908,7234 L 2772,7297 L 2636,7360 z "
             style="fill:#fffd9a;fill-opacity:1" />
          <path
             id="path10037"
             d="M 2713,7169 L 2577,7232 L 2569,7211 L 2713,7169 z "
             style="fill:#fffd9a;fill-opacity:1" />
          <path
             id="path10039"
             d="M 2569,7211 L 2532,7083 L 2676,7042 L 2820,7000 L 2857,7127 L 2713,7169 L 2569,7211 z "
             style="fill:#fffd9a;fill-opacity:1" />
          <path
             id="path10041"
             d="M 2676,7042 L 2532,7083 L 2527,7062 L 2676,7042 z "
             style="fill:#fffd9a;fill-opacity:1" />
          <path
             id="path10043"
             d="M 2527,7062 L 2510,6936 L 2659,6916 L 2808,6896 L 2825,7022 L 2676,7042 L 2527,7062 z "
             style="fill:#fffd9a;fill-opacity:1" />
          <path
             id="path10045"
             d="M 2659,6916 L 2510,6936 L 2509,6914 L 2659,6916 z "
             style="fill:#fffd9a;fill-opacity:1" />
          <path
             id="path10047"
             d="M 2509,6914 L 2510,6791 L 2660,6793 L 2810,6794 L 2809,6917 L 2659,6916 L 2509,6914 z "
             style="fill:#fffd9a;fill-opacity:1" />
          <path
             id="path10049"
             d="M 2660,6793 L 2510,6791 L 2512,6771 L 2660,6793 z "
             style="fill:#fffd9a;fill-opacity:1" />
          <path
             id="path10051"
             d="M 2512,6771 L 2529,6653 L 2677,6674 L 2825,6695 L 2809,6814 L 2660,6793 L 2512,6771 z "
             style="fill:#fffd9a;fill-opacity:1" />
          <path
             id="path10053"
             d="M 2677,6674 L 2529,6653 L 2532,6635 L 2677,6674 z "
             style="fill:#fffd9a;fill-opacity:1" />
          <path
             id="path10055"
             d="M 2532,6635 L 2563,6522 L 2708,6561 L 2852,6601 L 2822,6713 L 2677,6674 L 2532,6635 z "
             style="fill:#fffd9a;fill-opacity:1" />
          <path
             id="path10057"
             d="M 2708,6561 L 2563,6522 L 2569,6505 L 2708,6561 z "
             style="fill:#fffd9a;fill-opacity:1" />
          <path
             id="path10059"
             d="M 2569,6505 L 2611,6400 L 2750,6456 L 2889,6512 L 2847,6617 L 2708,6561 L 2569,6505 z "
             style="fill:#fffd9a;fill-opacity:1" />
          <path
             id="path10061"
             d="M 2750,6456 L 2611,6400 L 2618,6385 L 2750,6456 z "
             style="fill:#fffd9a;fill-opacity:1" />
          <path
             id="path10063"
             d="M 2618,6385 L 2670,6288 L 2802,6359 L 2934,6430 L 2882,6527 L 2750,6456 L 2618,6385 z "
             style="fill:#fffd9a;fill-opacity:1" />
          <path
             id="path10065"
             d="M 2802,6359 L 2670,6288 L 2678,6274 L 2802,6359 z "
             style="fill:#fffd9a;fill-opacity:1" />
          <path
             id="path10067"
             d="M 2678,6274 L 2738,6187 L 2862,6272 L 2985,6356 L 2926,6443 L 2802,6359 L 2678,6274 z "
             style="fill:#fffd9a;fill-opacity:1" />
          <path
             id="path10069"
             d="M 2862,6272 L 2738,6187 L 2748,6174 L 2862,6272 z "
             style="fill:#fffd9a;fill-opacity:1" />
          <path
             id="path10071"
             d="M 2748,6174 L 2813,6098 L 2927,6196 L 3040,6294 L 2975,6369 L 2862,6272 L 2748,6174 z "
             style="fill:#fffd9a;fill-opacity:1" />
          <path
             id="path10073"
             d="M 2927,6196 L 2813,6098 L 2825,6086 L 2927,6196 z "
             style="fill:#fffd9a;fill-opacity:1" />
          <path
             id="path10075"
             d="M 2825,6086 L 2893,6023 L 2995,6133 L 3097,6243 L 3028,6306 L 2927,6196 L 2825,6086 z "
             style="fill:#fffd9a;fill-opacity:1" />
          <path
             id="path10077"
             d="M 2995,6133 L 2893,6023 L 2909,6010 L 2995,6133 z "
             style="fill:#fffd9a;fill-opacity:1" />
          <path
             id="path10079"
             d="M 2909,6010 L 2978,5962 L 3064,6084 L 3151,6207 L 3081,6256 L 2995,6133 L 2909,6010 z "
             style="fill:#fffd9a;fill-opacity:1" />
          <path
             id="path10081"
             d="M 3064,6084 L 2978,5962 L 2993,5952 L 3064,6084 z "
             style="fill:#fffd9a;fill-opacity:1" />
          <path
             id="path10083"
             d="M 2993,5952 L 3028,5934 L 3099,6066 L 3170,6198 L 3136,6216 L 3064,6084 L 2993,5952 z "
             style="fill:#fffd9a;fill-opacity:1" />
          <path
             id="path10085"
             d="M 3099,6066 L 3028,5934 L 3040,5928 L 3099,6066 z "
             style="fill:#fffd9a;fill-opacity:1" />
          <path
             id="path10087"
             d="M 3040,5928 L 3074,5913 L 3133,6051 L 3192,6189 L 3158,6203 L 3099,6066 L 3040,5928 z "
             style="fill:#fffd9a;fill-opacity:1" />
          <path
             id="path10089"
             d="M 3133,6051 L 3074,5913 L 3088,5908 L 3133,6051 z "
             style="fill:#fffd9a;fill-opacity:1" />
          <path
             id="path10091"
             d="M 3088,5908 L 3122,5897 L 3166,6041 L 3211,6184 L 3178,6194 L 3133,6051 L 3088,5908 z "
             style="fill:#fffd9a;fill-opacity:1" />
          <path
             id="path10093"
             d="M 3166,6041 L 3122,5897 L 3139,5893 L 3166,6041 z "
             style="fill:#fffd9a;fill-opacity:1" />
          <path
             id="path10095"
             d="M 3139,5893 L 3171,5887 L 3199,6035 L 3226,6182 L 3194,6188 L 3166,6041 L 3139,5893 z "
             style="fill:#fffd9a;fill-opacity:1" />
          <path
             id="path10097"
             d="M 3199,6035 L 3171,5887 L 3192,5885 L 3199,6035 z "
             style="fill:#fffd9a;fill-opacity:1" />
          <path
             id="path10099"
             d="M 3192,5885 L 3223,5883 L 3230,6033 L 3237,6183 L 3206,6184 L 3199,6035 L 3192,5885 z "
             style="fill:#fffd9a;fill-opacity:1" />
          <path
             id="path10101"
             d="M 3230,6033 L 3223,5883 L 3247,5884 L 3230,6033 z "
             style="fill:#fffd9a;fill-opacity:1" />
          <path
             id="path10103"
             d="M 3247,5884 L 3276,5887 L 3259,6036 L 3243,6185 L 3213,6182 L 3230,6033 L 3247,5884 z "
             style="fill:#fffd9a;fill-opacity:1" />
          <path
             id="path10105"
             d="M 3259,6036 L 3276,5887 L 3302,5893 L 3302,5893 L 3259,6036 z "
             style="fill:#fffd9a;fill-opacity:1" />
          <path
             id="path10107"
             d="M 3302,5893 L 3330,5901 L 3287,6045 L 3245,6188 L 3217,6180 L 3259,6036 L 3302,5893 z "
             style="fill:#fffd9a;fill-opacity:1" />
          <path
             id="path10109"
             d="M 3287,6045 L 3330,5901 L 3354,5910 L 3356,5911 L 3287,6045 z "
             style="fill:#fffd9a;fill-opacity:1" />
          <path
             id="path10111"
             d="M 3356,5911 L 3382,5925 L 3313,6058 L 3244,6191 L 3218,6178 L 3287,6045 L 3356,5911 z "
             style="fill:#fffd9a;fill-opacity:1" />
          <path
             id="path10113"
             d="M 3313,6058 L 3382,5925 L 3404,5939 L 3407,5941 L 3313,6058 z "
             style="fill:#fffd9a;fill-opacity:1" />
          <path
             id="path10115"
             d="M 3407,5941 L 3465,5988 L 3371,6105 L 3277,6222 L 3219,6175 L 3313,6058 L 3407,5941 z "
             style="fill:#fffd9a;fill-opacity:1" />
          <path
             id="path10117"
             d="M 3371,6105 L 3465,5988 L 3484,6006 L 3487,6010 L 3371,6105 z "
             style="fill:#fffd9a;fill-opacity:1" />
          <path
             id="path10119"
             d="M 3487,6010 L 3534,6067 L 3418,6162 L 3302,6257 L 3255,6200 L 3371,6105 L 3487,6010 z "
             style="fill:#fffd9a;fill-opacity:1" />
          <path
             id="path10121"
             d="M 3418,6162 L 3534,6067 L 3549,6089 L 3550,6090 L 3418,6162 z "
             style="fill:#fffd9a;fill-opacity:1" />
          <path
             id="path10123"
             d="M 3550,6090 L 3587,6157 L 3455,6229 L 3324,6302 L 3287,6234 L 3418,6162 L 3550,6090 z "
             style="fill:#fffd9a;fill-opacity:1" />
          <path
             id="path10125"
             d="M 3455,6229 L 3587,6157 L 3596,6178 L 3455,6229 z "
             style="fill:#fffd9a;fill-opacity:1" />
          <path
             id="path10127"
             d="M 3596,6178 L 3624,6255 L 3483,6306 L 3342,6357 L 3314,6280 L 3455,6229 L 3596,6178 z "
             style="fill:#fffd9a;fill-opacity:1" />
          <path
             id="path10129"
             d="M 3483,6306 L 3624,6255 L 3629,6273 L 3483,6306 z "
             style="fill:#fffd9a;fill-opacity:1" />
          <path
             id="path10131"
             d="M 3629,6273 L 3648,6358 L 3502,6391 L 3355,6423 L 3336,6339 L 3483,6306 L 3629,6273 z "
             style="fill:#fffd9a;fill-opacity:1" />
          <path
             id="path10133"
             d="M 3502,6391 L 3648,6358 L 3651,6373 L 3502,6391 z "
             style="fill:#fffd9a;fill-opacity:1" />
          <path
             id="path10135"
             d="M 3651,6373 L 3662,6465 L 3513,6483 L 3364,6501 L 3353,6409 L 3502,6391 L 3651,6373 z "
             style="fill:#fffd9a;fill-opacity:1" />
          <path
             id="path10137"
             d="M 3513,6483 L 3662,6465 L 3663,6482 L 3513,6483 z "
             style="fill:#fffd9a;fill-opacity:1" />
          <path
             id="path10139"
             d="M 3663,6482 L 3664,6687 L 3514,6688 L 3364,6689 L 3363,6484 L 3513,6483 L 3663,6482 z "
             style="fill:#fffd9a;fill-opacity:1" />
          <path
             id="path10141"
             d="M 3514,6688 L 3664,6687 L 3664,6702 L 3514,6688 z "
             style="fill:#fffd9a;fill-opacity:1" />
          <path
             id="path10143"
             d="M 3664,6702 L 3643,6929 L 3493,6915 L 3344,6901 L 3365,6674 L 3514,6688 L 3664,6702 z "
             style="fill:#fffd9a;fill-opacity:1" />
          <path
             id="path10145"
             d="M 3493,6915 L 3643,6929 L 3642,6938 L 3493,6915 z "
             style="fill:#fffd9a;fill-opacity:1" />
          <path
             id="path10147"
             d="M 3642,6938 L 3604,7181 L 3456,7158 L 3308,7135 L 3345,6892 L 3493,6915 L 3642,6938 z "
             style="fill:#fffd9a;fill-opacity:1" />
          <path
             id="path10149"
             d="M 3456,7158 L 3604,7181 L 3603,7188 L 3456,7158 z "
             style="fill:#fffd9a;fill-opacity:1" />
          <path
             id="path10151"
             d="M 3603,7188 L 3501,7699 L 3354,7670 L 3207,7640 L 3309,7129 L 3456,7158 L 3603,7188 z "
             style="fill:#fffd9a;fill-opacity:1" />
          <path
             id="path10153"
             d="M 3354,7670 L 3207,7641 L 3207,7640 L 3354,7670 z "
             style="fill:#fffd9a;fill-opacity:1" />
          <path
             id="path10155"
             d="M 3502,7698 L 3405,8203 L 3258,8175 L 3110,8147 L 3207,7641 L 3354,7670 L 3502,7698 z "
             style="fill:#fffd9a;fill-opacity:1" />
          <path
             id="path10157"
             d="M 3258,8175 L 3109,8155 L 3110,8147 L 3258,8175 z "
             style="fill:#fffd9a;fill-opacity:1" />
          <path
             id="path10159"
             d="M 3406,8195 L 3374,8431 L 3226,8411 L 3077,8391 L 3109,8155 L 3258,8175 L 3406,8195 z "
             style="fill:#fffd9a;fill-opacity:1" />
          <path
             id="path10161"
             d="M 3226,8411 L 3076,8402 L 3077,8391 L 3226,8411 z "
             style="fill:#fffd9a;fill-opacity:1" />
          <path
             id="path10163"
             d="M 3376,8420 L 3363,8637 L 3213,8628 L 3063,8620 L 3076,8402 L 3226,8411 L 3376,8420 z "
             style="fill:#fffd9a;fill-opacity:1" />
          <path
             id="path10165"
             d="M 3213,8628 L 3063,8638 L 3063,8620 L 3213,8628 z "
             style="fill:#fffd9a;fill-opacity:1" />
          <path
             id="path10167"
             d="M 3363,8619 L 3375,8811 L 3225,8821 L 3076,8830 L 3063,8638 L 3213,8628 L 3363,8619 z "
             style="fill:#fffd9a;fill-opacity:1" />
          <path
             id="path10169"
             d="M 3225,8821 L 3079,8851 L 3076,8830 L 3225,8821 z "
             style="fill:#fffd9a;fill-opacity:1" />
          <path
             id="path10171"
             d="M 3372,8791 L 3390,8876 L 3243,8906 L 3096,8936 L 3079,8851 L 3225,8821 L 3372,8791 z "
             style="fill:#fffd9a;fill-opacity:1" />
          <path
             id="path10173"
             d="M 3243,8906 L 3101,8954 L 3096,8936 L 3243,8906 z "
             style="fill:#fffd9a;fill-opacity:1" />
          <path
             id="path10175"
             d="M 3385,8858 L 3411,8935 L 3269,8983 L 3127,9031 L 3101,8954 L 3243,8906 L 3385,8858 z "
             style="fill:#fffd9a;fill-opacity:1" />
          <path
             id="path10177"
             d="M 3269,8983 L 3136,9052 L 3127,9031 L 3269,8983 z "
             style="fill:#fffd9a;fill-opacity:1" />
          <path
             id="path10179"
             d="M 3402,8913 L 3437,8981 L 3304,9050 L 3171,9119 L 3136,9052 L 3269,8983 L 3402,8913 z "
             style="fill:#fffd9a;fill-opacity:1" />
          <path
             id="path10181"
             d="M 3304,9050 L 3186,9142 L 3171,9120 L 3171,9119 L 3304,9050 z "
             style="fill:#fffd9a;fill-opacity:1" />
          <path
             id="path10183"
             d="M 3422,8958 L 3467,9016 L 3349,9108 L 3231,9200 L 3186,9142 L 3304,9050 L 3422,8958 z "
             style="fill:#fffd9a;fill-opacity:1" />
          <path
             id="path10185"
             d="M 3349,9108 L 3252,9222 L 3234,9204 L 3231,9200 L 3349,9108 z "
             style="fill:#fffd9a;fill-opacity:1" />
          <path
             id="path10187"
             d="M 3446,8993 L 3502,9041 L 3405,9155 L 3308,9270 L 3252,9222 L 3349,9108 L 3446,8993 z "
             style="fill:#fffd9a;fill-opacity:1" />
          <path
             id="path10189"
             d="M 3405,9155 L 3334,9287 L 3312,9273 L 3308,9270 L 3405,9155 z "
             style="fill:#fffd9a;fill-opacity:1" />
          <path
             id="path10191"
             d="M 3475,9023 L 3543,9059 L 3472,9191 L 3401,9323 L 3334,9287 L 3405,9155 L 3475,9023 z "
             style="fill:#fffd9a;fill-opacity:1" />
          <path
             id="path10193"
             d="M 3472,9191 L 3425,9334 L 3401,9323 L 3472,9191 z "
             style="fill:#fffd9a;fill-opacity:1" />
          <path
             id="path10195"
             d="M 3519,9048 L 3547,9058 L 3500,9200 L 3453,9343 L 3425,9334 L 3472,9191 L 3519,9048 z "
             style="fill:#fffd9a;fill-opacity:1" />
          <path
             id="path10197"
             d="M 3500,9200 L 3474,9348 L 3453,9343 L 3500,9200 z "
             style="fill:#fffd9a;fill-opacity:1" />
          <path
             id="path10199"
             d="M 3526,9052 L 3554,9057 L 3528,9205 L 3502,9353 L 3474,9348 L 3500,9200 L 3526,9052 z "
             style="fill:#fffd9a;fill-opacity:1" />
          <path
             id="path10201"
             d="M 3528,9205 L 3523,9355 L 3502,9353 L 3528,9205 z "
             style="fill:#fffd9a;fill-opacity:1" />
          <path
             id="path10203"
             d="M 3532,9055 L 3559,9056 L 3555,9206 L 3550,9356 L 3523,9355 L 3528,9205 L 3532,9055 z "
             style="fill:#fffd9a;fill-opacity:1" />
          <path
             id="path10205"
             d="M 3555,9206 L 3572,9355 L 3550,9356 L 3555,9206 z "
             style="fill:#fffd9a;fill-opacity:1" />
          <path
             id="path10207"
             d="M 3538,9057 L 3565,9054 L 3582,9203 L 3598,9352 L 3572,9355 L 3555,9206 L 3538,9057 z "
             style="fill:#fffd9a;fill-opacity:1" />
          <path
             id="path10209"
             d="M 3582,9203 L 3618,9348 L 3598,9352 L 3582,9203 z "
             style="fill:#fffd9a;fill-opacity:1" />
          <path
             id="path10211"
             d="M 3546,9057 L 3572,9051 L 3608,9196 L 3644,9342 L 3618,9348 L 3582,9203 L 3546,9057 z "
             style="fill:#fffd9a;fill-opacity:1" />
          <path
             id="path10213"
             d="M 3608,9196 L 3661,9337 L 3644,9342 L 3608,9196 z "
             style="fill:#fffd9a;fill-opacity:1" />
          <path
             id="path10215"
             d="M 3555,9056 L 3581,9046 L 3634,9186 L 3688,9327 L 3661,9337 L 3608,9196 L 3555,9056 z "
             style="fill:#fffd9a;fill-opacity:1" />
          <path
             id="path10217"
             d="M 3634,9186 L 3702,9321 L 3688,9327 L 3634,9186 z "
             style="fill:#fffd9a;fill-opacity:1" />
          <path
             id="path10219"
             d="M 3567,9052 L 3593,9039 L 3660,9173 L 3728,9308 L 3702,9321 L 3634,9186 L 3567,9052 z "
             style="fill:#fffd9a;fill-opacity:1" />
          <path
             id="path10221"
             d="M 3660,9173 L 3739,9301 L 3728,9308 L 3660,9173 z "
             style="fill:#fffd9a;fill-opacity:1" />
          <path
             id="path10223"
             d="M 3582,9046 L 3607,9030 L 3686,9158 L 3765,9285 L 3739,9301 L 3660,9173 L 3582,9046 z "
             style="fill:#fffd9a;fill-opacity:1" />
          <path
             id="path10225"
             d="M 3686,9158 L 3778,9276 L 3765,9285 L 3686,9158 z "
             style="fill:#fffd9a;fill-opacity:1" />
          <path
             id="path10227"
             d="M 3595,9039 L 3645,9000 L 3737,9119 L 3828,9237 L 3778,9276 L 3686,9158 L 3595,9039 z "
             style="fill:#fffd9a;fill-opacity:1" />
          <path
             id="path10229"
             d="M 3737,9119 L 3840,9227 L 3828,9237 L 3737,9119 z "
             style="fill:#fffd9a;fill-opacity:1" />
          <path
             id="path10231"
             d="M 3634,9010 L 3684,8962 L 3787,9071 L 3890,9180 L 3840,9227 L 3737,9119 L 3634,9010 z "
             style="fill:#fffd9a;fill-opacity:1" />
          <path
             id="path10233"
             d="M 3787,9071 L 3899,9171 L 3890,9180 L 3787,9071 z "
             style="fill:#fffd9a;fill-opacity:1" />
          <path
             id="path10235"
             d="M 3675,8971 L 3774,8860 L 3886,8959 L 3998,9059 L 3899,9171 L 3787,9071 L 3675,8971 z "
             style="fill:#fffd9a;fill-opacity:1" />
          <path
             id="path10237"
             d="M 3886,8959 L 4002,9055 L 3998,9059 L 3886,8959 z "
             style="fill:#fffd9a;fill-opacity:1" />
          <path
             id="path10239"
             d="M 3771,8864 L 3871,8742 L 3987,8838 L 4102,8933 L 4002,9055 L 3886,8959 L 3771,8864 z "
             style="fill:#fffd9a;fill-opacity:1" />
          <path
             id="path10241"
             d="M 3987,8838 L 3871,8742 L 3875,8738 L 3987,8838 z "
             style="fill:#fffd9a;fill-opacity:1" />
          <path
             id="path10243"
             d="M 3875,8738 L 3978,8623 L 4089,8723 L 4201,8823 L 4098,8938 L 3987,8838 L 3875,8738 z "
             style="fill:#fffd9a;fill-opacity:1" />
          <path
             id="path10245"
             d="M 4089,8723 L 3978,8623 L 3987,8614 L 4089,8723 z "
             style="fill:#fffd9a;fill-opacity:1" />
          <path
             id="path10247"
             d="M 3987,8614 L 4040,8564 L 4143,8673 L 4246,8782 L 4192,8832 L 4089,8723 L 3987,8614 z "
             style="fill:#fffd9a;fill-opacity:1" />
          <path
             id="path10249"
             d="M 4143,8673 L 4040,8564 L 4051,8555 L 4143,8673 z "
             style="fill:#fffd9a;fill-opacity:1" />
          <path
             id="path10251"
             d="M 4051,8555 L 4105,8512 L 4197,8630 L 4289,8749 L 4235,8791 L 4143,8673 L 4051,8555 z "
             style="fill:#fffd9a;fill-opacity:1" />
          <path
             id="path10253"
             d="M 4197,8630 L 4105,8512 L 4122,8501 L 4197,8630 z "
             style="fill:#fffd9a;fill-opacity:1" />
          <path
             id="path10255"
             d="M 4122,8501 L 4178,8468 L 4254,8597 L 4329,8727 L 4273,8760 L 4197,8630 L 4122,8501 z "
             style="fill:#fffd9a;fill-opacity:1" />
          <path
             id="path10257"
             d="M 4254,8597 L 4178,8468 L 4195,8459 L 4254,8597 z "
             style="fill:#fffd9a;fill-opacity:1" />
          <path
             id="path10259"
             d="M 4195,8459 L 4224,8447 L 4283,8585 L 4341,8723 L 4312,8735 L 4254,8597 L 4195,8459 z "
             style="fill:#fffd9a;fill-opacity:1" />
          <path
             id="path10261"
             d="M 4283,8585 L 4224,8447 L 4238,8442 L 4283,8585 z "
             style="fill:#fffd9a;fill-opacity:1" />
          <path
             id="path10263"
             d="M 4238,8442 L 4267,8433 L 4312,8576 L 4357,8719 L 4327,8728 L 4283,8585 L 4238,8442 z "
             style="fill:#fffd9a;fill-opacity:1" />
        </g>
        <g
           id="g10265"
           style="fill:#fffd9a;fill-opacity:1" />
      </g>
    </g>
  </g>
</svg>
