/* XPM */
static char * symsolon_icon_16_xpm[] = {
"32 32 427 2",
"  	c None",
". 	c #33393C",
"+ 	c #40494D",
"@ 	c #6E8188",
"# 	c #5A686E",
"$ 	c #343B3E",
"% 	c #3B4448",
"& 	c #4C585D",
"* 	c #6A7B83",
"= 	c #515E63",
"- 	c #363D40",
"; 	c #71838B",
"> 	c #6B7D85",
", 	c #6A7C83",
"' 	c #5B6A70",
") 	c #2E3436",
"! 	c #63737A",
"~ 	c #71848C",
"{ 	c #70838B",
"] 	c #6E8088",
"^ 	c #5E6D74",
"/ 	c #444C4F",
"( 	c #393B3C",
"_ 	c #444545",
": 	c #484848",
"< 	c #1A1813",
"[ 	c #1E1901",
"} 	c #282614",
"| 	c #3C423C",
"1 	c #5E6E74",
"2 	c #536167",
"3 	c #475256",
"4 	c #57656B",
"5 	c #424748",
"6 	c #505050",
"7 	c #5E5E5E",
"8 	c #474437",
"9 	c #675A1B",
"0 	c #2B2200",
"a 	c #251D01",
"b 	c #2C2E26",
"c 	c #31383B",
"d 	c #4E5A5F",
"e 	c #495458",
"f 	c #5D6D74",
"g 	c #63747B",
"h 	c #5F6F76",
"i 	c #292C2D",
"j 	c #4F4F4F",
"k 	c #565656",
"l 	c #AF9B34",
"m 	c #F3D746",
"n 	c #605317",
"o 	c #231C01",
"p 	c #281F00",
"q 	c #26210C",
"r 	c #566367",
"s 	c #546368",
"t 	c #3D4549",
"u 	c #404547",
"v 	c #5C5C5C",
"w 	c #524F40",
"x 	c #FDDF48",
"y 	c #FFE149",
"z 	c #F5D846",
"A 	c #443A0D",
"B 	c #251E03",
"C 	c #4E5A5C",
"D 	c #475155",
"E 	c #6C7E85",
"F 	c #3E4243",
"G 	c #464330",
"H 	c #776922",
"I 	c #B09B32",
"J 	c #FBDE48",
"K 	c #897825",
"L 	c #2A2200",
"M 	c #251E02",
"N 	c #3E474A",
"O 	c #34393C",
"P 	c #3B4143",
"Q 	c #515151",
"R 	c #3D2A19",
"S 	c #4C4524",
"T 	c #473E14",
"U 	c #DFC540",
"V 	c #F6D946",
"W 	c #574B14",
"X 	c #261E00",
"Y 	c #201A03",
"Z 	c #434E52",
"` 	c #3D4649",
" .	c #3D474B",
"..	c #4A4A4A",
"+.	c #424242",
"@.	c #545454",
"#.	c #5D5D5D",
"$.	c #511313",
"%.	c #C0BAB4",
"&.	c #7E795C",
"*.	c #3D3611",
"=.	c #F3D646",
"-.	c #D2B93C",
";.	c #B29D33",
">.	c #4F4411",
",.	c #363A33",
"'.	c #353C3F",
").	c #6A7C84",
"!.	c #3F4446",
"~.	c #3C3C3C",
"{.	c #444444",
"].	c #3B3729",
"^.	c #8A622C",
"/.	c #A9A070",
"(.	c #A19D88",
"_.	c #736831",
":.	c #F3D645",
"<.	c #4B4110",
"[.	c #241D02",
"}.	c #607077",
"|.	c #1F1F1F",
"1.	c #2E2E2E",
"2.	c #555555",
"3.	c #575757",
"4.	c #312E1F",
"5.	c #E1C640",
"6.	c #FEE049",
"7.	c #F9DB47",
"8.	c #EACE43",
"9.	c #F4D746",
"0.	c #F8DB47",
"a.	c #3C330B",
"b.	c #454E4D",
"c.	c #505D62",
"d.	c #303030",
"e.	c #8A8A8A",
"f.	c #595959",
"g.	c #434343",
"h.	c #4E4E4E",
"i.	c #535353",
"j.	c #292929",
"k.	c #A39032",
"l.	c #FDDE48",
"m.	c #FBDB47",
"n.	c #A38C2D",
"o.	c #766421",
"p.	c #9C872C",
"q.	c #5F5317",
"r.	c #292100",
"s.	c #2C2D23",
"t.	c #2E3437",
"u.	c #373B3C",
"v.	c #393939",
"w.	c #625E6C",
"x.	c #676273",
"y.	c #393838",
"z.	c #2F2E2E",
"A.	c #565555",
"B.	c #242424",
"C.	c #474747",
"D.	c #E5CA42",
"E.	c #FCDD48",
"F.	c #F9D746",
"G.	c #F5D044",
"H.	c #A1832C",
"I.	c #4E3B14",
"J.	c #3A2C0F",
"K.	c #F6D645",
"L.	c #DCC23F",
"M.	c #BBA63F",
"N.	c #5C5118",
"O.	c #261E01",
"P.	c #27271C",
"Q.	c #4E5A60",
"R.	c #57656C",
"S.	c #3C3F40",
"T.	c #3D3947",
"U.	c #18151F",
"V.	c #332D3F",
"W.	c #4B4747",
"X.	c #393333",
"Y.	c #312B2B",
"Z.	c #342F2F",
"`.	c #2E2B2B",
" +	c #393730",
".+	c #FCDF48",
"++	c #FAD846",
"@+	c #F3CD43",
"#+	c #EBBF40",
"$+	c #AB822D",
"%+	c #967027",
"&+	c #4A3312",
"*+	c #A1862C",
"=+	c #FBDA47",
"-+	c #B6A037",
";+	c #C8C2AE",
">+	c #8B7A29",
",+	c #D9C03E",
"'+	c #665F2C",
")+	c #4D595E",
"!+	c #2F3031",
"~+	c #797979",
"{+	c #7C7C7C",
"]+	c #2E2D2D",
"^+	c #7F6E9B",
"/+	c #4E424E",
"(+	c #857777",
"_+	c #827373",
":+	c #594D4D",
"<+	c #766E6E",
"[+	c #7E7B7B",
"}+	c #6B6756",
"|+	c #90813B",
"1+	c #E9C741",
"2+	c #EDC140",
"3+	c #E0AC3B",
"4+	c #B9832F",
"5+	c #7A4C1B",
"6+	c #7E581D",
"7+	c #5B4417",
"8+	c #F8D646",
"9+	c #AE9A36",
"0+	c #615541",
"a+	c #4A421F",
"b+	c #A19139",
"c+	c #32383A",
"d+	c #32393C",
"e+	c #70828A",
"f+	c #505152",
"g+	c #858585",
"h+	c #4D4A4A",
"i+	c #B0A7A7",
"j+	c #7D6B6B",
"k+	c #856C6C",
"l+	c #836868",
"m+	c #816B6B",
"n+	c #857E7E",
"o+	c #848383",
"p+	c #4E4C44",
"q+	c #67510C",
"r+	c #8D6A22",
"s+	c #996824",
"t+	c #7C4714",
"u+	c #7F4908",
"v+	c #835405",
"w+	c #593E0A",
"x+	c #CCAD38",
"y+	c #7A691D",
"z+	c #4C3F00",
"A+	c #423705",
"B+	c #B49F33",
"C+	c #93832F",
"D+	c #455055",
"E+	c #4E5152",
"F+	c #636262",
"G+	c #5A5555",
"H+	c #5A4C4C",
"I+	c #856161",
"J+	c #855E5E",
"K+	c #856565",
"L+	c #857070",
"M+	c #857B7B",
"N+	c #848181",
"O+	c #4E4521",
"P+	c #876901",
"Q+	c #422703",
"R+	c #4B2106",
"S+	c #653307",
"T+	c #875107",
"U+	c #865905",
"V+	c #755502",
"W+	c #5D4800",
"X+	c #645200",
"Y+	c #877100",
"Z+	c #836E00",
"`+	c #4F4406",
" @	c #495559",
".@	c #454F54",
"+@	c #3F4344",
"@@	c #838282",
"#@	c #696363",
"$@	c #7E6F6F",
"%@	c #856969",
"&@	c #855C5C",
"*@	c #855959",
"=@	c #856060",
"-@	c #856E6E",
";@	c #857A7A",
">@	c #838080",
",@	c #3B382A",
"'@	c #534200",
")@	c #422D03",
"!@	c #8F7467",
"~@	c #754E24",
"{@	c #875A05",
"]@	c #876003",
"^@	c #523B01",
"/@	c #4F3F00",
"(@	c #856F00",
"_@	c #564E15",
":@	c #383F42",
"<@	c #424B4F",
"[@	c #848484",
"}@	c #857F7F",
"|@	c #676767",
"1@	c #705B00",
"2@	c #604A01",
"3@	c #816D4D",
"4@	c #745922",
"5@	c #876402",
"6@	c #876701",
"7@	c #826800",
"8@	c #574700",
"9@	c #867100",
"0@	c #565738",
"a@	c #556369",
"b@	c #66787F",
"c@	c #696969",
"d@	c #857C7C",
"e@	c #857474",
"f@	c #856D6D",
"g@	c #856A6A",
"h@	c #856F6F",
"i@	c #848282",
"j@	c #504A29",
"k@	c #877000",
"l@	c #7C6500",
"m@	c #806700",
"n@	c #775D01",
"o@	c #876B01",
"p@	c #866D00",
"q@	c #866F00",
"r@	c #766300",
"s@	c #776400",
"t@	c #816C00",
"u@	c #556162",
"v@	c #59686F",
"w@	c #555B5D",
"x@	c #858080",
"y@	c #857878",
"z@	c #837777",
"A@	c #857D7D",
"B@	c #807D7D",
"C@	c #4E4B3D",
"D@	c #7D6900",
"E@	c #867000",
"F@	c #876F00",
"G@	c #5D520F",
"H@	c #6F8189",
"I@	c #5C6B72",
"J@	c #2F3436",
"K@	c #4A555A",
"L@	c #727272",
"M@	c #858181",
"N@	c #746E6E",
"O@	c #55504F",
"P@	c #868481",
"Q@	c #484F71",
"R@	c #2D2810",
"S@	c #383A2D",
"T@	c #404A4E",
"U@	c #485357",
"V@	c #353738",
"W@	c #838383",
"X@	c #3F3E3E",
"Y@	c #555454",
"Z@	c #80807D",
"`@	c #72757F",
" #	c #10183C",
".#	c #473E10",
"+#	c #6D5B00",
"@#	c #575019",
"##	c #3C4549",
"$#	c #535759",
"%#	c #373737",
"&#	c #3A3A3A",
"*#	c #4A4944",
"=#	c #695907",
"-#	c #606F74",
";#	c #4C575C",
">#	c #525F65",
",#	c #687A81",
"'#	c #545759",
")#	c #4F440C",
"!#	c #6C5C05",
"~#	c #5A6666",
"{#	c #475257",
"]#	c #536065",
"^#	c #6C7E86",
"/#	c #4F5659",
"(#	c #767676",
"_#	c #4E4930",
":#	c #574A03",
"<#	c #3F4746",
"[#	c #546268",
"}#	c #505C62",
"|#	c #333A3D",
"1#	c #3B4346",
"2#	c #3A4245",
"3#	c #565A5C",
"4#	c #575755",
"5#	c #7C6800",
"6#	c #6A5903",
"7#	c #525338",
"8#	c #49555A",
"9#	c #3D464A",
"0#	c #5B6A71",
"a#	c #545D60",
"b#	c #575B5C",
"c#	c #5A5A5A",
"d#	c #646464",
"e#	c #686868",
"f#	c #363110",
"g#	c #484319",
"h#	c #525A4F",
"i#	c #66777E",
"j#	c #3F484C",
"k#	c #5A696F",
"l#	c #444E52",
"m#	c #697B82",
"n#	c #6D8087",
"o#	c #56646A",
"p#	c #58666C",
"q#	c #32383B",
"r#	c #465155",
"s#	c #536066",
"t#	c #303639",
"                              .                                 ",
"                            + @ #       $ %                     ",
"                  & * = - + ; > , ' ) ! ~ { .                   ",
"                  ] ~ ^ / ( _ : : < [ } | 1 2                   ",
"                3 4 5 6 7 7 7 7 8 9 0 0 0 a b c d e -           ",
"          f g h i j 7 7 7 7 7 k l m n o p 0 0 q r ~ s           ",
"        t ~ , u v 7 7 7 7 7 7 w x y y z A 0 0 0 B C h           ",
"        D E F 7 7 7 7 7 7 7 7 G H I J y K L 0 0 0 M N           ",
"        O P v 7 7 7 7 7 7 7 7 Q R S T U V W X 0 0 0 Y Z `       ",
"      &  ...+.+.@.7 7 7 7 7 7 #.$.%.&.*.=.y -.;.>.0 0 ,.~ 4     ",
"  '.).~ !.~.7 k {.7 7 7 7 7 v ].^./.(._.:.y y y <.0 0 [.! ).    ",
"    ; }.|.1.2.: 7 7 7 7 7 3.4.5.y y 6.7.8.9.y 0.a.0 0 0 b.c.    ",
"    ' D d.e.f.7 7 g.h.7 i.j.k.y 6.l.m.n.o.p.l.6.9.q.r.0 s.      ",
"    t.u.v.w.x.7 7 y.z.A.B.C.D.6.E.F.G.H.I.J.K.l.L.M.N.O.P.Q.    ",
"    R.S.v.T.U.V.W.X.Y.Z.`. +.+x ++@+#+$+%+&+*+=+-+;+>+,+'+~ )+  ",
"  4 ~ !+~+{+]+^+/+(+_+:+<+[+}+|+1+2+3+4+5+6+7+8+9+0+a+y b+~ ~ c+",
"d+e+~ f+g+7 h+i+j+k+l+m+(+n+o+p+q+r+s+t+u+v+w+x+y+z+A+B+C+~ )+  ",
"  D+~ E+g+F+G+H+k+I+J+K+L+M+N+O+P+Q+R+S+T+U+V+W+X+Y+Y+Z+`+ @    ",
"    .@+@g+@@#@$@%@&@*@=@-@;@>@,@'@)@!@~@{@]@^@/@(@Y+Y+Y+_@:@    ",
"      <@[@[@}@(+k+I+J+K+L+M+N+|@1@2@3@4@5@6@7@8@9@Y+Y+Y+0@a@    ",
"    e b@c@[@N+d@e@f@g@h@(+n+i@j@k@l@m@n@o@p@q@r@s@Y+Y+t@u@]     ",
"    v@~ w@g+o+x@d@y@(+z@A@B@C@D@Y+9@E@F@F@E@9@Y+Y+Y+Y+G@H@I@J@  ",
"    K@).I@L@g+o+M@x@N@O@P@Q@R@Y+Y+Y+Y+Y+Y+Y+Y+Y+Y+Y+Z+S@T@      ",
"        U@V@W@g+[@o+X@Y@Z@`@ #.#+#Y+Y+Y+Y+Y+Y+Y+Y+Y+@###        ",
"          )+$#g+g+g+[@k %#&#&#v.*#r@Y+Y+Y+Y+Y+Y+Y+=#-#;#        ",
"          >#,#'#[@g+g+g+g+g+g+g+W@)#Y+Y+Y+Y+Y+Y+!#~#~ {#        ",
"          ]#~ ^#/#(#g+g+g+g+g+g+g+_#Y+Y+Y+Y+Y+:#<#[#}#|#        ",
"            1#.@2#'.3#(#g+g+g+g+g+4#5#Y+Y+6#7#8#                ",
"                  9#~ 0#a#b#c#d#e##.f#g#h#i#~ j#                ",
"                    k#~ }.` l#^#m#n#o#  e p#0#                  ",
"                    q#        r#{ s#                            ",
"                                t#                              "};
