<?xml version="1.0" encoding="UTF-8" standalone="no"?>
<!-- Created with Inkscape (http://www.inkscape.org/) -->
<svg
   xmlns:dc="http://purl.org/dc/elements/1.1/"
   xmlns:cc="http://web.resource.org/cc/"
   xmlns:rdf="http://www.w3.org/1999/02/22-rdf-syntax-ns#"
   xmlns:svg="http://www.w3.org/2000/svg"
   xmlns="http://www.w3.org/2000/svg"
   xmlns:sodipodi="http://inkscape.sourceforge.net/DTD/sodipodi-0.dtd"
   xmlns:inkscape="http://www.inkscape.org/namespaces/inkscape"
   width="1cm"
   height="1cm"
   id="svg9908"
   sodipodi:version="0.32"
   inkscape:version="0.43"
   version="1.0"
   sodipodi:docbase="/world/proj/Kproj/symsolon/data"
   sodipodi:docname="planet-jupiter.svg">
  <defs
     id="defs9910" />
  <sodipodi:namedview
     id="base"
     pagecolor="#000000"
     bordercolor="#666666"
     borderopacity="1.0"
     inkscape:pageopacity="1"
     inkscape:pageshadow="2"
     inkscape:zoom="3.2599421"
     inkscape:cx="-2.2860119"
     inkscape:cy="38.83038"
     inkscape:document-units="px"
     inkscape:current-layer="layer1"
     inkscape:window-width="966"
     inkscape:window-height="589"
     inkscape:window-x="0"
     inkscape:window-y="68" />
  <metadata
     id="metadata9913">
    <rdf:RDF>
      <cc:Work
         rdf:about="">
        <dc:format>image/svg+xml</dc:format>
        <dc:type
           rdf:resource="http://purl.org/dc/dcmitype/StillImage" />
      </cc:Work>
    </rdf:RDF>
  </metadata>
  <g
     inkscape:label="1. réteg"
     inkscape:groupmode="layer"
     id="layer1">
    <g
       style="fill:#0000ff;fill-opacity:1;visibility:visible"
       id="g13313"
       transform="matrix(9.212549e-3,0,0,9.212549e-3,-50.07397,-181.6313)">
      <desc
         id="desc13315">Drawing</desc>
      <g
         id="g13317"
         style="fill:#0000ff;fill-opacity:1">
        <g
           id="g13319"
           style="fill:#0000ff;fill-opacity:1;stroke:none">
          <path
             id="path13321"
             d="M 6108,20780 L 6104,20619 L 6254,20615 L 6404,20612 L 6408,20774 L 6258,20777 L 6108,20780 z "
             style="fill:#0000ff;fill-opacity:1" />
          <path
             id="path13323"
             d="M 6254,20615 L 6104,20619 L 6105,20605 L 6254,20615 z "
             style="fill:#0000ff;fill-opacity:1" />
          <path
             id="path13325"
             d="M 6105,20605 L 6115,20446 L 6265,20457 L 6415,20467 L 6404,20625 L 6254,20615 L 6105,20605 z "
             style="fill:#0000ff;fill-opacity:1" />
          <path
             id="path13327"
             d="M 6265,20457 L 6115,20446 L 6117,20435 L 6265,20457 z "
             style="fill:#0000ff;fill-opacity:1" />
          <path
             id="path13329"
             d="M 6117,20435 L 6128,20359 L 6276,20381 L 6424,20402 L 6413,20478 L 6265,20457 L 6117,20435 z "
             style="fill:#0000ff;fill-opacity:1" />
          <path
             id="path13331"
             d="M 6276,20381 L 6128,20359 L 6129,20350 L 6276,20381 z "
             style="fill:#0000ff;fill-opacity:1" />
          <path
             id="path13333"
             d="M 6129,20350 L 6144,20278 L 6291,20309 L 6438,20339 L 6423,20411 L 6276,20381 L 6129,20350 z "
             style="fill:#0000ff;fill-opacity:1" />
          <path
             id="path13335"
             d="M 6291,20309 L 6144,20278 L 6147,20268 L 6291,20309 z "
             style="fill:#0000ff;fill-opacity:1" />
          <path
             id="path13337"
             d="M 6147,20268 L 6166,20201 L 6310,20241 L 6454,20282 L 6435,20350 L 6291,20309 L 6147,20268 z "
             style="fill:#0000ff;fill-opacity:1" />
          <path
             id="path13339"
             d="M 6310,20241 L 6166,20201 L 6170,20188 L 6310,20241 z "
             style="fill:#0000ff;fill-opacity:1" />
          <path
             id="path13341"
             d="M 6170,20188 L 6193,20127 L 6333,20180 L 6474,20233 L 6450,20294 L 6310,20241 L 6170,20188 z "
             style="fill:#0000ff;fill-opacity:1" />
          <path
             id="path13343"
             d="M 6333,20180 L 6193,20127 L 6199,20112 L 6333,20180 z "
             style="fill:#0000ff;fill-opacity:1" />
          <path
             id="path13345"
             d="M 6199,20112 L 6227,20057 L 6361,20124 L 6495,20192 L 6467,20247 L 6333,20180 L 6199,20112 z "
             style="fill:#0000ff;fill-opacity:1" />
          <path
             id="path13347"
             d="M 6361,20124 L 6227,20057 L 6237,20041 L 6361,20124 z "
             style="fill:#0000ff;fill-opacity:1" />
          <path
             id="path13349"
             d="M 6237,20041 L 6269,19993 L 6393,20077 L 6518,20161 L 6485,20208 L 6361,20124 L 6237,20041 z "
             style="fill:#0000ff;fill-opacity:1" />
          <path
             id="path13351"
             d="M 6393,20077 L 6269,19993 L 6279,19979 L 6393,20077 z "
             style="fill:#0000ff;fill-opacity:1" />
          <path
             id="path13353"
             d="M 6279,19979 L 6297,19958 L 6411,20056 L 6525,20154 L 6507,20175 L 6393,20077 L 6279,19979 z "
             style="fill:#0000ff;fill-opacity:1" />
          <path
             id="path13355"
             d="M 6411,20056 L 6297,19958 L 6306,19949 L 6411,20056 z "
             style="fill:#0000ff;fill-opacity:1" />
          <path
             id="path13357"
             d="M 6306,19949 L 6325,19930 L 6430,20038 L 6535,20145 L 6516,20164 L 6411,20056 L 6306,19949 z "
             style="fill:#0000ff;fill-opacity:1" />
          <path
             id="path13359"
             d="M 6430,20038 L 6325,19930 L 6336,19920 L 6430,20038 z "
             style="fill:#0000ff;fill-opacity:1" />
          <path
             id="path13361"
             d="M 6336,19920 L 6356,19904 L 6450,20022 L 6544,20139 L 6524,20155 L 6430,20038 L 6336,19920 z "
             style="fill:#0000ff;fill-opacity:1" />
          <path
             id="path13363"
             d="M 6450,20022 L 6356,19904 L 6369,19895 L 6450,20022 z "
             style="fill:#0000ff;fill-opacity:1" />
          <path
             id="path13365"
             d="M 6369,19895 L 6391,19881 L 6471,20008 L 6552,20134 L 6531,20148 L 6450,20022 L 6369,19895 z "
             style="fill:#0000ff;fill-opacity:1" />
          <path
             id="path13367"
             d="M 6471,20008 L 6391,19881 L 6406,19873 L 6471,20008 z "
             style="fill:#0000ff;fill-opacity:1" />
          <path
             id="path13369"
             d="M 6406,19873 L 6428,19862 L 6494,19997 L 6560,20132 L 6537,20143 L 6471,20008 L 6406,19873 z "
             style="fill:#0000ff;fill-opacity:1" />
          <path
             id="path13371"
             d="M 6494,19997 L 6428,19862 L 6445,19855 L 6494,19997 z "
             style="fill:#0000ff;fill-opacity:1" />
          <path
             id="path13373"
             d="M 6445,19855 L 6468,19847 L 6518,19989 L 6567,20130 L 6543,20139 L 6494,19997 L 6445,19855 z "
             style="fill:#0000ff;fill-opacity:1" />
          <path
             id="path13375"
             d="M 6518,19989 L 6468,19847 L 6486,19842 L 6518,19989 z "
             style="fill:#0000ff;fill-opacity:1" />
          <path
             id="path13377"
             d="M 6486,19842 L 6511,19837 L 6543,19983 L 6574,20130 L 6549,20135 L 6518,19989 L 6486,19842 z "
             style="fill:#0000ff;fill-opacity:1" />
          <path
             id="path13379"
             d="M 6543,19983 L 6511,19837 L 6529,19834 L 6543,19983 z "
             style="fill:#0000ff;fill-opacity:1" />
          <path
             id="path13381"
             d="M 6529,19834 L 6555,19831 L 6569,19981 L 6583,20130 L 6557,20133 L 6543,19983 L 6529,19834 z "
             style="fill:#0000ff;fill-opacity:1" />
          <path
             id="path13383"
             d="M 6569,19981 L 6555,19831 L 6572,19831 L 6569,19981 z "
             style="fill:#0000ff;fill-opacity:1" />
          <path
             id="path13385"
             d="M 6572,19831 L 6600,19831 L 6596,19981 L 6593,20131 L 6566,20131 L 6569,19981 L 6572,19831 z "
             style="fill:#0000ff;fill-opacity:1" />
          <path
             id="path13387"
             d="M 6596,19981 L 6600,19831 L 6616,19833 L 6596,19981 z "
             style="fill:#0000ff;fill-opacity:1" />
          <path
             id="path13389"
             d="M 6616,19833 L 6645,19837 L 6625,19985 L 6606,20134 L 6577,20130 L 6596,19981 L 6616,19833 z "
             style="fill:#0000ff;fill-opacity:1" />
          <path
             id="path13391"
             d="M 6625,19985 L 6645,19837 L 6660,19839 L 6625,19985 z "
             style="fill:#0000ff;fill-opacity:1" />
          <path
             id="path13393"
             d="M 6660,19839 L 6690,19846 L 6656,19992 L 6621,20138 L 6591,20131 L 6625,19985 L 6660,19839 z "
             style="fill:#0000ff;fill-opacity:1" />
          <path
             id="path13395"
             d="M 6656,19992 L 6690,19846 L 6703,19850 L 6656,19992 z "
             style="fill:#0000ff;fill-opacity:1" />
          <path
             id="path13397"
             d="M 6703,19850 L 6735,19861 L 6687,20003 L 6639,20145 L 6608,20135 L 6656,19992 L 6703,19850 z "
             style="fill:#0000ff;fill-opacity:1" />
          <path
             id="path13399"
             d="M 6687,20003 L 6735,19861 L 6753,19868 L 6687,20003 z "
             style="fill:#0000ff;fill-opacity:1" />
          <path
             id="path13401"
             d="M 6753,19868 L 6800,19891 L 6734,20026 L 6668,20161 L 6621,20138 L 6687,20003 L 6753,19868 z "
             style="fill:#0000ff;fill-opacity:1" />
          <path
             id="path13403"
             d="M 6734,20026 L 6800,19891 L 6821,19904 L 6734,20026 z "
             style="fill:#0000ff;fill-opacity:1" />
          <path
             id="path13405"
             d="M 6821,19904 L 6864,19934 L 6777,20056 L 6690,20179 L 6647,20148 L 6734,20026 L 6821,19904 z "
             style="fill:#0000ff;fill-opacity:1" />
          <path
             id="path13407"
             d="M 6777,20056 L 6864,19934 L 6882,19949 L 6777,20056 z "
             style="fill:#0000ff;fill-opacity:1" />
          <path
             id="path13409"
             d="M 6882,19949 L 6920,19987 L 6816,20094 L 6711,20202 L 6672,20164 L 6777,20056 L 6882,19949 z "
             style="fill:#0000ff;fill-opacity:1" />
          <path
             id="path13411"
             d="M 6816,20094 L 6920,19987 L 6934,20002 L 6816,20094 z "
             style="fill:#0000ff;fill-opacity:1" />
          <path
             id="path13413"
             d="M 6934,20002 L 6969,20047 L 6851,20139 L 6733,20231 L 6698,20187 L 6816,20094 L 6934,20002 z "
             style="fill:#0000ff;fill-opacity:1" />
          <path
             id="path13415"
             d="M 6851,20139 L 6969,20047 L 6979,20061 L 6851,20139 z "
             style="fill:#0000ff;fill-opacity:1" />
          <path
             id="path13417"
             d="M 6979,20061 L 7010,20113 L 6882,20190 L 6754,20268 L 6723,20217 L 6851,20139 L 6979,20061 z "
             style="fill:#0000ff;fill-opacity:1" />
          <path
             id="path13419"
             d="M 6882,20190 L 7010,20113 L 7017,20126 L 6882,20190 z "
             style="fill:#0000ff;fill-opacity:1" />
          <path
             id="path13421"
             d="M 7017,20126 L 7045,20183 L 6909,20248 L 6774,20312 L 6746,20255 L 6882,20190 L 7017,20126 z "
             style="fill:#0000ff;fill-opacity:1" />
          <path
             id="path13423"
             d="M 6909,20248 L 7045,20183 L 7052,20201 L 6909,20248 z "
             style="fill:#0000ff;fill-opacity:1" />
          <path
             id="path13425"
             d="M 7052,20201 L 7095,20333 L 6953,20380 L 6810,20427 L 6767,20295 L 6909,20248 L 7052,20201 z "
             style="fill:#0000ff;fill-opacity:1" />
          <path
             id="path13427"
             d="M 6953,20380 L 7095,20333 L 7100,20351 L 6953,20380 z "
             style="fill:#0000ff;fill-opacity:1" />
          <path
             id="path13429"
             d="M 7100,20351 L 7129,20503 L 6982,20532 L 6835,20560 L 6805,20408 L 6953,20380 L 7100,20351 z "
             style="fill:#0000ff;fill-opacity:1" />
          <path
             id="path13431"
             d="M 6982,20532 L 7129,20503 L 7131,20518 L 6982,20532 z "
             style="fill:#0000ff;fill-opacity:1" />
          <path
             id="path13433"
             d="M 7131,20518 L 7147,20687 L 6998,20701 L 6848,20715 L 6833,20545 L 6982,20532 L 7131,20518 z "
             style="fill:#0000ff;fill-opacity:1" />
          <path
             id="path13435"
             d="M 6998,20701 L 7147,20687 L 7148,20699 L 6998,20701 z "
             style="fill:#0000ff;fill-opacity:1" />
          <path
             id="path13437"
             d="M 7148,20699 L 7150,20882 L 7000,20884 L 6850,20886 L 6848,20703 L 6998,20701 L 7148,20699 z "
             style="fill:#0000ff;fill-opacity:1" />
          <path
             id="path13439"
             d="M 7000,20884 L 7150,20882 L 7150,20892 L 7000,20884 z "
             style="fill:#0000ff;fill-opacity:1" />
          <path
             id="path13441"
             d="M 7150,20892 L 7140,21086 L 6991,21079 L 6841,21071 L 6850,20877 L 7000,20884 L 7150,20892 z "
             style="fill:#0000ff;fill-opacity:1" />
          <path
             id="path13443"
             d="M 6991,21079 L 7140,21086 L 7139,21098 L 6991,21079 z "
             style="fill:#0000ff;fill-opacity:1" />
          <path
             id="path13445"
             d="M 7139,21098 L 7085,21509 L 6937,21490 L 6788,21470 L 6842,21059 L 6991,21079 L 7139,21098 z "
             style="fill:#0000ff;fill-opacity:1" />
          <path
             id="path13447"
             d="M 6937,21490 L 7085,21509 L 7083,21523 L 6937,21490 z "
             style="fill:#0000ff;fill-opacity:1" />
          <path
             id="path13449"
             d="M 7083,21523 L 6987,21943 L 6841,21910 L 6695,21876 L 6790,21456 L 6937,21490 L 7083,21523 z "
             style="fill:#0000ff;fill-opacity:1" />
          <path
             id="path13451"
             d="M 6841,21910 L 6987,21943 L 6983,21956 L 6841,21910 z "
             style="fill:#0000ff;fill-opacity:1" />
          <path
             id="path13453"
             d="M 6983,21956 L 6851,22361 L 6708,22315 L 6566,22268 L 6698,21863 L 6841,21910 L 6983,21956 z "
             style="fill:#0000ff;fill-opacity:1" />
          <path
             id="path13455"
             d="M 6708,22315 L 6851,22361 L 6847,22372 L 6708,22315 z "
             style="fill:#0000ff;fill-opacity:1" />
          <path
             id="path13457"
             d="M 6847,22372 L 6768,22562 L 6630,22504 L 6491,22447 L 6570,22257 L 6708,22315 L 6847,22372 z "
             style="fill:#0000ff;fill-opacity:1" />
          <path
             id="path13459"
             d="M 6630,22504 L 6768,22562 L 6765,22570 L 6630,22504 z "
             style="fill:#0000ff;fill-opacity:1" />
          <path
             id="path13461"
             d="M 6765,22570 L 6679,22746 L 6544,22681 L 6409,22616 L 6495,22439 L 6630,22504 L 6765,22570 z "
             style="fill:#0000ff;fill-opacity:1" />
          <path
             id="path13463"
             d="M 6544,22681 L 6637,22798 L 6616,22813 L 6592,22823 L 6566,22829 L 6540,22831 L 6514,22828 L 6489,22821 L 6466,22809 L 6445,22793 L 6427,22774 L 6412,22753 L 6402,22729 L 6396,22703 L 6394,22677 L 6397,22651 L 6404,22626 L 6409,22616 L 6544,22681 z "
             style="fill:#0000ff;fill-opacity:1" />
          <path
             id="path13465"
             d="M 6451,22564 L 6630,22421 L 6723,22538 L 6817,22656 L 6637,22798 L 6544,22681 L 6451,22564 z "
             style="fill:#0000ff;fill-opacity:1" />
          <path
             id="path13467"
             d="M 6723,22538 L 6630,22421 L 6640,22413 L 6723,22538 z "
             style="fill:#0000ff;fill-opacity:1" />
          <path
             id="path13469"
             d="M 6640,22413 L 6805,22304 L 6888,22429 L 6971,22554 L 6806,22663 L 6723,22538 L 6640,22413 z "
             style="fill:#0000ff;fill-opacity:1" />
          <path
             id="path13471"
             d="M 6888,22429 L 6805,22304 L 6818,22296 L 6888,22429 z "
             style="fill:#0000ff;fill-opacity:1" />
          <path
             id="path13473"
             d="M 6818,22296 L 6969,22217 L 7039,22350 L 7108,22482 L 6957,22562 L 6888,22429 L 6818,22296 z "
             style="fill:#0000ff;fill-opacity:1" />
          <path
             id="path13475"
             d="M 7039,22350 L 6969,22217 L 6986,22209 L 7039,22350 z "
             style="fill:#0000ff;fill-opacity:1" />
          <path
             id="path13477"
             d="M 6986,22209 L 7125,22157 L 7178,22297 L 7231,22438 L 7091,22490 L 7039,22350 L 6986,22209 z "
             style="fill:#0000ff;fill-opacity:1" />
          <path
             id="path13479"
             d="M 7178,22297 L 7125,22157 L 7145,22151 L 7178,22297 z "
             style="fill:#0000ff;fill-opacity:1" />
          <path
             id="path13481"
             d="M 7145,22151 L 7275,22122 L 7307,22268 L 7340,22415 L 7211,22444 L 7178,22297 L 7145,22151 z "
             style="fill:#0000ff;fill-opacity:1" />
          <path
             id="path13483"
             d="M 7307,22268 L 7275,22122 L 7297,22119 L 7307,22268 z "
             style="fill:#0000ff;fill-opacity:1" />
          <path
             id="path13485"
             d="M 7297,22119 L 7418,22110 L 7429,22259 L 7440,22409 L 7318,22418 L 7307,22268 L 7297,22119 z "
             style="fill:#0000ff;fill-opacity:1" />
          <path
             id="path13487"
             d="M 7429,22259 L 7418,22110 L 7439,22110 L 7429,22259 z "
             style="fill:#0000ff;fill-opacity:1" />
          <path
             id="path13489"
             d="M 7439,22110 L 7554,22118 L 7544,22267 L 7534,22417 L 7419,22409 L 7429,22259 L 7439,22110 z "
             style="fill:#0000ff;fill-opacity:1" />
          <path
             id="path13491"
             d="M 7544,22267 L 7554,22118 L 7572,22120 L 7544,22267 z "
             style="fill:#0000ff;fill-opacity:1" />
          <path
             id="path13493"
             d="M 7572,22120 L 7683,22141 L 7655,22289 L 7626,22436 L 7516,22415 L 7544,22267 L 7572,22120 z "
             style="fill:#0000ff;fill-opacity:1" />
          <path
             id="path13495"
             d="M 7655,22289 L 7683,22141 L 7697,22145 L 7655,22289 z "
             style="fill:#0000ff;fill-opacity:1" />
          <path
             id="path13497"
             d="M 7697,22145 L 7804,22176 L 7763,22320 L 7721,22464 L 7613,22433 L 7655,22289 L 7697,22145 z "
             style="fill:#0000ff;fill-opacity:1" />
          <path
             id="path13499"
             d="M 7763,22320 L 7804,22176 L 7813,22179 L 7763,22320 z "
             style="fill:#0000ff;fill-opacity:1" />
          <path
             id="path13501"
             d="M 7813,22179 L 7920,22217 L 7869,22358 L 7819,22499 L 7712,22461 L 7763,22320 L 7813,22179 z "
             style="fill:#0000ff;fill-opacity:1" />
          <path
             id="path13503"
             d="M 7869,22358 L 7920,22217 L 7923,22218 L 7869,22358 z "
             style="fill:#0000ff;fill-opacity:1" />
          <path
             id="path13505"
             d="M 7923,22218 L 8140,22300 L 8087,22441 L 8034,22581 L 7816,22498 L 7869,22358 L 7923,22218 z "
             style="fill:#0000ff;fill-opacity:1" />
          <path
             id="path13507"
             d="M 8087,22441 L 8040,22583 L 8034,22581 L 8087,22441 z "
             style="fill:#0000ff;fill-opacity:1" />
          <path
             id="path13509"
             d="M 8134,22298 L 8249,22336 L 8201,22479 L 8154,22621 L 8040,22583 L 8087,22441 L 8134,22298 z "
             style="fill:#0000ff;fill-opacity:1" />
          <path
             id="path13511"
             d="M 8201,22479 L 8163,22624 L 8154,22621 L 8201,22479 z "
             style="fill:#0000ff;fill-opacity:1" />
          <path
             id="path13513"
             d="M 8239,22333 L 8359,22365 L 8321,22510 L 8284,22655 L 8163,22624 L 8201,22479 L 8239,22333 z "
             style="fill:#0000ff;fill-opacity:1" />
          <path
             id="path13515"
             d="M 8321,22510 L 8297,22658 L 8284,22655 L 8321,22510 z "
             style="fill:#0000ff;fill-opacity:1" />
          <path
             id="path13517"
             d="M 8346,22362 L 8474,22383 L 8449,22531 L 8425,22679 L 8297,22658 L 8321,22510 L 8346,22362 z "
             style="fill:#0000ff;fill-opacity:1" />
          <path
             id="path13519"
             d="M 8449,22531 L 8441,22681 L 8425,22679 L 8449,22531 z "
             style="fill:#0000ff;fill-opacity:1" />
          <path
             id="path13521"
             d="M 8458,22381 L 8596,22389 L 8587,22539 L 8578,22689 L 8441,22681 L 8449,22531 L 8458,22381 z "
             style="fill:#0000ff;fill-opacity:1" />
        </g>
        <g
           id="g13523"
           style="fill:#0000ff;fill-opacity:1" />
      </g>
    </g>
    <g
       style="fill:#0000ff;fill-opacity:1;visibility:visible"
       id="g13525"
       transform="matrix(9.212549e-3,0,0,9.212549e-3,-50.07397,-181.6313)">
      <desc
         id="desc13527">Drawing</desc>
      <g
         id="g13529"
         style="fill:#0000ff;fill-opacity:1">
        <g
           id="g13531"
           style="fill:#0000ff;fill-opacity:1;stroke:none">
          <path
             id="path13533"
             d="M 7737,21253 L 7745,23543 L 7445,23545 L 7437,21255 L 7737,21253 z "
             style="fill:#0000ff;fill-opacity:1" />
        </g>
        <g
           id="g13535"
           style="fill:#0000ff;fill-opacity:1" />
      </g>
    </g>
  </g>
</svg>
