<?xml version="1.0" encoding="UTF-8" standalone="no"?>
<!-- Created with Inkscape (http://www.inkscape.org/) -->
<svg
   xmlns:dc="http://purl.org/dc/elements/1.1/"
   xmlns:cc="http://web.resource.org/cc/"
   xmlns:rdf="http://www.w3.org/1999/02/22-rdf-syntax-ns#"
   xmlns:svg="http://www.w3.org/2000/svg"
   xmlns="http://www.w3.org/2000/svg"
   xmlns:sodipodi="http://inkscape.sourceforge.net/DTD/sodipodi-0.dtd"
   xmlns:inkscape="http://www.inkscape.org/namespaces/inkscape"
   width="1cm"
   height="1cm"
   id="svg9908"
   sodipodi:version="0.32"
   inkscape:version="0.43"
   version="1.0"
   sodipodi:docbase="/world/proj/Kproj/symsolon/data"
   sodipodi:docname="planet-mars.svg">
  <defs
     id="defs9910" />
  <sodipodi:namedview
     id="base"
     pagecolor="#000000"
     bordercolor="#666666"
     borderopacity="1.0"
     inkscape:pageopacity="1"
     inkscape:pageshadow="2"
     inkscape:zoom="3.2599421"
     inkscape:cx="-2.2860119"
     inkscape:cy="38.83038"
     inkscape:document-units="px"
     inkscape:current-layer="layer1"
     inkscape:window-width="966"
     inkscape:window-height="589"
     inkscape:window-x="0"
     inkscape:window-y="68" />
  <metadata
     id="metadata9913">
    <rdf:RDF>
      <cc:Work
         rdf:about="">
        <dc:format>image/svg+xml</dc:format>
        <dc:type
           rdf:resource="http://purl.org/dc/dcmitype/StillImage" />
      </cc:Work>
    </rdf:RDF>
  </metadata>
  <g
     inkscape:label="1. réteg"
     inkscape:groupmode="layer"
     id="layer1">
    <g
       style="fill:#fd0000;fill-opacity:1;visibility:visible"
       id="g12999"
       transform="matrix(9.153661e-3,0,0,9.153661e-3,-11.46874,-179.2594)">
      <desc
         id="desc13001">Drawing</desc>
      <g
         id="g13003"
         style="fill:#fd0000;fill-opacity:1">
        <g
           id="g13005"
           style="fill:#fd0000;fill-opacity:1;stroke:none">
          <path
             id="path13007"
             d="M 2628,23270 L 2526,23265 L 2534,23115 L 2541,22965 L 2644,22970 L 2636,23120 L 2628,23270 z "
             style="fill:#fd0000;fill-opacity:1" />
          <path
             id="path13009"
             d="M 2534,23115 L 2526,23265 L 2511,23263 L 2534,23115 z "
             style="fill:#fd0000;fill-opacity:1" />
          <path
             id="path13011"
             d="M 2511,23263 L 2412,23248 L 2435,23100 L 2457,22951 L 2556,22967 L 2534,23115 L 2511,23263 z "
             style="fill:#fd0000;fill-opacity:1" />
          <path
             id="path13013"
             d="M 2435,23100 L 2412,23248 L 2397,23245 L 2435,23100 z "
             style="fill:#fd0000;fill-opacity:1" />
          <path
             id="path13015"
             d="M 2397,23245 L 2301,23220 L 2339,23075 L 2376,22930 L 2472,22954 L 2435,23100 L 2397,23245 z "
             style="fill:#fd0000;fill-opacity:1" />
          <path
             id="path13017"
             d="M 2339,23075 L 2301,23220 L 2287,23216 L 2339,23075 z "
             style="fill:#fd0000;fill-opacity:1" />
          <path
             id="path13019"
             d="M 2287,23216 L 2195,23182 L 2247,23041 L 2298,22900 L 2390,22934 L 2339,23075 L 2287,23216 z "
             style="fill:#fd0000;fill-opacity:1" />
          <path
             id="path13021"
             d="M 2247,23041 L 2195,23182 L 2182,23176 L 2247,23041 z "
             style="fill:#fd0000;fill-opacity:1" />
          <path
             id="path13023"
             d="M 2182,23176 L 2094,23134 L 2159,22999 L 2224,22864 L 2312,22906 L 2247,23041 L 2182,23176 z "
             style="fill:#fd0000;fill-opacity:1" />
          <path
             id="path13025"
             d="M 2159,22999 L 2094,23134 L 2081,23127 L 2159,22999 z "
             style="fill:#fd0000;fill-opacity:1" />
          <path
             id="path13027"
             d="M 2081,23127 L 1999,23077 L 2077,22949 L 2155,22821 L 2237,22871 L 2159,22999 L 2081,23127 z "
             style="fill:#fd0000;fill-opacity:1" />
          <path
             id="path13029"
             d="M 2077,22949 L 1999,23077 L 1987,23069 L 2077,22949 z "
             style="fill:#fd0000;fill-opacity:1" />
          <path
             id="path13031"
             d="M 1987,23069 L 1910,23011 L 2000,22891 L 2089,22771 L 2167,22829 L 2077,22949 L 1987,23069 z "
             style="fill:#fd0000;fill-opacity:1" />
          <path
             id="path13033"
             d="M 2000,22891 L 1910,23011 L 1899,23002 L 2000,22891 z "
             style="fill:#fd0000;fill-opacity:1" />
          <path
             id="path13035"
             d="M 1899,23002 L 1828,22937 L 1929,22827 L 2029,22716 L 2101,22780 L 2000,22891 L 1899,23002 z "
             style="fill:#fd0000;fill-opacity:1" />
          <path
             id="path13037"
             d="M 1929,22827 L 1828,22937 L 1818,22927 L 1929,22827 z "
             style="fill:#fd0000;fill-opacity:1" />
          <path
             id="path13039"
             d="M 1818,22927 L 1753,22856 L 1864,22755 L 1975,22654 L 2039,22726 L 1929,22827 L 1818,22927 z "
             style="fill:#fd0000;fill-opacity:1" />
          <path
             id="path13041"
             d="M 1864,22755 L 1753,22856 L 1744,22845 L 1864,22755 z "
             style="fill:#fd0000;fill-opacity:1" />
          <path
             id="path13043"
             d="M 1744,22845 L 1686,22768 L 1806,22678 L 1926,22588 L 1984,22666 L 1864,22755 L 1744,22845 z "
             style="fill:#fd0000;fill-opacity:1" />
          <path
             id="path13045"
             d="M 1806,22678 L 1686,22768 L 1678,22756 L 1806,22678 z "
             style="fill:#fd0000;fill-opacity:1" />
          <path
             id="path13047"
             d="M 1678,22756 L 1628,22674 L 1756,22596 L 1884,22518 L 1934,22600 L 1806,22678 L 1678,22756 z "
             style="fill:#fd0000;fill-opacity:1" />
          <path
             id="path13049"
             d="M 1756,22596 L 1628,22674 L 1621,22661 L 1756,22596 z "
             style="fill:#fd0000;fill-opacity:1" />
          <path
             id="path13051"
             d="M 1621,22661 L 1579,22573 L 1714,22508 L 1849,22443 L 1891,22531 L 1756,22596 L 1621,22661 z "
             style="fill:#fd0000;fill-opacity:1" />
          <path
             id="path13053"
             d="M 1714,22508 L 1579,22573 L 1573,22560 L 1714,22508 z "
             style="fill:#fd0000;fill-opacity:1" />
          <path
             id="path13055"
             d="M 1573,22560 L 1539,22468 L 1680,22416 L 1821,22365 L 1855,22457 L 1714,22508 L 1573,22560 z "
             style="fill:#fd0000;fill-opacity:1" />
          <path
             id="path13057"
             d="M 1680,22416 L 1539,22468 L 1535,22454 L 1680,22416 z "
             style="fill:#fd0000;fill-opacity:1" />
          <path
             id="path13059"
             d="M 1535,22454 L 1510,22358 L 1655,22320 L 1801,22283 L 1825,22379 L 1680,22416 L 1535,22454 z "
             style="fill:#fd0000;fill-opacity:1" />
          <path
             id="path13061"
             d="M 1655,22320 L 1510,22358 L 1507,22343 L 1655,22320 z "
             style="fill:#fd0000;fill-opacity:1" />
          <path
             id="path13063"
             d="M 1507,22343 L 1492,22244 L 1640,22221 L 1788,22199 L 1804,22298 L 1655,22320 L 1507,22343 z "
             style="fill:#fd0000;fill-opacity:1" />
          <path
             id="path13065"
             d="M 1640,22221 L 1492,22244 L 1490,22229 L 1640,22221 z "
             style="fill:#fd0000;fill-opacity:1" />
          <path
             id="path13067"
             d="M 1490,22229 L 1485,22127 L 1635,22119 L 1785,22111 L 1790,22214 L 1640,22221 L 1490,22229 z "
             style="fill:#fd0000;fill-opacity:1" />
          <path
             id="path13069"
             d="M 1635,22119 L 1485,22127 L 1485,22111 L 1635,22119 z "
             style="fill:#fd0000;fill-opacity:1" />
          <path
             id="path13071"
             d="M 1485,22111 L 1490,22009 L 1640,22017 L 1790,22024 L 1785,22127 L 1635,22119 L 1485,22111 z "
             style="fill:#fd0000;fill-opacity:1" />
          <path
             id="path13073"
             d="M 1640,22017 L 1490,22009 L 1492,21994 L 1640,22017 z "
             style="fill:#fd0000;fill-opacity:1" />
          <path
             id="path13075"
             d="M 1492,21994 L 1507,21895 L 1655,21918 L 1804,21940 L 1788,22039 L 1640,22017 L 1492,21994 z "
             style="fill:#fd0000;fill-opacity:1" />
          <path
             id="path13077"
             d="M 1655,21918 L 1507,21895 L 1510,21880 L 1655,21918 z "
             style="fill:#fd0000;fill-opacity:1" />
          <path
             id="path13079"
             d="M 1510,21880 L 1535,21784 L 1680,21822 L 1825,21859 L 1801,21955 L 1655,21918 L 1510,21880 z "
             style="fill:#fd0000;fill-opacity:1" />
          <path
             id="path13081"
             d="M 1680,21822 L 1535,21784 L 1539,21770 L 1680,21822 z "
             style="fill:#fd0000;fill-opacity:1" />
          <path
             id="path13083"
             d="M 1539,21770 L 1573,21678 L 1714,21730 L 1855,21781 L 1821,21873 L 1680,21822 L 1539,21770 z "
             style="fill:#fd0000;fill-opacity:1" />
          <path
             id="path13085"
             d="M 1714,21730 L 1573,21678 L 1579,21665 L 1714,21730 z "
             style="fill:#fd0000;fill-opacity:1" />
          <path
             id="path13087"
             d="M 1579,21665 L 1621,21577 L 1756,21642 L 1891,21707 L 1849,21795 L 1714,21730 L 1579,21665 z "
             style="fill:#fd0000;fill-opacity:1" />
          <path
             id="path13089"
             d="M 1756,21642 L 1621,21577 L 1628,21564 L 1756,21642 z "
             style="fill:#fd0000;fill-opacity:1" />
          <path
             id="path13091"
             d="M 1628,21564 L 1678,21482 L 1806,21560 L 1934,21638 L 1884,21720 L 1756,21642 L 1628,21564 z "
             style="fill:#fd0000;fill-opacity:1" />
          <path
             id="path13093"
             d="M 1806,21560 L 1678,21482 L 1686,21470 L 1806,21560 z "
             style="fill:#fd0000;fill-opacity:1" />
          <path
             id="path13095"
             d="M 1686,21470 L 1744,21393 L 1864,21483 L 1984,21572 L 1926,21650 L 1806,21560 L 1686,21470 z "
             style="fill:#fd0000;fill-opacity:1" />
          <path
             id="path13097"
             d="M 1864,21483 L 1744,21393 L 1753,21382 L 1864,21483 z "
             style="fill:#fd0000;fill-opacity:1" />
          <path
             id="path13099"
             d="M 1753,21382 L 1818,21311 L 1929,21412 L 2039,21512 L 1975,21584 L 1864,21483 L 1753,21382 z "
             style="fill:#fd0000;fill-opacity:1" />
          <path
             id="path13101"
             d="M 1929,21412 L 1818,21311 L 1828,21301 L 1929,21412 z "
             style="fill:#fd0000;fill-opacity:1" />
          <path
             id="path13103"
             d="M 1828,21301 L 1899,21236 L 2000,21347 L 2101,21458 L 2029,21522 L 1929,21412 L 1828,21301 z "
             style="fill:#fd0000;fill-opacity:1" />
          <path
             id="path13105"
             d="M 2000,21347 L 1899,21236 L 1910,21227 L 2000,21347 z "
             style="fill:#fd0000;fill-opacity:1" />
          <path
             id="path13107"
             d="M 1910,21227 L 1987,21169 L 2077,21289 L 2167,21409 L 2089,21467 L 2000,21347 L 1910,21227 z "
             style="fill:#fd0000;fill-opacity:1" />
          <path
             id="path13109"
             d="M 2077,21289 L 1987,21169 L 1999,21161 L 2077,21289 z "
             style="fill:#fd0000;fill-opacity:1" />
          <path
             id="path13111"
             d="M 1999,21161 L 2081,21111 L 2159,21239 L 2237,21367 L 2155,21417 L 2077,21289 L 1999,21161 z "
             style="fill:#fd0000;fill-opacity:1" />
          <path
             id="path13113"
             d="M 2159,21239 L 2081,21111 L 2094,21104 L 2159,21239 z "
             style="fill:#fd0000;fill-opacity:1" />
          <path
             id="path13115"
             d="M 2094,21104 L 2182,21062 L 2247,21197 L 2312,21332 L 2224,21374 L 2159,21239 L 2094,21104 z "
             style="fill:#fd0000;fill-opacity:1" />
          <path
             id="path13117"
             d="M 2247,21197 L 2182,21062 L 2195,21056 L 2247,21197 z "
             style="fill:#fd0000;fill-opacity:1" />
          <path
             id="path13119"
             d="M 2195,21056 L 2287,21022 L 2339,21163 L 2390,21304 L 2298,21338 L 2247,21197 L 2195,21056 z "
             style="fill:#fd0000;fill-opacity:1" />
          <path
             id="path13121"
             d="M 2339,21163 L 2287,21022 L 2301,21018 L 2339,21163 z "
             style="fill:#fd0000;fill-opacity:1" />
          <path
             id="path13123"
             d="M 2301,21018 L 2397,20993 L 2435,21138 L 2472,21284 L 2376,21308 L 2339,21163 L 2301,21018 z "
             style="fill:#fd0000;fill-opacity:1" />
          <path
             id="path13125"
             d="M 2435,21138 L 2397,20993 L 2412,20990 L 2435,21138 z "
             style="fill:#fd0000;fill-opacity:1" />
          <path
             id="path13127"
             d="M 2412,20990 L 2511,20975 L 2534,21123 L 2556,21271 L 2457,21287 L 2435,21138 L 2412,20990 z "
             style="fill:#fd0000;fill-opacity:1" />
          <path
             id="path13129"
             d="M 2534,21123 L 2511,20975 L 2526,20973 L 2534,21123 z "
             style="fill:#fd0000;fill-opacity:1" />
          <path
             id="path13131"
             d="M 2526,20973 L 2628,20968 L 2636,21118 L 2644,21268 L 2541,21273 L 2534,21123 L 2526,20973 z "
             style="fill:#fd0000;fill-opacity:1" />
          <path
             id="path13133"
             d="M 2636,21118 L 2628,20968 L 2644,20968 L 2636,21118 z "
             style="fill:#fd0000;fill-opacity:1" />
          <path
             id="path13135"
             d="M 2644,20968 L 2746,20973 L 2738,21123 L 2731,21273 L 2628,21268 L 2636,21118 L 2644,20968 z "
             style="fill:#fd0000;fill-opacity:1" />
          <path
             id="path13137"
             d="M 2738,21123 L 2746,20973 L 2761,20975 L 2738,21123 z "
             style="fill:#fd0000;fill-opacity:1" />
          <path
             id="path13139"
             d="M 2761,20975 L 2860,20990 L 2837,21138 L 2815,21287 L 2716,21271 L 2738,21123 L 2761,20975 z "
             style="fill:#fd0000;fill-opacity:1" />
          <path
             id="path13141"
             d="M 2837,21138 L 2860,20990 L 2875,20993 L 2837,21138 z "
             style="fill:#fd0000;fill-opacity:1" />
          <path
             id="path13143"
             d="M 2875,20993 L 2971,21018 L 2933,21163 L 2896,21308 L 2800,21284 L 2837,21138 L 2875,20993 z "
             style="fill:#fd0000;fill-opacity:1" />
          <path
             id="path13145"
             d="M 2933,21163 L 2971,21018 L 2985,21022 L 2933,21163 z "
             style="fill:#fd0000;fill-opacity:1" />
          <path
             id="path13147"
             d="M 2985,21022 L 3077,21056 L 3025,21197 L 2974,21338 L 2882,21304 L 2933,21163 L 2985,21022 z "
             style="fill:#fd0000;fill-opacity:1" />
          <path
             id="path13149"
             d="M 3025,21197 L 3077,21056 L 3090,21062 L 3025,21197 z "
             style="fill:#fd0000;fill-opacity:1" />
          <path
             id="path13151"
             d="M 3090,21062 L 3178,21104 L 3113,21239 L 3048,21374 L 2960,21332 L 3025,21197 L 3090,21062 z "
             style="fill:#fd0000;fill-opacity:1" />
          <path
             id="path13153"
             d="M 3113,21239 L 3178,21104 L 3191,21111 L 3113,21239 z "
             style="fill:#fd0000;fill-opacity:1" />
          <path
             id="path13155"
             d="M 3191,21111 L 3273,21161 L 3195,21289 L 3117,21417 L 3035,21367 L 3113,21239 L 3191,21111 z "
             style="fill:#fd0000;fill-opacity:1" />
          <path
             id="path13157"
             d="M 3195,21289 L 3273,21161 L 3285,21169 L 3195,21289 z "
             style="fill:#fd0000;fill-opacity:1" />
          <path
             id="path13159"
             d="M 3285,21169 L 3362,21227 L 3272,21347 L 3183,21467 L 3105,21409 L 3195,21289 L 3285,21169 z "
             style="fill:#fd0000;fill-opacity:1" />
          <path
             id="path13161"
             d="M 3272,21347 L 3362,21227 L 3373,21236 L 3272,21347 z "
             style="fill:#fd0000;fill-opacity:1" />
          <path
             id="path13163"
             d="M 3373,21236 L 3444,21301 L 3344,21412 L 3243,21522 L 3171,21458 L 3272,21347 L 3373,21236 z "
             style="fill:#fd0000;fill-opacity:1" />
          <path
             id="path13165"
             d="M 3344,21412 L 3444,21301 L 3454,21311 L 3344,21412 z "
             style="fill:#fd0000;fill-opacity:1" />
          <path
             id="path13167"
             d="M 3454,21311 L 3519,21382 L 3408,21483 L 3297,21584 L 3233,21512 L 3344,21412 L 3454,21311 z "
             style="fill:#fd0000;fill-opacity:1" />
          <path
             id="path13169"
             d="M 3408,21483 L 3519,21382 L 3528,21393 L 3408,21483 z "
             style="fill:#fd0000;fill-opacity:1" />
          <path
             id="path13171"
             d="M 3528,21393 L 3586,21470 L 3466,21560 L 3346,21650 L 3288,21572 L 3408,21483 L 3528,21393 z "
             style="fill:#fd0000;fill-opacity:1" />
          <path
             id="path13173"
             d="M 3466,21560 L 3586,21470 L 3594,21482 L 3466,21560 z "
             style="fill:#fd0000;fill-opacity:1" />
          <path
             id="path13175"
             d="M 3594,21482 L 3644,21564 L 3516,21642 L 3388,21720 L 3338,21638 L 3466,21560 L 3594,21482 z "
             style="fill:#fd0000;fill-opacity:1" />
          <path
             id="path13177"
             d="M 3516,21642 L 3644,21564 L 3651,21577 L 3516,21642 z "
             style="fill:#fd0000;fill-opacity:1" />
          <path
             id="path13179"
             d="M 3651,21577 L 3693,21665 L 3558,21730 L 3423,21795 L 3381,21707 L 3516,21642 L 3651,21577 z "
             style="fill:#fd0000;fill-opacity:1" />
          <path
             id="path13181"
             d="M 3558,21730 L 3693,21665 L 3699,21678 L 3558,21730 z "
             style="fill:#fd0000;fill-opacity:1" />
          <path
             id="path13183"
             d="M 3699,21678 L 3733,21770 L 3592,21822 L 3451,21873 L 3417,21781 L 3558,21730 L 3699,21678 z "
             style="fill:#fd0000;fill-opacity:1" />
          <path
             id="path13185"
             d="M 3592,21822 L 3733,21770 L 3737,21784 L 3592,21822 z "
             style="fill:#fd0000;fill-opacity:1" />
          <path
             id="path13187"
             d="M 3737,21784 L 3762,21880 L 3617,21918 L 3471,21955 L 3447,21859 L 3592,21822 L 3737,21784 z "
             style="fill:#fd0000;fill-opacity:1" />
          <path
             id="path13189"
             d="M 3617,21918 L 3762,21880 L 3765,21895 L 3617,21918 z "
             style="fill:#fd0000;fill-opacity:1" />
          <path
             id="path13191"
             d="M 3765,21895 L 3780,21994 L 3632,22017 L 3484,22039 L 3468,21940 L 3617,21918 L 3765,21895 z "
             style="fill:#fd0000;fill-opacity:1" />
          <path
             id="path13193"
             d="M 3632,22017 L 3780,21994 L 3782,22009 L 3632,22017 z "
             style="fill:#fd0000;fill-opacity:1" />
          <path
             id="path13195"
             d="M 3782,22009 L 3787,22111 L 3637,22119 L 3487,22127 L 3482,22024 L 3632,22017 L 3782,22009 z "
             style="fill:#fd0000;fill-opacity:1" />
          <path
             id="path13197"
             d="M 3637,22119 L 3787,22111 L 3787,22127 L 3637,22119 z "
             style="fill:#fd0000;fill-opacity:1" />
          <path
             id="path13199"
             d="M 3787,22127 L 3782,22229 L 3632,22221 L 3482,22214 L 3487,22111 L 3637,22119 L 3787,22127 z "
             style="fill:#fd0000;fill-opacity:1" />
          <path
             id="path13201"
             d="M 3632,22221 L 3782,22229 L 3780,22244 L 3632,22221 z "
             style="fill:#fd0000;fill-opacity:1" />
          <path
             id="path13203"
             d="M 3780,22244 L 3765,22343 L 3617,22320 L 3468,22298 L 3484,22199 L 3632,22221 L 3780,22244 z "
             style="fill:#fd0000;fill-opacity:1" />
          <path
             id="path13205"
             d="M 3617,22320 L 3765,22343 L 3762,22358 L 3617,22320 z "
             style="fill:#fd0000;fill-opacity:1" />
          <path
             id="path13207"
             d="M 3762,22358 L 3737,22454 L 3592,22416 L 3447,22379 L 3471,22283 L 3617,22320 L 3762,22358 z "
             style="fill:#fd0000;fill-opacity:1" />
          <path
             id="path13209"
             d="M 3592,22416 L 3737,22454 L 3733,22468 L 3592,22416 z "
             style="fill:#fd0000;fill-opacity:1" />
          <path
             id="path13211"
             d="M 3733,22468 L 3699,22560 L 3558,22508 L 3417,22457 L 3451,22365 L 3592,22416 L 3733,22468 z "
             style="fill:#fd0000;fill-opacity:1" />
          <path
             id="path13213"
             d="M 3558,22508 L 3699,22560 L 3693,22573 L 3558,22508 z "
             style="fill:#fd0000;fill-opacity:1" />
          <path
             id="path13215"
             d="M 3693,22573 L 3651,22661 L 3516,22596 L 3381,22531 L 3423,22443 L 3558,22508 L 3693,22573 z "
             style="fill:#fd0000;fill-opacity:1" />
          <path
             id="path13217"
             d="M 3516,22596 L 3651,22661 L 3644,22674 L 3516,22596 z "
             style="fill:#fd0000;fill-opacity:1" />
          <path
             id="path13219"
             d="M 3644,22674 L 3594,22756 L 3466,22678 L 3338,22600 L 3388,22518 L 3516,22596 L 3644,22674 z "
             style="fill:#fd0000;fill-opacity:1" />
          <path
             id="path13221"
             d="M 3466,22678 L 3594,22756 L 3586,22768 L 3466,22678 z "
             style="fill:#fd0000;fill-opacity:1" />
          <path
             id="path13223"
             d="M 3586,22768 L 3528,22845 L 3408,22755 L 3288,22666 L 3346,22588 L 3466,22678 L 3586,22768 z "
             style="fill:#fd0000;fill-opacity:1" />
          <path
             id="path13225"
             d="M 3408,22755 L 3528,22845 L 3519,22856 L 3408,22755 z "
             style="fill:#fd0000;fill-opacity:1" />
          <path
             id="path13227"
             d="M 3519,22856 L 3454,22927 L 3344,22827 L 3233,22726 L 3297,22654 L 3408,22755 L 3519,22856 z "
             style="fill:#fd0000;fill-opacity:1" />
          <path
             id="path13229"
             d="M 3344,22827 L 3454,22927 L 3444,22937 L 3344,22827 z "
             style="fill:#fd0000;fill-opacity:1" />
          <path
             id="path13231"
             d="M 3444,22937 L 3373,23002 L 3272,22891 L 3171,22780 L 3243,22716 L 3344,22827 L 3444,22937 z "
             style="fill:#fd0000;fill-opacity:1" />
          <path
             id="path13233"
             d="M 3272,22891 L 3373,23002 L 3362,23011 L 3272,22891 z "
             style="fill:#fd0000;fill-opacity:1" />
          <path
             id="path13235"
             d="M 3362,23011 L 3285,23069 L 3195,22949 L 3105,22829 L 3183,22771 L 3272,22891 L 3362,23011 z "
             style="fill:#fd0000;fill-opacity:1" />
          <path
             id="path13237"
             d="M 3195,22949 L 3285,23069 L 3273,23077 L 3195,22949 z "
             style="fill:#fd0000;fill-opacity:1" />
          <path
             id="path13239"
             d="M 3273,23077 L 3191,23127 L 3113,22999 L 3035,22871 L 3117,22821 L 3195,22949 L 3273,23077 z "
             style="fill:#fd0000;fill-opacity:1" />
          <path
             id="path13241"
             d="M 3113,22999 L 3191,23127 L 3178,23134 L 3113,22999 z "
             style="fill:#fd0000;fill-opacity:1" />
          <path
             id="path13243"
             d="M 3178,23134 L 3090,23176 L 3025,23041 L 2960,22906 L 3048,22864 L 3113,22999 L 3178,23134 z "
             style="fill:#fd0000;fill-opacity:1" />
          <path
             id="path13245"
             d="M 3025,23041 L 3090,23176 L 3077,23182 L 3025,23041 z "
             style="fill:#fd0000;fill-opacity:1" />
          <path
             id="path13247"
             d="M 3077,23182 L 2985,23216 L 2933,23075 L 2882,22934 L 2974,22900 L 3025,23041 L 3077,23182 z "
             style="fill:#fd0000;fill-opacity:1" />
          <path
             id="path13249"
             d="M 2933,23075 L 2985,23216 L 2971,23220 L 2933,23075 z "
             style="fill:#fd0000;fill-opacity:1" />
          <path
             id="path13251"
             d="M 2971,23220 L 2875,23245 L 2837,23100 L 2800,22954 L 2896,22930 L 2933,23075 L 2971,23220 z "
             style="fill:#fd0000;fill-opacity:1" />
          <path
             id="path13253"
             d="M 2837,23100 L 2875,23245 L 2860,23248 L 2837,23100 z "
             style="fill:#fd0000;fill-opacity:1" />
          <path
             id="path13255"
             d="M 2860,23248 L 2761,23263 L 2738,23115 L 2716,22967 L 2815,22951 L 2837,23100 L 2860,23248 z "
             style="fill:#fd0000;fill-opacity:1" />
          <path
             id="path13257"
             d="M 2738,23115 L 2761,23263 L 2746,23265 L 2738,23115 z "
             style="fill:#fd0000;fill-opacity:1" />
          <path
             id="path13259"
             d="M 2746,23265 L 2644,23270 L 2636,23120 L 2628,22970 L 2731,22965 L 2738,23115 L 2746,23265 z "
             style="fill:#fd0000;fill-opacity:1" />
          <path
             id="path13261"
             d="M 2636,23120 L 2644,23270 L 2628,23270 L 2636,23120 z "
             style="fill:#fd0000;fill-opacity:1" />
        </g>
        <g
           id="g13263"
           style="fill:#fd0000;fill-opacity:1" />
      </g>
    </g>
    <g
       style="fill:#fd0000;fill-opacity:1;visibility:visible"
       id="g13265"
       transform="matrix(9.153661e-3,0,0,9.153661e-3,-11.46874,-179.2594)">
      <desc
         id="desc13267">Drawing</desc>
      <g
         id="g13269"
         style="fill:#fd0000;fill-opacity:1">
        <g
           id="g13271"
           style="fill:#fd0000;fill-opacity:1;stroke:none">
          <path
             id="path13273"
             d="M 3197,21345 L 4530,20011 L 4742,20223 L 3409,21557 L 3197,21345 z "
             style="fill:#fd0000;fill-opacity:1" />
        </g>
        <g
           id="g13275"
           style="fill:#fd0000;fill-opacity:1" />
      </g>
    </g>
    <g
       style="fill:#fd0000;fill-opacity:1;visibility:visible"
       id="g13277"
       transform="matrix(9.153661e-3,0,0,9.153661e-3,-11.46874,-179.2594)">
      <desc
         id="desc13279">Drawing</desc>
      <g
         id="g13281"
         style="fill:#fd0000;fill-opacity:1">
        <g
           id="g13283"
           style="fill:#fd0000;fill-opacity:1;stroke:none">
          <path
             id="path13285"
             d="M 3703,20040 L 4797,19822 L 4855,20116 L 3761,20334 L 3703,20040 z "
             style="fill:#fd0000;fill-opacity:1" />
        </g>
        <g
           id="g13287"
           style="fill:#fd0000;fill-opacity:1" />
      </g>
    </g>
    <g
       style="fill:#fd0000;fill-opacity:1;visibility:visible"
       id="g13289"
       transform="matrix(9.153661e-3,0,0,9.153661e-3,-11.46874,-179.2594)">
      <desc
         id="desc13291">Drawing</desc>
      <g
         id="g13293"
         style="fill:#fd0000;fill-opacity:1">
        <g
           id="g13295"
           style="fill:#fd0000;fill-opacity:1;stroke:none">
          <path
             id="path13297"
             d="M 4465,21006 L 4581,19953 L 4879,19985 L 4763,21038 L 4465,21006 z "
             style="fill:#fd0000;fill-opacity:1" />
        </g>
        <g
           id="g13299"
           style="fill:#fd0000;fill-opacity:1" />
      </g>
    </g>
    <g
       style="fill:#fd0000;fill-opacity:1;visibility:visible"
       id="g13301"
       transform="matrix(9.153661e-3,0,0,9.153661e-3,-11.46874,-179.2594)">
      <desc
         id="desc13303">Drawing</desc>
      <g
         id="g13305"
         style="fill:#fd0000;fill-opacity:1">
        <g
           id="g13307"
           style="fill:#fd0000;fill-opacity:1;stroke:none">
          <path
             id="path13309"
             d="M 4159,19969 L 4932,19777 L 4826,20450 L 4159,19969 z "
             style="fill:#fd0000;fill-opacity:1" />
        </g>
        <g
           id="g13311"
           style="fill:#fd0000;fill-opacity:1" />
      </g>
    </g>
  </g>
</svg>
