<?xml version="1.0" encoding="UTF-8" standalone="no"?>
<!-- Created with Inkscape (http://www.inkscape.org/) -->
<svg
   xmlns:dc="http://purl.org/dc/elements/1.1/"
   xmlns:cc="http://web.resource.org/cc/"
   xmlns:rdf="http://www.w3.org/1999/02/22-rdf-syntax-ns#"
   xmlns:svg="http://www.w3.org/2000/svg"
   xmlns="http://www.w3.org/2000/svg"
   xmlns:sodipodi="http://inkscape.sourceforge.net/DTD/sodipodi-0.dtd"
   xmlns:inkscape="http://www.inkscape.org/namespaces/inkscape"
   width="1cm"
   height="1cm"
   id="svg9908"
   sodipodi:version="0.32"
   inkscape:version="0.43"
   version="1.0"
   sodipodi:docbase="/world/proj/Kproj/symsolon/data"
   sodipodi:docname="planet-chiron.svg">
  <defs
     id="defs9910" />
  <sodipodi:namedview
     id="base"
     pagecolor="#000000"
     bordercolor="#666666"
     borderopacity="1.0"
     inkscape:pageopacity="1"
     inkscape:pageshadow="2"
     inkscape:zoom="11.373555"
     inkscape:cx="17.716536"
     inkscape:cy="17.513433"
     inkscape:document-units="px"
     inkscape:current-layer="layer1"
     inkscape:window-width="966"
     inkscape:window-height="589"
     inkscape:window-x="0"
     inkscape:window-y="68" />
  <metadata
     id="metadata9913">
    <rdf:RDF>
      <cc:Work
         rdf:about="">
        <dc:format>image/svg+xml</dc:format>
        <dc:type
           rdf:resource="http://purl.org/dc/dcmitype/StillImage" />
      </cc:Work>
    </rdf:RDF>
  </metadata>
  <g
     inkscape:label="1. réteg"
     inkscape:groupmode="layer"
     id="layer1">
    <g
       transform="matrix(9.950421e-3,0,0,9.950421e-3,-9.100348,-22.83002)"
       style="fill:#949494;fill-opacity:1;visibility:visible"
       id="g103">
      <desc
         id="desc105">Drawing</desc>
      <g
         id="g107"
         style="fill:#949494;fill-opacity:1">
        <g
           id="g109"
           style="fill:#949494;fill-opacity:1;stroke:none">
          <path
             id="path111"
             d="M 2272,2349 L 2272,5031 L 1972,5031 L 1972,2349 L 2272,2349 z "
             style="fill:#949494;fill-opacity:1" />
        </g>
        <g
           id="g113"
           style="fill:#949494;fill-opacity:1" />
      </g>
    </g>
    <g
       transform="matrix(9.950421e-3,0,0,9.950421e-3,-9.100348,-22.83002)"
       style="fill:#949494;fill-opacity:1;visibility:visible"
       id="g115">
      <desc
         id="desc117">Drawing</desc>
      <g
         id="g119"
         style="fill:#949494;fill-opacity:1">
        <g
           id="g121"
           style="fill:#949494;fill-opacity:1;stroke:none">
          <path
             id="path123"
             d="M 3747,2558 L 2220,3874 L 2024,3646 L 3551,2330 L 3747,2558 z "
             style="fill:#949494;fill-opacity:1" />
        </g>
        <g
           id="g125"
           style="fill:#949494;fill-opacity:1" />
      </g>
    </g>
    <g
       transform="matrix(9.950421e-3,0,0,9.950421e-3,-9.100348,-22.83002)"
       style="fill:#949494;fill-opacity:1;visibility:visible"
       id="g127">
      <desc
         id="desc129">Drawing</desc>
      <g
         id="g131"
         style="fill:#949494;fill-opacity:1">
        <g
           id="g133"
           style="fill:#949494;fill-opacity:1;stroke:none">
          <path
             id="path135"
             d="M 3640,5189 L 2027,3876 L 2217,3644 L 3830,4957 L 3640,5189 z "
             style="fill:#949494;fill-opacity:1" />
        </g>
        <g
           id="g137"
           style="fill:#949494;fill-opacity:1" />
      </g>
    </g>
    <g
       transform="matrix(9.950421e-3,0,0,9.950421e-3,-9.100348,-22.83002)"
       style="fill:#949494;fill-opacity:1;visibility:visible"
       id="g139">
      <desc
         id="desc141">Drawing</desc>
      <g
         id="g143"
         style="fill:#949494;fill-opacity:1">
        <g
           id="g145"
           style="fill:#949494;fill-opacity:1;stroke:none">
          <path
             id="path147"
             d="M 2103,5832 L 2065,5830 L 2072,5680 L 2080,5530 L 2119,5532 L 2111,5682 L 2103,5832 z "
             style="fill:#949494;fill-opacity:1" />
          <path
             id="path149"
             d="M 2072,5680 L 2065,5830 L 2049,5828 L 2072,5680 z "
             style="fill:#949494;fill-opacity:1" />
          <path
             id="path151"
             d="M 2049,5828 L 2012,5823 L 2034,5674 L 2057,5526 L 2095,5532 L 2072,5680 L 2049,5828 z "
             style="fill:#949494;fill-opacity:1" />
          <path
             id="path153"
             d="M 2034,5674 L 2012,5823 L 1997,5819 L 2034,5674 z "
             style="fill:#949494;fill-opacity:1" />
          <path
             id="path155"
             d="M 1997,5819 L 1960,5810 L 1998,5665 L 2035,5520 L 2072,5529 L 2034,5674 L 1997,5819 z "
             style="fill:#949494;fill-opacity:1" />
          <path
             id="path157"
             d="M 1998,5665 L 1960,5810 L 1946,5806 L 1998,5665 z "
             style="fill:#949494;fill-opacity:1" />
          <path
             id="path159"
             d="M 1946,5806 L 1911,5793 L 1963,5652 L 2015,5511 L 2050,5524 L 1998,5665 L 1946,5806 z "
             style="fill:#949494;fill-opacity:1" />
          <path
             id="path161"
             d="M 1963,5652 L 1911,5793 L 1898,5787 L 1963,5652 z "
             style="fill:#949494;fill-opacity:1" />
          <path
             id="path163"
             d="M 1898,5787 L 1864,5771 L 1930,5636 L 1995,5501 L 2028,5517 L 1963,5652 L 1898,5787 z "
             style="fill:#949494;fill-opacity:1" />
          <path
             id="path165"
             d="M 1930,5636 L 1864,5771 L 1852,5764 L 1930,5636 z "
             style="fill:#949494;fill-opacity:1" />
          <path
             id="path167"
             d="M 1852,5764 L 1820,5745 L 1898,5617 L 1976,5489 L 2008,5508 L 1930,5636 L 1852,5764 z "
             style="fill:#949494;fill-opacity:1" />
          <path
             id="path169"
             d="M 1898,5617 L 1820,5745 L 1808,5737 L 1898,5617 z "
             style="fill:#949494;fill-opacity:1" />
          <path
             id="path171"
             d="M 1808,5737 L 1779,5715 L 1869,5595 L 1959,5475 L 1988,5497 L 1898,5617 L 1808,5737 z "
             style="fill:#949494;fill-opacity:1" />
          <path
             id="path173"
             d="M 1869,5595 L 1779,5715 L 1768,5706 L 1869,5595 z "
             style="fill:#949494;fill-opacity:1" />
          <path
             id="path175"
             d="M 1768,5706 L 1741,5681 L 1842,5570 L 1943,5459 L 1970,5484 L 1869,5595 L 1768,5706 z "
             style="fill:#949494;fill-opacity:1" />
          <path
             id="path177"
             d="M 1842,5570 L 1741,5681 L 1731,5671 L 1842,5570 z "
             style="fill:#949494;fill-opacity:1" />
          <path
             id="path179"
             d="M 1731,5671 L 1706,5644 L 1817,5543 L 1928,5442 L 1953,5469 L 1842,5570 L 1731,5671 z "
             style="fill:#949494;fill-opacity:1" />
          <path
             id="path181"
             d="M 1817,5543 L 1706,5644 L 1697,5633 L 1817,5543 z "
             style="fill:#949494;fill-opacity:1" />
          <path
             id="path183"
             d="M 1697,5633 L 1675,5604 L 1795,5514 L 1915,5424 L 1937,5453 L 1817,5543 L 1697,5633 z "
             style="fill:#949494;fill-opacity:1" />
          <path
             id="path185"
             d="M 1795,5514 L 1675,5604 L 1667,5592 L 1795,5514 z "
             style="fill:#949494;fill-opacity:1" />
          <path
             id="path187"
             d="M 1667,5592 L 1648,5560 L 1776,5482 L 1904,5404 L 1923,5436 L 1795,5514 L 1667,5592 z "
             style="fill:#949494;fill-opacity:1" />
          <path
             id="path189"
             d="M 1776,5482 L 1648,5560 L 1641,5548 L 1776,5482 z "
             style="fill:#949494;fill-opacity:1" />
          <path
             id="path191"
             d="M 1641,5548 L 1625,5514 L 1760,5449 L 1895,5384 L 1911,5417 L 1776,5482 L 1641,5548 z "
             style="fill:#949494;fill-opacity:1" />
          <path
             id="path193"
             d="M 1760,5449 L 1625,5514 L 1619,5501 L 1760,5449 z "
             style="fill:#949494;fill-opacity:1" />
          <path
             id="path195"
             d="M 1619,5501 L 1606,5466 L 1747,5414 L 1888,5362 L 1901,5397 L 1760,5449 L 1619,5501 z "
             style="fill:#949494;fill-opacity:1" />
          <path
             id="path197"
             d="M 1747,5414 L 1606,5466 L 1602,5452 L 1747,5414 z "
             style="fill:#949494;fill-opacity:1" />
          <path
             id="path199"
             d="M 1602,5452 L 1593,5415 L 1738,5378 L 1883,5340 L 1892,5377 L 1747,5414 L 1602,5452 z "
             style="fill:#949494;fill-opacity:1" />
          <path
             id="path201"
             d="M 1738,5378 L 1593,5415 L 1589,5400 L 1738,5378 z "
             style="fill:#949494;fill-opacity:1" />
          <path
             id="path203"
             d="M 1589,5400 L 1584,5363 L 1732,5340 L 1880,5317 L 1886,5355 L 1738,5378 L 1589,5400 z "
             style="fill:#949494;fill-opacity:1" />
          <path
             id="path205"
             d="M 1732,5340 L 1584,5363 L 1582,5347 L 1732,5340 z "
             style="fill:#949494;fill-opacity:1" />
          <path
             id="path207"
             d="M 1582,5347 L 1580,5309 L 1730,5301 L 1880,5293 L 1882,5332 L 1732,5340 L 1582,5347 z "
             style="fill:#949494;fill-opacity:1" />
          <path
             id="path209"
             d="M 1730,5301 L 1580,5309 L 1580,5293 L 1730,5301 z "
             style="fill:#949494;fill-opacity:1" />
          <path
             id="path211"
             d="M 1580,5293 L 1582,5255 L 1732,5262 L 1882,5270 L 1880,5309 L 1730,5301 L 1580,5293 z "
             style="fill:#949494;fill-opacity:1" />
          <path
             id="path213"
             d="M 1732,5262 L 1582,5255 L 1584,5239 L 1732,5262 z "
             style="fill:#949494;fill-opacity:1" />
          <path
             id="path215"
             d="M 1584,5239 L 1589,5202 L 1738,5224 L 1886,5247 L 1880,5285 L 1732,5262 L 1584,5239 z "
             style="fill:#949494;fill-opacity:1" />
          <path
             id="path217"
             d="M 1738,5224 L 1589,5202 L 1593,5187 L 1738,5224 z "
             style="fill:#949494;fill-opacity:1" />
          <path
             id="path219"
             d="M 1593,5187 L 1602,5150 L 1747,5188 L 1892,5225 L 1883,5262 L 1738,5224 L 1593,5187 z "
             style="fill:#949494;fill-opacity:1" />
          <path
             id="path221"
             d="M 1747,5188 L 1602,5150 L 1606,5136 L 1747,5188 z "
             style="fill:#949494;fill-opacity:1" />
          <path
             id="path223"
             d="M 1606,5136 L 1619,5101 L 1760,5153 L 1901,5205 L 1888,5240 L 1747,5188 L 1606,5136 z "
             style="fill:#949494;fill-opacity:1" />
          <path
             id="path225"
             d="M 1760,5153 L 1619,5101 L 1625,5088 L 1760,5153 z "
             style="fill:#949494;fill-opacity:1" />
          <path
             id="path227"
             d="M 1625,5088 L 1641,5054 L 1776,5120 L 1911,5185 L 1895,5218 L 1760,5153 L 1625,5088 z "
             style="fill:#949494;fill-opacity:1" />
          <path
             id="path229"
             d="M 1776,5120 L 1641,5054 L 1648,5042 L 1776,5120 z "
             style="fill:#949494;fill-opacity:1" />
          <path
             id="path231"
             d="M 1648,5042 L 1667,5010 L 1795,5088 L 1923,5166 L 1904,5198 L 1776,5120 L 1648,5042 z "
             style="fill:#949494;fill-opacity:1" />
          <path
             id="path233"
             d="M 1795,5088 L 1667,5010 L 1675,4998 L 1795,5088 z "
             style="fill:#949494;fill-opacity:1" />
          <path
             id="path235"
             d="M 1675,4998 L 1697,4969 L 1817,5059 L 1937,5149 L 1915,5178 L 1795,5088 L 1675,4998 z "
             style="fill:#949494;fill-opacity:1" />
          <path
             id="path237"
             d="M 1817,5059 L 1697,4969 L 1706,4958 L 1817,5059 z "
             style="fill:#949494;fill-opacity:1" />
          <path
             id="path239"
             d="M 1706,4958 L 1731,4931 L 1842,5032 L 1953,5133 L 1928,5160 L 1817,5059 L 1706,4958 z "
             style="fill:#949494;fill-opacity:1" />
          <path
             id="path241"
             d="M 1842,5032 L 1731,4931 L 1741,4921 L 1842,5032 z "
             style="fill:#949494;fill-opacity:1" />
          <path
             id="path243"
             d="M 1741,4921 L 1768,4896 L 1869,5007 L 1970,5118 L 1943,5143 L 1842,5032 L 1741,4921 z "
             style="fill:#949494;fill-opacity:1" />
          <path
             id="path245"
             d="M 1869,5007 L 1768,4896 L 1779,4887 L 1869,5007 z "
             style="fill:#949494;fill-opacity:1" />
          <path
             id="path247"
             d="M 1779,4887 L 1808,4865 L 1898,4985 L 1988,5105 L 1959,5127 L 1869,5007 L 1779,4887 z "
             style="fill:#949494;fill-opacity:1" />
          <path
             id="path249"
             d="M 1898,4985 L 1808,4865 L 1820,4857 L 1898,4985 z "
             style="fill:#949494;fill-opacity:1" />
          <path
             id="path251"
             d="M 1820,4857 L 1852,4838 L 1930,4966 L 2008,5094 L 1976,5113 L 1898,4985 L 1820,4857 z "
             style="fill:#949494;fill-opacity:1" />
          <path
             id="path253"
             d="M 1930,4966 L 1852,4838 L 1864,4831 L 1930,4966 z "
             style="fill:#949494;fill-opacity:1" />
          <path
             id="path255"
             d="M 1864,4831 L 1898,4815 L 1963,4950 L 2028,5085 L 1995,5101 L 1930,4966 L 1864,4831 z "
             style="fill:#949494;fill-opacity:1" />
          <path
             id="path257"
             d="M 1963,4950 L 1898,4815 L 1911,4809 L 1963,4950 z "
             style="fill:#949494;fill-opacity:1" />
          <path
             id="path259"
             d="M 1911,4809 L 1946,4796 L 1998,4937 L 2050,5078 L 2015,5091 L 1963,4950 L 1911,4809 z "
             style="fill:#949494;fill-opacity:1" />
          <path
             id="path261"
             d="M 1998,4937 L 1946,4796 L 1960,4792 L 1998,4937 z "
             style="fill:#949494;fill-opacity:1" />
          <path
             id="path263"
             d="M 1960,4792 L 1997,4783 L 2034,4928 L 2072,5073 L 2035,5082 L 1998,4937 L 1960,4792 z "
             style="fill:#949494;fill-opacity:1" />
          <path
             id="path265"
             d="M 2034,4928 L 1997,4783 L 2012,4779 L 2034,4928 z "
             style="fill:#949494;fill-opacity:1" />
          <path
             id="path267"
             d="M 2012,4779 L 2049,4774 L 2072,4922 L 2095,5070 L 2057,5076 L 2034,4928 L 2012,4779 z "
             style="fill:#949494;fill-opacity:1" />
          <path
             id="path269"
             d="M 2072,4922 L 2049,4774 L 2065,4772 L 2072,4922 z "
             style="fill:#949494;fill-opacity:1" />
          <path
             id="path271"
             d="M 2065,4772 L 2103,4770 L 2111,4920 L 2119,5070 L 2080,5072 L 2072,4922 L 2065,4772 z "
             style="fill:#949494;fill-opacity:1" />
          <path
             id="path273"
             d="M 2111,4920 L 2103,4770 L 2119,4770 L 2111,4920 z "
             style="fill:#949494;fill-opacity:1" />
          <path
             id="path275"
             d="M 2119,4770 L 2157,4772 L 2150,4922 L 2142,5072 L 2103,5070 L 2111,4920 L 2119,4770 z "
             style="fill:#949494;fill-opacity:1" />
          <path
             id="path277"
             d="M 2150,4922 L 2157,4772 L 2173,4774 L 2150,4922 z "
             style="fill:#949494;fill-opacity:1" />
          <path
             id="path279"
             d="M 2173,4774 L 2210,4779 L 2188,4928 L 2165,5076 L 2127,5070 L 2150,4922 L 2173,4774 z "
             style="fill:#949494;fill-opacity:1" />
          <path
             id="path281"
             d="M 2188,4928 L 2210,4779 L 2225,4783 L 2188,4928 z "
             style="fill:#949494;fill-opacity:1" />
          <path
             id="path283"
             d="M 2225,4783 L 2262,4792 L 2224,4937 L 2187,5082 L 2150,5073 L 2188,4928 L 2225,4783 z "
             style="fill:#949494;fill-opacity:1" />
          <path
             id="path285"
             d="M 2224,4937 L 2262,4792 L 2276,4796 L 2224,4937 z "
             style="fill:#949494;fill-opacity:1" />
          <path
             id="path287"
             d="M 2276,4796 L 2311,4809 L 2259,4950 L 2207,5091 L 2172,5078 L 2224,4937 L 2276,4796 z "
             style="fill:#949494;fill-opacity:1" />
          <path
             id="path289"
             d="M 2259,4950 L 2311,4809 L 2324,4815 L 2259,4950 z "
             style="fill:#949494;fill-opacity:1" />
          <path
             id="path291"
             d="M 2324,4815 L 2358,4831 L 2292,4966 L 2227,5101 L 2194,5085 L 2259,4950 L 2324,4815 z "
             style="fill:#949494;fill-opacity:1" />
          <path
             id="path293"
             d="M 2292,4966 L 2358,4831 L 2370,4838 L 2292,4966 z "
             style="fill:#949494;fill-opacity:1" />
          <path
             id="path295"
             d="M 2370,4838 L 2402,4857 L 2324,4985 L 2246,5113 L 2214,5094 L 2292,4966 L 2370,4838 z "
             style="fill:#949494;fill-opacity:1" />
          <path
             id="path297"
             d="M 2324,4985 L 2402,4857 L 2414,4865 L 2324,4985 z "
             style="fill:#949494;fill-opacity:1" />
          <path
             id="path299"
             d="M 2414,4865 L 2443,4887 L 2353,5007 L 2263,5127 L 2234,5105 L 2324,4985 L 2414,4865 z "
             style="fill:#949494;fill-opacity:1" />
          <path
             id="path301"
             d="M 2353,5007 L 2443,4887 L 2454,4896 L 2353,5007 z "
             style="fill:#949494;fill-opacity:1" />
          <path
             id="path303"
             d="M 2454,4896 L 2481,4921 L 2380,5032 L 2279,5143 L 2252,5118 L 2353,5007 L 2454,4896 z "
             style="fill:#949494;fill-opacity:1" />
          <path
             id="path305"
             d="M 2380,5032 L 2481,4921 L 2491,4931 L 2380,5032 z "
             style="fill:#949494;fill-opacity:1" />
          <path
             id="path307"
             d="M 2491,4931 L 2516,4958 L 2405,5059 L 2294,5160 L 2269,5133 L 2380,5032 L 2491,4931 z "
             style="fill:#949494;fill-opacity:1" />
          <path
             id="path309"
             d="M 2405,5059 L 2516,4958 L 2525,4969 L 2405,5059 z "
             style="fill:#949494;fill-opacity:1" />
          <path
             id="path311"
             d="M 2525,4969 L 2547,4998 L 2427,5088 L 2307,5178 L 2285,5149 L 2405,5059 L 2525,4969 z "
             style="fill:#949494;fill-opacity:1" />
          <path
             id="path313"
             d="M 2427,5088 L 2547,4998 L 2555,5010 L 2427,5088 z "
             style="fill:#949494;fill-opacity:1" />
          <path
             id="path315"
             d="M 2555,5010 L 2574,5042 L 2446,5120 L 2318,5198 L 2299,5166 L 2427,5088 L 2555,5010 z "
             style="fill:#949494;fill-opacity:1" />
          <path
             id="path317"
             d="M 2446,5120 L 2574,5042 L 2581,5054 L 2446,5120 z "
             style="fill:#949494;fill-opacity:1" />
          <path
             id="path319"
             d="M 2581,5054 L 2597,5088 L 2462,5153 L 2327,5218 L 2311,5185 L 2446,5120 L 2581,5054 z "
             style="fill:#949494;fill-opacity:1" />
          <path
             id="path321"
             d="M 2462,5153 L 2597,5088 L 2603,5101 L 2462,5153 z "
             style="fill:#949494;fill-opacity:1" />
          <path
             id="path323"
             d="M 2603,5101 L 2616,5136 L 2475,5188 L 2334,5240 L 2321,5205 L 2462,5153 L 2603,5101 z "
             style="fill:#949494;fill-opacity:1" />
          <path
             id="path325"
             d="M 2475,5188 L 2616,5136 L 2620,5150 L 2475,5188 z "
             style="fill:#949494;fill-opacity:1" />
          <path
             id="path327"
             d="M 2620,5150 L 2629,5187 L 2484,5224 L 2339,5262 L 2330,5225 L 2475,5188 L 2620,5150 z "
             style="fill:#949494;fill-opacity:1" />
          <path
             id="path329"
             d="M 2484,5224 L 2629,5187 L 2633,5202 L 2484,5224 z "
             style="fill:#949494;fill-opacity:1" />
          <path
             id="path331"
             d="M 2633,5202 L 2638,5239 L 2490,5262 L 2342,5285 L 2336,5247 L 2484,5224 L 2633,5202 z "
             style="fill:#949494;fill-opacity:1" />
          <path
             id="path333"
             d="M 2490,5262 L 2638,5239 L 2640,5255 L 2490,5262 z "
             style="fill:#949494;fill-opacity:1" />
          <path
             id="path335"
             d="M 2640,5255 L 2642,5293 L 2492,5301 L 2342,5309 L 2340,5270 L 2490,5262 L 2640,5255 z "
             style="fill:#949494;fill-opacity:1" />
          <path
             id="path337"
             d="M 2492,5301 L 2642,5293 L 2642,5309 L 2492,5301 z "
             style="fill:#949494;fill-opacity:1" />
          <path
             id="path339"
             d="M 2642,5309 L 2640,5347 L 2490,5340 L 2340,5332 L 2342,5293 L 2492,5301 L 2642,5309 z "
             style="fill:#949494;fill-opacity:1" />
          <path
             id="path341"
             d="M 2490,5340 L 2640,5347 L 2638,5363 L 2490,5340 z "
             style="fill:#949494;fill-opacity:1" />
          <path
             id="path343"
             d="M 2638,5363 L 2633,5400 L 2484,5378 L 2336,5355 L 2342,5317 L 2490,5340 L 2638,5363 z "
             style="fill:#949494;fill-opacity:1" />
          <path
             id="path345"
             d="M 2484,5378 L 2633,5400 L 2629,5415 L 2484,5378 z "
             style="fill:#949494;fill-opacity:1" />
          <path
             id="path347"
             d="M 2629,5415 L 2620,5452 L 2475,5414 L 2330,5377 L 2339,5340 L 2484,5378 L 2629,5415 z "
             style="fill:#949494;fill-opacity:1" />
          <path
             id="path349"
             d="M 2475,5414 L 2620,5452 L 2616,5466 L 2475,5414 z "
             style="fill:#949494;fill-opacity:1" />
          <path
             id="path351"
             d="M 2616,5466 L 2603,5501 L 2462,5449 L 2321,5397 L 2334,5362 L 2475,5414 L 2616,5466 z "
             style="fill:#949494;fill-opacity:1" />
          <path
             id="path353"
             d="M 2462,5449 L 2603,5501 L 2597,5514 L 2462,5449 z "
             style="fill:#949494;fill-opacity:1" />
          <path
             id="path355"
             d="M 2597,5514 L 2581,5548 L 2446,5482 L 2311,5417 L 2327,5384 L 2462,5449 L 2597,5514 z "
             style="fill:#949494;fill-opacity:1" />
          <path
             id="path357"
             d="M 2446,5482 L 2581,5548 L 2574,5560 L 2446,5482 z "
             style="fill:#949494;fill-opacity:1" />
          <path
             id="path359"
             d="M 2574,5560 L 2555,5592 L 2427,5514 L 2299,5436 L 2318,5404 L 2446,5482 L 2574,5560 z "
             style="fill:#949494;fill-opacity:1" />
          <path
             id="path361"
             d="M 2427,5514 L 2555,5592 L 2547,5604 L 2427,5514 z "
             style="fill:#949494;fill-opacity:1" />
          <path
             id="path363"
             d="M 2547,5604 L 2525,5633 L 2405,5543 L 2285,5453 L 2307,5424 L 2427,5514 L 2547,5604 z "
             style="fill:#949494;fill-opacity:1" />
          <path
             id="path365"
             d="M 2405,5543 L 2525,5633 L 2516,5644 L 2405,5543 z "
             style="fill:#949494;fill-opacity:1" />
          <path
             id="path367"
             d="M 2516,5644 L 2491,5671 L 2380,5570 L 2269,5469 L 2294,5442 L 2405,5543 L 2516,5644 z "
             style="fill:#949494;fill-opacity:1" />
          <path
             id="path369"
             d="M 2380,5570 L 2491,5671 L 2481,5681 L 2380,5570 z "
             style="fill:#949494;fill-opacity:1" />
          <path
             id="path371"
             d="M 2481,5681 L 2454,5706 L 2353,5595 L 2252,5484 L 2279,5459 L 2380,5570 L 2481,5681 z "
             style="fill:#949494;fill-opacity:1" />
          <path
             id="path373"
             d="M 2353,5595 L 2454,5706 L 2443,5715 L 2353,5595 z "
             style="fill:#949494;fill-opacity:1" />
          <path
             id="path375"
             d="M 2443,5715 L 2414,5737 L 2324,5617 L 2234,5497 L 2263,5475 L 2353,5595 L 2443,5715 z "
             style="fill:#949494;fill-opacity:1" />
          <path
             id="path377"
             d="M 2324,5617 L 2414,5737 L 2402,5745 L 2324,5617 z "
             style="fill:#949494;fill-opacity:1" />
          <path
             id="path379"
             d="M 2402,5745 L 2370,5764 L 2292,5636 L 2214,5508 L 2246,5489 L 2324,5617 L 2402,5745 z "
             style="fill:#949494;fill-opacity:1" />
          <path
             id="path381"
             d="M 2292,5636 L 2370,5764 L 2358,5771 L 2292,5636 z "
             style="fill:#949494;fill-opacity:1" />
          <path
             id="path383"
             d="M 2358,5771 L 2324,5787 L 2259,5652 L 2194,5517 L 2227,5501 L 2292,5636 L 2358,5771 z "
             style="fill:#949494;fill-opacity:1" />
          <path
             id="path385"
             d="M 2259,5652 L 2324,5787 L 2311,5793 L 2259,5652 z "
             style="fill:#949494;fill-opacity:1" />
          <path
             id="path387"
             d="M 2311,5793 L 2276,5806 L 2224,5665 L 2172,5524 L 2207,5511 L 2259,5652 L 2311,5793 z "
             style="fill:#949494;fill-opacity:1" />
          <path
             id="path389"
             d="M 2224,5665 L 2276,5806 L 2262,5810 L 2224,5665 z "
             style="fill:#949494;fill-opacity:1" />
          <path
             id="path391"
             d="M 2262,5810 L 2225,5819 L 2188,5674 L 2150,5529 L 2187,5520 L 2224,5665 L 2262,5810 z "
             style="fill:#949494;fill-opacity:1" />
          <path
             id="path393"
             d="M 2188,5674 L 2225,5819 L 2210,5823 L 2188,5674 z "
             style="fill:#949494;fill-opacity:1" />
          <path
             id="path395"
             d="M 2210,5823 L 2173,5828 L 2150,5680 L 2127,5532 L 2165,5526 L 2188,5674 L 2210,5823 z "
             style="fill:#949494;fill-opacity:1" />
          <path
             id="path397"
             d="M 2150,5680 L 2173,5828 L 2157,5830 L 2150,5680 z "
             style="fill:#949494;fill-opacity:1" />
          <path
             id="path399"
             d="M 2157,5830 L 2119,5832 L 2111,5682 L 2103,5532 L 2142,5530 L 2150,5680 L 2157,5830 z "
             style="fill:#949494;fill-opacity:1" />
          <path
             id="path401"
             d="M 2111,5682 L 2119,5832 L 2103,5832 L 2111,5682 z "
             style="fill:#949494;fill-opacity:1" />
        </g>
        <g
           id="g403"
           style="fill:#949494;fill-opacity:1" />
      </g>
    </g>
  </g>
</svg>
