<?xml version="1.0" encoding="UTF-8" standalone="no"?>
<!-- Created with Inkscape (http://www.inkscape.org/) -->
<svg
   xmlns:dc="http://purl.org/dc/elements/1.1/"
   xmlns:cc="http://web.resource.org/cc/"
   xmlns:rdf="http://www.w3.org/1999/02/22-rdf-syntax-ns#"
   xmlns:svg="http://www.w3.org/2000/svg"
   xmlns="http://www.w3.org/2000/svg"
   xmlns:sodipodi="http://sodipodi.sourceforge.net/DTD/sodipodi-0.dtd"
   xmlns:inkscape="http://www.inkscape.org/namespaces/inkscape"
   width="1cm"
   height="1cm"
   id="svg9908"
   sodipodi:version="0.32"
   inkscape:version="0.45"
   version="1.0"
   sodipodi:docbase="/world/proj/Kproj/symsolon/share/symsolon/planets"
   sodipodi:docname="planet-neptune.svg"
   inkscape:output_extension="org.inkscape.output.svg.inkscape"
   sodipodi:modified="true">
  <defs
     id="defs9910" />
  <sodipodi:namedview
     id="base"
     pagecolor="#000000"
     bordercolor="#666666"
     borderopacity="1.0"
     inkscape:pageopacity="1"
     inkscape:pageshadow="2"
     inkscape:zoom="3.2599421"
     inkscape:cx="-2.2860119"
     inkscape:cy="35.6926"
     inkscape:document-units="px"
     inkscape:current-layer="layer1"
     inkscape:window-width="966"
     inkscape:window-height="626"
     inkscape:window-x="5"
     inkscape:window-y="49" />
  <metadata
     id="metadata9913">
    <rdf:RDF>
      <cc:Work
         rdf:about="">
        <dc:format>image/svg+xml</dc:format>
        <dc:type
           rdf:resource="http://purl.org/dc/dcmitype/StillImage" />
      </cc:Work>
    </rdf:RDF>
  </metadata>
  <g
     inkscape:label="1. réteg"
     inkscape:groupmode="layer"
     id="layer1">
    <g
       style="fill:#5a83a7;fill-opacity:1;visibility:visible"
       id="g14023"
       transform="matrix(9.637453e-3,0,0,9.637453e-3,-157.837,-191.579)">
      <desc
         id="desc14025">Drawing</desc>
      <g
         id="g14027"
         style="fill:#5a83a7;fill-opacity:1">
        <g
           id="g14029"
           style="fill:#5a83a7;fill-opacity:1;stroke:none">
          <path
             id="path14031"
             d="M 16880,20014 L 16889,20146 L 16739,20156 L 16590,20167 L 16580,20036 L 16730,20025 L 16880,20014 z "
             style="fill:#5a83a7;fill-opacity:1" />
          <path
             id="path14033"
             d="M 16739,20156 L 16592,20186 L 16590,20167 L 16739,20156 z "
             style="fill:#5a83a7;fill-opacity:1" />
          <path
             id="path14035"
             d="M 16886,20126 L 16913,20258 L 16766,20288 L 16619,20318 L 16592,20186 L 16739,20156 L 16886,20126 z "
             style="fill:#5a83a7;fill-opacity:1" />
          <path
             id="path14037"
             d="M 16766,20288 L 16624,20335 L 16619,20318 L 16766,20288 z "
             style="fill:#5a83a7;fill-opacity:1" />
          <path
             id="path14039"
             d="M 16909,20241 L 16952,20372 L 16809,20419 L 16667,20466 L 16624,20335 L 16766,20288 L 16909,20241 z "
             style="fill:#5a83a7;fill-opacity:1" />
          <path
             id="path14041"
             d="M 16809,20419 L 16672,20480 L 16667,20466 L 16809,20419 z "
             style="fill:#5a83a7;fill-opacity:1" />
          <path
             id="path14043"
             d="M 16946,20357 L 17004,20486 L 16867,20548 L 16730,20609 L 16672,20480 L 16809,20419 L 16946,20357 z "
             style="fill:#5a83a7;fill-opacity:1" />
          <path
             id="path14045"
             d="M 16867,20548 L 16737,20622 L 16730,20609 L 16867,20548 z "
             style="fill:#5a83a7;fill-opacity:1" />
          <path
             id="path14047"
             d="M 16997,20473 L 17069,20599 L 16939,20673 L 16809,20747 L 16737,20622 L 16867,20548 L 16997,20473 z "
             style="fill:#5a83a7;fill-opacity:1" />
          <path
             id="path14049"
             d="M 16939,20673 L 16816,20759 L 16809,20747 L 16939,20673 z "
             style="fill:#5a83a7;fill-opacity:1" />
          <path
             id="path14051"
             d="M 17062,20588 L 17146,20708 L 17023,20794 L 16899,20879 L 16816,20759 L 16939,20673 L 17062,20588 z "
             style="fill:#5a83a7;fill-opacity:1" />
          <path
             id="path14053"
             d="M 17023,20794 L 16907,20889 L 16899,20879 L 17023,20794 z "
             style="fill:#5a83a7;fill-opacity:1" />
          <path
             id="path14055"
             d="M 17138,20699 L 17233,20814 L 17117,20909 L 17002,21004 L 16907,20889 L 17023,20794 L 17138,20699 z "
             style="fill:#5a83a7;fill-opacity:1" />
          <path
             id="path14057"
             d="M 17117,20909 L 17009,21013 L 17002,21004 L 17117,20909 z "
             style="fill:#5a83a7;fill-opacity:1" />
          <path
             id="path14059"
             d="M 17225,20805 L 17330,20913 L 17222,21017 L 17114,21121 L 17009,21013 L 17117,20909 L 17225,20805 z "
             style="fill:#5a83a7;fill-opacity:1" />
          <path
             id="path14061"
             d="M 17222,21017 L 17122,21129 L 17114,21121 L 17222,21017 z "
             style="fill:#5a83a7;fill-opacity:1" />
          <path
             id="path14063"
             d="M 17321,20905 L 17434,21004 L 17334,21117 L 17235,21229 L 17122,21129 L 17222,21017 L 17321,20905 z "
             style="fill:#5a83a7;fill-opacity:1" />
          <path
             id="path14065"
             d="M 17334,21117 L 17244,21236 L 17235,21229 L 17334,21117 z "
             style="fill:#5a83a7;fill-opacity:1" />
          <path
             id="path14067"
             d="M 17424,20997 L 17544,21087 L 17453,21207 L 17363,21326 L 17244,21236 L 17334,21117 L 17424,20997 z "
             style="fill:#5a83a7;fill-opacity:1" />
          <path
             id="path14069"
             d="M 17453,21207 L 17373,21333 L 17363,21326 L 17453,21207 z "
             style="fill:#5a83a7;fill-opacity:1" />
          <path
             id="path14071"
             d="M 17534,21080 L 17659,21159 L 17578,21286 L 17498,21413 L 17373,21333 L 17453,21207 L 17534,21080 z "
             style="fill:#5a83a7;fill-opacity:1" />
          <path
             id="path14073"
             d="M 17578,21286 L 17509,21419 L 17498,21413 L 17578,21286 z "
             style="fill:#5a83a7;fill-opacity:1" />
          <path
             id="path14075"
             d="M 17648,21153 L 17777,21220 L 17707,21353 L 17638,21486 L 17509,21419 L 17578,21286 L 17648,21153 z "
             style="fill:#5a83a7;fill-opacity:1" />
          <path
             id="path14077"
             d="M 17707,21353 L 17651,21492 L 17638,21486 L 17707,21353 z "
             style="fill:#5a83a7;fill-opacity:1" />
          <path
             id="path14079"
             d="M 17764,21214 L 17896,21268 L 17839,21407 L 17783,21546 L 17651,21492 L 17707,21353 L 17764,21214 z "
             style="fill:#5a83a7;fill-opacity:1" />
          <path
             id="path14081"
             d="M 17839,21407 L 17797,21551 L 17783,21546 L 17839,21407 z "
             style="fill:#5a83a7;fill-opacity:1" />
          <path
             id="path14083"
             d="M 17882,21263 L 18015,21303 L 17973,21447 L 17930,21590 L 17797,21551 L 17839,21407 L 17882,21263 z "
             style="fill:#5a83a7;fill-opacity:1" />
          <path
             id="path14085"
             d="M 17973,21447 L 17947,21594 L 17930,21590 L 17973,21447 z "
             style="fill:#5a83a7;fill-opacity:1" />
          <path
             id="path14087"
             d="M 17999,21299 L 18133,21323 L 18107,21470 L 18080,21618 L 17947,21594 L 17973,21447 L 17999,21299 z "
             style="fill:#5a83a7;fill-opacity:1" />
          <path
             id="path14089"
             d="M 18107,21470 L 18099,21620 L 18080,21618 L 18107,21470 z "
             style="fill:#5a83a7;fill-opacity:1" />
          <path
             id="path14091"
             d="M 18114,21321 L 18247,21327 L 18239,21477 L 18231,21627 L 18099,21620 L 18107,21470 L 18114,21321 z "
             style="fill:#5a83a7;fill-opacity:1" />
          <path
             id="path14093"
             d="M 18239,21477 L 18250,21627 L 18231,21627 L 18239,21477 z "
             style="fill:#5a83a7;fill-opacity:1" />
          <path
             id="path14095"
             d="M 18228,21327 L 18360,21317 L 18372,21467 L 18383,21616 L 18250,21627 L 18239,21477 L 18228,21327 z "
             style="fill:#5a83a7;fill-opacity:1" />
          <path
             id="path14097"
             d="M 18372,21467 L 18399,21614 L 18383,21616 L 18372,21467 z "
             style="fill:#5a83a7;fill-opacity:1" />
          <path
             id="path14099"
             d="M 18344,21319 L 18478,21294 L 18506,21442 L 18533,21589 L 18399,21614 L 18372,21467 L 18344,21319 z "
             style="fill:#5a83a7;fill-opacity:1" />
          <path
             id="path14101"
             d="M 18506,21442 L 18548,21586 L 18533,21589 L 18506,21442 z "
             style="fill:#5a83a7;fill-opacity:1" />
          <path
             id="path14103"
             d="M 18464,21298 L 18597,21259 L 18639,21403 L 18682,21547 L 18548,21586 L 18506,21442 L 18464,21298 z "
             style="fill:#5a83a7;fill-opacity:1" />
          <path
             id="path14105"
             d="M 18639,21403 L 18695,21542 L 18682,21547 L 18639,21403 z "
             style="fill:#5a83a7;fill-opacity:1" />
          <path
             id="path14107"
             d="M 18584,21263 L 18716,21211 L 18772,21350 L 18827,21489 L 18695,21542 L 18639,21403 L 18584,21263 z "
             style="fill:#5a83a7;fill-opacity:1" />
          <path
             id="path14109"
             d="M 18772,21350 L 18839,21484 L 18827,21489 L 18772,21350 z "
             style="fill:#5a83a7;fill-opacity:1" />
          <path
             id="path14111"
             d="M 18704,21216 L 18833,21151 L 18901,21285 L 18968,21419 L 18839,21484 L 18772,21350 L 18704,21216 z "
             style="fill:#5a83a7;fill-opacity:1" />
          <path
             id="path14113"
             d="M 18901,21285 L 18979,21413 L 18968,21419 L 18901,21285 z "
             style="fill:#5a83a7;fill-opacity:1" />
          <path
             id="path14115"
             d="M 18822,21157 L 18947,21080 L 19026,21208 L 19104,21336 L 18979,21413 L 18901,21285 L 18822,21157 z "
             style="fill:#5a83a7;fill-opacity:1" />
          <path
             id="path14117"
             d="M 19026,21208 L 19115,21329 L 19104,21336 L 19026,21208 z "
             style="fill:#5a83a7;fill-opacity:1" />
          <path
             id="path14119"
             d="M 18937,21087 L 19056,21000 L 19145,21120 L 19234,21241 L 19115,21329 L 19026,21208 L 18937,21087 z "
             style="fill:#5a83a7;fill-opacity:1" />
          <path
             id="path14121"
             d="M 19145,21120 L 19244,21234 L 19234,21241 L 19145,21120 z "
             style="fill:#5a83a7;fill-opacity:1" />
          <path
             id="path14123"
             d="M 19047,21007 L 19159,20909 L 19258,21023 L 19356,21136 L 19244,21234 L 19145,21120 L 19047,21007 z "
             style="fill:#5a83a7;fill-opacity:1" />
          <path
             id="path14125"
             d="M 19258,21023 L 19365,21127 L 19356,21136 L 19258,21023 z "
             style="fill:#5a83a7;fill-opacity:1" />
          <path
             id="path14127"
             d="M 19150,20918 L 19254,20811 L 19362,20915 L 19469,21020 L 19365,21127 L 19258,21023 L 19150,20918 z "
             style="fill:#5a83a7;fill-opacity:1" />
          <path
             id="path14129"
             d="M 19362,20915 L 19478,21010 L 19469,21020 L 19362,20915 z "
             style="fill:#5a83a7;fill-opacity:1" />
          <path
             id="path14131"
             d="M 19246,20820 L 19340,20704 L 19457,20799 L 19573,20894 L 19478,21010 L 19362,20915 L 19246,20820 z "
             style="fill:#5a83a7;fill-opacity:1" />
          <path
             id="path14133"
             d="M 19457,20799 L 19581,20883 L 19573,20894 L 19457,20799 z "
             style="fill:#5a83a7;fill-opacity:1" />
          <path
             id="path14135"
             d="M 19332,20715 L 19416,20591 L 19540,20676 L 19665,20760 L 19581,20883 L 19457,20799 L 19332,20715 z "
             style="fill:#5a83a7;fill-opacity:1" />
          <path
             id="path14137"
             d="M 19540,20676 L 19672,20748 L 19665,20760 L 19540,20676 z "
             style="fill:#5a83a7;fill-opacity:1" />
          <path
             id="path14139"
             d="M 19409,20604 L 19480,20473 L 19612,20545 L 19743,20617 L 19672,20748 L 19540,20676 L 19409,20604 z "
             style="fill:#5a83a7;fill-opacity:1" />
          <path
             id="path14141"
             d="M 19612,20545 L 19750,20603 L 19743,20617 L 19612,20545 z "
             style="fill:#5a83a7;fill-opacity:1" />
          <path
             id="path14143"
             d="M 19474,20486 L 19532,20350 L 19670,20408 L 19808,20467 L 19750,20603 L 19612,20545 L 19474,20486 z "
             style="fill:#5a83a7;fill-opacity:1" />
          <path
             id="path14145"
             d="M 19670,20408 L 19813,20451 L 19808,20467 L 19670,20408 z "
             style="fill:#5a83a7;fill-opacity:1" />
          <path
             id="path14147"
             d="M 19526,20365 L 19569,20222 L 19713,20266 L 19857,20309 L 19813,20451 L 19670,20408 L 19526,20365 z "
             style="fill:#5a83a7;fill-opacity:1" />
          <path
             id="path14149"
             d="M 19713,20266 L 19861,20293 L 19857,20309 L 19713,20266 z "
             style="fill:#5a83a7;fill-opacity:1" />
          <path
             id="path14151"
             d="M 19565,20239 L 19592,20092 L 19740,20119 L 19887,20146 L 19861,20293 L 19713,20266 L 19565,20239 z "
             style="fill:#5a83a7;fill-opacity:1" />
          <path
             id="path14153"
             d="M 19740,20119 L 19889,20128 L 19887,20146 L 19740,20119 z "
             style="fill:#5a83a7;fill-opacity:1" />
          <path
             id="path14155"
             d="M 19590,20110 L 19599,19959 L 19749,19968 L 19899,19977 L 19889,20128 L 19740,20119 L 19590,20110 z "
             style="fill:#5a83a7;fill-opacity:1" />
        </g>
        <g
           id="g14157"
           style="fill:#5a83a7;fill-opacity:1" />
      </g>
    </g>
    <g
       style="fill:#5a83a7;fill-opacity:1;visibility:visible"
       id="g14159"
       transform="matrix(9.637453e-3,0,0,9.637453e-3,-157.837,-191.579)">
      <desc
         id="desc14161">Drawing</desc>
      <g
         id="g14163"
         style="fill:#5a83a7;fill-opacity:1">
        <g
           id="g14165"
           style="fill:#5a83a7;fill-opacity:1;stroke:none">
          <path
             id="path14167"
             d="M 18116,23491 L 18116,19995 L 18416,19995 L 18416,23491 L 18116,23491 z "
             style="fill:#5a83a7;fill-opacity:1" />
        </g>
        <g
           id="g14169"
           style="fill:#5a83a7;fill-opacity:1" />
      </g>
    </g>
    <g
       style="fill:#5a83a7;fill-opacity:1;visibility:visible"
       id="g14171"
       transform="matrix(9.637453e-3,0,0,9.637453e-3,-157.837,-191.579)">
      <desc
         id="desc14173">Drawing</desc>
      <g
         id="g14175"
         style="fill:#5a83a7;fill-opacity:1">
        <g
           id="g14177"
           style="fill:#5a83a7;fill-opacity:1;stroke:none">
          <path
             id="path14179"
             d="M 17418,22440 L 19113,22440 L 19113,22740 L 17418,22740 L 17418,22440 z "
             style="fill:#5a83a7;fill-opacity:1" />
        </g>
        <g
           id="g14181"
           style="fill:#5a83a7;fill-opacity:1" />
      </g>
    </g>
  </g>
</svg>
