<?xml version="1.0" encoding="UTF-8" standalone="no"?>
<!-- Created with Inkscape (http://www.inkscape.org/) -->
<svg
   xmlns:dc="http://purl.org/dc/elements/1.1/"
   xmlns:cc="http://web.resource.org/cc/"
   xmlns:rdf="http://www.w3.org/1999/02/22-rdf-syntax-ns#"
   xmlns:svg="http://www.w3.org/2000/svg"
   xmlns="http://www.w3.org/2000/svg"
   xmlns:sodipodi="http://inkscape.sourceforge.net/DTD/sodipodi-0.dtd"
   xmlns:inkscape="http://www.inkscape.org/namespaces/inkscape"
   width="1cm"
   height="1cm"
   id="svg9908"
   sodipodi:version="0.32"
   inkscape:version="0.43"
   version="1.0"
   sodipodi:docbase="/world/proj/Kproj/symsolon/data"
   sodipodi:docname="planet-vesta.svg">
  <defs
     id="defs9910" />
  <sodipodi:namedview
     id="base"
     pagecolor="#000000"
     bordercolor="#666666"
     borderopacity="1.0"
     inkscape:pageopacity="1"
     inkscape:pageshadow="2"
     inkscape:zoom="11.373555"
     inkscape:cx="17.716536"
     inkscape:cy="17.716536"
     inkscape:document-units="px"
     inkscape:current-layer="layer1"
     inkscape:window-width="966"
     inkscape:window-height="589"
     inkscape:window-x="0"
     inkscape:window-y="68" />
  <metadata
     id="metadata9913">
    <rdf:RDF>
      <cc:Work
         rdf:about="">
        <dc:format>image/svg+xml</dc:format>
        <dc:type
           rdf:resource="http://purl.org/dc/dcmitype/StillImage" />
      </cc:Work>
    </rdf:RDF>
  </metadata>
  <g
     inkscape:label="1. réteg"
     inkscape:groupmode="layer"
     id="layer1">
    <g
       transform="matrix(1.022766e-2,0,0,1.022766e-2,-20.18365,-78.68005)"
       style="fill:#949494;fill-opacity:1;visibility:visible"
       id="g819">
      <desc
         id="desc821">Drawing</desc>
      <g
         id="g823"
         style="fill:#949494;fill-opacity:1">
        <g
           id="g825"
           style="fill:#949494;fill-opacity:1;stroke:none">
          <path
             id="path827"
             d="M 3880,7777 L 3880,8729 L 3580,8729 L 3580,7777 L 3880,7777 z "
             style="fill:#949494;fill-opacity:1" />
        </g>
        <g
           id="g829"
           style="fill:#949494;fill-opacity:1" />
      </g>
    </g>
    <g
       transform="matrix(1.022766e-2,0,0,1.022766e-2,-20.18365,-78.68005)"
       style="fill:#949494;fill-opacity:1;visibility:visible"
       id="g831">
      <desc
         id="desc833">Drawing</desc>
      <g
         id="g835"
         style="fill:#949494;fill-opacity:1">
        <g
           id="g837"
           style="fill:#949494;fill-opacity:1;stroke:none">
          <path
             id="path839"
             d="M 3101,8460 L 3858,9699 L 3730,9777 L 3602,9855 L 2845,8616 L 2973,8538 L 3101,8460 z "
             style="fill:#949494;fill-opacity:1" />
          <path
             id="path841"
             d="M 3730,9777 L 3856,9859 L 3840,9880 L 3820,9897 L 3798,9911 L 3774,9921 L 3748,9926 L 3722,9927 L 3696,9923 L 3671,9915 L 3648,9903 L 3627,9887 L 3610,9867 L 3602,9855 L 3730,9777 z "
             style="fill:#949494;fill-opacity:1" />
          <path
             id="path843"
             d="M 3604,9695 L 4412,8456 L 4538,8538 L 4664,8620 L 3856,9859 L 3730,9777 L 3604,9695 z "
             style="fill:#949494;fill-opacity:1" />
        </g>
        <g
           id="g845"
           style="fill:#949494;fill-opacity:1" />
      </g>
    </g>
    <g
       transform="matrix(1.022766e-2,0,0,1.022766e-2,-20.18365,-78.68005)"
       style="fill:#949494;fill-opacity:1;visibility:visible"
       id="g847">
      <desc
         id="desc849">Drawing</desc>
      <g
         id="g851"
         style="fill:#949494;fill-opacity:1">
        <g
           id="g853"
           style="fill:#949494;fill-opacity:1;stroke:none">
          <path
             id="path855"
             d="M 2016,9151 L 2672,9151 L 2672,9301 L 2672,9451 L 2016,9451 L 2016,9301 L 2016,9151 z "
             style="fill:#949494;fill-opacity:1" />
          <path
             id="path857"
             d="M 2672,9301 L 2672,9151 L 2698,9153 L 2723,9160 L 2747,9171 L 2768,9186 L 2787,9205 L 2796,9217 L 2672,9301 z "
             style="fill:#949494;fill-opacity:1" />
          <path
             id="path859"
             d="M 2796,9217 L 3855,10789 L 3731,10873 L 3607,10957 L 2548,9385 L 2672,9301 L 2796,9217 z "
             style="fill:#949494;fill-opacity:1" />
          <path
             id="path861"
             d="M 3731,10873 L 3854,10960 L 3837,10979 L 3817,10996 L 3794,11009 L 3769,11018 L 3743,11022 L 3717,11022 L 3692,11018 L 3667,11009 L 3644,10996 L 3625,10979 L 3608,10959 L 3607,10957 L 3731,10873 z "
             style="fill:#949494;fill-opacity:1" />
          <path
             id="path863"
             d="M 3608,10786 L 4718,9214 L 4841,9301 L 4964,9388 L 3854,10960 L 3731,10873 L 3608,10786 z "
             style="fill:#949494;fill-opacity:1" />
          <path
             id="path865"
             d="M 4841,9301 L 4718,9214 L 4735,9195 L 4755,9178 L 4778,9165 L 4803,9156 L 4829,9152 L 4841,9151 L 4841,9301 z "
             style="fill:#949494;fill-opacity:1" />
          <path
             id="path867"
             d="M 4841,9151 L 5396,9151 L 5396,9301 L 5396,9451 L 4841,9451 L 4841,9301 L 4841,9151 z "
             style="fill:#949494;fill-opacity:1" />
        </g>
        <g
           id="g869"
           style="fill:#949494;fill-opacity:1" />
      </g>
    </g>
  </g>
</svg>
