<?xml version="1.0" encoding="UTF-8" standalone="no"?>
<!-- Created with Inkscape (http://www.inkscape.org/) -->
<svg
   xmlns:dc="http://purl.org/dc/elements/1.1/"
   xmlns:cc="http://web.resource.org/cc/"
   xmlns:rdf="http://www.w3.org/1999/02/22-rdf-syntax-ns#"
   xmlns:svg="http://www.w3.org/2000/svg"
   xmlns="http://www.w3.org/2000/svg"
   xmlns:sodipodi="http://inkscape.sourceforge.net/DTD/sodipodi-0.dtd"
   xmlns:inkscape="http://www.inkscape.org/namespaces/inkscape"
   width="1cm"
   height="1cm"
   id="svg9908"
   sodipodi:version="0.32"
   inkscape:version="0.43"
   version="1.0"
   sodipodi:docbase="/world/proj/Kproj/symsolon/data"
   sodipodi:docname="planet-eris.svg">
  <defs
     id="defs9910" />
  <sodipodi:namedview
     id="base"
     pagecolor="#000000"
     bordercolor="#666666"
     borderopacity="1.0"
     inkscape:pageopacity="1"
     inkscape:pageshadow="2"
     inkscape:zoom="11.373555"
     inkscape:cx="17.716536"
     inkscape:cy="18.018648"
     inkscape:document-units="px"
     inkscape:current-layer="layer1"
     inkscape:window-width="966"
     inkscape:window-height="589"
     inkscape:window-x="0"
     inkscape:window-y="68" />
  <metadata
     id="metadata9913">
    <rdf:RDF>
      <cc:Work
         rdf:about="">
        <dc:format>image/svg+xml</dc:format>
        <dc:type
           rdf:resource="http://purl.org/dc/dcmitype/StillImage" />
      </cc:Work>
    </rdf:RDF>
  </metadata>
  <g
     inkscape:label="1. réteg"
     inkscape:groupmode="layer"
     id="layer1">
    <g
       transform="matrix(1.122744e-2,0,0,1.122744e-2,-25.7903,-142.7964)"
       style="fill:#a9a9a9;fill-opacity:1;visibility:visible"
       id="g1187">
      <desc
         id="desc1189">Drawing</desc>
      <g
         id="g1191"
         style="fill:#a9a9a9;fill-opacity:1">
        <g
           id="g1193"
           style="fill:#a9a9a9;fill-opacity:1;stroke:none">
          <path
             id="path1195"
             d="M 4024,12777 L 4024,15825 L 3724,15825 L 3724,12777 L 4024,12777 z "
             style="fill:#a9a9a9;fill-opacity:1" />
        </g>
        <g
           id="g1197"
           style="fill:#a9a9a9;fill-opacity:1" />
      </g>
    </g>
    <g
       transform="matrix(1.122744e-2,0,0,1.122744e-2,-25.7903,-142.7964)"
       style="fill:#a9a9a9;fill-opacity:1;visibility:visible"
       id="g1199">
      <desc
         id="desc1201">Drawing</desc>
      <g
         id="g1203"
         style="fill:#a9a9a9;fill-opacity:1">
        <g
           id="g1205"
           style="fill:#a9a9a9;fill-opacity:1;stroke:none">
          <path
             id="path1207"
             d="M 2626,13060 L 2882,13129 L 2843,13274 L 2804,13418 L 2548,13350 L 2587,13205 L 2626,13060 z "
             style="fill:#a9a9a9;fill-opacity:1" />
          <path
             id="path1209"
             d="M 2843,13274 L 2882,13129 L 2893,13132 L 2843,13274 z "
             style="fill:#a9a9a9;fill-opacity:1" />
          <path
             id="path1211"
             d="M 2893,13132 L 3009,13173 L 2959,13315 L 2910,13456 L 2793,13415 L 2843,13274 L 2893,13132 z "
             style="fill:#a9a9a9;fill-opacity:1" />
          <path
             id="path1213"
             d="M 2959,13315 L 3009,13173 L 3017,13176 L 2959,13315 z "
             style="fill:#a9a9a9;fill-opacity:1" />
          <path
             id="path1215"
             d="M 3017,13176 L 3126,13222 L 3068,13360 L 3010,13498 L 2901,13453 L 2959,13315 L 3017,13176 z "
             style="fill:#a9a9a9;fill-opacity:1" />
          <path
             id="path1217"
             d="M 3068,13360 L 3126,13222 L 3135,13226 L 3068,13360 z "
             style="fill:#a9a9a9;fill-opacity:1" />
          <path
             id="path1219"
             d="M 3135,13226 L 3235,13276 L 3168,13410 L 3101,13544 L 3001,13494 L 3068,13360 L 3135,13226 z "
             style="fill:#a9a9a9;fill-opacity:1" />
          <path
             id="path1221"
             d="M 3168,13410 L 3235,13276 L 3245,13281 L 3168,13410 z "
             style="fill:#a9a9a9;fill-opacity:1" />
          <path
             id="path1223"
             d="M 3245,13281 L 3337,13336 L 3260,13465 L 3183,13594 L 3091,13539 L 3168,13410 L 3245,13281 z "
             style="fill:#a9a9a9;fill-opacity:1" />
          <path
             id="path1225"
             d="M 3260,13465 L 3337,13336 L 3347,13343 L 3260,13465 z "
             style="fill:#a9a9a9;fill-opacity:1" />
          <path
             id="path1227"
             d="M 3347,13343 L 3431,13403 L 3344,13525 L 3257,13647 L 3173,13587 L 3260,13465 L 3347,13343 z "
             style="fill:#a9a9a9;fill-opacity:1" />
          <path
             id="path1229"
             d="M 3344,13525 L 3431,13403 L 3442,13411 L 3344,13525 z "
             style="fill:#a9a9a9;fill-opacity:1" />
          <path
             id="path1231"
             d="M 3442,13411 L 3517,13476 L 3420,13590 L 3322,13704 L 3246,13639 L 3344,13525 L 3442,13411 z "
             style="fill:#a9a9a9;fill-opacity:1" />
          <path
             id="path1233"
             d="M 3420,13590 L 3517,13476 L 3528,13487 L 3420,13590 z "
             style="fill:#a9a9a9;fill-opacity:1" />
          <path
             id="path1235"
             d="M 3528,13487 L 3595,13557 L 3486,13660 L 3378,13764 L 3311,13694 L 3420,13590 L 3528,13487 z "
             style="fill:#a9a9a9;fill-opacity:1" />
          <path
             id="path1237"
             d="M 3486,13660 L 3595,13557 L 3605,13568 L 3486,13660 z "
             style="fill:#a9a9a9;fill-opacity:1" />
          <path
             id="path1239"
             d="M 3605,13568 L 3664,13644 L 3545,13736 L 3426,13828 L 3368,13752 L 3486,13660 L 3605,13568 z "
             style="fill:#a9a9a9;fill-opacity:1" />
          <path
             id="path1241"
             d="M 3545,13736 L 3664,13644 L 3673,13657 L 3545,13736 z "
             style="fill:#a9a9a9;fill-opacity:1" />
          <path
             id="path1243"
             d="M 3673,13657 L 3722,13738 L 3595,13817 L 3467,13895 L 3417,13814 L 3545,13736 L 3673,13657 z "
             style="fill:#a9a9a9;fill-opacity:1" />
          <path
             id="path1245"
             d="M 3595,13817 L 3722,13738 L 3730,13752 L 3595,13817 z "
             style="fill:#a9a9a9;fill-opacity:1" />
          <path
             id="path1247"
             d="M 3730,13752 L 3771,13839 L 3636,13903 L 3500,13967 L 3459,13881 L 3595,13817 L 3730,13752 z "
             style="fill:#a9a9a9;fill-opacity:1" />
          <path
             id="path1249"
             d="M 3636,13903 L 3771,13839 L 3777,13854 L 3636,13903 z "
             style="fill:#a9a9a9;fill-opacity:1" />
          <path
             id="path1251"
             d="M 3777,13854 L 3809,13946 L 3667,13995 L 3526,14044 L 3494,13952 L 3636,13903 L 3777,13854 z "
             style="fill:#a9a9a9;fill-opacity:1" />
          <path
             id="path1253"
             d="M 3667,13995 L 3809,13946 L 3814,13961 L 3667,13995 z "
             style="fill:#a9a9a9;fill-opacity:1" />
          <path
             id="path1255"
             d="M 3814,13961 L 3837,14058 L 3690,14093 L 3544,14127 L 3521,14029 L 3667,13995 L 3814,13961 z "
             style="fill:#a9a9a9;fill-opacity:1" />
          <path
             id="path1257"
             d="M 3690,14093 L 3837,14058 L 3839,14073 L 3690,14093 z "
             style="fill:#a9a9a9;fill-opacity:1" />
          <path
             id="path1259"
             d="M 3839,14073 L 3853,14176 L 3704,14196 L 3556,14216 L 3542,14113 L 3690,14093 L 3839,14073 z "
             style="fill:#a9a9a9;fill-opacity:1" />
          <path
             id="path1261"
             d="M 3704,14196 L 3853,14176 L 3854,14190 L 3704,14196 z "
             style="fill:#a9a9a9;fill-opacity:1" />
          <path
             id="path1263"
             d="M 3854,14190 L 3859,14300 L 3709,14306 L 3559,14312 L 3554,14203 L 3704,14196 L 3854,14190 z "
             style="fill:#a9a9a9;fill-opacity:1" />
          <path
             id="path1265"
             d="M 3709,14306 L 3859,14300 L 3859,14313 L 3709,14306 z "
             style="fill:#a9a9a9;fill-opacity:1" />
          <path
             id="path1267"
             d="M 3859,14313 L 3854,14423 L 3704,14416 L 3554,14409 L 3559,14299 L 3709,14306 L 3859,14313 z "
             style="fill:#a9a9a9;fill-opacity:1" />
          <path
             id="path1269"
             d="M 3704,14416 L 3854,14423 L 3852,14438 L 3704,14416 z "
             style="fill:#a9a9a9;fill-opacity:1" />
          <path
             id="path1271"
             d="M 3852,14438 L 3837,14542 L 3689,14521 L 3540,14499 L 3555,14394 L 3704,14416 L 3852,14438 z "
             style="fill:#a9a9a9;fill-opacity:1" />
          <path
             id="path1273"
             d="M 3689,14521 L 3837,14542 L 3834,14557 L 3689,14521 z "
             style="fill:#a9a9a9;fill-opacity:1" />
          <path
             id="path1275"
             d="M 3834,14557 L 3809,14657 L 3664,14620 L 3518,14584 L 3543,14484 L 3689,14521 L 3834,14557 z "
             style="fill:#a9a9a9;fill-opacity:1" />
          <path
             id="path1277"
             d="M 3664,14620 L 3809,14657 L 3805,14672 L 3664,14620 z "
             style="fill:#a9a9a9;fill-opacity:1" />
          <path
             id="path1279"
             d="M 3805,14672 L 3770,14766 L 3629,14715 L 3488,14664 L 3523,14569 L 3664,14620 L 3805,14672 z "
             style="fill:#a9a9a9;fill-opacity:1" />
          <path
             id="path1281"
             d="M 3629,14715 L 3770,14766 L 3764,14781 L 3629,14715 z "
             style="fill:#a9a9a9;fill-opacity:1" />
          <path
             id="path1283"
             d="M 3764,14781 L 3721,14870 L 3586,14804 L 3451,14739 L 3494,14649 L 3629,14715 L 3764,14781 z "
             style="fill:#a9a9a9;fill-opacity:1" />
          <path
             id="path1285"
             d="M 3586,14804 L 3721,14870 L 3713,14883 L 3586,14804 z "
             style="fill:#a9a9a9;fill-opacity:1" />
          <path
             id="path1287"
             d="M 3713,14883 L 3661,14968 L 3533,14889 L 3406,14810 L 3458,14726 L 3586,14804 L 3713,14883 z "
             style="fill:#a9a9a9;fill-opacity:1" />
          <path
             id="path1289"
             d="M 3533,14889 L 3661,14968 L 3653,14980 L 3533,14889 z "
             style="fill:#a9a9a9;fill-opacity:1" />
          <path
             id="path1291"
             d="M 3653,14980 L 3592,15060 L 3472,14969 L 3353,14878 L 3414,14798 L 3533,14889 L 3653,14980 z "
             style="fill:#a9a9a9;fill-opacity:1" />
          <path
             id="path1293"
             d="M 3472,14969 L 3592,15060 L 3583,15071 L 3472,14969 z "
             style="fill:#a9a9a9;fill-opacity:1" />
          <path
             id="path1295"
             d="M 3583,15071 L 3513,15146 L 3403,15045 L 3293,14943 L 3362,14868 L 3472,14969 L 3583,15071 z "
             style="fill:#a9a9a9;fill-opacity:1" />
          <path
             id="path1297"
             d="M 3403,15045 L 3513,15146 L 3504,15155 L 3403,15045 z "
             style="fill:#a9a9a9;fill-opacity:1" />
          <path
             id="path1299"
             d="M 3504,15155 L 3427,15226 L 3326,15115 L 3224,15005 L 3302,14934 L 3403,15045 L 3504,15155 z "
             style="fill:#a9a9a9;fill-opacity:1" />
          <path
             id="path1301"
             d="M 3326,15115 L 3427,15226 L 3418,15233 L 3326,15115 z "
             style="fill:#a9a9a9;fill-opacity:1" />
          <path
             id="path1303"
             d="M 3418,15233 L 3333,15300 L 3241,15182 L 3148,15063 L 3233,14997 L 3326,15115 L 3418,15233 z "
             style="fill:#a9a9a9;fill-opacity:1" />
          <path
             id="path1305"
             d="M 3241,15182 L 3333,15300 L 3324,15306 L 3241,15182 z "
             style="fill:#a9a9a9;fill-opacity:1" />
          <path
             id="path1307"
             d="M 3324,15306 L 3232,15368 L 3149,15244 L 3065,15119 L 3157,15057 L 3241,15182 L 3324,15306 z "
             style="fill:#a9a9a9;fill-opacity:1" />
          <path
             id="path1309"
             d="M 3149,15244 L 3232,15368 L 3224,15373 L 3149,15244 z "
             style="fill:#a9a9a9;fill-opacity:1" />
          <path
             id="path1311"
             d="M 3224,15373 L 3125,15431 L 3049,15301 L 2974,15172 L 3073,15114 L 3149,15244 L 3224,15373 z "
             style="fill:#a9a9a9;fill-opacity:1" />
          <path
             id="path1313"
             d="M 3049,15301 L 3125,15431 L 3117,15435 L 3049,15301 z "
             style="fill:#a9a9a9;fill-opacity:1" />
          <path
             id="path1315"
             d="M 3117,15435 L 3011,15489 L 2943,15355 L 2875,15221 L 2982,15167 L 3049,15301 L 3117,15435 z "
             style="fill:#a9a9a9;fill-opacity:1" />
          <path
             id="path1317"
             d="M 2943,15355 L 3011,15489 L 3003,15492 L 2943,15355 z "
             style="fill:#a9a9a9;fill-opacity:1" />
          <path
             id="path1319"
             d="M 3003,15492 L 2891,15542 L 2830,15405 L 2770,15267 L 2883,15218 L 2943,15355 L 3003,15492 z "
             style="fill:#a9a9a9;fill-opacity:1" />
          <path
             id="path1321"
             d="M 2830,15405 L 2891,15542 L 2881,15546 L 2830,15405 z "
             style="fill:#a9a9a9;fill-opacity:1" />
          <path
             id="path1323"
             d="M 2881,15546 L 2638,15633 L 2587,15492 L 2536,15351 L 2780,15263 L 2830,15405 L 2881,15546 z "
             style="fill:#a9a9a9;fill-opacity:1" />
        </g>
        <g
           id="g1325"
           style="fill:#a9a9a9;fill-opacity:1" />
      </g>
    </g>
    <g
       transform="matrix(1.122744e-2,0,0,1.122744e-2,-25.7903,-142.7964)"
       style="fill:#a9a9a9;fill-opacity:1;visibility:visible"
       id="g1327">
      <desc
         id="desc1329">Drawing</desc>
      <g
         id="g1331"
         style="fill:#a9a9a9;fill-opacity:1">
        <g
           id="g1333"
           style="fill:#a9a9a9;fill-opacity:1;stroke:none">
          <path
             id="path1335"
             d="M 5197,13350 L 4941,13418 L 4902,13274 L 4863,13129 L 5119,13060 L 5158,13205 L 5197,13350 z "
             style="fill:#a9a9a9;fill-opacity:1" />
          <path
             id="path1337"
             d="M 4902,13274 L 4852,13132 L 4863,13129 L 4902,13274 z "
             style="fill:#a9a9a9;fill-opacity:1" />
          <path
             id="path1339"
             d="M 4952,13415 L 4835,13456 L 4786,13315 L 4736,13173 L 4852,13132 L 4902,13274 L 4952,13415 z "
             style="fill:#a9a9a9;fill-opacity:1" />
          <path
             id="path1341"
             d="M 4786,13315 L 4728,13176 L 4736,13173 L 4786,13315 z "
             style="fill:#a9a9a9;fill-opacity:1" />
          <path
             id="path1343"
             d="M 4844,13453 L 4735,13498 L 4677,13360 L 4619,13222 L 4728,13176 L 4786,13315 L 4844,13453 z "
             style="fill:#a9a9a9;fill-opacity:1" />
          <path
             id="path1345"
             d="M 4677,13360 L 4610,13226 L 4619,13222 L 4677,13360 z "
             style="fill:#a9a9a9;fill-opacity:1" />
          <path
             id="path1347"
             d="M 4744,13494 L 4644,13544 L 4577,13410 L 4510,13276 L 4610,13226 L 4677,13360 L 4744,13494 z "
             style="fill:#a9a9a9;fill-opacity:1" />
          <path
             id="path1349"
             d="M 4577,13410 L 4500,13281 L 4510,13276 L 4577,13410 z "
             style="fill:#a9a9a9;fill-opacity:1" />
          <path
             id="path1351"
             d="M 4654,13539 L 4562,13594 L 4485,13465 L 4408,13336 L 4500,13281 L 4577,13410 L 4654,13539 z "
             style="fill:#a9a9a9;fill-opacity:1" />
          <path
             id="path1353"
             d="M 4485,13465 L 4398,13343 L 4408,13336 L 4485,13465 z "
             style="fill:#a9a9a9;fill-opacity:1" />
          <path
             id="path1355"
             d="M 4572,13587 L 4488,13647 L 4401,13525 L 4314,13403 L 4398,13343 L 4485,13465 L 4572,13587 z "
             style="fill:#a9a9a9;fill-opacity:1" />
          <path
             id="path1357"
             d="M 4401,13525 L 4303,13411 L 4314,13403 L 4401,13525 z "
             style="fill:#a9a9a9;fill-opacity:1" />
          <path
             id="path1359"
             d="M 4499,13639 L 4423,13704 L 4326,13590 L 4228,13476 L 4303,13411 L 4401,13525 L 4499,13639 z "
             style="fill:#a9a9a9;fill-opacity:1" />
          <path
             id="path1361"
             d="M 4326,13590 L 4217,13487 L 4228,13476 L 4326,13590 z "
             style="fill:#a9a9a9;fill-opacity:1" />
          <path
             id="path1363"
             d="M 4434,13694 L 4367,13764 L 4259,13660 L 4150,13557 L 4217,13487 L 4326,13590 L 4434,13694 z "
             style="fill:#a9a9a9;fill-opacity:1" />
          <path
             id="path1365"
             d="M 4259,13660 L 4140,13568 L 4150,13557 L 4259,13660 z "
             style="fill:#a9a9a9;fill-opacity:1" />
          <path
             id="path1367"
             d="M 4377,13752 L 4319,13828 L 4200,13736 L 4081,13644 L 4140,13568 L 4259,13660 L 4377,13752 z "
             style="fill:#a9a9a9;fill-opacity:1" />
          <path
             id="path1369"
             d="M 4200,13736 L 4072,13657 L 4081,13644 L 4200,13736 z "
             style="fill:#a9a9a9;fill-opacity:1" />
          <path
             id="path1371"
             d="M 4328,13814 L 4278,13895 L 4150,13817 L 4023,13738 L 4072,13657 L 4200,13736 L 4328,13814 z "
             style="fill:#a9a9a9;fill-opacity:1" />
          <path
             id="path1373"
             d="M 4150,13817 L 4015,13752 L 4023,13738 L 4150,13817 z "
             style="fill:#a9a9a9;fill-opacity:1" />
          <path
             id="path1375"
             d="M 4286,13881 L 4245,13967 L 4110,13903 L 3974,13839 L 4015,13752 L 4150,13817 L 4286,13881 z "
             style="fill:#a9a9a9;fill-opacity:1" />
          <path
             id="path1377"
             d="M 4110,13903 L 3968,13854 L 3974,13839 L 4110,13903 z "
             style="fill:#a9a9a9;fill-opacity:1" />
          <path
             id="path1379"
             d="M 4251,13952 L 4219,14044 L 4078,13995 L 3936,13946 L 3968,13854 L 4110,13903 L 4251,13952 z "
             style="fill:#a9a9a9;fill-opacity:1" />
          <path
             id="path1381"
             d="M 4078,13995 L 3931,13961 L 3936,13946 L 4078,13995 z "
             style="fill:#a9a9a9;fill-opacity:1" />
          <path
             id="path1383"
             d="M 4224,14029 L 4201,14127 L 4055,14093 L 3908,14058 L 3931,13961 L 4078,13995 L 4224,14029 z "
             style="fill:#a9a9a9;fill-opacity:1" />
          <path
             id="path1385"
             d="M 4055,14093 L 3906,14073 L 3908,14058 L 4055,14093 z "
             style="fill:#a9a9a9;fill-opacity:1" />
          <path
             id="path1387"
             d="M 4203,14113 L 4189,14216 L 4041,14196 L 3892,14176 L 3906,14073 L 4055,14093 L 4203,14113 z "
             style="fill:#a9a9a9;fill-opacity:1" />
          <path
             id="path1389"
             d="M 4041,14196 L 3891,14190 L 3892,14176 L 4041,14196 z "
             style="fill:#a9a9a9;fill-opacity:1" />
          <path
             id="path1391"
             d="M 4191,14203 L 4186,14312 L 4036,14306 L 3886,14300 L 3891,14190 L 4041,14196 L 4191,14203 z "
             style="fill:#a9a9a9;fill-opacity:1" />
          <path
             id="path1393"
             d="M 4036,14306 L 3886,14313 L 3886,14300 L 4036,14306 z "
             style="fill:#a9a9a9;fill-opacity:1" />
          <path
             id="path1395"
             d="M 4186,14299 L 4191,14409 L 4041,14416 L 3891,14423 L 3886,14313 L 4036,14306 L 4186,14299 z "
             style="fill:#a9a9a9;fill-opacity:1" />
          <path
             id="path1397"
             d="M 4041,14416 L 3893,14438 L 3891,14423 L 4041,14416 z "
             style="fill:#a9a9a9;fill-opacity:1" />
          <path
             id="path1399"
             d="M 4190,14394 L 4205,14499 L 4056,14521 L 3908,14542 L 3893,14438 L 4041,14416 L 4190,14394 z "
             style="fill:#a9a9a9;fill-opacity:1" />
          <path
             id="path1401"
             d="M 4056,14521 L 3911,14557 L 3908,14542 L 4056,14521 z "
             style="fill:#a9a9a9;fill-opacity:1" />
          <path
             id="path1403"
             d="M 4202,14484 L 4227,14584 L 4081,14620 L 3936,14657 L 3911,14557 L 4056,14521 L 4202,14484 z "
             style="fill:#a9a9a9;fill-opacity:1" />
          <path
             id="path1405"
             d="M 4081,14620 L 3940,14672 L 3936,14657 L 4081,14620 z "
             style="fill:#a9a9a9;fill-opacity:1" />
          <path
             id="path1407"
             d="M 4222,14569 L 4257,14664 L 4116,14715 L 3975,14766 L 3940,14672 L 4081,14620 L 4222,14569 z "
             style="fill:#a9a9a9;fill-opacity:1" />
          <path
             id="path1409"
             d="M 4116,14715 L 3981,14781 L 3975,14766 L 4116,14715 z "
             style="fill:#a9a9a9;fill-opacity:1" />
          <path
             id="path1411"
             d="M 4251,14649 L 4294,14739 L 4159,14804 L 4024,14870 L 3981,14781 L 4116,14715 L 4251,14649 z "
             style="fill:#a9a9a9;fill-opacity:1" />
          <path
             id="path1413"
             d="M 4159,14804 L 4032,14883 L 4024,14870 L 4159,14804 z "
             style="fill:#a9a9a9;fill-opacity:1" />
          <path
             id="path1415"
             d="M 4287,14726 L 4339,14810 L 4212,14889 L 4084,14968 L 4032,14883 L 4159,14804 L 4287,14726 z "
             style="fill:#a9a9a9;fill-opacity:1" />
          <path
             id="path1417"
             d="M 4212,14889 L 4092,14980 L 4084,14968 L 4212,14889 z "
             style="fill:#a9a9a9;fill-opacity:1" />
          <path
             id="path1419"
             d="M 4331,14798 L 4392,14878 L 4273,14969 L 4153,15060 L 4092,14980 L 4212,14889 L 4331,14798 z "
             style="fill:#a9a9a9;fill-opacity:1" />
          <path
             id="path1421"
             d="M 4273,14969 L 4162,15071 L 4153,15060 L 4273,14969 z "
             style="fill:#a9a9a9;fill-opacity:1" />
          <path
             id="path1423"
             d="M 4383,14868 L 4452,14943 L 4342,15045 L 4232,15146 L 4162,15071 L 4273,14969 L 4383,14868 z "
             style="fill:#a9a9a9;fill-opacity:1" />
          <path
             id="path1425"
             d="M 4342,15045 L 4241,15155 L 4232,15146 L 4342,15045 z "
             style="fill:#a9a9a9;fill-opacity:1" />
          <path
             id="path1427"
             d="M 4443,14934 L 4521,15005 L 4419,15115 L 4318,15226 L 4241,15155 L 4342,15045 L 4443,14934 z "
             style="fill:#a9a9a9;fill-opacity:1" />
          <path
             id="path1429"
             d="M 4419,15115 L 4327,15233 L 4318,15226 L 4419,15115 z "
             style="fill:#a9a9a9;fill-opacity:1" />
          <path
             id="path1431"
             d="M 4512,14997 L 4597,15063 L 4504,15182 L 4412,15300 L 4327,15233 L 4419,15115 L 4512,14997 z "
             style="fill:#a9a9a9;fill-opacity:1" />
          <path
             id="path1433"
             d="M 4504,15182 L 4421,15306 L 4412,15300 L 4504,15182 z "
             style="fill:#a9a9a9;fill-opacity:1" />
          <path
             id="path1435"
             d="M 4588,15057 L 4680,15119 L 4596,15244 L 4513,15368 L 4421,15306 L 4504,15182 L 4588,15057 z "
             style="fill:#a9a9a9;fill-opacity:1" />
          <path
             id="path1437"
             d="M 4596,15244 L 4521,15373 L 4513,15368 L 4596,15244 z "
             style="fill:#a9a9a9;fill-opacity:1" />
          <path
             id="path1439"
             d="M 4672,15114 L 4771,15172 L 4696,15301 L 4620,15431 L 4521,15373 L 4596,15244 L 4672,15114 z "
             style="fill:#a9a9a9;fill-opacity:1" />
          <path
             id="path1441"
             d="M 4696,15301 L 4628,15435 L 4620,15431 L 4696,15301 z "
             style="fill:#a9a9a9;fill-opacity:1" />
          <path
             id="path1443"
             d="M 4763,15167 L 4870,15221 L 4802,15355 L 4734,15489 L 4628,15435 L 4696,15301 L 4763,15167 z "
             style="fill:#a9a9a9;fill-opacity:1" />
          <path
             id="path1445"
             d="M 4802,15355 L 4742,15492 L 4734,15489 L 4802,15355 z "
             style="fill:#a9a9a9;fill-opacity:1" />
          <path
             id="path1447"
             d="M 4862,15218 L 4975,15267 L 4915,15405 L 4854,15542 L 4742,15492 L 4802,15355 L 4862,15218 z "
             style="fill:#a9a9a9;fill-opacity:1" />
          <path
             id="path1449"
             d="M 4915,15405 L 4864,15546 L 4854,15542 L 4915,15405 z "
             style="fill:#a9a9a9;fill-opacity:1" />
          <path
             id="path1451"
             d="M 4965,15263 L 5209,15351 L 5158,15492 L 5107,15633 L 4864,15546 L 4915,15405 L 4965,15263 z "
             style="fill:#a9a9a9;fill-opacity:1" />
        </g>
        <g
           id="g1453"
           style="fill:#a9a9a9;fill-opacity:1" />
      </g>
    </g>
  </g>
</svg>
