<?xml version="1.0" encoding="UTF-8" standalone="no"?>
<!-- Created with Inkscape (http://www.inkscape.org/) -->
<svg
   xmlns:dc="http://purl.org/dc/elements/1.1/"
   xmlns:cc="http://web.resource.org/cc/"
   xmlns:rdf="http://www.w3.org/1999/02/22-rdf-syntax-ns#"
   xmlns:svg="http://www.w3.org/2000/svg"
   xmlns="http://www.w3.org/2000/svg"
   xmlns:sodipodi="http://sodipodi.sourceforge.net/DTD/sodipodi-0.dtd"
   xmlns:inkscape="http://www.inkscape.org/namespaces/inkscape"
   width="1cm"
   height="1cm"
   id="svg9908"
   sodipodi:version="0.32"
   inkscape:version="0.45"
   version="1.0"
   sodipodi:docbase="/world/proj/Kproj/symsolon/share/symsolon/planets"
   sodipodi:docname="planet-venus.svg"
   inkscape:output_extension="org.inkscape.output.svg.inkscape"
   sodipodi:modified="true">
  <defs
     id="defs9910" />
  <sodipodi:namedview
     id="base"
     pagecolor="#000000"
     bordercolor="#666666"
     borderopacity="1.0"
     inkscape:pageopacity="1"
     inkscape:pageshadow="2"
     inkscape:zoom="3.2599421"
     inkscape:cx="-2.2860119"
     inkscape:cy="43.499965"
     inkscape:document-units="px"
     inkscape:current-layer="layer1"
     inkscape:window-width="966"
     inkscape:window-height="626"
     inkscape:window-x="5"
     inkscape:window-y="49" />
  <metadata
     id="metadata9913">
    <rdf:RDF>
      <cc:Work
         rdf:about="">
        <dc:format>image/svg+xml</dc:format>
        <dc:type
           rdf:resource="http://purl.org/dc/dcmitype/StillImage" />
      </cc:Work>
    </rdf:RDF>
  </metadata>
  <g
     inkscape:label="1. réteg"
     inkscape:groupmode="layer"
     id="layer1">
    <g
       style="fill:#df00ac;fill-opacity:1;visibility:visible"
       id="g12283"
       transform="matrix(9.288893e-3,0,0,9.288893e-3,-118.4706,-133.544)">
      <desc
         id="desc12285">Drawing</desc>
      <g
         id="g12287"
         style="fill:#df00ac;fill-opacity:1">
        <g
           id="g12289"
           style="fill:#df00ac;fill-opacity:1;stroke:none">
          <path
             id="path12291"
             d="M 14699,16452 L 14614,16447 L 14622,16298 L 14629,16148 L 14715,16152 L 14707,16302 L 14699,16452 z "
             style="fill:#df00ac;fill-opacity:1" />
          <path
             id="path12293"
             d="M 14622,16298 L 14614,16447 L 14599,16446 L 14622,16298 z "
             style="fill:#df00ac;fill-opacity:1" />
          <path
             id="path12295"
             d="M 14599,16446 L 14516,16433 L 14539,16285 L 14562,16137 L 14645,16149 L 14622,16298 L 14599,16446 z "
             style="fill:#df00ac;fill-opacity:1" />
          <path
             id="path12297"
             d="M 14539,16285 L 14516,16433 L 14502,16430 L 14539,16285 z "
             style="fill:#df00ac;fill-opacity:1" />
          <path
             id="path12299"
             d="M 14502,16430 L 14422,16410 L 14459,16264 L 14497,16119 L 14577,16140 L 14539,16285 L 14502,16430 z "
             style="fill:#df00ac;fill-opacity:1" />
          <path
             id="path12301"
             d="M 14459,16264 L 14422,16410 L 14408,16405 L 14459,16264 z "
             style="fill:#df00ac;fill-opacity:1" />
          <path
             id="path12303"
             d="M 14408,16405 L 14331,16377 L 14383,16236 L 14434,16096 L 14511,16124 L 14459,16264 L 14408,16405 z "
             style="fill:#df00ac;fill-opacity:1" />
          <path
             id="path12305"
             d="M 14383,16236 L 14331,16377 L 14317,16371 L 14383,16236 z "
             style="fill:#df00ac;fill-opacity:1" />
          <path
             id="path12307"
             d="M 14317,16371 L 14245,16336 L 14310,16201 L 14375,16066 L 14448,16101 L 14383,16236 L 14317,16371 z "
             style="fill:#df00ac;fill-opacity:1" />
          <path
             id="path12309"
             d="M 14310,16201 L 14245,16336 L 14232,16329 L 14310,16201 z "
             style="fill:#df00ac;fill-opacity:1" />
          <path
             id="path12311"
             d="M 14232,16329 L 14163,16288 L 14241,16159 L 14319,16031 L 14388,16073 L 14310,16201 L 14232,16329 z "
             style="fill:#df00ac;fill-opacity:1" />
          <path
             id="path12313"
             d="M 14241,16159 L 14163,16288 L 14151,16280 L 14241,16159 z "
             style="fill:#df00ac;fill-opacity:1" />
          <path
             id="path12315"
             d="M 14151,16280 L 14087,16231 L 14177,16111 L 14267,15991 L 14331,16039 L 14241,16159 L 14151,16280 z "
             style="fill:#df00ac;fill-opacity:1" />
          <path
             id="path12317"
             d="M 14177,16111 L 14087,16231 L 14076,16222 L 14177,16111 z "
             style="fill:#df00ac;fill-opacity:1" />
          <path
             id="path12319"
             d="M 14076,16222 L 14017,16168 L 14118,16058 L 14218,15947 L 14278,16000 L 14177,16111 L 14076,16222 z "
             style="fill:#df00ac;fill-opacity:1" />
          <path
             id="path12321"
             d="M 14118,16058 L 14017,16168 L 14007,16158 L 14118,16058 z "
             style="fill:#df00ac;fill-opacity:1" />
          <path
             id="path12323"
             d="M 14007,16158 L 13953,16099 L 14064,15998 L 14175,15897 L 14228,15957 L 14118,16058 L 14007,16158 z "
             style="fill:#df00ac;fill-opacity:1" />
          <path
             id="path12325"
             d="M 14064,15998 L 13953,16099 L 13944,16088 L 14064,15998 z "
             style="fill:#df00ac;fill-opacity:1" />
          <path
             id="path12327"
             d="M 13944,16088 L 13895,16024 L 14016,15934 L 14136,15844 L 14184,15908 L 14064,15998 L 13944,16088 z "
             style="fill:#df00ac;fill-opacity:1" />
          <path
             id="path12329"
             d="M 14016,15934 L 13895,16024 L 13887,16012 L 14016,15934 z "
             style="fill:#df00ac;fill-opacity:1" />
          <path
             id="path12331"
             d="M 13887,16012 L 13846,15943 L 13974,15865 L 14102,15787 L 14144,15856 L 14016,15934 L 13887,16012 z "
             style="fill:#df00ac;fill-opacity:1" />
          <path
             id="path12333"
             d="M 13974,15865 L 13846,15943 L 13839,15930 L 13974,15865 z "
             style="fill:#df00ac;fill-opacity:1" />
          <path
             id="path12335"
             d="M 13839,15930 L 13804,15858 L 13939,15792 L 14074,15727 L 14109,15800 L 13974,15865 L 13839,15930 z "
             style="fill:#df00ac;fill-opacity:1" />
          <path
             id="path12337"
             d="M 13939,15792 L 13804,15858 L 13798,15844 L 13939,15792 z "
             style="fill:#df00ac;fill-opacity:1" />
          <path
             id="path12339"
             d="M 13798,15844 L 13770,15767 L 13911,15716 L 14051,15664 L 14079,15741 L 13939,15792 L 13798,15844 z "
             style="fill:#df00ac;fill-opacity:1" />
          <path
             id="path12341"
             d="M 13911,15716 L 13770,15767 L 13765,15753 L 13911,15716 z "
             style="fill:#df00ac;fill-opacity:1" />
          <path
             id="path12343"
             d="M 13765,15753 L 13745,15673 L 13890,15636 L 14035,15598 L 14056,15678 L 13911,15716 L 13765,15753 z "
             style="fill:#df00ac;fill-opacity:1" />
          <path
             id="path12345"
             d="M 13890,15636 L 13745,15673 L 13742,15659 L 13890,15636 z "
             style="fill:#df00ac;fill-opacity:1" />
          <path
             id="path12347"
             d="M 13742,15659 L 13729,15576 L 13877,15553 L 14026,15530 L 14038,15613 L 13890,15636 L 13742,15659 z "
             style="fill:#df00ac;fill-opacity:1" />
          <path
             id="path12349"
             d="M 13877,15553 L 13729,15576 L 13728,15561 L 13877,15553 z "
             style="fill:#df00ac;fill-opacity:1" />
          <path
             id="path12351"
             d="M 13728,15561 L 13723,15476 L 13873,15468 L 14023,15460 L 14027,15546 L 13877,15553 L 13728,15561 z "
             style="fill:#df00ac;fill-opacity:1" />
          <path
             id="path12353"
             d="M 13873,15468 L 13723,15476 L 13723,15460 L 13873,15468 z "
             style="fill:#df00ac;fill-opacity:1" />
          <path
             id="path12355"
             d="M 13723,15460 L 13728,15375 L 13877,15383 L 14027,15390 L 14023,15476 L 13873,15468 L 13723,15460 z "
             style="fill:#df00ac;fill-opacity:1" />
          <path
             id="path12357"
             d="M 13877,15383 L 13728,15375 L 13729,15360 L 13877,15383 z "
             style="fill:#df00ac;fill-opacity:1" />
          <path
             id="path12359"
             d="M 13729,15360 L 13742,15277 L 13890,15300 L 14038,15323 L 14026,15406 L 13877,15383 L 13729,15360 z "
             style="fill:#df00ac;fill-opacity:1" />
          <path
             id="path12361"
             d="M 13890,15300 L 13742,15277 L 13745,15263 L 13890,15300 z "
             style="fill:#df00ac;fill-opacity:1" />
          <path
             id="path12363"
             d="M 13745,15263 L 13765,15183 L 13911,15220 L 14056,15258 L 14035,15338 L 13890,15300 L 13745,15263 z "
             style="fill:#df00ac;fill-opacity:1" />
          <path
             id="path12365"
             d="M 13911,15220 L 13765,15183 L 13770,15169 L 13911,15220 z "
             style="fill:#df00ac;fill-opacity:1" />
          <path
             id="path12367"
             d="M 13770,15169 L 13798,15092 L 13939,15144 L 14079,15195 L 14051,15272 L 13911,15220 L 13770,15169 z "
             style="fill:#df00ac;fill-opacity:1" />
          <path
             id="path12369"
             d="M 13939,15144 L 13798,15092 L 13804,15078 L 13939,15144 z "
             style="fill:#df00ac;fill-opacity:1" />
          <path
             id="path12371"
             d="M 13804,15078 L 13839,15006 L 13974,15071 L 14109,15136 L 14074,15209 L 13939,15144 L 13804,15078 z "
             style="fill:#df00ac;fill-opacity:1" />
          <path
             id="path12373"
             d="M 13974,15071 L 13839,15006 L 13846,14993 L 13974,15071 z "
             style="fill:#df00ac;fill-opacity:1" />
          <path
             id="path12375"
             d="M 13846,14993 L 13887,14924 L 14016,15002 L 14144,15080 L 14102,15149 L 13974,15071 L 13846,14993 z "
             style="fill:#df00ac;fill-opacity:1" />
          <path
             id="path12377"
             d="M 14016,15002 L 13887,14924 L 13895,14912 L 14016,15002 z "
             style="fill:#df00ac;fill-opacity:1" />
          <path
             id="path12379"
             d="M 13895,14912 L 13944,14848 L 14064,14938 L 14184,15028 L 14136,15092 L 14016,15002 L 13895,14912 z "
             style="fill:#df00ac;fill-opacity:1" />
          <path
             id="path12381"
             d="M 14064,14938 L 13944,14848 L 13953,14837 L 14064,14938 z "
             style="fill:#df00ac;fill-opacity:1" />
          <path
             id="path12383"
             d="M 13953,14837 L 14007,14778 L 14118,14879 L 14228,14979 L 14175,15039 L 14064,14938 L 13953,14837 z "
             style="fill:#df00ac;fill-opacity:1" />
          <path
             id="path12385"
             d="M 14118,14879 L 14007,14778 L 14017,14768 L 14118,14879 z "
             style="fill:#df00ac;fill-opacity:1" />
          <path
             id="path12387"
             d="M 14017,14768 L 14076,14714 L 14177,14825 L 14278,14936 L 14218,14989 L 14118,14879 L 14017,14768 z "
             style="fill:#df00ac;fill-opacity:1" />
          <path
             id="path12389"
             d="M 14177,14825 L 14076,14714 L 14087,14705 L 14177,14825 z "
             style="fill:#df00ac;fill-opacity:1" />
          <path
             id="path12391"
             d="M 14087,14705 L 14151,14656 L 14241,14777 L 14331,14897 L 14267,14945 L 14177,14825 L 14087,14705 z "
             style="fill:#df00ac;fill-opacity:1" />
          <path
             id="path12393"
             d="M 14241,14777 L 14151,14656 L 14163,14648 L 14241,14777 z "
             style="fill:#df00ac;fill-opacity:1" />
          <path
             id="path12395"
             d="M 14163,14648 L 14232,14607 L 14310,14735 L 14388,14863 L 14319,14905 L 14241,14777 L 14163,14648 z "
             style="fill:#df00ac;fill-opacity:1" />
          <path
             id="path12397"
             d="M 14310,14735 L 14232,14607 L 14245,14600 L 14310,14735 z "
             style="fill:#df00ac;fill-opacity:1" />
          <path
             id="path12399"
             d="M 14245,14600 L 14317,14565 L 14383,14700 L 14448,14835 L 14375,14870 L 14310,14735 L 14245,14600 z "
             style="fill:#df00ac;fill-opacity:1" />
          <path
             id="path12401"
             d="M 14383,14700 L 14317,14565 L 14331,14559 L 14383,14700 z "
             style="fill:#df00ac;fill-opacity:1" />
          <path
             id="path12403"
             d="M 14331,14559 L 14408,14531 L 14459,14672 L 14511,14812 L 14434,14840 L 14383,14700 L 14331,14559 z "
             style="fill:#df00ac;fill-opacity:1" />
          <path
             id="path12405"
             d="M 14459,14672 L 14408,14531 L 14422,14526 L 14459,14672 z "
             style="fill:#df00ac;fill-opacity:1" />
          <path
             id="path12407"
             d="M 14422,14526 L 14502,14506 L 14539,14651 L 14577,14796 L 14497,14817 L 14459,14672 L 14422,14526 z "
             style="fill:#df00ac;fill-opacity:1" />
          <path
             id="path12409"
             d="M 14539,14651 L 14502,14506 L 14516,14503 L 14539,14651 z "
             style="fill:#df00ac;fill-opacity:1" />
          <path
             id="path12411"
             d="M 14516,14503 L 14599,14490 L 14622,14638 L 14645,14787 L 14562,14799 L 14539,14651 L 14516,14503 z "
             style="fill:#df00ac;fill-opacity:1" />
          <path
             id="path12413"
             d="M 14622,14638 L 14599,14490 L 14614,14489 L 14622,14638 z "
             style="fill:#df00ac;fill-opacity:1" />
          <path
             id="path12415"
             d="M 14614,14489 L 14699,14484 L 14707,14634 L 14715,14784 L 14629,14788 L 14622,14638 L 14614,14489 z "
             style="fill:#df00ac;fill-opacity:1" />
          <path
             id="path12417"
             d="M 14707,14634 L 14699,14484 L 14715,14484 L 14707,14634 z "
             style="fill:#df00ac;fill-opacity:1" />
          <path
             id="path12419"
             d="M 14715,14484 L 14800,14489 L 14792,14638 L 14785,14788 L 14699,14784 L 14707,14634 L 14715,14484 z "
             style="fill:#df00ac;fill-opacity:1" />
          <path
             id="path12421"
             d="M 14792,14638 L 14800,14489 L 14815,14490 L 14792,14638 z "
             style="fill:#df00ac;fill-opacity:1" />
          <path
             id="path12423"
             d="M 14815,14490 L 14898,14503 L 14875,14651 L 14852,14799 L 14769,14787 L 14792,14638 L 14815,14490 z "
             style="fill:#df00ac;fill-opacity:1" />
          <path
             id="path12425"
             d="M 14875,14651 L 14898,14503 L 14912,14506 L 14875,14651 z "
             style="fill:#df00ac;fill-opacity:1" />
          <path
             id="path12427"
             d="M 14912,14506 L 14992,14526 L 14955,14672 L 14917,14817 L 14837,14796 L 14875,14651 L 14912,14506 z "
             style="fill:#df00ac;fill-opacity:1" />
          <path
             id="path12429"
             d="M 14955,14672 L 14992,14526 L 15006,14531 L 14955,14672 z "
             style="fill:#df00ac;fill-opacity:1" />
          <path
             id="path12431"
             d="M 15006,14531 L 15083,14559 L 15031,14700 L 14980,14840 L 14903,14812 L 14955,14672 L 15006,14531 z "
             style="fill:#df00ac;fill-opacity:1" />
          <path
             id="path12433"
             d="M 15031,14700 L 15083,14559 L 15097,14565 L 15031,14700 z "
             style="fill:#df00ac;fill-opacity:1" />
          <path
             id="path12435"
             d="M 15097,14565 L 15169,14600 L 15104,14735 L 15039,14870 L 14966,14835 L 15031,14700 L 15097,14565 z "
             style="fill:#df00ac;fill-opacity:1" />
          <path
             id="path12437"
             d="M 15104,14735 L 15169,14600 L 15182,14607 L 15104,14735 z "
             style="fill:#df00ac;fill-opacity:1" />
          <path
             id="path12439"
             d="M 15182,14607 L 15251,14648 L 15173,14777 L 15095,14905 L 15026,14863 L 15104,14735 L 15182,14607 z "
             style="fill:#df00ac;fill-opacity:1" />
          <path
             id="path12441"
             d="M 15173,14777 L 15251,14648 L 15263,14656 L 15173,14777 z "
             style="fill:#df00ac;fill-opacity:1" />
          <path
             id="path12443"
             d="M 15263,14656 L 15327,14705 L 15237,14825 L 15147,14945 L 15083,14897 L 15173,14777 L 15263,14656 z "
             style="fill:#df00ac;fill-opacity:1" />
          <path
             id="path12445"
             d="M 15237,14825 L 15327,14705 L 15338,14714 L 15237,14825 z "
             style="fill:#df00ac;fill-opacity:1" />
          <path
             id="path12447"
             d="M 15338,14714 L 15397,14768 L 15297,14879 L 15196,14989 L 15136,14936 L 15237,14825 L 15338,14714 z "
             style="fill:#df00ac;fill-opacity:1" />
          <path
             id="path12449"
             d="M 15297,14879 L 15397,14768 L 15407,14778 L 15297,14879 z "
             style="fill:#df00ac;fill-opacity:1" />
          <path
             id="path12451"
             d="M 15407,14778 L 15461,14837 L 15350,14938 L 15239,15039 L 15186,14979 L 15297,14879 L 15407,14778 z "
             style="fill:#df00ac;fill-opacity:1" />
          <path
             id="path12453"
             d="M 15350,14938 L 15461,14837 L 15470,14848 L 15350,14938 z "
             style="fill:#df00ac;fill-opacity:1" />
          <path
             id="path12455"
             d="M 15470,14848 L 15519,14912 L 15398,15002 L 15278,15092 L 15230,15028 L 15350,14938 L 15470,14848 z "
             style="fill:#df00ac;fill-opacity:1" />
          <path
             id="path12457"
             d="M 15398,15002 L 15519,14912 L 15527,14924 L 15398,15002 z "
             style="fill:#df00ac;fill-opacity:1" />
          <path
             id="path12459"
             d="M 15527,14924 L 15568,14993 L 15440,15071 L 15312,15149 L 15270,15080 L 15398,15002 L 15527,14924 z "
             style="fill:#df00ac;fill-opacity:1" />
          <path
             id="path12461"
             d="M 15440,15071 L 15568,14993 L 15575,15006 L 15440,15071 z "
             style="fill:#df00ac;fill-opacity:1" />
          <path
             id="path12463"
             d="M 15575,15006 L 15610,15078 L 15475,15144 L 15340,15209 L 15305,15136 L 15440,15071 L 15575,15006 z "
             style="fill:#df00ac;fill-opacity:1" />
          <path
             id="path12465"
             d="M 15475,15144 L 15610,15078 L 15616,15092 L 15475,15144 z "
             style="fill:#df00ac;fill-opacity:1" />
          <path
             id="path12467"
             d="M 15616,15092 L 15644,15169 L 15503,15220 L 15363,15272 L 15335,15195 L 15475,15144 L 15616,15092 z "
             style="fill:#df00ac;fill-opacity:1" />
          <path
             id="path12469"
             d="M 15503,15220 L 15644,15169 L 15649,15183 L 15503,15220 z "
             style="fill:#df00ac;fill-opacity:1" />
          <path
             id="path12471"
             d="M 15649,15183 L 15669,15263 L 15524,15300 L 15379,15338 L 15358,15258 L 15503,15220 L 15649,15183 z "
             style="fill:#df00ac;fill-opacity:1" />
          <path
             id="path12473"
             d="M 15524,15300 L 15669,15263 L 15672,15277 L 15524,15300 z "
             style="fill:#df00ac;fill-opacity:1" />
          <path
             id="path12475"
             d="M 15672,15277 L 15685,15360 L 15537,15383 L 15388,15406 L 15376,15323 L 15524,15300 L 15672,15277 z "
             style="fill:#df00ac;fill-opacity:1" />
          <path
             id="path12477"
             d="M 15537,15383 L 15685,15360 L 15686,15375 L 15537,15383 z "
             style="fill:#df00ac;fill-opacity:1" />
          <path
             id="path12479"
             d="M 15686,15375 L 15691,15460 L 15541,15468 L 15391,15476 L 15387,15390 L 15537,15383 L 15686,15375 z "
             style="fill:#df00ac;fill-opacity:1" />
          <path
             id="path12481"
             d="M 15541,15468 L 15691,15460 L 15691,15476 L 15541,15468 z "
             style="fill:#df00ac;fill-opacity:1" />
          <path
             id="path12483"
             d="M 15691,15476 L 15686,15561 L 15537,15553 L 15387,15546 L 15391,15460 L 15541,15468 L 15691,15476 z "
             style="fill:#df00ac;fill-opacity:1" />
          <path
             id="path12485"
             d="M 15537,15553 L 15686,15561 L 15685,15576 L 15537,15553 z "
             style="fill:#df00ac;fill-opacity:1" />
          <path
             id="path12487"
             d="M 15685,15576 L 15672,15659 L 15524,15636 L 15376,15613 L 15388,15530 L 15537,15553 L 15685,15576 z "
             style="fill:#df00ac;fill-opacity:1" />
          <path
             id="path12489"
             d="M 15524,15636 L 15672,15659 L 15669,15673 L 15524,15636 z "
             style="fill:#df00ac;fill-opacity:1" />
          <path
             id="path12491"
             d="M 15669,15673 L 15649,15753 L 15503,15716 L 15358,15678 L 15379,15598 L 15524,15636 L 15669,15673 z "
             style="fill:#df00ac;fill-opacity:1" />
          <path
             id="path12493"
             d="M 15503,15716 L 15649,15753 L 15644,15767 L 15503,15716 z "
             style="fill:#df00ac;fill-opacity:1" />
          <path
             id="path12495"
             d="M 15644,15767 L 15616,15844 L 15475,15792 L 15335,15741 L 15363,15664 L 15503,15716 L 15644,15767 z "
             style="fill:#df00ac;fill-opacity:1" />
          <path
             id="path12497"
             d="M 15475,15792 L 15616,15844 L 15610,15858 L 15475,15792 z "
             style="fill:#df00ac;fill-opacity:1" />
          <path
             id="path12499"
             d="M 15610,15858 L 15575,15930 L 15440,15865 L 15305,15800 L 15340,15727 L 15475,15792 L 15610,15858 z "
             style="fill:#df00ac;fill-opacity:1" />
          <path
             id="path12501"
             d="M 15440,15865 L 15575,15930 L 15568,15943 L 15440,15865 z "
             style="fill:#df00ac;fill-opacity:1" />
          <path
             id="path12503"
             d="M 15568,15943 L 15527,16012 L 15398,15934 L 15270,15856 L 15312,15787 L 15440,15865 L 15568,15943 z "
             style="fill:#df00ac;fill-opacity:1" />
          <path
             id="path12505"
             d="M 15398,15934 L 15527,16012 L 15519,16024 L 15398,15934 z "
             style="fill:#df00ac;fill-opacity:1" />
          <path
             id="path12507"
             d="M 15519,16024 L 15470,16088 L 15350,15998 L 15230,15908 L 15278,15844 L 15398,15934 L 15519,16024 z "
             style="fill:#df00ac;fill-opacity:1" />
          <path
             id="path12509"
             d="M 15350,15998 L 15470,16088 L 15461,16099 L 15350,15998 z "
             style="fill:#df00ac;fill-opacity:1" />
          <path
             id="path12511"
             d="M 15461,16099 L 15407,16158 L 15297,16058 L 15186,15957 L 15239,15897 L 15350,15998 L 15461,16099 z "
             style="fill:#df00ac;fill-opacity:1" />
          <path
             id="path12513"
             d="M 15297,16058 L 15407,16158 L 15397,16168 L 15297,16058 z "
             style="fill:#df00ac;fill-opacity:1" />
          <path
             id="path12515"
             d="M 15397,16168 L 15338,16222 L 15237,16111 L 15136,16000 L 15196,15947 L 15297,16058 L 15397,16168 z "
             style="fill:#df00ac;fill-opacity:1" />
          <path
             id="path12517"
             d="M 15237,16111 L 15338,16222 L 15327,16231 L 15237,16111 z "
             style="fill:#df00ac;fill-opacity:1" />
          <path
             id="path12519"
             d="M 15327,16231 L 15263,16280 L 15173,16159 L 15083,16039 L 15147,15991 L 15237,16111 L 15327,16231 z "
             style="fill:#df00ac;fill-opacity:1" />
          <path
             id="path12521"
             d="M 15173,16159 L 15263,16280 L 15251,16288 L 15173,16159 z "
             style="fill:#df00ac;fill-opacity:1" />
          <path
             id="path12523"
             d="M 15251,16288 L 15182,16329 L 15104,16201 L 15026,16073 L 15095,16031 L 15173,16159 L 15251,16288 z "
             style="fill:#df00ac;fill-opacity:1" />
          <path
             id="path12525"
             d="M 15104,16201 L 15182,16329 L 15169,16336 L 15104,16201 z "
             style="fill:#df00ac;fill-opacity:1" />
          <path
             id="path12527"
             d="M 15169,16336 L 15097,16371 L 15031,16236 L 14966,16101 L 15039,16066 L 15104,16201 L 15169,16336 z "
             style="fill:#df00ac;fill-opacity:1" />
          <path
             id="path12529"
             d="M 15031,16236 L 15097,16371 L 15083,16377 L 15031,16236 z "
             style="fill:#df00ac;fill-opacity:1" />
          <path
             id="path12531"
             d="M 15083,16377 L 15006,16405 L 14955,16264 L 14903,16124 L 14980,16096 L 15031,16236 L 15083,16377 z "
             style="fill:#df00ac;fill-opacity:1" />
          <path
             id="path12533"
             d="M 14955,16264 L 15006,16405 L 14992,16410 L 14955,16264 z "
             style="fill:#df00ac;fill-opacity:1" />
          <path
             id="path12535"
             d="M 14992,16410 L 14912,16430 L 14875,16285 L 14837,16140 L 14917,16119 L 14955,16264 L 14992,16410 z "
             style="fill:#df00ac;fill-opacity:1" />
          <path
             id="path12537"
             d="M 14875,16285 L 14912,16430 L 14898,16433 L 14875,16285 z "
             style="fill:#df00ac;fill-opacity:1" />
          <path
             id="path12539"
             d="M 14898,16433 L 14815,16446 L 14792,16298 L 14769,16149 L 14852,16137 L 14875,16285 L 14898,16433 z "
             style="fill:#df00ac;fill-opacity:1" />
          <path
             id="path12541"
             d="M 14792,16298 L 14815,16446 L 14800,16447 L 14792,16298 z "
             style="fill:#df00ac;fill-opacity:1" />
          <path
             id="path12543"
             d="M 14800,16447 L 14715,16452 L 14707,16302 L 14699,16152 L 14785,16148 L 14792,16298 L 14800,16447 z "
             style="fill:#df00ac;fill-opacity:1" />
          <path
             id="path12545"
             d="M 14707,16302 L 14715,16452 L 14699,16452 L 14707,16302 z "
             style="fill:#df00ac;fill-opacity:1" />
        </g>
        <g
           id="g12547"
           style="fill:#df00ac;fill-opacity:1" />
      </g>
    </g>
    <g
       style="fill:#df00ac;fill-opacity:1;visibility:visible"
       id="g12549"
       transform="matrix(9.288893e-3,0,0,9.288893e-3,-118.4706,-133.544)">
      <desc
         id="desc12551">Drawing</desc>
      <g
         id="g12553"
         style="fill:#df00ac;fill-opacity:1">
        <g
           id="g12555"
           style="fill:#df00ac;fill-opacity:1;stroke:none">
          <path
             id="path12557"
             d="M 14882,16302 L 14882,18111 L 14582,18111 L 14582,16302 L 14882,16302 z "
             style="fill:#df00ac;fill-opacity:1" />
        </g>
        <g
           id="g12559"
           style="fill:#df00ac;fill-opacity:1" />
      </g>
    </g>
    <g
       style="fill:#df00ac;fill-opacity:1;visibility:visible"
       id="g12561"
       transform="matrix(9.288893e-3,0,0,9.288893e-3,-118.4706,-133.544)">
      <desc
         id="desc12563">Drawing</desc>
      <g
         id="g12565"
         style="fill:#df00ac;fill-opacity:1">
        <g
           id="g12567"
           style="fill:#df00ac;fill-opacity:1;stroke:none">
          <path
             id="path12569"
             d="M 13922,17104 L 15546,17104 L 15546,17404 L 13922,17404 L 13922,17104 z "
             style="fill:#df00ac;fill-opacity:1" />
        </g>
        <g
           id="g12571"
           style="fill:#df00ac;fill-opacity:1" />
      </g>
    </g>
  </g>
</svg>
