<?xml version="1.0" encoding="UTF-8" standalone="no"?>
<!-- Created with Inkscape (http://www.inkscape.org/) -->
<svg
   xmlns:dc="http://purl.org/dc/elements/1.1/"
   xmlns:cc="http://web.resource.org/cc/"
   xmlns:rdf="http://www.w3.org/1999/02/22-rdf-syntax-ns#"
   xmlns:svg="http://www.w3.org/2000/svg"
   xmlns="http://www.w3.org/2000/svg"
   xmlns:sodipodi="http://inkscape.sourceforge.net/DTD/sodipodi-0.dtd"
   xmlns:inkscape="http://www.inkscape.org/namespaces/inkscape"
   width="1cm"
   height="1cm"
   id="svg9908"
   sodipodi:version="0.32"
   inkscape:version="0.43"
   version="1.0"
   sodipodi:docbase="/world/proj/Kproj/symsolon/data"
   sodipodi:docname="planet-saturn.svg">
  <defs
     id="defs9910" />
  <sodipodi:namedview
     id="base"
     pagecolor="#000000"
     bordercolor="#666666"
     borderopacity="1.0"
     inkscape:pageopacity="1"
     inkscape:pageshadow="2"
     inkscape:zoom="3.2599421"
     inkscape:cx="-2.2860119"
     inkscape:cy="38.83038"
     inkscape:document-units="px"
     inkscape:current-layer="layer1"
     inkscape:window-width="966"
     inkscape:window-height="589"
     inkscape:window-x="0"
     inkscape:window-y="68" />
  <metadata
     id="metadata9913">
    <rdf:RDF>
      <cc:Work
         rdf:about="">
        <dc:format>image/svg+xml</dc:format>
        <dc:type
           rdf:resource="http://purl.org/dc/dcmitype/StillImage" />
      </cc:Work>
    </rdf:RDF>
  </metadata>
  <g
     inkscape:label="1. réteg"
     inkscape:groupmode="layer"
     id="layer1">
    <g
       style="fill:#00bf77;fill-opacity:1;visibility:visible"
       id="g13537"
       transform="matrix(9.0793e-3,0,0,9.0793e-3,-80.17277,-179.4326)">
      <desc
         id="desc13539">Drawing</desc>
      <g
         id="g13541"
         style="fill:#00bf77;fill-opacity:1">
        <g
           id="g13543"
           style="fill:#00bf77;fill-opacity:1;stroke:none">
          <path
             id="path13545"
             d="M 10460,19873 L 10460,23408 L 10310,23408 L 10160,23408 L 10160,19873 L 10310,19873 L 10460,19873 z "
             style="fill:#00bf77;fill-opacity:1" />
          <path
             id="path13547"
             d="M 10310,23408 L 10460,23414 L 10456,23440 L 10449,23465 L 10437,23488 L 10421,23509 L 10402,23527 L 10379,23541 L 10355,23551 L 10330,23557 L 10304,23558 L 10278,23554 L 10253,23547 L 10230,23535 L 10209,23519 L 10191,23500 L 10177,23477 L 10167,23453 L 10161,23428 L 10160,23408 L 10310,23408 z "
             style="fill:#00bf77;fill-opacity:1" />
          <path
             id="path13549"
             d="M 10160,23402 L 10173,23096 L 10323,23102 L 10473,23108 L 10460,23414 L 10310,23408 L 10160,23402 z "
             style="fill:#00bf77;fill-opacity:1" />
          <path
             id="path13551"
             d="M 10323,23102 L 10173,23096 L 10174,23083 L 10323,23102 z "
             style="fill:#00bf77;fill-opacity:1" />
          <path
             id="path13553"
             d="M 10174,23083 L 10212,22787 L 10361,22806 L 10510,22825 L 10472,23121 L 10323,23102 L 10174,23083 z "
             style="fill:#00bf77;fill-opacity:1" />
          <path
             id="path13555"
             d="M 10361,22806 L 10212,22787 L 10214,22776 L 10361,22806 z "
             style="fill:#00bf77;fill-opacity:1" />
          <path
             id="path13557"
             d="M 10214,22776 L 10242,22635 L 10389,22664 L 10536,22694 L 10508,22835 L 10361,22806 L 10214,22776 z "
             style="fill:#00bf77;fill-opacity:1" />
          <path
             id="path13559"
             d="M 10389,22664 L 10242,22635 L 10244,22627 L 10389,22664 z "
             style="fill:#00bf77;fill-opacity:1" />
          <path
             id="path13561"
             d="M 10244,22627 L 10279,22492 L 10424,22529 L 10569,22566 L 10535,22701 L 10389,22664 L 10244,22627 z "
             style="fill:#00bf77;fill-opacity:1" />
          <path
             id="path13563"
             d="M 10424,22529 L 10279,22492 L 10281,22484 L 10424,22529 z "
             style="fill:#00bf77;fill-opacity:1" />
          <path
             id="path13565"
             d="M 10281,22484 L 10322,22355 L 10465,22400 L 10608,22446 L 10567,22574 L 10424,22529 L 10281,22484 z "
             style="fill:#00bf77;fill-opacity:1" />
          <path
             id="path13567"
             d="M 10465,22400 L 10322,22355 L 10325,22346 L 10465,22400 z "
             style="fill:#00bf77;fill-opacity:1" />
          <path
             id="path13569"
             d="M 10325,22346 L 10371,22226 L 10511,22281 L 10651,22335 L 10604,22455 L 10465,22400 L 10325,22346 z "
             style="fill:#00bf77;fill-opacity:1" />
          <path
             id="path13571"
             d="M 10511,22281 L 10371,22226 L 10376,22216 L 10511,22281 z "
             style="fill:#00bf77;fill-opacity:1" />
          <path
             id="path13573"
             d="M 10376,22216 L 10428,22106 L 10564,22170 L 10699,22235 L 10647,22345 L 10511,22281 L 10376,22216 z "
             style="fill:#00bf77;fill-opacity:1" />
          <path
             id="path13575"
             d="M 10564,22170 L 10428,22106 L 10434,22094 L 10564,22170 z "
             style="fill:#00bf77;fill-opacity:1" />
          <path
             id="path13577"
             d="M 10434,22094 L 10493,21995 L 10622,22071 L 10751,22147 L 10693,22246 L 10564,22170 L 10434,22094 z "
             style="fill:#00bf77;fill-opacity:1" />
          <path
             id="path13579"
             d="M 10622,22071 L 10493,21995 L 10501,21982 L 10622,22071 z "
             style="fill:#00bf77;fill-opacity:1" />
          <path
             id="path13581"
             d="M 10501,21982 L 10565,21895 L 10686,21983 L 10807,22072 L 10743,22159 L 10622,22071 L 10501,21982 z "
             style="fill:#00bf77;fill-opacity:1" />
          <path
             id="path13583"
             d="M 10686,21983 L 10565,21895 L 10577,21880 L 10686,21983 z "
             style="fill:#00bf77;fill-opacity:1" />
          <path
             id="path13585"
             d="M 10577,21880 L 10647,21806 L 10756,21909 L 10865,22012 L 10795,22086 L 10686,21983 L 10577,21880 z "
             style="fill:#00bf77;fill-opacity:1" />
          <path
             id="path13587"
             d="M 10756,21909 L 10647,21806 L 10663,21791 L 10756,21909 z "
             style="fill:#00bf77;fill-opacity:1" />
          <path
             id="path13589"
             d="M 10663,21791 L 10738,21732 L 10831,21849 L 10925,21967 L 10849,22026 L 10756,21909 L 10663,21791 z "
             style="fill:#00bf77;fill-opacity:1" />
          <path
             id="path13591"
             d="M 10831,21849 L 10738,21732 L 10754,21721 L 10831,21849 z "
             style="fill:#00bf77;fill-opacity:1" />
          <path
             id="path13593"
             d="M 10754,21721 L 10793,21697 L 10871,21825 L 10949,21953 L 10909,21977 L 10831,21849 L 10754,21721 z "
             style="fill:#00bf77;fill-opacity:1" />
          <path
             id="path13595"
             d="M 10871,21825 L 10793,21697 L 10806,21690 L 10871,21825 z "
             style="fill:#00bf77;fill-opacity:1" />
          <path
             id="path13597"
             d="M 10806,21690 L 10847,21670 L 10912,21805 L 10978,21940 L 10937,21960 L 10871,21825 L 10806,21690 z "
             style="fill:#00bf77;fill-opacity:1" />
          <path
             id="path13599"
             d="M 10912,21805 L 10847,21670 L 10860,21664 L 10912,21805 z "
             style="fill:#00bf77;fill-opacity:1" />
          <path
             id="path13601"
             d="M 10860,21664 L 10903,21648 L 10955,21789 L 11007,21929 L 10965,21945 L 10912,21805 L 10860,21664 z "
             style="fill:#00bf77;fill-opacity:1" />
          <path
             id="path13603"
             d="M 10955,21789 L 10903,21648 L 10917,21644 L 10955,21789 z "
             style="fill:#00bf77;fill-opacity:1" />
          <path
             id="path13605"
             d="M 10917,21644 L 10961,21632 L 10999,21777 L 11037,21922 L 10993,21934 L 10955,21789 L 10917,21644 z "
             style="fill:#00bf77;fill-opacity:1" />
          <path
             id="path13607"
             d="M 10999,21777 L 10961,21632 L 10976,21629 L 10999,21777 z "
             style="fill:#00bf77;fill-opacity:1" />
          <path
             id="path13609"
             d="M 10976,21629 L 11021,21622 L 11044,21770 L 11067,21919 L 11022,21926 L 10999,21777 L 10976,21629 z "
             style="fill:#00bf77;fill-opacity:1" />
          <path
             id="path13611"
             d="M 11044,21770 L 11021,21622 L 11037,21621 L 11044,21770 z "
             style="fill:#00bf77;fill-opacity:1" />
          <path
             id="path13613"
             d="M 11037,21621 L 11083,21618 L 11091,21768 L 11099,21918 L 11052,21920 L 11044,21770 L 11037,21621 z "
             style="fill:#00bf77;fill-opacity:1" />
          <path
             id="path13615"
             d="M 11091,21768 L 11083,21618 L 11100,21618 L 11091,21768 z "
             style="fill:#00bf77;fill-opacity:1" />
          <path
             id="path13617"
             d="M 11100,21618 L 11146,21621 L 11137,21771 L 11129,21920 L 11082,21918 L 11091,21768 L 11100,21618 z "
             style="fill:#00bf77;fill-opacity:1" />
          <path
             id="path13619"
             d="M 11137,21771 L 11146,21621 L 11164,21623 L 11137,21771 z "
             style="fill:#00bf77;fill-opacity:1" />
          <path
             id="path13621"
             d="M 11164,21623 L 11208,21631 L 11182,21779 L 11156,21926 L 11111,21918 L 11137,21771 L 11164,21623 z "
             style="fill:#00bf77;fill-opacity:1" />
          <path
             id="path13623"
             d="M 11182,21779 L 11208,21631 L 11225,21635 L 11182,21779 z "
             style="fill:#00bf77;fill-opacity:1" />
          <path
             id="path13625"
             d="M 11225,21635 L 11268,21648 L 11224,21791 L 11181,21935 L 11138,21922 L 11182,21779 L 11225,21635 z "
             style="fill:#00bf77;fill-opacity:1" />
          <path
             id="path13627"
             d="M 11224,21791 L 11268,21648 L 11284,21654 L 11224,21791 z "
             style="fill:#00bf77;fill-opacity:1" />
          <path
             id="path13629"
             d="M 11284,21654 L 11325,21672 L 11265,21809 L 11205,21947 L 11165,21929 L 11224,21791 L 11284,21654 z "
             style="fill:#00bf77;fill-opacity:1" />
          <path
             id="path13631"
             d="M 11265,21809 L 11325,21672 L 11340,21679 L 11265,21809 z "
             style="fill:#00bf77;fill-opacity:1" />
          <path
             id="path13633"
             d="M 11340,21679 L 11379,21702 L 11304,21832 L 11230,21962 L 11191,21939 L 11265,21809 L 11340,21679 z "
             style="fill:#00bf77;fill-opacity:1" />
          <path
             id="path13635"
             d="M 11304,21832 L 11379,21702 L 11392,21710 L 11304,21832 z "
             style="fill:#00bf77;fill-opacity:1" />
          <path
             id="path13637"
             d="M 11392,21710 L 11429,21737 L 11342,21859 L 11254,21980 L 11217,21953 L 11304,21832 L 11392,21710 z "
             style="fill:#00bf77;fill-opacity:1" />
          <path
             id="path13639"
             d="M 11342,21859 L 11429,21737 L 11440,21746 L 11342,21859 z "
             style="fill:#00bf77;fill-opacity:1" />
          <path
             id="path13641"
             d="M 11440,21746 L 11476,21777 L 11377,21890 L 11278,22003 L 11243,21971 L 11342,21859 L 11440,21746 z "
             style="fill:#00bf77;fill-opacity:1" />
          <path
             id="path13643"
             d="M 11377,21890 L 11476,21777 L 11485,21786 L 11377,21890 z "
             style="fill:#00bf77;fill-opacity:1" />
          <path
             id="path13645"
             d="M 11485,21786 L 11519,21821 L 11411,21925 L 11303,22029 L 11269,21994 L 11377,21890 L 11485,21786 z "
             style="fill:#00bf77;fill-opacity:1" />
          <path
             id="path13647"
             d="M 11411,21925 L 11519,21821 L 11530,21834 L 11411,21925 z "
             style="fill:#00bf77;fill-opacity:1" />
          <path
             id="path13649"
             d="M 11530,21834 L 11593,21916 L 11474,22007 L 11354,22098 L 11292,22016 L 11411,21925 L 11530,21834 z "
             style="fill:#00bf77;fill-opacity:1" />
          <path
             id="path13651"
             d="M 11474,22007 L 11593,21916 L 11603,21931 L 11474,22007 z "
             style="fill:#00bf77;fill-opacity:1" />
          <path
             id="path13653"
             d="M 11603,21931 L 11659,22028 L 11530,22103 L 11400,22179 L 11344,22083 L 11474,22007 L 11603,21931 z "
             style="fill:#00bf77;fill-opacity:1" />
          <path
             id="path13655"
             d="M 11530,22103 L 11659,22028 L 11666,22041 L 11530,22103 z "
             style="fill:#00bf77;fill-opacity:1" />
          <path
             id="path13657"
             d="M 11666,22041 L 11716,22149 L 11580,22212 L 11443,22275 L 11394,22166 L 11530,22103 L 11666,22041 z "
             style="fill:#00bf77;fill-opacity:1" />
          <path
             id="path13659"
             d="M 11580,22212 L 11716,22149 L 11721,22161 L 11580,22212 z "
             style="fill:#00bf77;fill-opacity:1" />
          <path
             id="path13661"
             d="M 11721,22161 L 11764,22280 L 11624,22332 L 11483,22383 L 11439,22263 L 11580,22212 L 11721,22161 z "
             style="fill:#00bf77;fill-opacity:1" />
          <path
             id="path13663"
             d="M 11624,22332 L 11764,22280 L 11767,22290 L 11624,22332 z "
             style="fill:#00bf77;fill-opacity:1" />
          <path
             id="path13665"
             d="M 11767,22290 L 11805,22419 L 11661,22461 L 11517,22503 L 11480,22374 L 11624,22332 L 11767,22290 z "
             style="fill:#00bf77;fill-opacity:1" />
          <path
             id="path13667"
             d="M 11661,22461 L 11805,22419 L 11807,22427 L 11661,22461 z "
             style="fill:#00bf77;fill-opacity:1" />
          <path
             id="path13669"
             d="M 11807,22427 L 11840,22565 L 11694,22599 L 11547,22633 L 11515,22495 L 11661,22461 L 11807,22427 z "
             style="fill:#00bf77;fill-opacity:1" />
          <path
             id="path13671"
             d="M 11694,22599 L 11840,22565 L 11842,22575 L 11694,22599 z "
             style="fill:#00bf77;fill-opacity:1" />
          <path
             id="path13673"
             d="M 11842,22575 L 11890,22868 L 11742,22892 L 11594,22917 L 11545,22623 L 11694,22599 L 11842,22575 z "
             style="fill:#00bf77;fill-opacity:1" />
          <path
             id="path13675"
             d="M 11742,22892 L 11890,22868 L 11891,22879 L 11742,22892 z "
             style="fill:#00bf77;fill-opacity:1" />
          <path
             id="path13677"
             d="M 11891,22879 L 11919,23187 L 11769,23200 L 11620,23213 L 11592,22906 L 11742,22892 L 11891,22879 z "
             style="fill:#00bf77;fill-opacity:1" />
          <path
             id="path13679"
             d="M 11769,23200 L 11919,23187 L 11919,23196 L 11769,23200 z "
             style="fill:#00bf77;fill-opacity:1" />
          <path
             id="path13681"
             d="M 11919,23196 L 11928,23506 L 11778,23510 L 11628,23514 L 11619,23204 L 11769,23200 L 11919,23196 z "
             style="fill:#00bf77;fill-opacity:1" />
        </g>
        <g
           id="g13683"
           style="fill:#00bf77;fill-opacity:1" />
      </g>
    </g>
    <g
       style="fill:#00bf77;fill-opacity:1;visibility:visible"
       id="g13685"
       transform="matrix(9.0793e-3,0,0,9.0793e-3,-80.17277,-179.4326)">
      <desc
         id="desc13687">Drawing</desc>
      <g
         id="g13689"
         style="fill:#00bf77;fill-opacity:1">
        <g
           id="g13691"
           style="fill:#00bf77;fill-opacity:1;stroke:none">
          <path
             id="path13693"
             d="M 9492,20696 L 11080,20696 L 11080,20996 L 9492,20996 L 9492,20696 z "
             style="fill:#00bf77;fill-opacity:1" />
        </g>
        <g
           id="g13695"
           style="fill:#00bf77;fill-opacity:1" />
      </g>
    </g>
  </g>
</svg>
