<?xml version="1.0" encoding="UTF-8" standalone="no"?>
<!-- Created with Inkscape (http://www.inkscape.org/) -->
<svg
   xmlns:dc="http://purl.org/dc/elements/1.1/"
   xmlns:cc="http://web.resource.org/cc/"
   xmlns:rdf="http://www.w3.org/1999/02/22-rdf-syntax-ns#"
   xmlns:svg="http://www.w3.org/2000/svg"
   xmlns="http://www.w3.org/2000/svg"
   xmlns:sodipodi="http://inkscape.sourceforge.net/DTD/sodipodi-0.dtd"
   xmlns:inkscape="http://www.inkscape.org/namespaces/inkscape"
   width="1cm"
   height="1cm"
   id="svg9908"
   sodipodi:version="0.32"
   inkscape:version="0.43"
   version="1.0"
   sodipodi:docbase="/world/proj/Kproj/symsolon/data"
   sodipodi:docname="planet-ceres.svg">
  <defs
     id="defs9910" />
  <sodipodi:namedview
     id="base"
     pagecolor="#000000"
     bordercolor="#666666"
     borderopacity="1.0"
     inkscape:pageopacity="1"
     inkscape:pageshadow="2"
     inkscape:zoom="11.373555"
     inkscape:cx="17.716536"
     inkscape:cy="17.716536"
     inkscape:document-units="px"
     inkscape:current-layer="layer1"
     inkscape:window-width="966"
     inkscape:window-height="589"
     inkscape:window-x="0"
     inkscape:window-y="68" />
  <metadata
     id="metadata9913">
    <rdf:RDF>
      <cc:Work
         rdf:about="">
        <dc:format>image/svg+xml</dc:format>
        <dc:type
           rdf:resource="http://purl.org/dc/dcmitype/StillImage" />
      </cc:Work>
    </rdf:RDF>
  </metadata>
  <g
     inkscape:label="1. réteg"
     inkscape:groupmode="layer"
     id="layer1">
    <g
       transform="matrix(9.886568e-3,0,0,9.886568e-3,-50.10076,-24.03882)"
       style="fill:#949494;fill-opacity:1;visibility:visible"
       id="g503">
      <desc
         id="desc505">Drawing</desc>
      <g
         id="g507"
         style="fill:#949494;fill-opacity:1">
        <g
           id="g509"
           style="fill:#949494;fill-opacity:1;stroke:none">
          <path
             id="path511"
             d="M 5539,4865 L 8349,4865 L 8349,5165 L 5539,5165 L 5539,4865 z "
             style="fill:#949494;fill-opacity:1" />
        </g>
        <g
           id="g513"
           style="fill:#949494;fill-opacity:1" />
      </g>
    </g>
    <g
       transform="matrix(9.886568e-3,0,0,9.886568e-3,-50.10076,-24.03882)"
       style="fill:#949494;fill-opacity:1;visibility:visible"
       id="g515">
      <desc
         id="desc517">Drawing</desc>
      <g
         id="g519"
         style="fill:#949494;fill-opacity:1">
        <g
           id="g521"
           style="fill:#949494;fill-opacity:1;stroke:none">
          <path
             id="path523"
             d="M 5866,3580 L 5872,3444 L 6022,3451 L 6172,3457 L 6166,3594 L 6016,3587 L 5866,3580 z "
             style="fill:#949494;fill-opacity:1" />
          <path
             id="path525"
             d="M 6022,3451 L 5872,3444 L 5874,3430 L 6022,3451 z "
             style="fill:#949494;fill-opacity:1" />
          <path
             id="path527"
             d="M 5874,3430 L 5891,3306 L 6040,3327 L 6188,3348 L 6171,3472 L 6022,3451 L 5874,3430 z "
             style="fill:#949494;fill-opacity:1" />
          <path
             id="path529"
             d="M 6040,3327 L 5891,3306 L 5894,3291 L 6040,3327 z "
             style="fill:#949494;fill-opacity:1" />
          <path
             id="path531"
             d="M 5894,3291 L 5922,3180 L 6067,3216 L 6213,3253 L 6185,3364 L 6040,3327 L 5894,3291 z "
             style="fill:#949494;fill-opacity:1" />
          <path
             id="path533"
             d="M 6067,3216 L 5922,3180 L 5927,3164 L 6067,3216 z "
             style="fill:#949494;fill-opacity:1" />
          <path
             id="path535"
             d="M 5927,3164 L 5964,3064 L 6105,3117 L 6245,3169 L 6208,3269 L 6067,3216 L 5927,3164 z "
             style="fill:#949494;fill-opacity:1" />
          <path
             id="path537"
             d="M 6105,3117 L 5964,3064 L 5971,3048 L 6105,3117 z "
             style="fill:#949494;fill-opacity:1" />
          <path
             id="path539"
             d="M 5971,3048 L 6016,2960 L 6150,3029 L 6283,3097 L 6238,3185 L 6105,3117 L 5971,3048 z "
             style="fill:#949494;fill-opacity:1" />
          <path
             id="path541"
             d="M 6150,3029 L 6016,2960 L 6026,2945 L 6150,3029 z "
             style="fill:#949494;fill-opacity:1" />
          <path
             id="path543"
             d="M 6026,2945 L 6078,2867 L 6202,2951 L 6327,3035 L 6274,3112 L 6150,3029 L 6026,2945 z "
             style="fill:#949494;fill-opacity:1" />
          <path
             id="path545"
             d="M 6202,2951 L 6078,2867 L 6089,2853 L 6202,2951 z "
             style="fill:#949494;fill-opacity:1" />
          <path
             id="path547"
             d="M 6089,2853 L 6147,2785 L 6261,2883 L 6374,2981 L 6316,3049 L 6202,2951 L 6089,2853 z "
             style="fill:#949494;fill-opacity:1" />
          <path
             id="path549"
             d="M 6261,2883 L 6147,2785 L 6159,2773 L 6261,2883 z "
             style="fill:#949494;fill-opacity:1" />
          <path
             id="path551"
             d="M 6159,2773 L 6222,2715 L 6324,2825 L 6425,2936 L 6362,2994 L 6261,2883 L 6159,2773 z "
             style="fill:#949494;fill-opacity:1" />
          <path
             id="path553"
             d="M 6324,2825 L 6222,2715 L 6235,2704 L 6324,2825 z "
             style="fill:#949494;fill-opacity:1" />
          <path
             id="path555"
             d="M 6235,2704 L 6302,2655 L 6391,2776 L 6479,2897 L 6413,2946 L 6324,2825 L 6235,2704 z "
             style="fill:#949494;fill-opacity:1" />
          <path
             id="path557"
             d="M 6391,2776 L 6302,2655 L 6315,2647 L 6391,2776 z "
             style="fill:#949494;fill-opacity:1" />
          <path
             id="path559"
             d="M 6315,2647 L 6385,2606 L 6460,2735 L 6536,2865 L 6467,2906 L 6391,2776 L 6315,2647 z "
             style="fill:#949494;fill-opacity:1" />
          <path
             id="path561"
             d="M 6460,2735 L 6385,2606 L 6397,2599 L 6460,2735 z "
             style="fill:#949494;fill-opacity:1" />
          <path
             id="path563"
             d="M 6397,2599 L 6469,2566 L 6532,2702 L 6595,2838 L 6523,2871 L 6460,2735 L 6397,2599 z "
             style="fill:#949494;fill-opacity:1" />
          <path
             id="path565"
             d="M 6532,2702 L 6469,2566 L 6481,2561 L 6532,2702 z "
             style="fill:#949494;fill-opacity:1" />
          <path
             id="path567"
             d="M 6481,2561 L 6553,2535 L 6603,2677 L 6654,2818 L 6582,2844 L 6532,2702 L 6481,2561 z "
             style="fill:#949494;fill-opacity:1" />
          <path
             id="path569"
             d="M 6603,2677 L 6553,2535 L 6564,2532 L 6603,2677 z "
             style="fill:#949494;fill-opacity:1" />
          <path
             id="path571"
             d="M 6564,2532 L 6636,2513 L 6674,2658 L 6713,2802 L 6642,2821 L 6603,2677 L 6564,2532 z "
             style="fill:#949494;fill-opacity:1" />
          <path
             id="path573"
             d="M 6674,2658 L 6636,2513 L 6647,2510 L 6674,2658 z "
             style="fill:#949494;fill-opacity:1" />
          <path
             id="path575"
             d="M 6647,2510 L 6716,2497 L 6744,2645 L 6771,2792 L 6702,2805 L 6674,2658 L 6647,2510 z "
             style="fill:#949494;fill-opacity:1" />
          <path
             id="path577"
             d="M 6744,2645 L 6716,2497 L 6727,2496 L 6744,2645 z "
             style="fill:#949494;fill-opacity:1" />
          <path
             id="path579"
             d="M 6727,2496 L 6794,2488 L 6810,2637 L 6827,2786 L 6760,2794 L 6744,2645 L 6727,2496 z "
             style="fill:#949494;fill-opacity:1" />
          <path
             id="path581"
             d="M 6810,2637 L 6794,2488 L 6805,2487 L 6810,2637 z "
             style="fill:#949494;fill-opacity:1" />
          <path
             id="path583"
             d="M 6805,2487 L 6867,2485 L 6873,2635 L 6879,2785 L 6816,2787 L 6810,2637 L 6805,2487 z "
             style="fill:#949494;fill-opacity:1" />
          <path
             id="path585"
             d="M 6873,2635 L 6867,2485 L 6881,2485 L 6873,2635 z "
             style="fill:#949494;fill-opacity:1" />
          <path
             id="path587"
             d="M 6881,2485 L 6943,2489 L 6935,2638 L 6927,2788 L 6865,2785 L 6873,2635 L 6881,2485 z "
             style="fill:#949494;fill-opacity:1" />
          <path
             id="path589"
             d="M 6935,2638 L 6943,2489 L 6958,2490 L 6935,2638 z "
             style="fill:#949494;fill-opacity:1" />
          <path
             id="path591"
             d="M 6958,2490 L 7025,2500 L 7003,2648 L 6981,2797 L 6913,2787 L 6935,2638 L 6958,2490 z "
             style="fill:#949494;fill-opacity:1" />
          <path
             id="path593"
             d="M 7003,2648 L 7025,2500 L 7038,2503 L 7003,2648 z "
             style="fill:#949494;fill-opacity:1" />
          <path
             id="path595"
             d="M 7038,2503 L 7109,2519 L 7074,2665 L 7040,2811 L 6968,2794 L 7003,2648 L 7038,2503 z "
             style="fill:#949494;fill-opacity:1" />
          <path
             id="path597"
             d="M 7074,2665 L 7109,2519 L 7120,2523 L 7074,2665 z "
             style="fill:#949494;fill-opacity:1" />
          <path
             id="path599"
             d="M 7120,2523 L 7194,2546 L 7148,2689 L 7102,2832 L 7028,2808 L 7074,2665 L 7120,2523 z "
             style="fill:#949494;fill-opacity:1" />
          <path
             id="path601"
             d="M 7148,2689 L 7194,2546 L 7205,2550 L 7148,2689 z "
             style="fill:#949494;fill-opacity:1" />
          <path
             id="path603"
             d="M 7205,2550 L 7280,2581 L 7223,2720 L 7167,2859 L 7091,2828 L 7148,2689 L 7205,2550 z "
             style="fill:#949494;fill-opacity:1" />
          <path
             id="path605"
             d="M 7223,2720 L 7280,2581 L 7291,2586 L 7223,2720 z "
             style="fill:#949494;fill-opacity:1" />
          <path
             id="path607"
             d="M 7291,2586 L 7366,2624 L 7299,2758 L 7231,2892 L 7156,2854 L 7223,2720 L 7291,2586 z "
             style="fill:#949494;fill-opacity:1" />
          <path
             id="path609"
             d="M 7299,2758 L 7366,2624 L 7376,2630 L 7299,2758 z "
             style="fill:#949494;fill-opacity:1" />
          <path
             id="path611"
             d="M 7376,2630 L 7451,2675 L 7373,2803 L 7295,2931 L 7221,2886 L 7299,2758 L 7376,2630 z "
             style="fill:#949494;fill-opacity:1" />
          <path
             id="path613"
             d="M 7373,2803 L 7451,2675 L 7461,2681 L 7373,2803 z "
             style="fill:#949494;fill-opacity:1" />
          <path
             id="path615"
             d="M 7461,2681 L 7533,2734 L 7444,2855 L 7356,2976 L 7284,2924 L 7373,2803 L 7461,2681 z "
             style="fill:#949494;fill-opacity:1" />
          <path
             id="path617"
             d="M 7444,2855 L 7533,2734 L 7543,2742 L 7444,2855 z "
             style="fill:#949494;fill-opacity:1" />
          <path
             id="path619"
             d="M 7543,2742 L 7611,2801 L 7512,2914 L 7414,3027 L 7346,2968 L 7444,2855 L 7543,2742 z "
             style="fill:#949494;fill-opacity:1" />
          <path
             id="path621"
             d="M 7512,2914 L 7611,2801 L 7621,2811 L 7512,2914 z "
             style="fill:#949494;fill-opacity:1" />
          <path
             id="path623"
             d="M 7621,2811 L 7684,2878 L 7575,2981 L 7466,3084 L 7403,3017 L 7512,2914 L 7621,2811 z "
             style="fill:#949494;fill-opacity:1" />
          <path
             id="path625"
             d="M 7575,2981 L 7684,2878 L 7694,2890 L 7575,2981 z "
             style="fill:#949494;fill-opacity:1" />
          <path
             id="path627"
             d="M 7694,2890 L 7751,2964 L 7632,3055 L 7513,3146 L 7456,3072 L 7575,2981 L 7694,2890 z "
             style="fill:#949494;fill-opacity:1" />
          <path
             id="path629"
             d="M 7632,3055 L 7751,2964 L 7760,2978 L 7632,3055 z "
             style="fill:#949494;fill-opacity:1" />
          <path
             id="path631"
             d="M 7760,2978 L 7810,3059 L 7681,3137 L 7553,3214 L 7504,3133 L 7632,3055 L 7760,2978 z "
             style="fill:#949494;fill-opacity:1" />
          <path
             id="path633"
             d="M 7681,3137 L 7810,3059 L 7818,3075 L 7681,3137 z "
             style="fill:#949494;fill-opacity:1" />
          <path
             id="path635"
             d="M 7818,3075 L 7858,3164 L 7722,3226 L 7585,3288 L 7545,3199 L 7681,3137 L 7818,3075 z "
             style="fill:#949494;fill-opacity:1" />
          <path
             id="path637"
             d="M 7722,3226 L 7858,3164 L 7865,3181 L 7722,3226 z "
             style="fill:#949494;fill-opacity:1" />
          <path
             id="path639"
             d="M 7865,3181 L 7895,3277 L 7752,3322 L 7609,3368 L 7579,3271 L 7722,3226 L 7865,3181 z "
             style="fill:#949494;fill-opacity:1" />
          <path
             id="path641"
             d="M 7752,3322 L 7895,3277 L 7900,3295 L 7752,3322 z "
             style="fill:#949494;fill-opacity:1" />
          <path
             id="path643"
             d="M 7900,3295 L 7919,3400 L 7771,3427 L 7624,3454 L 7605,3350 L 7752,3322 L 7900,3295 z "
             style="fill:#949494;fill-opacity:1" />
          <path
             id="path645"
             d="M 7771,3427 L 7919,3400 L 7921,3418 L 7771,3427 z "
             style="fill:#949494;fill-opacity:1" />
          <path
             id="path647"
             d="M 7921,3418 L 7928,3530 L 7778,3539 L 7628,3548 L 7622,3436 L 7771,3427 L 7921,3418 z "
             style="fill:#949494;fill-opacity:1" />
          <path
             id="path649"
             d="M 7778,3539 L 7928,3530 L 7928,3544 L 7778,3539 z "
             style="fill:#949494;fill-opacity:1" />
          <path
             id="path651"
             d="M 7928,3544 L 7924,3657 L 7774,3652 L 7624,3647 L 7628,3534 L 7778,3539 L 7928,3544 z "
             style="fill:#949494;fill-opacity:1" />
          <path
             id="path653"
             d="M 7774,3652 L 7924,3657 L 7923,3668 L 7774,3652 z "
             style="fill:#949494;fill-opacity:1" />
          <path
             id="path655"
             d="M 7923,3668 L 7912,3776 L 7763,3760 L 7613,3744 L 7625,3636 L 7774,3652 L 7923,3668 z "
             style="fill:#949494;fill-opacity:1" />
          <path
             id="path657"
             d="M 7763,3760 L 7912,3776 L 7910,3787 L 7763,3760 z "
             style="fill:#949494;fill-opacity:1" />
          <path
             id="path659"
             d="M 7910,3787 L 7891,3889 L 7743,3861 L 7596,3833 L 7615,3732 L 7763,3760 L 7910,3787 z "
             style="fill:#949494;fill-opacity:1" />
          <path
             id="path661"
             d="M 7743,3861 L 7891,3889 L 7888,3901 L 7743,3861 z "
             style="fill:#949494;fill-opacity:1" />
          <path
             id="path663"
             d="M 7888,3901 L 7862,3997 L 7717,3956 L 7573,3916 L 7599,3821 L 7743,3861 L 7888,3901 z "
             style="fill:#949494;fill-opacity:1" />
          <path
             id="path665"
             d="M 7717,3956 L 7862,3997 L 7857,4010 L 7717,3956 z "
             style="fill:#949494;fill-opacity:1" />
          <path
             id="path667"
             d="M 7857,4010 L 7824,4098 L 7683,4045 L 7543,3992 L 7577,3903 L 7717,3956 L 7857,4010 z "
             style="fill:#949494;fill-opacity:1" />
          <path
             id="path669"
             d="M 7683,4045 L 7824,4098 L 7818,4112 L 7683,4045 z "
             style="fill:#949494;fill-opacity:1" />
          <path
             id="path671"
             d="M 7818,4112 L 7777,4194 L 7642,4127 L 7508,4061 L 7549,3978 L 7683,4045 L 7818,4112 z "
             style="fill:#949494;fill-opacity:1" />
          <path
             id="path673"
             d="M 7642,4127 L 7777,4194 L 7769,4208 L 7642,4127 z "
             style="fill:#949494;fill-opacity:1" />
          <path
             id="path675"
             d="M 7769,4208 L 7721,4283 L 7595,4203 L 7468,4122 L 7516,4047 L 7642,4127 L 7769,4208 z "
             style="fill:#949494;fill-opacity:1" />
          <path
             id="path677"
             d="M 7595,4203 L 7721,4283 L 7712,4296 L 7595,4203 z "
             style="fill:#949494;fill-opacity:1" />
          <path
             id="path679"
             d="M 7712,4296 L 7657,4365 L 7540,4271 L 7423,4177 L 7478,4109 L 7595,4203 L 7712,4296 z "
             style="fill:#949494;fill-opacity:1" />
          <path
             id="path681"
             d="M 7540,4271 L 7657,4365 L 7646,4377 L 7540,4271 z "
             style="fill:#949494;fill-opacity:1" />
          <path
             id="path683"
             d="M 7646,4377 L 7584,4439 L 7479,4332 L 7373,4226 L 7434,4165 L 7540,4271 L 7646,4377 z "
             style="fill:#949494;fill-opacity:1" />
          <path
             id="path685"
             d="M 7479,4332 L 7584,4439 L 7572,4450 L 7479,4332 z "
             style="fill:#949494;fill-opacity:1" />
          <path
             id="path687"
             d="M 7572,4450 L 7504,4504 L 7411,4386 L 7318,4268 L 7386,4214 L 7479,4332 L 7572,4450 z "
             style="fill:#949494;fill-opacity:1" />
          <path
             id="path689"
             d="M 7411,4386 L 7504,4504 L 7490,4513 L 7411,4386 z "
             style="fill:#949494;fill-opacity:1" />
          <path
             id="path691"
             d="M 7490,4513 L 7415,4559 L 7336,4432 L 7258,4304 L 7332,4258 L 7411,4386 L 7490,4513 z "
             style="fill:#949494;fill-opacity:1" />
          <path
             id="path693"
             d="M 7336,4432 L 7415,4559 L 7400,4567 L 7336,4432 z "
             style="fill:#949494;fill-opacity:1" />
          <path
             id="path695"
             d="M 7400,4567 L 7320,4605 L 7256,4470 L 7192,4334 L 7272,4296 L 7336,4432 L 7400,4567 z "
             style="fill:#949494;fill-opacity:1" />
          <path
             id="path697"
             d="M 7256,4470 L 7320,4605 L 7305,4612 L 7256,4470 z "
             style="fill:#949494;fill-opacity:1" />
          <path
             id="path699"
             d="M 7305,4612 L 7218,4642 L 7169,4500 L 7120,4358 L 7207,4328 L 7256,4470 L 7305,4612 z "
             style="fill:#949494;fill-opacity:1" />
          <path
             id="path701"
             d="M 7169,4500 L 7218,4642 L 7203,4646 L 7169,4500 z "
             style="fill:#949494;fill-opacity:1" />
          <path
             id="path703"
             d="M 7203,4646 L 7110,4667 L 7076,4521 L 7042,4375 L 7135,4354 L 7169,4500 L 7203,4646 z "
             style="fill:#949494;fill-opacity:1" />
          <path
             id="path705"
             d="M 7076,4521 L 7110,4667 L 7096,4670 L 7076,4521 z "
             style="fill:#949494;fill-opacity:1" />
          <path
             id="path707"
             d="M 7096,4670 L 6997,4683 L 6977,4535 L 6958,4386 L 7056,4373 L 7076,4521 L 7096,4670 z "
             style="fill:#949494;fill-opacity:1" />
          <path
             id="path709"
             d="M 6977,4535 L 6997,4683 L 6984,4684 L 6977,4535 z "
             style="fill:#949494;fill-opacity:1" />
          <path
             id="path711"
             d="M 6984,4684 L 6879,4689 L 6873,4539 L 6867,4389 L 6971,4385 L 6977,4535 L 6984,4684 z "
             style="fill:#949494;fill-opacity:1" />
        </g>
        <g
           id="g713"
           style="fill:#949494;fill-opacity:1" />
      </g>
    </g>
    <g
       transform="matrix(9.886568e-3,0,0,9.886568e-3,-50.10076,-24.03882)"
       style="fill:#949494;fill-opacity:1;visibility:visible"
       id="g715">
      <desc
         id="desc717">Drawing</desc>
      <g
         id="g719"
         style="fill:#949494;fill-opacity:1">
        <g
           id="g721"
           style="fill:#949494;fill-opacity:1;stroke:none">
          <path
             id="path723"
             d="M 6723,5968 L 6723,4349 L 7023,4349 L 7023,5968 L 6723,5968 z "
             style="fill:#949494;fill-opacity:1" />
        </g>
        <g
           id="g725"
           style="fill:#949494;fill-opacity:1" />
      </g>
    </g>
  </g>
</svg>
