<svg width="768" height="768" viewBox="0 0 768 768" fill="none" xmlns="http://www.w3.org/2000/svg">
  <defs>
    <!-- Metallic copper gradient -->
    <linearGradient id="copperGradient" x1="0%" y1="0%" x2="100%" y2="100%">
      <stop offset="0%" style="stop-color:#E8B598"/>
      <stop offset="30%" style="stop-color:#D4A574"/>
      <stop offset="70%" style="stop-color:#C19A6B"/>
      <stop offset="100%" style="stop-color:#B8956A"/>
    </linearGradient>
    
    <!-- Radial glow for celestial bodies -->
    <radialGradient id="planetGlow" cx="50%" cy="50%" r="50%">
      <stop offset="0%" style="stop-color:#FFD700;stop-opacity:0.8"/>
      <stop offset="50%" style="stop-color:#FFA500;stop-opacity:0.4"/>
      <stop offset="100%" style="stop-color:#FF6B35;stop-opacity:0"/>
    </radialGradient>
    
    <radialGradient id="blueGlow" cx="50%" cy="50%" r="50%">
      <stop offset="0%" style="stop-color:#4DA6FF;stop-opacity:0.9"/>
      <stop offset="100%" style="stop-color:#1E5A8E;stop-opacity:0.3"/>
    </radialGradient>
    
    <!-- Star glow -->
    <radialGradient id="starGlow" cx="50%" cy="50%" r="50%">
      <stop offset="0%" style="stop-color:#FFF8DC;stop-opacity:1"/>
      <stop offset="100%" style="stop-color:#FFD700;stop-opacity:0"/>
    </radialGradient>

    <!-- Filter for glow effect -->
    <filter id="glow" x="-50%" y="-50%" width="200%" height="200%">
      <feGaussianBlur stdDeviation="4" result="coloredBlur"/>
      <feMerge>
        <feMergeNode in="coloredBlur"/>
        <feMergeNode in="SourceGraphic"/>
      </feMerge>
    </filter>
  </defs>
  
  <!-- Dark cosmic background -->
  <rect width="768" height="768" fill="#0A0E1A"/>
  
  <!-- Starfield -->
  <circle cx="120" cy="80" r="1.5" fill="#FFF8DC" opacity="0.8"/>
  <circle cx="650" cy="120" r="1" fill="#FFF8DC" opacity="0.6"/>
  <circle cx="100" cy="600" r="1.2" fill="#FFF8DC" opacity="0.7"/>
  <circle cx="680" cy="650" r="1" fill="#FFF8DC" opacity="0.5"/>
  <circle cx="200" cy="200" r="0.8" fill="#FFF8DC" opacity="0.6"/>
  <circle cx="570" cy="220" r="1" fill="#FFF8DC" opacity="0.7"/>
  <circle cx="150" cy="450" r="1.2" fill="#FFF8DC" opacity="0.6"/>
  <circle cx="620" cy="480" r="0.9" fill="#FFF8DC" opacity="0.8"/>
  
  <!-- Outer ornate border (Celtic knotwork pattern) -->
  <circle cx="384" cy="384" r="350" fill="none" stroke="url(#copperGradient)" stroke-width="8" opacity="0.9"/>
  <circle cx="384" cy="384" r="340" fill="none" stroke="url(#copperGradient)" stroke-width="2" opacity="0.6"/>
  <circle cx="384" cy="384" r="330" fill="none" stroke="url(#copperGradient)" stroke-width="1" opacity="0.4"/>
  
  <!-- Celtic knot pattern (simplified weaving) -->
  <g opacity="0.8" stroke="url(#copperGradient)" fill="none" stroke-width="3">
    <!-- Top weave pattern -->
    <path d="M 384 34 Q 420 50 440 80 Q 450 110 440 140" stroke-linecap="round"/>
    <path d="M 384 34 Q 348 50 328 80 Q 318 110 328 140" stroke-linecap="round"/>
    
    <!-- Right weave pattern -->
    <path d="M 734 384 Q 718 420 688 440 Q 658 450 628 440" stroke-linecap="round"/>
    <path d="M 734 384 Q 718 348 688 328 Q 658 318 628 328" stroke-linecap="round"/>
    
    <!-- Bottom weave pattern -->
    <path d="M 384 734 Q 420 718 440 688 Q 450 658 440 628" stroke-linecap="round"/>
    <path d="M 384 734 Q 348 718 328 688 Q 318 658 328 628" stroke-linecap="round"/>
    
    <!-- Left weave pattern -->
    <path d="M 34 384 Q 50 420 80 440 Q 110 450 140 440" stroke-linecap="round"/>
    <path d="M 34 384 Q 50 348 80 328 Q 110 318 140 328" stroke-linecap="round"/>
  </g>
  
  <!-- Inner dark circle -->
  <circle cx="384" cy="384" r="310" fill="#1A1F2E" opacity="0.95"/>
  
  <!-- Tree of Life -->
  <g id="tree-of-life" filter="url(#glow)">
    <!-- Trunk (twisted, braided) -->
    <path d="M 374 384 Q 370 420 372 460 Q 374 500 370 540 L 398 540 Q 394 500 396 460 Q 398 420 394 384 Z" 
          fill="url(#copperGradient)" opacity="0.9"/>
    <ellipse cx="384" cy="384" rx="15" ry="20" fill="url(#copperGradient)" opacity="0.8"/>
    
    <!-- Roots (bottom, spreading) -->
    <path d="M 370 540 Q 340 560 310 580 Q 280 600 250 610" 
          stroke="url(#copperGradient)" stroke-width="4" fill="none" opacity="0.8" stroke-linecap="round"/>
    <path d="M 375 545 Q 360 570 340 590" 
          stroke="url(#copperGradient)" stroke-width="3" fill="none" opacity="0.7" stroke-linecap="round"/>
    <path d="M 398 540 Q 428 560 458 580 Q 488 600 518 610" 
          stroke="url(#copperGradient)" stroke-width="4" fill="none" opacity="0.8" stroke-linecap="round"/>
    <path d="M 393 545 Q 408 570 428 590" 
          stroke="url(#copperGradient)" stroke-width="3" fill="none" opacity="0.7" stroke-linecap="round"/>
    <path d="M 384 550 Q 384 580 380 600" 
          stroke="url(#copperGradient)" stroke-width="3" fill="none" opacity="0.6" stroke-linecap="round"/>
    
    <!-- Root spirals (mystical detail) -->
    <circle cx="250" cy="610" r="3" fill="url(#copperGradient)" opacity="0.6"/>
    <circle cx="518" cy="610" r="3" fill="url(#copperGradient)" opacity="0.6"/>
    
    <!-- Branches (top, spreading with spirals) -->
    <!-- Left main branch -->
    <path d="M 374 384 Q 340 360 310 340 Q 280 320 250 310" 
          stroke="url(#copperGradient)" stroke-width="5" fill="none" opacity="0.9" stroke-linecap="round"/>
    <path d="M 310 340 Q 300 320 290 300" 
          stroke="url(#copperGradient)" stroke-width="3" fill="none" opacity="0.7" stroke-linecap="round"/>
    <path d="M 310 340 Q 290 350 270 355" 
          stroke="url(#copperGradient)" stroke-width="3" fill="none" opacity="0.7" stroke-linecap="round"/>
    
    <!-- Right main branch -->
    <path d="M 394 384 Q 428 360 458 340 Q 488 320 518 310" 
          stroke="url(#copperGradient)" stroke-width="5" fill="none" opacity="0.9" stroke-linecap="round"/>
    <path d="M 458 340 Q 468 320 478 300" 
          stroke="url(#copperGradient)" stroke-width="3" fill="none" opacity="0.7" stroke-linecap="round"/>
    <path d="M 458 340 Q 478 350 498 355" 
          stroke="url(#copperGradient)" stroke-width="3" fill="none" opacity="0.7" stroke-linecap="round"/>
    
    <!-- Upper branches with spirals -->
    <path d="M 375 384 Q 360 340 350 300 Q 345 270 340 240" 
          stroke="url(#copperGradient)" stroke-width="4" fill="none" opacity="0.8" stroke-linecap="round"/>
    <path d="M 393 384 Q 408 340 418 300 Q 423 270 428 240" 
          stroke="url(#copperGradient)" stroke-width="4" fill="none" opacity="0.8" stroke-linecap="round"/>
    
    <!-- Center top branch with star -->
    <path d="M 384 384 Q 384 340 384 300 Q 384 260 384 220" 
          stroke="url(#copperGradient)" stroke-width="4" fill="none" opacity="0.9" stroke-linecap="round"/>
    
    <!-- Branch spirals (mystical swirls) -->
    <g opacity="0.6" stroke="url(#copperGradient)" fill="none" stroke-width="1.5">
      <path d="M 290 300 Q 285 295 280 290 Q 275 285 275 280" stroke-linecap="round"/>
      <path d="M 478 300 Q 483 295 488 290 Q 493 285 493 280" stroke-linecap="round"/>
      <path d="M 270 355 Q 265 360 260 365" stroke-linecap="round"/>
      <path d="M 498 355 Q 503 360 508 365" stroke-linecap="round"/>
      <path d="M 340 590 Q 335 595 330 600" stroke-linecap="round"/>
      <path d="M 428 590 Q 433 595 438 600" stroke-linecap="round"/>
    </g>
  </g>
  
  <!-- Celestial bodies integrated into tree -->
  <!-- Top star (8-pointed) -->
  <g id="top-star">
    <circle cx="384" cy="200" r="8" fill="url(#starGlow)" filter="url(#glow)"/>
    <path d="M 384 190 L 386 198 L 394 200 L 386 202 L 384 210 L 382 202 L 374 200 L 382 198 Z" 
          fill="#FFF8DC" opacity="0.9"/>
  </g>
  
  <!-- Left star -->
  <circle cx="270" cy="280" r="4" fill="url(#starGlow)" opacity="0.8"/>
  <path d="M 270 276 L 271 279 L 274 280 L 271 281 L 270 284 L 269 281 L 266 280 L 269 279 Z" 
        fill="#FFF8DC" opacity="0.8"/>
  
  <!-- Right star -->
  <circle cx="498" cy="280" r="4" fill="url(#starGlow)" opacity="0.8"/>
  <path d="M 498 276 L 499 279 L 502 280 L 499 281 L 498 284 L 497 281 L 494 280 L 497 279 Z" 
        fill="#FFF8DC" opacity="0.8"/>
  
  <!-- Planets -->
  <!-- Orange planet (left upper) -->
  <circle cx="230" cy="250" r="10" fill="url(#planetGlow)" filter="url(#glow)"/>
  <circle cx="230" cy="250" r="8" fill="#FF8C42" opacity="0.9"/>
  
  <!-- Blue planet (right upper) -->
  <circle cx="538" cy="200" r="12" fill="url(#blueGlow)" filter="url(#glow)"/>
  <circle cx="538" cy="200" r="10" fill="#4DA6FF" opacity="0.9"/>
  
  <!-- Saturn with rings (right) -->
  <circle cx="530" cy="350" r="14" fill="#E8B598" opacity="0.9" filter="url(#glow)"/>
  <ellipse cx="530" cy="350" rx="25" ry="7" fill="none" stroke="#D4A574" stroke-width="2.5" opacity="0.8"/>
  <ellipse cx="530" cy="350" rx="20" ry="5" fill="none" stroke="#C19A6B" stroke-width="1.5" opacity="0.6"/>
  
  <!-- Orange planet (left lower) -->
  <circle cx="280" cy="420" r="9" fill="url(#planetGlow)" filter="url(#glow)"/>
  <circle cx="280" cy="420" r="7" fill="#FFA500" opacity="0.9"/>
  
  <!-- Small golden stars scattered -->
  <circle cx="320" cy="260" r="2" fill="#FFD700" opacity="0.7"/>
  <circle cx="450" cy="320" r="2" fill="#FFD700" opacity="0.6"/>
  <circle cx="340" cy="480" r="2" fill="#FFD700" opacity="0.7"/>
  <circle cx="440" cy="450" r="2" fill="#FFD700" opacity="0.6"/>
  
  <!-- Text: ROOTS REVEALED (curved along bottom) -->
  <path id="textPath" d="M 150 600 Q 384 680 618 600" fill="none"/>
  <text font-family="'Cinzel', 'Trajan Pro', 'Palatino', serif" 
        font-size="58" 
        font-weight="600"
        letter-spacing="12"
        fill="url(#copperGradient)" 
        filter="url(#glow)">
    <textPath href="#textPath" startOffset="50%" text-anchor="middle">
      ROOTS REVEALED
    </textPath>
  </text>
</svg>
