<?xml version="1.0" encoding="UTF-8" standalone="no"?>
<!-- Created with Inkscape (http://www.inkscape.org/) -->
<svg
   xmlns:dc="http://purl.org/dc/elements/1.1/"
   xmlns:cc="http://web.resource.org/cc/"
   xmlns:rdf="http://www.w3.org/1999/02/22-rdf-syntax-ns#"
   xmlns:svg="http://www.w3.org/2000/svg"
   xmlns="http://www.w3.org/2000/svg"
   xmlns:sodipodi="http://inkscape.sourceforge.net/DTD/sodipodi-0.dtd"
   xmlns:inkscape="http://www.inkscape.org/namespaces/inkscape"
   width="1cm"
   height="1cm"
   id="svg9908"
   sodipodi:version="0.32"
   inkscape:version="0.43"
   version="1.0"
   sodipodi:docbase="/world/proj/Kproj/symsolon/data"
   sodipodi:docname="planet-fortune.svg">
  <defs
     id="defs9910" />
  <sodipodi:namedview
     id="base"
     pagecolor="#000000"
     bordercolor="#666666"
     borderopacity="1.0"
     inkscape:pageopacity="1"
     inkscape:pageshadow="2"
     inkscape:zoom="11.373555"
     inkscape:cx="17.716536"
     inkscape:cy="17.716536"
     inkscape:document-units="px"
     inkscape:current-layer="layer1"
     inkscape:window-width="966"
     inkscape:window-height="589"
     inkscape:window-x="0"
     inkscape:window-y="68" />
  <metadata
     id="metadata9913">
    <rdf:RDF>
      <cc:Work
         rdf:about="">
        <dc:format>image/svg+xml</dc:format>
        <dc:type
           rdf:resource="http://purl.org/dc/dcmitype/StillImage" />
      </cc:Work>
    </rdf:RDF>
  </metadata>
  <g
     inkscape:label="1. réteg"
     inkscape:groupmode="layer"
     id="layer1">
    <g
       transform="matrix(1.09091e-2,0,0,1.09091e-2,-159.0952,-268.1505)"
       style="fill:#8d8d8d;fill-opacity:1;visibility:visible"
       id="g8104">
      <desc
         id="desc8106">Drawing</desc>
      <g
         id="g8108"
         style="fill:#8d8d8d;fill-opacity:1">
        <g
           id="g8110"
           style="fill:#8d8d8d;fill-opacity:1;stroke:none">
          <path
             id="path8112"
             d="M 17310,27321 L 17201,27419 L 17101,27308 L 17000,27196 L 17108,27099 L 17209,27210 L 17310,27321 z "
             style="fill:#8d8d8d;fill-opacity:1" />
          <path
             id="path8114"
             d="M 17101,27308 L 17201,27419 L 17190,27429 L 17101,27308 z "
             style="fill:#8d8d8d;fill-opacity:1" />
          <path
             id="path8116"
             d="M 17190,27429 L 17074,27513 L 16986,27392 L 16897,27272 L 17012,27187 L 17101,27308 L 17190,27429 z "
             style="fill:#8d8d8d;fill-opacity:1" />
          <path
             id="path8118"
             d="M 16986,27392 L 17074,27513 L 17062,27522 L 16986,27392 z "
             style="fill:#8d8d8d;fill-opacity:1" />
          <path
             id="path8120"
             d="M 17062,27522 L 16941,27593 L 16864,27464 L 16788,27335 L 16909,27263 L 16986,27392 L 17062,27522 z "
             style="fill:#8d8d8d;fill-opacity:1" />
          <path
             id="path8122"
             d="M 16864,27464 L 16941,27593 L 16927,27600 L 16864,27464 z "
             style="fill:#8d8d8d;fill-opacity:1" />
          <path
             id="path8124"
             d="M 16927,27600 L 16801,27659 L 16738,27523 L 16675,27387 L 16801,27328 L 16864,27464 L 16927,27600 z "
             style="fill:#8d8d8d;fill-opacity:1" />
          <path
             id="path8126"
             d="M 16738,27523 L 16801,27659 L 16787,27664 L 16738,27523 z "
             style="fill:#8d8d8d;fill-opacity:1" />
          <path
             id="path8128"
             d="M 16787,27664 L 16657,27710 L 16607,27568 L 16558,27427 L 16688,27381 L 16738,27523 L 16787,27664 z "
             style="fill:#8d8d8d;fill-opacity:1" />
          <path
             id="path8130"
             d="M 16607,27568 L 16657,27710 L 16643,27714 L 16607,27568 z "
             style="fill:#8d8d8d;fill-opacity:1" />
          <path
             id="path8132"
             d="M 16643,27714 L 16510,27747 L 16474,27601 L 16438,27455 L 16572,27423 L 16607,27568 L 16643,27714 z "
             style="fill:#8d8d8d;fill-opacity:1" />
          <path
             id="path8134"
             d="M 16474,27601 L 16510,27747 L 16495,27749 L 16474,27601 z "
             style="fill:#8d8d8d;fill-opacity:1" />
          <path
             id="path8136"
             d="M 16495,27749 L 16360,27769 L 16338,27620 L 16317,27472 L 16453,27452 L 16474,27601 L 16495,27749 z "
             style="fill:#8d8d8d;fill-opacity:1" />
          <path
             id="path8138"
             d="M 16338,27620 L 16360,27769 L 16346,27770 L 16338,27620 z "
             style="fill:#8d8d8d;fill-opacity:1" />
          <path
             id="path8140"
             d="M 16346,27770 L 16209,27777 L 16202,27627 L 16195,27477 L 16331,27471 L 16338,27620 L 16346,27770 z "
             style="fill:#8d8d8d;fill-opacity:1" />
          <path
             id="path8142"
             d="M 16202,27627 L 16209,27777 L 16195,27777 L 16202,27627 z "
             style="fill:#8d8d8d;fill-opacity:1" />
          <path
             id="path8144"
             d="M 16195,27777 L 16058,27770 L 16065,27620 L 16072,27471 L 16209,27477 L 16202,27627 L 16195,27777 z "
             style="fill:#8d8d8d;fill-opacity:1" />
          <path
             id="path8146"
             d="M 16065,27620 L 16058,27770 L 16044,27769 L 16065,27620 z "
             style="fill:#8d8d8d;fill-opacity:1" />
          <path
             id="path8148"
             d="M 16044,27769 L 15908,27749 L 15930,27601 L 15951,27452 L 16087,27472 L 16065,27620 L 16044,27769 z "
             style="fill:#8d8d8d;fill-opacity:1" />
          <path
             id="path8150"
             d="M 15930,27601 L 15908,27749 L 15894,27747 L 15930,27601 z "
             style="fill:#8d8d8d;fill-opacity:1" />
          <path
             id="path8152"
             d="M 15894,27747 L 15761,27714 L 15796,27568 L 15832,27423 L 15965,27455 L 15930,27601 L 15894,27747 z "
             style="fill:#8d8d8d;fill-opacity:1" />
          <path
             id="path8154"
             d="M 15796,27568 L 15761,27714 L 15747,27710 L 15796,27568 z "
             style="fill:#8d8d8d;fill-opacity:1" />
          <path
             id="path8156"
             d="M 15747,27710 L 15616,27664 L 15666,27523 L 15715,27381 L 15846,27427 L 15796,27568 L 15747,27710 z "
             style="fill:#8d8d8d;fill-opacity:1" />
          <path
             id="path8158"
             d="M 15666,27523 L 15616,27664 L 15603,27659 L 15666,27523 z "
             style="fill:#8d8d8d;fill-opacity:1" />
          <path
             id="path8160"
             d="M 15603,27659 L 15476,27600 L 15539,27464 L 15602,27328 L 15729,27387 L 15666,27523 L 15603,27659 z "
             style="fill:#8d8d8d;fill-opacity:1" />
          <path
             id="path8162"
             d="M 15539,27464 L 15476,27600 L 15463,27593 L 15539,27464 z "
             style="fill:#8d8d8d;fill-opacity:1" />
          <path
             id="path8164"
             d="M 15463,27593 L 15341,27522 L 15418,27392 L 15494,27263 L 15615,27335 L 15539,27464 L 15463,27593 z "
             style="fill:#8d8d8d;fill-opacity:1" />
          <path
             id="path8166"
             d="M 15418,27392 L 15341,27522 L 15329,27513 L 15418,27392 z "
             style="fill:#8d8d8d;fill-opacity:1" />
          <path
             id="path8168"
             d="M 15329,27513 L 15214,27429 L 15302,27308 L 15391,27187 L 15506,27272 L 15418,27392 L 15329,27513 z "
             style="fill:#8d8d8d;fill-opacity:1" />
          <path
             id="path8170"
             d="M 15302,27308 L 15214,27429 L 15202,27419 L 15302,27308 z "
             style="fill:#8d8d8d;fill-opacity:1" />
          <path
             id="path8172"
             d="M 15202,27419 L 15094,27321 L 15194,27210 L 15294,27099 L 15403,27196 L 15302,27308 L 15202,27419 z "
             style="fill:#8d8d8d;fill-opacity:1" />
          <path
             id="path8174"
             d="M 15194,27210 L 15094,27321 L 15083,27310 L 15194,27210 z "
             style="fill:#8d8d8d;fill-opacity:1" />
          <path
             id="path8176"
             d="M 15083,27310 L 14985,27202 L 15096,27102 L 15208,27001 L 15305,27110 L 15194,27210 L 15083,27310 z "
             style="fill:#8d8d8d;fill-opacity:1" />
          <path
             id="path8178"
             d="M 15096,27102 L 14985,27202 L 14975,27190 L 15096,27102 z "
             style="fill:#8d8d8d;fill-opacity:1" />
          <path
             id="path8180"
             d="M 14975,27190 L 14891,27075 L 15012,26986 L 15132,26898 L 15217,27013 L 15096,27102 L 14975,27190 z "
             style="fill:#8d8d8d;fill-opacity:1" />
          <path
             id="path8182"
             d="M 15012,26986 L 14891,27075 L 14882,27063 L 15012,26986 z "
             style="fill:#8d8d8d;fill-opacity:1" />
          <path
             id="path8184"
             d="M 14882,27063 L 14811,26941 L 14940,26865 L 15069,26789 L 15141,26910 L 15012,26986 L 14882,27063 z "
             style="fill:#8d8d8d;fill-opacity:1" />
          <path
             id="path8186"
             d="M 14940,26865 L 14811,26941 L 14804,26928 L 14940,26865 z "
             style="fill:#8d8d8d;fill-opacity:1" />
          <path
             id="path8188"
             d="M 14804,26928 L 14745,26801 L 14881,26738 L 15017,26675 L 15076,26802 L 14940,26865 L 14804,26928 z "
             style="fill:#8d8d8d;fill-opacity:1" />
          <path
             id="path8190"
             d="M 14881,26738 L 14745,26801 L 14740,26788 L 14881,26738 z "
             style="fill:#8d8d8d;fill-opacity:1" />
          <path
             id="path8192"
             d="M 14740,26788 L 14694,26657 L 14836,26608 L 14977,26558 L 15023,26689 L 14881,26738 L 14740,26788 z "
             style="fill:#8d8d8d;fill-opacity:1" />
          <path
             id="path8194"
             d="M 14836,26608 L 14694,26657 L 14690,26643 L 14836,26608 z "
             style="fill:#8d8d8d;fill-opacity:1" />
          <path
             id="path8196"
             d="M 14690,26643 L 14657,26510 L 14803,26474 L 14949,26439 L 14981,26572 L 14836,26608 L 14690,26643 z "
             style="fill:#8d8d8d;fill-opacity:1" />
          <path
             id="path8198"
             d="M 14803,26474 L 14657,26510 L 14655,26496 L 14803,26474 z "
             style="fill:#8d8d8d;fill-opacity:1" />
          <path
             id="path8200"
             d="M 14655,26496 L 14635,26360 L 14784,26339 L 14932,26317 L 14952,26453 L 14803,26474 L 14655,26496 z "
             style="fill:#8d8d8d;fill-opacity:1" />
          <path
             id="path8202"
             d="M 14784,26339 L 14635,26360 L 14634,26346 L 14784,26339 z "
             style="fill:#8d8d8d;fill-opacity:1" />
          <path
             id="path8204"
             d="M 14634,26346 L 14627,26209 L 14777,26202 L 14927,26195 L 14933,26331 L 14784,26339 L 14634,26346 z "
             style="fill:#8d8d8d;fill-opacity:1" />
          <path
             id="path8206"
             d="M 14777,26202 L 14627,26209 L 14627,26195 L 14777,26202 z "
             style="fill:#8d8d8d;fill-opacity:1" />
          <path
             id="path8208"
             d="M 14627,26195 L 14634,26058 L 14784,26065 L 14933,26073 L 14927,26209 L 14777,26202 L 14627,26195 z "
             style="fill:#8d8d8d;fill-opacity:1" />
          <path
             id="path8210"
             d="M 14784,26065 L 14634,26058 L 14635,26044 L 14784,26065 z "
             style="fill:#8d8d8d;fill-opacity:1" />
          <path
             id="path8212"
             d="M 14635,26044 L 14655,25908 L 14803,25930 L 14952,25951 L 14932,26087 L 14784,26065 L 14635,26044 z "
             style="fill:#8d8d8d;fill-opacity:1" />
          <path
             id="path8214"
             d="M 14803,25930 L 14655,25908 L 14657,25894 L 14803,25930 z "
             style="fill:#8d8d8d;fill-opacity:1" />
          <path
             id="path8216"
             d="M 14657,25894 L 14690,25761 L 14836,25796 L 14981,25832 L 14949,25965 L 14803,25930 L 14657,25894 z "
             style="fill:#8d8d8d;fill-opacity:1" />
          <path
             id="path8218"
             d="M 14836,25796 L 14690,25761 L 14694,25747 L 14836,25796 z "
             style="fill:#8d8d8d;fill-opacity:1" />
          <path
             id="path8220"
             d="M 14694,25747 L 14740,25616 L 14881,25666 L 15023,25715 L 14977,25846 L 14836,25796 L 14694,25747 z "
             style="fill:#8d8d8d;fill-opacity:1" />
          <path
             id="path8222"
             d="M 14881,25666 L 14740,25616 L 14745,25603 L 14881,25666 z "
             style="fill:#8d8d8d;fill-opacity:1" />
          <path
             id="path8224"
             d="M 14745,25603 L 14804,25476 L 14940,25539 L 15076,25602 L 15017,25729 L 14881,25666 L 14745,25603 z "
             style="fill:#8d8d8d;fill-opacity:1" />
          <path
             id="path8226"
             d="M 14940,25539 L 14804,25476 L 14811,25463 L 14940,25539 z "
             style="fill:#8d8d8d;fill-opacity:1" />
          <path
             id="path8228"
             d="M 14811,25463 L 14882,25341 L 15012,25418 L 15141,25494 L 15069,25615 L 14940,25539 L 14811,25463 z "
             style="fill:#8d8d8d;fill-opacity:1" />
          <path
             id="path8230"
             d="M 15012,25418 L 14882,25341 L 14891,25329 L 15012,25418 z "
             style="fill:#8d8d8d;fill-opacity:1" />
          <path
             id="path8232"
             d="M 14891,25329 L 14975,25214 L 15096,25302 L 15217,25391 L 15132,25506 L 15012,25418 L 14891,25329 z "
             style="fill:#8d8d8d;fill-opacity:1" />
          <path
             id="path8234"
             d="M 15096,25302 L 14975,25214 L 14985,25202 L 15096,25302 z "
             style="fill:#8d8d8d;fill-opacity:1" />
          <path
             id="path8236"
             d="M 14985,25202 L 15083,25094 L 15194,25194 L 15305,25294 L 15208,25403 L 15096,25302 L 14985,25202 z "
             style="fill:#8d8d8d;fill-opacity:1" />
          <path
             id="path8238"
             d="M 15194,25194 L 15083,25094 L 15094,25083 L 15194,25194 z "
             style="fill:#8d8d8d;fill-opacity:1" />
          <path
             id="path8240"
             d="M 15094,25083 L 15202,24985 L 15302,25096 L 15403,25208 L 15294,25305 L 15194,25194 L 15094,25083 z "
             style="fill:#8d8d8d;fill-opacity:1" />
          <path
             id="path8242"
             d="M 15302,25096 L 15202,24985 L 15214,24975 L 15302,25096 z "
             style="fill:#8d8d8d;fill-opacity:1" />
          <path
             id="path8244"
             d="M 15214,24975 L 15329,24891 L 15418,25012 L 15506,25132 L 15391,25217 L 15302,25096 L 15214,24975 z "
             style="fill:#8d8d8d;fill-opacity:1" />
          <path
             id="path8246"
             d="M 15418,25012 L 15329,24891 L 15341,24882 L 15418,25012 z "
             style="fill:#8d8d8d;fill-opacity:1" />
          <path
             id="path8248"
             d="M 15341,24882 L 15463,24811 L 15539,24940 L 15615,25069 L 15494,25141 L 15418,25012 L 15341,24882 z "
             style="fill:#8d8d8d;fill-opacity:1" />
          <path
             id="path8250"
             d="M 15539,24940 L 15463,24811 L 15476,24804 L 15539,24940 z "
             style="fill:#8d8d8d;fill-opacity:1" />
          <path
             id="path8252"
             d="M 15476,24804 L 15603,24745 L 15666,24881 L 15729,25017 L 15602,25076 L 15539,24940 L 15476,24804 z "
             style="fill:#8d8d8d;fill-opacity:1" />
          <path
             id="path8254"
             d="M 15666,24881 L 15603,24745 L 15616,24740 L 15666,24881 z "
             style="fill:#8d8d8d;fill-opacity:1" />
          <path
             id="path8256"
             d="M 15616,24740 L 15747,24694 L 15796,24836 L 15846,24977 L 15715,25023 L 15666,24881 L 15616,24740 z "
             style="fill:#8d8d8d;fill-opacity:1" />
          <path
             id="path8258"
             d="M 15796,24836 L 15747,24694 L 15761,24690 L 15796,24836 z "
             style="fill:#8d8d8d;fill-opacity:1" />
          <path
             id="path8260"
             d="M 15761,24690 L 15894,24657 L 15930,24803 L 15965,24949 L 15832,24981 L 15796,24836 L 15761,24690 z "
             style="fill:#8d8d8d;fill-opacity:1" />
          <path
             id="path8262"
             d="M 15930,24803 L 15894,24657 L 15908,24655 L 15930,24803 z "
             style="fill:#8d8d8d;fill-opacity:1" />
          <path
             id="path8264"
             d="M 15908,24655 L 16044,24635 L 16065,24784 L 16087,24932 L 15951,24952 L 15930,24803 L 15908,24655 z "
             style="fill:#8d8d8d;fill-opacity:1" />
          <path
             id="path8266"
             d="M 16065,24784 L 16044,24635 L 16058,24634 L 16065,24784 z "
             style="fill:#8d8d8d;fill-opacity:1" />
          <path
             id="path8268"
             d="M 16058,24634 L 16195,24627 L 16202,24777 L 16209,24927 L 16072,24933 L 16065,24784 L 16058,24634 z "
             style="fill:#8d8d8d;fill-opacity:1" />
          <path
             id="path8270"
             d="M 16202,24777 L 16195,24627 L 16209,24627 L 16202,24777 z "
             style="fill:#8d8d8d;fill-opacity:1" />
          <path
             id="path8272"
             d="M 16209,24627 L 16346,24634 L 16338,24784 L 16331,24933 L 16195,24927 L 16202,24777 L 16209,24627 z "
             style="fill:#8d8d8d;fill-opacity:1" />
          <path
             id="path8274"
             d="M 16338,24784 L 16346,24634 L 16360,24635 L 16338,24784 z "
             style="fill:#8d8d8d;fill-opacity:1" />
          <path
             id="path8276"
             d="M 16360,24635 L 16495,24655 L 16474,24803 L 16453,24952 L 16317,24932 L 16338,24784 L 16360,24635 z "
             style="fill:#8d8d8d;fill-opacity:1" />
          <path
             id="path8278"
             d="M 16474,24803 L 16495,24655 L 16510,24657 L 16474,24803 z "
             style="fill:#8d8d8d;fill-opacity:1" />
          <path
             id="path8280"
             d="M 16510,24657 L 16643,24690 L 16607,24836 L 16572,24981 L 16438,24949 L 16474,24803 L 16510,24657 z "
             style="fill:#8d8d8d;fill-opacity:1" />
          <path
             id="path8282"
             d="M 16607,24836 L 16643,24690 L 16657,24694 L 16607,24836 z "
             style="fill:#8d8d8d;fill-opacity:1" />
          <path
             id="path8284"
             d="M 16657,24694 L 16787,24740 L 16738,24881 L 16688,25023 L 16558,24977 L 16607,24836 L 16657,24694 z "
             style="fill:#8d8d8d;fill-opacity:1" />
          <path
             id="path8286"
             d="M 16738,24881 L 16787,24740 L 16801,24745 L 16738,24881 z "
             style="fill:#8d8d8d;fill-opacity:1" />
          <path
             id="path8288"
             d="M 16801,24745 L 16927,24804 L 16864,24940 L 16801,25076 L 16675,25017 L 16738,24881 L 16801,24745 z "
             style="fill:#8d8d8d;fill-opacity:1" />
          <path
             id="path8290"
             d="M 16864,24940 L 16927,24804 L 16941,24811 L 16864,24940 z "
             style="fill:#8d8d8d;fill-opacity:1" />
          <path
             id="path8292"
             d="M 16941,24811 L 17062,24882 L 16986,25012 L 16909,25141 L 16788,25069 L 16864,24940 L 16941,24811 z "
             style="fill:#8d8d8d;fill-opacity:1" />
          <path
             id="path8294"
             d="M 16986,25012 L 17062,24882 L 17074,24891 L 16986,25012 z "
             style="fill:#8d8d8d;fill-opacity:1" />
          <path
             id="path8296"
             d="M 17074,24891 L 17190,24975 L 17101,25096 L 17012,25217 L 16897,25132 L 16986,25012 L 17074,24891 z "
             style="fill:#8d8d8d;fill-opacity:1" />
          <path
             id="path8298"
             d="M 17101,25096 L 17190,24975 L 17201,24985 L 17101,25096 z "
             style="fill:#8d8d8d;fill-opacity:1" />
          <path
             id="path8300"
             d="M 17201,24985 L 17310,25083 L 17209,25194 L 17108,25305 L 17000,25208 L 17101,25096 L 17201,24985 z "
             style="fill:#8d8d8d;fill-opacity:1" />
          <path
             id="path8302"
             d="M 17209,25194 L 17310,25083 L 17320,25093 L 17209,25194 z "
             style="fill:#8d8d8d;fill-opacity:1" />
          <path
             id="path8304"
             d="M 17320,25093 L 17418,25202 L 17307,25302 L 17196,25403 L 17098,25295 L 17209,25194 L 17320,25093 z "
             style="fill:#8d8d8d;fill-opacity:1" />
          <path
             id="path8306"
             d="M 17307,25302 L 17418,25202 L 17428,25213 L 17307,25302 z "
             style="fill:#8d8d8d;fill-opacity:1" />
          <path
             id="path8308"
             d="M 17428,25213 L 17513,25329 L 17392,25418 L 17271,25507 L 17186,25391 L 17307,25302 L 17428,25213 z "
             style="fill:#8d8d8d;fill-opacity:1" />
          <path
             id="path8310"
             d="M 17392,25418 L 17513,25329 L 17521,25341 L 17392,25418 z "
             style="fill:#8d8d8d;fill-opacity:1" />
          <path
             id="path8312"
             d="M 17521,25341 L 17593,25463 L 17464,25539 L 17334,25615 L 17263,25494 L 17392,25418 L 17521,25341 z "
             style="fill:#8d8d8d;fill-opacity:1" />
          <path
             id="path8314"
             d="M 17464,25539 L 17593,25463 L 17600,25476 L 17464,25539 z "
             style="fill:#8d8d8d;fill-opacity:1" />
          <path
             id="path8316"
             d="M 17600,25476 L 17658,25602 L 17522,25666 L 17386,25729 L 17328,25602 L 17464,25539 L 17600,25476 z "
             style="fill:#8d8d8d;fill-opacity:1" />
          <path
             id="path8318"
             d="M 17522,25666 L 17658,25602 L 17664,25616 L 17522,25666 z "
             style="fill:#8d8d8d;fill-opacity:1" />
          <path
             id="path8320"
             d="M 17664,25616 L 17710,25747 L 17568,25796 L 17426,25846 L 17381,25715 L 17522,25666 L 17664,25616 z "
             style="fill:#8d8d8d;fill-opacity:1" />
          <path
             id="path8322"
             d="M 17568,25796 L 17710,25747 L 17714,25761 L 17568,25796 z "
             style="fill:#8d8d8d;fill-opacity:1" />
          <path
             id="path8324"
             d="M 17714,25761 L 17746,25894 L 17601,25930 L 17455,25965 L 17422,25832 L 17568,25796 L 17714,25761 z "
             style="fill:#8d8d8d;fill-opacity:1" />
          <path
             id="path8326"
             d="M 17601,25930 L 17746,25894 L 17749,25908 L 17601,25930 z "
             style="fill:#8d8d8d;fill-opacity:1" />
          <path
             id="path8328"
             d="M 17749,25908 L 17769,26044 L 17620,26065 L 17472,26087 L 17452,25951 L 17601,25930 L 17749,25908 z "
             style="fill:#8d8d8d;fill-opacity:1" />
          <path
             id="path8330"
             d="M 17620,26065 L 17769,26044 L 17770,26058 L 17620,26065 z "
             style="fill:#8d8d8d;fill-opacity:1" />
          <path
             id="path8332"
             d="M 17770,26058 L 17777,26195 L 17627,26202 L 17477,26209 L 17470,26073 L 17620,26065 L 17770,26058 z "
             style="fill:#8d8d8d;fill-opacity:1" />
          <path
             id="path8334"
             d="M 17627,26202 L 17777,26195 L 17777,26209 L 17627,26202 z "
             style="fill:#8d8d8d;fill-opacity:1" />
          <path
             id="path8336"
             d="M 17777,26209 L 17770,26346 L 17620,26339 L 17470,26331 L 17477,26195 L 17627,26202 L 17777,26209 z "
             style="fill:#8d8d8d;fill-opacity:1" />
          <path
             id="path8338"
             d="M 17620,26339 L 17770,26346 L 17769,26360 L 17620,26339 z "
             style="fill:#8d8d8d;fill-opacity:1" />
          <path
             id="path8340"
             d="M 17769,26360 L 17749,26496 L 17601,26474 L 17452,26453 L 17472,26317 L 17620,26339 L 17769,26360 z "
             style="fill:#8d8d8d;fill-opacity:1" />
          <path
             id="path8342"
             d="M 17601,26474 L 17749,26496 L 17746,26510 L 17601,26474 z "
             style="fill:#8d8d8d;fill-opacity:1" />
          <path
             id="path8344"
             d="M 17746,26510 L 17714,26643 L 17568,26608 L 17422,26572 L 17455,26439 L 17601,26474 L 17746,26510 z "
             style="fill:#8d8d8d;fill-opacity:1" />
          <path
             id="path8346"
             d="M 17568,26608 L 17714,26643 L 17710,26657 L 17568,26608 z "
             style="fill:#8d8d8d;fill-opacity:1" />
          <path
             id="path8348"
             d="M 17710,26657 L 17664,26788 L 17522,26738 L 17381,26689 L 17426,26558 L 17568,26608 L 17710,26657 z "
             style="fill:#8d8d8d;fill-opacity:1" />
          <path
             id="path8350"
             d="M 17522,26738 L 17664,26788 L 17658,26802 L 17522,26738 z "
             style="fill:#8d8d8d;fill-opacity:1" />
          <path
             id="path8352"
             d="M 17658,26802 L 17600,26928 L 17464,26865 L 17328,26802 L 17386,26675 L 17522,26738 L 17658,26802 z "
             style="fill:#8d8d8d;fill-opacity:1" />
          <path
             id="path8354"
             d="M 17464,26865 L 17600,26928 L 17593,26941 L 17464,26865 z "
             style="fill:#8d8d8d;fill-opacity:1" />
          <path
             id="path8356"
             d="M 17593,26941 L 17521,27063 L 17392,26986 L 17263,26910 L 17334,26789 L 17464,26865 L 17593,26941 z "
             style="fill:#8d8d8d;fill-opacity:1" />
          <path
             id="path8358"
             d="M 17392,26986 L 17521,27063 L 17513,27075 L 17392,26986 z "
             style="fill:#8d8d8d;fill-opacity:1" />
          <path
             id="path8360"
             d="M 17513,27075 L 17428,27191 L 17307,27102 L 17186,27013 L 17271,26897 L 17392,26986 L 17513,27075 z "
             style="fill:#8d8d8d;fill-opacity:1" />
          <path
             id="path8362"
             d="M 17307,27102 L 17428,27191 L 17418,27202 L 17307,27102 z "
             style="fill:#8d8d8d;fill-opacity:1" />
          <path
             id="path8364"
             d="M 17418,27202 L 17320,27311 L 17209,27210 L 17098,27109 L 17196,27001 L 17307,27102 L 17418,27202 z "
             style="fill:#8d8d8d;fill-opacity:1" />
          <path
             id="path8366"
             d="M 17209,27210 L 17320,27311 L 17310,27321 L 17209,27210 z "
             style="fill:#8d8d8d;fill-opacity:1" />
        </g>
        <g
           id="g8368"
           style="fill:#8d8d8d;fill-opacity:1" />
      </g>
    </g>
    <g
       transform="matrix(1.09091e-2,0,0,1.09091e-2,-159.0952,-268.1505)"
       style="fill:#8d8d8d;fill-opacity:1;visibility:visible"
       id="g8370">
      <desc
         id="desc8372">Drawing</desc>
      <g
         id="g8374"
         style="fill:#8d8d8d;fill-opacity:1">
        <g
           id="g8376"
           style="fill:#8d8d8d;fill-opacity:1;stroke:none">
          <path
             id="path8378"
             d="M 15296,24924 L 17366,26995 L 17154,27207 L 15084,25136 L 15296,24924 z "
             style="fill:#8d8d8d;fill-opacity:1" />
        </g>
        <g
           id="g8380"
           style="fill:#8d8d8d;fill-opacity:1" />
      </g>
    </g>
    <g
       transform="matrix(1.09091e-2,0,0,1.09091e-2,-159.0952,-268.1505)"
       style="fill:#8d8d8d;fill-opacity:1;visibility:visible"
       id="g8382">
      <desc
         id="desc8384">Drawing</desc>
      <g
         id="g8386"
         style="fill:#8d8d8d;fill-opacity:1">
        <g
           id="g8388"
           style="fill:#8d8d8d;fill-opacity:1;stroke:none">
          <path
             id="path8390"
             d="M 15140,26937 L 17102,24975 L 17314,25187 L 15352,27149 L 15140,26937 z "
             style="fill:#8d8d8d;fill-opacity:1" />
        </g>
        <g
           id="g8392"
           style="fill:#8d8d8d;fill-opacity:1" />
      </g>
    </g>
  </g>
</svg>
