<?xml version="1.0" encoding="UTF-8" standalone="no"?>
<!-- Created with Inkscape (http://www.inkscape.org/) -->
<svg
   xmlns:dc="http://purl.org/dc/elements/1.1/"
   xmlns:cc="http://web.resource.org/cc/"
   xmlns:rdf="http://www.w3.org/1999/02/22-rdf-syntax-ns#"
   xmlns:svg="http://www.w3.org/2000/svg"
   xmlns="http://www.w3.org/2000/svg"
   xmlns:sodipodi="http://inkscape.sourceforge.net/DTD/sodipodi-0.dtd"
   xmlns:inkscape="http://www.inkscape.org/namespaces/inkscape"
   width="1cm"
   height="1cm"
   id="svg9908"
   sodipodi:version="0.32"
   inkscape:version="0.43"
   version="1.0"
   sodipodi:docbase="/world/proj/Kproj/symsolon/data"
   sodipodi:docname="planet-vertex.svg">
  <defs
     id="defs9910" />
  <sodipodi:namedview
     id="base"
     pagecolor="#000000"
     bordercolor="#666666"
     borderopacity="1.0"
     inkscape:pageopacity="1"
     inkscape:pageshadow="2"
     inkscape:zoom="11.373555"
     inkscape:cx="17.716536"
     inkscape:cy="17.716536"
     inkscape:document-units="px"
     inkscape:current-layer="layer1"
     inkscape:window-width="966"
     inkscape:window-height="589"
     inkscape:window-x="0"
     inkscape:window-y="68" />
  <metadata
     id="metadata9913">
    <rdf:RDF>
      <cc:Work
         rdf:about="">
        <dc:format>image/svg+xml</dc:format>
        <dc:type
           rdf:resource="http://purl.org/dc/dcmitype/StillImage" />
      </cc:Work>
    </rdf:RDF>
  </metadata>
  <g
     inkscape:label="1. réteg"
     inkscape:groupmode="layer"
     id="layer1">
    <g
       transform="matrix(1.016275e-2,0,0,1.016275e-2,-75.34826,-79.2902)"
       style="fill:#949494;fill-opacity:1;visibility:visible"
       id="g871">
      <desc
         id="desc873">Drawing</desc>
      <g
         id="g875"
         style="fill:#949494;fill-opacity:1">
        <g
           id="g877"
           style="fill:#949494;fill-opacity:1;stroke:none">
          <path
             id="path879"
             d="M 9280,8346 L 9280,10831 L 8980,10831 L 8980,8346 L 9280,8346 z "
             style="fill:#949494;fill-opacity:1" />
        </g>
        <g
           id="g881"
           style="fill:#949494;fill-opacity:1" />
      </g>
    </g>
    <g
       transform="matrix(1.016275e-2,0,0,1.016275e-2,-75.34826,-79.2902)"
       style="fill:#949494;fill-opacity:1;visibility:visible"
       id="g883">
      <desc
         id="desc885">Drawing</desc>
      <g
         id="g887"
         style="fill:#949494;fill-opacity:1">
        <g
           id="g889"
           style="fill:#949494;fill-opacity:1;stroke:none">
          <path
             id="path891"
             d="M 7914,9413 L 10449,9413 L 10449,9713 L 7914,9713 L 7914,9413 z "
             style="fill:#949494;fill-opacity:1" />
        </g>
        <g
           id="g893"
           style="fill:#949494;fill-opacity:1" />
      </g>
    </g>
    <g
       transform="matrix(1.016275e-2,0,0,1.016275e-2,-75.34826,-79.2902)"
       style="fill:#949494;fill-opacity:1;visibility:visible"
       id="g895">
      <desc
         id="desc897">Drawing</desc>
      <g
         id="g899"
         style="fill:#949494;fill-opacity:1">
        <g
           id="g901"
           style="fill:#949494;fill-opacity:1;stroke:none">
          <path
             id="path903"
             d="M 7668,8883 L 8217,9432 L 8111,9538 L 8005,9644 L 7456,9095 L 7562,8989 L 7668,8883 z "
             style="fill:#949494;fill-opacity:1" />
          <path
             id="path905"
             d="M 8111,9538 L 8217,9432 L 8234,9452 L 8247,9475 L 8256,9499 L 8260,9525 L 8260,9551 L 8256,9577 L 8247,9601 L 8234,9624 L 8217,9644 L 8217,9644 L 8111,9538 z "
             style="fill:#949494;fill-opacity:1" />
          <path
             id="path907"
             d="M 8217,9644 L 7668,10192 L 7562,10086 L 7456,9980 L 8005,9432 L 8111,9538 L 8217,9644 z "
             style="fill:#949494;fill-opacity:1" />
        </g>
        <g
           id="g909"
           style="fill:#949494;fill-opacity:1" />
      </g>
    </g>
    <g
       transform="matrix(1.016275e-2,0,0,1.016275e-2,-75.34826,-79.2902)"
       style="fill:#949494;fill-opacity:1;visibility:visible"
       id="g911">
      <desc
         id="desc913">Drawing</desc>
      <g
         id="g915"
         style="fill:#949494;fill-opacity:1">
        <g
           id="g917"
           style="fill:#949494;fill-opacity:1;stroke:none">
          <path
             id="path919"
             d="M 10883,9097 L 10334,9646 L 10228,9540 L 10122,9434 L 10671,8885 L 10777,8991 L 10883,9097 z "
             style="fill:#949494;fill-opacity:1" />
          <path
             id="path921"
             d="M 10228,9540 L 10122,9646 L 10105,9626 L 10092,9604 L 10083,9579 L 10079,9553 L 10079,9527 L 10083,9501 L 10092,9477 L 10105,9454 L 10122,9434 L 10122,9434 L 10228,9540 z "
             style="fill:#949494;fill-opacity:1" />
          <path
             id="path923"
             d="M 10334,9434 L 10883,9982 L 10777,10088 L 10671,10194 L 10122,9646 L 10228,9540 L 10334,9434 z "
             style="fill:#949494;fill-opacity:1" />
        </g>
        <g
           id="g925"
           style="fill:#949494;fill-opacity:1" />
      </g>
    </g>
    <g
       transform="matrix(1.016275e-2,0,0,1.016275e-2,-75.34826,-79.2902)"
       style="fill:#949494;fill-opacity:1;visibility:visible"
       id="g927">
      <desc
         id="desc929">Drawing</desc>
      <g
         id="g931"
         style="fill:#949494;fill-opacity:1">
        <g
           id="g933"
           style="fill:#949494;fill-opacity:1;stroke:none">
          <path
             id="path935"
             d="M 8456,11052 L 9005,10503 L 9111,10609 L 9217,10715 L 8668,11264 L 8562,11158 L 8456,11052 z "
             style="fill:#949494;fill-opacity:1" />
          <path
             id="path937"
             d="M 9111,10609 L 9005,10503 L 9025,10486 L 9048,10473 L 9072,10464 L 9098,10460 L 9124,10460 L 9150,10464 L 9174,10473 L 9197,10486 L 9217,10503 L 9217,10503 L 9111,10609 z "
             style="fill:#949494;fill-opacity:1" />
          <path
             id="path939"
             d="M 9217,10503 L 9765,11052 L 9659,11158 L 9553,11264 L 9005,10715 L 9111,10609 L 9217,10503 z "
             style="fill:#949494;fill-opacity:1" />
        </g>
        <g
           id="g941"
           style="fill:#949494;fill-opacity:1" />
      </g>
    </g>
    <g
       transform="matrix(1.016275e-2,0,0,1.016275e-2,-75.34826,-79.2902)"
       style="fill:#949494;fill-opacity:1;visibility:visible"
       id="g943">
      <desc
         id="desc945">Drawing</desc>
      <g
         id="g947"
         style="fill:#949494;fill-opacity:1">
        <g
           id="g949"
           style="fill:#949494;fill-opacity:1;stroke:none">
          <path
             id="path951"
             d="M 8670,7837 L 9219,8386 L 9113,8492 L 9007,8598 L 8458,8049 L 8564,7943 L 8670,7837 z "
             style="fill:#949494;fill-opacity:1" />
          <path
             id="path953"
             d="M 9113,8492 L 9219,8598 L 9199,8615 L 9177,8628 L 9152,8637 L 9126,8641 L 9100,8641 L 9074,8637 L 9050,8628 L 9027,8615 L 9007,8598 L 9007,8598 L 9113,8492 z "
             style="fill:#949494;fill-opacity:1" />
          <path
             id="path955"
             d="M 9007,8386 L 9555,7837 L 9661,7943 L 9767,8049 L 9219,8598 L 9113,8492 L 9007,8386 z "
             style="fill:#949494;fill-opacity:1" />
        </g>
        <g
           id="g957"
           style="fill:#949494;fill-opacity:1" />
      </g>
    </g>
  </g>
</svg>
