<?xml version="1.0" encoding="UTF-8" standalone="no"?>
<!-- Created with Inkscape (http://www.inkscape.org/) -->
<svg
   xmlns:dc="http://purl.org/dc/elements/1.1/"
   xmlns:cc="http://web.resource.org/cc/"
   xmlns:rdf="http://www.w3.org/1999/02/22-rdf-syntax-ns#"
   xmlns:svg="http://www.w3.org/2000/svg"
   xmlns="http://www.w3.org/2000/svg"
   xmlns:sodipodi="http://inkscape.sourceforge.net/DTD/sodipodi-0.dtd"
   xmlns:inkscape="http://www.inkscape.org/namespaces/inkscape"
   width="1cm"
   height="1cm"
   id="svg9908"
   sodipodi:version="0.32"
   inkscape:version="0.43"
   version="1.0"
   sodipodi:docbase="/world/proj/Kproj/symsolon/data"
   sodipodi:docname="planet-eastpoint.svg">
  <defs
     id="defs9910" />
  <sodipodi:namedview
     id="base"
     pagecolor="#000000"
     bordercolor="#666666"
     borderopacity="1.0"
     inkscape:pageopacity="1"
     inkscape:pageshadow="2"
     inkscape:zoom="3.3820808"
     inkscape:cx="-3.3411272"
     inkscape:cy="19.079362"
     inkscape:document-units="px"
     inkscape:current-layer="layer1"
     inkscape:window-width="966"
     inkscape:window-height="589"
     inkscape:window-x="0"
     inkscape:window-y="68" />
  <metadata
     id="metadata9913">
    <rdf:RDF>
      <cc:Work
         rdf:about="">
        <dc:format>image/svg+xml</dc:format>
        <dc:type
           rdf:resource="http://purl.org/dc/dcmitype/StillImage" />
      </cc:Work>
    </rdf:RDF>
  </metadata>
  <g
     inkscape:label="1. réteg"
     inkscape:groupmode="layer"
     id="layer1">
    <g
       transform="matrix(7.665958e-3,0,0,7.665958e-3,-96.20121,-55.6627)"
       style="fill:#949494;fill-opacity:1;visibility:visible"
       id="g975">
      <desc
         id="desc977">Drawing</desc>
      <g
         id="g979"
         style="fill:#949494;fill-opacity:1">
        <g
           id="g981"
           style="fill:#949494;fill-opacity:1;stroke:none">
          <path
             id="path983"
             d="M 13512,7911 L 13512,11274 L 13212,11274 L 13212,7911 L 13512,7911 z "
             style="fill:#949494;fill-opacity:1" />
        </g>
        <g
           id="g985"
           style="fill:#949494;fill-opacity:1" />
      </g>
    </g>
    <g
       transform="matrix(7.665958e-3,0,0,7.665958e-3,-96.20121,-55.6627)"
       style="fill:#949494;fill-opacity:1;visibility:visible"
       id="g987">
      <desc
         id="desc989">Drawing</desc>
      <g
         id="g991"
         style="fill:#949494;fill-opacity:1">
        <g
           id="g993"
           style="fill:#949494;fill-opacity:1;stroke:none">
          <path
             id="path995"
             d="M 13395,7928 L 14881,7928 L 14881,8228 L 13395,8228 L 13395,7928 z "
             style="fill:#949494;fill-opacity:1" />
        </g>
        <g
           id="g997"
           style="fill:#949494;fill-opacity:1" />
      </g>
    </g>
    <g
       transform="matrix(7.665958e-3,0,0,7.665958e-3,-96.20121,-55.6627)"
       style="fill:#949494;fill-opacity:1;visibility:visible"
       id="g999">
      <desc
         id="desc1001">Drawing</desc>
      <g
         id="g1003"
         style="fill:#949494;fill-opacity:1">
        <g
           id="g1005"
           style="fill:#949494;fill-opacity:1;stroke:none">
          <path
             id="path1007"
             d="M 15542,7911 L 15542,11274 L 15242,11274 L 15242,7911 L 15542,7911 z "
             style="fill:#949494;fill-opacity:1" />
        </g>
        <g
           id="g1009"
           style="fill:#949494;fill-opacity:1" />
      </g>
    </g>
    <g
       transform="matrix(7.665958e-3,0,0,7.665958e-3,-96.20121,-55.6627)"
       style="fill:#949494;fill-opacity:1;visibility:visible"
       id="g1011">
      <desc
         id="desc1013">Drawing</desc>
      <g
         id="g1015"
         style="fill:#949494;fill-opacity:1">
        <g
           id="g1017"
           style="fill:#949494;fill-opacity:1;stroke:none">
          <path
             id="path1019"
             d="M 13349,10967 L 14835,10967 L 14835,11267 L 13349,11267 L 13349,10967 z "
             style="fill:#949494;fill-opacity:1" />
        </g>
        <g
           id="g1021"
           style="fill:#949494;fill-opacity:1" />
      </g>
    </g>
    <g
       transform="matrix(7.665958e-3,0,0,7.665958e-3,-96.20121,-55.6627)"
       style="fill:#949494;fill-opacity:1;visibility:visible"
       id="g1023">
      <desc
         id="desc1025">Drawing</desc>
      <g
         id="g1027"
         style="fill:#949494;fill-opacity:1">
        <g
           id="g1029"
           style="fill:#949494;fill-opacity:1;stroke:none">
          <path
             id="path1031"
             d="M 13361,9395 L 14743,9395 L 14743,9695 L 13361,9695 L 13361,9395 z "
             style="fill:#949494;fill-opacity:1" />
        </g>
        <g
           id="g1033"
           style="fill:#949494;fill-opacity:1" />
      </g>
    </g>
    <g
       transform="matrix(7.665958e-3,0,0,7.665958e-3,-96.20121,-55.6627)"
       style="fill:#949494;fill-opacity:1;visibility:visible"
       id="g1035">
      <desc
         id="desc1037">Drawing</desc>
      <g
         id="g1039"
         style="fill:#949494;fill-opacity:1">
        <g
           id="g1041"
           style="fill:#949494;fill-opacity:1;stroke:none">
          <path
             id="path1043"
             d="M 15450,7981 L 15595,7987 L 15589,8137 L 15583,8287 L 15438,8281 L 15444,8131 L 15450,7981 z "
             style="fill:#949494;fill-opacity:1" />
          <path
             id="path1045"
             d="M 15589,8137 L 15595,7987 L 15607,7988 L 15589,8137 z "
             style="fill:#949494;fill-opacity:1" />
          <path
             id="path1047"
             d="M 15607,7988 L 15772,8007 L 15755,8156 L 15737,8305 L 15571,8286 L 15589,8137 L 15607,7988 z "
             style="fill:#949494;fill-opacity:1" />
          <path
             id="path1049"
             d="M 15755,8156 L 15772,8007 L 15783,8009 L 15755,8156 z "
             style="fill:#949494;fill-opacity:1" />
          <path
             id="path1051"
             d="M 15783,8009 L 15869,8026 L 15841,8173 L 15813,8320 L 15726,8304 L 15755,8156 L 15783,8009 z "
             style="fill:#949494;fill-opacity:1" />
          <path
             id="path1053"
             d="M 15841,8173 L 15869,8026 L 15877,8027 L 15841,8173 z "
             style="fill:#949494;fill-opacity:1" />
          <path
             id="path1055"
             d="M 15877,8027 L 15965,8049 L 15929,8195 L 15892,8340 L 15805,8319 L 15841,8173 L 15877,8027 z "
             style="fill:#949494;fill-opacity:1" />
          <path
             id="path1057"
             d="M 15929,8195 L 15965,8049 L 15974,8052 L 15929,8195 z "
             style="fill:#949494;fill-opacity:1" />
          <path
             id="path1059"
             d="M 15974,8052 L 16060,8079 L 16015,8222 L 15969,8365 L 15883,8338 L 15929,8195 L 15974,8052 z "
             style="fill:#949494;fill-opacity:1" />
          <path
             id="path1061"
             d="M 16015,8222 L 16060,8079 L 16071,8083 L 16015,8222 z "
             style="fill:#949494;fill-opacity:1" />
          <path
             id="path1063"
             d="M 16071,8083 L 16154,8116 L 16099,8256 L 16043,8395 L 15959,8361 L 16015,8222 L 16071,8083 z "
             style="fill:#949494;fill-opacity:1" />
          <path
             id="path1065"
             d="M 16099,8256 L 16154,8116 L 16166,8122 L 16099,8256 z "
             style="fill:#949494;fill-opacity:1" />
          <path
             id="path1067"
             d="M 16166,8122 L 16246,8162 L 16178,8296 L 16110,8430 L 16031,8389 L 16099,8256 L 16166,8122 z "
             style="fill:#949494;fill-opacity:1" />
          <path
             id="path1069"
             d="M 16178,8296 L 16246,8162 L 16259,8170 L 16178,8296 z "
             style="fill:#949494;fill-opacity:1" />
          <path
             id="path1071"
             d="M 16259,8170 L 16333,8217 L 16252,8343 L 16171,8470 L 16097,8422 L 16178,8296 L 16259,8170 z "
             style="fill:#949494;fill-opacity:1" />
          <path
             id="path1073"
             d="M 16252,8343 L 16333,8217 L 16348,8228 L 16252,8343 z "
             style="fill:#949494;fill-opacity:1" />
          <path
             id="path1075"
             d="M 16348,8228 L 16415,8283 L 16319,8399 L 16223,8514 L 16156,8459 L 16252,8343 L 16348,8228 z "
             style="fill:#949494;fill-opacity:1" />
          <path
             id="path1077"
             d="M 16319,8399 L 16415,8283 L 16430,8298 L 16319,8399 z "
             style="fill:#949494;fill-opacity:1" />
          <path
             id="path1079"
             d="M 16430,8298 L 16488,8362 L 16377,8463 L 16266,8564 L 16208,8500 L 16319,8399 L 16430,8298 z "
             style="fill:#949494;fill-opacity:1" />
          <path
             id="path1081"
             d="M 16377,8463 L 16488,8362 L 16499,8375 L 16377,8463 z "
             style="fill:#949494;fill-opacity:1" />
          <path
             id="path1083"
             d="M 16499,8375 L 16524,8410 L 16403,8498 L 16281,8585 L 16255,8550 L 16377,8463 L 16499,8375 z "
             style="fill:#949494;fill-opacity:1" />
          <path
             id="path1085"
             d="M 16403,8498 L 16524,8410 L 16531,8420 L 16403,8498 z "
             style="fill:#949494;fill-opacity:1" />
          <path
             id="path1087"
             d="M 16531,8420 L 16554,8458 L 16425,8535 L 16297,8613 L 16274,8575 L 16403,8498 L 16531,8420 z "
             style="fill:#949494;fill-opacity:1" />
          <path
             id="path1089"
             d="M 16425,8535 L 16554,8458 L 16560,8469 L 16425,8535 z "
             style="fill:#949494;fill-opacity:1" />
          <path
             id="path1091"
             d="M 16560,8469 L 16579,8509 L 16445,8575 L 16310,8641 L 16291,8602 L 16425,8535 L 16560,8469 z "
             style="fill:#949494;fill-opacity:1" />
          <path
             id="path1093"
             d="M 16445,8575 L 16579,8509 L 16584,8521 L 16445,8575 z "
             style="fill:#949494;fill-opacity:1" />
          <path
             id="path1095"
             d="M 16584,8521 L 16601,8563 L 16461,8617 L 16322,8672 L 16305,8630 L 16445,8575 L 16584,8521 z "
             style="fill:#949494;fill-opacity:1" />
          <path
             id="path1097"
             d="M 16461,8617 L 16601,8563 L 16605,8575 L 16461,8617 z "
             style="fill:#949494;fill-opacity:1" />
          <path
             id="path1099"
             d="M 16605,8575 L 16618,8620 L 16474,8662 L 16331,8704 L 16317,8660 L 16461,8617 L 16605,8575 z "
             style="fill:#949494;fill-opacity:1" />
          <path
             id="path1101"
             d="M 16474,8662 L 16618,8620 L 16621,8632 L 16474,8662 z "
             style="fill:#949494;fill-opacity:1" />
          <path
             id="path1103"
             d="M 16621,8632 L 16631,8679 L 16484,8709 L 16337,8739 L 16327,8692 L 16474,8662 L 16621,8632 z "
             style="fill:#949494;fill-opacity:1" />
          <path
             id="path1105"
             d="M 16484,8709 L 16631,8679 L 16634,8698 L 16484,8709 z "
             style="fill:#949494;fill-opacity:1" />
          <path
             id="path1107"
             d="M 16634,8698 L 16642,8800 L 16492,8812 L 16342,8824 L 16335,8721 L 16484,8709 L 16634,8698 z "
             style="fill:#949494;fill-opacity:1" />
          <path
             id="path1109"
             d="M 16492,8812 L 16642,8800 L 16642,8820 L 16492,8812 z "
             style="fill:#949494;fill-opacity:1" />
          <path
             id="path1111"
             d="M 16642,8820 L 16636,8923 L 16487,8915 L 16337,8907 L 16342,8804 L 16492,8812 L 16642,8820 z "
             style="fill:#949494;fill-opacity:1" />
          <path
             id="path1113"
             d="M 16487,8915 L 16636,8923 L 16634,8940 L 16487,8915 z "
             style="fill:#949494;fill-opacity:1" />
          <path
             id="path1115"
             d="M 16634,8940 L 16618,9034 L 16471,9009 L 16323,8984 L 16339,8890 L 16487,8915 L 16634,8940 z "
             style="fill:#949494;fill-opacity:1" />
          <path
             id="path1117"
             d="M 16471,9009 L 16618,9034 L 16614,9053 L 16471,9009 z "
             style="fill:#949494;fill-opacity:1" />
          <path
             id="path1119"
             d="M 16614,9053 L 16588,9138 L 16444,9094 L 16301,9049 L 16327,8965 L 16471,9009 L 16614,9053 z "
             style="fill:#949494;fill-opacity:1" />
          <path
             id="path1121"
             d="M 16444,9094 L 16588,9138 L 16580,9157 L 16444,9094 z "
             style="fill:#949494;fill-opacity:1" />
          <path
             id="path1123"
             d="M 16580,9157 L 16544,9233 L 16409,9170 L 16273,9106 L 16309,9030 L 16444,9094 L 16580,9157 z "
             style="fill:#949494;fill-opacity:1" />
          <path
             id="path1125"
             d="M 16409,9170 L 16544,9233 L 16533,9253 L 16409,9170 z "
             style="fill:#949494;fill-opacity:1" />
          <path
             id="path1127"
             d="M 16533,9253 L 16488,9320 L 16364,9237 L 16239,9154 L 16284,9086 L 16409,9170 L 16533,9253 z "
             style="fill:#949494;fill-opacity:1" />
          <path
             id="path1129"
             d="M 16364,9237 L 16488,9320 L 16475,9338 L 16364,9237 z "
             style="fill:#949494;fill-opacity:1" />
          <path
             id="path1131"
             d="M 16475,9338 L 16421,9397 L 16310,9297 L 16198,9197 L 16252,9137 L 16364,9237 L 16475,9338 z "
             style="fill:#949494;fill-opacity:1" />
          <path
             id="path1133"
             d="M 16310,9297 L 16421,9397 L 16406,9412 L 16310,9297 z "
             style="fill:#949494;fill-opacity:1" />
          <path
             id="path1135"
             d="M 16406,9412 L 16344,9464 L 16248,9349 L 16151,9235 L 16213,9182 L 16310,9297 L 16406,9412 z "
             style="fill:#949494;fill-opacity:1" />
          <path
             id="path1137"
             d="M 16248,9349 L 16344,9464 L 16329,9475 L 16248,9349 z "
             style="fill:#949494;fill-opacity:1" />
          <path
             id="path1139"
             d="M 16329,9475 L 16259,9520 L 16178,9395 L 16096,9269 L 16166,9223 L 16248,9349 L 16329,9475 z "
             style="fill:#949494;fill-opacity:1" />
          <path
             id="path1141"
             d="M 16178,9395 L 16259,9520 L 16245,9529 L 16178,9395 z "
             style="fill:#949494;fill-opacity:1" />
          <path
             id="path1143"
             d="M 16245,9529 L 16167,9567 L 16101,9433 L 16034,9299 L 16111,9260 L 16178,9395 L 16245,9529 z "
             style="fill:#949494;fill-opacity:1" />
          <path
             id="path1145"
             d="M 16101,9433 L 16167,9567 L 16154,9573 L 16101,9433 z "
             style="fill:#949494;fill-opacity:1" />
          <path
             id="path1147"
             d="M 16154,9573 L 16070,9605 L 16016,9465 L 15963,9325 L 16047,9293 L 16101,9433 L 16154,9573 z "
             style="fill:#949494;fill-opacity:1" />
          <path
             id="path1149"
             d="M 16016,9465 L 16070,9605 L 16058,9609 L 16016,9465 z "
             style="fill:#949494;fill-opacity:1" />
          <path
             id="path1151"
             d="M 16058,9609 L 15967,9635 L 15926,9491 L 15884,9347 L 15975,9321 L 16016,9465 L 16058,9609 z "
             style="fill:#949494;fill-opacity:1" />
          <path
             id="path1153"
             d="M 15926,9491 L 15967,9635 L 15957,9638 L 15926,9491 z "
             style="fill:#949494;fill-opacity:1" />
          <path
             id="path1155"
             d="M 15957,9638 L 15860,9658 L 15829,9511 L 15798,9365 L 15895,9344 L 15926,9491 L 15957,9638 z "
             style="fill:#949494;fill-opacity:1" />
          <path
             id="path1157"
             d="M 15829,9511 L 15860,9658 L 15851,9660 L 15829,9511 z "
             style="fill:#949494;fill-opacity:1" />
          <path
             id="path1159"
             d="M 15851,9660 L 15749,9675 L 15727,9527 L 15705,9378 L 15807,9363 L 15829,9511 L 15851,9660 z "
             style="fill:#949494;fill-opacity:1" />
          <path
             id="path1161"
             d="M 15727,9527 L 15749,9675 L 15742,9676 L 15727,9527 z "
             style="fill:#949494;fill-opacity:1" />
          <path
             id="path1163"
             d="M 15742,9676 L 15634,9686 L 15620,9537 L 15605,9388 L 15713,9377 L 15727,9527 L 15742,9676 z "
             style="fill:#949494;fill-opacity:1" />
          <path
             id="path1165"
             d="M 15620,9537 L 15634,9686 L 15625,9687 L 15620,9537 z "
             style="fill:#949494;fill-opacity:1" />
          <path
             id="path1167"
             d="M 15625,9687 L 15397,9695 L 15392,9545 L 15387,9395 L 15615,9387 L 15620,9537 L 15625,9687 z "
             style="fill:#949494;fill-opacity:1" />
        </g>
        <g
           id="g1169"
           style="fill:#949494;fill-opacity:1" />
      </g>
    </g>
  </g>
</svg>
