<?xml version="1.0" encoding="UTF-8" standalone="no"?>
<!-- Created with Inkscape (http://www.inkscape.org/) -->
<svg
   xmlns:dc="http://purl.org/dc/elements/1.1/"
   xmlns:cc="http://web.resource.org/cc/"
   xmlns:rdf="http://www.w3.org/1999/02/22-rdf-syntax-ns#"
   xmlns:svg="http://www.w3.org/2000/svg"
   xmlns="http://www.w3.org/2000/svg"
   xmlns:sodipodi="http://sodipodi.sourceforge.net/DTD/sodipodi-0.dtd"
   xmlns:inkscape="http://www.inkscape.org/namespaces/inkscape"
   width="1cm"
   height="1cm"
   id="svg9908"
   sodipodi:version="0.32"
   inkscape:version="0.45"
   version="1.0"
   sodipodi:docbase="/data/world/proj/Kproj/symsolon/share/symsolon/aspects"
   sodipodi:docname="aspect-semidecil.svg"
   inkscape:output_extension="org.inkscape.output.svg.inkscape"
   sodipodi:modified="true">
  <defs
     id="defs9910" />
  <sodipodi:namedview
     id="base"
     pagecolor="#000000"
     bordercolor="#666666"
     borderopacity="1.0"
     inkscape:pageopacity="1"
     inkscape:pageshadow="2"
     inkscape:zoom="7.0170015"
     inkscape:cx="0.79131245"
     inkscape:cy="17.556514"
     inkscape:document-units="px"
     inkscape:current-layer="layer1"
     inkscape:window-width="966"
     inkscape:window-height="626"
     inkscape:window-x="10"
     inkscape:window-y="73" />
  <metadata
     id="metadata9913">
    <rdf:RDF>
      <cc:Work
         rdf:about="">
        <dc:format>image/svg+xml</dc:format>
        <dc:type
           rdf:resource="http://purl.org/dc/dcmitype/StillImage" />
      </cc:Work>
    </rdf:RDF>
  </metadata>
  <g
     inkscape:label="1. réteg"
     inkscape:groupmode="layer"
     id="layer1">
    <g
       transform="matrix(9.4125411e-3,0,0,1.1703715e-2,-15.287875,-300.53085)"
       style="fill:#ffffff;fill-opacity:1;visibility:visible"
       id="g4869">
      <desc
         id="desc4871">Drawing</desc>
      <g
         id="g4873"
         style="fill:#ffffff;fill-opacity:1">
        <g
           id="g4875"
           style="fill:#ffffff;fill-opacity:1;stroke:none">
          <path
             id="path4877"
             d="M 2724,26827 L 2713,26791 L 2856,26747 L 3000,26704 L 3010,26739 L 2867,26783 L 2724,26827 z "
             style="fill:#ffffff;fill-opacity:1" />
          <path
             id="path4879"
             d="M 2856,26747 L 2994,26689 L 3000,26704 L 2856,26747 z "
             style="fill:#ffffff;fill-opacity:1" />
          <path
             id="path4881"
             d="M 2718,26806 L 2704,26773 L 2842,26714 L 2980,26655 L 2994,26689 L 2856,26747 L 2718,26806 z "
             style="fill:#ffffff;fill-opacity:1" />
          <path
             id="path4883"
             d="M 2842,26714 L 2973,26642 L 2980,26655 L 2842,26714 z "
             style="fill:#ffffff;fill-opacity:1" />
          <path
             id="path4885"
             d="M 2711,26787 L 2693,26755 L 2825,26683 L 2956,26610 L 2973,26642 L 2842,26714 L 2711,26787 z "
             style="fill:#ffffff;fill-opacity:1" />
          <path
             id="path4887"
             d="M 2825,26683 L 2948,26598 L 2956,26610 L 2825,26683 z "
             style="fill:#ffffff;fill-opacity:1" />
          <path
             id="path4889"
             d="M 2701,26768 L 2681,26739 L 2805,26654 L 2928,26568 L 2948,26598 L 2825,26683 L 2701,26768 z "
             style="fill:#ffffff;fill-opacity:1" />
          <path
             id="path4891"
             d="M 2805,26654 L 2919,26557 L 2928,26568 L 2805,26654 z "
             style="fill:#ffffff;fill-opacity:1" />
          <path
             id="path4893"
             d="M 2690,26750 L 2667,26723 L 2782,26627 L 2896,26530 L 2919,26557 L 2805,26654 L 2690,26750 z "
             style="fill:#ffffff;fill-opacity:1" />
          <path
             id="path4895"
             d="M 2782,26627 L 2887,26520 L 2896,26530 L 2782,26627 z "
             style="fill:#ffffff;fill-opacity:1" />
          <path
             id="path4897"
             d="M 2676,26734 L 2651,26709 L 2757,26602 L 2862,26495 L 2887,26520 L 2782,26627 L 2676,26734 z "
             style="fill:#ffffff;fill-opacity:1" />
          <path
             id="path4899"
             d="M 2757,26602 L 2852,26486 L 2862,26495 L 2757,26602 z "
             style="fill:#ffffff;fill-opacity:1" />
          <path
             id="path4901"
             d="M 2661,26717 L 2634,26695 L 2729,26579 L 2825,26464 L 2852,26486 L 2757,26602 L 2661,26717 z "
             style="fill:#ffffff;fill-opacity:1" />
          <path
             id="path4903"
             d="M 2729,26579 L 2815,26456 L 2825,26464 L 2729,26579 z "
             style="fill:#ffffff;fill-opacity:1" />
          <path
             id="path4905"
             d="M 2643,26702 L 2614,26682 L 2700,26559 L 2786,26436 L 2815,26456 L 2729,26579 L 2643,26702 z "
             style="fill:#ffffff;fill-opacity:1" />
          <path
             id="path4907"
             d="M 2700,26559 L 2771,26427 L 2786,26436 L 2700,26559 z "
             style="fill:#ffffff;fill-opacity:1" />
          <path
             id="path4909"
             d="M 2629,26691 L 2565,26656 L 2636,26524 L 2708,26392 L 2771,26427 L 2700,26559 L 2629,26691 z "
             style="fill:#ffffff;fill-opacity:1" />
          <path
             id="path4911"
             d="M 2636,26524 L 2689,26384 L 2708,26392 L 2636,26524 z "
             style="fill:#ffffff;fill-opacity:1" />
          <path
             id="path4913"
             d="M 2584,26665 L 2516,26639 L 2568,26499 L 2620,26358 L 2689,26384 L 2636,26524 L 2584,26665 z "
             style="fill:#ffffff;fill-opacity:1" />
          <path
             id="path4915"
             d="M 2568,26499 L 2602,26353 L 2620,26358 L 2568,26499 z "
             style="fill:#ffffff;fill-opacity:1" />
          <path
             id="path4917"
             d="M 2534,26645 L 2463,26629 L 2496,26482 L 2530,26336 L 2602,26353 L 2568,26499 L 2534,26645 z "
             style="fill:#ffffff;fill-opacity:1" />
          <path
             id="path4919"
             d="M 2496,26482 L 2512,26333 L 2530,26336 L 2496,26482 z "
             style="fill:#ffffff;fill-opacity:1" />
          <path
             id="path4921"
             d="M 2481,26632 L 2408,26624 L 2424,26475 L 2439,26326 L 2512,26333 L 2496,26482 L 2481,26632 z "
             style="fill:#ffffff;fill-opacity:1" />
          <path
             id="path4923"
             d="M 2424,26475 L 2420,26325 L 2439,26326 L 2424,26475 z "
             style="fill:#ffffff;fill-opacity:1" />
          <path
             id="path4925"
             d="M 2427,26625 L 2355,26626 L 2351,26477 L 2348,26327 L 2420,26325 L 2424,26475 L 2427,26625 z "
             style="fill:#ffffff;fill-opacity:1" />
          <path
             id="path4927"
             d="M 2351,26477 L 2328,26328 L 2348,26327 L 2351,26477 z "
             style="fill:#ffffff;fill-opacity:1" />
          <path
             id="path4929"
             d="M 2375,26625 L 2305,26636 L 2282,26487 L 2259,26339 L 2328,26328 L 2351,26477 L 2375,26625 z "
             style="fill:#ffffff;fill-opacity:1" />
          <path
             id="path4931"
             d="M 2282,26487 L 2238,26344 L 2259,26339 L 2282,26487 z "
             style="fill:#ffffff;fill-opacity:1" />
          <path
             id="path4933"
             d="M 2326,26631 L 2261,26651 L 2216,26507 L 2172,26364 L 2238,26344 L 2282,26487 L 2326,26631 z "
             style="fill:#ffffff;fill-opacity:1" />
          <path
             id="path4935"
             d="M 2216,26507 L 2155,26371 L 2172,26364 L 2216,26507 z "
             style="fill:#ffffff;fill-opacity:1" />
          <path
             id="path4937"
             d="M 2278,26644 L 2247,26658 L 2186,26521 L 2125,26384 L 2155,26371 L 2216,26507 L 2278,26644 z "
             style="fill:#ffffff;fill-opacity:1" />
          <path
             id="path4939"
             d="M 2186,26521 L 2113,26390 L 2125,26384 L 2186,26521 z "
             style="fill:#ffffff;fill-opacity:1" />
          <path
             id="path4941"
             d="M 2259,26652 L 2230,26668 L 2157,26537 L 2084,26406 L 2113,26390 L 2186,26521 L 2259,26652 z "
             style="fill:#ffffff;fill-opacity:1" />
          <path
             id="path4943"
             d="M 2157,26537 L 2072,26413 L 2084,26406 L 2157,26537 z "
             style="fill:#ffffff;fill-opacity:1" />
          <path
             id="path4945"
             d="M 2242,26661 L 2216,26679 L 2131,26555 L 2046,26432 L 2072,26413 L 2157,26537 L 2242,26661 z "
             style="fill:#ffffff;fill-opacity:1" />
          <path
             id="path4947"
             d="M 2131,26555 L 2034,26441 L 2046,26432 L 2131,26555 z "
             style="fill:#ffffff;fill-opacity:1" />
          <path
             id="path4949"
             d="M 2228,26670 L 2203,26690 L 2106,26576 L 2009,26462 L 2034,26441 L 2131,26555 L 2228,26670 z "
             style="fill:#ffffff;fill-opacity:1" />
          <path
             id="path4951"
             d="M 2106,26576 L 1997,26473 L 2009,26462 L 2106,26576 z "
             style="fill:#ffffff;fill-opacity:1" />
          <path
             id="path4953"
             d="M 2215,26679 L 2193,26702 L 2084,26599 L 1975,26496 L 1997,26473 L 2106,26576 L 2215,26679 z "
             style="fill:#ffffff;fill-opacity:1" />
          <path
             id="path4955"
             d="M 2084,26599 L 1964,26509 L 1975,26496 L 2084,26599 z "
             style="fill:#ffffff;fill-opacity:1" />
          <path
             id="path4957"
             d="M 2204,26689 L 2185,26715 L 2065,26625 L 1945,26534 L 1964,26509 L 2084,26599 L 2204,26689 z "
             style="fill:#ffffff;fill-opacity:1" />
          <path
             id="path4959"
             d="M 2065,26625 L 1935,26549 L 1945,26534 L 2065,26625 z "
             style="fill:#ffffff;fill-opacity:1" />
          <path
             id="path4961"
             d="M 2195,26700 L 2178,26728 L 2049,26653 L 1919,26577 L 1935,26549 L 2065,26625 L 2195,26700 z "
             style="fill:#ffffff;fill-opacity:1" />
          <path
             id="path4963"
             d="M 2049,26653 L 1911,26593 L 1919,26577 L 2049,26653 z "
             style="fill:#ffffff;fill-opacity:1" />
          <path
             id="path4965"
             d="M 2187,26712 L 2173,26742 L 2036,26683 L 1898,26624 L 1911,26593 L 2049,26653 L 2187,26712 z "
             style="fill:#ffffff;fill-opacity:1" />
          <path
             id="path4967"
             d="M 2036,26683 L 1892,26641 L 1898,26624 L 2036,26683 z "
             style="fill:#ffffff;fill-opacity:1" />
          <path
             id="path4969"
             d="M 2180,26725 L 2170,26758 L 2026,26716 L 1882,26673 L 1892,26641 L 2036,26683 L 2180,26725 z "
             style="fill:#ffffff;fill-opacity:1" />
          <path
             id="path4971"
             d="M 2026,26716 L 1878,26690 L 1882,26673 L 2026,26716 z "
             style="fill:#ffffff;fill-opacity:1" />
          <path
             id="path4973"
             d="M 2174,26741 L 2168,26776 L 2020,26751 L 1872,26726 L 1878,26690 L 2026,26716 L 2174,26741 z "
             style="fill:#ffffff;fill-opacity:1" />
          <path
             id="path4975"
             d="M 2020,26751 L 1870,26745 L 1872,26726 L 2020,26751 z "
             style="fill:#ffffff;fill-opacity:1" />
          <path
             id="path4977"
             d="M 2170,26757 L 2169,26792 L 2019,26786 L 1869,26780 L 1870,26745 L 2020,26751 L 2170,26757 z "
             style="fill:#ffffff;fill-opacity:1" />
          <path
             id="path4979"
             d="M 2019,26786 L 1870,26803 L 1869,26780 L 2019,26786 z "
             style="fill:#ffffff;fill-opacity:1" />
          <path
             id="path4981"
             d="M 2168,26768 L 2171,26801 L 2022,26818 L 1873,26836 L 1870,26803 L 2019,26786 L 2168,26768 z "
             style="fill:#ffffff;fill-opacity:1" />
          <path
             id="path4983"
             d="M 2022,26818 L 1878,26860 L 1873,26836 L 2022,26818 z "
             style="fill:#ffffff;fill-opacity:1" />
          <path
             id="path4985"
             d="M 2167,26776 L 2175,26806 L 2031,26848 L 1887,26889 L 1878,26860 L 2022,26818 L 2167,26776 z "
             style="fill:#ffffff;fill-opacity:1" />
          <path
             id="path4987"
             d="M 2031,26848 L 1896,26913 L 1887,26889 L 2031,26848 z "
             style="fill:#ffffff;fill-opacity:1" />
          <path
             id="path4989"
             d="M 2166,26783 L 2179,26810 L 2044,26875 L 1909,26940 L 1896,26913 L 2031,26848 L 2166,26783 z "
             style="fill:#ffffff;fill-opacity:1" />
          <path
             id="path4991"
             d="M 2044,26875 L 1920,26960 L 1909,26940 L 2044,26875 z "
             style="fill:#ffffff;fill-opacity:1" />
          <path
             id="path4993"
             d="M 2168,26790 L 2185,26815 L 2061,26900 L 1937,26985 L 1920,26960 L 2044,26875 L 2168,26790 z "
             style="fill:#ffffff;fill-opacity:1" />
          <path
             id="path4995"
             d="M 2061,26900 L 1950,27001 L 1937,26985 L 2061,26900 z "
             style="fill:#ffffff;fill-opacity:1" />
          <path
             id="path4997"
             d="M 2172,26799 L 2193,26822 L 2082,26923 L 1971,27024 L 1950,27001 L 2061,26900 L 2172,26799 z "
             style="fill:#ffffff;fill-opacity:1" />
          <path
             id="path4999"
             d="M 2082,26923 L 1984,27036 L 1971,27024 L 2082,26923 z "
             style="fill:#ffffff;fill-opacity:1" />
          <path
             id="path5001"
             d="M 2180,26810 L 2205,26831 L 2107,26944 L 2008,27058 L 1984,27036 L 2082,26923 L 2180,26810 z "
             style="fill:#ffffff;fill-opacity:1" />
          <path
             id="path5003"
             d="M 2107,26944 L 2020,27067 L 2008,27058 L 2107,26944 z "
             style="fill:#ffffff;fill-opacity:1" />
          <path
             id="path5005"
             d="M 2193,26822 L 2221,26842 L 2134,26964 L 2047,27086 L 2020,27067 L 2107,26944 L 2193,26822 z "
             style="fill:#ffffff;fill-opacity:1" />
          <path
             id="path5007"
             d="M 2134,26964 L 2062,27095 L 2047,27086 L 2134,26964 z "
             style="fill:#ffffff;fill-opacity:1" />
          <path
             id="path5009"
             d="M 2207,26833 L 2270,26867 L 2197,26999 L 2125,27130 L 2062,27095 L 2134,26964 L 2207,26833 z "
             style="fill:#ffffff;fill-opacity:1" />
          <path
             id="path5011"
             d="M 2197,26999 L 2139,27137 L 2125,27130 L 2197,26999 z "
             style="fill:#ffffff;fill-opacity:1" />
          <path
             id="path5013"
             d="M 2256,26861 L 2328,26891 L 2269,27029 L 2211,27167 L 2139,27137 L 2197,26999 L 2256,26861 z "
             style="fill:#ffffff;fill-opacity:1" />
          <path
             id="path5015"
             d="M 2269,27029 L 2222,27171 L 2211,27167 L 2269,27029 z "
             style="fill:#ffffff;fill-opacity:1" />
          <path
             id="path5017"
             d="M 2317,26887 L 2475,26940 L 2428,27082 L 2380,27224 L 2222,27171 L 2269,27029 L 2317,26887 z "
             style="fill:#ffffff;fill-opacity:1" />
          <path
             id="path5019"
             d="M 2428,27082 L 2381,27225 L 2380,27224 L 2428,27082 z "
             style="fill:#ffffff;fill-opacity:1" />
          <path
             id="path5021"
             d="M 2474,26939 L 2634,26991 L 2588,27134 L 2542,27277 L 2381,27225 L 2428,27082 L 2474,26939 z "
             style="fill:#ffffff;fill-opacity:1" />
          <path
             id="path5023"
             d="M 2588,27134 L 2634,26991 L 2643,26994 L 2588,27134 z "
             style="fill:#ffffff;fill-opacity:1" />
          <path
             id="path5025"
             d="M 2643,26994 L 2717,27024 L 2662,27163 L 2607,27303 L 2533,27273 L 2588,27134 L 2643,26994 z "
             style="fill:#ffffff;fill-opacity:1" />
          <path
             id="path5027"
             d="M 2662,27163 L 2717,27024 L 2729,27029 L 2662,27163 z "
             style="fill:#ffffff;fill-opacity:1" />
          <path
             id="path5029"
             d="M 2729,27029 L 2796,27062 L 2729,27197 L 2662,27331 L 2595,27297 L 2662,27163 L 2729,27029 z "
             style="fill:#ffffff;fill-opacity:1" />
          <path
             id="path5031"
             d="M 2729,27197 L 2796,27062 L 2809,27070 L 2729,27197 z "
             style="fill:#ffffff;fill-opacity:1" />
          <path
             id="path5033"
             d="M 2809,27070 L 2839,27088 L 2759,27215 L 2679,27342 L 2649,27324 L 2729,27197 L 2809,27070 z "
             style="fill:#ffffff;fill-opacity:1" />
          <path
             id="path5035"
             d="M 2759,27215 L 2839,27088 L 2849,27096 L 2759,27215 z "
             style="fill:#ffffff;fill-opacity:1" />
          <path
             id="path5037"
             d="M 2849,27096 L 2876,27116 L 2786,27236 L 2695,27355 L 2669,27335 L 2759,27215 L 2849,27096 z "
             style="fill:#ffffff;fill-opacity:1" />
          <path
             id="path5039"
             d="M 2786,27236 L 2876,27116 L 2888,27126 L 2786,27236 z "
             style="fill:#ffffff;fill-opacity:1" />
          <path
             id="path5041"
             d="M 2888,27126 L 2911,27148 L 2809,27258 L 2707,27367 L 2684,27345 L 2786,27236 L 2888,27126 z "
             style="fill:#ffffff;fill-opacity:1" />
          <path
             id="path5043"
             d="M 2809,27258 L 2911,27148 L 2924,27161 L 2809,27258 z "
             style="fill:#ffffff;fill-opacity:1" />
          <path
             id="path5045"
             d="M 2924,27161 L 2944,27185 L 2830,27282 L 2715,27378 L 2695,27354 L 2809,27258 L 2924,27161 z "
             style="fill:#ffffff;fill-opacity:1" />
          <path
             id="path5047"
             d="M 2830,27282 L 2944,27185 L 2957,27202 L 2830,27282 z "
             style="fill:#ffffff;fill-opacity:1" />
          <path
             id="path5049"
             d="M 2957,27202 L 2973,27228 L 2846,27308 L 2719,27387 L 2702,27361 L 2830,27282 L 2957,27202 z "
             style="fill:#ffffff;fill-opacity:1" />
          <path
             id="path5051"
             d="M 2846,27308 L 2973,27228 L 2984,27249 L 2846,27308 z "
             style="fill:#ffffff;fill-opacity:1" />
          <path
             id="path5053"
             d="M 2984,27249 L 2996,27277 L 2858,27336 L 2720,27395 L 2708,27366 L 2846,27308 L 2984,27249 z "
             style="fill:#ffffff;fill-opacity:1" />
          <path
             id="path5055"
             d="M 2858,27336 L 2996,27277 L 3004,27300 L 2858,27336 z "
             style="fill:#ffffff;fill-opacity:1" />
          <path
             id="path5057"
             d="M 3004,27300 L 3011,27331 L 2865,27367 L 2720,27402 L 2712,27371 L 2858,27336 L 3004,27300 z "
             style="fill:#ffffff;fill-opacity:1" />
          <path
             id="path5059"
             d="M 2865,27367 L 3011,27331 L 3015,27355 L 2865,27367 z "
             style="fill:#ffffff;fill-opacity:1" />
          <path
             id="path5061"
             d="M 3015,27355 L 3018,27388 L 2868,27400 L 2718,27412 L 2716,27378 L 2865,27367 L 3015,27355 z "
             style="fill:#ffffff;fill-opacity:1" />
          <path
             id="path5063"
             d="M 2868,27400 L 3018,27388 L 3018,27409 L 2868,27400 z "
             style="fill:#ffffff;fill-opacity:1" />
          <path
             id="path5065"
             d="M 3018,27409 L 3016,27443 L 2866,27434 L 2716,27424 L 2718,27391 L 2868,27400 L 3018,27409 z "
             style="fill:#ffffff;fill-opacity:1" />
          <path
             id="path5067"
             d="M 2866,27434 L 3016,27443 L 3013,27462 L 2866,27434 z "
             style="fill:#ffffff;fill-opacity:1" />
          <path
             id="path5069"
             d="M 3013,27462 L 3007,27495 L 2860,27466 L 2712,27438 L 2719,27405 L 2866,27434 L 3013,27462 z "
             style="fill:#ffffff;fill-opacity:1" />
          <path
             id="path5071"
             d="M 2860,27466 L 3007,27495 L 3002,27513 L 2860,27466 z "
             style="fill:#ffffff;fill-opacity:1" />
          <path
             id="path5073"
             d="M 3002,27513 L 2992,27544 L 2849,27497 L 2707,27450 L 2717,27419 L 2860,27466 L 3002,27513 z "
             style="fill:#ffffff;fill-opacity:1" />
          <path
             id="path5075"
             d="M 2849,27497 L 2992,27544 L 2985,27561 L 2849,27497 z "
             style="fill:#ffffff;fill-opacity:1" />
          <path
             id="path5077"
             d="M 2985,27561 L 2971,27590 L 2836,27526 L 2700,27461 L 2714,27432 L 2849,27497 L 2985,27561 z "
             style="fill:#ffffff;fill-opacity:1" />
          <path
             id="path5079"
             d="M 2836,27526 L 2971,27590 L 2963,27606 L 2836,27526 z "
             style="fill:#ffffff;fill-opacity:1" />
          <path
             id="path5081"
             d="M 2963,27606 L 2946,27633 L 2819,27553 L 2692,27473 L 2709,27446 L 2836,27526 L 2963,27606 z "
             style="fill:#ffffff;fill-opacity:1" />
          <path
             id="path5083"
             d="M 2819,27553 L 2946,27633 L 2936,27646 L 2819,27553 z "
             style="fill:#ffffff;fill-opacity:1" />
          <path
             id="path5085"
             d="M 2936,27646 L 2916,27672 L 2798,27578 L 2681,27485 L 2701,27460 L 2819,27553 L 2936,27646 z "
             style="fill:#ffffff;fill-opacity:1" />
          <path
             id="path5087"
             d="M 2798,27578 L 2916,27672 L 2906,27683 L 2798,27578 z "
             style="fill:#ffffff;fill-opacity:1" />
          <path
             id="path5089"
             d="M 2906,27683 L 2883,27707 L 2775,27602 L 2668,27497 L 2691,27474 L 2798,27578 L 2906,27683 z "
             style="fill:#ffffff;fill-opacity:1" />
          <path
             id="path5091"
             d="M 2775,27602 L 2883,27707 L 2872,27716 L 2775,27602 z "
             style="fill:#ffffff;fill-opacity:1" />
          <path
             id="path5093"
             d="M 2872,27716 L 2847,27738 L 2750,27624 L 2653,27509 L 2678,27488 L 2775,27602 L 2872,27716 z "
             style="fill:#ffffff;fill-opacity:1" />
          <path
             id="path5095"
             d="M 2750,27624 L 2847,27738 L 2831,27749 L 2750,27624 z "
             style="fill:#ffffff;fill-opacity:1" />
          <path
             id="path5097"
             d="M 2831,27749 L 2773,27787 L 2692,27661 L 2610,27536 L 2668,27498 L 2750,27624 L 2831,27749 z "
             style="fill:#ffffff;fill-opacity:1" />
          <path
             id="path5099"
             d="M 2692,27661 L 2773,27787 L 2754,27798 L 2692,27661 z "
             style="fill:#ffffff;fill-opacity:1" />
          <path
             id="path5101"
             d="M 2754,27798 L 2689,27828 L 2626,27691 L 2564,27555 L 2629,27525 L 2692,27661 L 2754,27798 z "
             style="fill:#ffffff;fill-opacity:1" />
          <path
             id="path5103"
             d="M 2626,27691 L 2689,27828 L 2670,27835 L 2626,27691 z "
             style="fill:#ffffff;fill-opacity:1" />
          <path
             id="path5105"
             d="M 2670,27835 L 2599,27856 L 2556,27713 L 2512,27569 L 2582,27548 L 2626,27691 L 2670,27835 z "
             style="fill:#ffffff;fill-opacity:1" />
          <path
             id="path5107"
             d="M 2556,27713 L 2599,27856 L 2582,27861 L 2556,27713 z "
             style="fill:#ffffff;fill-opacity:1" />
          <path
             id="path5109"
             d="M 2582,27861 L 2508,27874 L 2482,27726 L 2456,27578 L 2530,27565 L 2556,27713 L 2582,27861 z "
             style="fill:#ffffff;fill-opacity:1" />
          <path
             id="path5111"
             d="M 2482,27726 L 2508,27874 L 2490,27876 L 2482,27726 z "
             style="fill:#ffffff;fill-opacity:1" />
          <path
             id="path5113"
             d="M 2490,27876 L 2415,27880 L 2407,27730 L 2399,27580 L 2474,27576 L 2482,27726 L 2490,27876 z "
             style="fill:#ffffff;fill-opacity:1" />
          <path
             id="path5115"
             d="M 2407,27730 L 2415,27880 L 2396,27880 L 2407,27730 z "
             style="fill:#ffffff;fill-opacity:1" />
          <path
             id="path5117"
             d="M 2396,27880 L 2322,27874 L 2332,27725 L 2343,27575 L 2417,27580 L 2407,27730 L 2396,27880 z "
             style="fill:#ffffff;fill-opacity:1" />
          <path
             id="path5119"
             d="M 2332,27725 L 2322,27874 L 2302,27872 L 2332,27725 z "
             style="fill:#ffffff;fill-opacity:1" />
          <path
             id="path5121"
             d="M 2302,27872 L 2231,27857 L 2261,27710 L 2291,27563 L 2363,27578 L 2332,27725 L 2302,27872 z "
             style="fill:#ffffff;fill-opacity:1" />
          <path
             id="path5123"
             d="M 2261,27710 L 2231,27857 L 2215,27853 L 2261,27710 z "
             style="fill:#ffffff;fill-opacity:1" />
          <path
             id="path5125"
             d="M 2215,27853 L 2181,27842 L 2227,27699 L 2274,27556 L 2308,27567 L 2261,27710 L 2215,27853 z "
             style="fill:#ffffff;fill-opacity:1" />
          <path
             id="path5127"
             d="M 2227,27699 L 2181,27842 L 2169,27837 L 2227,27699 z "
             style="fill:#ffffff;fill-opacity:1" />
          <path
             id="path5129"
             d="M 2169,27837 L 2137,27824 L 2195,27685 L 2253,27547 L 2285,27561 L 2227,27699 L 2169,27837 z "
             style="fill:#ffffff;fill-opacity:1" />
          <path
             id="path5131"
             d="M 2195,27685 L 2137,27824 L 2125,27818 L 2195,27685 z "
             style="fill:#ffffff;fill-opacity:1" />
          <path
             id="path5133"
             d="M 2125,27818 L 2094,27802 L 2164,27669 L 2234,27536 L 2264,27553 L 2195,27685 L 2125,27818 z "
             style="fill:#ffffff;fill-opacity:1" />
          <path
             id="path5135"
             d="M 2164,27669 L 2094,27802 L 2082,27795 L 2164,27669 z "
             style="fill:#ffffff;fill-opacity:1" />
          <path
             id="path5137"
             d="M 2082,27795 L 2053,27776 L 2135,27650 L 2217,27525 L 2246,27544 L 2164,27669 L 2082,27795 z "
             style="fill:#ffffff;fill-opacity:1" />
          <path
             id="path5139"
             d="M 2135,27650 L 2053,27776 L 2041,27767 L 2135,27650 z "
             style="fill:#ffffff;fill-opacity:1" />
          <path
             id="path5141"
             d="M 2041,27767 L 2014,27746 L 2109,27629 L 2203,27512 L 2229,27534 L 2135,27650 L 2041,27767 z "
             style="fill:#ffffff;fill-opacity:1" />
          <path
             id="path5143"
             d="M 2109,27629 L 2014,27746 L 2002,27735 L 2109,27629 z "
             style="fill:#ffffff;fill-opacity:1" />
          <path
             id="path5145"
             d="M 2002,27735 L 1978,27711 L 2085,27605 L 2191,27499 L 2215,27523 L 2109,27629 L 2002,27735 z "
             style="fill:#ffffff;fill-opacity:1" />
          <path
             id="path5147"
             d="M 2085,27605 L 1978,27711 L 1967,27698 L 2085,27605 z "
             style="fill:#ffffff;fill-opacity:1" />
          <path
             id="path5149"
             d="M 1967,27698 L 1946,27671 L 2064,27578 L 2181,27485 L 2202,27512 L 2085,27605 L 1967,27698 z "
             style="fill:#ffffff;fill-opacity:1" />
          <path
             id="path5151"
             d="M 2064,27578 L 1946,27671 L 1936,27657 L 2064,27578 z "
             style="fill:#ffffff;fill-opacity:1" />
          <path
             id="path5153"
             d="M 1936,27657 L 1918,27627 L 2045,27549 L 2173,27470 L 2191,27500 L 2064,27578 L 1936,27657 z "
             style="fill:#ffffff;fill-opacity:1" />
          <path
             id="path5155"
             d="M 2045,27549 L 1918,27627 L 1909,27611 L 2045,27549 z "
             style="fill:#ffffff;fill-opacity:1" />
          <path
             id="path5157"
             d="M 1909,27611 L 1894,27579 L 2030,27516 L 2167,27453 L 2182,27486 L 2045,27549 L 1909,27611 z "
             style="fill:#ffffff;fill-opacity:1" />
          <path
             id="path5159"
             d="M 2030,27516 L 1894,27579 L 1888,27562 L 2030,27516 z "
             style="fill:#ffffff;fill-opacity:1" />
          <path
             id="path5161"
             d="M 1888,27562 L 1876,27527 L 2019,27481 L 2162,27435 L 2173,27470 L 2030,27516 L 1888,27562 z "
             style="fill:#ffffff;fill-opacity:1" />
        </g>
        <g
           id="g5163"
           style="fill:#ffffff;fill-opacity:1" />
      </g>
    </g>
    <g
       transform="matrix(9.4125411e-3,0,0,9.4125411e-3,-15.287875,-238.36306)"
       style="fill:#ffffff;fill-opacity:1;visibility:visible"
       id="g5165">
      <desc
         id="desc5167">Drawing</desc>
      <g
         id="g5169"
         style="fill:#ffffff;fill-opacity:1">
        <g
           id="g5171"
           style="fill:#ffffff;fill-opacity:1;stroke:none">
          <path
             id="path5173"
             d="M 3063,27101 L 5206,27101 L 5206,27301 L 3063,27301 L 3063,27101 z "
             style="fill:#ffffff;fill-opacity:1" />
        </g>
        <g
           id="g5175"
           style="fill:#ffffff;fill-opacity:1" />
      </g>
    </g>
    <g
       transform="matrix(9.4125411e-3,0,0,9.4125411e-3,-15.287875,-238.36306)"
       style="fill:#ffffff;fill-opacity:1;visibility:visible"
       id="g5177">
      <desc
         id="desc5179">Drawing</desc>
      <g
         id="g5181"
         style="fill:#ffffff;fill-opacity:1">
        <g
           id="g5183"
           style="fill:#ffffff;fill-opacity:1;stroke:none">
          <path
             id="path5185"
             d="M 3308,26551 L 5022,27646 L 4914,27814 L 3200,26719 L 3308,26551 z "
             style="fill:#ffffff;fill-opacity:1" />
        </g>
        <g
           id="g5187"
           style="fill:#ffffff;fill-opacity:1" />
      </g>
    </g>
    <g
       transform="matrix(9.4125411e-3,0,0,9.4125411e-3,-15.287875,-238.36306)"
       style="fill:#ffffff;fill-opacity:1;visibility:visible"
       id="g5189">
      <desc
         id="desc5191">Drawing</desc>
      <g
         id="g5193"
         style="fill:#ffffff;fill-opacity:1">
        <g
           id="g5195"
           style="fill:#ffffff;fill-opacity:1;stroke:none">
          <path
             id="path5197"
             d="M 4675,26348 L 3770,28063 L 3594,27969 L 4499,26254 L 4675,26348 z "
             style="fill:#ffffff;fill-opacity:1" />
        </g>
        <g
           id="g5199"
           style="fill:#ffffff;fill-opacity:1" />
      </g>
    </g>
    <g
       transform="matrix(9.4125411e-3,0,0,9.4125411e-3,-15.287875,-238.36306)"
       style="fill:#ffffff;fill-opacity:1;visibility:visible"
       id="g5201">
      <desc
         id="desc5203">Drawing</desc>
      <g
         id="g5205"
         style="fill:#ffffff;fill-opacity:1">
        <g
           id="g5207"
           style="fill:#ffffff;fill-opacity:1;stroke:none">
          <path
             id="path5209"
             d="M 3871,26219 L 4538,28028 L 4350,28098 L 3683,26289 L 3871,26219 z "
             style="fill:#ffffff;fill-opacity:1" />
        </g>
        <g
           id="g5211"
           style="fill:#ffffff;fill-opacity:1" />
      </g>
    </g>
    <g
       transform="matrix(9.4125411e-3,0,0,9.4125411e-3,-15.287875,-238.36306)"
       style="fill:#ffffff;fill-opacity:1;visibility:visible"
       id="g5213">
      <desc
         id="desc5215">Drawing</desc>
      <g
         id="g5217"
         style="fill:#ffffff;fill-opacity:1">
        <g
           id="g5219"
           style="fill:#ffffff;fill-opacity:1;stroke:none">
          <path
             id="path5221"
             d="M 5111,26770 L 3302,27770 L 3206,27594 L 5015,26594 L 5111,26770 z "
             style="fill:#ffffff;fill-opacity:1" />
        </g>
        <g
           id="g5223"
           style="fill:#ffffff;fill-opacity:1" />
      </g>
    </g>
  </g>
</svg>
