<?xml version="1.0" encoding="UTF-8" standalone="no"?>
<!-- Created with Inkscape (http://www.inkscape.org/) -->
<svg
   xmlns:dc="http://purl.org/dc/elements/1.1/"
   xmlns:cc="http://web.resource.org/cc/"
   xmlns:rdf="http://www.w3.org/1999/02/22-rdf-syntax-ns#"
   xmlns:svg="http://www.w3.org/2000/svg"
   xmlns="http://www.w3.org/2000/svg"
   xmlns:sodipodi="http://sodipodi.sourceforge.net/DTD/sodipodi-0.dtd"
   xmlns:inkscape="http://www.inkscape.org/namespaces/inkscape"
   width="1cm"
   height="1cm"
   id="svg9908"
   sodipodi:version="0.32"
   inkscape:version="0.45"
   version="1.0"
   sodipodi:docbase="/data/world/proj/Kproj/symsolon/share/symsolon/aspects"
   sodipodi:docname="aspect-biundecim.svg"
   inkscape:output_extension="org.inkscape.output.svg.inkscape"
   sodipodi:modified="true">
  <defs
     id="defs9910" />
  <sodipodi:namedview
     id="base"
     pagecolor="#000000"
     bordercolor="#666666"
     borderopacity="1.0"
     inkscape:pageopacity="1"
     inkscape:pageshadow="2"
     inkscape:zoom="7.0170015"
     inkscape:cx="0.79131245"
     inkscape:cy="17.556514"
     inkscape:document-units="px"
     inkscape:current-layer="layer1"
     inkscape:window-width="966"
     inkscape:window-height="626"
     inkscape:window-x="135"
     inkscape:window-y="100" />
  <metadata
     id="metadata9913">
    <rdf:RDF>
      <cc:Work
         rdf:about="">
        <dc:format>image/svg+xml</dc:format>
        <dc:type
           rdf:resource="http://purl.org/dc/dcmitype/StillImage" />
      </cc:Work>
    </rdf:RDF>
  </metadata>
  <g
     inkscape:label="1. réteg"
     inkscape:groupmode="layer"
     id="layer1">
    <g
       transform="matrix(1.0843709e-2,0,0,1.0843709e-2,-119.20259,-208.34739)"
       style="fill:#ffffff;fill-opacity:1;visibility:visible"
       id="g1935">
      <desc
         id="desc1937"
         style="fill-opacity:1.0;fill:url(#linearGradient7204)">Drawing</desc>
      <g
         id="g1939"
         style="fill:#ffffff;fill-opacity:1">
        <g
           id="g1941"
           style="fill:#ffffff;fill-opacity:1;stroke:none">
          <path
             id="path1943"
             d="M 11764,20428 L 11764,21673 L 11464,21673 L 11464,20428 L 11764,20428 z "
             style="fill:#ffffff;fill-opacity:1" />
        </g>
        <g
           id="g1945"
           style="fill:#ffffff;fill-opacity:1" />
      </g>
    </g>
    <g
       transform="matrix(1.0843709e-2,0,0,1.0843709e-2,-119.20259,-208.34739)"
       style="fill:#ffffff;fill-opacity:1;visibility:visible"
       id="g1947">
      <desc
         id="desc1949"
         style="fill-opacity:1.0;fill:url(#linearGradient7202)">Drawing</desc>
      <g
         id="g1951"
         style="fill:#ffffff;fill-opacity:1">
        <g
           id="g1953"
           style="fill:#ffffff;fill-opacity:1;stroke:none">
          <path
             id="path1955"
             d="M 11067,20246 L 12079,20246 L 12079,20546 L 11067,20546 L 11067,20246 z "
             style="fill:#ffffff;fill-opacity:1" />
        </g>
        <g
           id="g1957"
           style="fill:#ffffff;fill-opacity:1" />
      </g>
    </g>
    <g
       transform="matrix(1.0843709e-2,0,0,1.0843709e-2,-119.20259,-207.77735)"
       style="fill:#ffffff;fill-opacity:1;visibility:visible"
       id="g2235">
      <desc
         id="desc2237"
         style="fill-opacity:1.0;fill:url(#linearGradient7190)">Drawing</desc>
      <g
         id="g2239"
         style="fill:#ffffff;fill-opacity:1">
        <g
           id="g2241"
           style="fill:#ffffff;fill-opacity:1;stroke:none">
          <path
             id="path2243"
             d="M 13406,19718 L 13496,19733 L 13472,19881 L 13447,20029 L 13358,20014 L 13382,19866 L 13406,19718 z "
             style="fill:#ffffff;fill-opacity:1" />
          <path
             id="path2245"
             d="M 13472,19881 L 13496,19733 L 13509,19735 L 13472,19881 z "
             style="fill:#ffffff;fill-opacity:1" />
          <path
             id="path2247"
             d="M 13509,19735 L 13592,19757 L 13554,19902 L 13516,20047 L 13434,20026 L 13472,19881 L 13509,19735 z "
             style="fill:#ffffff;fill-opacity:1" />
          <path
             id="path2249"
             d="M 13554,19902 L 13592,19757 L 13606,19762 L 13554,19902 z "
             style="fill:#ffffff;fill-opacity:1" />
          <path
             id="path2251"
             d="M 13606,19762 L 13682,19790 L 13630,19930 L 13577,20071 L 13502,20043 L 13554,19902 L 13606,19762 z "
             style="fill:#ffffff;fill-opacity:1" />
          <path
             id="path2253"
             d="M 13630,19930 L 13682,19790 L 13696,19796 L 13630,19930 z "
             style="fill:#ffffff;fill-opacity:1" />
          <path
             id="path2255"
             d="M 13696,19796 L 13765,19830 L 13698,19964 L 13632,20099 L 13563,20065 L 13630,19930 L 13696,19796 z "
             style="fill:#ffffff;fill-opacity:1" />
          <path
             id="path2257"
             d="M 13698,19964 L 13765,19830 L 13779,19838 L 13698,19964 z "
             style="fill:#ffffff;fill-opacity:1" />
          <path
             id="path2259"
             d="M 13779,19838 L 13841,19878 L 13760,20004 L 13680,20131 L 13618,20091 L 13698,19964 L 13779,19838 z "
             style="fill:#ffffff;fill-opacity:1" />
          <path
             id="path2261"
             d="M 13760,20004 L 13841,19878 L 13855,19887 L 13760,20004 z "
             style="fill:#ffffff;fill-opacity:1" />
          <path
             id="path2263"
             d="M 13855,19887 L 13910,19932 L 13816,20049 L 13722,20166 L 13666,20121 L 13760,20004 L 13855,19887 z "
             style="fill:#ffffff;fill-opacity:1" />
          <path
             id="path2265"
             d="M 13816,20049 L 13910,19932 L 13923,19943 L 13816,20049 z "
             style="fill:#ffffff;fill-opacity:1" />
          <path
             id="path2267"
             d="M 13923,19943 L 13972,19993 L 13865,20099 L 13759,20204 L 13710,20155 L 13816,20049 L 13923,19943 z "
             style="fill:#ffffff;fill-opacity:1" />
          <path
             id="path2269"
             d="M 13865,20099 L 13972,19993 L 13982,20005 L 13865,20099 z "
             style="fill:#ffffff;fill-opacity:1" />
          <path
             id="path2271"
             d="M 13982,20005 L 14025,20059 L 13908,20152 L 13791,20246 L 13748,20192 L 13865,20099 L 13982,20005 z "
             style="fill:#ffffff;fill-opacity:1" />
          <path
             id="path2273"
             d="M 13908,20152 L 14025,20059 L 14035,20072 L 13908,20152 z "
             style="fill:#ffffff;fill-opacity:1" />
          <path
             id="path2275"
             d="M 14035,20072 L 14071,20129 L 13945,20210 L 13818,20291 L 13782,20233 L 13908,20152 L 14035,20072 z "
             style="fill:#ffffff;fill-opacity:1" />
          <path
             id="path2277"
             d="M 13945,20210 L 14071,20129 L 14079,20142 L 13945,20210 z "
             style="fill:#ffffff;fill-opacity:1" />
          <path
             id="path2279"
             d="M 14079,20142 L 14109,20203 L 13975,20271 L 13842,20338 L 13811,20278 L 13945,20210 L 14079,20142 z "
             style="fill:#ffffff;fill-opacity:1" />
          <path
             id="path2281"
             d="M 13975,20271 L 14109,20203 L 14115,20216 L 13975,20271 z "
             style="fill:#ffffff;fill-opacity:1" />
          <path
             id="path2283"
             d="M 14115,20216 L 14140,20280 L 14000,20335 L 13860,20389 L 13836,20325 L 13975,20271 L 14115,20216 z "
             style="fill:#ffffff;fill-opacity:1" />
          <path
             id="path2285"
             d="M 14000,20335 L 14140,20280 L 14144,20293 L 14000,20335 z "
             style="fill:#ffffff;fill-opacity:1" />
          <path
             id="path2287"
             d="M 14144,20293 L 14163,20359 L 14019,20401 L 13875,20442 L 13856,20376 L 14000,20335 L 14144,20293 z "
             style="fill:#ffffff;fill-opacity:1" />
          <path
             id="path2289"
             d="M 14019,20401 L 14163,20359 L 14166,20372 L 14019,20401 z "
             style="fill:#ffffff;fill-opacity:1" />
          <path
             id="path2291"
             d="M 14166,20372 L 14180,20440 L 14033,20469 L 13885,20498 L 13872,20430 L 14019,20401 L 14166,20372 z "
             style="fill:#ffffff;fill-opacity:1" />
          <path
             id="path2293"
             d="M 14033,20469 L 14180,20440 L 14182,20452 L 14033,20469 z "
             style="fill:#ffffff;fill-opacity:1" />
          <path
             id="path2295"
             d="M 14182,20452 L 14190,20521 L 14041,20538 L 13891,20555 L 13884,20486 L 14033,20469 L 14182,20452 z "
             style="fill:#ffffff;fill-opacity:1" />
          <path
             id="path2297"
             d="M 14041,20538 L 14190,20521 L 14191,20539 L 14041,20538 z "
             style="fill:#ffffff;fill-opacity:1" />
          <path
             id="path2299"
             d="M 14191,20539 L 14190,20680 L 14040,20680 L 13890,20679 L 13891,20538 L 14041,20538 L 14191,20539 z "
             style="fill:#ffffff;fill-opacity:1" />
          <path
             id="path2301"
             d="M 14040,20680 L 14190,20680 L 14189,20702 L 14040,20680 z "
             style="fill:#ffffff;fill-opacity:1" />
          <path
             id="path2303"
             d="M 14189,20702 L 14168,20844 L 14019,20822 L 13871,20800 L 13892,20658 L 14040,20680 L 14189,20702 z "
             style="fill:#ffffff;fill-opacity:1" />
          <path
             id="path2305"
             d="M 14019,20822 L 14168,20844 L 14163,20864 L 14019,20822 z "
             style="fill:#ffffff;fill-opacity:1" />
          <path
             id="path2307"
             d="M 14163,20864 L 14123,21003 L 13979,20961 L 13835,20919 L 13875,20780 L 14019,20822 L 14163,20864 z "
             style="fill:#ffffff;fill-opacity:1" />
          <path
             id="path2309"
             d="M 13979,20961 L 14123,21003 L 14116,21022 L 13979,20961 z "
             style="fill:#ffffff;fill-opacity:1" />
          <path
             id="path2311"
             d="M 14116,21022 L 14057,21154 L 13920,21093 L 13783,21031 L 13842,20899 L 13979,20961 L 14116,21022 z "
             style="fill:#ffffff;fill-opacity:1" />
          <path
             id="path2313"
             d="M 13920,21093 L 14057,21154 L 14047,21173 L 13920,21093 z "
             style="fill:#ffffff;fill-opacity:1" />
          <path
             id="path2315"
             d="M 14047,21173 L 13970,21294 L 13843,21214 L 13716,21134 L 13793,21013 L 13920,21093 L 14047,21173 z "
             style="fill:#ffffff;fill-opacity:1" />
          <path
             id="path2317"
             d="M 13843,21214 L 13970,21294 L 13956,21312 L 13843,21214 z "
             style="fill:#ffffff;fill-opacity:1" />
          <path
             id="path2319"
             d="M 13956,21312 L 13863,21419 L 13750,21321 L 13637,21223 L 13730,21115 L 13843,21214 L 13956,21312 z "
             style="fill:#ffffff;fill-opacity:1" />
          <path
             id="path2321"
             d="M 13750,21321 L 13863,21419 L 13850,21433 L 13750,21321 z "
             style="fill:#ffffff;fill-opacity:1" />
          <path
             id="path2323"
             d="M 13850,21433 L 13798,21480 L 13698,21368 L 13597,21256 L 13650,21209 L 13750,21321 L 13850,21433 z "
             style="fill:#ffffff;fill-opacity:1" />
          <path
             id="path2325"
             d="M 13698,21368 L 13798,21480 L 13788,21488 L 13698,21368 z "
             style="fill:#ffffff;fill-opacity:1" />
          <path
             id="path2327"
             d="M 13788,21488 L 13731,21530 L 13642,21410 L 13552,21290 L 13608,21248 L 13698,21368 L 13788,21488 z "
             style="fill:#ffffff;fill-opacity:1" />
          <path
             id="path2329"
             d="M 13642,21410 L 13731,21530 L 13720,21538 L 13642,21410 z "
             style="fill:#ffffff;fill-opacity:1" />
          <path
             id="path2331"
             d="M 13720,21538 L 13660,21575 L 13582,21447 L 13503,21319 L 13563,21282 L 13642,21410 L 13720,21538 z "
             style="fill:#ffffff;fill-opacity:1" />
          <path
             id="path2333"
             d="M 13582,21447 L 13660,21575 L 13648,21582 L 13582,21447 z "
             style="fill:#ffffff;fill-opacity:1" />
          <path
             id="path2335"
             d="M 13648,21582 L 13584,21612 L 13518,21478 L 13453,21343 L 13516,21312 L 13582,21447 L 13648,21582 z "
             style="fill:#ffffff;fill-opacity:1" />
          <path
             id="path2337"
             d="M 13518,21478 L 13584,21612 L 13570,21618 L 13518,21478 z "
             style="fill:#ffffff;fill-opacity:1" />
          <path
             id="path2339"
             d="M 13570,21618 L 13504,21643 L 13452,21502 L 13400,21361 L 13467,21337 L 13518,21478 L 13570,21618 z "
             style="fill:#ffffff;fill-opacity:1" />
          <path
             id="path2341"
             d="M 13452,21502 L 13504,21643 L 13489,21648 L 13452,21502 z "
             style="fill:#ffffff;fill-opacity:1" />
          <path
             id="path2343"
             d="M 13489,21648 L 13419,21665 L 13382,21520 L 13345,21375 L 13415,21357 L 13452,21502 L 13489,21648 z "
             style="fill:#ffffff;fill-opacity:1" />
        </g>
        <g
           id="g2345"
           style="fill:#ffffff;fill-opacity:1" />
      </g>
    </g>
    <g
       transform="matrix(1.0843709e-2,0,0,1.0843709e-2,-119.20259,-208.34739)"
       style="fill:#ffffff;fill-opacity:1;visibility:visible"
       id="g2347">
      <desc
         id="desc2349"
         style="fill-opacity:1.0;fill:url(#linearGradient7188)">Drawing</desc>
      <g
         id="g2351"
         style="fill:#ffffff;fill-opacity:1">
        <g
           id="g2353"
           style="fill:#ffffff;fill-opacity:1;stroke:none">
          <path
             id="path2355"
             d="M 13532,19768 L 13532,21720 L 13232,21720 L 13232,19768 L 13532,19768 z "
             style="fill:#ffffff;fill-opacity:1" />
        </g>
        <g
           id="g2357"
           style="fill:#ffffff;fill-opacity:1" />
      </g>
    </g>
    <g
       transform="matrix(1.0843709e-2,0,0,1.0843709e-2,-119.20259,-208.34739)"
       style="fill:#ffffff;fill-opacity:1;visibility:visible"
       id="g2359">
      <desc
         id="desc2361"
         style="fill-opacity:1.0;fill:url(#linearGradient7186)">Drawing</desc>
      <g
         id="g2363"
         style="fill:#ffffff;fill-opacity:1">
        <g
           id="g2365"
           style="fill:#ffffff;fill-opacity:1;stroke:none">
          <path
             id="path2367"
             d="M 12465,19813 L 12481,20597 L 12331,20600 L 12181,20603 L 12165,19819 L 12315,19816 L 12465,19813 z "
             style="fill:#ffffff;fill-opacity:1" />
          <path
             id="path2369"
             d="M 12331,20600 L 12182,20611 L 12181,20603 L 12331,20600 z "
             style="fill:#ffffff;fill-opacity:1" />
          <path
             id="path2371"
             d="M 12481,20589 L 12504,20899 L 12354,20910 L 12205,20922 L 12182,20611 L 12331,20600 L 12481,20589 z "
             style="fill:#ffffff;fill-opacity:1" />
          <path
             id="path2373"
             d="M 12354,20910 L 12206,20932 L 12205,20922 L 12354,20910 z "
             style="fill:#ffffff;fill-opacity:1" />
          <path
             id="path2375"
             d="M 12503,20889 L 12539,21145 L 12391,21166 L 12242,21187 L 12206,20932 L 12354,20910 L 12503,20889 z "
             style="fill:#ffffff;fill-opacity:1" />
          <path
             id="path2377"
             d="M 12391,21166 L 12244,21199 L 12242,21187 L 12391,21166 z "
             style="fill:#ffffff;fill-opacity:1" />
          <path
             id="path2379"
             d="M 12537,21133 L 12561,21240 L 12415,21273 L 12268,21305 L 12244,21199 L 12391,21166 L 12537,21133 z "
             style="fill:#ffffff;fill-opacity:1" />
          <path
             id="path2381"
             d="M 12415,21273 L 12271,21316 L 12268,21305 L 12415,21273 z "
             style="fill:#ffffff;fill-opacity:1" />
          <path
             id="path2383"
             d="M 12558,21230 L 12586,21323 L 12442,21366 L 12299,21409 L 12271,21316 L 12415,21273 L 12558,21230 z "
             style="fill:#ffffff;fill-opacity:1" />
          <path
             id="path2385"
             d="M 12442,21366 L 12303,21422 L 12299,21409 L 12442,21366 z "
             style="fill:#ffffff;fill-opacity:1" />
          <path
             id="path2387"
             d="M 12581,21309 L 12613,21388 L 12474,21445 L 12336,21501 L 12303,21422 L 12442,21366 L 12581,21309 z "
             style="fill:#ffffff;fill-opacity:1" />
          <path
             id="path2389"
             d="M 12474,21445 L 12344,21519 L 12336,21501 L 12474,21445 z "
             style="fill:#ffffff;fill-opacity:1" />
          <path
             id="path2391"
             d="M 12605,21371 L 12642,21435 L 12511,21509 L 12381,21583 L 12344,21519 L 12474,21445 L 12605,21371 z "
             style="fill:#ffffff;fill-opacity:1" />
          <path
             id="path2393"
             d="M 12511,21509 L 12391,21599 L 12381,21583 L 12511,21509 z "
             style="fill:#ffffff;fill-opacity:1" />
          <path
             id="path2395"
             d="M 12631,21420 L 12652,21447 L 12531,21536 L 12411,21626 L 12391,21599 L 12511,21509 L 12631,21420 z "
             style="fill:#ffffff;fill-opacity:1" />
          <path
             id="path2397"
             d="M 12531,21536 L 12420,21638 L 12411,21626 L 12531,21536 z "
             style="fill:#ffffff;fill-opacity:1" />
          <path
             id="path2399"
             d="M 12642,21435 L 12664,21459 L 12553,21560 L 12442,21661 L 12420,21638 L 12531,21536 L 12642,21435 z "
             style="fill:#ffffff;fill-opacity:1" />
          <path
             id="path2401"
             d="M 12553,21560 L 12454,21673 L 12442,21661 L 12553,21560 z "
             style="fill:#ffffff;fill-opacity:1" />
          <path
             id="path2403"
             d="M 12652,21447 L 12674,21467 L 12575,21580 L 12476,21693 L 12454,21673 L 12553,21560 L 12652,21447 z "
             style="fill:#ffffff;fill-opacity:1" />
          <path
             id="path2405"
             d="M 12575,21580 L 12491,21704 L 12476,21693 L 12575,21580 z "
             style="fill:#ffffff;fill-opacity:1" />
          <path
             id="path2407"
             d="M 12660,21456 L 12684,21472 L 12599,21596 L 12515,21720 L 12491,21704 L 12575,21580 L 12660,21456 z "
             style="fill:#ffffff;fill-opacity:1" />
          <path
             id="path2409"
             d="M 12599,21596 L 12532,21730 L 12515,21720 L 12599,21596 z "
             style="fill:#ffffff;fill-opacity:1" />
          <path
             id="path2411"
             d="M 12666,21462 L 12692,21475 L 12625,21609 L 12558,21743 L 12532,21730 L 12599,21596 L 12666,21462 z "
             style="fill:#ffffff;fill-opacity:1" />
          <path
             id="path2413"
             d="M 12625,21609 L 12576,21751 L 12558,21743 L 12625,21609 z "
             style="fill:#ffffff;fill-opacity:1" />
          <path
             id="path2415"
             d="M 12673,21467 L 12700,21476 L 12651,21618 L 12603,21760 L 12576,21751 L 12625,21609 L 12673,21467 z "
             style="fill:#ffffff;fill-opacity:1" />
          <path
             id="path2417"
             d="M 12651,21618 L 12623,21765 L 12603,21760 L 12651,21618 z "
             style="fill:#ffffff;fill-opacity:1" />
          <path
             id="path2419"
             d="M 12680,21470 L 12708,21476 L 12679,21623 L 12651,21770 L 12623,21765 L 12651,21618 L 12680,21470 z "
             style="fill:#ffffff;fill-opacity:1" />
          <path
             id="path2421"
             d="M 12679,21623 L 12670,21773 L 12651,21770 L 12679,21623 z "
             style="fill:#ffffff;fill-opacity:1" />
          <path
             id="path2423"
             d="M 12689,21473 L 12718,21475 L 12709,21625 L 12700,21775 L 12670,21773 L 12679,21623 L 12689,21473 z "
             style="fill:#ffffff;fill-opacity:1" />
          <path
             id="path2425"
             d="M 12709,21625 L 12727,21774 L 12700,21775 L 12700,21775 L 12709,21625 z "
             style="fill:#ffffff;fill-opacity:1" />
          <path
             id="path2427"
             d="M 12691,21476 L 12721,21473 L 12738,21622 L 12756,21771 L 12727,21774 L 12709,21625 L 12691,21476 z "
             style="fill:#ffffff;fill-opacity:1" />
          <path
             id="path2429"
             d="M 12738,21622 L 12790,21762 L 12765,21769 L 12756,21771 L 12738,21622 z "
             style="fill:#ffffff;fill-opacity:1" />
          <path
             id="path2431"
             d="M 12686,21481 L 12713,21471 L 12765,21612 L 12817,21752 L 12790,21762 L 12738,21622 L 12686,21481 z "
             style="fill:#ffffff;fill-opacity:1" />
          <path
             id="path2433"
             d="M 12765,21612 L 12847,21737 L 12824,21750 L 12817,21752 L 12765,21612 z "
             style="fill:#ffffff;fill-opacity:1" />
          <path
             id="path2435"
             d="M 12683,21486 L 12709,21469 L 12790,21595 L 12872,21721 L 12847,21737 L 12765,21612 L 12683,21486 z "
             style="fill:#ffffff;fill-opacity:1" />
          <path
             id="path2437"
             d="M 12790,21595 L 12894,21703 L 12874,21720 L 12872,21721 L 12790,21595 z "
             style="fill:#ffffff;fill-opacity:1" />
          <path
             id="path2439"
             d="M 12687,21487 L 12710,21465 L 12814,21573 L 12918,21681 L 12894,21703 L 12790,21595 L 12687,21487 z "
             style="fill:#ffffff;fill-opacity:1" />
          <path
             id="path2441"
             d="M 12814,21573 L 12933,21664 L 12918,21681 L 12814,21573 z "
             style="fill:#ffffff;fill-opacity:1" />
          <path
             id="path2443"
             d="M 12695,21482 L 12716,21453 L 12835,21545 L 12954,21636 L 12933,21664 L 12814,21573 L 12695,21482 z "
             style="fill:#ffffff;fill-opacity:1" />
          <path
             id="path2445"
             d="M 12835,21545 L 12964,21621 L 12954,21636 L 12835,21545 z "
             style="fill:#ffffff;fill-opacity:1" />
          <path
             id="path2447"
             d="M 12706,21468 L 12726,21435 L 12855,21511 L 12984,21588 L 12964,21621 L 12835,21545 L 12706,21468 z "
             style="fill:#ffffff;fill-opacity:1" />
          <path
             id="path2449"
             d="M 12855,21511 L 12993,21570 L 12984,21588 L 12855,21511 z "
             style="fill:#ffffff;fill-opacity:1" />
          <path
             id="path2451"
             d="M 12717,21453 L 12751,21371 L 12890,21430 L 13028,21488 L 12993,21570 L 12855,21511 L 12717,21453 z "
             style="fill:#ffffff;fill-opacity:1" />
          <path
             id="path2453"
             d="M 12890,21430 L 13034,21471 L 13028,21488 L 12890,21430 z "
             style="fill:#ffffff;fill-opacity:1" />
          <path
             id="path2455"
             d="M 12745,21388 L 12774,21289 L 12918,21331 L 13062,21372 L 13034,21471 L 12890,21430 L 12745,21388 z "
             style="fill:#ffffff;fill-opacity:1" />
          <path
             id="path2457"
             d="M 12918,21331 L 13065,21360 L 13062,21372 L 12918,21331 z "
             style="fill:#ffffff;fill-opacity:1" />
          <path
             id="path2459"
             d="M 12771,21301 L 12794,21187 L 12941,21216 L 13088,21246 L 13065,21360 L 12918,21331 L 12771,21301 z "
             style="fill:#ffffff;fill-opacity:1" />
          <path
             id="path2461"
             d="M 12941,21216 L 13090,21234 L 13088,21246 L 12941,21216 z "
             style="fill:#ffffff;fill-opacity:1" />
          <path
             id="path2463"
             d="M 12792,21198 L 12824,20935 L 12973,20953 L 13122,20971 L 13090,21234 L 12941,21216 L 12792,21198 z "
             style="fill:#ffffff;fill-opacity:1" />
          <path
             id="path2465"
             d="M 12973,20953 L 13123,20962 L 13122,20971 L 12973,20953 z "
             style="fill:#ffffff;fill-opacity:1" />
          <path
             id="path2467"
             d="M 12823,20945 L 12840,20653 L 12989,20661 L 13139,20670 L 13123,20962 L 12973,20953 L 12823,20945 z "
             style="fill:#ffffff;fill-opacity:1" />
          <path
             id="path2469"
             d="M 12989,20661 L 13139,20664 L 13139,20670 L 12989,20661 z "
             style="fill:#ffffff;fill-opacity:1" />
          <path
             id="path2471"
             d="M 12839,20658 L 12846,20358 L 12996,20361 L 13146,20364 L 13139,20664 L 12989,20661 L 12839,20658 z "
             style="fill:#ffffff;fill-opacity:1" />
          <path
             id="path2473"
             d="M 12996,20361 L 13146,20360 L 13146,20364 L 12996,20361 z "
             style="fill:#ffffff;fill-opacity:1" />
          <path
             id="path2475"
             d="M 12846,20361 L 12845,19816 L 12995,19816 L 13145,19816 L 13146,20360 L 12996,20361 L 12846,20361 z "
             style="fill:#ffffff;fill-opacity:1" />
        </g>
        <g
           id="g2477"
           style="fill:#ffffff;fill-opacity:1" />
      </g>
    </g>
  </g>
</svg>
