<?xml version="1.0" encoding="UTF-8" standalone="no"?>
<!-- Created with Inkscape (http://www.inkscape.org/) -->
<svg
   xmlns:dc="http://purl.org/dc/elements/1.1/"
   xmlns:cc="http://web.resource.org/cc/"
   xmlns:rdf="http://www.w3.org/1999/02/22-rdf-syntax-ns#"
   xmlns:svg="http://www.w3.org/2000/svg"
   xmlns="http://www.w3.org/2000/svg"
   xmlns:sodipodi="http://sodipodi.sourceforge.net/DTD/sodipodi-0.dtd"
   xmlns:inkscape="http://www.inkscape.org/namespaces/inkscape"
   width="1cm"
   height="1cm"
   id="svg9908"
   sodipodi:version="0.32"
   inkscape:version="0.45"
   version="1.0"
   sodipodi:docbase="/data/world/proj/Kproj/symsolon/share/symsolon/aspects"
   sodipodi:docname="aspect-quinqueundecim.svg"
   inkscape:output_extension="org.inkscape.output.svg.inkscape"
   sodipodi:modified="true">
  <defs
     id="defs9910" />
  <sodipodi:namedview
     id="base"
     pagecolor="#000000"
     bordercolor="#666666"
     borderopacity="1.0"
     inkscape:pageopacity="1"
     inkscape:pageshadow="2"
     inkscape:zoom="7.0170015"
     inkscape:cx="0.79131245"
     inkscape:cy="17.556514"
     inkscape:document-units="px"
     inkscape:current-layer="layer1"
     inkscape:window-width="966"
     inkscape:window-height="626"
     inkscape:window-x="10"
     inkscape:window-y="73" />
  <metadata
     id="metadata9913">
    <rdf:RDF>
      <cc:Work
         rdf:about="">
        <dc:format>image/svg+xml</dc:format>
        <dc:type
           rdf:resource="http://purl.org/dc/dcmitype/StillImage" />
      </cc:Work>
    </rdf:RDF>
  </metadata>
  <g
     inkscape:label="1. réteg"
     inkscape:groupmode="layer"
     id="layer1">
    <g
       transform="matrix(9.922746e-3,0,0,9.922746e-3,-154.63985,-188.34227)"
       style="fill:#ffffff;fill-opacity:1;visibility:visible"
       id="g1787">
      <desc
         id="desc1789"
         style="fill-opacity:1.0;fill:url(#linearGradient7212)">Drawing</desc>
      <g
         id="g1791"
         style="fill:#ffffff;fill-opacity:1">
        <g
           id="g1793"
           style="fill:#ffffff;fill-opacity:1;stroke:none">
          <path
             id="path1795"
             d="M 16937,20206 L 15984,21363 L 15868,21268 L 15752,21173 L 16705,20016 L 16821,20111 L 16937,20206 z "
             style="fill:#ffffff;fill-opacity:1" />
          <path
             id="path1797"
             d="M 15868,21268 L 15868,21418 L 15842,21416 L 15817,21409 L 15793,21398 L 15772,21383 L 15753,21364 L 15738,21343 L 15727,21319 L 15720,21294 L 15718,21268 L 15720,21242 L 15727,21217 L 15738,21193 L 15752,21173 L 15868,21268 z "
             style="fill:#ffffff;fill-opacity:1" />
          <path
             id="path1799"
             d="M 15868,21118 L 16875,21118 L 16875,21268 L 16875,21418 L 15868,21418 L 15868,21268 L 15868,21118 z "
             style="fill:#ffffff;fill-opacity:1" />
        </g>
        <g
           id="g1801"
           style="fill:#ffffff;fill-opacity:1" />
      </g>
    </g>
    <g
       transform="matrix(9.922746e-3,0,0,9.922746e-3,-154.63985,-188.34227)"
       style="fill:#ffffff;fill-opacity:1;visibility:visible"
       id="g1803">
      <desc
         id="desc1805"
         style="fill-opacity:1.0;fill:url(#linearGradient7210)">Drawing</desc>
      <g
         id="g1807"
         style="fill:#ffffff;fill-opacity:1">
        <g
           id="g1809"
           style="fill:#ffffff;fill-opacity:1;stroke:none">
          <path
             id="path1811"
             d="M 16740,20934 L 16740,21744 L 16440,21744 L 16440,20934 L 16740,20934 z "
             style="fill:#ffffff;fill-opacity:1" />
        </g>
        <g
           id="g1813"
           style="fill:#ffffff;fill-opacity:1" />
      </g>
    </g>
    <g
       transform="matrix(9.922746e-3,0,0,9.922746e-3,-154.63985,-187.77223)"
       style="fill:#ffffff;fill-opacity:1;visibility:visible"
       id="g2495">
      <desc
         id="desc2497"
         style="fill-opacity:1.0;fill:url(#linearGradient7182)">Drawing</desc>
      <g
         id="g2499"
         style="fill:#ffffff;fill-opacity:1">
        <g
           id="g2501"
           style="fill:#ffffff;fill-opacity:1;stroke:none">
          <path
             id="path2503"
             d="M 18285,19728 L 18375,19743 L 18351,19891 L 18326,20039 L 18237,20024 L 18261,19876 L 18285,19728 z "
             style="fill:#ffffff;fill-opacity:1" />
          <path
             id="path2505"
             d="M 18351,19891 L 18375,19743 L 18388,19745 L 18351,19891 z "
             style="fill:#ffffff;fill-opacity:1" />
          <path
             id="path2507"
             d="M 18388,19745 L 18471,19767 L 18433,19912 L 18395,20057 L 18313,20036 L 18351,19891 L 18388,19745 z "
             style="fill:#ffffff;fill-opacity:1" />
          <path
             id="path2509"
             d="M 18433,19912 L 18471,19767 L 18485,19772 L 18433,19912 z "
             style="fill:#ffffff;fill-opacity:1" />
          <path
             id="path2511"
             d="M 18485,19772 L 18561,19800 L 18509,19940 L 18456,20081 L 18381,20053 L 18433,19912 L 18485,19772 z "
             style="fill:#ffffff;fill-opacity:1" />
          <path
             id="path2513"
             d="M 18509,19940 L 18561,19800 L 18575,19806 L 18509,19940 z "
             style="fill:#ffffff;fill-opacity:1" />
          <path
             id="path2515"
             d="M 18575,19806 L 18644,19840 L 18577,19974 L 18511,20109 L 18442,20075 L 18509,19940 L 18575,19806 z "
             style="fill:#ffffff;fill-opacity:1" />
          <path
             id="path2517"
             d="M 18577,19974 L 18644,19840 L 18658,19848 L 18577,19974 z "
             style="fill:#ffffff;fill-opacity:1" />
          <path
             id="path2519"
             d="M 18658,19848 L 18720,19888 L 18639,20014 L 18559,20141 L 18497,20101 L 18577,19974 L 18658,19848 z "
             style="fill:#ffffff;fill-opacity:1" />
          <path
             id="path2521"
             d="M 18639,20014 L 18720,19888 L 18734,19897 L 18639,20014 z "
             style="fill:#ffffff;fill-opacity:1" />
          <path
             id="path2523"
             d="M 18734,19897 L 18789,19942 L 18695,20059 L 18601,20176 L 18545,20131 L 18639,20014 L 18734,19897 z "
             style="fill:#ffffff;fill-opacity:1" />
          <path
             id="path2525"
             d="M 18695,20059 L 18789,19942 L 18802,19953 L 18695,20059 z "
             style="fill:#ffffff;fill-opacity:1" />
          <path
             id="path2527"
             d="M 18802,19953 L 18851,20003 L 18744,20109 L 18638,20214 L 18589,20165 L 18695,20059 L 18802,19953 z "
             style="fill:#ffffff;fill-opacity:1" />
          <path
             id="path2529"
             d="M 18744,20109 L 18851,20003 L 18861,20015 L 18744,20109 z "
             style="fill:#ffffff;fill-opacity:1" />
          <path
             id="path2531"
             d="M 18861,20015 L 18904,20069 L 18787,20162 L 18670,20256 L 18627,20202 L 18744,20109 L 18861,20015 z "
             style="fill:#ffffff;fill-opacity:1" />
          <path
             id="path2533"
             d="M 18787,20162 L 18904,20069 L 18914,20082 L 18787,20162 z "
             style="fill:#ffffff;fill-opacity:1" />
          <path
             id="path2535"
             d="M 18914,20082 L 18950,20139 L 18824,20220 L 18697,20301 L 18661,20243 L 18787,20162 L 18914,20082 z "
             style="fill:#ffffff;fill-opacity:1" />
          <path
             id="path2537"
             d="M 18824,20220 L 18950,20139 L 18958,20152 L 18824,20220 z "
             style="fill:#ffffff;fill-opacity:1" />
          <path
             id="path2539"
             d="M 18958,20152 L 18988,20213 L 18854,20281 L 18721,20348 L 18690,20288 L 18824,20220 L 18958,20152 z "
             style="fill:#ffffff;fill-opacity:1" />
          <path
             id="path2541"
             d="M 18854,20281 L 18988,20213 L 18994,20226 L 18854,20281 z "
             style="fill:#ffffff;fill-opacity:1" />
          <path
             id="path2543"
             d="M 18994,20226 L 19019,20290 L 18879,20345 L 18739,20399 L 18715,20335 L 18854,20281 L 18994,20226 z "
             style="fill:#ffffff;fill-opacity:1" />
          <path
             id="path2545"
             d="M 18879,20345 L 19019,20290 L 19023,20303 L 18879,20345 z "
             style="fill:#ffffff;fill-opacity:1" />
          <path
             id="path2547"
             d="M 19023,20303 L 19042,20369 L 18898,20411 L 18754,20452 L 18735,20386 L 18879,20345 L 19023,20303 z "
             style="fill:#ffffff;fill-opacity:1" />
          <path
             id="path2549"
             d="M 18898,20411 L 19042,20369 L 19045,20382 L 18898,20411 z "
             style="fill:#ffffff;fill-opacity:1" />
          <path
             id="path2551"
             d="M 19045,20382 L 19059,20450 L 18912,20479 L 18764,20508 L 18751,20440 L 18898,20411 L 19045,20382 z "
             style="fill:#ffffff;fill-opacity:1" />
          <path
             id="path2553"
             d="M 18912,20479 L 19059,20450 L 19061,20462 L 18912,20479 z "
             style="fill:#ffffff;fill-opacity:1" />
          <path
             id="path2555"
             d="M 19061,20462 L 19069,20531 L 18920,20548 L 18770,20565 L 18763,20496 L 18912,20479 L 19061,20462 z "
             style="fill:#ffffff;fill-opacity:1" />
          <path
             id="path2557"
             d="M 18920,20548 L 19069,20531 L 19070,20549 L 18920,20548 z "
             style="fill:#ffffff;fill-opacity:1" />
          <path
             id="path2559"
             d="M 19070,20549 L 19069,20690 L 18919,20690 L 18769,20689 L 18770,20548 L 18920,20548 L 19070,20549 z "
             style="fill:#ffffff;fill-opacity:1" />
          <path
             id="path2561"
             d="M 18919,20690 L 19069,20690 L 19068,20712 L 18919,20690 z "
             style="fill:#ffffff;fill-opacity:1" />
          <path
             id="path2563"
             d="M 19068,20712 L 19047,20854 L 18898,20832 L 18750,20810 L 18771,20668 L 18919,20690 L 19068,20712 z "
             style="fill:#ffffff;fill-opacity:1" />
          <path
             id="path2565"
             d="M 18898,20832 L 19047,20854 L 19042,20874 L 18898,20832 z "
             style="fill:#ffffff;fill-opacity:1" />
          <path
             id="path2567"
             d="M 19042,20874 L 19002,21013 L 18858,20971 L 18714,20929 L 18754,20790 L 18898,20832 L 19042,20874 z "
             style="fill:#ffffff;fill-opacity:1" />
          <path
             id="path2569"
             d="M 18858,20971 L 19002,21013 L 18995,21032 L 18858,20971 z "
             style="fill:#ffffff;fill-opacity:1" />
          <path
             id="path2571"
             d="M 18995,21032 L 18936,21164 L 18799,21103 L 18662,21041 L 18721,20909 L 18858,20971 L 18995,21032 z "
             style="fill:#ffffff;fill-opacity:1" />
          <path
             id="path2573"
             d="M 18799,21103 L 18936,21164 L 18926,21183 L 18799,21103 z "
             style="fill:#ffffff;fill-opacity:1" />
          <path
             id="path2575"
             d="M 18926,21183 L 18849,21304 L 18722,21224 L 18595,21144 L 18672,21023 L 18799,21103 L 18926,21183 z "
             style="fill:#ffffff;fill-opacity:1" />
          <path
             id="path2577"
             d="M 18722,21224 L 18849,21304 L 18835,21322 L 18722,21224 z "
             style="fill:#ffffff;fill-opacity:1" />
          <path
             id="path2579"
             d="M 18835,21322 L 18742,21429 L 18629,21331 L 18516,21233 L 18609,21125 L 18722,21224 L 18835,21322 z "
             style="fill:#ffffff;fill-opacity:1" />
          <path
             id="path2581"
             d="M 18629,21331 L 18742,21429 L 18729,21443 L 18629,21331 z "
             style="fill:#ffffff;fill-opacity:1" />
          <path
             id="path2583"
             d="M 18729,21443 L 18677,21490 L 18577,21378 L 18476,21266 L 18529,21219 L 18629,21331 L 18729,21443 z "
             style="fill:#ffffff;fill-opacity:1" />
          <path
             id="path2585"
             d="M 18577,21378 L 18677,21490 L 18667,21498 L 18577,21378 z "
             style="fill:#ffffff;fill-opacity:1" />
          <path
             id="path2587"
             d="M 18667,21498 L 18610,21540 L 18521,21420 L 18431,21300 L 18487,21258 L 18577,21378 L 18667,21498 z "
             style="fill:#ffffff;fill-opacity:1" />
          <path
             id="path2589"
             d="M 18521,21420 L 18610,21540 L 18599,21548 L 18521,21420 z "
             style="fill:#ffffff;fill-opacity:1" />
          <path
             id="path2591"
             d="M 18599,21548 L 18539,21585 L 18461,21457 L 18382,21329 L 18442,21292 L 18521,21420 L 18599,21548 z "
             style="fill:#ffffff;fill-opacity:1" />
          <path
             id="path2593"
             d="M 18461,21457 L 18539,21585 L 18527,21592 L 18461,21457 z "
             style="fill:#ffffff;fill-opacity:1" />
          <path
             id="path2595"
             d="M 18527,21592 L 18463,21622 L 18397,21488 L 18332,21353 L 18395,21322 L 18461,21457 L 18527,21592 z "
             style="fill:#ffffff;fill-opacity:1" />
          <path
             id="path2597"
             d="M 18397,21488 L 18463,21622 L 18449,21628 L 18397,21488 z "
             style="fill:#ffffff;fill-opacity:1" />
          <path
             id="path2599"
             d="M 18449,21628 L 18383,21653 L 18331,21512 L 18279,21371 L 18346,21347 L 18397,21488 L 18449,21628 z "
             style="fill:#ffffff;fill-opacity:1" />
          <path
             id="path2601"
             d="M 18331,21512 L 18383,21653 L 18368,21658 L 18331,21512 z "
             style="fill:#ffffff;fill-opacity:1" />
          <path
             id="path2603"
             d="M 18368,21658 L 18298,21675 L 18261,21530 L 18224,21385 L 18294,21367 L 18331,21512 L 18368,21658 z "
             style="fill:#ffffff;fill-opacity:1" />
        </g>
        <g
           id="g2605"
           style="fill:#ffffff;fill-opacity:1" />
      </g>
    </g>
    <g
       transform="matrix(9.922746e-3,0,0,9.922746e-3,-154.63985,-188.34227)"
       style="fill:#ffffff;fill-opacity:1;visibility:visible"
       id="g2607">
      <desc
         id="desc2609"
         style="fill-opacity:1.0;fill:url(#linearGradient7180)">Drawing</desc>
      <g
         id="g2611"
         style="fill:#ffffff;fill-opacity:1">
        <g
           id="g2613"
           style="fill:#ffffff;fill-opacity:1;stroke:none">
          <path
             id="path2615"
             d="M 18411,19778 L 18411,21730 L 18111,21730 L 18111,19778 L 18411,19778 z "
             style="fill:#ffffff;fill-opacity:1" />
        </g>
        <g
           id="g2617"
           style="fill:#ffffff;fill-opacity:1" />
      </g>
    </g>
    <g
       transform="matrix(9.922746e-3,0,0,9.922746e-3,-154.63985,-188.34227)"
       style="fill:#ffffff;fill-opacity:1;visibility:visible"
       id="g2619">
      <desc
         id="desc2621"
         style="fill-opacity:1.0;fill:url(#linearGradient7178)">Drawing</desc>
      <g
         id="g2623"
         style="fill:#ffffff;fill-opacity:1">
        <g
           id="g2625"
           style="fill:#ffffff;fill-opacity:1;stroke:none">
          <path
             id="path2627"
             d="M 17344,19823 L 17360,20607 L 17210,20610 L 17060,20613 L 17044,19829 L 17194,19826 L 17344,19823 z "
             style="fill:#ffffff;fill-opacity:1" />
          <path
             id="path2629"
             d="M 17210,20610 L 17061,20621 L 17060,20613 L 17210,20610 z "
             style="fill:#ffffff;fill-opacity:1" />
          <path
             id="path2631"
             d="M 17360,20599 L 17383,20909 L 17233,20920 L 17084,20932 L 17061,20621 L 17210,20610 L 17360,20599 z "
             style="fill:#ffffff;fill-opacity:1" />
          <path
             id="path2633"
             d="M 17233,20920 L 17085,20942 L 17084,20932 L 17233,20920 z "
             style="fill:#ffffff;fill-opacity:1" />
          <path
             id="path2635"
             d="M 17382,20899 L 17418,21155 L 17270,21176 L 17121,21197 L 17085,20942 L 17233,20920 L 17382,20899 z "
             style="fill:#ffffff;fill-opacity:1" />
          <path
             id="path2637"
             d="M 17270,21176 L 17123,21209 L 17121,21197 L 17270,21176 z "
             style="fill:#ffffff;fill-opacity:1" />
          <path
             id="path2639"
             d="M 17416,21143 L 17440,21250 L 17294,21283 L 17147,21315 L 17123,21209 L 17270,21176 L 17416,21143 z "
             style="fill:#ffffff;fill-opacity:1" />
          <path
             id="path2641"
             d="M 17294,21283 L 17150,21326 L 17147,21315 L 17294,21283 z "
             style="fill:#ffffff;fill-opacity:1" />
          <path
             id="path2643"
             d="M 17437,21240 L 17465,21333 L 17321,21376 L 17178,21419 L 17150,21326 L 17294,21283 L 17437,21240 z "
             style="fill:#ffffff;fill-opacity:1" />
          <path
             id="path2645"
             d="M 17321,21376 L 17182,21432 L 17178,21419 L 17321,21376 z "
             style="fill:#ffffff;fill-opacity:1" />
          <path
             id="path2647"
             d="M 17460,21319 L 17492,21398 L 17353,21455 L 17215,21511 L 17182,21432 L 17321,21376 L 17460,21319 z "
             style="fill:#ffffff;fill-opacity:1" />
          <path
             id="path2649"
             d="M 17353,21455 L 17223,21529 L 17215,21511 L 17353,21455 z "
             style="fill:#ffffff;fill-opacity:1" />
          <path
             id="path2651"
             d="M 17484,21381 L 17521,21445 L 17390,21519 L 17260,21593 L 17223,21529 L 17353,21455 L 17484,21381 z "
             style="fill:#ffffff;fill-opacity:1" />
          <path
             id="path2653"
             d="M 17390,21519 L 17270,21609 L 17260,21593 L 17390,21519 z "
             style="fill:#ffffff;fill-opacity:1" />
          <path
             id="path2655"
             d="M 17510,21430 L 17531,21457 L 17410,21546 L 17290,21636 L 17270,21609 L 17390,21519 L 17510,21430 z "
             style="fill:#ffffff;fill-opacity:1" />
          <path
             id="path2657"
             d="M 17410,21546 L 17299,21648 L 17290,21636 L 17410,21546 z "
             style="fill:#ffffff;fill-opacity:1" />
          <path
             id="path2659"
             d="M 17521,21445 L 17543,21469 L 17432,21570 L 17321,21671 L 17299,21648 L 17410,21546 L 17521,21445 z "
             style="fill:#ffffff;fill-opacity:1" />
          <path
             id="path2661"
             d="M 17432,21570 L 17333,21683 L 17321,21671 L 17432,21570 z "
             style="fill:#ffffff;fill-opacity:1" />
          <path
             id="path2663"
             d="M 17531,21457 L 17553,21477 L 17454,21590 L 17355,21703 L 17333,21683 L 17432,21570 L 17531,21457 z "
             style="fill:#ffffff;fill-opacity:1" />
          <path
             id="path2665"
             d="M 17454,21590 L 17370,21714 L 17355,21703 L 17454,21590 z "
             style="fill:#ffffff;fill-opacity:1" />
          <path
             id="path2667"
             d="M 17539,21466 L 17563,21482 L 17478,21606 L 17394,21730 L 17370,21714 L 17454,21590 L 17539,21466 z "
             style="fill:#ffffff;fill-opacity:1" />
          <path
             id="path2669"
             d="M 17478,21606 L 17411,21740 L 17394,21730 L 17478,21606 z "
             style="fill:#ffffff;fill-opacity:1" />
          <path
             id="path2671"
             d="M 17545,21472 L 17571,21485 L 17504,21619 L 17437,21753 L 17411,21740 L 17478,21606 L 17545,21472 z "
             style="fill:#ffffff;fill-opacity:1" />
          <path
             id="path2673"
             d="M 17504,21619 L 17455,21761 L 17437,21753 L 17504,21619 z "
             style="fill:#ffffff;fill-opacity:1" />
          <path
             id="path2675"
             d="M 17552,21477 L 17579,21486 L 17530,21628 L 17482,21770 L 17455,21761 L 17504,21619 L 17552,21477 z "
             style="fill:#ffffff;fill-opacity:1" />
          <path
             id="path2677"
             d="M 17530,21628 L 17502,21775 L 17482,21770 L 17530,21628 z "
             style="fill:#ffffff;fill-opacity:1" />
          <path
             id="path2679"
             d="M 17559,21480 L 17587,21486 L 17558,21633 L 17530,21780 L 17502,21775 L 17530,21628 L 17559,21480 z "
             style="fill:#ffffff;fill-opacity:1" />
          <path
             id="path2681"
             d="M 17558,21633 L 17549,21783 L 17530,21780 L 17558,21633 z "
             style="fill:#ffffff;fill-opacity:1" />
          <path
             id="path2683"
             d="M 17568,21483 L 17597,21485 L 17588,21635 L 17579,21785 L 17549,21783 L 17558,21633 L 17568,21483 z "
             style="fill:#ffffff;fill-opacity:1" />
          <path
             id="path2685"
             d="M 17588,21635 L 17606,21784 L 17579,21785 L 17579,21785 L 17588,21635 z "
             style="fill:#ffffff;fill-opacity:1" />
          <path
             id="path2687"
             d="M 17570,21486 L 17600,21483 L 17617,21632 L 17635,21781 L 17606,21784 L 17588,21635 L 17570,21486 z "
             style="fill:#ffffff;fill-opacity:1" />
          <path
             id="path2689"
             d="M 17617,21632 L 17669,21772 L 17644,21779 L 17635,21781 L 17617,21632 z "
             style="fill:#ffffff;fill-opacity:1" />
          <path
             id="path2691"
             d="M 17565,21491 L 17592,21481 L 17644,21622 L 17696,21762 L 17669,21772 L 17617,21632 L 17565,21491 z "
             style="fill:#ffffff;fill-opacity:1" />
          <path
             id="path2693"
             d="M 17644,21622 L 17726,21747 L 17703,21760 L 17696,21762 L 17644,21622 z "
             style="fill:#ffffff;fill-opacity:1" />
          <path
             id="path2695"
             d="M 17562,21496 L 17588,21479 L 17669,21605 L 17751,21731 L 17726,21747 L 17644,21622 L 17562,21496 z "
             style="fill:#ffffff;fill-opacity:1" />
          <path
             id="path2697"
             d="M 17669,21605 L 17773,21713 L 17753,21730 L 17751,21731 L 17669,21605 z "
             style="fill:#ffffff;fill-opacity:1" />
          <path
             id="path2699"
             d="M 17566,21497 L 17589,21475 L 17693,21583 L 17797,21691 L 17773,21713 L 17669,21605 L 17566,21497 z "
             style="fill:#ffffff;fill-opacity:1" />
          <path
             id="path2701"
             d="M 17693,21583 L 17812,21674 L 17797,21691 L 17693,21583 z "
             style="fill:#ffffff;fill-opacity:1" />
          <path
             id="path2703"
             d="M 17574,21492 L 17595,21463 L 17714,21555 L 17833,21646 L 17812,21674 L 17693,21583 L 17574,21492 z "
             style="fill:#ffffff;fill-opacity:1" />
          <path
             id="path2705"
             d="M 17714,21555 L 17843,21631 L 17833,21646 L 17714,21555 z "
             style="fill:#ffffff;fill-opacity:1" />
          <path
             id="path2707"
             d="M 17585,21478 L 17605,21445 L 17734,21521 L 17863,21598 L 17843,21631 L 17714,21555 L 17585,21478 z "
             style="fill:#ffffff;fill-opacity:1" />
          <path
             id="path2709"
             d="M 17734,21521 L 17872,21580 L 17863,21598 L 17734,21521 z "
             style="fill:#ffffff;fill-opacity:1" />
          <path
             id="path2711"
             d="M 17596,21463 L 17630,21381 L 17769,21440 L 17907,21498 L 17872,21580 L 17734,21521 L 17596,21463 z "
             style="fill:#ffffff;fill-opacity:1" />
          <path
             id="path2713"
             d="M 17769,21440 L 17913,21481 L 17907,21498 L 17769,21440 z "
             style="fill:#ffffff;fill-opacity:1" />
          <path
             id="path2715"
             d="M 17624,21398 L 17653,21299 L 17797,21341 L 17941,21382 L 17913,21481 L 17769,21440 L 17624,21398 z "
             style="fill:#ffffff;fill-opacity:1" />
          <path
             id="path2717"
             d="M 17797,21341 L 17944,21370 L 17941,21382 L 17797,21341 z "
             style="fill:#ffffff;fill-opacity:1" />
          <path
             id="path2719"
             d="M 17650,21311 L 17673,21197 L 17820,21226 L 17967,21256 L 17944,21370 L 17797,21341 L 17650,21311 z "
             style="fill:#ffffff;fill-opacity:1" />
          <path
             id="path2721"
             d="M 17820,21226 L 17969,21244 L 17967,21256 L 17820,21226 z "
             style="fill:#ffffff;fill-opacity:1" />
          <path
             id="path2723"
             d="M 17671,21208 L 17703,20945 L 17852,20963 L 18001,20981 L 17969,21244 L 17820,21226 L 17671,21208 z "
             style="fill:#ffffff;fill-opacity:1" />
          <path
             id="path2725"
             d="M 17852,20963 L 18002,20972 L 18001,20981 L 17852,20963 z "
             style="fill:#ffffff;fill-opacity:1" />
          <path
             id="path2727"
             d="M 17702,20955 L 17719,20663 L 17868,20671 L 18018,20680 L 18002,20972 L 17852,20963 L 17702,20955 z "
             style="fill:#ffffff;fill-opacity:1" />
          <path
             id="path2729"
             d="M 17868,20671 L 18018,20674 L 18018,20680 L 17868,20671 z "
             style="fill:#ffffff;fill-opacity:1" />
          <path
             id="path2731"
             d="M 17718,20668 L 17725,20368 L 17875,20371 L 18025,20374 L 18018,20674 L 17868,20671 L 17718,20668 z "
             style="fill:#ffffff;fill-opacity:1" />
          <path
             id="path2733"
             d="M 17875,20371 L 18025,20370 L 18025,20374 L 17875,20371 z "
             style="fill:#ffffff;fill-opacity:1" />
          <path
             id="path2735"
             d="M 17725,20371 L 17724,19826 L 17874,19826 L 18024,19826 L 18025,20370 L 17875,20371 L 17725,20371 z "
             style="fill:#ffffff;fill-opacity:1" />
        </g>
        <g
           id="g2737"
           style="fill:#ffffff;fill-opacity:1" />
      </g>
    </g>
  </g>
</svg>
