<?xml version="1.0" encoding="UTF-8" standalone="no"?>
<!-- Created with Inkscape (http://www.inkscape.org/) -->
<svg
   xmlns:dc="http://purl.org/dc/elements/1.1/"
   xmlns:cc="http://web.resource.org/cc/"
   xmlns:rdf="http://www.w3.org/1999/02/22-rdf-syntax-ns#"
   xmlns:svg="http://www.w3.org/2000/svg"
   xmlns="http://www.w3.org/2000/svg"
   xmlns:sodipodi="http://sodipodi.sourceforge.net/DTD/sodipodi-0.dtd"
   xmlns:inkscape="http://www.inkscape.org/namespaces/inkscape"
   width="1cm"
   height="1cm"
   id="svg9908"
   sodipodi:version="0.32"
   inkscape:version="0.45"
   version="1.0"
   sodipodi:docbase="/data/world/proj/Kproj/symsolon/share/symsolon/aspects"
   sodipodi:docname="aspect-binovil.svg"
   inkscape:output_extension="org.inkscape.output.svg.inkscape"
   sodipodi:modified="true">
  <defs
     id="defs9910" />
  <sodipodi:namedview
     id="base"
     pagecolor="#000000"
     bordercolor="#666666"
     borderopacity="1.0"
     inkscape:pageopacity="1"
     inkscape:pageshadow="2"
     inkscape:zoom="7.0170015"
     inkscape:cx="0.79131245"
     inkscape:cy="17.556514"
     inkscape:document-units="px"
     inkscape:current-layer="layer1"
     inkscape:window-width="966"
     inkscape:window-height="626"
     inkscape:window-x="135"
     inkscape:window-y="100" />
  <metadata
     id="metadata9913">
    <rdf:RDF>
      <cc:Work
         rdf:about="">
        <dc:format>image/svg+xml</dc:format>
        <dc:type
           rdf:resource="http://purl.org/dc/dcmitype/StillImage" />
      </cc:Work>
    </rdf:RDF>
  </metadata>
  <g
     inkscape:label="1. réteg"
     inkscape:groupmode="layer"
     id="layer1">
    <g
       transform="matrix(1.1250791e-2,0,0,1.1250791e-2,-72.965001,-216.64667)"
       style="fill:#ffffff;fill-opacity:1;visibility:visible"
       id="g1815">
      <desc
         id="desc1817"
         style="fill-opacity:1.0;fill:url(#linearGradient7208)">Drawing</desc>
      <g
         id="g1819"
         style="fill:#ffffff;fill-opacity:1">
        <g
           id="g1821"
           style="fill:#ffffff;fill-opacity:1;stroke:none">
          <path
             id="path1823"
             d="M 6899,20158 L 6899,21848 L 6599,21848 L 6599,20158 L 6899,20158 z "
             style="fill:#ffffff;fill-opacity:1" />
        </g>
        <g
           id="g1825"
           style="fill:#ffffff;fill-opacity:1" />
      </g>
    </g>
    <g
       transform="matrix(1.1250791e-2,0,0,1.1250791e-2,-72.965001,-216.64667)"
       style="fill:#ffffff;fill-opacity:1;visibility:visible"
       id="g1827">
      <desc
         id="desc1829"
         style="fill-opacity:1.0;fill:url(#linearGradient7206)">Drawing</desc>
      <g
         id="g1831"
         style="fill:#ffffff;fill-opacity:1">
        <g
           id="g1833"
           style="fill:#ffffff;fill-opacity:1;stroke:none">
          <path
             id="path1835"
             d="M 6589,21556 L 6786,21533 L 6803,21682 L 6821,21831 L 6623,21854 L 6606,21705 L 6589,21556 z "
             style="fill:#ffffff;fill-opacity:1" />
          <path
             id="path1837"
             d="M 6803,21682 L 6838,21828 L 6821,21831 L 6803,21682 z "
             style="fill:#ffffff;fill-opacity:1" />
          <path
             id="path1839"
             d="M 6769,21536 L 6934,21497 L 6969,21643 L 7003,21789 L 6838,21828 L 6803,21682 L 6769,21536 z "
             style="fill:#ffffff;fill-opacity:1" />
          <path
             id="path1841"
             d="M 6969,21643 L 7024,21782 L 7003,21789 L 6969,21643 z "
             style="fill:#ffffff;fill-opacity:1" />
          <path
             id="path1843"
             d="M 6914,21503 L 7049,21450 L 7104,21590 L 7159,21729 L 7024,21782 L 6969,21643 L 6914,21503 z "
             style="fill:#ffffff;fill-opacity:1" />
          <path
             id="path1845"
             d="M 7104,21590 L 7177,21721 L 7159,21729 L 7104,21590 z "
             style="fill:#ffffff;fill-opacity:1" />
          <path
             id="path1847"
             d="M 7031,21458 L 7087,21427 L 7160,21558 L 7233,21689 L 7177,21721 L 7104,21590 L 7031,21458 z "
             style="fill:#ffffff;fill-opacity:1" />
          <path
             id="path1849"
             d="M 7160,21558 L 7245,21682 L 7233,21689 L 7160,21558 z "
             style="fill:#ffffff;fill-opacity:1" />
          <path
             id="path1851"
             d="M 7075,21435 L 7124,21401 L 7209,21524 L 7294,21648 L 7245,21682 L 7160,21558 L 7075,21435 z "
             style="fill:#ffffff;fill-opacity:1" />
          <path
             id="path1853"
             d="M 7209,21524 L 7307,21638 L 7294,21648 L 7209,21524 z "
             style="fill:#ffffff;fill-opacity:1" />
          <path
             id="path1855"
             d="M 7111,21411 L 7153,21374 L 7251,21488 L 7349,21602 L 7307,21638 L 7209,21524 L 7111,21411 z "
             style="fill:#ffffff;fill-opacity:1" />
          <path
             id="path1857"
             d="M 7251,21488 L 7362,21589 L 7349,21602 L 7251,21488 z "
             style="fill:#ffffff;fill-opacity:1" />
          <path
             id="path1859"
             d="M 7141,21387 L 7176,21348 L 7287,21450 L 7397,21551 L 7362,21589 L 7251,21488 L 7141,21387 z "
             style="fill:#ffffff;fill-opacity:1" />
          <path
             id="path1861"
             d="M 7287,21450 L 7409,21536 L 7397,21551 L 7287,21450 z "
             style="fill:#ffffff;fill-opacity:1" />
          <path
             id="path1863"
             d="M 7164,21363 L 7192,21323 L 7315,21410 L 7437,21496 L 7409,21536 L 7287,21450 L 7164,21363 z "
             style="fill:#ffffff;fill-opacity:1" />
          <path
             id="path1865"
             d="M 7315,21410 L 7448,21479 L 7437,21496 L 7315,21410 z "
             style="fill:#ffffff;fill-opacity:1" />
          <path
             id="path1867"
             d="M 7182,21340 L 7204,21298 L 7337,21368 L 7470,21437 L 7448,21479 L 7315,21410 L 7182,21340 z "
             style="fill:#ffffff;fill-opacity:1" />
          <path
             id="path1869"
             d="M 7337,21368 L 7478,21418 L 7470,21437 L 7337,21368 z "
             style="fill:#ffffff;fill-opacity:1" />
          <path
             id="path1871"
             d="M 7195,21317 L 7211,21275 L 7352,21325 L 7493,21375 L 7478,21418 L 7337,21368 L 7195,21317 z "
             style="fill:#ffffff;fill-opacity:1" />
          <path
             id="path1873"
             d="M 7352,21325 L 7499,21355 L 7493,21375 L 7352,21325 z "
             style="fill:#ffffff;fill-opacity:1" />
          <path
             id="path1875"
             d="M 7205,21295 L 7214,21251 L 7361,21281 L 7508,21311 L 7499,21355 L 7352,21325 L 7205,21295 z "
             style="fill:#ffffff;fill-opacity:1" />
          <path
             id="path1877"
             d="M 7361,21281 L 7511,21290 L 7508,21311 L 7361,21281 z "
             style="fill:#ffffff;fill-opacity:1" />
          <path
             id="path1879"
             d="M 7211,21272 L 7214,21227 L 7364,21237 L 7513,21246 L 7511,21290 L 7361,21281 L 7211,21272 z "
             style="fill:#ffffff;fill-opacity:1" />
          <path
             id="path1881"
             d="M 7364,21237 L 7513,21226 L 7513,21246 L 7364,21237 z "
             style="fill:#ffffff;fill-opacity:1" />
          <path
             id="path1883"
             d="M 7214,21248 L 7211,21203 L 7361,21192 L 7510,21181 L 7513,21226 L 7364,21237 L 7214,21248 z "
             style="fill:#ffffff;fill-opacity:1" />
          <path
             id="path1885"
             d="M 7361,21192 L 7507,21162 L 7510,21181 L 7361,21192 z "
             style="fill:#ffffff;fill-opacity:1" />
          <path
             id="path1887"
             d="M 7214,21222 L 7204,21177 L 7351,21147 L 7498,21117 L 7507,21162 L 7361,21192 L 7214,21222 z "
             style="fill:#ffffff;fill-opacity:1" />
          <path
             id="path1889"
             d="M 7351,21147 L 7494,21099 L 7498,21117 L 7351,21147 z "
             style="fill:#ffffff;fill-opacity:1" />
          <path
             id="path1891"
             d="M 7209,21195 L 7194,21150 L 7336,21102 L 7479,21055 L 7494,21099 L 7351,21147 L 7209,21195 z "
             style="fill:#ffffff;fill-opacity:1" />
          <path
             id="path1893"
             d="M 7336,21102 L 7472,21039 L 7479,21055 L 7336,21102 z "
             style="fill:#ffffff;fill-opacity:1" />
          <path
             id="path1895"
             d="M 7200,21166 L 7180,21121 L 7316,21058 L 7452,20995 L 7472,21039 L 7336,21102 L 7200,21166 z "
             style="fill:#ffffff;fill-opacity:1" />
          <path
             id="path1897"
             d="M 7316,21058 L 7445,20981 L 7452,20995 L 7316,21058 z "
             style="fill:#ffffff;fill-opacity:1" />
          <path
             id="path1899"
             d="M 7187,21135 L 7161,21092 L 7290,21015 L 7419,20938 L 7445,20981 L 7316,21058 L 7187,21135 z "
             style="fill:#ffffff;fill-opacity:1" />
          <path
             id="path1901"
             d="M 7290,21015 L 7411,20926 L 7419,20938 L 7290,21015 z "
             style="fill:#ffffff;fill-opacity:1" />
          <path
             id="path1903"
             d="M 7169,21104 L 7138,21062 L 7259,20973 L 7379,20883 L 7411,20926 L 7290,21015 L 7169,21104 z "
             style="fill:#ffffff;fill-opacity:1" />
          <path
             id="path1905"
             d="M 7259,20973 L 7371,20873 L 7379,20883 L 7259,20973 z "
             style="fill:#ffffff;fill-opacity:1" />
          <path
             id="path1907"
             d="M 7147,21073 L 7110,21032 L 7222,20932 L 7334,20832 L 7371,20873 L 7259,20973 L 7147,21073 z "
             style="fill:#ffffff;fill-opacity:1" />
          <path
             id="path1909"
             d="M 7222,20932 L 7325,20823 L 7334,20832 L 7222,20932 z "
             style="fill:#ffffff;fill-opacity:1" />
          <path
             id="path1911"
             d="M 7119,21041 L 7078,21002 L 7181,20893 L 7284,20784 L 7325,20823 L 7222,20932 L 7119,21041 z "
             style="fill:#ffffff;fill-opacity:1" />
          <path
             id="path1913"
             d="M 7181,20893 L 7275,20776 L 7284,20784 L 7181,20893 z "
             style="fill:#ffffff;fill-opacity:1" />
          <path
             id="path1915"
             d="M 7087,21010 L 7041,20972 L 7134,20855 L 7228,20739 L 7275,20776 L 7181,20893 L 7087,21010 z "
             style="fill:#ffffff;fill-opacity:1" />
          <path
             id="path1917"
             d="M 7134,20855 L 7215,20729 L 7228,20739 L 7134,20855 z "
             style="fill:#ffffff;fill-opacity:1" />
          <path
             id="path1919"
             d="M 7054,20982 L 6948,20915 L 7028,20788 L 7108,20661 L 7215,20729 L 7134,20855 L 7054,20982 z "
             style="fill:#ffffff;fill-opacity:1" />
          <path
             id="path1921"
             d="M 7028,20788 L 7089,20651 L 7108,20661 L 7028,20788 z "
             style="fill:#ffffff;fill-opacity:1" />
          <path
             id="path1923"
             d="M 6966,20925 L 6842,20869 L 6903,20732 L 6965,20595 L 7089,20651 L 7028,20788 L 6966,20925 z "
             style="fill:#ffffff;fill-opacity:1" />
          <path
             id="path1925"
             d="M 6903,20732 L 6947,20588 L 6965,20595 L 6903,20732 z "
             style="fill:#ffffff;fill-opacity:1" />
          <path
             id="path1927"
             d="M 6860,20876 L 6719,20833 L 6762,20690 L 6806,20546 L 6947,20588 L 6903,20732 L 6860,20876 z "
             style="fill:#ffffff;fill-opacity:1" />
          <path
             id="path1929"
             d="M 6762,20690 L 6787,20542 L 6806,20546 L 6762,20690 z "
             style="fill:#ffffff;fill-opacity:1" />
          <path
             id="path1931"
             d="M 6737,20837 L 6581,20811 L 6606,20663 L 6631,20515 L 6787,20542 L 6762,20690 L 6737,20837 z "
             style="fill:#ffffff;fill-opacity:1" />
        </g>
        <g
           id="g1933"
           style="fill:#ffffff;fill-opacity:1" />
      </g>
    </g>
    <g
       transform="matrix(1.1250791e-2,0,0,1.1250791e-2,-72.82249,-216.07663)"
       style="fill:#ffffff;fill-opacity:1;visibility:visible"
       id="g1975">
      <desc
         id="desc1977"
         style="fill-opacity:1.0;fill:url(#linearGradient7198)">Drawing</desc>
      <g
         id="g1979"
         style="fill:#ffffff;fill-opacity:1">
        <g
           id="g1981"
           style="fill:#ffffff;fill-opacity:1;stroke:none">
          <path
             id="path1983"
             d="M 8784,19765 L 8874,19780 L 8850,19928 L 8825,20076 L 8736,20061 L 8760,19913 L 8784,19765 z "
             style="fill:#ffffff;fill-opacity:1" />
          <path
             id="path1985"
             d="M 8850,19928 L 8874,19780 L 8887,19782 L 8850,19928 z "
             style="fill:#ffffff;fill-opacity:1" />
          <path
             id="path1987"
             d="M 8887,19782 L 8970,19804 L 8932,19949 L 8894,20094 L 8812,20073 L 8850,19928 L 8887,19782 z "
             style="fill:#ffffff;fill-opacity:1" />
          <path
             id="path1989"
             d="M 8932,19949 L 8970,19804 L 8984,19809 L 8932,19949 z "
             style="fill:#ffffff;fill-opacity:1" />
          <path
             id="path1991"
             d="M 8984,19809 L 9060,19837 L 9008,19977 L 8955,20118 L 8880,20090 L 8932,19949 L 8984,19809 z "
             style="fill:#ffffff;fill-opacity:1" />
          <path
             id="path1993"
             d="M 9008,19977 L 9060,19837 L 9074,19843 L 9008,19977 z "
             style="fill:#ffffff;fill-opacity:1" />
          <path
             id="path1995"
             d="M 9074,19843 L 9143,19877 L 9076,20011 L 9010,20146 L 8941,20112 L 9008,19977 L 9074,19843 z "
             style="fill:#ffffff;fill-opacity:1" />
          <path
             id="path1997"
             d="M 9076,20011 L 9143,19877 L 9157,19885 L 9076,20011 z "
             style="fill:#ffffff;fill-opacity:1" />
          <path
             id="path1999"
             d="M 9157,19885 L 9219,19925 L 9138,20051 L 9058,20178 L 8996,20138 L 9076,20011 L 9157,19885 z "
             style="fill:#ffffff;fill-opacity:1" />
          <path
             id="path2001"
             d="M 9138,20051 L 9219,19925 L 9233,19934 L 9138,20051 z "
             style="fill:#ffffff;fill-opacity:1" />
          <path
             id="path2003"
             d="M 9233,19934 L 9288,19979 L 9194,20096 L 9100,20213 L 9044,20168 L 9138,20051 L 9233,19934 z "
             style="fill:#ffffff;fill-opacity:1" />
          <path
             id="path2005"
             d="M 9194,20096 L 9288,19979 L 9301,19990 L 9194,20096 z "
             style="fill:#ffffff;fill-opacity:1" />
          <path
             id="path2007"
             d="M 9301,19990 L 9350,20040 L 9243,20146 L 9137,20251 L 9088,20202 L 9194,20096 L 9301,19990 z "
             style="fill:#ffffff;fill-opacity:1" />
          <path
             id="path2009"
             d="M 9243,20146 L 9350,20040 L 9360,20052 L 9243,20146 z "
             style="fill:#ffffff;fill-opacity:1" />
          <path
             id="path2011"
             d="M 9360,20052 L 9403,20106 L 9286,20199 L 9169,20293 L 9126,20239 L 9243,20146 L 9360,20052 z "
             style="fill:#ffffff;fill-opacity:1" />
          <path
             id="path2013"
             d="M 9286,20199 L 9403,20106 L 9413,20119 L 9286,20199 z "
             style="fill:#ffffff;fill-opacity:1" />
          <path
             id="path2015"
             d="M 9413,20119 L 9449,20176 L 9323,20257 L 9196,20338 L 9160,20280 L 9286,20199 L 9413,20119 z "
             style="fill:#ffffff;fill-opacity:1" />
          <path
             id="path2017"
             d="M 9323,20257 L 9449,20176 L 9457,20189 L 9323,20257 z "
             style="fill:#ffffff;fill-opacity:1" />
          <path
             id="path2019"
             d="M 9457,20189 L 9487,20250 L 9353,20318 L 9220,20385 L 9189,20325 L 9323,20257 L 9457,20189 z "
             style="fill:#ffffff;fill-opacity:1" />
          <path
             id="path2021"
             d="M 9353,20318 L 9487,20250 L 9493,20263 L 9353,20318 z "
             style="fill:#ffffff;fill-opacity:1" />
          <path
             id="path2023"
             d="M 9493,20263 L 9518,20327 L 9378,20382 L 9238,20436 L 9214,20372 L 9353,20318 L 9493,20263 z "
             style="fill:#ffffff;fill-opacity:1" />
          <path
             id="path2025"
             d="M 9378,20382 L 9518,20327 L 9522,20340 L 9378,20382 z "
             style="fill:#ffffff;fill-opacity:1" />
          <path
             id="path2027"
             d="M 9522,20340 L 9541,20406 L 9397,20448 L 9253,20489 L 9234,20423 L 9378,20382 L 9522,20340 z "
             style="fill:#ffffff;fill-opacity:1" />
          <path
             id="path2029"
             d="M 9397,20448 L 9541,20406 L 9544,20419 L 9397,20448 z "
             style="fill:#ffffff;fill-opacity:1" />
          <path
             id="path2031"
             d="M 9544,20419 L 9558,20487 L 9411,20516 L 9263,20545 L 9250,20477 L 9397,20448 L 9544,20419 z "
             style="fill:#ffffff;fill-opacity:1" />
          <path
             id="path2033"
             d="M 9411,20516 L 9558,20487 L 9560,20499 L 9411,20516 z "
             style="fill:#ffffff;fill-opacity:1" />
          <path
             id="path2035"
             d="M 9560,20499 L 9568,20568 L 9419,20585 L 9269,20602 L 9262,20533 L 9411,20516 L 9560,20499 z "
             style="fill:#ffffff;fill-opacity:1" />
          <path
             id="path2037"
             d="M 9419,20585 L 9568,20568 L 9569,20586 L 9419,20585 z "
             style="fill:#ffffff;fill-opacity:1" />
          <path
             id="path2039"
             d="M 9569,20586 L 9568,20727 L 9418,20727 L 9268,20726 L 9269,20585 L 9419,20585 L 9569,20586 z "
             style="fill:#ffffff;fill-opacity:1" />
          <path
             id="path2041"
             d="M 9418,20727 L 9568,20727 L 9567,20749 L 9418,20727 z "
             style="fill:#ffffff;fill-opacity:1" />
          <path
             id="path2043"
             d="M 9567,20749 L 9546,20891 L 9397,20869 L 9249,20847 L 9270,20705 L 9418,20727 L 9567,20749 z "
             style="fill:#ffffff;fill-opacity:1" />
          <path
             id="path2045"
             d="M 9397,20869 L 9546,20891 L 9541,20911 L 9397,20869 z "
             style="fill:#ffffff;fill-opacity:1" />
          <path
             id="path2047"
             d="M 9541,20911 L 9501,21050 L 9357,21008 L 9213,20966 L 9253,20827 L 9397,20869 L 9541,20911 z "
             style="fill:#ffffff;fill-opacity:1" />
          <path
             id="path2049"
             d="M 9357,21008 L 9501,21050 L 9494,21069 L 9357,21008 z "
             style="fill:#ffffff;fill-opacity:1" />
          <path
             id="path2051"
             d="M 9494,21069 L 9435,21201 L 9298,21140 L 9161,21078 L 9220,20946 L 9357,21008 L 9494,21069 z "
             style="fill:#ffffff;fill-opacity:1" />
          <path
             id="path2053"
             d="M 9298,21140 L 9435,21201 L 9425,21220 L 9298,21140 z "
             style="fill:#ffffff;fill-opacity:1" />
          <path
             id="path2055"
             d="M 9425,21220 L 9348,21341 L 9221,21261 L 9094,21181 L 9171,21060 L 9298,21140 L 9425,21220 z "
             style="fill:#ffffff;fill-opacity:1" />
          <path
             id="path2057"
             d="M 9221,21261 L 9348,21341 L 9334,21359 L 9221,21261 z "
             style="fill:#ffffff;fill-opacity:1" />
          <path
             id="path2059"
             d="M 9334,21359 L 9241,21466 L 9128,21368 L 9015,21270 L 9108,21162 L 9221,21261 L 9334,21359 z "
             style="fill:#ffffff;fill-opacity:1" />
          <path
             id="path2061"
             d="M 9128,21368 L 9241,21466 L 9228,21480 L 9128,21368 z "
             style="fill:#ffffff;fill-opacity:1" />
          <path
             id="path2063"
             d="M 9228,21480 L 9176,21527 L 9076,21415 L 8975,21303 L 9028,21256 L 9128,21368 L 9228,21480 z "
             style="fill:#ffffff;fill-opacity:1" />
          <path
             id="path2065"
             d="M 9076,21415 L 9176,21527 L 9166,21535 L 9076,21415 z "
             style="fill:#ffffff;fill-opacity:1" />
          <path
             id="path2067"
             d="M 9166,21535 L 9109,21577 L 9020,21457 L 8930,21337 L 8986,21295 L 9076,21415 L 9166,21535 z "
             style="fill:#ffffff;fill-opacity:1" />
          <path
             id="path2069"
             d="M 9020,21457 L 9109,21577 L 9098,21585 L 9020,21457 z "
             style="fill:#ffffff;fill-opacity:1" />
          <path
             id="path2071"
             d="M 9098,21585 L 9038,21622 L 8960,21494 L 8881,21366 L 8941,21329 L 9020,21457 L 9098,21585 z "
             style="fill:#ffffff;fill-opacity:1" />
          <path
             id="path2073"
             d="M 8960,21494 L 9038,21622 L 9026,21629 L 8960,21494 z "
             style="fill:#ffffff;fill-opacity:1" />
          <path
             id="path2075"
             d="M 9026,21629 L 8962,21659 L 8896,21525 L 8831,21390 L 8894,21359 L 8960,21494 L 9026,21629 z "
             style="fill:#ffffff;fill-opacity:1" />
          <path
             id="path2077"
             d="M 8896,21525 L 8962,21659 L 8948,21665 L 8896,21525 z "
             style="fill:#ffffff;fill-opacity:1" />
          <path
             id="path2079"
             d="M 8948,21665 L 8882,21690 L 8830,21549 L 8778,21408 L 8845,21384 L 8896,21525 L 8948,21665 z "
             style="fill:#ffffff;fill-opacity:1" />
          <path
             id="path2081"
             d="M 8830,21549 L 8882,21690 L 8867,21695 L 8830,21549 z "
             style="fill:#ffffff;fill-opacity:1" />
          <path
             id="path2083"
             d="M 8867,21695 L 8797,21712 L 8760,21567 L 8723,21422 L 8793,21404 L 8830,21549 L 8867,21695 z "
             style="fill:#ffffff;fill-opacity:1" />
        </g>
        <g
           id="g2085"
           style="fill:#ffffff;fill-opacity:1" />
      </g>
    </g>
    <g
       transform="matrix(1.1250791e-2,0,0,1.1250791e-2,-72.965001,-216.64667)"
       style="fill:#ffffff;fill-opacity:1;visibility:visible"
       id="g2087">
      <desc
         id="desc2089"
         style="fill-opacity:1.0;fill:url(#linearGradient7196)">Drawing</desc>
      <g
         id="g2091"
         style="fill:#ffffff;fill-opacity:1">
        <g
           id="g2093"
           style="fill:#ffffff;fill-opacity:1;stroke:none">
          <path
             id="path2095"
             d="M 8910,19815 L 8910,21767 L 8610,21767 L 8610,19815 L 8910,19815 z "
             style="fill:#ffffff;fill-opacity:1" />
        </g>
        <g
           id="g2097"
           style="fill:#ffffff;fill-opacity:1" />
      </g>
    </g>
    <g
       transform="matrix(1.1250791e-2,0,0,1.1250791e-2,-72.965001,-216.64667)"
       style="fill:#ffffff;fill-opacity:1;visibility:visible"
       id="g2099">
      <desc
         id="desc2101"
         style="fill-opacity:1.0;fill:url(#linearGradient7194)">Drawing</desc>
      <g
         id="g2103"
         style="fill:#ffffff;fill-opacity:1">
        <g
           id="g2105"
           style="fill:#ffffff;fill-opacity:1;stroke:none">
          <path
             id="path2107"
             d="M 7843,19860 L 7859,20644 L 7709,20647 L 7559,20650 L 7543,19866 L 7693,19863 L 7843,19860 z "
             style="fill:#ffffff;fill-opacity:1" />
          <path
             id="path2109"
             d="M 7709,20647 L 7560,20658 L 7559,20650 L 7709,20647 z "
             style="fill:#ffffff;fill-opacity:1" />
          <path
             id="path2111"
             d="M 7859,20636 L 7882,20946 L 7732,20957 L 7583,20969 L 7560,20658 L 7709,20647 L 7859,20636 z "
             style="fill:#ffffff;fill-opacity:1" />
          <path
             id="path2113"
             d="M 7732,20957 L 7584,20979 L 7583,20969 L 7732,20957 z "
             style="fill:#ffffff;fill-opacity:1" />
          <path
             id="path2115"
             d="M 7881,20936 L 7917,21192 L 7769,21213 L 7620,21234 L 7584,20979 L 7732,20957 L 7881,20936 z "
             style="fill:#ffffff;fill-opacity:1" />
          <path
             id="path2117"
             d="M 7769,21213 L 7622,21246 L 7620,21234 L 7769,21213 z "
             style="fill:#ffffff;fill-opacity:1" />
          <path
             id="path2119"
             d="M 7915,21180 L 7939,21287 L 7793,21320 L 7646,21352 L 7622,21246 L 7769,21213 L 7915,21180 z "
             style="fill:#ffffff;fill-opacity:1" />
          <path
             id="path2121"
             d="M 7793,21320 L 7649,21363 L 7646,21352 L 7793,21320 z "
             style="fill:#ffffff;fill-opacity:1" />
          <path
             id="path2123"
             d="M 7936,21277 L 7964,21370 L 7820,21413 L 7677,21456 L 7649,21363 L 7793,21320 L 7936,21277 z "
             style="fill:#ffffff;fill-opacity:1" />
          <path
             id="path2125"
             d="M 7820,21413 L 7681,21469 L 7677,21456 L 7820,21413 z "
             style="fill:#ffffff;fill-opacity:1" />
          <path
             id="path2127"
             d="M 7959,21356 L 7991,21435 L 7852,21492 L 7714,21548 L 7681,21469 L 7820,21413 L 7959,21356 z "
             style="fill:#ffffff;fill-opacity:1" />
          <path
             id="path2129"
             d="M 7852,21492 L 7722,21566 L 7714,21548 L 7852,21492 z "
             style="fill:#ffffff;fill-opacity:1" />
          <path
             id="path2131"
             d="M 7983,21418 L 8020,21482 L 7889,21556 L 7759,21630 L 7722,21566 L 7852,21492 L 7983,21418 z "
             style="fill:#ffffff;fill-opacity:1" />
          <path
             id="path2133"
             d="M 7889,21556 L 7769,21646 L 7759,21630 L 7889,21556 z "
             style="fill:#ffffff;fill-opacity:1" />
          <path
             id="path2135"
             d="M 8009,21467 L 8030,21494 L 7909,21583 L 7789,21673 L 7769,21646 L 7889,21556 L 8009,21467 z "
             style="fill:#ffffff;fill-opacity:1" />
          <path
             id="path2137"
             d="M 7909,21583 L 7798,21685 L 7789,21673 L 7909,21583 z "
             style="fill:#ffffff;fill-opacity:1" />
          <path
             id="path2139"
             d="M 8020,21482 L 8042,21506 L 7931,21607 L 7820,21708 L 7798,21685 L 7909,21583 L 8020,21482 z "
             style="fill:#ffffff;fill-opacity:1" />
          <path
             id="path2141"
             d="M 7931,21607 L 7832,21720 L 7820,21708 L 7931,21607 z "
             style="fill:#ffffff;fill-opacity:1" />
          <path
             id="path2143"
             d="M 8030,21494 L 8052,21514 L 7953,21627 L 7854,21740 L 7832,21720 L 7931,21607 L 8030,21494 z "
             style="fill:#ffffff;fill-opacity:1" />
          <path
             id="path2145"
             d="M 7953,21627 L 7869,21751 L 7854,21740 L 7953,21627 z "
             style="fill:#ffffff;fill-opacity:1" />
          <path
             id="path2147"
             d="M 8038,21503 L 8062,21519 L 7977,21643 L 7893,21767 L 7869,21751 L 7953,21627 L 8038,21503 z "
             style="fill:#ffffff;fill-opacity:1" />
          <path
             id="path2149"
             d="M 7977,21643 L 7910,21777 L 7893,21767 L 7977,21643 z "
             style="fill:#ffffff;fill-opacity:1" />
          <path
             id="path2151"
             d="M 8044,21509 L 8070,21522 L 8003,21656 L 7936,21790 L 7910,21777 L 7977,21643 L 8044,21509 z "
             style="fill:#ffffff;fill-opacity:1" />
          <path
             id="path2153"
             d="M 8003,21656 L 7954,21798 L 7936,21790 L 8003,21656 z "
             style="fill:#ffffff;fill-opacity:1" />
          <path
             id="path2155"
             d="M 8051,21514 L 8078,21523 L 8029,21665 L 7981,21807 L 7954,21798 L 8003,21656 L 8051,21514 z "
             style="fill:#ffffff;fill-opacity:1" />
          <path
             id="path2157"
             d="M 8029,21665 L 8001,21812 L 7981,21807 L 8029,21665 z "
             style="fill:#ffffff;fill-opacity:1" />
          <path
             id="path2159"
             d="M 8058,21517 L 8086,21523 L 8057,21670 L 8029,21817 L 8001,21812 L 8029,21665 L 8058,21517 z "
             style="fill:#ffffff;fill-opacity:1" />
          <path
             id="path2161"
             d="M 8057,21670 L 8048,21820 L 8029,21817 L 8057,21670 z "
             style="fill:#ffffff;fill-opacity:1" />
          <path
             id="path2163"
             d="M 8067,21520 L 8096,21522 L 8087,21672 L 8078,21822 L 8048,21820 L 8057,21670 L 8067,21520 z "
             style="fill:#ffffff;fill-opacity:1" />
          <path
             id="path2165"
             d="M 8087,21672 L 8105,21821 L 8078,21822 L 8078,21822 L 8087,21672 z "
             style="fill:#ffffff;fill-opacity:1" />
          <path
             id="path2167"
             d="M 8069,21523 L 8099,21520 L 8116,21669 L 8134,21818 L 8105,21821 L 8087,21672 L 8069,21523 z "
             style="fill:#ffffff;fill-opacity:1" />
          <path
             id="path2169"
             d="M 8116,21669 L 8168,21809 L 8143,21816 L 8134,21818 L 8116,21669 z "
             style="fill:#ffffff;fill-opacity:1" />
          <path
             id="path2171"
             d="M 8064,21528 L 8091,21518 L 8143,21659 L 8195,21799 L 8168,21809 L 8116,21669 L 8064,21528 z "
             style="fill:#ffffff;fill-opacity:1" />
          <path
             id="path2173"
             d="M 8143,21659 L 8225,21784 L 8202,21797 L 8195,21799 L 8143,21659 z "
             style="fill:#ffffff;fill-opacity:1" />
          <path
             id="path2175"
             d="M 8061,21533 L 8087,21516 L 8168,21642 L 8250,21768 L 8225,21784 L 8143,21659 L 8061,21533 z "
             style="fill:#ffffff;fill-opacity:1" />
          <path
             id="path2177"
             d="M 8168,21642 L 8272,21750 L 8252,21767 L 8250,21768 L 8168,21642 z "
             style="fill:#ffffff;fill-opacity:1" />
          <path
             id="path2179"
             d="M 8065,21534 L 8088,21512 L 8192,21620 L 8296,21728 L 8272,21750 L 8168,21642 L 8065,21534 z "
             style="fill:#ffffff;fill-opacity:1" />
          <path
             id="path2181"
             d="M 8192,21620 L 8311,21711 L 8296,21728 L 8192,21620 z "
             style="fill:#ffffff;fill-opacity:1" />
          <path
             id="path2183"
             d="M 8073,21529 L 8094,21500 L 8213,21592 L 8332,21683 L 8311,21711 L 8192,21620 L 8073,21529 z "
             style="fill:#ffffff;fill-opacity:1" />
          <path
             id="path2185"
             d="M 8213,21592 L 8342,21668 L 8332,21683 L 8213,21592 z "
             style="fill:#ffffff;fill-opacity:1" />
          <path
             id="path2187"
             d="M 8084,21515 L 8104,21482 L 8233,21558 L 8362,21635 L 8342,21668 L 8213,21592 L 8084,21515 z "
             style="fill:#ffffff;fill-opacity:1" />
          <path
             id="path2189"
             d="M 8233,21558 L 8371,21617 L 8362,21635 L 8233,21558 z "
             style="fill:#ffffff;fill-opacity:1" />
          <path
             id="path2191"
             d="M 8095,21500 L 8129,21418 L 8268,21477 L 8406,21535 L 8371,21617 L 8233,21558 L 8095,21500 z "
             style="fill:#ffffff;fill-opacity:1" />
          <path
             id="path2193"
             d="M 8268,21477 L 8412,21518 L 8406,21535 L 8268,21477 z "
             style="fill:#ffffff;fill-opacity:1" />
          <path
             id="path2195"
             d="M 8123,21435 L 8152,21336 L 8296,21378 L 8440,21419 L 8412,21518 L 8268,21477 L 8123,21435 z "
             style="fill:#ffffff;fill-opacity:1" />
          <path
             id="path2197"
             d="M 8296,21378 L 8443,21407 L 8440,21419 L 8296,21378 z "
             style="fill:#ffffff;fill-opacity:1" />
          <path
             id="path2199"
             d="M 8149,21348 L 8172,21234 L 8319,21263 L 8466,21293 L 8443,21407 L 8296,21378 L 8149,21348 z "
             style="fill:#ffffff;fill-opacity:1" />
          <path
             id="path2201"
             d="M 8319,21263 L 8468,21281 L 8466,21293 L 8319,21263 z "
             style="fill:#ffffff;fill-opacity:1" />
          <path
             id="path2203"
             d="M 8170,21245 L 8202,20982 L 8351,21000 L 8500,21018 L 8468,21281 L 8319,21263 L 8170,21245 z "
             style="fill:#ffffff;fill-opacity:1" />
          <path
             id="path2205"
             d="M 8351,21000 L 8501,21009 L 8500,21018 L 8351,21000 z "
             style="fill:#ffffff;fill-opacity:1" />
          <path
             id="path2207"
             d="M 8201,20992 L 8218,20700 L 8367,20708 L 8517,20717 L 8501,21009 L 8351,21000 L 8201,20992 z "
             style="fill:#ffffff;fill-opacity:1" />
          <path
             id="path2209"
             d="M 8367,20708 L 8517,20711 L 8517,20717 L 8367,20708 z "
             style="fill:#ffffff;fill-opacity:1" />
          <path
             id="path2211"
             d="M 8217,20705 L 8224,20405 L 8374,20408 L 8524,20411 L 8517,20711 L 8367,20708 L 8217,20705 z "
             style="fill:#ffffff;fill-opacity:1" />
          <path
             id="path2213"
             d="M 8374,20408 L 8524,20407 L 8524,20411 L 8374,20408 z "
             style="fill:#ffffff;fill-opacity:1" />
          <path
             id="path2215"
             d="M 8224,20408 L 8223,19863 L 8373,19863 L 8523,19863 L 8524,20407 L 8374,20408 L 8224,20408 z "
             style="fill:#ffffff;fill-opacity:1" />
        </g>
        <g
           id="g2217"
           style="fill:#ffffff;fill-opacity:1" />
      </g>
    </g>
  </g>
</svg>
