<?xml version="1.0" encoding="UTF-8" standalone="no"?>
<!-- Created with Inkscape (http://www.inkscape.org/) -->
<svg
   xmlns:dc="http://purl.org/dc/elements/1.1/"
   xmlns:cc="http://web.resource.org/cc/"
   xmlns:rdf="http://www.w3.org/1999/02/22-rdf-syntax-ns#"
   xmlns:svg="http://www.w3.org/2000/svg"
   xmlns="http://www.w3.org/2000/svg"
   xmlns:sodipodi="http://sodipodi.sourceforge.net/DTD/sodipodi-0.dtd"
   xmlns:inkscape="http://www.inkscape.org/namespaces/inkscape"
   width="1cm"
   height="1cm"
   id="svg9908"
   sodipodi:version="0.32"
   inkscape:version="0.45"
   version="1.0"
   sodipodi:docbase="/data/world/proj/Kproj/symsolon/share/symsolon/aspects"
   sodipodi:docname="aspect-quantonovil.svg"
   inkscape:output_extension="org.inkscape.output.svg.inkscape"
   sodipodi:modified="true">
  <defs
     id="defs9910" />
  <sodipodi:namedview
     id="base"
     pagecolor="#000000"
     bordercolor="#666666"
     borderopacity="1.0"
     inkscape:pageopacity="1"
     inkscape:pageshadow="2"
     inkscape:zoom="7.0170015"
     inkscape:cx="0.79131245"
     inkscape:cy="17.556514"
     inkscape:document-units="px"
     inkscape:current-layer="layer1"
     inkscape:window-width="966"
     inkscape:window-height="626"
     inkscape:window-x="10"
     inkscape:window-y="73" />
  <metadata
     id="metadata9913">
    <rdf:RDF>
      <cc:Work
         rdf:about="">
        <dc:format>image/svg+xml</dc:format>
        <dc:type
           rdf:resource="http://purl.org/dc/dcmitype/StillImage" />
      </cc:Work>
    </rdf:RDF>
  </metadata>
  <g
     inkscape:label="1. réteg"
     inkscape:groupmode="layer"
     id="layer1">
    <g
       transform="matrix(1.1911203e-2,0,0,1.1838083e-2,-15.039124,-250.55491)"
       style="fill:#ffffff;fill-opacity:1;visibility:visible"
       id="g3991">
      <desc
         id="desc3993">Drawing</desc>
      <g
         id="g3995"
         style="fill:#ffffff;fill-opacity:1">
        <g
           id="g3997"
           style="fill:#ffffff;fill-opacity:1;stroke:none">
          <path
             id="path3999"
             d="M 3038,21727 L 3267,21763 L 3244,21911 L 3221,22059 L 2992,22023 L 3015,21875 L 3038,21727 z "
             style="fill:#ffffff;fill-opacity:1" />
          <path
             id="path4001"
             d="M 3244,21911 L 3267,21763 L 3284,21767 L 3244,21911 z "
             style="fill:#ffffff;fill-opacity:1" />
          <path
             id="path4003"
             d="M 3284,21767 L 3385,21795 L 3345,21939 L 3304,22084 L 3204,22056 L 3244,21911 L 3284,21767 z "
             style="fill:#ffffff;fill-opacity:1" />
          <path
             id="path4005"
             d="M 3345,21939 L 3385,21795 L 3397,21799 L 3345,21939 z "
             style="fill:#ffffff;fill-opacity:1" />
          <path
             id="path4007"
             d="M 3397,21799 L 3489,21833 L 3436,21973 L 3384,22114 L 3292,22080 L 3345,21939 L 3397,21799 z "
             style="fill:#ffffff;fill-opacity:1" />
          <path
             id="path4009"
             d="M 3436,21973 L 3489,21833 L 3501,21838 L 3436,21973 z "
             style="fill:#ffffff;fill-opacity:1" />
          <path
             id="path4011"
             d="M 3501,21838 L 3584,21878 L 3519,22013 L 3454,22148 L 3371,22109 L 3436,21973 L 3501,21838 z "
             style="fill:#ffffff;fill-opacity:1" />
          <path
             id="path4013"
             d="M 3519,22013 L 3584,21878 L 3597,21885 L 3519,22013 z "
             style="fill:#ffffff;fill-opacity:1" />
          <path
             id="path4015"
             d="M 3597,21885 L 3671,21930 L 3593,22058 L 3515,22186 L 3441,22141 L 3519,22013 L 3597,21885 z "
             style="fill:#ffffff;fill-opacity:1" />
          <path
             id="path4017"
             d="M 3593,22058 L 3671,21930 L 3683,21938 L 3593,22058 z "
             style="fill:#ffffff;fill-opacity:1" />
          <path
             id="path4019"
             d="M 3683,21938 L 3749,21988 L 3658,22108 L 3568,22227 L 3502,22178 L 3593,22058 L 3683,21938 z "
             style="fill:#ffffff;fill-opacity:1" />
          <path
             id="path4021"
             d="M 3658,22108 L 3749,21988 L 3761,21998 L 3658,22108 z "
             style="fill:#ffffff;fill-opacity:1" />
          <path
             id="path4023"
             d="M 3761,21998 L 3818,22052 L 3715,22161 L 3612,22271 L 3555,22217 L 3658,22108 L 3761,21998 z "
             style="fill:#ffffff;fill-opacity:1" />
          <path
             id="path4025"
             d="M 3715,22161 L 3818,22052 L 3830,22064 L 3715,22161 z "
             style="fill:#ffffff;fill-opacity:1" />
          <path
             id="path4027"
             d="M 3830,22064 L 3879,22122 L 3764,22219 L 3650,22316 L 3601,22259 L 3715,22161 L 3830,22064 z "
             style="fill:#ffffff;fill-opacity:1" />
          <path
             id="path4029"
             d="M 3764,22219 L 3879,22122 L 3889,22135 L 3764,22219 z "
             style="fill:#ffffff;fill-opacity:1" />
          <path
             id="path4031"
             d="M 3889,22135 L 3930,22196 L 3805,22280 L 3680,22363 L 3640,22303 L 3764,22219 L 3889,22135 z "
             style="fill:#ffffff;fill-opacity:1" />
          <path
             id="path4033"
             d="M 3805,22280 L 3930,22196 L 3938,22211 L 3805,22280 z "
             style="fill:#ffffff;fill-opacity:1" />
          <path
             id="path4035"
             d="M 3938,22211 L 3971,22275 L 3838,22344 L 3705,22413 L 3672,22349 L 3805,22280 L 3938,22211 z "
             style="fill:#ffffff;fill-opacity:1" />
          <path
             id="path4037"
             d="M 3838,22344 L 3971,22275 L 3978,22290 L 3838,22344 z "
             style="fill:#ffffff;fill-opacity:1" />
          <path
             id="path4039"
             d="M 3978,22290 L 4003,22356 L 3863,22410 L 3723,22463 L 3698,22397 L 3838,22344 L 3978,22290 z "
             style="fill:#ffffff;fill-opacity:1" />
          <path
             id="path4041"
             d="M 3863,22410 L 4003,22356 L 4008,22372 L 3863,22410 z "
             style="fill:#ffffff;fill-opacity:1" />
          <path
             id="path4043"
             d="M 4008,22372 L 4026,22440 L 3881,22478 L 3736,22516 L 3718,22448 L 3863,22410 L 4008,22372 z "
             style="fill:#ffffff;fill-opacity:1" />
          <path
             id="path4045"
             d="M 3881,22478 L 4026,22440 L 4029,22455 L 3881,22478 z "
             style="fill:#ffffff;fill-opacity:1" />
          <path
             id="path4047"
             d="M 4029,22455 L 4040,22525 L 3892,22547 L 3743,22569 L 3733,22500 L 3881,22478 L 4029,22455 z "
             style="fill:#ffffff;fill-opacity:1" />
          <path
             id="path4049"
             d="M 3892,22547 L 4040,22525 L 4041,22540 L 3892,22547 z "
             style="fill:#ffffff;fill-opacity:1" />
          <path
             id="path4051"
             d="M 4041,22540 L 4045,22611 L 3895,22618 L 3745,22625 L 3742,22554 L 3892,22547 L 4041,22540 z "
             style="fill:#ffffff;fill-opacity:1" />
          <path
             id="path4053"
             d="M 3895,22618 L 4045,22611 L 4045,22626 L 3895,22618 z "
             style="fill:#ffffff;fill-opacity:1" />
          <path
             id="path4055"
             d="M 4045,22626 L 4041,22697 L 3891,22689 L 3741,22681 L 3745,22610 L 3895,22618 L 4045,22626 z "
             style="fill:#ffffff;fill-opacity:1" />
          <path
             id="path4057"
             d="M 3891,22689 L 4041,22697 L 4039,22711 L 3891,22689 z "
             style="fill:#ffffff;fill-opacity:1" />
          <path
             id="path4059"
             d="M 4039,22711 L 4029,22782 L 3880,22760 L 3732,22738 L 3743,22667 L 3891,22689 L 4039,22711 z "
             style="fill:#ffffff;fill-opacity:1" />
          <path
             id="path4061"
             d="M 3880,22760 L 4029,22782 L 4026,22796 L 3880,22760 z "
             style="fill:#ffffff;fill-opacity:1" />
          <path
             id="path4063"
             d="M 4026,22796 L 4009,22866 L 3863,22831 L 3717,22795 L 3735,22725 L 3880,22760 L 4026,22796 z "
             style="fill:#ffffff;fill-opacity:1" />
          <path
             id="path4065"
             d="M 3863,22831 L 4009,22866 L 4005,22879 L 3863,22831 z "
             style="fill:#ffffff;fill-opacity:1" />
          <path
             id="path4067"
             d="M 4005,22879 L 3981,22949 L 3839,22901 L 3697,22853 L 3721,22783 L 3863,22831 L 4005,22879 z "
             style="fill:#ffffff;fill-opacity:1" />
          <path
             id="path4069"
             d="M 3839,22901 L 3981,22949 L 3977,22961 L 3839,22901 z "
             style="fill:#ffffff;fill-opacity:1" />
          <path
             id="path4071"
             d="M 3977,22961 L 3947,23030 L 3809,22970 L 3672,22910 L 3702,22841 L 3839,22901 L 3977,22961 z "
             style="fill:#ffffff;fill-opacity:1" />
          <path
             id="path4073"
             d="M 3809,22970 L 3947,23030 L 3941,23041 L 3809,22970 z "
             style="fill:#ffffff;fill-opacity:1" />
          <path
             id="path4075"
             d="M 3941,23041 L 3905,23108 L 3773,23037 L 3641,22965 L 3677,22898 L 3809,22970 L 3941,23041 z "
             style="fill:#ffffff;fill-opacity:1" />
          <path
             id="path4077"
             d="M 3773,23037 L 3905,23108 L 3899,23119 L 3773,23037 z "
             style="fill:#ffffff;fill-opacity:1" />
          <path
             id="path4079"
             d="M 3899,23119 L 3856,23184 L 3731,23102 L 3605,23020 L 3647,22955 L 3773,23037 L 3899,23119 z "
             style="fill:#ffffff;fill-opacity:1" />
          <path
             id="path4081"
             d="M 3731,23102 L 3856,23184 L 3845,23198 L 3731,23102 z "
             style="fill:#ffffff;fill-opacity:1" />
          <path
             id="path4083"
             d="M 3845,23198 L 3744,23319 L 3629,23223 L 3514,23126 L 3616,23005 L 3731,23102 L 3845,23198 z "
             style="fill:#ffffff;fill-opacity:1" />
          <path
             id="path4085"
             d="M 3629,23223 L 3744,23319 L 3727,23336 L 3629,23223 z "
             style="fill:#ffffff;fill-opacity:1" />
          <path
             id="path4087"
             d="M 3727,23336 L 3603,23443 L 3505,23330 L 3407,23216 L 3531,23109 L 3629,23223 L 3727,23336 z "
             style="fill:#ffffff;fill-opacity:1" />
          <path
             id="path4089"
             d="M 3505,23330 L 3603,23443 L 3584,23458 L 3505,23330 z "
             style="fill:#ffffff;fill-opacity:1" />
          <path
             id="path4091"
             d="M 3584,23458 L 3439,23547 L 3360,23419 L 3282,23291 L 3426,23202 L 3505,23330 L 3584,23458 z "
             style="fill:#ffffff;fill-opacity:1" />
          <path
             id="path4093"
             d="M 3360,23419 L 3439,23547 L 3423,23555 L 3360,23419 z "
             style="fill:#ffffff;fill-opacity:1" />
          <path
             id="path4095"
             d="M 3423,23555 L 3344,23592 L 3281,23456 L 3218,23320 L 3297,23283 L 3360,23419 L 3423,23555 z "
             style="fill:#ffffff;fill-opacity:1" />
          <path
             id="path4097"
             d="M 3281,23456 L 3344,23592 L 3332,23597 L 3281,23456 z "
             style="fill:#ffffff;fill-opacity:1" />
          <path
             id="path4099"
             d="M 3332,23597 L 3248,23627 L 3197,23487 L 3145,23346 L 3229,23315 L 3281,23456 L 3332,23597 z "
             style="fill:#ffffff;fill-opacity:1" />
          <path
             id="path4101"
             d="M 3197,23487 L 3248,23627 L 3237,23631 L 3197,23487 z "
             style="fill:#ffffff;fill-opacity:1" />
          <path
             id="path4103"
             d="M 3237,23631 L 3148,23656 L 3108,23511 L 3068,23367 L 3157,23342 L 3197,23487 L 3237,23631 z "
             style="fill:#ffffff;fill-opacity:1" />
          <path
             id="path4105"
             d="M 3108,23511 L 3148,23656 L 3136,23659 L 3108,23511 z "
             style="fill:#ffffff;fill-opacity:1" />
          <path
             id="path4107"
             d="M 3136,23659 L 3043,23676 L 3015,23529 L 2987,23382 L 3080,23364 L 3108,23511 L 3136,23659 z "
             style="fill:#ffffff;fill-opacity:1" />
        </g>
        <g
           id="g4109"
           style="fill:#ffffff;fill-opacity:1" />
      </g>
    </g>
    <g
       transform="matrix(1.1911203e-2,0,0,1.1911203e-2,-15.039124,-252.85614)"
       style="fill:#ffffff;fill-opacity:1;visibility:visible"
       id="g4111">
      <desc
         id="desc4113">Drawing</desc>
      <g
         id="g4115"
         style="fill:#ffffff;fill-opacity:1">
        <g
           id="g4117"
           style="fill:#ffffff;fill-opacity:1;stroke:none">
          <path
             id="path4119"
             d="M 3165,21777 L 3165,23729 L 2865,23729 L 2865,21777 L 3165,21777 z "
             style="fill:#ffffff;fill-opacity:1" />
        </g>
        <g
           id="g4121"
           style="fill:#ffffff;fill-opacity:1" />
      </g>
    </g>
    <g
       transform="matrix(1.1911203e-2,0,0,1.1911203e-2,-15.039124,-252.85614)"
       style="fill:#ffffff;fill-opacity:1;visibility:visible"
       id="g4123">
      <desc
         id="desc4125">Drawing</desc>
      <g
         id="g4127"
         style="fill:#ffffff;fill-opacity:1">
        <g
           id="g4129"
           style="fill:#ffffff;fill-opacity:1;stroke:none">
          <path
             id="path4131"
             d="M 1879,21823 L 1884,22242 L 1734,22244 L 1584,22246 L 1579,21827 L 1729,21825 L 1879,21823 z "
             style="fill:#ffffff;fill-opacity:1" />
          <path
             id="path4133"
             d="M 1734,22244 L 1584,22251 L 1584,22246 L 1734,22244 z "
             style="fill:#ffffff;fill-opacity:1" />
          <path
             id="path4135"
             d="M 1884,22237 L 1900,22602 L 1751,22609 L 1601,22616 L 1584,22251 L 1734,22244 L 1884,22237 z "
             style="fill:#ffffff;fill-opacity:1" />
          <path
             id="path4137"
             d="M 1751,22609 L 1601,22624 L 1601,22616 L 1751,22609 z "
             style="fill:#ffffff;fill-opacity:1" />
          <path
             id="path4139"
             d="M 1900,22594 L 1931,22904 L 1782,22919 L 1632,22934 L 1601,22624 L 1751,22609 L 1900,22594 z "
             style="fill:#ffffff;fill-opacity:1" />
          <path
             id="path4141"
             d="M 1782,22919 L 1634,22944 L 1632,22934 L 1782,22919 z "
             style="fill:#ffffff;fill-opacity:1" />
          <path
             id="path4143"
             d="M 1930,22895 L 1952,23030 L 1804,23054 L 1656,23078 L 1634,22944 L 1782,22919 L 1930,22895 z "
             style="fill:#ffffff;fill-opacity:1" />
          <path
             id="path4145"
             d="M 1804,23054 L 1657,23086 L 1656,23078 L 1804,23054 z "
             style="fill:#ffffff;fill-opacity:1" />
          <path
             id="path4147"
             d="M 1950,23022 L 1977,23143 L 1830,23175 L 1684,23207 L 1657,23086 L 1804,23054 L 1950,23022 z "
             style="fill:#ffffff;fill-opacity:1" />
          <path
             id="path4149"
             d="M 1830,23175 L 1686,23217 L 1684,23207 L 1830,23175 z "
             style="fill:#ffffff;fill-opacity:1" />
          <path
             id="path4151"
             d="M 1974,23133 L 2006,23239 L 1862,23282 L 1718,23324 L 1686,23217 L 1830,23175 L 1974,23133 z "
             style="fill:#ffffff;fill-opacity:1" />
          <path
             id="path4153"
             d="M 1862,23282 L 1722,23337 L 1718,23324 L 1862,23282 z "
             style="fill:#ffffff;fill-opacity:1" />
          <path
             id="path4155"
             d="M 2001,23226 L 2038,23319 L 1899,23375 L 1759,23430 L 1722,23337 L 1862,23282 L 2001,23226 z "
             style="fill:#ffffff;fill-opacity:1" />
          <path
             id="path4157"
             d="M 1899,23375 L 1767,23446 L 1759,23430 L 1899,23375 z "
             style="fill:#ffffff;fill-opacity:1" />
          <path
             id="path4159"
             d="M 2031,23303 L 2073,23382 L 1941,23454 L 1809,23525 L 1767,23446 L 1899,23375 L 2031,23303 z "
             style="fill:#ffffff;fill-opacity:1" />
          <path
             id="path4161"
             d="M 1941,23454 L 1818,23539 L 1809,23525 L 1941,23454 z "
             style="fill:#ffffff;fill-opacity:1" />
          <path
             id="path4163"
             d="M 2065,23368 L 2088,23402 L 1965,23488 L 1842,23573 L 1818,23539 L 1941,23454 L 2065,23368 z "
             style="fill:#ffffff;fill-opacity:1" />
          <path
             id="path4165"
             d="M 1965,23488 L 1849,23583 L 1842,23573 L 1965,23488 z "
             style="fill:#ffffff;fill-opacity:1" />
          <path
             id="path4167"
             d="M 2081,23393 L 2106,23423 L 1990,23518 L 1874,23614 L 1849,23583 L 1965,23488 L 2081,23393 z "
             style="fill:#ffffff;fill-opacity:1" />
          <path
             id="path4169"
             d="M 1990,23518 L 1884,23624 L 1874,23614 L 1990,23518 z "
             style="fill:#ffffff;fill-opacity:1" />
          <path
             id="path4171"
             d="M 2097,23413 L 2123,23440 L 2017,23545 L 1910,23651 L 1884,23624 L 1990,23518 L 2097,23413 z "
             style="fill:#ffffff;fill-opacity:1" />
          <path
             id="path4173"
             d="M 2017,23545 L 1921,23661 L 1910,23651 L 2017,23545 z "
             style="fill:#ffffff;fill-opacity:1" />
          <path
             id="path4175"
             d="M 2112,23430 L 2141,23453 L 2045,23569 L 1950,23685 L 1921,23661 L 2017,23545 L 2112,23430 z "
             style="fill:#ffffff;fill-opacity:1" />
          <path
             id="path4177"
             d="M 2045,23569 L 1963,23694 L 1950,23685 L 2045,23569 z "
             style="fill:#ffffff;fill-opacity:1" />
          <path
             id="path4179"
             d="M 2128,23444 L 2158,23464 L 2075,23589 L 1993,23714 L 1963,23694 L 2045,23569 L 2128,23444 z "
             style="fill:#ffffff;fill-opacity:1" />
          <path
             id="path4181"
             d="M 2075,23589 L 2007,23722 L 1993,23714 L 2075,23589 z "
             style="fill:#ffffff;fill-opacity:1" />
          <path
             id="path4183"
             d="M 2144,23455 L 2176,23471 L 2107,23605 L 2039,23739 L 2007,23722 L 2075,23589 L 2144,23455 z "
             style="fill:#ffffff;fill-opacity:1" />
          <path
             id="path4185"
             d="M 2107,23605 L 2054,23745 L 2039,23739 L 2107,23605 z "
             style="fill:#ffffff;fill-opacity:1" />
          <path
             id="path4187"
             d="M 2160,23465 L 2194,23477 L 2141,23618 L 2088,23758 L 2054,23745 L 2107,23605 L 2160,23465 z "
             style="fill:#ffffff;fill-opacity:1" />
          <path
             id="path4189"
             d="M 2141,23618 L 2104,23763 L 2088,23758 L 2141,23618 z "
             style="fill:#ffffff;fill-opacity:1" />
          <path
             id="path4191"
             d="M 2178,23472 L 2214,23481 L 2176,23627 L 2139,23772 L 2104,23763 L 2141,23618 L 2178,23472 z "
             style="fill:#ffffff;fill-opacity:1" />
          <path
             id="path4193"
             d="M 2176,23627 L 2155,23775 L 2139,23772 L 2176,23627 z "
             style="fill:#ffffff;fill-opacity:1" />
          <path
             id="path4195"
             d="M 2198,23478 L 2235,23484 L 2214,23632 L 2192,23781 L 2155,23775 L 2176,23627 L 2198,23478 z "
             style="fill:#ffffff;fill-opacity:1" />
          <path
             id="path4197"
             d="M 2214,23632 L 2207,23782 L 2192,23781 L 2214,23632 z "
             style="fill:#ffffff;fill-opacity:1" />
          <path
             id="path4199"
             d="M 2221,23482 L 2260,23484 L 2253,23634 L 2246,23784 L 2207,23782 L 2214,23632 L 2221,23482 z "
             style="fill:#ffffff;fill-opacity:1" />
          <path
             id="path4201"
             d="M 2253,23634 L 2266,23783 L 2246,23784 L 2253,23634 z "
             style="fill:#ffffff;fill-opacity:1" />
          <path
             id="path4203"
             d="M 2240,23485 L 2279,23481 L 2292,23631 L 2305,23780 L 2266,23783 L 2253,23634 L 2240,23485 z "
             style="fill:#ffffff;fill-opacity:1" />
          <path
             id="path4205"
             d="M 2292,23631 L 2332,23775 L 2306,23780 L 2305,23780 L 2292,23631 z "
             style="fill:#ffffff;fill-opacity:1" />
          <path
             id="path4207"
             d="M 2252,23486 L 2288,23476 L 2328,23621 L 2368,23765 L 2332,23775 L 2292,23631 L 2252,23486 z "
             style="fill:#ffffff;fill-opacity:1" />
          <path
             id="path4209"
             d="M 2328,23621 L 2394,23755 L 2369,23765 L 2368,23765 L 2328,23621 z "
             style="fill:#ffffff;fill-opacity:1" />
          <path
             id="path4211"
             d="M 2262,23486 L 2296,23469 L 2362,23604 L 2427,23739 L 2394,23755 L 2328,23621 L 2262,23486 z "
             style="fill:#ffffff;fill-opacity:1" />
          <path
             id="path4213"
             d="M 2362,23604 L 2449,23726 L 2427,23739 L 2362,23604 z "
             style="fill:#ffffff;fill-opacity:1" />
          <path
             id="path4215"
             d="M 2274,23482 L 2305,23460 L 2393,23582 L 2480,23703 L 2449,23726 L 2362,23604 L 2274,23482 z "
             style="fill:#ffffff;fill-opacity:1" />
          <path
             id="path4217"
             d="M 2393,23582 L 2498,23689 L 2480,23703 L 2393,23582 z "
             style="fill:#ffffff;fill-opacity:1" />
          <path
             id="path4219"
             d="M 2288,23475 L 2316,23447 L 2421,23554 L 2526,23661 L 2498,23689 L 2393,23582 L 2288,23475 z "
             style="fill:#ffffff;fill-opacity:1" />
          <path
             id="path4221"
             d="M 2421,23554 L 2539,23646 L 2526,23661 L 2421,23554 z "
             style="fill:#ffffff;fill-opacity:1" />
          <path
             id="path4223"
             d="M 2303,23461 L 2330,23427 L 2447,23520 L 2565,23613 L 2539,23646 L 2421,23554 L 2303,23461 z "
             style="fill:#ffffff;fill-opacity:1" />
          <path
             id="path4225"
             d="M 2447,23520 L 2575,23600 L 2565,23613 L 2447,23520 z "
             style="fill:#ffffff;fill-opacity:1" />
          <path
             id="path4227"
             d="M 2320,23441 L 2344,23402 L 2472,23482 L 2599,23561 L 2575,23600 L 2447,23520 L 2320,23441 z "
             style="fill:#ffffff;fill-opacity:1" />
          <path
             id="path4229"
             d="M 2472,23482 L 2605,23550 L 2599,23561 L 2472,23482 z "
             style="fill:#ffffff;fill-opacity:1" />
          <path
             id="path4231"
             d="M 2338,23414 L 2360,23371 L 2494,23439 L 2627,23507 L 2605,23550 L 2472,23482 L 2338,23414 z "
             style="fill:#ffffff;fill-opacity:1" />
          <path
             id="path4233"
             d="M 2494,23439 L 2634,23492 L 2627,23507 L 2494,23439 z "
             style="fill:#ffffff;fill-opacity:1" />
          <path
             id="path4235"
             d="M 2353,23385 L 2391,23286 L 2531,23340 L 2672,23393 L 2634,23492 L 2494,23439 L 2353,23385 z "
             style="fill:#ffffff;fill-opacity:1" />
          <path
             id="path4237"
             d="M 2531,23340 L 2676,23378 L 2672,23393 L 2531,23340 z "
             style="fill:#ffffff;fill-opacity:1" />
          <path
             id="path4239"
             d="M 2387,23301 L 2417,23187 L 2562,23225 L 2707,23264 L 2676,23378 L 2531,23340 L 2387,23301 z "
             style="fill:#ffffff;fill-opacity:1" />
          <path
             id="path4241"
             d="M 2562,23225 L 2709,23253 L 2707,23264 L 2562,23225 z "
             style="fill:#ffffff;fill-opacity:1" />
          <path
             id="path4243"
             d="M 2415,23197 L 2439,23071 L 2586,23099 L 2733,23127 L 2709,23253 L 2562,23225 L 2415,23197 z "
             style="fill:#ffffff;fill-opacity:1" />
          <path
             id="path4245"
             d="M 2586,23099 L 2735,23119 L 2733,23127 L 2586,23099 z "
             style="fill:#ffffff;fill-opacity:1" />
          <path
             id="path4247"
             d="M 2437,23079 L 2456,22942 L 2604,22962 L 2753,22982 L 2735,23119 L 2586,23099 L 2437,23079 z "
             style="fill:#ffffff;fill-opacity:1" />
          <path
             id="path4249"
             d="M 2604,22962 L 2754,22974 L 2753,22982 L 2604,22962 z "
             style="fill:#ffffff;fill-opacity:1" />
          <path
             id="path4251"
             d="M 2455,22951 L 2477,22659 L 2627,22670 L 2776,22682 L 2754,22974 L 2604,22962 L 2455,22951 z "
             style="fill:#ffffff;fill-opacity:1" />
          <path
             id="path4253"
             d="M 2627,22670 L 2777,22674 L 2776,22682 L 2627,22670 z "
             style="fill:#ffffff;fill-opacity:1" />
          <path
             id="path4255"
             d="M 2477,22666 L 2485,22366 L 2635,22370 L 2785,22374 L 2777,22674 L 2627,22670 L 2477,22666 z "
             style="fill:#ffffff;fill-opacity:1" />
          <path
             id="path4257"
             d="M 2635,22370 L 2785,22369 L 2785,22374 L 2635,22370 z "
             style="fill:#ffffff;fill-opacity:1" />
          <path
             id="path4259"
             d="M 2485,22370 L 2484,21825 L 2634,21825 L 2784,21825 L 2785,22369 L 2635,22370 L 2485,22370 z "
             style="fill:#ffffff;fill-opacity:1" />
        </g>
        <g
           id="g4261"
           style="fill:#ffffff;fill-opacity:1" />
      </g>
    </g>
  </g>
</svg>
