<?xml version="1.0" encoding="UTF-8" standalone="no"?>
<!-- Created with Inkscape (http://www.inkscape.org/) -->
<svg
   xmlns:dc="http://purl.org/dc/elements/1.1/"
   xmlns:cc="http://web.resource.org/cc/"
   xmlns:rdf="http://www.w3.org/1999/02/22-rdf-syntax-ns#"
   xmlns:svg="http://www.w3.org/2000/svg"
   xmlns="http://www.w3.org/2000/svg"
   xmlns:sodipodi="http://sodipodi.sourceforge.net/DTD/sodipodi-0.dtd"
   xmlns:inkscape="http://www.inkscape.org/namespaces/inkscape"
   width="1cm"
   height="1cm"
   id="svg9908"
   sodipodi:version="0.32"
   inkscape:version="0.45"
   version="1.0"
   sodipodi:docbase="/data/world/proj/Kproj/symsolon/share/symsolon/aspects"
   sodipodi:docname="aspect-novil.svg"
   inkscape:output_extension="org.inkscape.output.svg.inkscape"
   sodipodi:modified="true">
  <defs
     id="defs9910" />
  <sodipodi:namedview
     id="base"
     pagecolor="#000000"
     bordercolor="#666666"
     borderopacity="1.0"
     inkscape:pageopacity="1"
     inkscape:pageshadow="2"
     inkscape:zoom="7.0170015"
     inkscape:cx="0.79131245"
     inkscape:cy="17.556514"
     inkscape:document-units="px"
     inkscape:current-layer="layer1"
     inkscape:window-width="966"
     inkscape:window-height="626"
     inkscape:window-x="10"
     inkscape:window-y="73" />
  <metadata
     id="metadata9913">
    <rdf:RDF>
      <cc:Work
         rdf:about="">
        <dc:format>image/svg+xml</dc:format>
        <dc:type
           rdf:resource="http://purl.org/dc/dcmitype/StillImage" />
      </cc:Work>
    </rdf:RDF>
  </metadata>
  <g
     inkscape:label="1. réteg"
     inkscape:groupmode="layer"
     id="layer1">
    <g
       transform="matrix(1.2159271e-2,0,0,1.2159271e-2,-80.099631,-209.80415)"
       style="fill:#ffffff;fill-opacity:1;visibility:visible"
       id="g3831">
      <desc
         id="desc3833">Drawing</desc>
      <g
         id="g3835"
         style="fill:#ffffff;fill-opacity:1">
        <g
           id="g3837"
           style="fill:#ffffff;fill-opacity:1;stroke:none">
          <path
             id="path3839"
             d="M 7909,19730 L 7910,17826 L 8060,17826 L 8210,17826 L 8209,19730 L 8059,19730 L 7909,19730 z "
             style="fill:#ffffff;fill-opacity:1" />
          <path
             id="path3841"
             d="M 8060,17826 L 7910,17826 L 7912,17800 L 7919,17775 L 7930,17751 L 7945,17730 L 7964,17711 L 7985,17696 L 8009,17685 L 8034,17678 L 8060,17676 L 8086,17678 L 8111,17685 L 8135,17696 L 8156,17711 L 8175,17730 L 8188,17748 L 8060,17826 z "
             style="fill:#ffffff;fill-opacity:1" />
          <path
             id="path3843"
             d="M 8188,17748 L 9235,19462 L 9107,19540 L 8979,19618 L 7932,17904 L 8060,17826 L 8188,17748 z "
             style="fill:#ffffff;fill-opacity:1" />
          <path
             id="path3845"
             d="M 9107,19540 L 9257,19540 L 9255,19566 L 9248,19591 L 9237,19615 L 9222,19636 L 9203,19655 L 9182,19670 L 9158,19681 L 9133,19688 L 9107,19690 L 9081,19688 L 9056,19681 L 9032,19670 L 9011,19655 L 8992,19636 L 8979,19618 L 9107,19540 z "
             style="fill:#ffffff;fill-opacity:1" />
          <path
             id="path3847"
             d="M 8957,19540 L 8957,17635 L 9107,17635 L 9257,17635 L 9257,19540 L 9107,19540 L 8957,19540 z "
             style="fill:#ffffff;fill-opacity:1" />
        </g>
        <g
           id="g3849"
           style="fill:#ffffff;fill-opacity:1" />
      </g>
    </g>
    <g
       transform="matrix(1.2159271e-2,0,0,1.2159271e-2,-80.099631,-209.80415)"
       style="fill:#ffffff;fill-opacity:1;visibility:visible"
       id="g3851">
      <desc
         id="desc3853">Drawing</desc>
      <g
         id="g3855"
         style="fill:#ffffff;fill-opacity:1">
        <g
           id="g3857"
           style="fill:#ffffff;fill-opacity:1;stroke:none">
          <path
             id="path3859"
             d="M 7113,17825 L 7113,19825 L 6813,19825 L 6813,17825 L 7113,17825 z "
             style="fill:#ffffff;fill-opacity:1" />
        </g>
        <g
           id="g3861"
           style="fill:#ffffff;fill-opacity:1" />
      </g>
    </g>
    <g
       transform="matrix(1.2159271e-2,0,0,1.2159271e-2,-80.099631,-209.80415)"
       style="fill:#ffffff;fill-opacity:1;visibility:visible"
       id="g3863">
      <desc
         id="desc3865">Drawing</desc>
      <g
         id="g3867"
         style="fill:#ffffff;fill-opacity:1">
        <g
           id="g3869"
           style="fill:#ffffff;fill-opacity:1;stroke:none">
          <path
             id="path3871"
             d="M 6903,19533 L 7100,19510 L 7117,19659 L 7135,19808 L 6937,19831 L 6920,19682 L 6903,19533 z "
             style="fill:#ffffff;fill-opacity:1" />
          <path
             id="path3873"
             d="M 7117,19659 L 7152,19805 L 7135,19808 L 7117,19659 z "
             style="fill:#ffffff;fill-opacity:1" />
          <path
             id="path3875"
             d="M 7083,19513 L 7248,19474 L 7283,19620 L 7317,19766 L 7152,19805 L 7117,19659 L 7083,19513 z "
             style="fill:#ffffff;fill-opacity:1" />
          <path
             id="path3877"
             d="M 7283,19620 L 7338,19759 L 7317,19766 L 7283,19620 z "
             style="fill:#ffffff;fill-opacity:1" />
          <path
             id="path3879"
             d="M 7228,19480 L 7363,19427 L 7418,19567 L 7473,19706 L 7338,19759 L 7283,19620 L 7228,19480 z "
             style="fill:#ffffff;fill-opacity:1" />
          <path
             id="path3881"
             d="M 7418,19567 L 7491,19698 L 7473,19706 L 7418,19567 z "
             style="fill:#ffffff;fill-opacity:1" />
          <path
             id="path3883"
             d="M 7345,19435 L 7401,19404 L 7474,19535 L 7547,19666 L 7491,19698 L 7418,19567 L 7345,19435 z "
             style="fill:#ffffff;fill-opacity:1" />
          <path
             id="path3885"
             d="M 7474,19535 L 7559,19659 L 7547,19666 L 7474,19535 z "
             style="fill:#ffffff;fill-opacity:1" />
          <path
             id="path3887"
             d="M 7389,19412 L 7438,19378 L 7523,19501 L 7608,19625 L 7559,19659 L 7474,19535 L 7389,19412 z "
             style="fill:#ffffff;fill-opacity:1" />
          <path
             id="path3889"
             d="M 7523,19501 L 7621,19615 L 7608,19625 L 7523,19501 z "
             style="fill:#ffffff;fill-opacity:1" />
          <path
             id="path3891"
             d="M 7425,19388 L 7467,19351 L 7565,19465 L 7663,19579 L 7621,19615 L 7523,19501 L 7425,19388 z "
             style="fill:#ffffff;fill-opacity:1" />
          <path
             id="path3893"
             d="M 7565,19465 L 7676,19566 L 7663,19579 L 7565,19465 z "
             style="fill:#ffffff;fill-opacity:1" />
          <path
             id="path3895"
             d="M 7455,19364 L 7490,19325 L 7601,19427 L 7711,19528 L 7676,19566 L 7565,19465 L 7455,19364 z "
             style="fill:#ffffff;fill-opacity:1" />
          <path
             id="path3897"
             d="M 7601,19427 L 7723,19513 L 7711,19528 L 7601,19427 z "
             style="fill:#ffffff;fill-opacity:1" />
          <path
             id="path3899"
             d="M 7478,19340 L 7506,19300 L 7629,19387 L 7751,19473 L 7723,19513 L 7601,19427 L 7478,19340 z "
             style="fill:#ffffff;fill-opacity:1" />
          <path
             id="path3901"
             d="M 7629,19387 L 7762,19456 L 7751,19473 L 7629,19387 z "
             style="fill:#ffffff;fill-opacity:1" />
          <path
             id="path3903"
             d="M 7496,19317 L 7518,19275 L 7651,19345 L 7784,19414 L 7762,19456 L 7629,19387 L 7496,19317 z "
             style="fill:#ffffff;fill-opacity:1" />
          <path
             id="path3905"
             d="M 7651,19345 L 7792,19395 L 7784,19414 L 7651,19345 z "
             style="fill:#ffffff;fill-opacity:1" />
          <path
             id="path3907"
             d="M 7509,19294 L 7525,19252 L 7666,19302 L 7807,19352 L 7792,19395 L 7651,19345 L 7509,19294 z "
             style="fill:#ffffff;fill-opacity:1" />
          <path
             id="path3909"
             d="M 7666,19302 L 7813,19332 L 7807,19352 L 7666,19302 z "
             style="fill:#ffffff;fill-opacity:1" />
          <path
             id="path3911"
             d="M 7519,19272 L 7528,19228 L 7675,19258 L 7822,19288 L 7813,19332 L 7666,19302 L 7519,19272 z "
             style="fill:#ffffff;fill-opacity:1" />
          <path
             id="path3913"
             d="M 7675,19258 L 7825,19267 L 7822,19288 L 7675,19258 z "
             style="fill:#ffffff;fill-opacity:1" />
          <path
             id="path3915"
             d="M 7525,19249 L 7528,19204 L 7678,19214 L 7827,19223 L 7825,19267 L 7675,19258 L 7525,19249 z "
             style="fill:#ffffff;fill-opacity:1" />
          <path
             id="path3917"
             d="M 7678,19214 L 7827,19203 L 7827,19223 L 7678,19214 z "
             style="fill:#ffffff;fill-opacity:1" />
          <path
             id="path3919"
             d="M 7528,19225 L 7525,19180 L 7675,19169 L 7824,19158 L 7827,19203 L 7678,19214 L 7528,19225 z "
             style="fill:#ffffff;fill-opacity:1" />
          <path
             id="path3921"
             d="M 7675,19169 L 7821,19139 L 7824,19158 L 7675,19169 z "
             style="fill:#ffffff;fill-opacity:1" />
          <path
             id="path3923"
             d="M 7528,19199 L 7518,19154 L 7665,19124 L 7812,19094 L 7821,19139 L 7675,19169 L 7528,19199 z "
             style="fill:#ffffff;fill-opacity:1" />
          <path
             id="path3925"
             d="M 7665,19124 L 7808,19076 L 7812,19094 L 7665,19124 z "
             style="fill:#ffffff;fill-opacity:1" />
          <path
             id="path3927"
             d="M 7523,19172 L 7508,19127 L 7650,19079 L 7793,19032 L 7808,19076 L 7665,19124 L 7523,19172 z "
             style="fill:#ffffff;fill-opacity:1" />
          <path
             id="path3929"
             d="M 7650,19079 L 7786,19016 L 7793,19032 L 7650,19079 z "
             style="fill:#ffffff;fill-opacity:1" />
          <path
             id="path3931"
             d="M 7514,19143 L 7494,19098 L 7630,19035 L 7766,18972 L 7786,19016 L 7650,19079 L 7514,19143 z "
             style="fill:#ffffff;fill-opacity:1" />
          <path
             id="path3933"
             d="M 7630,19035 L 7759,18958 L 7766,18972 L 7630,19035 z "
             style="fill:#ffffff;fill-opacity:1" />
          <path
             id="path3935"
             d="M 7501,19112 L 7475,19069 L 7604,18992 L 7733,18915 L 7759,18958 L 7630,19035 L 7501,19112 z "
             style="fill:#ffffff;fill-opacity:1" />
          <path
             id="path3937"
             d="M 7604,18992 L 7725,18903 L 7733,18915 L 7604,18992 z "
             style="fill:#ffffff;fill-opacity:1" />
          <path
             id="path3939"
             d="M 7483,19081 L 7452,19039 L 7573,18950 L 7693,18860 L 7725,18903 L 7604,18992 L 7483,19081 z "
             style="fill:#ffffff;fill-opacity:1" />
          <path
             id="path3941"
             d="M 7573,18950 L 7685,18850 L 7693,18860 L 7573,18950 z "
             style="fill:#ffffff;fill-opacity:1" />
          <path
             id="path3943"
             d="M 7461,19050 L 7424,19009 L 7536,18909 L 7648,18809 L 7685,18850 L 7573,18950 L 7461,19050 z "
             style="fill:#ffffff;fill-opacity:1" />
          <path
             id="path3945"
             d="M 7536,18909 L 7639,18800 L 7648,18809 L 7536,18909 z "
             style="fill:#ffffff;fill-opacity:1" />
          <path
             id="path3947"
             d="M 7433,19018 L 7392,18979 L 7495,18870 L 7598,18761 L 7639,18800 L 7536,18909 L 7433,19018 z "
             style="fill:#ffffff;fill-opacity:1" />
          <path
             id="path3949"
             d="M 7495,18870 L 7589,18753 L 7598,18761 L 7495,18870 z "
             style="fill:#ffffff;fill-opacity:1" />
          <path
             id="path3951"
             d="M 7401,18987 L 7355,18949 L 7448,18832 L 7542,18716 L 7589,18753 L 7495,18870 L 7401,18987 z "
             style="fill:#ffffff;fill-opacity:1" />
          <path
             id="path3953"
             d="M 7448,18832 L 7529,18706 L 7542,18716 L 7448,18832 z "
             style="fill:#ffffff;fill-opacity:1" />
          <path
             id="path3955"
             d="M 7368,18959 L 7262,18892 L 7342,18765 L 7422,18638 L 7529,18706 L 7448,18832 L 7368,18959 z "
             style="fill:#ffffff;fill-opacity:1" />
          <path
             id="path3957"
             d="M 7342,18765 L 7403,18628 L 7422,18638 L 7342,18765 z "
             style="fill:#ffffff;fill-opacity:1" />
          <path
             id="path3959"
             d="M 7280,18902 L 7156,18846 L 7217,18709 L 7279,18572 L 7403,18628 L 7342,18765 L 7280,18902 z "
             style="fill:#ffffff;fill-opacity:1" />
          <path
             id="path3961"
             d="M 7217,18709 L 7261,18565 L 7279,18572 L 7217,18709 z "
             style="fill:#ffffff;fill-opacity:1" />
          <path
             id="path3963"
             d="M 7174,18853 L 7033,18810 L 7076,18667 L 7120,18523 L 7261,18565 L 7217,18709 L 7174,18853 z "
             style="fill:#ffffff;fill-opacity:1" />
          <path
             id="path3965"
             d="M 7076,18667 L 7101,18519 L 7120,18523 L 7076,18667 z "
             style="fill:#ffffff;fill-opacity:1" />
          <path
             id="path3967"
             d="M 7051,18814 L 6895,18788 L 6920,18640 L 6945,18492 L 7101,18519 L 7076,18667 L 7051,18814 z "
             style="fill:#ffffff;fill-opacity:1" />
        </g>
        <g
           id="g3969"
           style="fill:#ffffff;fill-opacity:1" />
      </g>
    </g>
  </g>
</svg>
