<?xml version="1.0" encoding="UTF-8" standalone="no"?>
<!-- Created with Inkscape (http://www.inkscape.org/) -->
<svg
   xmlns:dc="http://purl.org/dc/elements/1.1/"
   xmlns:cc="http://web.resource.org/cc/"
   xmlns:rdf="http://www.w3.org/1999/02/22-rdf-syntax-ns#"
   xmlns:svg="http://www.w3.org/2000/svg"
   xmlns="http://www.w3.org/2000/svg"
   xmlns:sodipodi="http://sodipodi.sourceforge.net/DTD/sodipodi-0.dtd"
   xmlns:inkscape="http://www.inkscape.org/namespaces/inkscape"
   width="1cm"
   height="1cm"
   id="svg9908"
   sodipodi:version="0.32"
   inkscape:version="0.45"
   version="1.0"
   sodipodi:docbase="/data/world/proj/Kproj/symsolon/share/symsolon/aspects"
   sodipodi:docname="aspect-quintil.svg"
   inkscape:output_extension="org.inkscape.output.svg.inkscape"
   sodipodi:modified="true">
  <defs
     id="defs9910" />
  <sodipodi:namedview
     id="base"
     pagecolor="#000000"
     bordercolor="#666666"
     borderopacity="1.0"
     inkscape:pageopacity="1"
     inkscape:pageshadow="2"
     inkscape:zoom="7.0170015"
     inkscape:cx="0.79131245"
     inkscape:cy="17.556514"
     inkscape:document-units="px"
     inkscape:current-layer="layer1"
     inkscape:window-width="966"
     inkscape:window-height="626"
     inkscape:window-x="10"
     inkscape:window-y="73" />
  <metadata
     id="metadata9913">
    <rdf:RDF>
      <cc:Work
         rdf:about="">
        <dc:format>image/svg+xml</dc:format>
        <dc:type
           rdf:resource="http://purl.org/dc/dcmitype/StillImage" />
      </cc:Work>
    </rdf:RDF>
  </metadata>
  <g
     inkscape:label="1. réteg"
     inkscape:groupmode="layer"
     id="layer1">
    <g
       transform="matrix(1.0958323e-2,0,0,1.0958323e-2,-65.513188,-100.2157)"
       style="fill:#ffffff;fill-opacity:1;visibility:visible"
       id="g1861">
      <desc
         id="desc1863">Drawing</desc>
      <g
         id="g1865"
         style="fill:#ffffff;fill-opacity:1">
        <g
           id="g1867"
           style="fill:#ffffff;fill-opacity:1;stroke:none">
          <path
             id="path1869"
             d="M 8088,11805 L 8004,11800 L 8012,11650 L 8021,11500 L 8106,11505 L 8097,11655 L 8088,11805 z "
             style="fill:#ffffff;fill-opacity:1" />
          <path
             id="path1871"
             d="M 8012,11650 L 8004,11800 L 7986,11798 L 8012,11650 z "
             style="fill:#ffffff;fill-opacity:1" />
          <path
             id="path1873"
             d="M 7986,11798 L 7904,11783 L 7930,11636 L 7956,11488 L 8038,11502 L 8012,11650 L 7986,11798 z "
             style="fill:#ffffff;fill-opacity:1" />
          <path
             id="path1875"
             d="M 7930,11636 L 7904,11783 L 7887,11779 L 7930,11636 z "
             style="fill:#ffffff;fill-opacity:1" />
          <path
             id="path1877"
             d="M 7887,11779 L 7808,11756 L 7851,11612 L 7894,11468 L 7973,11492 L 7930,11636 L 7887,11779 z "
             style="fill:#ffffff;fill-opacity:1" />
          <path
             id="path1879"
             d="M 7851,11612 L 7808,11756 L 7792,11750 L 7851,11612 z "
             style="fill:#ffffff;fill-opacity:1" />
          <path
             id="path1881"
             d="M 7792,11750 L 7716,11718 L 7775,11580 L 7833,11442 L 7909,11474 L 7851,11612 L 7792,11750 z "
             style="fill:#ffffff;fill-opacity:1" />
          <path
             id="path1883"
             d="M 7775,11580 L 7716,11718 L 7702,11711 L 7775,11580 z "
             style="fill:#ffffff;fill-opacity:1" />
          <path
             id="path1885"
             d="M 7702,11711 L 7629,11670 L 7702,11539 L 7775,11408 L 7848,11449 L 7775,11580 L 7702,11711 z "
             style="fill:#ffffff;fill-opacity:1" />
          <path
             id="path1887"
             d="M 7702,11539 L 7629,11670 L 7616,11662 L 7702,11539 z "
             style="fill:#ffffff;fill-opacity:1" />
          <path
             id="path1889"
             d="M 7616,11662 L 7548,11614 L 7634,11491 L 7720,11369 L 7789,11417 L 7702,11539 L 7616,11662 z "
             style="fill:#ffffff;fill-opacity:1" />
          <path
             id="path1891"
             d="M 7634,11491 L 7548,11614 L 7536,11605 L 7634,11491 z "
             style="fill:#ffffff;fill-opacity:1" />
          <path
             id="path1893"
             d="M 7536,11605 L 7472,11550 L 7570,11436 L 7669,11323 L 7732,11378 L 7634,11491 L 7536,11605 z "
             style="fill:#ffffff;fill-opacity:1" />
          <path
             id="path1895"
             d="M 7570,11436 L 7472,11550 L 7462,11540 L 7570,11436 z "
             style="fill:#ffffff;fill-opacity:1" />
          <path
             id="path1897"
             d="M 7462,11540 L 7403,11478 L 7512,11374 L 7620,11271 L 7679,11333 L 7570,11436 L 7462,11540 z "
             style="fill:#ffffff;fill-opacity:1" />
          <path
             id="path1899"
             d="M 7512,11374 L 7403,11478 L 7394,11467 L 7512,11374 z "
             style="fill:#ffffff;fill-opacity:1" />
          <path
             id="path1901"
             d="M 7394,11467 L 7340,11399 L 7458,11306 L 7576,11214 L 7630,11282 L 7512,11374 L 7394,11467 z "
             style="fill:#ffffff;fill-opacity:1" />
          <path
             id="path1903"
             d="M 7458,11306 L 7340,11399 L 7332,11388 L 7458,11306 z "
             style="fill:#ffffff;fill-opacity:1" />
          <path
             id="path1905"
             d="M 7332,11388 L 7285,11314 L 7410,11233 L 7536,11151 L 7584,11225 L 7458,11306 L 7332,11388 z "
             style="fill:#ffffff;fill-opacity:1" />
          <path
             id="path1907"
             d="M 7410,11233 L 7285,11314 L 7278,11302 L 7410,11233 z "
             style="fill:#ffffff;fill-opacity:1" />
          <path
             id="path1909"
             d="M 7278,11302 L 7236,11223 L 7369,11154 L 7502,11084 L 7543,11163 L 7410,11233 L 7278,11302 z "
             style="fill:#ffffff;fill-opacity:1" />
          <path
             id="path1911"
             d="M 7369,11154 L 7236,11223 L 7231,11211 L 7369,11154 z "
             style="fill:#ffffff;fill-opacity:1" />
          <path
             id="path1913"
             d="M 7231,11211 L 7196,11128 L 7334,11070 L 7473,11012 L 7507,11096 L 7369,11154 L 7231,11211 z "
             style="fill:#ffffff;fill-opacity:1" />
          <path
             id="path1915"
             d="M 7334,11070 L 7196,11128 L 7191,11115 L 7334,11070 z "
             style="fill:#ffffff;fill-opacity:1" />
          <path
             id="path1917"
             d="M 7191,11115 L 7163,11027 L 7306,10982 L 7449,10937 L 7477,11025 L 7334,11070 L 7191,11115 z "
             style="fill:#ffffff;fill-opacity:1" />
          <path
             id="path1919"
             d="M 7306,10982 L 7163,11027 L 7160,11014 L 7306,10982 z "
             style="fill:#ffffff;fill-opacity:1" />
          <path
             id="path1921"
             d="M 7160,11014 L 7139,10923 L 7286,10890 L 7432,10857 L 7453,10949 L 7306,10982 L 7160,11014 z "
             style="fill:#ffffff;fill-opacity:1" />
          <path
             id="path1923"
             d="M 7286,10890 L 7139,10923 L 7137,10910 L 7286,10890 z "
             style="fill:#ffffff;fill-opacity:1" />
          <path
             id="path1925"
             d="M 7137,10910 L 7125,10815 L 7273,10795 L 7422,10775 L 7435,10870 L 7286,10890 L 7137,10910 z "
             style="fill:#ffffff;fill-opacity:1" />
          <path
             id="path1927"
             d="M 7273,10795 L 7125,10815 L 7123,10801 L 7273,10795 z "
             style="fill:#ffffff;fill-opacity:1" />
          <path
             id="path1929"
             d="M 7123,10801 L 7119,10704 L 7269,10697 L 7419,10690 L 7423,10788 L 7273,10795 L 7123,10801 z "
             style="fill:#ffffff;fill-opacity:1" />
          <path
             id="path1931"
             d="M 7269,10697 L 7119,10704 L 7119,10690 L 7269,10697 z "
             style="fill:#ffffff;fill-opacity:1" />
          <path
             id="path1933"
             d="M 7119,10690 L 7123,10593 L 7273,10599 L 7423,10606 L 7419,10704 L 7269,10697 L 7119,10690 z "
             style="fill:#ffffff;fill-opacity:1" />
          <path
             id="path1935"
             d="M 7273,10599 L 7123,10593 L 7125,10579 L 7273,10599 z "
             style="fill:#ffffff;fill-opacity:1" />
          <path
             id="path1937"
             d="M 7125,10579 L 7137,10484 L 7286,10504 L 7435,10524 L 7422,10619 L 7273,10599 L 7125,10579 z "
             style="fill:#ffffff;fill-opacity:1" />
          <path
             id="path1939"
             d="M 7286,10504 L 7137,10484 L 7139,10471 L 7286,10504 z "
             style="fill:#ffffff;fill-opacity:1" />
          <path
             id="path1941"
             d="M 7139,10471 L 7160,10380 L 7306,10412 L 7453,10445 L 7432,10537 L 7286,10504 L 7139,10471 z "
             style="fill:#ffffff;fill-opacity:1" />
          <path
             id="path1943"
             d="M 7306,10412 L 7160,10380 L 7163,10367 L 7306,10412 z "
             style="fill:#ffffff;fill-opacity:1" />
          <path
             id="path1945"
             d="M 7163,10367 L 7191,10279 L 7334,10324 L 7477,10369 L 7449,10457 L 7306,10412 L 7163,10367 z "
             style="fill:#ffffff;fill-opacity:1" />
          <path
             id="path1947"
             d="M 7334,10324 L 7191,10279 L 7196,10266 L 7334,10324 z "
             style="fill:#ffffff;fill-opacity:1" />
          <path
             id="path1949"
             d="M 7196,10266 L 7231,10183 L 7369,10240 L 7507,10298 L 7473,10382 L 7334,10324 L 7196,10266 z "
             style="fill:#ffffff;fill-opacity:1" />
          <path
             id="path1951"
             d="M 7369,10240 L 7231,10183 L 7236,10171 L 7369,10240 z "
             style="fill:#ffffff;fill-opacity:1" />
          <path
             id="path1953"
             d="M 7236,10171 L 7278,10092 L 7410,10161 L 7543,10231 L 7502,10310 L 7369,10240 L 7236,10171 z "
             style="fill:#ffffff;fill-opacity:1" />
          <path
             id="path1955"
             d="M 7410,10161 L 7278,10092 L 7285,10080 L 7410,10161 z "
             style="fill:#ffffff;fill-opacity:1" />
          <path
             id="path1957"
             d="M 7285,10080 L 7332,10006 L 7458,10088 L 7584,10169 L 7536,10243 L 7410,10161 L 7285,10080 z "
             style="fill:#ffffff;fill-opacity:1" />
          <path
             id="path1959"
             d="M 7458,10088 L 7332,10006 L 7340,9995 L 7458,10088 z "
             style="fill:#ffffff;fill-opacity:1" />
          <path
             id="path1961"
             d="M 7340,9995 L 7394,9927 L 7512,10020 L 7630,10112 L 7576,10180 L 7458,10088 L 7340,9995 z "
             style="fill:#ffffff;fill-opacity:1" />
          <path
             id="path1963"
             d="M 7512,10020 L 7394,9927 L 7403,9916 L 7512,10020 z "
             style="fill:#ffffff;fill-opacity:1" />
          <path
             id="path1965"
             d="M 7403,9916 L 7462,9854 L 7570,9958 L 7679,10061 L 7620,10123 L 7512,10020 L 7403,9916 z "
             style="fill:#ffffff;fill-opacity:1" />
          <path
             id="path1967"
             d="M 7570,9958 L 7462,9854 L 7472,9844 L 7570,9958 z "
             style="fill:#ffffff;fill-opacity:1" />
          <path
             id="path1969"
             d="M 7472,9844 L 7536,9789 L 7634,9903 L 7732,10016 L 7669,10071 L 7570,9958 L 7472,9844 z "
             style="fill:#ffffff;fill-opacity:1" />
          <path
             id="path1971"
             d="M 7634,9903 L 7536,9789 L 7548,9780 L 7634,9903 z "
             style="fill:#ffffff;fill-opacity:1" />
          <path
             id="path1973"
             d="M 7548,9780 L 7616,9732 L 7702,9855 L 7789,9977 L 7720,10025 L 7634,9903 L 7548,9780 z "
             style="fill:#ffffff;fill-opacity:1" />
          <path
             id="path1975"
             d="M 7702,9855 L 7616,9732 L 7629,9724 L 7702,9855 z "
             style="fill:#ffffff;fill-opacity:1" />
          <path
             id="path1977"
             d="M 7629,9724 L 7702,9683 L 7775,9814 L 7848,9945 L 7775,9986 L 7702,9855 L 7629,9724 z "
             style="fill:#ffffff;fill-opacity:1" />
          <path
             id="path1979"
             d="M 7775,9814 L 7702,9683 L 7716,9676 L 7775,9814 z "
             style="fill:#ffffff;fill-opacity:1" />
          <path
             id="path1981"
             d="M 7716,9676 L 7792,9644 L 7851,9782 L 7909,9920 L 7833,9952 L 7775,9814 L 7716,9676 z "
             style="fill:#ffffff;fill-opacity:1" />
          <path
             id="path1983"
             d="M 7851,9782 L 7792,9644 L 7808,9638 L 7851,9782 z "
             style="fill:#ffffff;fill-opacity:1" />
          <path
             id="path1985"
             d="M 7808,9638 L 7887,9615 L 7930,9758 L 7973,9902 L 7894,9926 L 7851,9782 L 7808,9638 z "
             style="fill:#ffffff;fill-opacity:1" />
          <path
             id="path1987"
             d="M 7930,9758 L 7887,9615 L 7904,9611 L 7930,9758 z "
             style="fill:#ffffff;fill-opacity:1" />
          <path
             id="path1989"
             d="M 7904,9611 L 7986,9596 L 8012,9744 L 8038,9892 L 7956,9906 L 7930,9758 L 7904,9611 z "
             style="fill:#ffffff;fill-opacity:1" />
          <path
             id="path1991"
             d="M 8012,9744 L 7986,9596 L 8004,9594 L 8012,9744 z "
             style="fill:#ffffff;fill-opacity:1" />
          <path
             id="path1993"
             d="M 8004,9594 L 8088,9589 L 8097,9739 L 8106,9889 L 8021,9894 L 8012,9744 L 8004,9594 z "
             style="fill:#ffffff;fill-opacity:1" />
          <path
             id="path1995"
             d="M 8097,9739 L 8088,9589 L 8106,9589 L 8097,9739 z "
             style="fill:#ffffff;fill-opacity:1" />
          <path
             id="path1997"
             d="M 8106,9589 L 8190,9594 L 8182,9744 L 8173,9894 L 8088,9889 L 8097,9739 L 8106,9589 z "
             style="fill:#ffffff;fill-opacity:1" />
          <path
             id="path1999"
             d="M 8182,9744 L 8190,9594 L 8208,9596 L 8182,9744 z "
             style="fill:#ffffff;fill-opacity:1" />
          <path
             id="path2001"
             d="M 8208,9596 L 8290,9611 L 8264,9758 L 8238,9906 L 8156,9892 L 8182,9744 L 8208,9596 z "
             style="fill:#ffffff;fill-opacity:1" />
          <path
             id="path2003"
             d="M 8264,9758 L 8290,9611 L 8307,9615 L 8264,9758 z "
             style="fill:#ffffff;fill-opacity:1" />
          <path
             id="path2005"
             d="M 8307,9615 L 8386,9638 L 8343,9782 L 8300,9926 L 8221,9902 L 8264,9758 L 8307,9615 z "
             style="fill:#ffffff;fill-opacity:1" />
          <path
             id="path2007"
             d="M 8343,9782 L 8386,9638 L 8402,9644 L 8343,9782 z "
             style="fill:#ffffff;fill-opacity:1" />
          <path
             id="path2009"
             d="M 8402,9644 L 8478,9676 L 8419,9814 L 8361,9952 L 8285,9920 L 8343,9782 L 8402,9644 z "
             style="fill:#ffffff;fill-opacity:1" />
          <path
             id="path2011"
             d="M 8419,9814 L 8478,9676 L 8492,9683 L 8419,9814 z "
             style="fill:#ffffff;fill-opacity:1" />
          <path
             id="path2013"
             d="M 8492,9683 L 8565,9724 L 8492,9855 L 8419,9986 L 8346,9945 L 8419,9814 L 8492,9683 z "
             style="fill:#ffffff;fill-opacity:1" />
          <path
             id="path2015"
             d="M 8492,9855 L 8565,9724 L 8578,9732 L 8492,9855 z "
             style="fill:#ffffff;fill-opacity:1" />
          <path
             id="path2017"
             d="M 8578,9732 L 8646,9780 L 8560,9903 L 8474,10025 L 8405,9977 L 8492,9855 L 8578,9732 z "
             style="fill:#ffffff;fill-opacity:1" />
          <path
             id="path2019"
             d="M 8560,9903 L 8646,9780 L 8658,9789 L 8560,9903 z "
             style="fill:#ffffff;fill-opacity:1" />
          <path
             id="path2021"
             d="M 8658,9789 L 8722,9844 L 8624,9958 L 8525,10071 L 8462,10016 L 8560,9903 L 8658,9789 z "
             style="fill:#ffffff;fill-opacity:1" />
          <path
             id="path2023"
             d="M 8624,9958 L 8722,9844 L 8732,9854 L 8624,9958 z "
             style="fill:#ffffff;fill-opacity:1" />
          <path
             id="path2025"
             d="M 8732,9854 L 8791,9916 L 8682,10020 L 8574,10123 L 8515,10061 L 8624,9958 L 8732,9854 z "
             style="fill:#ffffff;fill-opacity:1" />
          <path
             id="path2027"
             d="M 8682,10020 L 8791,9916 L 8800,9927 L 8682,10020 z "
             style="fill:#ffffff;fill-opacity:1" />
          <path
             id="path2029"
             d="M 8800,9927 L 8854,9995 L 8736,10088 L 8618,10180 L 8564,10112 L 8682,10020 L 8800,9927 z "
             style="fill:#ffffff;fill-opacity:1" />
          <path
             id="path2031"
             d="M 8736,10088 L 8854,9995 L 8862,10006 L 8736,10088 z "
             style="fill:#ffffff;fill-opacity:1" />
          <path
             id="path2033"
             d="M 8862,10006 L 8909,10080 L 8784,10161 L 8658,10243 L 8610,10169 L 8736,10088 L 8862,10006 z "
             style="fill:#ffffff;fill-opacity:1" />
          <path
             id="path2035"
             d="M 8784,10161 L 8909,10080 L 8916,10092 L 8784,10161 z "
             style="fill:#ffffff;fill-opacity:1" />
          <path
             id="path2037"
             d="M 8916,10092 L 8958,10171 L 8825,10240 L 8692,10310 L 8651,10231 L 8784,10161 L 8916,10092 z "
             style="fill:#ffffff;fill-opacity:1" />
          <path
             id="path2039"
             d="M 8825,10240 L 8958,10171 L 8963,10183 L 8825,10240 z "
             style="fill:#ffffff;fill-opacity:1" />
          <path
             id="path2041"
             d="M 8963,10183 L 8998,10266 L 8860,10324 L 8721,10382 L 8687,10298 L 8825,10240 L 8963,10183 z "
             style="fill:#ffffff;fill-opacity:1" />
          <path
             id="path2043"
             d="M 8860,10324 L 8998,10266 L 9003,10279 L 8860,10324 z "
             style="fill:#ffffff;fill-opacity:1" />
          <path
             id="path2045"
             d="M 9003,10279 L 9031,10367 L 8888,10412 L 8745,10457 L 8717,10369 L 8860,10324 L 9003,10279 z "
             style="fill:#ffffff;fill-opacity:1" />
          <path
             id="path2047"
             d="M 8888,10412 L 9031,10367 L 9034,10380 L 8888,10412 z "
             style="fill:#ffffff;fill-opacity:1" />
          <path
             id="path2049"
             d="M 9034,10380 L 9055,10471 L 8908,10504 L 8762,10537 L 8741,10445 L 8888,10412 L 9034,10380 z "
             style="fill:#ffffff;fill-opacity:1" />
          <path
             id="path2051"
             d="M 8908,10504 L 9055,10471 L 9057,10484 L 8908,10504 z "
             style="fill:#ffffff;fill-opacity:1" />
          <path
             id="path2053"
             d="M 9057,10484 L 9069,10579 L 8921,10599 L 8772,10619 L 8759,10524 L 8908,10504 L 9057,10484 z "
             style="fill:#ffffff;fill-opacity:1" />
          <path
             id="path2055"
             d="M 8921,10599 L 9069,10579 L 9071,10593 L 8921,10599 z "
             style="fill:#ffffff;fill-opacity:1" />
          <path
             id="path2057"
             d="M 9071,10593 L 9075,10690 L 8925,10697 L 8775,10704 L 8771,10606 L 8921,10599 L 9071,10593 z "
             style="fill:#ffffff;fill-opacity:1" />
          <path
             id="path2059"
             d="M 8925,10697 L 9075,10690 L 9075,10704 L 8925,10697 z "
             style="fill:#ffffff;fill-opacity:1" />
          <path
             id="path2061"
             d="M 9075,10704 L 9071,10801 L 8921,10795 L 8771,10788 L 8775,10690 L 8925,10697 L 9075,10704 z "
             style="fill:#ffffff;fill-opacity:1" />
          <path
             id="path2063"
             d="M 8921,10795 L 9071,10801 L 9069,10815 L 8921,10795 z "
             style="fill:#ffffff;fill-opacity:1" />
          <path
             id="path2065"
             d="M 9069,10815 L 9057,10910 L 8908,10890 L 8759,10870 L 8772,10775 L 8921,10795 L 9069,10815 z "
             style="fill:#ffffff;fill-opacity:1" />
          <path
             id="path2067"
             d="M 8908,10890 L 9057,10910 L 9055,10923 L 8908,10890 z "
             style="fill:#ffffff;fill-opacity:1" />
          <path
             id="path2069"
             d="M 9055,10923 L 9034,11014 L 8888,10982 L 8741,10949 L 8762,10857 L 8908,10890 L 9055,10923 z "
             style="fill:#ffffff;fill-opacity:1" />
          <path
             id="path2071"
             d="M 8888,10982 L 9034,11014 L 9031,11027 L 8888,10982 z "
             style="fill:#ffffff;fill-opacity:1" />
          <path
             id="path2073"
             d="M 9031,11027 L 9003,11115 L 8860,11070 L 8717,11025 L 8745,10937 L 8888,10982 L 9031,11027 z "
             style="fill:#ffffff;fill-opacity:1" />
          <path
             id="path2075"
             d="M 8860,11070 L 9003,11115 L 8998,11128 L 8860,11070 z "
             style="fill:#ffffff;fill-opacity:1" />
          <path
             id="path2077"
             d="M 8998,11128 L 8963,11211 L 8825,11154 L 8687,11096 L 8721,11012 L 8860,11070 L 8998,11128 z "
             style="fill:#ffffff;fill-opacity:1" />
          <path
             id="path2079"
             d="M 8825,11154 L 8963,11211 L 8958,11223 L 8825,11154 z "
             style="fill:#ffffff;fill-opacity:1" />
          <path
             id="path2081"
             d="M 8958,11223 L 8916,11302 L 8784,11233 L 8651,11163 L 8692,11084 L 8825,11154 L 8958,11223 z "
             style="fill:#ffffff;fill-opacity:1" />
          <path
             id="path2083"
             d="M 8784,11233 L 8916,11302 L 8909,11314 L 8784,11233 z "
             style="fill:#ffffff;fill-opacity:1" />
          <path
             id="path2085"
             d="M 8909,11314 L 8862,11388 L 8736,11306 L 8610,11225 L 8658,11151 L 8784,11233 L 8909,11314 z "
             style="fill:#ffffff;fill-opacity:1" />
          <path
             id="path2087"
             d="M 8736,11306 L 8862,11388 L 8854,11399 L 8736,11306 z "
             style="fill:#ffffff;fill-opacity:1" />
          <path
             id="path2089"
             d="M 8854,11399 L 8800,11467 L 8682,11374 L 8564,11282 L 8618,11214 L 8736,11306 L 8854,11399 z "
             style="fill:#ffffff;fill-opacity:1" />
          <path
             id="path2091"
             d="M 8682,11374 L 8800,11467 L 8791,11478 L 8682,11374 z "
             style="fill:#ffffff;fill-opacity:1" />
          <path
             id="path2093"
             d="M 8791,11478 L 8732,11540 L 8624,11436 L 8515,11333 L 8574,11271 L 8682,11374 L 8791,11478 z "
             style="fill:#ffffff;fill-opacity:1" />
          <path
             id="path2095"
             d="M 8624,11436 L 8732,11540 L 8722,11550 L 8624,11436 z "
             style="fill:#ffffff;fill-opacity:1" />
          <path
             id="path2097"
             d="M 8722,11550 L 8658,11605 L 8560,11491 L 8462,11378 L 8525,11323 L 8624,11436 L 8722,11550 z "
             style="fill:#ffffff;fill-opacity:1" />
          <path
             id="path2099"
             d="M 8560,11491 L 8658,11605 L 8646,11614 L 8560,11491 z "
             style="fill:#ffffff;fill-opacity:1" />
          <path
             id="path2101"
             d="M 8646,11614 L 8578,11662 L 8492,11539 L 8405,11417 L 8474,11369 L 8560,11491 L 8646,11614 z "
             style="fill:#ffffff;fill-opacity:1" />
          <path
             id="path2103"
             d="M 8492,11539 L 8578,11662 L 8565,11670 L 8492,11539 z "
             style="fill:#ffffff;fill-opacity:1" />
          <path
             id="path2105"
             d="M 8565,11670 L 8492,11711 L 8419,11580 L 8346,11449 L 8419,11408 L 8492,11539 L 8565,11670 z "
             style="fill:#ffffff;fill-opacity:1" />
          <path
             id="path2107"
             d="M 8419,11580 L 8492,11711 L 8478,11718 L 8419,11580 z "
             style="fill:#ffffff;fill-opacity:1" />
          <path
             id="path2109"
             d="M 8478,11718 L 8402,11750 L 8343,11612 L 8285,11474 L 8361,11442 L 8419,11580 L 8478,11718 z "
             style="fill:#ffffff;fill-opacity:1" />
          <path
             id="path2111"
             d="M 8343,11612 L 8402,11750 L 8386,11756 L 8343,11612 z "
             style="fill:#ffffff;fill-opacity:1" />
          <path
             id="path2113"
             d="M 8386,11756 L 8307,11779 L 8264,11636 L 8221,11492 L 8300,11468 L 8343,11612 L 8386,11756 z "
             style="fill:#ffffff;fill-opacity:1" />
          <path
             id="path2115"
             d="M 8264,11636 L 8307,11779 L 8290,11783 L 8264,11636 z "
             style="fill:#ffffff;fill-opacity:1" />
          <path
             id="path2117"
             d="M 8290,11783 L 8208,11798 L 8182,11650 L 8156,11502 L 8238,11488 L 8264,11636 L 8290,11783 z "
             style="fill:#ffffff;fill-opacity:1" />
          <path
             id="path2119"
             d="M 8182,11650 L 8208,11798 L 8190,11800 L 8182,11650 z "
             style="fill:#ffffff;fill-opacity:1" />
          <path
             id="path2121"
             d="M 8190,11800 L 8106,11805 L 8097,11655 L 8088,11505 L 8173,11500 L 8182,11650 L 8190,11800 z "
             style="fill:#ffffff;fill-opacity:1" />
          <path
             id="path2123"
             d="M 8097,11655 L 8106,11805 L 8088,11805 L 8097,11655 z "
             style="fill:#ffffff;fill-opacity:1" />
        </g>
        <g
           id="g2125"
           style="fill:#ffffff;fill-opacity:1" />
      </g>
    </g>
    <g
       transform="matrix(1.0958323e-2,0,0,1.0958323e-2,-65.513188,-100.2157)"
       style="fill:#ffffff;fill-opacity:1;visibility:visible"
       id="g2127">
      <desc
         id="desc2129">Drawing</desc>
      <g
         id="g2131"
         style="fill:#ffffff;fill-opacity:1">
        <g
           id="g2133"
           style="fill:#ffffff;fill-opacity:1;stroke:none">
          <path
             id="path2135"
             d="M 8862,11891 L 8210,11238 L 8422,11026 L 9074,11679 L 8862,11891 z "
             style="fill:#ffffff;fill-opacity:1" />
        </g>
        <g
           id="g2137"
           style="fill:#ffffff;fill-opacity:1" />
      </g>
    </g>
    <g
       transform="matrix(1.0958323e-2,0,0,1.0958323e-2,-65.513188,-100.2157)"
       style="fill:#ffffff;fill-opacity:1;visibility:visible"
       id="g2139">
      <desc
         id="desc2141">Drawing</desc>
      <g
         id="g2143"
         style="fill:#ffffff;fill-opacity:1">
        <g
           id="g2145"
           style="fill:#ffffff;fill-opacity:1;stroke:none">
          <path
             id="path2147"
             d="M 6446,9682 L 6446,11872 L 6146,11872 L 6146,9682 L 6446,9682 z "
             style="fill:#ffffff;fill-opacity:1" />
        </g>
        <g
           id="g2149"
           style="fill:#ffffff;fill-opacity:1" />
      </g>
    </g>
    <g
       transform="matrix(1.0958323e-2,0,0,1.0958323e-2,-65.513188,-100.2157)"
       style="fill:#ffffff;fill-opacity:1;visibility:visible"
       id="g2151">
      <desc
         id="desc2153">Drawing</desc>
      <g
         id="g2155"
         style="fill:#ffffff;fill-opacity:1">
        <g
           id="g2157"
           style="fill:#ffffff;fill-opacity:1;stroke:none">
          <path
             id="path2159"
             d="M 6236,11580 L 6433,11557 L 6450,11706 L 6468,11855 L 6270,11878 L 6253,11729 L 6236,11580 z "
             style="fill:#ffffff;fill-opacity:1" />
          <path
             id="path2161"
             d="M 6450,11706 L 6485,11852 L 6468,11855 L 6450,11706 z "
             style="fill:#ffffff;fill-opacity:1" />
          <path
             id="path2163"
             d="M 6416,11560 L 6581,11521 L 6616,11667 L 6650,11813 L 6485,11852 L 6450,11706 L 6416,11560 z "
             style="fill:#ffffff;fill-opacity:1" />
          <path
             id="path2165"
             d="M 6616,11667 L 6671,11806 L 6650,11813 L 6616,11667 z "
             style="fill:#ffffff;fill-opacity:1" />
          <path
             id="path2167"
             d="M 6561,11527 L 6696,11474 L 6751,11614 L 6806,11753 L 6671,11806 L 6616,11667 L 6561,11527 z "
             style="fill:#ffffff;fill-opacity:1" />
          <path
             id="path2169"
             d="M 6751,11614 L 6824,11745 L 6806,11753 L 6751,11614 z "
             style="fill:#ffffff;fill-opacity:1" />
          <path
             id="path2171"
             d="M 6678,11482 L 6734,11451 L 6807,11582 L 6880,11713 L 6824,11745 L 6751,11614 L 6678,11482 z "
             style="fill:#ffffff;fill-opacity:1" />
          <path
             id="path2173"
             d="M 6807,11582 L 6892,11706 L 6880,11713 L 6807,11582 z "
             style="fill:#ffffff;fill-opacity:1" />
          <path
             id="path2175"
             d="M 6722,11459 L 6771,11425 L 6856,11548 L 6941,11672 L 6892,11706 L 6807,11582 L 6722,11459 z "
             style="fill:#ffffff;fill-opacity:1" />
          <path
             id="path2177"
             d="M 6856,11548 L 6954,11662 L 6941,11672 L 6856,11548 z "
             style="fill:#ffffff;fill-opacity:1" />
          <path
             id="path2179"
             d="M 6758,11435 L 6800,11398 L 6898,11512 L 6996,11626 L 6954,11662 L 6856,11548 L 6758,11435 z "
             style="fill:#ffffff;fill-opacity:1" />
          <path
             id="path2181"
             d="M 6898,11512 L 7009,11613 L 6996,11626 L 6898,11512 z "
             style="fill:#ffffff;fill-opacity:1" />
          <path
             id="path2183"
             d="M 6788,11411 L 6823,11372 L 6934,11474 L 7044,11575 L 7009,11613 L 6898,11512 L 6788,11411 z "
             style="fill:#ffffff;fill-opacity:1" />
          <path
             id="path2185"
             d="M 6934,11474 L 7056,11560 L 7044,11575 L 6934,11474 z "
             style="fill:#ffffff;fill-opacity:1" />
          <path
             id="path2187"
             d="M 6811,11387 L 6839,11347 L 6962,11434 L 7084,11520 L 7056,11560 L 6934,11474 L 6811,11387 z "
             style="fill:#ffffff;fill-opacity:1" />
          <path
             id="path2189"
             d="M 6962,11434 L 7095,11503 L 7084,11520 L 6962,11434 z "
             style="fill:#ffffff;fill-opacity:1" />
          <path
             id="path2191"
             d="M 6829,11364 L 6851,11322 L 6984,11392 L 7117,11461 L 7095,11503 L 6962,11434 L 6829,11364 z "
             style="fill:#ffffff;fill-opacity:1" />
          <path
             id="path2193"
             d="M 6984,11392 L 7125,11442 L 7117,11461 L 6984,11392 z "
             style="fill:#ffffff;fill-opacity:1" />
          <path
             id="path2195"
             d="M 6842,11341 L 6858,11299 L 6999,11349 L 7140,11399 L 7125,11442 L 6984,11392 L 6842,11341 z "
             style="fill:#ffffff;fill-opacity:1" />
          <path
             id="path2197"
             d="M 6999,11349 L 7146,11379 L 7140,11399 L 6999,11349 z "
             style="fill:#ffffff;fill-opacity:1" />
          <path
             id="path2199"
             d="M 6852,11319 L 6861,11275 L 7008,11305 L 7155,11335 L 7146,11379 L 6999,11349 L 6852,11319 z "
             style="fill:#ffffff;fill-opacity:1" />
          <path
             id="path2201"
             d="M 7008,11305 L 7158,11314 L 7155,11335 L 7008,11305 z "
             style="fill:#ffffff;fill-opacity:1" />
          <path
             id="path2203"
             d="M 6858,11296 L 6861,11251 L 7011,11261 L 7160,11270 L 7158,11314 L 7008,11305 L 6858,11296 z "
             style="fill:#ffffff;fill-opacity:1" />
          <path
             id="path2205"
             d="M 7011,11261 L 7160,11250 L 7160,11270 L 7011,11261 z "
             style="fill:#ffffff;fill-opacity:1" />
          <path
             id="path2207"
             d="M 6861,11272 L 6858,11227 L 7008,11216 L 7157,11205 L 7160,11250 L 7011,11261 L 6861,11272 z "
             style="fill:#ffffff;fill-opacity:1" />
          <path
             id="path2209"
             d="M 7008,11216 L 7154,11186 L 7157,11205 L 7008,11216 z "
             style="fill:#ffffff;fill-opacity:1" />
          <path
             id="path2211"
             d="M 6861,11246 L 6851,11201 L 6998,11171 L 7145,11141 L 7154,11186 L 7008,11216 L 6861,11246 z "
             style="fill:#ffffff;fill-opacity:1" />
          <path
             id="path2213"
             d="M 6998,11171 L 7141,11123 L 7145,11141 L 6998,11171 z "
             style="fill:#ffffff;fill-opacity:1" />
          <path
             id="path2215"
             d="M 6856,11219 L 6841,11174 L 6983,11126 L 7126,11079 L 7141,11123 L 6998,11171 L 6856,11219 z "
             style="fill:#ffffff;fill-opacity:1" />
          <path
             id="path2217"
             d="M 6983,11126 L 7119,11063 L 7126,11079 L 6983,11126 z "
             style="fill:#ffffff;fill-opacity:1" />
          <path
             id="path2219"
             d="M 6847,11190 L 6827,11145 L 6963,11082 L 7099,11019 L 7119,11063 L 6983,11126 L 6847,11190 z "
             style="fill:#ffffff;fill-opacity:1" />
          <path
             id="path2221"
             d="M 6963,11082 L 7092,11005 L 7099,11019 L 6963,11082 z "
             style="fill:#ffffff;fill-opacity:1" />
          <path
             id="path2223"
             d="M 6834,11159 L 6808,11116 L 6937,11039 L 7066,10962 L 7092,11005 L 6963,11082 L 6834,11159 z "
             style="fill:#ffffff;fill-opacity:1" />
          <path
             id="path2225"
             d="M 6937,11039 L 7058,10950 L 7066,10962 L 6937,11039 z "
             style="fill:#ffffff;fill-opacity:1" />
          <path
             id="path2227"
             d="M 6816,11128 L 6785,11086 L 6906,10997 L 7026,10907 L 7058,10950 L 6937,11039 L 6816,11128 z "
             style="fill:#ffffff;fill-opacity:1" />
          <path
             id="path2229"
             d="M 6906,10997 L 7018,10897 L 7026,10907 L 6906,10997 z "
             style="fill:#ffffff;fill-opacity:1" />
          <path
             id="path2231"
             d="M 6794,11097 L 6757,11056 L 6869,10956 L 6981,10856 L 7018,10897 L 6906,10997 L 6794,11097 z "
             style="fill:#ffffff;fill-opacity:1" />
          <path
             id="path2233"
             d="M 6869,10956 L 6972,10847 L 6981,10856 L 6869,10956 z "
             style="fill:#ffffff;fill-opacity:1" />
          <path
             id="path2235"
             d="M 6766,11065 L 6725,11026 L 6828,10917 L 6931,10808 L 6972,10847 L 6869,10956 L 6766,11065 z "
             style="fill:#ffffff;fill-opacity:1" />
          <path
             id="path2237"
             d="M 6828,10917 L 6922,10800 L 6931,10808 L 6828,10917 z "
             style="fill:#ffffff;fill-opacity:1" />
          <path
             id="path2239"
             d="M 6734,11034 L 6688,10996 L 6781,10879 L 6875,10763 L 6922,10800 L 6828,10917 L 6734,11034 z "
             style="fill:#ffffff;fill-opacity:1" />
          <path
             id="path2241"
             d="M 6781,10879 L 6862,10753 L 6875,10763 L 6781,10879 z "
             style="fill:#ffffff;fill-opacity:1" />
          <path
             id="path2243"
             d="M 6701,11006 L 6595,10939 L 6675,10812 L 6755,10685 L 6862,10753 L 6781,10879 L 6701,11006 z "
             style="fill:#ffffff;fill-opacity:1" />
          <path
             id="path2245"
             d="M 6675,10812 L 6736,10675 L 6755,10685 L 6675,10812 z "
             style="fill:#ffffff;fill-opacity:1" />
          <path
             id="path2247"
             d="M 6613,10949 L 6489,10893 L 6550,10756 L 6612,10619 L 6736,10675 L 6675,10812 L 6613,10949 z "
             style="fill:#ffffff;fill-opacity:1" />
          <path
             id="path2249"
             d="M 6550,10756 L 6594,10612 L 6612,10619 L 6550,10756 z "
             style="fill:#ffffff;fill-opacity:1" />
          <path
             id="path2251"
             d="M 6507,10900 L 6366,10857 L 6409,10714 L 6453,10570 L 6594,10612 L 6550,10756 L 6507,10900 z "
             style="fill:#ffffff;fill-opacity:1" />
          <path
             id="path2253"
             d="M 6409,10714 L 6434,10566 L 6453,10570 L 6409,10714 z "
             style="fill:#ffffff;fill-opacity:1" />
          <path
             id="path2255"
             d="M 6384,10861 L 6228,10835 L 6253,10687 L 6278,10539 L 6434,10566 L 6409,10714 L 6384,10861 z "
             style="fill:#ffffff;fill-opacity:1" />
        </g>
        <g
           id="g2257"
           style="fill:#ffffff;fill-opacity:1" />
      </g>
    </g>
  </g>
</svg>
