<?xml version="1.0" encoding="UTF-8" standalone="no"?>
<!-- Created with Inkscape (http://www.inkscape.org/) -->
<svg
   xmlns:dc="http://purl.org/dc/elements/1.1/"
   xmlns:cc="http://web.resource.org/cc/"
   xmlns:rdf="http://www.w3.org/1999/02/22-rdf-syntax-ns#"
   xmlns:svg="http://www.w3.org/2000/svg"
   xmlns="http://www.w3.org/2000/svg"
   xmlns:sodipodi="http://sodipodi.sourceforge.net/DTD/sodipodi-0.dtd"
   xmlns:inkscape="http://www.inkscape.org/namespaces/inkscape"
   width="1cm"
   height="1cm"
   id="svg9908"
   sodipodi:version="0.32"
   inkscape:version="0.45"
   version="1.0"
   sodipodi:docbase="/data/world/proj/Kproj/symsolon/share/symsolon/aspects"
   sodipodi:docname="aspect-biseptil.svg"
   inkscape:output_extension="org.inkscape.output.svg.inkscape"
   sodipodi:modified="true">
  <defs
     id="defs9910" />
  <sodipodi:namedview
     id="base"
     pagecolor="#000000"
     bordercolor="#666666"
     borderopacity="1.0"
     inkscape:pageopacity="1"
     inkscape:pageshadow="2"
     inkscape:zoom="7.0170015"
     inkscape:cx="0.79131245"
     inkscape:cy="17.556514"
     inkscape:document-units="px"
     inkscape:current-layer="layer1"
     inkscape:window-width="966"
     inkscape:window-height="626"
     inkscape:window-x="10"
     inkscape:window-y="73" />
  <metadata
     id="metadata9913">
    <rdf:RDF>
      <cc:Work
         rdf:about="">
        <dc:format>image/svg+xml</dc:format>
        <dc:type
           rdf:resource="http://purl.org/dc/dcmitype/StillImage" />
      </cc:Work>
    </rdf:RDF>
  </metadata>
  <g
     inkscape:label="1. réteg"
     inkscape:groupmode="layer"
     id="layer1">
    <g
       transform="matrix(1.2065111e-2,0,0,1.2065111e-2,-127.38108,-159.87371)"
       style="fill:#ffffff;fill-opacity:1;visibility:visible"
       id="g3307">
      <desc
         id="desc3309">Drawing</desc>
      <g
         id="g3311"
         style="fill:#ffffff;fill-opacity:1">
        <g
           id="g3313"
           style="fill:#ffffff;fill-opacity:1;stroke:none">
          <path
             id="path3315"
             d="M 11563,14111 L 11563,15824 L 11263,15824 L 11263,14111 L 11563,14111 z "
             style="fill:#ffffff;fill-opacity:1" />
        </g>
        <g
           id="g3317"
           style="fill:#ffffff;fill-opacity:1" />
      </g>
    </g>
    <g
       transform="matrix(1.2065111e-2,0,0,1.2065111e-2,-127.38108,-159.87371)"
       style="fill:#ffffff;fill-opacity:1;visibility:visible"
       id="g3319">
      <desc
         id="desc3321">Drawing</desc>
      <g
         id="g3323"
         style="fill:#ffffff;fill-opacity:1">
        <g
           id="g3325"
           style="fill:#ffffff;fill-opacity:1;stroke:none">
          <path
             id="path3327"
             d="M 10695,14005 L 12131,14005 L 12131,14305 L 10695,14305 L 10695,14005 z "
             style="fill:#ffffff;fill-opacity:1" />
        </g>
        <g
           id="g3329"
           style="fill:#ffffff;fill-opacity:1" />
      </g>
    </g>
    <g
       transform="matrix(1.2065111e-2,0,0,1.2065111e-2,-127.38108,-159.87371)"
       style="fill:#ffffff;fill-opacity:1;visibility:visible"
       id="g3331">
      <desc
         id="desc3333">Drawing</desc>
      <g
         id="g3335"
         style="fill:#ffffff;fill-opacity:1">
        <g
           id="g3337"
           style="fill:#ffffff;fill-opacity:1;stroke:none">
          <path
             id="path3339"
             d="M 13112,14299 L 13086,14192 L 13231,14156 L 13377,14120 L 13404,14227 L 13258,14263 L 13112,14299 z "
             style="fill:#ffffff;fill-opacity:1" />
          <path
             id="path3341"
             d="M 13231,14156 L 13372,14103 L 13377,14120 L 13231,14156 z "
             style="fill:#ffffff;fill-opacity:1" />
          <path
             id="path3343"
             d="M 13091,14209 L 13073,14160 L 13213,14107 L 13353,14054 L 13372,14103 L 13231,14156 L 13091,14209 z "
             style="fill:#ffffff;fill-opacity:1" />
          <path
             id="path3345"
             d="M 13213,14107 L 13349,14043 L 13353,14054 L 13213,14107 z "
             style="fill:#ffffff;fill-opacity:1" />
          <path
             id="path3347"
             d="M 13077,14171 L 13056,14126 L 13192,14061 L 13327,13997 L 13349,14043 L 13213,14107 L 13077,14171 z "
             style="fill:#ffffff;fill-opacity:1" />
          <path
             id="path3349"
             d="M 13192,14061 L 13321,13986 L 13327,13997 L 13192,14061 z "
             style="fill:#ffffff;fill-opacity:1" />
          <path
             id="path3351"
             d="M 13062,14136 L 13037,14094 L 13167,14019 L 13297,13944 L 13321,13986 L 13192,14061 L 13062,14136 z "
             style="fill:#ffffff;fill-opacity:1" />
          <path
             id="path3353"
             d="M 13167,14019 L 13290,13934 L 13297,13944 L 13167,14019 z "
             style="fill:#ffffff;fill-opacity:1" />
          <path
             id="path3355"
             d="M 13044,14105 L 13017,14066 L 13140,13981 L 13264,13895 L 13290,13934 L 13167,14019 L 13044,14105 z "
             style="fill:#ffffff;fill-opacity:1" />
          <path
             id="path3357"
             d="M 13140,13981 L 13256,13885 L 13264,13895 L 13140,13981 z "
             style="fill:#ffffff;fill-opacity:1" />
          <path
             id="path3359"
             d="M 13025,14076 L 12996,14041 L 13111,13945 L 13227,13850 L 13256,13885 L 13140,13981 L 13025,14076 z "
             style="fill:#ffffff;fill-opacity:1" />
          <path
             id="path3361"
             d="M 13111,13945 L 13218,13840 L 13227,13850 L 13111,13945 z "
             style="fill:#ffffff;fill-opacity:1" />
          <path
             id="path3363"
             d="M 13004,14050 L 12973,14018 L 13080,13913 L 13187,13809 L 13218,13840 L 13111,13945 L 13004,14050 z "
             style="fill:#ffffff;fill-opacity:1" />
          <path
             id="path3365"
             d="M 13080,13913 L 13178,13800 L 13187,13809 L 13080,13913 z "
             style="fill:#ffffff;fill-opacity:1" />
          <path
             id="path3367"
             d="M 12982,14027 L 12949,13999 L 13047,13885 L 13145,13771 L 13178,13800 L 13080,13913 L 12982,14027 z "
             style="fill:#ffffff;fill-opacity:1" />
          <path
             id="path3369"
             d="M 13047,13885 L 13135,13763 L 13145,13771 L 13047,13885 z "
             style="fill:#ffffff;fill-opacity:1" />
          <path
             id="path3371"
             d="M 12959,14007 L 12924,13981 L 13012,13860 L 13100,13738 L 13135,13763 L 13047,13885 L 12959,14007 z "
             style="fill:#ffffff;fill-opacity:1" />
          <path
             id="path3373"
             d="M 13012,13860 L 13089,13731 L 13100,13738 L 13012,13860 z "
             style="fill:#ffffff;fill-opacity:1" />
          <path
             id="path3375"
             d="M 12935,13988 L 12899,13967 L 12976,13838 L 13053,13710 L 13089,13731 L 13012,13860 L 12935,13988 z "
             style="fill:#ffffff;fill-opacity:1" />
          <path
             id="path3377"
             d="M 12976,13838 L 13042,13704 L 13053,13710 L 12976,13838 z "
             style="fill:#ffffff;fill-opacity:1" />
          <path
             id="path3379"
             d="M 12910,13973 L 12873,13955 L 12939,13820 L 13005,13685 L 13042,13704 L 12976,13838 L 12910,13973 z "
             style="fill:#ffffff;fill-opacity:1" />
          <path
             id="path3381"
             d="M 12939,13820 L 12993,13680 L 13005,13685 L 12939,13820 z "
             style="fill:#ffffff;fill-opacity:1" />
          <path
             id="path3383"
             d="M 12885,13960 L 12847,13945 L 12901,13806 L 12955,13666 L 12993,13680 L 12939,13820 L 12885,13960 z "
             style="fill:#ffffff;fill-opacity:1" />
          <path
             id="path3385"
             d="M 12901,13806 L 12943,13661 L 12955,13666 L 12901,13806 z "
             style="fill:#ffffff;fill-opacity:1" />
          <path
             id="path3387"
             d="M 12860,13950 L 12821,13938 L 12863,13794 L 12905,13650 L 12943,13661 L 12901,13806 L 12860,13950 z "
             style="fill:#ffffff;fill-opacity:1" />
          <path
             id="path3389"
             d="M 12863,13794 L 12892,13647 L 12905,13650 L 12863,13794 z "
             style="fill:#ffffff;fill-opacity:1" />
          <path
             id="path3391"
             d="M 12834,13942 L 12795,13934 L 12824,13787 L 12853,13640 L 12892,13647 L 12863,13794 L 12834,13942 z "
             style="fill:#ffffff;fill-opacity:1" />
          <path
             id="path3393"
             d="M 12824,13787 L 12840,13638 L 12853,13640 L 12824,13787 z "
             style="fill:#ffffff;fill-opacity:1" />
          <path
             id="path3395"
             d="M 12808,13936 L 12770,13932 L 12785,13783 L 12801,13633 L 12840,13638 L 12824,13787 L 12808,13936 z "
             style="fill:#ffffff;fill-opacity:1" />
          <path
             id="path3397"
             d="M 12785,13783 L 12787,13633 L 12801,13633 L 12785,13783 z "
             style="fill:#ffffff;fill-opacity:1" />
          <path
             id="path3399"
             d="M 12783,13933 L 12744,13932 L 12747,13782 L 12749,13632 L 12787,13633 L 12785,13783 L 12783,13933 z "
             style="fill:#ffffff;fill-opacity:1" />
          <path
             id="path3401"
             d="M 12747,13782 L 12735,13633 L 12749,13632 L 12747,13782 z "
             style="fill:#ffffff;fill-opacity:1" />
          <path
             id="path3403"
             d="M 12758,13932 L 12720,13935 L 12708,13785 L 12696,13636 L 12735,13633 L 12747,13782 L 12758,13932 z "
             style="fill:#ffffff;fill-opacity:1" />
          <path
             id="path3405"
             d="M 12708,13785 L 12682,13637 L 12696,13636 L 12708,13785 z "
             style="fill:#ffffff;fill-opacity:1" />
          <path
             id="path3407"
             d="M 12734,13933 L 12697,13939 L 12671,13792 L 12645,13644 L 12682,13637 L 12708,13785 L 12734,13933 z "
             style="fill:#ffffff;fill-opacity:1" />
          <path
             id="path3409"
             d="M 12671,13792 L 12630,13647 L 12645,13644 L 12671,13792 z "
             style="fill:#ffffff;fill-opacity:1" />
          <path
             id="path3411"
             d="M 12711,13936 L 12674,13946 L 12634,13802 L 12594,13657 L 12630,13647 L 12671,13792 L 12711,13936 z "
             style="fill:#ffffff;fill-opacity:1" />
          <path
             id="path3413"
             d="M 12634,13802 L 12580,13662 L 12594,13657 L 12634,13802 z "
             style="fill:#ffffff;fill-opacity:1" />
          <path
             id="path3415"
             d="M 12688,13942 L 12653,13956 L 12598,13816 L 12544,13676 L 12580,13662 L 12634,13802 L 12688,13942 z "
             style="fill:#ffffff;fill-opacity:1" />
          <path
             id="path3417"
             d="M 12598,13816 L 12530,13682 L 12544,13676 L 12598,13816 z "
             style="fill:#ffffff;fill-opacity:1" />
          <path
             id="path3419"
             d="M 12667,13949 L 12633,13967 L 12564,13833 L 12496,13700 L 12530,13682 L 12598,13816 L 12667,13949 z "
             style="fill:#ffffff;fill-opacity:1" />
          <path
             id="path3421"
             d="M 12564,13833 L 12482,13708 L 12496,13700 L 12564,13833 z "
             style="fill:#ffffff;fill-opacity:1" />
          <path
             id="path3423"
             d="M 12646,13959 L 12614,13980 L 12532,13854 L 12450,13729 L 12482,13708 L 12564,13833 L 12646,13959 z "
             style="fill:#ffffff;fill-opacity:1" />
          <path
             id="path3425"
             d="M 12532,13854 L 12437,13738 L 12450,13729 L 12532,13854 z "
             style="fill:#ffffff;fill-opacity:1" />
          <path
             id="path3427"
             d="M 12627,13971 L 12596,13996 L 12501,13879 L 12407,13763 L 12437,13738 L 12532,13854 L 12627,13971 z "
             style="fill:#ffffff;fill-opacity:1" />
          <path
             id="path3429"
             d="M 12501,13879 L 12395,13773 L 12407,13763 L 12501,13879 z "
             style="fill:#ffffff;fill-opacity:1" />
          <path
             id="path3431"
             d="M 12608,13985 L 12579,14014 L 12473,13908 L 12367,13802 L 12395,13773 L 12501,13879 L 12608,13985 z "
             style="fill:#ffffff;fill-opacity:1" />
          <path
             id="path3433"
             d="M 12473,13908 L 12356,13814 L 12367,13802 L 12473,13908 z "
             style="fill:#ffffff;fill-opacity:1" />
          <path
             id="path3435"
             d="M 12590,14002 L 12564,14034 L 12447,13940 L 12330,13846 L 12356,13814 L 12473,13908 L 12590,14002 z "
             style="fill:#ffffff;fill-opacity:1" />
          <path
             id="path3437"
             d="M 12447,13940 L 12321,13858 L 12330,13846 L 12447,13940 z "
             style="fill:#ffffff;fill-opacity:1" />
          <path
             id="path3439"
             d="M 12573,14022 L 12550,14057 L 12424,13976 L 12298,13894 L 12321,13858 L 12447,13940 L 12573,14022 z "
             style="fill:#ffffff;fill-opacity:1" />
          <path
             id="path3441"
             d="M 12424,13976 L 12290,13907 L 12298,13894 L 12424,13976 z "
             style="fill:#ffffff;fill-opacity:1" />
          <path
             id="path3443"
             d="M 12557,14044 L 12537,14084 L 12403,14016 L 12270,13947 L 12290,13907 L 12424,13976 L 12557,14044 z "
             style="fill:#ffffff;fill-opacity:1" />
          <path
             id="path3445"
             d="M 12403,14016 L 12264,13960 L 12270,13947 L 12403,14016 z "
             style="fill:#ffffff;fill-opacity:1" />
          <path
             id="path3447"
             d="M 12543,14071 L 12526,14114 L 12386,14059 L 12247,14004 L 12264,13960 L 12403,14016 L 12543,14071 z "
             style="fill:#ffffff;fill-opacity:1" />
          <path
             id="path3449"
             d="M 12386,14059 L 12242,14017 L 12247,14004 L 12386,14059 z "
             style="fill:#ffffff;fill-opacity:1" />
          <path
             id="path3451"
             d="M 12530,14101 L 12516,14148 L 12372,14106 L 12228,14064 L 12242,14017 L 12386,14059 L 12530,14101 z "
             style="fill:#ffffff;fill-opacity:1" />
          <path
             id="path3453"
             d="M 12372,14106 L 12225,14077 L 12228,14064 L 12372,14106 z "
             style="fill:#ffffff;fill-opacity:1" />
          <path
             id="path3455"
             d="M 12520,14135 L 12509,14186 L 12362,14157 L 12215,14128 L 12225,14077 L 12372,14106 L 12520,14135 z "
             style="fill:#ffffff;fill-opacity:1" />
          <path
             id="path3457"
             d="M 12362,14157 L 12213,14140 L 12215,14128 L 12362,14157 z "
             style="fill:#ffffff;fill-opacity:1" />
          <path
             id="path3459"
             d="M 12511,14174 L 12505,14229 L 12356,14212 L 12207,14195 L 12213,14140 L 12362,14157 L 12511,14174 z "
             style="fill:#ffffff;fill-opacity:1" />
          <path
             id="path3461"
             d="M 12356,14212 L 12206,14208 L 12207,14195 L 12356,14212 z "
             style="fill:#ffffff;fill-opacity:1" />
          <path
             id="path3463"
             d="M 12506,14216 L 12504,14271 L 12354,14266 L 12205,14262 L 12206,14208 L 12356,14212 L 12506,14216 z "
             style="fill:#ffffff;fill-opacity:1" />
          <path
             id="path3465"
             d="M 12354,14266 L 12205,14278 L 12205,14262 L 12354,14266 z "
             style="fill:#ffffff;fill-opacity:1" />
          <path
             id="path3467"
             d="M 12504,14255 L 12508,14305 L 12358,14317 L 12209,14328 L 12205,14278 L 12354,14266 L 12504,14255 z "
             style="fill:#ffffff;fill-opacity:1" />
          <path
             id="path3469"
             d="M 12358,14317 L 12211,14345 L 12209,14328 L 12358,14317 z "
             style="fill:#ffffff;fill-opacity:1" />
          <path
             id="path3471"
             d="M 12506,14288 L 12515,14334 L 12367,14363 L 12220,14392 L 12211,14345 L 12358,14317 L 12506,14288 z "
             style="fill:#ffffff;fill-opacity:1" />
          <path
             id="path3473"
             d="M 12367,14363 L 12225,14409 L 12220,14392 L 12367,14363 z "
             style="fill:#ffffff;fill-opacity:1" />
          <path
             id="path3475"
             d="M 12510,14316 L 12524,14359 L 12381,14405 L 12239,14452 L 12225,14409 L 12367,14363 L 12510,14316 z "
             style="fill:#ffffff;fill-opacity:1" />
          <path
             id="path3477"
             d="M 12381,14405 L 12245,14469 L 12239,14452 L 12381,14405 z "
             style="fill:#ffffff;fill-opacity:1" />
          <path
             id="path3479"
             d="M 12517,14342 L 12535,14381 L 12400,14444 L 12264,14508 L 12245,14469 L 12381,14405 L 12517,14342 z "
             style="fill:#ffffff;fill-opacity:1" />
          <path
             id="path3481"
             d="M 12400,14444 L 12272,14523 L 12264,14508 L 12400,14444 z "
             style="fill:#ffffff;fill-opacity:1" />
          <path
             id="path3483"
             d="M 12527,14365 L 12549,14401 L 12422,14480 L 12294,14559 L 12272,14523 L 12400,14444 L 12527,14365 z "
             style="fill:#ffffff;fill-opacity:1" />
          <path
             id="path3485"
             d="M 12422,14480 L 12304,14573 L 12294,14559 L 12422,14480 z "
             style="fill:#ffffff;fill-opacity:1" />
          <path
             id="path3487"
             d="M 12540,14387 L 12566,14420 L 12448,14513 L 12330,14606 L 12304,14573 L 12422,14480 L 12540,14387 z "
             style="fill:#ffffff;fill-opacity:1" />
          <path
             id="path3489"
             d="M 12448,14513 L 12340,14617 L 12330,14606 L 12448,14513 z "
             style="fill:#ffffff;fill-opacity:1" />
          <path
             id="path3491"
             d="M 12556,14409 L 12585,14440 L 12477,14544 L 12369,14648 L 12340,14617 L 12448,14513 L 12556,14409 z "
             style="fill:#ffffff;fill-opacity:1" />
          <path
             id="path3493"
             d="M 12477,14544 L 12383,14660 L 12369,14648 L 12477,14544 z "
             style="fill:#ffffff;fill-opacity:1" />
          <path
             id="path3495"
             d="M 12571,14427 L 12639,14481 L 12544,14598 L 12450,14715 L 12383,14660 L 12477,14544 L 12571,14427 z "
             style="fill:#ffffff;fill-opacity:1" />
          <path
             id="path3497"
             d="M 12544,14598 L 12466,14725 L 12450,14715 L 12544,14598 z "
             style="fill:#ffffff;fill-opacity:1" />
          <path
             id="path3499"
             d="M 12623,14470 L 12700,14518 L 12621,14645 L 12542,14773 L 12466,14725 L 12544,14598 L 12623,14470 z "
             style="fill:#ffffff;fill-opacity:1" />
          <path
             id="path3501"
             d="M 12621,14645 L 12555,14780 L 12542,14773 L 12621,14645 z "
             style="fill:#ffffff;fill-opacity:1" />
          <path
             id="path3503"
             d="M 12687,14510 L 12855,14593 L 12790,14728 L 12724,14862 L 12555,14780 L 12621,14645 L 12687,14510 z "
             style="fill:#ffffff;fill-opacity:1" />
          <path
             id="path3505"
             d="M 12790,14728 L 12725,14863 L 12724,14862 L 12790,14728 z "
             style="fill:#ffffff;fill-opacity:1" />
          <path
             id="path3507"
             d="M 12854,14592 L 13025,14673 L 12960,14809 L 12896,14944 L 12725,14863 L 12790,14728 L 12854,14592 z "
             style="fill:#ffffff;fill-opacity:1" />
          <path
             id="path3509"
             d="M 12960,14809 L 13025,14673 L 13035,14679 L 12960,14809 z "
             style="fill:#ffffff;fill-opacity:1" />
          <path
             id="path3511"
             d="M 13035,14679 L 13115,14724 L 13040,14854 L 12965,14984 L 12886,14939 L 12960,14809 L 13035,14679 z "
             style="fill:#ffffff;fill-opacity:1" />
          <path
             id="path3513"
             d="M 13040,14854 L 13115,14724 L 13128,14733 L 13040,14854 z "
             style="fill:#ffffff;fill-opacity:1" />
          <path
             id="path3515"
             d="M 13128,14733 L 13199,14785 L 13111,14906 L 13022,15027 L 12951,14975 L 13040,14854 L 13128,14733 z "
             style="fill:#ffffff;fill-opacity:1" />
          <path
             id="path3517"
             d="M 13111,14906 L 13199,14785 L 13212,14796 L 13111,14906 z "
             style="fill:#ffffff;fill-opacity:1" />
          <path
             id="path3519"
             d="M 13212,14796 L 13244,14825 L 13143,14935 L 13041,15046 L 13010,15017 L 13111,14906 L 13212,14796 z "
             style="fill:#ffffff;fill-opacity:1" />
          <path
             id="path3521"
             d="M 13143,14935 L 13244,14825 L 13254,14834 L 13143,14935 z "
             style="fill:#ffffff;fill-opacity:1" />
          <path
             id="path3523"
             d="M 13254,14834 L 13282,14866 L 13171,14967 L 13060,15068 L 13032,15036 L 13143,14935 L 13254,14834 z "
             style="fill:#ffffff;fill-opacity:1" />
          <path
             id="path3525"
             d="M 13171,14967 L 13282,14866 L 13292,14878 L 13171,14967 z "
             style="fill:#ffffff;fill-opacity:1" />
          <path
             id="path3527"
             d="M 13292,14878 L 13317,14912 L 13197,15001 L 13076,15090 L 13051,15056 L 13171,14967 L 13292,14878 z "
             style="fill:#ffffff;fill-opacity:1" />
          <path
             id="path3529"
             d="M 13197,15001 L 13317,14912 L 13326,14926 L 13197,15001 z "
             style="fill:#ffffff;fill-opacity:1" />
          <path
             id="path3531"
             d="M 13326,14926 L 13348,14963 L 13218,15038 L 13088,15113 L 13067,15076 L 13197,15001 L 13326,14926 z "
             style="fill:#ffffff;fill-opacity:1" />
          <path
             id="path3533"
             d="M 13218,15038 L 13348,14963 L 13356,14979 L 13218,15038 z "
             style="fill:#ffffff;fill-opacity:1" />
          <path
             id="path3535"
             d="M 13356,14979 L 13373,15019 L 13235,15078 L 13097,15138 L 13080,15097 L 13218,15038 L 13356,14979 z "
             style="fill:#ffffff;fill-opacity:1" />
          <path
             id="path3537"
             d="M 13235,15078 L 13373,15019 L 13379,15036 L 13235,15078 z "
             style="fill:#ffffff;fill-opacity:1" />
          <path
             id="path3539"
             d="M 13379,15036 L 13392,15080 L 13248,15122 L 13104,15164 L 13091,15121 L 13235,15078 L 13379,15036 z "
             style="fill:#ffffff;fill-opacity:1" />
          <path
             id="path3541"
             d="M 13248,15122 L 13392,15080 L 13396,15098 L 13248,15122 z "
             style="fill:#ffffff;fill-opacity:1" />
          <path
             id="path3543"
             d="M 13396,15098 L 13404,15145 L 13256,15170 L 13108,15195 L 13100,15147 L 13248,15122 L 13396,15098 z "
             style="fill:#ffffff;fill-opacity:1" />
          <path
             id="path3545"
             d="M 13256,15170 L 13404,15145 L 13406,15162 L 13256,15170 z "
             style="fill:#ffffff;fill-opacity:1" />
          <path
             id="path3547"
             d="M 13406,15162 L 13409,15214 L 13259,15222 L 13109,15230 L 13106,15178 L 13256,15170 L 13406,15162 z "
             style="fill:#ffffff;fill-opacity:1" />
          <path
             id="path3549"
             d="M 13259,15222 L 13409,15214 L 13409,15228 L 13259,15222 z "
             style="fill:#ffffff;fill-opacity:1" />
          <path
             id="path3551"
             d="M 13409,15228 L 13407,15281 L 13257,15275 L 13107,15268 L 13109,15216 L 13259,15222 L 13409,15228 z "
             style="fill:#ffffff;fill-opacity:1" />
          <path
             id="path3553"
             d="M 13257,15275 L 13407,15281 L 13406,15294 L 13257,15275 z "
             style="fill:#ffffff;fill-opacity:1" />
          <path
             id="path3555"
             d="M 13406,15294 L 13399,15344 L 13250,15325 L 13101,15305 L 13108,15255 L 13257,15275 L 13406,15294 z "
             style="fill:#ffffff;fill-opacity:1" />
          <path
             id="path3557"
             d="M 13250,15325 L 13399,15344 L 13397,15358 L 13250,15325 z "
             style="fill:#ffffff;fill-opacity:1" />
          <path
             id="path3559"
             d="M 13397,15358 L 13386,15405 L 13239,15372 L 13093,15339 L 13104,15292 L 13250,15325 L 13397,15358 z "
             style="fill:#ffffff;fill-opacity:1" />
          <path
             id="path3561"
             d="M 13239,15372 L 13386,15405 L 13382,15419 L 13239,15372 z "
             style="fill:#ffffff;fill-opacity:1" />
          <path
             id="path3563"
             d="M 13382,15419 L 13367,15464 L 13225,15417 L 13082,15371 L 13097,15326 L 13239,15372 L 13382,15419 z "
             style="fill:#ffffff;fill-opacity:1" />
          <path
             id="path3565"
             d="M 13225,15417 L 13367,15464 L 13363,15477 L 13225,15417 z "
             style="fill:#ffffff;fill-opacity:1" />
          <path
             id="path3567"
             d="M 13363,15477 L 13344,15519 L 13207,15460 L 13069,15400 L 13087,15358 L 13225,15417 L 13363,15477 z "
             style="fill:#ffffff;fill-opacity:1" />
          <path
             id="path3569"
             d="M 13207,15460 L 13344,15519 L 13338,15531 L 13207,15460 z "
             style="fill:#ffffff;fill-opacity:1" />
          <path
             id="path3571"
             d="M 13338,15531 L 13317,15571 L 13185,15499 L 13053,15427 L 13075,15388 L 13207,15460 L 13338,15531 z "
             style="fill:#ffffff;fill-opacity:1" />
          <path
             id="path3573"
             d="M 13185,15499 L 13317,15571 L 13310,15583 L 13185,15499 z "
             style="fill:#ffffff;fill-opacity:1" />
          <path
             id="path3575"
             d="M 13310,15583 L 13285,15619 L 13161,15536 L 13036,15452 L 13060,15416 L 13185,15499 L 13310,15583 z "
             style="fill:#ffffff;fill-opacity:1" />
          <path
             id="path3577"
             d="M 13161,15536 L 13285,15619 L 13277,15630 L 13161,15536 z "
             style="fill:#ffffff;fill-opacity:1" />
          <path
             id="path3579"
             d="M 13277,15630 L 13250,15664 L 13133,15570 L 13017,15475 L 13044,15442 L 13161,15536 L 13277,15630 z "
             style="fill:#ffffff;fill-opacity:1" />
          <path
             id="path3581"
             d="M 13133,15570 L 13250,15664 L 13241,15674 L 13133,15570 z "
             style="fill:#ffffff;fill-opacity:1" />
          <path
             id="path3583"
             d="M 13241,15674 L 13211,15705 L 13103,15600 L 12996,15496 L 13025,15465 L 13133,15570 L 13241,15674 z "
             style="fill:#ffffff;fill-opacity:1" />
          <path
             id="path3585"
             d="M 13103,15600 L 13211,15705 L 13202,15714 L 13103,15600 z "
             style="fill:#ffffff;fill-opacity:1" />
          <path
             id="path3587"
             d="M 13202,15714 L 13170,15742 L 13071,15628 L 12973,15515 L 13005,15487 L 13103,15600 L 13202,15714 z "
             style="fill:#ffffff;fill-opacity:1" />
          <path
             id="path3589"
             d="M 13071,15628 L 13170,15742 L 13160,15750 L 13071,15628 z "
             style="fill:#ffffff;fill-opacity:1" />
          <path
             id="path3591"
             d="M 13160,15750 L 13126,15774 L 13037,15653 L 12949,15532 L 12983,15507 L 13071,15628 L 13160,15750 z "
             style="fill:#ffffff;fill-opacity:1" />
          <path
             id="path3593"
             d="M 13037,15653 L 13126,15774 L 13115,15781 L 13037,15653 z "
             style="fill:#ffffff;fill-opacity:1" />
          <path
             id="path3595"
             d="M 13115,15781 L 13079,15803 L 13002,15675 L 12924,15546 L 12960,15525 L 13037,15653 L 13115,15781 z "
             style="fill:#ffffff;fill-opacity:1" />
          <path
             id="path3597"
             d="M 13002,15675 L 13079,15803 L 13068,15809 L 13002,15675 z "
             style="fill:#ffffff;fill-opacity:1" />
          <path
             id="path3599"
             d="M 13068,15809 L 13031,15827 L 12964,15693 L 12898,15559 L 12935,15540 L 13002,15675 L 13068,15809 z "
             style="fill:#ffffff;fill-opacity:1" />
          <path
             id="path3601"
             d="M 12964,15693 L 13031,15827 L 13020,15833 L 12964,15693 z "
             style="fill:#ffffff;fill-opacity:1" />
          <path
             id="path3603"
             d="M 13020,15833 L 12981,15848 L 12926,15708 L 12871,15569 L 12909,15554 L 12964,15693 L 13020,15833 z "
             style="fill:#ffffff;fill-opacity:1" />
          <path
             id="path3605"
             d="M 12926,15708 L 12981,15848 L 12970,15852 L 12926,15708 z "
             style="fill:#ffffff;fill-opacity:1" />
          <path
             id="path3607"
             d="M 12970,15852 L 12930,15864 L 12887,15720 L 12844,15576 L 12883,15565 L 12926,15708 L 12970,15852 z "
             style="fill:#ffffff;fill-opacity:1" />
          <path
             id="path3609"
             d="M 12887,15720 L 12930,15864 L 12918,15867 L 12887,15720 z "
             style="fill:#ffffff;fill-opacity:1" />
          <path
             id="path3611"
             d="M 12918,15867 L 12878,15875 L 12847,15728 L 12816,15582 L 12856,15573 L 12887,15720 L 12918,15867 z "
             style="fill:#ffffff;fill-opacity:1" />
          <path
             id="path3613"
             d="M 12847,15728 L 12878,15875 L 12866,15877 L 12847,15728 z "
             style="fill:#ffffff;fill-opacity:1" />
          <path
             id="path3615"
             d="M 12866,15877 L 12826,15882 L 12807,15733 L 12789,15584 L 12829,15580 L 12847,15728 L 12866,15877 z "
             style="fill:#ffffff;fill-opacity:1" />
          <path
             id="path3617"
             d="M 12807,15733 L 12826,15882 L 12813,15883 L 12807,15733 z "
             style="fill:#ffffff;fill-opacity:1" />
          <path
             id="path3619"
             d="M 12813,15883 L 12773,15885 L 12767,15735 L 12762,15585 L 12802,15583 L 12807,15733 L 12813,15883 z "
             style="fill:#ffffff;fill-opacity:1" />
          <path
             id="path3621"
             d="M 12767,15735 L 12773,15885 L 12759,15885 L 12767,15735 z "
             style="fill:#ffffff;fill-opacity:1" />
          <path
             id="path3623"
             d="M 12759,15885 L 12719,15882 L 12727,15733 L 12736,15583 L 12775,15585 L 12767,15735 L 12759,15885 z "
             style="fill:#ffffff;fill-opacity:1" />
          <path
             id="path3625"
             d="M 12727,15733 L 12719,15882 L 12705,15881 L 12727,15733 z "
             style="fill:#ffffff;fill-opacity:1" />
          <path
             id="path3627"
             d="M 12705,15881 L 12666,15875 L 12688,15727 L 12710,15578 L 12749,15584 L 12727,15733 L 12705,15881 z "
             style="fill:#ffffff;fill-opacity:1" />
          <path
             id="path3629"
             d="M 12688,15727 L 12666,15875 L 12652,15872 L 12688,15727 z "
             style="fill:#ffffff;fill-opacity:1" />
          <path
             id="path3631"
             d="M 12652,15872 L 12613,15863 L 12649,15717 L 12685,15572 L 12724,15581 L 12688,15727 L 12652,15872 z "
             style="fill:#ffffff;fill-opacity:1" />
          <path
             id="path3633"
             d="M 12649,15717 L 12613,15863 L 12599,15859 L 12649,15717 z "
             style="fill:#ffffff;fill-opacity:1" />
          <path
             id="path3635"
             d="M 12599,15859 L 12562,15845 L 12612,15704 L 12662,15563 L 12700,15576 L 12649,15717 L 12599,15859 z "
             style="fill:#ffffff;fill-opacity:1" />
          <path
             id="path3637"
             d="M 12612,15704 L 12562,15845 L 12548,15839 L 12612,15704 z "
             style="fill:#ffffff;fill-opacity:1" />
          <path
             id="path3639"
             d="M 12548,15839 L 12512,15822 L 12576,15687 L 12640,15551 L 12676,15568 L 12612,15704 L 12548,15839 z "
             style="fill:#ffffff;fill-opacity:1" />
          <path
             id="path3641"
             d="M 12576,15687 L 12512,15822 L 12498,15815 L 12576,15687 z "
             style="fill:#ffffff;fill-opacity:1" />
          <path
             id="path3643"
             d="M 12498,15815 L 12463,15794 L 12541,15666 L 12619,15538 L 12654,15559 L 12576,15687 L 12498,15815 z "
             style="fill:#ffffff;fill-opacity:1" />
          <path
             id="path3645"
             d="M 12541,15666 L 12463,15794 L 12450,15785 L 12541,15666 z "
             style="fill:#ffffff;fill-opacity:1" />
          <path
             id="path3647"
             d="M 12450,15785 L 12417,15760 L 12508,15641 L 12599,15521 L 12632,15546 L 12541,15666 L 12450,15785 z "
             style="fill:#ffffff;fill-opacity:1" />
          <path
             id="path3649"
             d="M 12508,15641 L 12417,15760 L 12405,15749 L 12508,15641 z "
             style="fill:#ffffff;fill-opacity:1" />
          <path
             id="path3651"
             d="M 12405,15749 L 12374,15720 L 12478,15612 L 12581,15503 L 12612,15532 L 12508,15641 L 12405,15749 z "
             style="fill:#ffffff;fill-opacity:1" />
          <path
             id="path3653"
             d="M 12478,15612 L 12374,15720 L 12363,15709 L 12478,15612 z "
             style="fill:#ffffff;fill-opacity:1" />
          <path
             id="path3655"
             d="M 12363,15709 L 12335,15676 L 12449,15578 L 12564,15481 L 12592,15514 L 12478,15612 L 12363,15709 z "
             style="fill:#ffffff;fill-opacity:1" />
          <path
             id="path3657"
             d="M 12449,15578 L 12335,15676 L 12326,15663 L 12449,15578 z "
             style="fill:#ffffff;fill-opacity:1" />
          <path
             id="path3659"
             d="M 12326,15663 L 12300,15626 L 12424,15541 L 12548,15456 L 12573,15494 L 12449,15578 L 12326,15663 z "
             style="fill:#ffffff;fill-opacity:1" />
          <path
             id="path3661"
             d="M 12424,15541 L 12300,15626 L 12292,15613 L 12424,15541 z "
             style="fill:#ffffff;fill-opacity:1" />
          <path
             id="path3663"
             d="M 12292,15613 L 12270,15571 L 12401,15500 L 12533,15428 L 12556,15469 L 12424,15541 L 12292,15613 z "
             style="fill:#ffffff;fill-opacity:1" />
          <path
             id="path3665"
             d="M 12401,15500 L 12270,15571 L 12263,15558 L 12401,15500 z "
             style="fill:#ffffff;fill-opacity:1" />
          <path
             id="path3667"
             d="M 12263,15558 L 12244,15512 L 12382,15454 L 12520,15395 L 12540,15441 L 12401,15500 L 12263,15558 z "
             style="fill:#ffffff;fill-opacity:1" />
          <path
             id="path3669"
             d="M 12382,15454 L 12244,15512 L 12239,15499 L 12382,15454 z "
             style="fill:#ffffff;fill-opacity:1" />
          <path
             id="path3671"
             d="M 12239,15499 L 12223,15449 L 12366,15404 L 12509,15358 L 12525,15409 L 12382,15454 L 12239,15499 z "
             style="fill:#ffffff;fill-opacity:1" />
          <path
             id="path3673"
             d="M 12366,15404 L 12223,15449 L 12220,15436 L 12366,15404 z "
             style="fill:#ffffff;fill-opacity:1" />
          <path
             id="path3675"
             d="M 12220,15436 L 12208,15381 L 12354,15349 L 12500,15317 L 12513,15371 L 12366,15404 L 12220,15436 z "
             style="fill:#ffffff;fill-opacity:1" />
        </g>
        <g
           id="g3677"
           style="fill:#ffffff;fill-opacity:1" />
      </g>
    </g>
  </g>
</svg>
