<?xml version="1.0" encoding="UTF-8" standalone="no"?>
<!-- Created with Inkscape (http://www.inkscape.org/) -->
<svg
   xmlns:dc="http://purl.org/dc/elements/1.1/"
   xmlns:cc="http://web.resource.org/cc/"
   xmlns:rdf="http://www.w3.org/1999/02/22-rdf-syntax-ns#"
   xmlns:svg="http://www.w3.org/2000/svg"
   xmlns="http://www.w3.org/2000/svg"
   xmlns:sodipodi="http://sodipodi.sourceforge.net/DTD/sodipodi-0.dtd"
   xmlns:inkscape="http://www.inkscape.org/namespaces/inkscape"
   width="1cm"
   height="1cm"
   id="svg9908"
   sodipodi:version="0.32"
   inkscape:version="0.45"
   version="1.0"
   sodipodi:docbase="/data/world/proj/Kproj/symsolon/share/symsolon/aspects"
   sodipodi:docname="aspect-septil.svg"
   inkscape:output_extension="org.inkscape.output.svg.inkscape"
   sodipodi:modified="true">
  <defs
     id="defs9910" />
  <sodipodi:namedview
     id="base"
     pagecolor="#000000"
     bordercolor="#666666"
     borderopacity="1.0"
     inkscape:pageopacity="1"
     inkscape:pageshadow="2"
     inkscape:zoom="7.0170015"
     inkscape:cx="0.79131245"
     inkscape:cy="17.556514"
     inkscape:document-units="px"
     inkscape:current-layer="layer1"
     inkscape:window-width="966"
     inkscape:window-height="626"
     inkscape:window-x="10"
     inkscape:window-y="73" />
  <metadata
     id="metadata9913">
    <rdf:RDF>
      <cc:Work
         rdf:about="">
        <dc:format>image/svg+xml</dc:format>
        <dc:type
           rdf:resource="http://purl.org/dc/dcmitype/StillImage" />
      </cc:Work>
    </rdf:RDF>
  </metadata>
  <g
     inkscape:label="1. réteg"
     inkscape:groupmode="layer"
     id="layer1">
    <g
       transform="matrix(1.2707765e-2,0,0,1.2707765e-2,-81.171437,-171.98066)"
       style="fill:#ffffff;fill-opacity:1;visibility:visible"
       id="g2879">
      <desc
         id="desc2881">Drawing</desc>
      <g
         id="g2883"
         style="fill:#ffffff;fill-opacity:1">
        <g
           id="g2885"
           style="fill:#ffffff;fill-opacity:1;stroke:none">
          <path
             id="path2887"
             d="M 6875,13873 L 6875,16063 L 6575,16063 L 6575,13873 L 6875,13873 z "
             style="fill:#ffffff;fill-opacity:1" />
        </g>
        <g
           id="g2889"
           style="fill:#ffffff;fill-opacity:1" />
      </g>
    </g>
    <g
       transform="matrix(1.2707765e-2,0,0,1.2707765e-2,-81.171437,-171.98066)"
       style="fill:#ffffff;fill-opacity:1;visibility:visible"
       id="g2891">
      <desc
         id="desc2893">Drawing</desc>
      <g
         id="g2895"
         style="fill:#ffffff;fill-opacity:1">
        <g
           id="g2897"
           style="fill:#ffffff;fill-opacity:1;stroke:none">
          <path
             id="path2899"
             d="M 6665,15771 L 6862,15748 L 6879,15897 L 6897,16046 L 6699,16069 L 6682,15920 L 6665,15771 z "
             style="fill:#ffffff;fill-opacity:1" />
          <path
             id="path2901"
             d="M 6879,15897 L 6914,16043 L 6897,16046 L 6879,15897 z "
             style="fill:#ffffff;fill-opacity:1" />
          <path
             id="path2903"
             d="M 6845,15751 L 7010,15712 L 7045,15858 L 7079,16004 L 6914,16043 L 6879,15897 L 6845,15751 z "
             style="fill:#ffffff;fill-opacity:1" />
          <path
             id="path2905"
             d="M 7045,15858 L 7100,15997 L 7079,16004 L 7045,15858 z "
             style="fill:#ffffff;fill-opacity:1" />
          <path
             id="path2907"
             d="M 6990,15718 L 7125,15665 L 7180,15805 L 7235,15944 L 7100,15997 L 7045,15858 L 6990,15718 z "
             style="fill:#ffffff;fill-opacity:1" />
          <path
             id="path2909"
             d="M 7180,15805 L 7253,15936 L 7235,15944 L 7180,15805 z "
             style="fill:#ffffff;fill-opacity:1" />
          <path
             id="path2911"
             d="M 7107,15673 L 7163,15642 L 7236,15773 L 7309,15904 L 7253,15936 L 7180,15805 L 7107,15673 z "
             style="fill:#ffffff;fill-opacity:1" />
          <path
             id="path2913"
             d="M 7236,15773 L 7321,15897 L 7309,15904 L 7236,15773 z "
             style="fill:#ffffff;fill-opacity:1" />
          <path
             id="path2915"
             d="M 7151,15650 L 7200,15616 L 7285,15739 L 7370,15863 L 7321,15897 L 7236,15773 L 7151,15650 z "
             style="fill:#ffffff;fill-opacity:1" />
          <path
             id="path2917"
             d="M 7285,15739 L 7383,15853 L 7370,15863 L 7285,15739 z "
             style="fill:#ffffff;fill-opacity:1" />
          <path
             id="path2919"
             d="M 7187,15626 L 7229,15589 L 7327,15703 L 7425,15817 L 7383,15853 L 7285,15739 L 7187,15626 z "
             style="fill:#ffffff;fill-opacity:1" />
          <path
             id="path2921"
             d="M 7327,15703 L 7438,15804 L 7425,15817 L 7327,15703 z "
             style="fill:#ffffff;fill-opacity:1" />
          <path
             id="path2923"
             d="M 7217,15602 L 7252,15563 L 7363,15665 L 7473,15766 L 7438,15804 L 7327,15703 L 7217,15602 z "
             style="fill:#ffffff;fill-opacity:1" />
          <path
             id="path2925"
             d="M 7363,15665 L 7485,15751 L 7473,15766 L 7363,15665 z "
             style="fill:#ffffff;fill-opacity:1" />
          <path
             id="path2927"
             d="M 7240,15578 L 7268,15538 L 7391,15625 L 7513,15711 L 7485,15751 L 7363,15665 L 7240,15578 z "
             style="fill:#ffffff;fill-opacity:1" />
          <path
             id="path2929"
             d="M 7391,15625 L 7524,15694 L 7513,15711 L 7391,15625 z "
             style="fill:#ffffff;fill-opacity:1" />
          <path
             id="path2931"
             d="M 7258,15555 L 7280,15513 L 7413,15583 L 7546,15652 L 7524,15694 L 7391,15625 L 7258,15555 z "
             style="fill:#ffffff;fill-opacity:1" />
          <path
             id="path2933"
             d="M 7413,15583 L 7554,15633 L 7546,15652 L 7413,15583 z "
             style="fill:#ffffff;fill-opacity:1" />
          <path
             id="path2935"
             d="M 7271,15532 L 7287,15490 L 7428,15540 L 7569,15590 L 7554,15633 L 7413,15583 L 7271,15532 z "
             style="fill:#ffffff;fill-opacity:1" />
          <path
             id="path2937"
             d="M 7428,15540 L 7575,15570 L 7569,15590 L 7428,15540 z "
             style="fill:#ffffff;fill-opacity:1" />
          <path
             id="path2939"
             d="M 7281,15510 L 7290,15466 L 7437,15496 L 7584,15526 L 7575,15570 L 7428,15540 L 7281,15510 z "
             style="fill:#ffffff;fill-opacity:1" />
          <path
             id="path2941"
             d="M 7437,15496 L 7587,15505 L 7584,15526 L 7437,15496 z "
             style="fill:#ffffff;fill-opacity:1" />
          <path
             id="path2943"
             d="M 7287,15487 L 7290,15442 L 7440,15452 L 7589,15461 L 7587,15505 L 7437,15496 L 7287,15487 z "
             style="fill:#ffffff;fill-opacity:1" />
          <path
             id="path2945"
             d="M 7440,15452 L 7589,15441 L 7589,15461 L 7440,15452 z "
             style="fill:#ffffff;fill-opacity:1" />
          <path
             id="path2947"
             d="M 7290,15463 L 7287,15418 L 7437,15407 L 7586,15396 L 7589,15441 L 7440,15452 L 7290,15463 z "
             style="fill:#ffffff;fill-opacity:1" />
          <path
             id="path2949"
             d="M 7437,15407 L 7583,15377 L 7586,15396 L 7437,15407 z "
             style="fill:#ffffff;fill-opacity:1" />
          <path
             id="path2951"
             d="M 7290,15437 L 7280,15392 L 7427,15362 L 7574,15332 L 7583,15377 L 7437,15407 L 7290,15437 z "
             style="fill:#ffffff;fill-opacity:1" />
          <path
             id="path2953"
             d="M 7427,15362 L 7570,15314 L 7574,15332 L 7427,15362 z "
             style="fill:#ffffff;fill-opacity:1" />
          <path
             id="path2955"
             d="M 7285,15410 L 7270,15365 L 7412,15317 L 7555,15270 L 7570,15314 L 7427,15362 L 7285,15410 z "
             style="fill:#ffffff;fill-opacity:1" />
          <path
             id="path2957"
             d="M 7412,15317 L 7548,15254 L 7555,15270 L 7412,15317 z "
             style="fill:#ffffff;fill-opacity:1" />
          <path
             id="path2959"
             d="M 7276,15381 L 7256,15336 L 7392,15273 L 7528,15210 L 7548,15254 L 7412,15317 L 7276,15381 z "
             style="fill:#ffffff;fill-opacity:1" />
          <path
             id="path2961"
             d="M 7392,15273 L 7521,15196 L 7528,15210 L 7392,15273 z "
             style="fill:#ffffff;fill-opacity:1" />
          <path
             id="path2963"
             d="M 7263,15350 L 7237,15307 L 7366,15230 L 7495,15153 L 7521,15196 L 7392,15273 L 7263,15350 z "
             style="fill:#ffffff;fill-opacity:1" />
          <path
             id="path2965"
             d="M 7366,15230 L 7487,15141 L 7495,15153 L 7366,15230 z "
             style="fill:#ffffff;fill-opacity:1" />
          <path
             id="path2967"
             d="M 7245,15319 L 7214,15277 L 7335,15188 L 7455,15098 L 7487,15141 L 7366,15230 L 7245,15319 z "
             style="fill:#ffffff;fill-opacity:1" />
          <path
             id="path2969"
             d="M 7335,15188 L 7447,15088 L 7455,15098 L 7335,15188 z "
             style="fill:#ffffff;fill-opacity:1" />
          <path
             id="path2971"
             d="M 7223,15288 L 7186,15247 L 7298,15147 L 7410,15047 L 7447,15088 L 7335,15188 L 7223,15288 z "
             style="fill:#ffffff;fill-opacity:1" />
          <path
             id="path2973"
             d="M 7298,15147 L 7401,15038 L 7410,15047 L 7298,15147 z "
             style="fill:#ffffff;fill-opacity:1" />
          <path
             id="path2975"
             d="M 7195,15256 L 7154,15217 L 7257,15108 L 7360,14999 L 7401,15038 L 7298,15147 L 7195,15256 z "
             style="fill:#ffffff;fill-opacity:1" />
          <path
             id="path2977"
             d="M 7257,15108 L 7351,14991 L 7360,14999 L 7257,15108 z "
             style="fill:#ffffff;fill-opacity:1" />
          <path
             id="path2979"
             d="M 7163,15225 L 7117,15187 L 7210,15070 L 7304,14954 L 7351,14991 L 7257,15108 L 7163,15225 z "
             style="fill:#ffffff;fill-opacity:1" />
          <path
             id="path2981"
             d="M 7210,15070 L 7291,14944 L 7304,14954 L 7210,15070 z "
             style="fill:#ffffff;fill-opacity:1" />
          <path
             id="path2983"
             d="M 7130,15197 L 7024,15130 L 7104,15003 L 7184,14876 L 7291,14944 L 7210,15070 L 7130,15197 z "
             style="fill:#ffffff;fill-opacity:1" />
          <path
             id="path2985"
             d="M 7104,15003 L 7165,14866 L 7184,14876 L 7104,15003 z "
             style="fill:#ffffff;fill-opacity:1" />
          <path
             id="path2987"
             d="M 7042,15140 L 6918,15084 L 6979,14947 L 7041,14810 L 7165,14866 L 7104,15003 L 7042,15140 z "
             style="fill:#ffffff;fill-opacity:1" />
          <path
             id="path2989"
             d="M 6979,14947 L 7023,14803 L 7041,14810 L 6979,14947 z "
             style="fill:#ffffff;fill-opacity:1" />
          <path
             id="path2991"
             d="M 6936,15091 L 6795,15048 L 6838,14905 L 6882,14761 L 7023,14803 L 6979,14947 L 6936,15091 z "
             style="fill:#ffffff;fill-opacity:1" />
          <path
             id="path2993"
             d="M 6838,14905 L 6863,14757 L 6882,14761 L 6838,14905 z "
             style="fill:#ffffff;fill-opacity:1" />
          <path
             id="path2995"
             d="M 6813,15052 L 6657,15026 L 6682,14878 L 6707,14730 L 6863,14757 L 6838,14905 L 6813,15052 z "
             style="fill:#ffffff;fill-opacity:1" />
        </g>
        <g
           id="g2997"
           style="fill:#ffffff;fill-opacity:1" />
      </g>
    </g>
    <g
       transform="matrix(1.2707765e-2,0,0,1.2707765e-2,-81.171437,-171.98066)"
       style="fill:#ffffff;fill-opacity:1;visibility:visible"
       id="g2999">
      <desc
         id="desc3001">Drawing</desc>
      <g
         id="g3003"
         style="fill:#ffffff;fill-opacity:1">
        <g
           id="g3005"
           style="fill:#ffffff;fill-opacity:1;stroke:none">
          <path
             id="path3007"
             d="M 8775,14439 L 8760,14384 L 8905,14346 L 9050,14307 L 9065,14363 L 8920,14401 L 8775,14439 z "
             style="fill:#ffffff;fill-opacity:1" />
          <path
             id="path3009"
             d="M 8905,14346 L 9046,14294 L 9050,14307 L 8905,14346 z "
             style="fill:#ffffff;fill-opacity:1" />
          <path
             id="path3011"
             d="M 8765,14397 L 8745,14345 L 8886,14294 L 9027,14242 L 9046,14294 L 8905,14346 L 8765,14397 z "
             style="fill:#ffffff;fill-opacity:1" />
          <path
             id="path3013"
             d="M 8886,14294 L 9022,14229 L 9027,14242 L 8886,14294 z "
             style="fill:#ffffff;fill-opacity:1" />
          <path
             id="path3015"
             d="M 8751,14358 L 8728,14310 L 8863,14245 L 8998,14180 L 9022,14229 L 8886,14294 L 8751,14358 z "
             style="fill:#ffffff;fill-opacity:1" />
          <path
             id="path3017"
             d="M 8863,14245 L 8992,14168 L 8998,14180 L 8863,14245 z "
             style="fill:#ffffff;fill-opacity:1" />
          <path
             id="path3019"
             d="M 8734,14322 L 8707,14276 L 8836,14199 L 8964,14122 L 8992,14168 L 8863,14245 L 8734,14322 z "
             style="fill:#ffffff;fill-opacity:1" />
          <path
             id="path3021"
             d="M 8836,14199 L 8957,14111 L 8964,14122 L 8836,14199 z "
             style="fill:#ffffff;fill-opacity:1" />
          <path
             id="path3023"
             d="M 8715,14288 L 8684,14246 L 8805,14157 L 8926,14069 L 8957,14111 L 8836,14199 L 8715,14288 z "
             style="fill:#ffffff;fill-opacity:1" />
          <path
             id="path3025"
             d="M 8805,14157 L 8918,14058 L 8926,14069 L 8805,14157 z "
             style="fill:#ffffff;fill-opacity:1" />
          <path
             id="path3027"
             d="M 8692,14256 L 8658,14218 L 8771,14119 L 8884,14020 L 8918,14058 L 8805,14157 L 8692,14256 z "
             style="fill:#ffffff;fill-opacity:1" />
          <path
             id="path3029"
             d="M 8771,14119 L 8875,14010 L 8884,14020 L 8771,14119 z "
             style="fill:#ffffff;fill-opacity:1" />
          <path
             id="path3031"
             d="M 8667,14227 L 8630,14192 L 8734,14083 L 8838,13975 L 8875,14010 L 8771,14119 L 8667,14227 z "
             style="fill:#ffffff;fill-opacity:1" />
          <path
             id="path3033"
             d="M 8734,14083 L 8828,13967 L 8838,13975 L 8734,14083 z "
             style="fill:#ffffff;fill-opacity:1" />
          <path
             id="path3035"
             d="M 8640,14200 L 8600,14168 L 8695,14051 L 8789,13935 L 8828,13967 L 8734,14083 L 8640,14200 z "
             style="fill:#ffffff;fill-opacity:1" />
          <path
             id="path3037"
             d="M 8695,14051 L 8774,13924 L 8789,13935 L 8695,14051 z "
             style="fill:#ffffff;fill-opacity:1" />
          <path
             id="path3039"
             d="M 8615,14179 L 8529,14125 L 8609,13998 L 8689,13871 L 8774,13924 L 8695,14051 L 8615,14179 z "
             style="fill:#ffffff;fill-opacity:1" />
          <path
             id="path3041"
             d="M 8609,13998 L 8668,13860 L 8689,13871 L 8609,13998 z "
             style="fill:#ffffff;fill-opacity:1" />
          <path
             id="path3043"
             d="M 8550,14136 L 8457,14096 L 8517,13958 L 8576,13820 L 8668,13860 L 8609,13998 L 8550,14136 z "
             style="fill:#ffffff;fill-opacity:1" />
          <path
             id="path3045"
             d="M 8517,13958 L 8555,13813 L 8576,13820 L 8517,13958 z "
             style="fill:#ffffff;fill-opacity:1" />
          <path
             id="path3047"
             d="M 8478,14103 L 8381,14077 L 8420,13932 L 8459,13787 L 8555,13813 L 8517,13958 L 8478,14103 z "
             style="fill:#ffffff;fill-opacity:1" />
          <path
             id="path3049"
             d="M 8420,13932 L 8438,13783 L 8459,13787 L 8420,13932 z "
             style="fill:#ffffff;fill-opacity:1" />
          <path
             id="path3051"
             d="M 8402,14081 L 8304,14070 L 8322,13921 L 8340,13772 L 8438,13783 L 8420,13932 L 8402,14081 z "
             style="fill:#ffffff;fill-opacity:1" />
          <path
             id="path3053"
             d="M 8322,13921 L 8318,13771 L 8340,13772 L 8322,13921 z "
             style="fill:#ffffff;fill-opacity:1" />
          <path
             id="path3055"
             d="M 8326,14071 L 8229,14073 L 8225,13923 L 8221,13773 L 8318,13771 L 8322,13921 L 8326,14071 z "
             style="fill:#ffffff;fill-opacity:1" />
          <path
             id="path3057"
             d="M 8225,13923 L 8198,13775 L 8221,13773 L 8225,13923 z "
             style="fill:#ffffff;fill-opacity:1" />
          <path
             id="path3059"
             d="M 8251,14071 L 8157,14088 L 8131,13940 L 8104,13792 L 8198,13775 L 8225,13923 L 8251,14071 z "
             style="fill:#ffffff;fill-opacity:1" />
          <path
             id="path3061"
             d="M 8131,13940 L 8087,13797 L 8104,13792 L 8131,13940 z "
             style="fill:#ffffff;fill-opacity:1" />
          <path
             id="path3063"
             d="M 8175,14083 L 8130,14097 L 8086,13954 L 8042,13810 L 8087,13797 L 8131,13940 L 8175,14083 z "
             style="fill:#ffffff;fill-opacity:1" />
          <path
             id="path3065"
             d="M 8086,13954 L 8030,13815 L 8042,13810 L 8086,13954 z "
             style="fill:#ffffff;fill-opacity:1" />
          <path
             id="path3067"
             d="M 8142,14093 L 8099,14110 L 8043,13971 L 7987,13832 L 8030,13815 L 8086,13954 L 8142,14093 z "
             style="fill:#ffffff;fill-opacity:1" />
          <path
             id="path3069"
             d="M 8043,13971 L 7974,13838 L 7987,13832 L 8043,13971 z "
             style="fill:#ffffff;fill-opacity:1" />
          <path
             id="path3071"
             d="M 8112,14105 L 8071,14126 L 8002,13992 L 7933,13859 L 7974,13838 L 8043,13971 L 8112,14105 z "
             style="fill:#ffffff;fill-opacity:1" />
          <path
             id="path3073"
             d="M 8002,13992 L 7921,13866 L 7933,13859 L 8002,13992 z "
             style="fill:#ffffff;fill-opacity:1" />
          <path
             id="path3075"
             d="M 8083,14119 L 8044,14143 L 7963,14017 L 7882,13891 L 7921,13866 L 8002,13992 L 8083,14119 z "
             style="fill:#ffffff;fill-opacity:1" />
          <path
             id="path3077"
             d="M 7963,14017 L 7870,13900 L 7882,13891 L 7963,14017 z "
             style="fill:#ffffff;fill-opacity:1" />
          <path
             id="path3079"
             d="M 8057,14135 L 8021,14163 L 7927,14046 L 7834,13928 L 7870,13900 L 7963,14017 L 8057,14135 z "
             style="fill:#ffffff;fill-opacity:1" />
          <path
             id="path3081"
             d="M 7927,14046 L 7822,13939 L 7834,13928 L 7927,14046 z "
             style="fill:#ffffff;fill-opacity:1" />
          <path
             id="path3083"
             d="M 8032,14153 L 8000,14185 L 7895,14078 L 7790,13971 L 7822,13939 L 7927,14046 L 8032,14153 z "
             style="fill:#ffffff;fill-opacity:1" />
          <path
             id="path3085"
             d="M 7895,14078 L 7779,13983 L 7790,13971 L 7895,14078 z "
             style="fill:#ffffff;fill-opacity:1" />
          <path
             id="path3087"
             d="M 8011,14173 L 7981,14209 L 7865,14114 L 7749,14019 L 7779,13983 L 7895,14078 L 8011,14173 z "
             style="fill:#ffffff;fill-opacity:1" />
          <path
             id="path3089"
             d="M 7865,14114 L 7739,14032 L 7749,14019 L 7865,14114 z "
             style="fill:#ffffff;fill-opacity:1" />
          <path
             id="path3091"
             d="M 7991,14196 L 7965,14235 L 7839,14154 L 7714,14072 L 7739,14032 L 7865,14114 L 7991,14196 z "
             style="fill:#ffffff;fill-opacity:1" />
          <path
             id="path3093"
             d="M 7839,14154 L 7705,14086 L 7714,14072 L 7839,14154 z "
             style="fill:#ffffff;fill-opacity:1" />
          <path
             id="path3095"
             d="M 7973,14221 L 7951,14264 L 7817,14197 L 7683,14130 L 7705,14086 L 7839,14154 L 7973,14221 z "
             style="fill:#ffffff;fill-opacity:1" />
          <path
             id="path3097"
             d="M 7817,14197 L 7677,14145 L 7683,14130 L 7817,14197 z "
             style="fill:#ffffff;fill-opacity:1" />
          <path
             id="path3099"
             d="M 7958,14249 L 7941,14296 L 7800,14244 L 7659,14192 L 7677,14145 L 7817,14197 L 7958,14249 z "
             style="fill:#ffffff;fill-opacity:1" />
          <path
             id="path3101"
             d="M 7800,14244 L 7655,14207 L 7659,14192 L 7800,14244 z "
             style="fill:#ffffff;fill-opacity:1" />
          <path
             id="path3103"
             d="M 7945,14281 L 7932,14332 L 7787,14295 L 7642,14258 L 7655,14207 L 7800,14244 L 7945,14281 z "
             style="fill:#ffffff;fill-opacity:1" />
          <path
             id="path3105"
             d="M 7787,14295 L 7639,14274 L 7642,14258 L 7787,14295 z "
             style="fill:#ffffff;fill-opacity:1" />
          <path
             id="path3107"
             d="M 7935,14317 L 7927,14372 L 7779,14350 L 7631,14328 L 7639,14274 L 7787,14295 L 7935,14317 z "
             style="fill:#ffffff;fill-opacity:1" />
          <path
             id="path3109"
             d="M 7779,14350 L 7629,14345 L 7631,14328 L 7779,14350 z "
             style="fill:#ffffff;fill-opacity:1" />
          <path
             id="path3111"
             d="M 7929,14355 L 7927,14410 L 7777,14404 L 7627,14399 L 7629,14345 L 7779,14350 L 7929,14355 z "
             style="fill:#ffffff;fill-opacity:1" />
          <path
             id="path3113"
             d="M 7777,14404 L 7628,14419 L 7627,14399 L 7777,14404 z "
             style="fill:#ffffff;fill-opacity:1" />
          <path
             id="path3115"
             d="M 7926,14389 L 7931,14440 L 7782,14455 L 7633,14469 L 7628,14419 L 7777,14404 L 7926,14389 z "
             style="fill:#ffffff;fill-opacity:1" />
          <path
             id="path3117"
             d="M 7782,14455 L 7637,14491 L 7633,14469 L 7782,14455 z "
             style="fill:#ffffff;fill-opacity:1" />
          <path
             id="path3119"
             d="M 7928,14418 L 7939,14465 L 7794,14501 L 7648,14537 L 7637,14491 L 7782,14455 L 7928,14418 z "
             style="fill:#ffffff;fill-opacity:1" />
          <path
             id="path3121"
             d="M 7794,14501 L 7655,14558 L 7648,14537 L 7794,14501 z "
             style="fill:#ffffff;fill-opacity:1" />
          <path
             id="path3123"
             d="M 7932,14444 L 7950,14486 L 7811,14543 L 7672,14600 L 7655,14558 L 7794,14501 L 7932,14444 z "
             style="fill:#ffffff;fill-opacity:1" />
          <path
             id="path3125"
             d="M 7811,14543 L 7682,14620 L 7672,14600 L 7811,14543 z "
             style="fill:#ffffff;fill-opacity:1" />
          <path
             id="path3127"
             d="M 7940,14467 L 7963,14506 L 7834,14582 L 7705,14659 L 7682,14620 L 7811,14543 L 7940,14467 z "
             style="fill:#ffffff;fill-opacity:1" />
          <path
             id="path3129"
             d="M 7834,14582 L 7716,14675 L 7705,14659 L 7834,14582 z "
             style="fill:#ffffff;fill-opacity:1" />
          <path
             id="path3131"
             d="M 7952,14490 L 7980,14525 L 7862,14618 L 7744,14711 L 7716,14675 L 7834,14582 L 7952,14490 z "
             style="fill:#ffffff;fill-opacity:1" />
          <path
             id="path3133"
             d="M 7862,14618 L 7756,14724 L 7744,14711 L 7862,14618 z "
             style="fill:#ffffff;fill-opacity:1" />
          <path
             id="path3135"
             d="M 7969,14512 L 8002,14545 L 7895,14651 L 7789,14757 L 7756,14724 L 7862,14618 L 7969,14512 z "
             style="fill:#ffffff;fill-opacity:1" />
          <path
             id="path3137"
             d="M 7895,14651 L 7800,14767 L 7789,14757 L 7895,14651 z "
             style="fill:#ffffff;fill-opacity:1" />
          <path
             id="path3139"
             d="M 7990,14535 L 8028,14566 L 7932,14682 L 7837,14798 L 7800,14767 L 7895,14651 L 7990,14535 z "
             style="fill:#ffffff;fill-opacity:1" />
          <path
             id="path3141"
             d="M 7932,14682 L 7852,14808 L 7837,14798 L 7932,14682 z "
             style="fill:#ffffff;fill-opacity:1" />
          <path
             id="path3143"
             d="M 8013,14555 L 8098,14609 L 8018,14736 L 7937,14862 L 7852,14808 L 7932,14682 L 8013,14555 z "
             style="fill:#ffffff;fill-opacity:1" />
          <path
             id="path3145"
             d="M 8018,14736 L 7952,14871 L 7937,14862 L 8018,14736 z "
             style="fill:#ffffff;fill-opacity:1" />
          <path
             id="path3147"
             d="M 8083,14601 L 8180,14648 L 8114,14783 L 8048,14918 L 7952,14871 L 8018,14736 L 8083,14601 z "
             style="fill:#ffffff;fill-opacity:1" />
          <path
             id="path3149"
             d="M 8114,14783 L 8060,14923 L 8048,14918 L 8114,14783 z "
             style="fill:#ffffff;fill-opacity:1" />
          <path
             id="path3151"
             d="M 8168,14643 L 8382,14726 L 8328,14866 L 8273,15005 L 8060,14923 L 8114,14783 L 8168,14643 z "
             style="fill:#ffffff;fill-opacity:1" />
          <path
             id="path3153"
             d="M 8328,14866 L 8275,15006 L 8273,15005 L 8328,14866 z "
             style="fill:#ffffff;fill-opacity:1" />
          <path
             id="path3155"
             d="M 8380,14725 L 8596,14806 L 8544,14947 L 8491,15087 L 8275,15006 L 8328,14866 L 8380,14725 z "
             style="fill:#ffffff;fill-opacity:1" />
          <path
             id="path3157"
             d="M 8544,14947 L 8596,14806 L 8606,14810 L 8544,14947 z "
             style="fill:#ffffff;fill-opacity:1" />
          <path
             id="path3159"
             d="M 8606,14810 L 8706,14856 L 8644,14992 L 8582,15129 L 8481,15083 L 8544,14947 L 8606,14810 z "
             style="fill:#ffffff;fill-opacity:1" />
          <path
             id="path3161"
             d="M 8644,14992 L 8706,14856 L 8719,14862 L 8644,14992 z "
             style="fill:#ffffff;fill-opacity:1" />
          <path
             id="path3163"
             d="M 8719,14862 L 8809,14914 L 8734,15044 L 8659,15174 L 8569,15122 L 8644,14992 L 8719,14862 z "
             style="fill:#ffffff;fill-opacity:1" />
          <path
             id="path3165"
             d="M 8734,15044 L 8809,14914 L 8822,14923 L 8734,15044 z "
             style="fill:#ffffff;fill-opacity:1" />
          <path
             id="path3167"
             d="M 8822,14923 L 8862,14952 L 8774,15073 L 8686,15195 L 8646,15166 L 8734,15044 L 8822,14923 z "
             style="fill:#ffffff;fill-opacity:1" />
          <path
             id="path3169"
             d="M 8774,15073 L 8862,14952 L 8872,14960 L 8774,15073 z "
             style="fill:#ffffff;fill-opacity:1" />
          <path
             id="path3171"
             d="M 8872,14960 L 8909,14991 L 8810,15105 L 8712,15218 L 8676,15186 L 8774,15073 L 8872,14960 z "
             style="fill:#ffffff;fill-opacity:1" />
          <path
             id="path3173"
             d="M 8810,15105 L 8909,14991 L 8920,15002 L 8810,15105 z "
             style="fill:#ffffff;fill-opacity:1" />
          <path
             id="path3175"
             d="M 8920,15002 L 8952,15036 L 8842,15139 L 8732,15241 L 8701,15207 L 8810,15105 L 8920,15002 z "
             style="fill:#ffffff;fill-opacity:1" />
          <path
             id="path3177"
             d="M 8842,15139 L 8952,15036 L 8963,15050 L 8842,15139 z "
             style="fill:#ffffff;fill-opacity:1" />
          <path
             id="path3179"
             d="M 8963,15050 L 8990,15088 L 8869,15176 L 8748,15264 L 8721,15227 L 8842,15139 L 8963,15050 z "
             style="fill:#ffffff;fill-opacity:1" />
          <path
             id="path3181"
             d="M 8869,15176 L 8990,15088 L 9001,15105 L 8869,15176 z "
             style="fill:#ffffff;fill-opacity:1" />
          <path
             id="path3183"
             d="M 9001,15105 L 9023,15145 L 8891,15216 L 8759,15288 L 8737,15247 L 8869,15176 L 9001,15105 z "
             style="fill:#ffffff;fill-opacity:1" />
          <path
             id="path3185"
             d="M 8891,15216 L 9023,15145 L 9032,15164 L 8891,15216 z "
             style="fill:#ffffff;fill-opacity:1" />
          <path
             id="path3187"
             d="M 9032,15164 L 9048,15208 L 8907,15260 L 8767,15312 L 8750,15268 L 8891,15216 L 9032,15164 z "
             style="fill:#ffffff;fill-opacity:1" />
          <path
             id="path3189"
             d="M 8907,15260 L 9048,15208 L 9054,15229 L 8907,15260 z "
             style="fill:#ffffff;fill-opacity:1" />
          <path
             id="path3191"
             d="M 9054,15229 L 9064,15277 L 8917,15308 L 8771,15339 L 8761,15291 L 8907,15260 L 9054,15229 z "
             style="fill:#ffffff;fill-opacity:1" />
          <path
             id="path3193"
             d="M 8917,15308 L 9064,15277 L 9067,15298 L 8917,15308 z "
             style="fill:#ffffff;fill-opacity:1" />
          <path
             id="path3195"
             d="M 9067,15298 L 9071,15350 L 8921,15360 L 8771,15370 L 8768,15318 L 8917,15308 L 9067,15298 z "
             style="fill:#ffffff;fill-opacity:1" />
          <path
             id="path3197"
             d="M 8921,15360 L 9071,15350 L 9071,15368 L 8921,15360 z "
             style="fill:#ffffff;fill-opacity:1" />
          <path
             id="path3199"
             d="M 9071,15368 L 9068,15421 L 8918,15413 L 8768,15405 L 8771,15352 L 8921,15360 L 9071,15368 z "
             style="fill:#ffffff;fill-opacity:1" />
          <path
             id="path3201"
             d="M 8918,15413 L 9068,15421 L 9066,15437 L 8918,15413 z "
             style="fill:#ffffff;fill-opacity:1" />
          <path
             id="path3203"
             d="M 9066,15437 L 9058,15488 L 8910,15463 L 8762,15438 L 8770,15388 L 8918,15413 L 9066,15437 z "
             style="fill:#ffffff;fill-opacity:1" />
          <path
             id="path3205"
             d="M 8910,15463 L 9058,15488 L 9054,15504 L 8910,15463 z "
             style="fill:#ffffff;fill-opacity:1" />
          <path
             id="path3207"
             d="M 9054,15504 L 9040,15552 L 8896,15510 L 8752,15469 L 8766,15422 L 8910,15463 L 9054,15504 z "
             style="fill:#ffffff;fill-opacity:1" />
          <path
             id="path3209"
             d="M 8896,15510 L 9040,15552 L 9035,15567 L 8896,15510 z "
             style="fill:#ffffff;fill-opacity:1" />
          <path
             id="path3211"
             d="M 9035,15567 L 9016,15612 L 8878,15555 L 8739,15498 L 8757,15453 L 8896,15510 L 9035,15567 z "
             style="fill:#ffffff;fill-opacity:1" />
          <path
             id="path3213"
             d="M 8878,15555 L 9016,15612 L 9009,15627 L 8878,15555 z "
             style="fill:#ffffff;fill-opacity:1" />
          <path
             id="path3215"
             d="M 9009,15627 L 8986,15669 L 8855,15598 L 8723,15526 L 8746,15484 L 8878,15555 L 9009,15627 z "
             style="fill:#ffffff;fill-opacity:1" />
          <path
             id="path3217"
             d="M 8855,15598 L 8986,15669 L 8978,15683 L 8855,15598 z "
             style="fill:#ffffff;fill-opacity:1" />
          <path
             id="path3219"
             d="M 8978,15683 L 8951,15722 L 8828,15637 L 8704,15552 L 8731,15513 L 8855,15598 L 8978,15683 z "
             style="fill:#ffffff;fill-opacity:1" />
          <path
             id="path3221"
             d="M 8828,15637 L 8951,15722 L 8942,15734 L 8828,15637 z "
             style="fill:#ffffff;fill-opacity:1" />
          <path
             id="path3223"
             d="M 8942,15734 L 8911,15771 L 8796,15674 L 8682,15577 L 8713,15540 L 8828,15637 L 8942,15734 z "
             style="fill:#ffffff;fill-opacity:1" />
          <path
             id="path3225"
             d="M 8796,15674 L 8911,15771 L 8901,15781 L 8796,15674 z "
             style="fill:#ffffff;fill-opacity:1" />
          <path
             id="path3227"
             d="M 8901,15781 L 8867,15815 L 8762,15708 L 8657,15600 L 8692,15567 L 8796,15674 L 8901,15781 z "
             style="fill:#ffffff;fill-opacity:1" />
          <path
             id="path3229"
             d="M 8762,15708 L 8867,15815 L 8857,15824 L 8762,15708 z "
             style="fill:#ffffff;fill-opacity:1" />
          <path
             id="path3231"
             d="M 8857,15824 L 8819,15855 L 8724,15738 L 8629,15622 L 8667,15592 L 8762,15708 L 8857,15824 z "
             style="fill:#ffffff;fill-opacity:1" />
          <path
             id="path3233"
             d="M 8724,15738 L 8819,15855 L 8809,15862 L 8724,15738 z "
             style="fill:#ffffff;fill-opacity:1" />
          <path
             id="path3235"
             d="M 8809,15862 L 8769,15890 L 8684,15766 L 8599,15643 L 8639,15615 L 8724,15738 L 8809,15862 z "
             style="fill:#ffffff;fill-opacity:1" />
          <path
             id="path3237"
             d="M 8684,15766 L 8769,15890 L 8754,15899 L 8684,15766 z "
             style="fill:#ffffff;fill-opacity:1" />
          <path
             id="path3239"
             d="M 8754,15899 L 8665,15945 L 8596,15813 L 8526,15680 L 8614,15634 L 8684,15766 L 8754,15899 z "
             style="fill:#ffffff;fill-opacity:1" />
          <path
             id="path3241"
             d="M 8596,15813 L 8665,15945 L 8645,15954 L 8596,15813 z "
             style="fill:#ffffff;fill-opacity:1" />
          <path
             id="path3243"
             d="M 8645,15954 L 8550,15988 L 8500,15846 L 8451,15705 L 8546,15671 L 8596,15813 L 8645,15954 z "
             style="fill:#ffffff;fill-opacity:1" />
          <path
             id="path3245"
             d="M 8500,15846 L 8550,15988 L 8530,15993 L 8500,15846 z "
             style="fill:#ffffff;fill-opacity:1" />
          <path
             id="path3247"
             d="M 8530,15993 L 8431,16013 L 8401,15866 L 8371,15719 L 8471,15699 L 8500,15846 L 8530,15993 z "
             style="fill:#ffffff;fill-opacity:1" />
          <path
             id="path3249"
             d="M 8401,15866 L 8431,16013 L 8410,16016 L 8401,15866 z "
             style="fill:#ffffff;fill-opacity:1" />
          <path
             id="path3251"
             d="M 8410,16016 L 8309,16022 L 8300,15873 L 8290,15723 L 8391,15717 L 8401,15866 L 8410,16016 z "
             style="fill:#ffffff;fill-opacity:1" />
          <path
             id="path3253"
             d="M 8300,15873 L 8309,16022 L 8288,16022 L 8300,15873 z "
             style="fill:#ffffff;fill-opacity:1" />
          <path
             id="path3255"
             d="M 8288,16022 L 8187,16014 L 8199,15865 L 8211,15715 L 8311,15723 L 8300,15873 L 8288,16022 z "
             style="fill:#ffffff;fill-opacity:1" />
          <path
             id="path3257"
             d="M 8199,15865 L 8187,16014 L 8171,16012 L 8199,15865 z "
             style="fill:#ffffff;fill-opacity:1" />
          <path
             id="path3259"
             d="M 8171,16012 L 8122,16002 L 8151,15855 L 8179,15708 L 8228,15718 L 8199,15865 L 8171,16012 z "
             style="fill:#ffffff;fill-opacity:1" />
          <path
             id="path3261"
             d="M 8151,15855 L 8122,16002 L 8110,16000 L 8151,15855 z "
             style="fill:#ffffff;fill-opacity:1" />
          <path
             id="path3263"
             d="M 8110,16000 L 8063,15986 L 8103,15842 L 8144,15697 L 8191,15711 L 8151,15855 L 8110,16000 z "
             style="fill:#ffffff;fill-opacity:1" />
          <path
             id="path3265"
             d="M 8103,15842 L 8063,15986 L 8051,15982 L 8103,15842 z "
             style="fill:#ffffff;fill-opacity:1" />
          <path
             id="path3267"
             d="M 8051,15982 L 8005,15965 L 8057,15825 L 8110,15684 L 8156,15701 L 8103,15842 L 8051,15982 z "
             style="fill:#ffffff;fill-opacity:1" />
          <path
             id="path3269"
             d="M 8057,15825 L 8005,15965 L 7992,15960 L 8057,15825 z "
             style="fill:#ffffff;fill-opacity:1" />
          <path
             id="path3271"
             d="M 7992,15960 L 7949,15939 L 8014,15804 L 8079,15669 L 8122,15690 L 8057,15825 L 7992,15960 z "
             style="fill:#ffffff;fill-opacity:1" />
          <path
             id="path3273"
             d="M 8014,15804 L 7949,15939 L 7936,15932 L 8014,15804 z "
             style="fill:#ffffff;fill-opacity:1" />
          <path
             id="path3275"
             d="M 7936,15932 L 7895,15907 L 7972,15779 L 8050,15650 L 8091,15675 L 8014,15804 L 7936,15932 z "
             style="fill:#ffffff;fill-opacity:1" />
          <path
             id="path3277"
             d="M 7972,15779 L 7895,15907 L 7882,15899 L 7972,15779 z "
             style="fill:#ffffff;fill-opacity:1" />
          <path
             id="path3279"
             d="M 7882,15899 L 7844,15870 L 7934,15750 L 8024,15630 L 8062,15659 L 7972,15779 L 7882,15899 z "
             style="fill:#ffffff;fill-opacity:1" />
          <path
             id="path3281"
             d="M 7934,15750 L 7844,15870 L 7831,15859 L 7934,15750 z "
             style="fill:#ffffff;fill-opacity:1" />
          <path
             id="path3283"
             d="M 7831,15859 L 7796,15826 L 7898,15716 L 8000,15607 L 8036,15640 L 7934,15750 L 7831,15859 z "
             style="fill:#ffffff;fill-opacity:1" />
          <path
             id="path3285"
             d="M 7898,15716 L 7796,15826 L 7784,15815 L 7898,15716 z "
             style="fill:#ffffff;fill-opacity:1" />
          <path
             id="path3287"
             d="M 7784,15815 L 7752,15777 L 7866,15679 L 7979,15581 L 8011,15618 L 7898,15716 L 7784,15815 z "
             style="fill:#ffffff;fill-opacity:1" />
          <path
             id="path3289"
             d="M 7866,15679 L 7752,15777 L 7742,15764 L 7866,15679 z "
             style="fill:#ffffff;fill-opacity:1" />
          <path
             id="path3291"
             d="M 7742,15764 L 7713,15723 L 7837,15638 L 7961,15553 L 7989,15594 L 7866,15679 L 7742,15764 z "
             style="fill:#ffffff;fill-opacity:1" />
          <path
             id="path3293"
             d="M 7837,15638 L 7713,15723 L 7705,15708 L 7837,15638 z "
             style="fill:#ffffff;fill-opacity:1" />
          <path
             id="path3295"
             d="M 7705,15708 L 7680,15663 L 7812,15592 L 7945,15521 L 7969,15567 L 7837,15638 L 7705,15708 z "
             style="fill:#ffffff;fill-opacity:1" />
          <path
             id="path3297"
             d="M 7812,15592 L 7680,15663 L 7673,15648 L 7812,15592 z "
             style="fill:#ffffff;fill-opacity:1" />
          <path
             id="path3299"
             d="M 7673,15648 L 7653,15597 L 7792,15542 L 7932,15486 L 7952,15536 L 7812,15592 L 7673,15648 z "
             style="fill:#ffffff;fill-opacity:1" />
          <path
             id="path3301"
             d="M 7792,15542 L 7653,15597 L 7648,15582 L 7792,15542 z "
             style="fill:#ffffff;fill-opacity:1" />
          <path
             id="path3303"
             d="M 7648,15582 L 7633,15528 L 7777,15487 L 7921,15446 L 7937,15501 L 7792,15542 L 7648,15582 z "
             style="fill:#ffffff;fill-opacity:1" />
        </g>
        <g
           id="g3305"
           style="fill:#ffffff;fill-opacity:1" />
      </g>
    </g>
  </g>
</svg>
