<?xml version="1.0" encoding="UTF-8" standalone="no"?>
<!-- Created with Inkscape (http://www.inkscape.org/) -->
<svg
   xmlns:dc="http://purl.org/dc/elements/1.1/"
   xmlns:cc="http://web.resource.org/cc/"
   xmlns:rdf="http://www.w3.org/1999/02/22-rdf-syntax-ns#"
   xmlns:svg="http://www.w3.org/2000/svg"
   xmlns="http://www.w3.org/2000/svg"
   xmlns:sodipodi="http://sodipodi.sourceforge.net/DTD/sodipodi-0.dtd"
   xmlns:inkscape="http://www.inkscape.org/namespaces/inkscape"
   width="1cm"
   height="1cm"
   id="svg9908"
   sodipodi:version="0.32"
   inkscape:version="0.45"
   version="1.0"
   sodipodi:docbase="/data/world/proj/Kproj/symsolon/share/symsolon/aspects"
   sodipodi:docname="aspect-quinqueundecim.svg"
   inkscape:output_extension="org.inkscape.output.svg.inkscape"
   sodipodi:modified="true">
  <defs
     id="defs9910" />
  <sodipodi:namedview
     id="base"
     pagecolor="#000000"
     bordercolor="#666666"
     borderopacity="1.0"
     inkscape:pageopacity="1"
     inkscape:pageshadow="2"
     inkscape:zoom="7.0170015"
     inkscape:cx="0.79131245"
     inkscape:cy="17.556514"
     inkscape:document-units="px"
     inkscape:current-layer="layer1"
     inkscape:window-width="966"
     inkscape:window-height="626"
     inkscape:window-x="10"
     inkscape:window-y="73" />
  <metadata
     id="metadata9913">
    <rdf:RDF>
      <cc:Work
         rdf:about="">
        <dc:format>image/svg+xml</dc:format>
        <dc:type
           rdf:resource="http://purl.org/dc/dcmitype/StillImage" />
      </cc:Work>
    </rdf:RDF>
  </metadata>
  <g
     inkscape:label="1. réteg"
     inkscape:groupmode="layer"
     id="layer1">
    <g
       transform="matrix(1.6395108e-2,0,0,1.6395108e-2,-267.48765,-353.75542)"
       style="fill:#ffffff;fill-opacity:1;visibility:visible"
       id="g3679">
      <desc
         id="desc3681">Drawing</desc>
      <g
         id="g3683"
         style="fill:#ffffff;fill-opacity:1">
        <g
           id="g3685"
           style="fill:#ffffff;fill-opacity:1;stroke:none">
          <path
             id="path3687"
             d="M 16943,21680 L 17172,21716 L 17149,21864 L 17126,22012 L 16897,21976 L 16920,21828 L 16943,21680 z "
             style="fill:#ffffff;fill-opacity:1" />
          <path
             id="path3689"
             d="M 17149,21864 L 17172,21716 L 17189,21720 L 17149,21864 z "
             style="fill:#ffffff;fill-opacity:1" />
          <path
             id="path3691"
             d="M 17189,21720 L 17290,21748 L 17250,21892 L 17209,22037 L 17109,22009 L 17149,21864 L 17189,21720 z "
             style="fill:#ffffff;fill-opacity:1" />
          <path
             id="path3693"
             d="M 17250,21892 L 17290,21748 L 17302,21752 L 17250,21892 z "
             style="fill:#ffffff;fill-opacity:1" />
          <path
             id="path3695"
             d="M 17302,21752 L 17394,21786 L 17341,21926 L 17289,22067 L 17197,22033 L 17250,21892 L 17302,21752 z "
             style="fill:#ffffff;fill-opacity:1" />
          <path
             id="path3697"
             d="M 17341,21926 L 17394,21786 L 17406,21791 L 17341,21926 z "
             style="fill:#ffffff;fill-opacity:1" />
          <path
             id="path3699"
             d="M 17406,21791 L 17489,21831 L 17424,21966 L 17359,22101 L 17276,22062 L 17341,21926 L 17406,21791 z "
             style="fill:#ffffff;fill-opacity:1" />
          <path
             id="path3701"
             d="M 17424,21966 L 17489,21831 L 17502,21838 L 17424,21966 z "
             style="fill:#ffffff;fill-opacity:1" />
          <path
             id="path3703"
             d="M 17502,21838 L 17576,21883 L 17498,22011 L 17420,22139 L 17346,22094 L 17424,21966 L 17502,21838 z "
             style="fill:#ffffff;fill-opacity:1" />
          <path
             id="path3705"
             d="M 17498,22011 L 17576,21883 L 17588,21891 L 17498,22011 z "
             style="fill:#ffffff;fill-opacity:1" />
          <path
             id="path3707"
             d="M 17588,21891 L 17654,21941 L 17563,22061 L 17473,22180 L 17407,22131 L 17498,22011 L 17588,21891 z "
             style="fill:#ffffff;fill-opacity:1" />
          <path
             id="path3709"
             d="M 17563,22061 L 17654,21941 L 17666,21951 L 17563,22061 z "
             style="fill:#ffffff;fill-opacity:1" />
          <path
             id="path3711"
             d="M 17666,21951 L 17723,22005 L 17620,22114 L 17517,22224 L 17460,22170 L 17563,22061 L 17666,21951 z "
             style="fill:#ffffff;fill-opacity:1" />
          <path
             id="path3713"
             d="M 17620,22114 L 17723,22005 L 17735,22017 L 17620,22114 z "
             style="fill:#ffffff;fill-opacity:1" />
          <path
             id="path3715"
             d="M 17735,22017 L 17784,22075 L 17669,22172 L 17555,22269 L 17506,22212 L 17620,22114 L 17735,22017 z "
             style="fill:#ffffff;fill-opacity:1" />
          <path
             id="path3717"
             d="M 17669,22172 L 17784,22075 L 17794,22088 L 17669,22172 z "
             style="fill:#ffffff;fill-opacity:1" />
          <path
             id="path3719"
             d="M 17794,22088 L 17835,22149 L 17710,22233 L 17585,22316 L 17545,22256 L 17669,22172 L 17794,22088 z "
             style="fill:#ffffff;fill-opacity:1" />
          <path
             id="path3721"
             d="M 17710,22233 L 17835,22149 L 17843,22164 L 17710,22233 z "
             style="fill:#ffffff;fill-opacity:1" />
          <path
             id="path3723"
             d="M 17843,22164 L 17876,22228 L 17743,22297 L 17610,22366 L 17577,22302 L 17710,22233 L 17843,22164 z "
             style="fill:#ffffff;fill-opacity:1" />
          <path
             id="path3725"
             d="M 17743,22297 L 17876,22228 L 17883,22243 L 17743,22297 z "
             style="fill:#ffffff;fill-opacity:1" />
          <path
             id="path3727"
             d="M 17883,22243 L 17908,22309 L 17768,22363 L 17628,22416 L 17603,22350 L 17743,22297 L 17883,22243 z "
             style="fill:#ffffff;fill-opacity:1" />
          <path
             id="path3729"
             d="M 17768,22363 L 17908,22309 L 17913,22325 L 17768,22363 z "
             style="fill:#ffffff;fill-opacity:1" />
          <path
             id="path3731"
             d="M 17913,22325 L 17931,22393 L 17786,22431 L 17641,22469 L 17623,22401 L 17768,22363 L 17913,22325 z "
             style="fill:#ffffff;fill-opacity:1" />
          <path
             id="path3733"
             d="M 17786,22431 L 17931,22393 L 17934,22408 L 17786,22431 z "
             style="fill:#ffffff;fill-opacity:1" />
          <path
             id="path3735"
             d="M 17934,22408 L 17945,22478 L 17797,22500 L 17648,22522 L 17638,22453 L 17786,22431 L 17934,22408 z "
             style="fill:#ffffff;fill-opacity:1" />
          <path
             id="path3737"
             d="M 17797,22500 L 17945,22478 L 17946,22493 L 17797,22500 z "
             style="fill:#ffffff;fill-opacity:1" />
          <path
             id="path3739"
             d="M 17946,22493 L 17950,22564 L 17800,22571 L 17650,22578 L 17647,22507 L 17797,22500 L 17946,22493 z "
             style="fill:#ffffff;fill-opacity:1" />
          <path
             id="path3741"
             d="M 17800,22571 L 17950,22564 L 17950,22579 L 17800,22571 z "
             style="fill:#ffffff;fill-opacity:1" />
          <path
             id="path3743"
             d="M 17950,22579 L 17946,22650 L 17796,22642 L 17646,22634 L 17650,22563 L 17800,22571 L 17950,22579 z "
             style="fill:#ffffff;fill-opacity:1" />
          <path
             id="path3745"
             d="M 17796,22642 L 17946,22650 L 17944,22664 L 17796,22642 z "
             style="fill:#ffffff;fill-opacity:1" />
          <path
             id="path3747"
             d="M 17944,22664 L 17934,22735 L 17785,22713 L 17637,22691 L 17648,22620 L 17796,22642 L 17944,22664 z "
             style="fill:#ffffff;fill-opacity:1" />
          <path
             id="path3749"
             d="M 17785,22713 L 17934,22735 L 17931,22749 L 17785,22713 z "
             style="fill:#ffffff;fill-opacity:1" />
          <path
             id="path3751"
             d="M 17931,22749 L 17914,22819 L 17768,22784 L 17622,22748 L 17640,22678 L 17785,22713 L 17931,22749 z "
             style="fill:#ffffff;fill-opacity:1" />
          <path
             id="path3753"
             d="M 17768,22784 L 17914,22819 L 17910,22832 L 17768,22784 z "
             style="fill:#ffffff;fill-opacity:1" />
          <path
             id="path3755"
             d="M 17910,22832 L 17886,22902 L 17744,22854 L 17602,22806 L 17626,22736 L 17768,22784 L 17910,22832 z "
             style="fill:#ffffff;fill-opacity:1" />
          <path
             id="path3757"
             d="M 17744,22854 L 17886,22902 L 17882,22914 L 17744,22854 z "
             style="fill:#ffffff;fill-opacity:1" />
          <path
             id="path3759"
             d="M 17882,22914 L 17852,22983 L 17714,22923 L 17577,22863 L 17607,22794 L 17744,22854 L 17882,22914 z "
             style="fill:#ffffff;fill-opacity:1" />
          <path
             id="path3761"
             d="M 17714,22923 L 17852,22983 L 17846,22994 L 17714,22923 z "
             style="fill:#ffffff;fill-opacity:1" />
          <path
             id="path3763"
             d="M 17846,22994 L 17810,23061 L 17678,22990 L 17546,22918 L 17582,22851 L 17714,22923 L 17846,22994 z "
             style="fill:#ffffff;fill-opacity:1" />
          <path
             id="path3765"
             d="M 17678,22990 L 17810,23061 L 17804,23072 L 17678,22990 z "
             style="fill:#ffffff;fill-opacity:1" />
          <path
             id="path3767"
             d="M 17804,23072 L 17761,23137 L 17636,23055 L 17510,22973 L 17552,22908 L 17678,22990 L 17804,23072 z "
             style="fill:#ffffff;fill-opacity:1" />
          <path
             id="path3769"
             d="M 17636,23055 L 17761,23137 L 17750,23151 L 17636,23055 z "
             style="fill:#ffffff;fill-opacity:1" />
          <path
             id="path3771"
             d="M 17750,23151 L 17649,23272 L 17534,23176 L 17419,23079 L 17521,22958 L 17636,23055 L 17750,23151 z "
             style="fill:#ffffff;fill-opacity:1" />
          <path
             id="path3773"
             d="M 17534,23176 L 17649,23272 L 17632,23289 L 17534,23176 z "
             style="fill:#ffffff;fill-opacity:1" />
          <path
             id="path3775"
             d="M 17632,23289 L 17508,23396 L 17410,23283 L 17312,23169 L 17436,23062 L 17534,23176 L 17632,23289 z "
             style="fill:#ffffff;fill-opacity:1" />
          <path
             id="path3777"
             d="M 17410,23283 L 17508,23396 L 17489,23411 L 17410,23283 z "
             style="fill:#ffffff;fill-opacity:1" />
          <path
             id="path3779"
             d="M 17489,23411 L 17344,23500 L 17265,23372 L 17187,23244 L 17331,23155 L 17410,23283 L 17489,23411 z "
             style="fill:#ffffff;fill-opacity:1" />
          <path
             id="path3781"
             d="M 17265,23372 L 17344,23500 L 17328,23508 L 17265,23372 z "
             style="fill:#ffffff;fill-opacity:1" />
          <path
             id="path3783"
             d="M 17328,23508 L 17249,23545 L 17186,23409 L 17123,23273 L 17202,23236 L 17265,23372 L 17328,23508 z "
             style="fill:#ffffff;fill-opacity:1" />
          <path
             id="path3785"
             d="M 17186,23409 L 17249,23545 L 17237,23550 L 17186,23409 z "
             style="fill:#ffffff;fill-opacity:1" />
          <path
             id="path3787"
             d="M 17237,23550 L 17153,23580 L 17102,23440 L 17050,23299 L 17134,23268 L 17186,23409 L 17237,23550 z "
             style="fill:#ffffff;fill-opacity:1" />
          <path
             id="path3789"
             d="M 17102,23440 L 17153,23580 L 17142,23584 L 17102,23440 z "
             style="fill:#ffffff;fill-opacity:1" />
          <path
             id="path3791"
             d="M 17142,23584 L 17053,23609 L 17013,23464 L 16973,23320 L 17062,23295 L 17102,23440 L 17142,23584 z "
             style="fill:#ffffff;fill-opacity:1" />
          <path
             id="path3793"
             d="M 17013,23464 L 17053,23609 L 17041,23612 L 17013,23464 z "
             style="fill:#ffffff;fill-opacity:1" />
          <path
             id="path3795"
             d="M 17041,23612 L 16948,23629 L 16920,23482 L 16892,23335 L 16985,23317 L 17013,23464 L 17041,23612 z "
             style="fill:#ffffff;fill-opacity:1" />
        </g>
        <g
           id="g3797"
           style="fill:#ffffff;fill-opacity:1" />
      </g>
    </g>
    <g
       transform="matrix(1.6395108e-2,0,0,1.6395108e-2,-267.48765,-354.71249)"
       style="fill:#ffffff;fill-opacity:1;visibility:visible"
       id="g3799">
      <desc
         id="desc3801">Drawing</desc>
      <g
         id="g3803"
         style="fill:#ffffff;fill-opacity:1">
        <g
           id="g3805"
           style="fill:#ffffff;fill-opacity:1;stroke:none">
          <path
             id="path3807"
             d="M 17070,21730 L 17070,23682 L 16770,23682 L 16770,21730 L 17070,21730 z "
             style="fill:#ffffff;fill-opacity:1" />
        </g>
        <g
           id="g3809"
           style="fill:#ffffff;fill-opacity:1" />
      </g>
    </g>
    <g
       transform="matrix(1.6395108e-2,0,0,1.6395108e-2,-267.48765,-354.71249)"
       style="fill:#ffffff;fill-opacity:1;visibility:visible"
       id="g4503">
      <desc
         id="desc4505">Drawing</desc>
      <g
         id="g4507"
         style="fill:#ffffff;fill-opacity:1">
        <g
           id="g4509"
           style="fill:#ffffff;fill-opacity:1;stroke:none">
          <path
             id="path4511"
             d="M 17955,23645 L 17242,22931 L 17454,22719 L 18167,23433 L 17955,23645 z "
             style="fill:#ffffff;fill-opacity:1" />
        </g>
        <g
           id="g4513"
           style="fill:#ffffff;fill-opacity:1" />
      </g>
    </g>
  </g>
</svg>
