<?xml version="1.0" encoding="UTF-8" standalone="no"?>
<!-- Created with Inkscape (http://www.inkscape.org/) -->
<svg
   xmlns:dc="http://purl.org/dc/elements/1.1/"
   xmlns:cc="http://web.resource.org/cc/"
   xmlns:rdf="http://www.w3.org/1999/02/22-rdf-syntax-ns#"
   xmlns:svg="http://www.w3.org/2000/svg"
   xmlns="http://www.w3.org/2000/svg"
   xmlns:sodipodi="http://sodipodi.sourceforge.net/DTD/sodipodi-0.dtd"
   xmlns:inkscape="http://www.inkscape.org/namespaces/inkscape"
   width="1cm"
   height="1cm"
   id="svg9908"
   sodipodi:version="0.32"
   inkscape:version="0.45"
   version="1.0"
   sodipodi:docbase="/data/world/proj/Kproj/symsolon/share/symsolon/aspects"
   sodipodi:docname="aspect-binovil.svg"
   inkscape:output_extension="org.inkscape.output.svg.inkscape"
   sodipodi:modified="true">
  <defs
     id="defs9910" />
  <sodipodi:namedview
     id="base"
     pagecolor="#000000"
     bordercolor="#666666"
     borderopacity="1.0"
     inkscape:pageopacity="1"
     inkscape:pageshadow="2"
     inkscape:zoom="7.0170015"
     inkscape:cx="0.79131245"
     inkscape:cy="17.556514"
     inkscape:document-units="px"
     inkscape:current-layer="layer1"
     inkscape:window-width="966"
     inkscape:window-height="626"
     inkscape:window-x="10"
     inkscape:window-y="73" />
  <metadata
     id="metadata9913">
    <rdf:RDF>
      <cc:Work
         rdf:about="">
        <dc:format>image/svg+xml</dc:format>
        <dc:type
           rdf:resource="http://purl.org/dc/dcmitype/StillImage" />
      </cc:Work>
    </rdf:RDF>
  </metadata>
  <g
     inkscape:label="1. réteg"
     inkscape:groupmode="layer"
     id="layer1">
    <g
       transform="matrix(1.2066762e-2,0,0,1.2066762e-2,-134.23741,-207.09637)"
       style="fill:#ffffff;fill-opacity:1;visibility:visible"
       id="g3971">
      <desc
         id="desc3973">Drawing</desc>
      <g
         id="g3975"
         style="fill:#ffffff;fill-opacity:1">
        <g
           id="g3977"
           style="fill:#ffffff;fill-opacity:1;stroke:none">
          <path
             id="path3979"
             d="M 12532,19682 L 12533,17778 L 12683,17778 L 12833,17778 L 12832,19682 L 12682,19682 L 12532,19682 z "
             style="fill:#ffffff;fill-opacity:1" />
          <path
             id="path3981"
             d="M 12683,17778 L 12533,17778 L 12535,17752 L 12542,17727 L 12553,17703 L 12568,17682 L 12587,17663 L 12608,17648 L 12632,17637 L 12657,17630 L 12683,17628 L 12709,17630 L 12734,17637 L 12758,17648 L 12779,17663 L 12798,17682 L 12811,17700 L 12683,17778 z "
             style="fill:#ffffff;fill-opacity:1" />
          <path
             id="path3983"
             d="M 12811,17700 L 13858,19414 L 13730,19492 L 13602,19570 L 12555,17856 L 12683,17778 L 12811,17700 z "
             style="fill:#ffffff;fill-opacity:1" />
          <path
             id="path3985"
             d="M 13730,19492 L 13880,19492 L 13878,19518 L 13871,19543 L 13860,19567 L 13845,19588 L 13826,19607 L 13805,19622 L 13781,19633 L 13756,19640 L 13730,19642 L 13704,19640 L 13679,19633 L 13655,19622 L 13634,19607 L 13615,19588 L 13602,19570 L 13730,19492 z "
             style="fill:#ffffff;fill-opacity:1" />
          <path
             id="path3987"
             d="M 13580,19492 L 13580,17587 L 13730,17587 L 13880,17587 L 13880,19492 L 13730,19492 L 13580,19492 z "
             style="fill:#ffffff;fill-opacity:1" />
        </g>
        <g
           id="g3989"
           style="fill:#ffffff;fill-opacity:1" />
      </g>
    </g>
    <g
       transform="matrix(1.2066762e-2,0,0,1.2066762e-2,-134.23741,-207.09637)"
       style="fill:#ffffff;fill-opacity:1;visibility:visible"
       id="g4841">
      <desc
         id="desc4843">Drawing</desc>
      <g
         id="g4845"
         style="fill:#ffffff;fill-opacity:1">
        <g
           id="g4847"
           style="fill:#ffffff;fill-opacity:1;stroke:none">
          <path
             id="path4849"
             d="M 12448,18169 L 11495,19122 L 11389,19016 L 11283,18910 L 12236,17957 L 12342,18063 L 12448,18169 z "
             style="fill:#ffffff;fill-opacity:1" />
          <path
             id="path4851"
             d="M 11389,19016 L 11389,19166 L 11363,19164 L 11338,19157 L 11314,19146 L 11293,19131 L 11274,19112 L 11259,19091 L 11248,19067 L 11241,19042 L 11239,19016 L 11241,18990 L 11248,18965 L 11259,18941 L 11274,18920 L 11283,18910 L 11389,19016 z "
             style="fill:#ffffff;fill-opacity:1" />
          <path
             id="path4853"
             d="M 11389,18866 L 12396,18866 L 12396,19016 L 12396,19166 L 11389,19166 L 11389,19016 L 11389,18866 z "
             style="fill:#ffffff;fill-opacity:1" />
        </g>
        <g
           id="g4855"
           style="fill:#ffffff;fill-opacity:1" />
      </g>
    </g>
    <g
       transform="matrix(1.2066762e-2,0,0,1.2066762e-2,-134.23741,-207.09637)"
       style="fill:#ffffff;fill-opacity:1;visibility:visible"
       id="g4857">
      <desc
         id="desc4859">Drawing</desc>
      <g
         id="g4861"
         style="fill:#ffffff;fill-opacity:1">
        <g
           id="g4863"
           style="fill:#ffffff;fill-opacity:1;stroke:none">
          <path
             id="path4865"
             d="M 12261,18682 L 12261,19492 L 11961,19492 L 11961,18682 L 12261,18682 z "
             style="fill:#ffffff;fill-opacity:1" />
        </g>
        <g
           id="g4867"
           style="fill:#ffffff;fill-opacity:1" />
      </g>
    </g>
  </g>
</svg>
