<?xml version="1.0" encoding="UTF-8" standalone="no"?>
<!-- Created with Inkscape (http://www.inkscape.org/) -->
<svg
   xmlns:dc="http://purl.org/dc/elements/1.1/"
   xmlns:cc="http://web.resource.org/cc/"
   xmlns:rdf="http://www.w3.org/1999/02/22-rdf-syntax-ns#"
   xmlns:svg="http://www.w3.org/2000/svg"
   xmlns="http://www.w3.org/2000/svg"
   xmlns:sodipodi="http://sodipodi.sourceforge.net/DTD/sodipodi-0.dtd"
   xmlns:inkscape="http://www.inkscape.org/namespaces/inkscape"
   width="1cm"
   height="1cm"
   id="svg9908"
   sodipodi:version="0.32"
   inkscape:version="0.45"
   version="1.0"
   sodipodi:docbase="/data/world/proj/Kproj/symsolon/share/symsolon/aspects"
   sodipodi:docname="aspect-mirrorpoint.svg"
   inkscape:output_extension="org.inkscape.output.svg.inkscape"
   sodipodi:modified="true">
  <defs
     id="defs9910" />
  <sodipodi:namedview
     id="base"
     pagecolor="#000000"
     bordercolor="#666666"
     borderopacity="1.0"
     inkscape:pageopacity="1"
     inkscape:pageshadow="2"
     inkscape:zoom="7.0170015"
     inkscape:cx="0.79131245"
     inkscape:cy="17.556514"
     inkscape:document-units="px"
     inkscape:current-layer="layer1"
     inkscape:window-width="966"
     inkscape:window-height="626"
     inkscape:window-x="10"
     inkscape:window-y="73" />
  <metadata
     id="metadata9913">
    <rdf:RDF>
      <cc:Work
         rdf:about="">
        <dc:format>image/svg+xml</dc:format>
        <dc:type
           rdf:resource="http://purl.org/dc/dcmitype/StillImage" />
      </cc:Work>
    </rdf:RDF>
  </metadata>
  <g
     inkscape:label="1. réteg"
     inkscape:groupmode="layer"
     id="layer1">
    <g
       transform="matrix(1.2500621e-2,0,0,1.2500621e-2,-18.119156,-116.63496)"
       style="fill:#ffffff;fill-opacity:1;visibility:visible"
       id="g1567">
      <desc
         id="desc1569">Drawing</desc>
      <g
         id="g1571"
         style="fill:#ffffff;fill-opacity:1">
        <g
           id="g1573"
           style="fill:#ffffff;fill-opacity:1;stroke:none">
          <path
             id="path1575"
             d="M 2864,11923 L 2772,11917 L 2781,11768 L 2789,11618 L 2882,11623 L 2873,11773 L 2864,11923 z "
             style="fill:#ffffff;fill-opacity:1" />
          <path
             id="path1577"
             d="M 2781,11768 L 2772,11917 L 2754,11915 L 2781,11768 z "
             style="fill:#ffffff;fill-opacity:1" />
          <path
             id="path1579"
             d="M 2754,11915 L 2665,11899 L 2691,11752 L 2717,11604 L 2807,11620 L 2781,11768 L 2754,11915 z "
             style="fill:#ffffff;fill-opacity:1" />
          <path
             id="path1581"
             d="M 2691,11752 L 2665,11899 L 2648,11895 L 2691,11752 z "
             style="fill:#ffffff;fill-opacity:1" />
          <path
             id="path1583"
             d="M 2648,11895 L 2561,11870 L 2604,11726 L 2647,11582 L 2734,11608 L 2691,11752 L 2648,11895 z "
             style="fill:#ffffff;fill-opacity:1" />
          <path
             id="path1585"
             d="M 2604,11726 L 2561,11870 L 2546,11864 L 2604,11726 z "
             style="fill:#ffffff;fill-opacity:1" />
          <path
             id="path1587"
             d="M 2546,11864 L 2462,11829 L 2521,11691 L 2580,11552 L 2663,11588 L 2604,11726 L 2546,11864 z "
             style="fill:#ffffff;fill-opacity:1" />
          <path
             id="path1589"
             d="M 2521,11691 L 2462,11829 L 2448,11821 L 2521,11691 z "
             style="fill:#ffffff;fill-opacity:1" />
          <path
             id="path1591"
             d="M 2448,11821 L 2369,11777 L 2442,11646 L 2515,11515 L 2594,11560 L 2521,11691 L 2448,11821 z "
             style="fill:#ffffff;fill-opacity:1" />
          <path
             id="path1593"
             d="M 2442,11646 L 2369,11777 L 2356,11769 L 2442,11646 z "
             style="fill:#ffffff;fill-opacity:1" />
          <path
             id="path1595"
             d="M 2356,11769 L 2281,11716 L 2367,11594 L 2454,11471 L 2528,11524 L 2442,11646 L 2356,11769 z "
             style="fill:#ffffff;fill-opacity:1" />
          <path
             id="path1597"
             d="M 2367,11594 L 2281,11716 L 2269,11707 L 2367,11594 z "
             style="fill:#ffffff;fill-opacity:1" />
          <path
             id="path1599"
             d="M 2269,11707 L 2199,11647 L 2298,11533 L 2396,11420 L 2466,11480 L 2367,11594 L 2269,11707 z "
             style="fill:#ffffff;fill-opacity:1" />
          <path
             id="path1601"
             d="M 2298,11533 L 2199,11647 L 2189,11637 L 2298,11533 z "
             style="fill:#ffffff;fill-opacity:1" />
          <path
             id="path1603"
             d="M 2189,11637 L 2125,11569 L 2233,11466 L 2342,11362 L 2406,11430 L 2298,11533 L 2189,11637 z "
             style="fill:#ffffff;fill-opacity:1" />
          <path
             id="path1605"
             d="M 2233,11466 L 2125,11569 L 2115,11558 L 2233,11466 z "
             style="fill:#ffffff;fill-opacity:1" />
          <path
             id="path1607"
             d="M 2115,11558 L 2057,11484 L 2175,11391 L 2293,11299 L 2351,11373 L 2233,11466 L 2115,11558 z "
             style="fill:#ffffff;fill-opacity:1" />
          <path
             id="path1609"
             d="M 2175,11391 L 2057,11484 L 2049,11473 L 2175,11391 z "
             style="fill:#ffffff;fill-opacity:1" />
          <path
             id="path1611"
             d="M 2049,11473 L 1997,11392 L 2123,11311 L 2249,11229 L 2301,11310 L 2175,11391 L 2049,11473 z "
             style="fill:#ffffff;fill-opacity:1" />
          <path
             id="path1613"
             d="M 2123,11311 L 1997,11392 L 1990,11380 L 2123,11311 z "
             style="fill:#ffffff;fill-opacity:1" />
          <path
             id="path1615"
             d="M 1990,11380 L 1945,11294 L 2077,11224 L 2210,11154 L 2256,11241 L 2123,11311 L 1990,11380 z "
             style="fill:#ffffff;fill-opacity:1" />
          <path
             id="path1617"
             d="M 2077,11224 L 1945,11294 L 1939,11282 L 2077,11224 z "
             style="fill:#ffffff;fill-opacity:1" />
          <path
             id="path1619"
             d="M 1939,11282 L 1901,11190 L 2039,11133 L 2178,11075 L 2216,11167 L 2077,11224 L 1939,11282 z "
             style="fill:#ffffff;fill-opacity:1" />
          <path
             id="path1621"
             d="M 2039,11133 L 1901,11190 L 1896,11178 L 2039,11133 z "
             style="fill:#ffffff;fill-opacity:1" />
          <path
             id="path1623"
             d="M 1896,11178 L 1866,11082 L 2009,11036 L 2152,10991 L 2182,11087 L 2039,11133 L 1896,11178 z "
             style="fill:#ffffff;fill-opacity:1" />
          <path
             id="path1625"
             d="M 2009,11036 L 1866,11082 L 1862,11069 L 2009,11036 z "
             style="fill:#ffffff;fill-opacity:1" />
          <path
             id="path1627"
             d="M 1862,11069 L 1840,10969 L 1986,10936 L 2133,10903 L 2155,11004 L 2009,11036 L 1862,11069 z "
             style="fill:#ffffff;fill-opacity:1" />
          <path
             id="path1629"
             d="M 1986,10936 L 1840,10969 L 1838,10956 L 1986,10936 z "
             style="fill:#ffffff;fill-opacity:1" />
          <path
             id="path1631"
             d="M 1838,10956 L 1824,10852 L 1973,10832 L 2121,10812 L 2135,10916 L 1986,10936 L 1838,10956 z "
             style="fill:#ffffff;fill-opacity:1" />
          <path
             id="path1633"
             d="M 1973,10832 L 1824,10852 L 1823,10839 L 1973,10832 z "
             style="fill:#ffffff;fill-opacity:1" />
          <path
             id="path1635"
             d="M 1823,10839 L 1818,10732 L 1968,10725 L 2118,10718 L 2123,10825 L 1973,10832 L 1823,10839 z "
             style="fill:#ffffff;fill-opacity:1" />
          <path
             id="path1637"
             d="M 1968,10725 L 1818,10732 L 1818,10718 L 1968,10725 z "
             style="fill:#ffffff;fill-opacity:1" />
          <path
             id="path1639"
             d="M 1818,10718 L 1823,10611 L 1973,10618 L 2123,10625 L 2118,10732 L 1968,10725 L 1818,10718 z "
             style="fill:#ffffff;fill-opacity:1" />
          <path
             id="path1641"
             d="M 1973,10618 L 1823,10611 L 1824,10598 L 1973,10618 z "
             style="fill:#ffffff;fill-opacity:1" />
          <path
             id="path1643"
             d="M 1824,10598 L 1838,10494 L 1986,10514 L 2135,10534 L 2121,10638 L 1973,10618 L 1824,10598 z "
             style="fill:#ffffff;fill-opacity:1" />
          <path
             id="path1645"
             d="M 1986,10514 L 1838,10494 L 1840,10481 L 1986,10514 z "
             style="fill:#ffffff;fill-opacity:1" />
          <path
             id="path1647"
             d="M 1840,10481 L 1862,10381 L 2009,10414 L 2155,10446 L 2133,10547 L 1986,10514 L 1840,10481 z "
             style="fill:#ffffff;fill-opacity:1" />
          <path
             id="path1649"
             d="M 2009,10414 L 1862,10381 L 1866,10368 L 2009,10414 z "
             style="fill:#ffffff;fill-opacity:1" />
          <path
             id="path1651"
             d="M 1866,10368 L 1896,10272 L 2039,10317 L 2182,10363 L 2152,10459 L 2009,10414 L 1866,10368 z "
             style="fill:#ffffff;fill-opacity:1" />
          <path
             id="path1653"
             d="M 2039,10317 L 1896,10272 L 1901,10260 L 2039,10317 z "
             style="fill:#ffffff;fill-opacity:1" />
          <path
             id="path1655"
             d="M 1901,10260 L 1939,10168 L 2077,10226 L 2216,10283 L 2178,10375 L 2039,10317 L 1901,10260 z "
             style="fill:#ffffff;fill-opacity:1" />
          <path
             id="path1657"
             d="M 2077,10226 L 1939,10168 L 1945,10156 L 2077,10226 z "
             style="fill:#ffffff;fill-opacity:1" />
          <path
             id="path1659"
             d="M 1945,10156 L 1990,10070 L 2123,10139 L 2256,10209 L 2210,10296 L 2077,10226 L 1945,10156 z "
             style="fill:#ffffff;fill-opacity:1" />
          <path
             id="path1661"
             d="M 2123,10139 L 1990,10070 L 1997,10058 L 2123,10139 z "
             style="fill:#ffffff;fill-opacity:1" />
          <path
             id="path1663"
             d="M 1997,10058 L 2049,9977 L 2175,10059 L 2301,10140 L 2249,10221 L 2123,10139 L 1997,10058 z "
             style="fill:#ffffff;fill-opacity:1" />
          <path
             id="path1665"
             d="M 2175,10059 L 2049,9977 L 2057,9966 L 2175,10059 z "
             style="fill:#ffffff;fill-opacity:1" />
          <path
             id="path1667"
             d="M 2057,9966 L 2115,9892 L 2233,9984 L 2351,10077 L 2293,10151 L 2175,10059 L 2057,9966 z "
             style="fill:#ffffff;fill-opacity:1" />
          <path
             id="path1669"
             d="M 2233,9984 L 2115,9892 L 2125,9881 L 2233,9984 z "
             style="fill:#ffffff;fill-opacity:1" />
          <path
             id="path1671"
             d="M 2125,9881 L 2189,9813 L 2298,9917 L 2406,10020 L 2342,10088 L 2233,9984 L 2125,9881 z "
             style="fill:#ffffff;fill-opacity:1" />
          <path
             id="path1673"
             d="M 2298,9917 L 2189,9813 L 2199,9803 L 2298,9917 z "
             style="fill:#ffffff;fill-opacity:1" />
          <path
             id="path1675"
             d="M 2199,9803 L 2269,9743 L 2367,9856 L 2466,9970 L 2396,10030 L 2298,9917 L 2199,9803 z "
             style="fill:#ffffff;fill-opacity:1" />
          <path
             id="path1677"
             d="M 2367,9856 L 2269,9743 L 2281,9734 L 2367,9856 z "
             style="fill:#ffffff;fill-opacity:1" />
          <path
             id="path1679"
             d="M 2281,9734 L 2356,9681 L 2442,9804 L 2528,9926 L 2454,9979 L 2367,9856 L 2281,9734 z "
             style="fill:#ffffff;fill-opacity:1" />
          <path
             id="path1681"
             d="M 2442,9804 L 2356,9681 L 2369,9673 L 2442,9804 z "
             style="fill:#ffffff;fill-opacity:1" />
          <path
             id="path1683"
             d="M 2369,9673 L 2448,9629 L 2521,9759 L 2594,9890 L 2515,9935 L 2442,9804 L 2369,9673 z "
             style="fill:#ffffff;fill-opacity:1" />
          <path
             id="path1685"
             d="M 2521,9759 L 2448,9629 L 2462,9621 L 2521,9759 z "
             style="fill:#ffffff;fill-opacity:1" />
          <path
             id="path1687"
             d="M 2462,9621 L 2546,9586 L 2604,9724 L 2663,9862 L 2580,9898 L 2521,9759 L 2462,9621 z "
             style="fill:#ffffff;fill-opacity:1" />
          <path
             id="path1689"
             d="M 2604,9724 L 2546,9586 L 2561,9580 L 2604,9724 z "
             style="fill:#ffffff;fill-opacity:1" />
          <path
             id="path1691"
             d="M 2561,9580 L 2648,9555 L 2691,9698 L 2734,9842 L 2647,9868 L 2604,9724 L 2561,9580 z "
             style="fill:#ffffff;fill-opacity:1" />
          <path
             id="path1693"
             d="M 2691,9698 L 2648,9555 L 2665,9551 L 2691,9698 z "
             style="fill:#ffffff;fill-opacity:1" />
          <path
             id="path1695"
             d="M 2665,9551 L 2754,9535 L 2781,9682 L 2807,9830 L 2717,9846 L 2691,9698 L 2665,9551 z "
             style="fill:#ffffff;fill-opacity:1" />
          <path
             id="path1697"
             d="M 2781,9682 L 2754,9535 L 2772,9533 L 2781,9682 z "
             style="fill:#ffffff;fill-opacity:1" />
          <path
             id="path1699"
             d="M 2772,9533 L 2864,9527 L 2873,9677 L 2882,9827 L 2789,9832 L 2781,9682 L 2772,9533 z "
             style="fill:#ffffff;fill-opacity:1" />
          <path
             id="path1701"
             d="M 2873,9677 L 2864,9527 L 2882,9527 L 2873,9677 z "
             style="fill:#ffffff;fill-opacity:1" />
          <path
             id="path1703"
             d="M 2882,9527 L 2974,9533 L 2965,9682 L 2957,9832 L 2864,9827 L 2873,9677 L 2882,9527 z "
             style="fill:#ffffff;fill-opacity:1" />
          <path
             id="path1705"
             d="M 2965,9682 L 2974,9533 L 2992,9535 L 2965,9682 z "
             style="fill:#ffffff;fill-opacity:1" />
          <path
             id="path1707"
             d="M 2992,9535 L 3081,9551 L 3055,9698 L 3029,9846 L 2939,9830 L 2965,9682 L 2992,9535 z "
             style="fill:#ffffff;fill-opacity:1" />
          <path
             id="path1709"
             d="M 3055,9698 L 3081,9551 L 3098,9555 L 3055,9698 z "
             style="fill:#ffffff;fill-opacity:1" />
          <path
             id="path1711"
             d="M 3098,9555 L 3185,9580 L 3142,9724 L 3099,9868 L 3012,9842 L 3055,9698 L 3098,9555 z "
             style="fill:#ffffff;fill-opacity:1" />
          <path
             id="path1713"
             d="M 3142,9724 L 3185,9580 L 3200,9586 L 3142,9724 z "
             style="fill:#ffffff;fill-opacity:1" />
          <path
             id="path1715"
             d="M 3200,9586 L 3284,9621 L 3225,9759 L 3166,9898 L 3083,9862 L 3142,9724 L 3200,9586 z "
             style="fill:#ffffff;fill-opacity:1" />
          <path
             id="path1717"
             d="M 3225,9759 L 3284,9621 L 3298,9629 L 3225,9759 z "
             style="fill:#ffffff;fill-opacity:1" />
          <path
             id="path1719"
             d="M 3298,9629 L 3377,9673 L 3304,9804 L 3231,9935 L 3152,9890 L 3225,9759 L 3298,9629 z "
             style="fill:#ffffff;fill-opacity:1" />
          <path
             id="path1721"
             d="M 3304,9804 L 3377,9673 L 3390,9681 L 3304,9804 z "
             style="fill:#ffffff;fill-opacity:1" />
          <path
             id="path1723"
             d="M 3390,9681 L 3465,9734 L 3379,9856 L 3292,9979 L 3218,9926 L 3304,9804 L 3390,9681 z "
             style="fill:#ffffff;fill-opacity:1" />
          <path
             id="path1725"
             d="M 3379,9856 L 3465,9734 L 3477,9743 L 3379,9856 z "
             style="fill:#ffffff;fill-opacity:1" />
          <path
             id="path1727"
             d="M 3477,9743 L 3547,9803 L 3448,9917 L 3350,10030 L 3280,9970 L 3379,9856 L 3477,9743 z "
             style="fill:#ffffff;fill-opacity:1" />
          <path
             id="path1729"
             d="M 3448,9917 L 3547,9803 L 3557,9813 L 3448,9917 z "
             style="fill:#ffffff;fill-opacity:1" />
          <path
             id="path1731"
             d="M 3557,9813 L 3621,9881 L 3513,9984 L 3404,10088 L 3340,10020 L 3448,9917 L 3557,9813 z "
             style="fill:#ffffff;fill-opacity:1" />
          <path
             id="path1733"
             d="M 3513,9984 L 3621,9881 L 3631,9892 L 3513,9984 z "
             style="fill:#ffffff;fill-opacity:1" />
          <path
             id="path1735"
             d="M 3631,9892 L 3689,9966 L 3571,10059 L 3453,10151 L 3395,10077 L 3513,9984 L 3631,9892 z "
             style="fill:#ffffff;fill-opacity:1" />
          <path
             id="path1737"
             d="M 3571,10059 L 3689,9966 L 3697,9977 L 3571,10059 z "
             style="fill:#ffffff;fill-opacity:1" />
          <path
             id="path1739"
             d="M 3697,9977 L 3749,10058 L 3623,10139 L 3497,10221 L 3445,10140 L 3571,10059 L 3697,9977 z "
             style="fill:#ffffff;fill-opacity:1" />
          <path
             id="path1741"
             d="M 3623,10139 L 3749,10058 L 3756,10070 L 3623,10139 z "
             style="fill:#ffffff;fill-opacity:1" />
          <path
             id="path1743"
             d="M 3756,10070 L 3801,10156 L 3669,10226 L 3536,10296 L 3490,10209 L 3623,10139 L 3756,10070 z "
             style="fill:#ffffff;fill-opacity:1" />
          <path
             id="path1745"
             d="M 3669,10226 L 3801,10156 L 3807,10168 L 3669,10226 z "
             style="fill:#ffffff;fill-opacity:1" />
          <path
             id="path1747"
             d="M 3807,10168 L 3845,10260 L 3707,10317 L 3568,10375 L 3530,10283 L 3669,10226 L 3807,10168 z "
             style="fill:#ffffff;fill-opacity:1" />
          <path
             id="path1749"
             d="M 3707,10317 L 3845,10260 L 3850,10272 L 3707,10317 z "
             style="fill:#ffffff;fill-opacity:1" />
          <path
             id="path1751"
             d="M 3850,10272 L 3880,10368 L 3737,10414 L 3594,10459 L 3564,10363 L 3707,10317 L 3850,10272 z "
             style="fill:#ffffff;fill-opacity:1" />
          <path
             id="path1753"
             d="M 3737,10414 L 3880,10368 L 3884,10381 L 3737,10414 z "
             style="fill:#ffffff;fill-opacity:1" />
          <path
             id="path1755"
             d="M 3884,10381 L 3906,10481 L 3760,10514 L 3613,10547 L 3591,10446 L 3737,10414 L 3884,10381 z "
             style="fill:#ffffff;fill-opacity:1" />
          <path
             id="path1757"
             d="M 3760,10514 L 3906,10481 L 3908,10494 L 3760,10514 z "
             style="fill:#ffffff;fill-opacity:1" />
          <path
             id="path1759"
             d="M 3908,10494 L 3922,10598 L 3773,10618 L 3625,10638 L 3611,10534 L 3760,10514 L 3908,10494 z "
             style="fill:#ffffff;fill-opacity:1" />
          <path
             id="path1761"
             d="M 3773,10618 L 3922,10598 L 3923,10611 L 3773,10618 z "
             style="fill:#ffffff;fill-opacity:1" />
          <path
             id="path1763"
             d="M 3923,10611 L 3928,10718 L 3778,10725 L 3628,10732 L 3623,10625 L 3773,10618 L 3923,10611 z "
             style="fill:#ffffff;fill-opacity:1" />
          <path
             id="path1765"
             d="M 3778,10725 L 3928,10718 L 3928,10732 L 3778,10725 z "
             style="fill:#ffffff;fill-opacity:1" />
          <path
             id="path1767"
             d="M 3928,10732 L 3923,10839 L 3773,10832 L 3623,10825 L 3628,10718 L 3778,10725 L 3928,10732 z "
             style="fill:#ffffff;fill-opacity:1" />
          <path
             id="path1769"
             d="M 3773,10832 L 3923,10839 L 3922,10852 L 3773,10832 z "
             style="fill:#ffffff;fill-opacity:1" />
          <path
             id="path1771"
             d="M 3922,10852 L 3908,10956 L 3760,10936 L 3611,10916 L 3625,10812 L 3773,10832 L 3922,10852 z "
             style="fill:#ffffff;fill-opacity:1" />
          <path
             id="path1773"
             d="M 3760,10936 L 3908,10956 L 3906,10969 L 3760,10936 z "
             style="fill:#ffffff;fill-opacity:1" />
          <path
             id="path1775"
             d="M 3906,10969 L 3884,11069 L 3737,11036 L 3591,11004 L 3613,10903 L 3760,10936 L 3906,10969 z "
             style="fill:#ffffff;fill-opacity:1" />
          <path
             id="path1777"
             d="M 3737,11036 L 3884,11069 L 3880,11082 L 3737,11036 z "
             style="fill:#ffffff;fill-opacity:1" />
          <path
             id="path1779"
             d="M 3880,11082 L 3850,11178 L 3707,11133 L 3564,11087 L 3594,10991 L 3737,11036 L 3880,11082 z "
             style="fill:#ffffff;fill-opacity:1" />
          <path
             id="path1781"
             d="M 3707,11133 L 3850,11178 L 3845,11190 L 3707,11133 z "
             style="fill:#ffffff;fill-opacity:1" />
          <path
             id="path1783"
             d="M 3845,11190 L 3807,11282 L 3669,11224 L 3530,11167 L 3568,11075 L 3707,11133 L 3845,11190 z "
             style="fill:#ffffff;fill-opacity:1" />
          <path
             id="path1785"
             d="M 3669,11224 L 3807,11282 L 3801,11294 L 3669,11224 z "
             style="fill:#ffffff;fill-opacity:1" />
          <path
             id="path1787"
             d="M 3801,11294 L 3756,11380 L 3623,11311 L 3490,11241 L 3536,11154 L 3669,11224 L 3801,11294 z "
             style="fill:#ffffff;fill-opacity:1" />
          <path
             id="path1789"
             d="M 3623,11311 L 3756,11380 L 3749,11392 L 3623,11311 z "
             style="fill:#ffffff;fill-opacity:1" />
          <path
             id="path1791"
             d="M 3749,11392 L 3697,11473 L 3571,11391 L 3445,11310 L 3497,11229 L 3623,11311 L 3749,11392 z "
             style="fill:#ffffff;fill-opacity:1" />
          <path
             id="path1793"
             d="M 3571,11391 L 3697,11473 L 3689,11484 L 3571,11391 z "
             style="fill:#ffffff;fill-opacity:1" />
          <path
             id="path1795"
             d="M 3689,11484 L 3631,11558 L 3513,11466 L 3395,11373 L 3453,11299 L 3571,11391 L 3689,11484 z "
             style="fill:#ffffff;fill-opacity:1" />
          <path
             id="path1797"
             d="M 3513,11466 L 3631,11558 L 3621,11569 L 3513,11466 z "
             style="fill:#ffffff;fill-opacity:1" />
          <path
             id="path1799"
             d="M 3621,11569 L 3557,11637 L 3448,11533 L 3340,11430 L 3404,11362 L 3513,11466 L 3621,11569 z "
             style="fill:#ffffff;fill-opacity:1" />
          <path
             id="path1801"
             d="M 3448,11533 L 3557,11637 L 3547,11647 L 3448,11533 z "
             style="fill:#ffffff;fill-opacity:1" />
          <path
             id="path1803"
             d="M 3547,11647 L 3477,11707 L 3379,11594 L 3280,11480 L 3350,11420 L 3448,11533 L 3547,11647 z "
             style="fill:#ffffff;fill-opacity:1" />
          <path
             id="path1805"
             d="M 3379,11594 L 3477,11707 L 3465,11716 L 3379,11594 z "
             style="fill:#ffffff;fill-opacity:1" />
          <path
             id="path1807"
             d="M 3465,11716 L 3390,11769 L 3304,11646 L 3218,11524 L 3292,11471 L 3379,11594 L 3465,11716 z "
             style="fill:#ffffff;fill-opacity:1" />
          <path
             id="path1809"
             d="M 3304,11646 L 3390,11769 L 3377,11777 L 3304,11646 z "
             style="fill:#ffffff;fill-opacity:1" />
          <path
             id="path1811"
             d="M 3377,11777 L 3298,11821 L 3225,11691 L 3152,11560 L 3231,11515 L 3304,11646 L 3377,11777 z "
             style="fill:#ffffff;fill-opacity:1" />
          <path
             id="path1813"
             d="M 3225,11691 L 3298,11821 L 3284,11829 L 3225,11691 z "
             style="fill:#ffffff;fill-opacity:1" />
          <path
             id="path1815"
             d="M 3284,11829 L 3200,11864 L 3142,11726 L 3083,11588 L 3166,11552 L 3225,11691 L 3284,11829 z "
             style="fill:#ffffff;fill-opacity:1" />
          <path
             id="path1817"
             d="M 3142,11726 L 3200,11864 L 3185,11870 L 3142,11726 z "
             style="fill:#ffffff;fill-opacity:1" />
          <path
             id="path1819"
             d="M 3185,11870 L 3098,11895 L 3055,11752 L 3012,11608 L 3099,11582 L 3142,11726 L 3185,11870 z "
             style="fill:#ffffff;fill-opacity:1" />
          <path
             id="path1821"
             d="M 3055,11752 L 3098,11895 L 3081,11899 L 3055,11752 z "
             style="fill:#ffffff;fill-opacity:1" />
          <path
             id="path1823"
             d="M 3081,11899 L 2992,11915 L 2965,11768 L 2939,11620 L 3029,11604 L 3055,11752 L 3081,11899 z "
             style="fill:#ffffff;fill-opacity:1" />
          <path
             id="path1825"
             d="M 2965,11768 L 2992,11915 L 2974,11917 L 2965,11768 z "
             style="fill:#ffffff;fill-opacity:1" />
          <path
             id="path1827"
             d="M 2974,11917 L 2882,11923 L 2873,11773 L 2864,11623 L 2957,11618 L 2965,11768 L 2974,11917 z "
             style="fill:#ffffff;fill-opacity:1" />
          <path
             id="path1829"
             d="M 2873,11773 L 2882,11923 L 2864,11923 L 2873,11773 z "
             style="fill:#ffffff;fill-opacity:1" />
        </g>
        <g
           id="g1831"
           style="fill:#ffffff;fill-opacity:1" />
      </g>
    </g>
    <g
       transform="matrix(1.2500621e-2,0,0,1.2500621e-2,-18.119156,-116.63496)"
       style="fill:#ffffff;fill-opacity:1;visibility:visible"
       id="g1833">
      <desc
         id="desc1835">Drawing</desc>
      <g
         id="g1837"
         style="fill:#ffffff;fill-opacity:1">
        <g
           id="g1839"
           style="fill:#ffffff;fill-opacity:1;stroke:none">
          <path
             id="path1841"
             d="M 3719,12021 L 3006,11307 L 3218,11095 L 3931,11809 L 3719,12021 z "
             style="fill:#ffffff;fill-opacity:1" />
        </g>
        <g
           id="g1843"
           style="fill:#ffffff;fill-opacity:1" />
      </g>
    </g>
  </g>
</svg>
