<?xml version="1.0" encoding="UTF-8" standalone="no"?>
<!-- Created with Inkscape (http://www.inkscape.org/) -->
<svg
   xmlns:dc="http://purl.org/dc/elements/1.1/"
   xmlns:cc="http://web.resource.org/cc/"
   xmlns:rdf="http://www.w3.org/1999/02/22-rdf-syntax-ns#"
   xmlns:svg="http://www.w3.org/2000/svg"
   xmlns="http://www.w3.org/2000/svg"
   xmlns:sodipodi="http://sodipodi.sourceforge.net/DTD/sodipodi-0.dtd"
   xmlns:inkscape="http://www.inkscape.org/namespaces/inkscape"
   width="1cm"
   height="1cm"
   id="svg9908"
   sodipodi:version="0.32"
   inkscape:version="0.45"
   version="1.0"
   sodipodi:docbase="/data/world/proj/Kproj/symsolon/share/symsolon/aspects"
   sodipodi:docname="aspect-triseptil.svg"
   inkscape:output_extension="org.inkscape.output.svg.inkscape"
   sodipodi:modified="true">
  <defs
     id="defs9910" />
  <sodipodi:namedview
     id="base"
     pagecolor="#000000"
     bordercolor="#666666"
     borderopacity="1.0"
     inkscape:pageopacity="1"
     inkscape:pageshadow="2"
     inkscape:zoom="7.0170015"
     inkscape:cx="0.79131245"
     inkscape:cy="17.556514"
     inkscape:document-units="px"
     inkscape:current-layer="layer1"
     inkscape:window-width="966"
     inkscape:window-height="626"
     inkscape:window-x="10"
     inkscape:window-y="73" />
  <metadata
     id="metadata9913">
    <rdf:RDF>
      <cc:Work
         rdf:about="">
        <dc:format>image/svg+xml</dc:format>
        <dc:type
           rdf:resource="http://purl.org/dc/dcmitype/StillImage" />
      </cc:Work>
    </rdf:RDF>
  </metadata>
  <g
     inkscape:label="1. réteg"
     inkscape:groupmode="layer"
     id="layer1">
    <g
       transform="matrix(1.2350681e-2,0,0,1.2350681e-2,-203.60059,-164.28164)"
       style="fill:#ffffff;fill-opacity:1;visibility:visible"
       id="g2427">
      <desc
         id="desc2429">Drawing</desc>
      <g
         id="g2431"
         style="fill:#ffffff;fill-opacity:1">
        <g
           id="g2433"
           style="fill:#ffffff;fill-opacity:1;stroke:none">
          <path
             id="path2435"
             d="M 17423,14158 L 17423,15728 L 17123,15728 L 17123,14158 L 17423,14158 z "
             style="fill:#ffffff;fill-opacity:1" />
        </g>
        <g
           id="g2437"
           style="fill:#ffffff;fill-opacity:1" />
      </g>
    </g>
    <g
       transform="matrix(1.2350681e-2,0,0,1.2350681e-2,-203.60059,-164.28164)"
       style="fill:#ffffff;fill-opacity:1;visibility:visible"
       id="g2439">
      <desc
         id="desc2441">Drawing</desc>
      <g
         id="g2443"
         style="fill:#ffffff;fill-opacity:1">
        <g
           id="g2445"
           style="fill:#ffffff;fill-opacity:1;stroke:none">
          <path
             id="path2447"
             d="M 16635,14048 L 17911,14048 L 17911,14348 L 16635,14348 L 16635,14048 z "
             style="fill:#ffffff;fill-opacity:1" />
        </g>
        <g
           id="g2449"
           style="fill:#ffffff;fill-opacity:1" />
      </g>
    </g>
    <g
       transform="matrix(1.2350681e-2,0,0,1.2350681e-2,-203.60059,-164.28164)"
       style="fill:#ffffff;fill-opacity:1;visibility:visible"
       id="g2451">
      <desc
         id="desc2453">Drawing</desc>
      <g
         id="g2455"
         style="fill:#ffffff;fill-opacity:1">
        <g
           id="g2457"
           style="fill:#ffffff;fill-opacity:1;stroke:none">
          <path
             id="path2459"
             d="M 18178,13727 L 18407,13763 L 18384,13911 L 18361,14059 L 18132,14023 L 18155,13875 L 18178,13727 z "
             style="fill:#ffffff;fill-opacity:1" />
          <path
             id="path2461"
             d="M 18384,13911 L 18407,13763 L 18424,13767 L 18384,13911 z "
             style="fill:#ffffff;fill-opacity:1" />
          <path
             id="path2463"
             d="M 18424,13767 L 18525,13795 L 18485,13939 L 18444,14084 L 18344,14056 L 18384,13911 L 18424,13767 z "
             style="fill:#ffffff;fill-opacity:1" />
          <path
             id="path2465"
             d="M 18485,13939 L 18525,13795 L 18537,13799 L 18485,13939 z "
             style="fill:#ffffff;fill-opacity:1" />
          <path
             id="path2467"
             d="M 18537,13799 L 18629,13833 L 18576,13973 L 18524,14114 L 18432,14080 L 18485,13939 L 18537,13799 z "
             style="fill:#ffffff;fill-opacity:1" />
          <path
             id="path2469"
             d="M 18576,13973 L 18629,13833 L 18641,13838 L 18576,13973 z "
             style="fill:#ffffff;fill-opacity:1" />
          <path
             id="path2471"
             d="M 18641,13838 L 18724,13878 L 18659,14013 L 18594,14148 L 18511,14109 L 18576,13973 L 18641,13838 z "
             style="fill:#ffffff;fill-opacity:1" />
          <path
             id="path2473"
             d="M 18659,14013 L 18724,13878 L 18737,13885 L 18659,14013 z "
             style="fill:#ffffff;fill-opacity:1" />
          <path
             id="path2475"
             d="M 18737,13885 L 18811,13930 L 18733,14058 L 18655,14186 L 18581,14141 L 18659,14013 L 18737,13885 z "
             style="fill:#ffffff;fill-opacity:1" />
          <path
             id="path2477"
             d="M 18733,14058 L 18811,13930 L 18823,13938 L 18733,14058 z "
             style="fill:#ffffff;fill-opacity:1" />
          <path
             id="path2479"
             d="M 18823,13938 L 18889,13988 L 18798,14108 L 18708,14227 L 18642,14178 L 18733,14058 L 18823,13938 z "
             style="fill:#ffffff;fill-opacity:1" />
          <path
             id="path2481"
             d="M 18798,14108 L 18889,13988 L 18901,13998 L 18798,14108 z "
             style="fill:#ffffff;fill-opacity:1" />
          <path
             id="path2483"
             d="M 18901,13998 L 18958,14052 L 18855,14161 L 18752,14271 L 18695,14217 L 18798,14108 L 18901,13998 z "
             style="fill:#ffffff;fill-opacity:1" />
          <path
             id="path2485"
             d="M 18855,14161 L 18958,14052 L 18970,14064 L 18855,14161 z "
             style="fill:#ffffff;fill-opacity:1" />
          <path
             id="path2487"
             d="M 18970,14064 L 19019,14122 L 18904,14219 L 18790,14316 L 18741,14259 L 18855,14161 L 18970,14064 z "
             style="fill:#ffffff;fill-opacity:1" />
          <path
             id="path2489"
             d="M 18904,14219 L 19019,14122 L 19029,14135 L 18904,14219 z "
             style="fill:#ffffff;fill-opacity:1" />
          <path
             id="path2491"
             d="M 19029,14135 L 19070,14196 L 18945,14280 L 18820,14363 L 18780,14303 L 18904,14219 L 19029,14135 z "
             style="fill:#ffffff;fill-opacity:1" />
          <path
             id="path2493"
             d="M 18945,14280 L 19070,14196 L 19078,14211 L 18945,14280 z "
             style="fill:#ffffff;fill-opacity:1" />
          <path
             id="path2495"
             d="M 19078,14211 L 19111,14275 L 18978,14344 L 18845,14413 L 18812,14349 L 18945,14280 L 19078,14211 z "
             style="fill:#ffffff;fill-opacity:1" />
          <path
             id="path2497"
             d="M 18978,14344 L 19111,14275 L 19118,14290 L 18978,14344 z "
             style="fill:#ffffff;fill-opacity:1" />
          <path
             id="path2499"
             d="M 19118,14290 L 19143,14356 L 19003,14410 L 18863,14463 L 18838,14397 L 18978,14344 L 19118,14290 z "
             style="fill:#ffffff;fill-opacity:1" />
          <path
             id="path2501"
             d="M 19003,14410 L 19143,14356 L 19148,14372 L 19003,14410 z "
             style="fill:#ffffff;fill-opacity:1" />
          <path
             id="path2503"
             d="M 19148,14372 L 19166,14440 L 19021,14478 L 18876,14516 L 18858,14448 L 19003,14410 L 19148,14372 z "
             style="fill:#ffffff;fill-opacity:1" />
          <path
             id="path2505"
             d="M 19021,14478 L 19166,14440 L 19169,14455 L 19021,14478 z "
             style="fill:#ffffff;fill-opacity:1" />
          <path
             id="path2507"
             d="M 19169,14455 L 19180,14525 L 19032,14547 L 18883,14569 L 18873,14500 L 19021,14478 L 19169,14455 z "
             style="fill:#ffffff;fill-opacity:1" />
          <path
             id="path2509"
             d="M 19032,14547 L 19180,14525 L 19181,14540 L 19032,14547 z "
             style="fill:#ffffff;fill-opacity:1" />
          <path
             id="path2511"
             d="M 19181,14540 L 19185,14611 L 19035,14618 L 18885,14625 L 18882,14554 L 19032,14547 L 19181,14540 z "
             style="fill:#ffffff;fill-opacity:1" />
          <path
             id="path2513"
             d="M 19035,14618 L 19185,14611 L 19185,14626 L 19035,14618 z "
             style="fill:#ffffff;fill-opacity:1" />
          <path
             id="path2515"
             d="M 19185,14626 L 19181,14697 L 19031,14689 L 18881,14681 L 18885,14610 L 19035,14618 L 19185,14626 z "
             style="fill:#ffffff;fill-opacity:1" />
          <path
             id="path2517"
             d="M 19031,14689 L 19181,14697 L 19179,14711 L 19031,14689 z "
             style="fill:#ffffff;fill-opacity:1" />
          <path
             id="path2519"
             d="M 19179,14711 L 19169,14782 L 19020,14760 L 18872,14738 L 18883,14667 L 19031,14689 L 19179,14711 z "
             style="fill:#ffffff;fill-opacity:1" />
          <path
             id="path2521"
             d="M 19020,14760 L 19169,14782 L 19166,14796 L 19020,14760 z "
             style="fill:#ffffff;fill-opacity:1" />
          <path
             id="path2523"
             d="M 19166,14796 L 19149,14866 L 19003,14831 L 18857,14795 L 18875,14725 L 19020,14760 L 19166,14796 z "
             style="fill:#ffffff;fill-opacity:1" />
          <path
             id="path2525"
             d="M 19003,14831 L 19149,14866 L 19145,14879 L 19003,14831 z "
             style="fill:#ffffff;fill-opacity:1" />
          <path
             id="path2527"
             d="M 19145,14879 L 19121,14949 L 18979,14901 L 18837,14853 L 18861,14783 L 19003,14831 L 19145,14879 z "
             style="fill:#ffffff;fill-opacity:1" />
          <path
             id="path2529"
             d="M 18979,14901 L 19121,14949 L 19117,14961 L 18979,14901 z "
             style="fill:#ffffff;fill-opacity:1" />
          <path
             id="path2531"
             d="M 19117,14961 L 19087,15030 L 18949,14970 L 18812,14910 L 18842,14841 L 18979,14901 L 19117,14961 z "
             style="fill:#ffffff;fill-opacity:1" />
          <path
             id="path2533"
             d="M 18949,14970 L 19087,15030 L 19081,15041 L 18949,14970 z "
             style="fill:#ffffff;fill-opacity:1" />
          <path
             id="path2535"
             d="M 19081,15041 L 19045,15108 L 18913,15037 L 18781,14965 L 18817,14898 L 18949,14970 L 19081,15041 z "
             style="fill:#ffffff;fill-opacity:1" />
          <path
             id="path2537"
             d="M 18913,15037 L 19045,15108 L 19039,15119 L 18913,15037 z "
             style="fill:#ffffff;fill-opacity:1" />
          <path
             id="path2539"
             d="M 19039,15119 L 18996,15184 L 18871,15102 L 18745,15020 L 18787,14955 L 18913,15037 L 19039,15119 z "
             style="fill:#ffffff;fill-opacity:1" />
          <path
             id="path2541"
             d="M 18871,15102 L 18996,15184 L 18985,15198 L 18871,15102 z "
             style="fill:#ffffff;fill-opacity:1" />
          <path
             id="path2543"
             d="M 18985,15198 L 18884,15319 L 18769,15223 L 18654,15126 L 18756,15005 L 18871,15102 L 18985,15198 z "
             style="fill:#ffffff;fill-opacity:1" />
          <path
             id="path2545"
             d="M 18769,15223 L 18884,15319 L 18867,15336 L 18769,15223 z "
             style="fill:#ffffff;fill-opacity:1" />
          <path
             id="path2547"
             d="M 18867,15336 L 18743,15443 L 18645,15330 L 18547,15216 L 18671,15109 L 18769,15223 L 18867,15336 z "
             style="fill:#ffffff;fill-opacity:1" />
          <path
             id="path2549"
             d="M 18645,15330 L 18743,15443 L 18724,15458 L 18645,15330 z "
             style="fill:#ffffff;fill-opacity:1" />
          <path
             id="path2551"
             d="M 18724,15458 L 18579,15547 L 18500,15419 L 18422,15291 L 18566,15202 L 18645,15330 L 18724,15458 z "
             style="fill:#ffffff;fill-opacity:1" />
          <path
             id="path2553"
             d="M 18500,15419 L 18579,15547 L 18563,15555 L 18500,15419 z "
             style="fill:#ffffff;fill-opacity:1" />
          <path
             id="path2555"
             d="M 18563,15555 L 18484,15592 L 18421,15456 L 18358,15320 L 18437,15283 L 18500,15419 L 18563,15555 z "
             style="fill:#ffffff;fill-opacity:1" />
          <path
             id="path2557"
             d="M 18421,15456 L 18484,15592 L 18472,15597 L 18421,15456 z "
             style="fill:#ffffff;fill-opacity:1" />
          <path
             id="path2559"
             d="M 18472,15597 L 18388,15627 L 18337,15487 L 18285,15346 L 18369,15315 L 18421,15456 L 18472,15597 z "
             style="fill:#ffffff;fill-opacity:1" />
          <path
             id="path2561"
             d="M 18337,15487 L 18388,15627 L 18377,15631 L 18337,15487 z "
             style="fill:#ffffff;fill-opacity:1" />
          <path
             id="path2563"
             d="M 18377,15631 L 18288,15656 L 18248,15511 L 18208,15367 L 18297,15342 L 18337,15487 L 18377,15631 z "
             style="fill:#ffffff;fill-opacity:1" />
          <path
             id="path2565"
             d="M 18248,15511 L 18288,15656 L 18276,15659 L 18248,15511 z "
             style="fill:#ffffff;fill-opacity:1" />
          <path
             id="path2567"
             d="M 18276,15659 L 18183,15676 L 18155,15529 L 18127,15382 L 18220,15364 L 18248,15511 L 18276,15659 z "
             style="fill:#ffffff;fill-opacity:1" />
        </g>
        <g
           id="g2569"
           style="fill:#ffffff;fill-opacity:1" />
      </g>
    </g>
    <g
       transform="matrix(1.2350681e-2,0,0,1.2350681e-2,-203.60059,-164.28164)"
       style="fill:#ffffff;fill-opacity:1;visibility:visible"
       id="g2571">
      <desc
         id="desc2573">Drawing</desc>
      <g
         id="g2575"
         style="fill:#ffffff;fill-opacity:1">
        <g
           id="g2577"
           style="fill:#ffffff;fill-opacity:1;stroke:none">
          <path
             id="path2579"
             d="M 18305,13777 L 18305,15729 L 18005,15729 L 18005,13777 L 18305,13777 z "
             style="fill:#ffffff;fill-opacity:1" />
        </g>
        <g
           id="g2581"
           style="fill:#ffffff;fill-opacity:1" />
      </g>
    </g>
  </g>
</svg>
