<?xml version="1.0" encoding="UTF-8" standalone="no"?>
<!-- Created with Inkscape (http://www.inkscape.org/) -->
<svg
   xmlns:dc="http://purl.org/dc/elements/1.1/"
   xmlns:cc="http://web.resource.org/cc/"
   xmlns:rdf="http://www.w3.org/1999/02/22-rdf-syntax-ns#"
   xmlns:svg="http://www.w3.org/2000/svg"
   xmlns="http://www.w3.org/2000/svg"
   xmlns:sodipodi="http://sodipodi.sourceforge.net/DTD/sodipodi-0.dtd"
   xmlns:inkscape="http://www.inkscape.org/namespaces/inkscape"
   width="1cm"
   height="1cm"
   id="svg9908"
   sodipodi:version="0.32"
   inkscape:version="0.45"
   version="1.0"
   sodipodi:docbase="/data/world/proj/Kproj/symsolon/share/symsolon/aspects"
   sodipodi:docname="aspect-semiquadrat.svg"
   inkscape:output_extension="org.inkscape.output.svg.inkscape"
   sodipodi:modified="true">
  <defs
     id="defs9910" />
  <sodipodi:namedview
     id="base"
     pagecolor="#000000"
     bordercolor="#666666"
     borderopacity="1.0"
     inkscape:pageopacity="1"
     inkscape:pageshadow="2"
     inkscape:zoom="7.0170015"
     inkscape:cx="0.79131245"
     inkscape:cy="17.556514"
     inkscape:document-units="px"
     inkscape:current-layer="layer1"
     inkscape:window-width="966"
     inkscape:window-height="626"
     inkscape:window-x="10"
     inkscape:window-y="73" />
  <metadata
     id="metadata9913">
    <rdf:RDF>
      <cc:Work
         rdf:about="">
        <dc:format>image/svg+xml</dc:format>
        <dc:type
           rdf:resource="http://purl.org/dc/dcmitype/StillImage" />
      </cc:Work>
    </rdf:RDF>
  </metadata>
  <g
     inkscape:label="1. réteg"
     inkscape:groupmode="layer"
     id="layer1">
    <g
       transform="matrix(1.5333198e-2,0,0,1.5333198e-2,-256.3135,-88.796267)"
       style="fill:#ffffff;fill-opacity:1;visibility:visible"
       id="g2259">
      <desc
         id="desc2261">Drawing</desc>
      <g
         id="g2263"
         style="fill:#ffffff;fill-opacity:1">
        <g
           id="g2265"
           style="fill:#ffffff;fill-opacity:1;stroke:none">
          <path
             id="path2267"
             d="M 17834,6063 L 17834,7919 L 17534,7919 L 17534,6063 L 17834,6063 z "
             style="fill:#ffffff;fill-opacity:1" />
        </g>
        <g
           id="g2269"
           style="fill:#ffffff;fill-opacity:1" />
      </g>
    </g>
    <g
       transform="matrix(1.5333198e-2,0,0,1.5333198e-2,-256.3135,-88.796267)"
       style="fill:#ffffff;fill-opacity:1;visibility:visible"
       id="g2271">
      <desc
         id="desc2273">Drawing</desc>
      <g
         id="g2275"
         style="fill:#ffffff;fill-opacity:1">
        <g
           id="g2277"
           style="fill:#ffffff;fill-opacity:1;stroke:none">
          <path
             id="path2279"
             d="M 16906,5960 L 18462,5960 L 18462,6260 L 16906,6260 L 16906,5960 z "
             style="fill:#ffffff;fill-opacity:1" />
        </g>
        <g
           id="g2281"
           style="fill:#ffffff;fill-opacity:1" />
      </g>
    </g>
    <g
       transform="matrix(1.5333198e-2,0,0,1.5333198e-2,-256.3135,-88.796267)"
       style="fill:#ffffff;fill-opacity:1;visibility:visible"
       id="g2307">
      <desc
         id="desc2309">Drawing</desc>
      <g
         id="g2311"
         style="fill:#ffffff;fill-opacity:1">
        <g
           id="g2313"
           style="fill:#ffffff;fill-opacity:1;stroke:none">
          <path
             id="path2315"
             d="M 17987,8015 L 17987,6491 L 18287,6491 L 18287,8015 L 17987,8015 z "
             style="fill:#ffffff;fill-opacity:1" />
        </g>
        <g
           id="g2317"
           style="fill:#ffffff;fill-opacity:1" />
      </g>
    </g>
    <g
       transform="matrix(1.5333198e-2,0,0,1.5333198e-2,-256.3135,-88.796267)"
       style="fill:#ffffff;fill-opacity:1;visibility:visible"
       id="g2319">
      <desc
         id="desc2321">Drawing</desc>
      <g
         id="g2323"
         style="fill:#ffffff;fill-opacity:1">
        <g
           id="g2325"
           style="fill:#ffffff;fill-opacity:1;stroke:none">
          <path
             id="path2327"
             d="M 18125,6441 L 18262,6457 L 18245,6606 L 18228,6755 L 18091,6739 L 18108,6590 L 18125,6441 z "
             style="fill:#ffffff;fill-opacity:1" />
          <path
             id="path2329"
             d="M 18245,6606 L 18262,6457 L 18280,6460 L 18245,6606 z "
             style="fill:#ffffff;fill-opacity:1" />
          <path
             id="path2331"
             d="M 18280,6460 L 18395,6487 L 18360,6633 L 18326,6779 L 18211,6752 L 18245,6606 L 18280,6460 z "
             style="fill:#ffffff;fill-opacity:1" />
          <path
             id="path2333"
             d="M 18360,6633 L 18395,6487 L 18415,6494 L 18360,6633 z "
             style="fill:#ffffff;fill-opacity:1" />
          <path
             id="path2335"
             d="M 18415,6494 L 18509,6531 L 18454,6670 L 18399,6810 L 18305,6773 L 18360,6633 L 18415,6494 z "
             style="fill:#ffffff;fill-opacity:1" />
          <path
             id="path2337"
             d="M 18454,6670 L 18509,6531 L 18527,6539 L 18454,6670 z "
             style="fill:#ffffff;fill-opacity:1" />
          <path
             id="path2339"
             d="M 18527,6539 L 18566,6561 L 18493,6692 L 18421,6823 L 18381,6801 L 18454,6670 L 18527,6539 z "
             style="fill:#ffffff;fill-opacity:1" />
          <path
             id="path2341"
             d="M 18493,6692 L 18566,6561 L 18579,6568 L 18493,6692 z "
             style="fill:#ffffff;fill-opacity:1" />
          <path
             id="path2343"
             d="M 18579,6568 L 18613,6592 L 18528,6716 L 18442,6839 L 18408,6815 L 18493,6692 L 18579,6568 z "
             style="fill:#ffffff;fill-opacity:1" />
          <path
             id="path2345"
             d="M 18528,6716 L 18613,6592 L 18626,6602 L 18528,6716 z "
             style="fill:#ffffff;fill-opacity:1" />
          <path
             id="path2347"
             d="M 18626,6602 L 18655,6627 L 18557,6741 L 18459,6854 L 18430,6829 L 18528,6716 L 18626,6602 z "
             style="fill:#ffffff;fill-opacity:1" />
          <path
             id="path2349"
             d="M 18557,6741 L 18655,6627 L 18667,6639 L 18557,6741 z "
             style="fill:#ffffff;fill-opacity:1" />
          <path
             id="path2351"
             d="M 18667,6639 L 18692,6666 L 18581,6767 L 18471,6869 L 18446,6842 L 18557,6741 L 18667,6639 z "
             style="fill:#ffffff;fill-opacity:1" />
          <path
             id="path2353"
             d="M 18581,6767 L 18692,6666 L 18704,6681 L 18581,6767 z "
             style="fill:#ffffff;fill-opacity:1" />
          <path
             id="path2355"
             d="M 18704,6681 L 18724,6709 L 18601,6795 L 18479,6882 L 18459,6854 L 18581,6767 L 18704,6681 z "
             style="fill:#ffffff;fill-opacity:1" />
          <path
             id="path2357"
             d="M 18601,6795 L 18724,6709 L 18734,6726 L 18601,6795 z "
             style="fill:#ffffff;fill-opacity:1" />
          <path
             id="path2359"
             d="M 18734,6726 L 18749,6755 L 18616,6824 L 18483,6894 L 18468,6865 L 18601,6795 L 18734,6726 z "
             style="fill:#ffffff;fill-opacity:1" />
          <path
             id="path2361"
             d="M 18616,6824 L 18749,6755 L 18758,6774 L 18616,6824 z "
             style="fill:#ffffff;fill-opacity:1" />
          <path
             id="path2363"
             d="M 18758,6774 L 18768,6804 L 18627,6854 L 18486,6905 L 18475,6875 L 18616,6824 L 18758,6774 z "
             style="fill:#ffffff;fill-opacity:1" />
          <path
             id="path2365"
             d="M 18627,6854 L 18768,6804 L 18774,6824 L 18627,6854 z "
             style="fill:#ffffff;fill-opacity:1" />
          <path
             id="path2367"
             d="M 18774,6824 L 18780,6855 L 18633,6885 L 18486,6915 L 18480,6884 L 18627,6854 L 18774,6824 z "
             style="fill:#ffffff;fill-opacity:1" />
          <path
             id="path2369"
             d="M 18633,6885 L 18780,6855 L 18783,6875 L 18633,6885 z "
             style="fill:#ffffff;fill-opacity:1" />
          <path
             id="path2371"
             d="M 18783,6875 L 18785,6906 L 18635,6916 L 18486,6925 L 18484,6894 L 18633,6885 L 18783,6875 z "
             style="fill:#ffffff;fill-opacity:1" />
          <path
             id="path2373"
             d="M 18635,6916 L 18785,6906 L 18785,6926 L 18635,6916 z "
             style="fill:#ffffff;fill-opacity:1" />
          <path
             id="path2375"
             d="M 18785,6926 L 18783,6958 L 18633,6947 L 18483,6936 L 18486,6905 L 18635,6916 L 18785,6926 z "
             style="fill:#ffffff;fill-opacity:1" />
          <path
             id="path2377"
             d="M 18633,6947 L 18783,6958 L 18780,6977 L 18633,6947 z "
             style="fill:#ffffff;fill-opacity:1" />
          <path
             id="path2379"
             d="M 18780,6977 L 18774,7008 L 18627,6978 L 18480,6948 L 18486,6917 L 18633,6947 L 18780,6977 z "
             style="fill:#ffffff;fill-opacity:1" />
          <path
             id="path2381"
             d="M 18627,6978 L 18774,7008 L 18769,7025 L 18627,6978 z "
             style="fill:#ffffff;fill-opacity:1" />
          <path
             id="path2383"
             d="M 18769,7025 L 18759,7057 L 18616,7009 L 18474,6962 L 18484,6931 L 18627,6978 L 18769,7025 z "
             style="fill:#ffffff;fill-opacity:1" />
          <path
             id="path2385"
             d="M 18616,7009 L 18759,7057 L 18752,7072 L 18616,7009 z "
             style="fill:#ffffff;fill-opacity:1" />
          <path
             id="path2387"
             d="M 18752,7072 L 18738,7103 L 18602,7040 L 18466,6977 L 18480,6946 L 18616,7009 L 18752,7072 z "
             style="fill:#ffffff;fill-opacity:1" />
          <path
             id="path2389"
             d="M 18602,7040 L 18738,7103 L 18731,7117 L 18602,7040 z "
             style="fill:#ffffff;fill-opacity:1" />
          <path
             id="path2391"
             d="M 18731,7117 L 18713,7147 L 18584,7070 L 18455,6993 L 18473,6963 L 18602,7040 L 18731,7117 z "
             style="fill:#ffffff;fill-opacity:1" />
          <path
             id="path2393"
             d="M 18584,7070 L 18713,7147 L 18705,7159 L 18584,7070 z "
             style="fill:#ffffff;fill-opacity:1" />
          <path
             id="path2395"
             d="M 18705,7159 L 18683,7189 L 18562,7099 L 18442,7010 L 18463,6981 L 18584,7070 L 18705,7159 z "
             style="fill:#ffffff;fill-opacity:1" />
          <path
             id="path2397"
             d="M 18562,7099 L 18683,7189 L 18674,7199 L 18562,7099 z "
             style="fill:#ffffff;fill-opacity:1" />
          <path
             id="path2399"
             d="M 18674,7199 L 18649,7228 L 18537,7128 L 18425,7028 L 18450,7000 L 18562,7099 L 18674,7199 z "
             style="fill:#ffffff;fill-opacity:1" />
          <path
             id="path2401"
             d="M 18537,7128 L 18649,7228 L 18640,7237 L 18537,7128 z "
             style="fill:#ffffff;fill-opacity:1" />
          <path
             id="path2403"
             d="M 18640,7237 L 18611,7264 L 18508,7155 L 18405,7046 L 18434,7019 L 18537,7128 L 18640,7237 z "
             style="fill:#ffffff;fill-opacity:1" />
          <path
             id="path2405"
             d="M 18508,7155 L 18611,7264 L 18602,7272 L 18508,7155 z "
             style="fill:#ffffff;fill-opacity:1" />
          <path
             id="path2407"
             d="M 18602,7272 L 18570,7298 L 18476,7181 L 18382,7064 L 18414,7038 L 18508,7155 L 18602,7272 z "
             style="fill:#ffffff;fill-opacity:1" />
          <path
             id="path2409"
             d="M 18476,7181 L 18570,7298 L 18556,7308 L 18476,7181 z "
             style="fill:#ffffff;fill-opacity:1" />
          <path
             id="path2411"
             d="M 18556,7308 L 18482,7355 L 18402,7228 L 18322,7101 L 18396,7054 L 18476,7181 L 18556,7308 z "
             style="fill:#ffffff;fill-opacity:1" />
          <path
             id="path2413"
             d="M 18402,7228 L 18482,7355 L 18463,7365 L 18402,7228 z "
             style="fill:#ffffff;fill-opacity:1" />
          <path
             id="path2415"
             d="M 18463,7365 L 18377,7404 L 18315,7267 L 18253,7130 L 18340,7091 L 18402,7228 L 18463,7365 z "
             style="fill:#ffffff;fill-opacity:1" />
          <path
             id="path2417"
             d="M 18315,7267 L 18377,7404 L 18358,7411 L 18315,7267 z "
             style="fill:#ffffff;fill-opacity:1" />
          <path
             id="path2419"
             d="M 18358,7411 L 18260,7440 L 18217,7297 L 18174,7153 L 18272,7123 L 18315,7267 L 18358,7411 z "
             style="fill:#ffffff;fill-opacity:1" />
          <path
             id="path2421"
             d="M 18217,7297 L 18260,7440 L 18242,7444 L 18217,7297 z "
             style="fill:#ffffff;fill-opacity:1" />
          <path
             id="path2423"
             d="M 18242,7444 L 18133,7463 L 18108,7315 L 18083,7167 L 18192,7149 L 18217,7297 L 18242,7444 z "
             style="fill:#ffffff;fill-opacity:1" />
        </g>
        <g
           id="g2425"
           style="fill:#ffffff;fill-opacity:1" />
      </g>
    </g>
  </g>
</svg>
