<?xml version="1.0" encoding="UTF-8" standalone="no"?>
<!-- Created with Inkscape (http://www.inkscape.org/) -->
<svg
   xmlns:dc="http://purl.org/dc/elements/1.1/"
   xmlns:cc="http://web.resource.org/cc/"
   xmlns:rdf="http://www.w3.org/1999/02/22-rdf-syntax-ns#"
   xmlns:svg="http://www.w3.org/2000/svg"
   xmlns="http://www.w3.org/2000/svg"
   xmlns:sodipodi="http://sodipodi.sourceforge.net/DTD/sodipodi-0.dtd"
   xmlns:inkscape="http://www.inkscape.org/namespaces/inkscape"
   width="1cm"
   height="1cm"
   id="svg9908"
   sodipodi:version="0.32"
   inkscape:version="0.45"
   version="1.0"
   sodipodi:docbase="/data/world/proj/Kproj/symsolon/share/symsolon/aspects"
   sodipodi:docname="aspect-sesquiquadrat.svg"
   inkscape:output_extension="org.inkscape.output.svg.inkscape"
   sodipodi:modified="true">
  <defs
     id="defs9910" />
  <sodipodi:namedview
     id="base"
     pagecolor="#000000"
     bordercolor="#666666"
     borderopacity="1.0"
     inkscape:pageopacity="1"
     inkscape:pageshadow="2"
     inkscape:zoom="7.0170015"
     inkscape:cx="0.79131245"
     inkscape:cy="17.556514"
     inkscape:document-units="px"
     inkscape:current-layer="layer1"
     inkscape:window-width="966"
     inkscape:window-height="626"
     inkscape:window-x="10"
     inkscape:window-y="73" />
  <metadata
     id="metadata9913">
    <rdf:RDF>
      <cc:Work
         rdf:about="">
        <dc:format>image/svg+xml</dc:format>
        <dc:type
           rdf:resource="http://purl.org/dc/dcmitype/StillImage" />
      </cc:Work>
    </rdf:RDF>
  </metadata>
  <g
     inkscape:label="1. réteg"
     inkscape:groupmode="layer"
     id="layer1">
    <g
       transform="matrix(1.3710234e-2,0,0,1.3710234e-2,-16.995527,-185.49062)"
       style="fill:#ffffff;fill-opacity:1;visibility:visible"
       id="g2583">
      <desc
         id="desc2585">Drawing</desc>
      <g
         id="g2587"
         style="fill:#ffffff;fill-opacity:1">
        <g
           id="g2589"
           style="fill:#ffffff;fill-opacity:1;stroke:none">
          <path
             id="path2591"
             d="M 3149,14338 L 3131,14281 L 3274,14237 L 3418,14193 L 3435,14250 L 3292,14294 L 3149,14338 z "
             style="fill:#ffffff;fill-opacity:1" />
          <path
             id="path2593"
             d="M 3274,14237 L 3412,14178 L 3418,14193 L 3274,14237 z "
             style="fill:#ffffff;fill-opacity:1" />
          <path
             id="path2595"
             d="M 3136,14295 L 3113,14241 L 3251,14183 L 3389,14124 L 3412,14178 L 3274,14237 L 3136,14295 z "
             style="fill:#ffffff;fill-opacity:1" />
          <path
             id="path2597"
             d="M 3251,14183 L 3383,14110 L 3389,14124 L 3251,14183 z "
             style="fill:#ffffff;fill-opacity:1" />
          <path
             id="path2599"
             d="M 3120,14255 L 3092,14205 L 3223,14132 L 3355,14059 L 3383,14110 L 3251,14183 L 3120,14255 z "
             style="fill:#ffffff;fill-opacity:1" />
          <path
             id="path2601"
             d="M 3223,14132 L 3347,14046 L 3355,14059 L 3223,14132 z "
             style="fill:#ffffff;fill-opacity:1" />
          <path
             id="path2603"
             d="M 3100,14217 L 3067,14170 L 3191,14085 L 3314,13999 L 3347,14046 L 3223,14132 L 3100,14217 z "
             style="fill:#ffffff;fill-opacity:1" />
          <path
             id="path2605"
             d="M 3191,14085 L 3305,13988 L 3314,13999 L 3191,14085 z "
             style="fill:#ffffff;fill-opacity:1" />
          <path
             id="path2607"
             d="M 3076,14182 L 3039,14138 L 3154,14041 L 3268,13944 L 3305,13988 L 3191,14085 L 3076,14182 z "
             style="fill:#ffffff;fill-opacity:1" />
          <path
             id="path2609"
             d="M 3154,14041 L 3259,13934 L 3268,13944 L 3154,14041 z "
             style="fill:#ffffff;fill-opacity:1" />
          <path
             id="path2611"
             d="M 3048,14148 L 3008,14108 L 3113,14001 L 3218,13894 L 3259,13934 L 3154,14041 L 3048,14148 z "
             style="fill:#ffffff;fill-opacity:1" />
          <path
             id="path2613"
             d="M 3113,14001 L 3209,13885 L 3218,13894 L 3113,14001 z "
             style="fill:#ffffff;fill-opacity:1" />
          <path
             id="path2615"
             d="M 3017,14116 L 2973,14080 L 3069,13964 L 3164,13849 L 3209,13885 L 3113,14001 L 3017,14116 z "
             style="fill:#ffffff;fill-opacity:1" />
          <path
             id="path2617"
             d="M 3069,13964 L 3154,13841 L 3164,13849 L 3069,13964 z "
             style="fill:#ffffff;fill-opacity:1" />
          <path
             id="path2619"
             d="M 2983,14087 L 2935,14054 L 3021,13931 L 3107,13808 L 3154,13841 L 3069,13964 L 2983,14087 z "
             style="fill:#ffffff;fill-opacity:1" />
          <path
             id="path2621"
             d="M 3021,13931 L 3093,13799 L 3107,13808 L 3021,13931 z "
             style="fill:#ffffff;fill-opacity:1" />
          <path
             id="path2623"
             d="M 2950,14063 L 2847,14007 L 2918,13875 L 2990,13744 L 3093,13799 L 3021,13931 L 2950,14063 z "
             style="fill:#ffffff;fill-opacity:1" />
          <path
             id="path2625"
             d="M 2918,13875 L 2971,13735 L 2990,13744 L 2918,13875 z "
             style="fill:#ffffff;fill-opacity:1" />
          <path
             id="path2627"
             d="M 2866,14016 L 2755,13975 L 2808,13834 L 2860,13694 L 2971,13735 L 2918,13875 L 2866,14016 z "
             style="fill:#ffffff;fill-opacity:1" />
          <path
             id="path2629"
             d="M 2808,13834 L 2841,13688 L 2860,13694 L 2808,13834 z "
             style="fill:#ffffff;fill-opacity:1" />
          <path
             id="path2631"
             d="M 2774,13980 L 2658,13953 L 2692,13807 L 2726,13661 L 2841,13688 L 2808,13834 L 2774,13980 z "
             style="fill:#ffffff;fill-opacity:1" />
          <path
             id="path2633"
             d="M 2692,13807 L 2707,13658 L 2726,13661 L 2692,13807 z "
             style="fill:#ffffff;fill-opacity:1" />
          <path
             id="path2635"
             d="M 2676,13956 L 2559,13944 L 2574,13795 L 2589,13646 L 2707,13658 L 2692,13807 L 2676,13956 z "
             style="fill:#ffffff;fill-opacity:1" />
          <path
             id="path2637"
             d="M 2574,13795 L 2571,13645 L 2589,13646 L 2574,13795 z "
             style="fill:#ffffff;fill-opacity:1" />
          <path
             id="path2639"
             d="M 2577,13945 L 2461,13947 L 2457,13798 L 2454,13648 L 2571,13645 L 2574,13795 L 2577,13945 z "
             style="fill:#ffffff;fill-opacity:1" />
          <path
             id="path2641"
             d="M 2457,13798 L 2434,13649 L 2454,13648 L 2457,13798 z "
             style="fill:#ffffff;fill-opacity:1" />
          <path
             id="path2643"
             d="M 2480,13946 L 2368,13963 L 2345,13815 L 2322,13667 L 2434,13649 L 2457,13798 L 2480,13946 z "
             style="fill:#ffffff;fill-opacity:1" />
          <path
             id="path2645"
             d="M 2345,13815 L 2300,13672 L 2322,13667 L 2345,13815 z "
             style="fill:#ffffff;fill-opacity:1" />
          <path
             id="path2647"
             d="M 2389,13958 L 2283,13991 L 2239,13847 L 2195,13704 L 2300,13672 L 2345,13815 L 2389,13958 z "
             style="fill:#ffffff;fill-opacity:1" />
          <path
             id="path2649"
             d="M 2239,13847 L 2178,13710 L 2195,13704 L 2239,13847 z "
             style="fill:#ffffff;fill-opacity:1" />
          <path
             id="path2651"
             d="M 2300,13984 L 2251,14006 L 2190,13869 L 2129,13732 L 2178,13710 L 2239,13847 L 2300,13984 z "
             style="fill:#ffffff;fill-opacity:1" />
          <path
             id="path2653"
             d="M 2190,13869 L 2117,13738 L 2129,13732 L 2190,13869 z "
             style="fill:#ffffff;fill-opacity:1" />
          <path
             id="path2655"
             d="M 2263,14001 L 2216,14026 L 2143,13895 L 2070,13764 L 2117,13738 L 2190,13869 L 2263,14001 z "
             style="fill:#ffffff;fill-opacity:1" />
          <path
             id="path2657"
             d="M 2143,13895 L 2058,13772 L 2070,13764 L 2143,13895 z "
             style="fill:#ffffff;fill-opacity:1" />
          <path
             id="path2659"
             d="M 2228,14019 L 2185,14048 L 2100,13925 L 2015,13801 L 2058,13772 L 2143,13895 L 2228,14019 z "
             style="fill:#ffffff;fill-opacity:1" />
          <path
             id="path2661"
             d="M 2100,13925 L 2003,13810 L 2015,13801 L 2100,13925 z "
             style="fill:#ffffff;fill-opacity:1" />
          <path
             id="path2663"
             d="M 2197,14039 L 2158,14073 L 2061,13958 L 1964,13844 L 2003,13810 L 2100,13925 L 2197,14039 z "
             style="fill:#ffffff;fill-opacity:1" />
          <path
             id="path2665"
             d="M 2061,13958 L 1952,13855 L 1964,13844 L 2061,13958 z "
             style="fill:#ffffff;fill-opacity:1" />
          <path
             id="path2667"
             d="M 2170,14061 L 2134,14099 L 2025,13996 L 1917,13892 L 1952,13855 L 2061,13958 L 2170,14061 z "
             style="fill:#ffffff;fill-opacity:1" />
          <path
             id="path2669"
             d="M 2025,13996 L 1906,13905 L 1917,13892 L 2025,13996 z "
             style="fill:#ffffff;fill-opacity:1" />
          <path
             id="path2671"
             d="M 2145,14086 L 2114,14127 L 1994,14037 L 1875,13947 L 1906,13905 L 2025,13996 L 2145,14086 z "
             style="fill:#ffffff;fill-opacity:1" />
          <path
             id="path2673"
             d="M 1994,14037 L 1865,13961 L 1875,13947 L 1994,14037 z "
             style="fill:#ffffff;fill-opacity:1" />
          <path
             id="path2675"
             d="M 2124,14112 L 2098,14157 L 1968,14082 L 1839,14007 L 1865,13961 L 1994,14037 L 2124,14112 z "
             style="fill:#ffffff;fill-opacity:1" />
          <path
             id="path2677"
             d="M 1968,14082 L 1830,14023 L 1839,14007 L 1968,14082 z "
             style="fill:#ffffff;fill-opacity:1" />
          <path
             id="path2679"
             d="M 2106,14141 L 2085,14190 L 1947,14131 L 1809,14072 L 1830,14023 L 1968,14082 L 2106,14141 z "
             style="fill:#ffffff;fill-opacity:1" />
          <path
             id="path2681"
             d="M 1947,14131 L 1803,14089 L 1809,14072 L 1947,14131 z "
             style="fill:#ffffff;fill-opacity:1" />
          <path
             id="path2683"
             d="M 2091,14173 L 2076,14226 L 1932,14184 L 1788,14142 L 1803,14089 L 1947,14131 L 2091,14173 z "
             style="fill:#ffffff;fill-opacity:1" />
          <path
             id="path2685"
             d="M 1932,14184 L 1784,14159 L 1788,14142 L 1932,14184 z "
             style="fill:#ffffff;fill-opacity:1" />
          <path
             id="path2687"
             d="M 2080,14209 L 2070,14266 L 1922,14241 L 1774,14216 L 1784,14159 L 1932,14184 L 2080,14209 z "
             style="fill:#ffffff;fill-opacity:1" />
          <path
             id="path2689"
             d="M 1922,14241 L 1772,14235 L 1774,14216 L 1922,14241 z "
             style="fill:#ffffff;fill-opacity:1" />
          <path
             id="path2691"
             d="M 2072,14247 L 2070,14303 L 1920,14298 L 1770,14292 L 1772,14235 L 1922,14241 L 2072,14247 z "
             style="fill:#ffffff;fill-opacity:1" />
          <path
             id="path2693"
             d="M 1920,14298 L 1771,14315 L 1770,14292 L 1920,14298 z "
             style="fill:#ffffff;fill-opacity:1" />
          <path
             id="path2695"
             d="M 2069,14280 L 2075,14332 L 1926,14350 L 1777,14367 L 1771,14315 L 1920,14298 L 2069,14280 z "
             style="fill:#ffffff;fill-opacity:1" />
          <path
             id="path2697"
             d="M 1926,14350 L 1782,14391 L 1777,14367 L 1926,14350 z "
             style="fill:#ffffff;fill-opacity:1" />
          <path
             id="path2699"
             d="M 2070,14308 L 2084,14356 L 1940,14398 L 1796,14439 L 1782,14391 L 1926,14350 L 2070,14308 z "
             style="fill:#ffffff;fill-opacity:1" />
          <path
             id="path2701"
             d="M 1940,14398 L 1804,14462 L 1796,14439 L 1940,14398 z "
             style="fill:#ffffff;fill-opacity:1" />
          <path
             id="path2703"
             d="M 2075,14333 L 2096,14377 L 1961,14442 L 1825,14506 L 1804,14462 L 1940,14398 L 2075,14333 z "
             style="fill:#ffffff;fill-opacity:1" />
          <path
             id="path2705"
             d="M 1961,14442 L 1837,14527 L 1825,14506 L 1961,14442 z "
             style="fill:#ffffff;fill-opacity:1" />
          <path
             id="path2707"
             d="M 2085,14357 L 2112,14398 L 1989,14482 L 1865,14567 L 1837,14527 L 1961,14442 L 2085,14357 z "
             style="fill:#ffffff;fill-opacity:1" />
          <path
             id="path2709"
             d="M 1989,14482 L 1878,14583 L 1865,14567 L 1989,14482 z "
             style="fill:#ffffff;fill-opacity:1" />
          <path
             id="path2711"
             d="M 2100,14382 L 2133,14419 L 2022,14520 L 1911,14621 L 1878,14583 L 1989,14482 L 2100,14382 z "
             style="fill:#ffffff;fill-opacity:1" />
          <path
             id="path2713"
             d="M 2022,14520 L 1924,14633 L 1911,14621 L 2022,14520 z "
             style="fill:#ffffff;fill-opacity:1" />
          <path
             id="path2715"
             d="M 2121,14407 L 2160,14441 L 2062,14554 L 1964,14667 L 1924,14633 L 2022,14520 L 2121,14407 z "
             style="fill:#ffffff;fill-opacity:1" />
          <path
             id="path2717"
             d="M 2062,14554 L 1975,14676 L 1964,14667 L 2062,14554 z "
             style="fill:#ffffff;fill-opacity:1" />
          <path
             id="path2719"
             d="M 2149,14432 L 2193,14463 L 2107,14586 L 2020,14708 L 1975,14676 L 2062,14554 L 2149,14432 z "
             style="fill:#ffffff;fill-opacity:1" />
          <path
             id="path2721"
             d="M 2107,14586 L 2034,14717 L 2020,14708 L 2107,14586 z "
             style="fill:#ffffff;fill-opacity:1" />
          <path
             id="path2723"
             d="M 2179,14454 L 2281,14511 L 2209,14642 L 2136,14773 L 2034,14717 L 2107,14586 L 2179,14454 z "
             style="fill:#ffffff;fill-opacity:1" />
          <path
             id="path2725"
             d="M 2209,14642 L 2150,14780 L 2136,14773 L 2209,14642 z "
             style="fill:#ffffff;fill-opacity:1" />
          <path
             id="path2727"
             d="M 2267,14504 L 2383,14553 L 2325,14691 L 2266,14829 L 2150,14780 L 2209,14642 L 2267,14504 z "
             style="fill:#ffffff;fill-opacity:1" />
          <path
             id="path2729"
             d="M 2325,14691 L 2277,14834 L 2266,14829 L 2325,14691 z "
             style="fill:#ffffff;fill-opacity:1" />
          <path
             id="path2731"
             d="M 2372,14549 L 2628,14635 L 2581,14777 L 2533,14919 L 2277,14834 L 2325,14691 L 2372,14549 z "
             style="fill:#ffffff;fill-opacity:1" />
          <path
             id="path2733"
             d="M 2581,14777 L 2535,14920 L 2533,14919 L 2581,14777 z "
             style="fill:#ffffff;fill-opacity:1" />
          <path
             id="path2735"
             d="M 2627,14634 L 2887,14718 L 2840,14861 L 2794,15004 L 2535,14920 L 2581,14777 L 2627,14634 z "
             style="fill:#ffffff;fill-opacity:1" />
          <path
             id="path2737"
             d="M 2840,14861 L 2887,14718 L 2895,14722 L 2840,14861 z "
             style="fill:#ffffff;fill-opacity:1" />
          <path
             id="path2739"
             d="M 2895,14722 L 3016,14769 L 2960,14909 L 2905,15048 L 2785,15001 L 2840,14861 L 2895,14722 z "
             style="fill:#ffffff;fill-opacity:1" />
          <path
             id="path2741"
             d="M 2960,14909 L 3016,14769 L 3028,14774 L 2960,14909 z "
             style="fill:#ffffff;fill-opacity:1" />
          <path
             id="path2743"
             d="M 3028,14774 L 3136,14828 L 3069,14963 L 3001,15097 L 2893,15043 L 2960,14909 L 3028,14774 z "
             style="fill:#ffffff;fill-opacity:1" />
          <path
             id="path2745"
             d="M 3069,14963 L 3136,14828 L 3148,14836 L 3069,14963 z "
             style="fill:#ffffff;fill-opacity:1" />
          <path
             id="path2747"
             d="M 3148,14836 L 3196,14866 L 3117,14993 L 3037,15120 L 2989,15090 L 3069,14963 L 3148,14836 z "
             style="fill:#ffffff;fill-opacity:1" />
          <path
             id="path2749"
             d="M 3117,14993 L 3196,14866 L 3207,14873 L 3117,14993 z "
             style="fill:#ffffff;fill-opacity:1" />
          <path
             id="path2751"
             d="M 3207,14873 L 3250,14906 L 3160,15025 L 3070,15145 L 3026,15113 L 3117,14993 L 3207,14873 z "
             style="fill:#ffffff;fill-opacity:1" />
          <path
             id="path2753"
             d="M 3160,15025 L 3250,14906 L 3262,14916 L 3160,15025 z "
             style="fill:#ffffff;fill-opacity:1" />
          <path
             id="path2755"
             d="M 3262,14916 L 3300,14951 L 3198,15061 L 3096,15171 L 3058,15135 L 3160,15025 L 3262,14916 z "
             style="fill:#ffffff;fill-opacity:1" />
          <path
             id="path2757"
             d="M 3198,15061 L 3300,14951 L 3313,14964 L 3198,15061 z "
             style="fill:#ffffff;fill-opacity:1" />
          <path
             id="path2759"
             d="M 3313,14964 L 3346,15003 L 3231,15100 L 3116,15196 L 3084,15158 L 3198,15061 L 3313,14964 z "
             style="fill:#ffffff;fill-opacity:1" />
          <path
             id="path2761"
             d="M 3231,15100 L 3346,15003 L 3358,15020 L 3231,15100 z "
             style="fill:#ffffff;fill-opacity:1" />
          <path
             id="path2763"
             d="M 3358,15020 L 3384,15062 L 3257,15142 L 3130,15221 L 3104,15179 L 3231,15100 L 3358,15020 z "
             style="fill:#ffffff;fill-opacity:1" />
          <path
             id="path2765"
             d="M 3257,15142 L 3384,15062 L 3395,15083 L 3257,15142 z "
             style="fill:#ffffff;fill-opacity:1" />
          <path
             id="path2767"
             d="M 3395,15083 L 3415,15129 L 3277,15187 L 3139,15246 L 3119,15200 L 3257,15142 L 3395,15083 z "
             style="fill:#ffffff;fill-opacity:1" />
          <path
             id="path2769"
             d="M 3277,15187 L 3415,15129 L 3422,15152 L 3277,15187 z "
             style="fill:#ffffff;fill-opacity:1" />
          <path
             id="path2771"
             d="M 3422,15152 L 3435,15202 L 3289,15237 L 3143,15273 L 3131,15223 L 3277,15187 L 3422,15152 z "
             style="fill:#ffffff;fill-opacity:1" />
          <path
             id="path2773"
             d="M 3289,15237 L 3435,15202 L 3438,15225 L 3289,15237 z "
             style="fill:#ffffff;fill-opacity:1" />
          <path
             id="path2775"
             d="M 3438,15225 L 3443,15279 L 3293,15291 L 3143,15303 L 3139,15249 L 3289,15237 L 3438,15225 z "
             style="fill:#ffffff;fill-opacity:1" />
          <path
             id="path2777"
             d="M 3293,15291 L 3443,15279 L 3443,15300 L 3293,15291 z "
             style="fill:#ffffff;fill-opacity:1" />
          <path
             id="path2779"
             d="M 3443,15300 L 3439,15355 L 3290,15346 L 3140,15336 L 3143,15282 L 3293,15291 L 3443,15300 z "
             style="fill:#ffffff;fill-opacity:1" />
          <path
             id="path2781"
             d="M 3290,15346 L 3439,15355 L 3437,15374 L 3290,15346 z "
             style="fill:#ffffff;fill-opacity:1" />
          <path
             id="path2783"
             d="M 3437,15374 L 3427,15427 L 3279,15398 L 3132,15370 L 3142,15317 L 3290,15346 L 3437,15374 z "
             style="fill:#ffffff;fill-opacity:1" />
          <path
             id="path2785"
             d="M 3279,15398 L 3427,15427 L 3422,15445 L 3279,15398 z "
             style="fill:#ffffff;fill-opacity:1" />
          <path
             id="path2787"
             d="M 3422,15445 L 3405,15495 L 3263,15448 L 3121,15401 L 3137,15351 L 3279,15398 L 3422,15445 z "
             style="fill:#ffffff;fill-opacity:1" />
          <path
             id="path2789"
             d="M 3263,15448 L 3405,15495 L 3399,15512 L 3263,15448 z "
             style="fill:#ffffff;fill-opacity:1" />
          <path
             id="path2791"
             d="M 3399,15512 L 3376,15559 L 3241,15495 L 3105,15430 L 3127,15383 L 3263,15448 L 3399,15512 z "
             style="fill:#ffffff;fill-opacity:1" />
          <path
             id="path2793"
             d="M 3241,15495 L 3376,15559 L 3368,15574 L 3241,15495 z "
             style="fill:#ffffff;fill-opacity:1" />
          <path
             id="path2795"
             d="M 3368,15574 L 3340,15618 L 3213,15539 L 3086,15459 L 3114,15415 L 3241,15495 L 3368,15574 z "
             style="fill:#ffffff;fill-opacity:1" />
          <path
             id="path2797"
             d="M 3213,15539 L 3340,15618 L 3331,15632 L 3213,15539 z "
             style="fill:#ffffff;fill-opacity:1" />
          <path
             id="path2799"
             d="M 3331,15632 L 3298,15673 L 3180,15580 L 3063,15486 L 3096,15445 L 3213,15539 L 3331,15632 z "
             style="fill:#ffffff;fill-opacity:1" />
          <path
             id="path2801"
             d="M 3180,15580 L 3298,15673 L 3288,15684 L 3180,15580 z "
             style="fill:#ffffff;fill-opacity:1" />
          <path
             id="path2803"
             d="M 3288,15684 L 3250,15723 L 3143,15618 L 3036,15513 L 3073,15475 L 3180,15580 L 3288,15684 z "
             style="fill:#ffffff;fill-opacity:1" />
          <path
             id="path2805"
             d="M 3143,15618 L 3250,15723 L 3240,15732 L 3143,15618 z "
             style="fill:#ffffff;fill-opacity:1" />
          <path
             id="path2807"
             d="M 3240,15732 L 3199,15767 L 3102,15653 L 3005,15539 L 3046,15503 L 3143,15618 L 3240,15732 z "
             style="fill:#ffffff;fill-opacity:1" />
          <path
             id="path2809"
             d="M 3102,15653 L 3199,15767 L 3183,15779 L 3102,15653 z "
             style="fill:#ffffff;fill-opacity:1" />
          <path
             id="path2811"
             d="M 3183,15779 L 3090,15840 L 3008,15714 L 2926,15588 L 3020,15527 L 3102,15653 L 3183,15779 z "
             style="fill:#ffffff;fill-opacity:1" />
          <path
             id="path2813"
             d="M 3008,15714 L 3090,15840 L 3070,15851 L 3008,15714 z "
             style="fill:#ffffff;fill-opacity:1" />
          <path
             id="path2815"
             d="M 3070,15851 L 2964,15899 L 2902,15762 L 2840,15626 L 2946,15578 L 3008,15714 L 3070,15851 z "
             style="fill:#ffffff;fill-opacity:1" />
          <path
             id="path2817"
             d="M 2902,15762 L 2964,15899 L 2946,15906 L 2902,15762 z "
             style="fill:#ffffff;fill-opacity:1" />
          <path
             id="path2819"
             d="M 2946,15906 L 2832,15941 L 2788,15797 L 2744,15654 L 2858,15619 L 2902,15762 L 2946,15906 z "
             style="fill:#ffffff;fill-opacity:1" />
          <path
             id="path2821"
             d="M 2788,15797 L 2832,15941 L 2814,15945 L 2788,15797 z "
             style="fill:#ffffff;fill-opacity:1" />
          <path
             id="path2823"
             d="M 2814,15945 L 2694,15966 L 2668,15818 L 2642,15671 L 2762,15650 L 2788,15797 L 2814,15945 z "
             style="fill:#ffffff;fill-opacity:1" />
          <path
             id="path2825"
             d="M 2668,15818 L 2694,15966 L 2676,15968 L 2668,15818 z "
             style="fill:#ffffff;fill-opacity:1" />
          <path
             id="path2827"
             d="M 2676,15968 L 2555,15975 L 2547,15825 L 2539,15675 L 2660,15668 L 2668,15818 L 2676,15968 z "
             style="fill:#ffffff;fill-opacity:1" />
          <path
             id="path2829"
             d="M 2547,15825 L 2555,15975 L 2537,15974 L 2547,15825 z "
             style="fill:#ffffff;fill-opacity:1" />
          <path
             id="path2831"
             d="M 2537,15974 L 2417,15966 L 2427,15816 L 2437,15667 L 2557,15675 L 2547,15825 L 2537,15974 z "
             style="fill:#ffffff;fill-opacity:1" />
          <path
             id="path2833"
             d="M 2427,15816 L 2417,15966 L 2397,15963 L 2427,15816 z "
             style="fill:#ffffff;fill-opacity:1" />
          <path
             id="path2835"
             d="M 2397,15963 L 2281,15940 L 2312,15793 L 2342,15646 L 2457,15670 L 2427,15816 L 2397,15963 z "
             style="fill:#ffffff;fill-opacity:1" />
          <path
             id="path2837"
             d="M 2312,15793 L 2281,15940 L 2265,15935 L 2312,15793 z "
             style="fill:#ffffff;fill-opacity:1" />
          <path
             id="path2839"
             d="M 2265,15935 L 2210,15917 L 2257,15775 L 2303,15632 L 2358,15650 L 2312,15793 L 2265,15935 z "
             style="fill:#ffffff;fill-opacity:1" />
          <path
             id="path2841"
             d="M 2257,15775 L 2210,15917 L 2199,15913 L 2257,15775 z "
             style="fill:#ffffff;fill-opacity:1" />
          <path
             id="path2843"
             d="M 2199,15913 L 2146,15891 L 2204,15753 L 2262,15614 L 2314,15636 L 2257,15775 L 2199,15913 z "
             style="fill:#ffffff;fill-opacity:1" />
          <path
             id="path2845"
             d="M 2204,15753 L 2146,15891 L 2134,15886 L 2204,15753 z "
             style="fill:#ffffff;fill-opacity:1" />
          <path
             id="path2847"
             d="M 2134,15886 L 2085,15860 L 2154,15727 L 2224,15594 L 2274,15620 L 2204,15753 L 2134,15886 z "
             style="fill:#ffffff;fill-opacity:1" />
          <path
             id="path2849"
             d="M 2154,15727 L 2085,15860 L 2073,15852 L 2154,15727 z "
             style="fill:#ffffff;fill-opacity:1" />
          <path
             id="path2851"
             d="M 2073,15852 L 2026,15822 L 2108,15696 L 2190,15571 L 2236,15601 L 2154,15727 L 2073,15852 z "
             style="fill:#ffffff;fill-opacity:1" />
          <path
             id="path2853"
             d="M 2108,15696 L 2026,15822 L 2014,15813 L 2108,15696 z "
             style="fill:#ffffff;fill-opacity:1" />
          <path
             id="path2855"
             d="M 2014,15813 L 1971,15779 L 2065,15662 L 2159,15545 L 2202,15580 L 2108,15696 L 2014,15813 z "
             style="fill:#ffffff;fill-opacity:1" />
          <path
             id="path2857"
             d="M 2065,15662 L 1971,15779 L 1959,15768 L 2065,15662 z "
             style="fill:#ffffff;fill-opacity:1" />
          <path
             id="path2859"
             d="M 1959,15768 L 1920,15729 L 2026,15623 L 2133,15517 L 2171,15556 L 2065,15662 L 1959,15768 z "
             style="fill:#ffffff;fill-opacity:1" />
          <path
             id="path2861"
             d="M 2026,15623 L 1920,15729 L 1909,15716 L 2026,15623 z "
             style="fill:#ffffff;fill-opacity:1" />
          <path
             id="path2863"
             d="M 1909,15716 L 1875,15673 L 1992,15580 L 2110,15487 L 2144,15530 L 2026,15623 L 1909,15716 z "
             style="fill:#ffffff;fill-opacity:1" />
          <path
             id="path2865"
             d="M 1992,15580 L 1875,15673 L 1864,15659 L 1992,15580 z "
             style="fill:#ffffff;fill-opacity:1" />
          <path
             id="path2867"
             d="M 1864,15659 L 1835,15611 L 1963,15532 L 2090,15453 L 2120,15501 L 1992,15580 L 1864,15659 z "
             style="fill:#ffffff;fill-opacity:1" />
          <path
             id="path2869"
             d="M 1963,15532 L 1835,15611 L 1826,15595 L 1963,15532 z "
             style="fill:#ffffff;fill-opacity:1" />
          <path
             id="path2871"
             d="M 1826,15595 L 1802,15543 L 1938,15480 L 2075,15417 L 2099,15469 L 1963,15532 L 1826,15595 z "
             style="fill:#ffffff;fill-opacity:1" />
          <path
             id="path2873"
             d="M 1938,15480 L 1802,15543 L 1796,15526 L 1938,15480 z "
             style="fill:#ffffff;fill-opacity:1" />
          <path
             id="path2875"
             d="M 1796,15526 L 1777,15469 L 1920,15423 L 2063,15377 L 2081,15434 L 1938,15480 L 1796,15526 z "
             style="fill:#ffffff;fill-opacity:1" />
        </g>
        <g
           id="g2877"
           style="fill:#ffffff;fill-opacity:1" />
      </g>
    </g>
  </g>
</svg>
