<?xml version="1.0" encoding="UTF-8" standalone="no"?>
<!-- Created with Inkscape (http://www.inkscape.org/) -->
<svg
   xmlns:dc="http://purl.org/dc/elements/1.1/"
   xmlns:cc="http://web.resource.org/cc/"
   xmlns:rdf="http://www.w3.org/1999/02/22-rdf-syntax-ns#"
   xmlns:svg="http://www.w3.org/2000/svg"
   xmlns="http://www.w3.org/2000/svg"
   xmlns:sodipodi="http://sodipodi.sourceforge.net/DTD/sodipodi-0.dtd"
   xmlns:inkscape="http://www.inkscape.org/namespaces/inkscape"
   width="1cm"
   height="1cm"
   id="svg9908"
   sodipodi:version="0.32"
   inkscape:version="0.45"
   version="1.0"
   sodipodi:docbase="/data/world/proj/Kproj/symsolon/share/symsolon/aspects"
   sodipodi:docname="aspect-conjuct.svg"
   inkscape:output_extension="org.inkscape.output.svg.inkscape"
   sodipodi:modified="true">
  <defs
     id="defs9910" />
  <sodipodi:namedview
     id="base"
     pagecolor="#000000"
     bordercolor="#666666"
     borderopacity="1.0"
     inkscape:pageopacity="1"
     inkscape:pageshadow="2"
     inkscape:zoom="4.1289833"
     inkscape:cx="-9.966191"
     inkscape:cy="29.655197"
     inkscape:document-units="px"
     inkscape:current-layer="layer1"
     inkscape:window-width="966"
     inkscape:window-height="626"
     inkscape:window-x="50"
     inkscape:window-y="88" />
  <metadata
     id="metadata9913">
    <rdf:RDF>
      <cc:Work
         rdf:about="">
        <dc:format>image/svg+xml</dc:format>
        <dc:type
           rdf:resource="http://purl.org/dc/dcmitype/StillImage" />
      </cc:Work>
    </rdf:RDF>
  </metadata>
  <g
     inkscape:label="1. réteg"
     inkscape:groupmode="layer"
     id="layer1">
    <g
       transform="matrix(1.0818337e-2,0,0,1.0818337e-2,-60.753143,-17.09174)"
       style="fill:#ffffff;fill-opacity:1;visibility:visible"
       id="g773">
      <desc
         id="desc775">Drawing</desc>
      <g
         id="g777"
         style="fill:#ffffff;fill-opacity:1">
        <g
           id="g779"
           style="fill:#ffffff;fill-opacity:1;stroke:none">
          <path
             id="path781"
             d="M 6654,4600 L 6593,4597 L 6601,4447 L 6608,4297 L 6670,4300 L 6662,4450 L 6654,4600 z "
             style="fill:#ffffff;fill-opacity:1" />
          <path
             id="path783"
             d="M 6601,4447 L 6593,4597 L 6578,4595 L 6601,4447 z "
             style="fill:#ffffff;fill-opacity:1" />
          <path
             id="path785"
             d="M 6578,4595 L 6519,4586 L 6542,4438 L 6564,4290 L 6624,4299 L 6601,4447 L 6578,4595 z "
             style="fill:#ffffff;fill-opacity:1" />
          <path
             id="path787"
             d="M 6542,4438 L 6519,4586 L 6504,4583 L 6542,4438 z "
             style="fill:#ffffff;fill-opacity:1" />
          <path
             id="path789"
             d="M 6504,4583 L 6447,4568 L 6484,4423 L 6522,4278 L 6579,4293 L 6542,4438 L 6504,4583 z "
             style="fill:#ffffff;fill-opacity:1" />
          <path
             id="path791"
             d="M 6484,4423 L 6447,4568 L 6432,4564 L 6484,4423 z "
             style="fill:#ffffff;fill-opacity:1" />
          <path
             id="path793"
             d="M 6432,4564 L 6377,4544 L 6429,4403 L 6481,4262 L 6536,4282 L 6484,4423 L 6432,4564 z "
             style="fill:#ffffff;fill-opacity:1" />
          <path
             id="path795"
             d="M 6429,4403 L 6377,4544 L 6364,4538 L 6429,4403 z "
             style="fill:#ffffff;fill-opacity:1" />
          <path
             id="path797"
             d="M 6364,4538 L 6312,4513 L 6377,4378 L 6442,4242 L 6494,4268 L 6429,4403 L 6364,4538 z "
             style="fill:#ffffff;fill-opacity:1" />
          <path
             id="path799"
             d="M 6377,4378 L 6312,4513 L 6299,4506 L 6377,4378 z "
             style="fill:#ffffff;fill-opacity:1" />
          <path
             id="path801"
             d="M 6299,4506 L 6249,4476 L 6327,4347 L 6405,4219 L 6455,4249 L 6377,4378 L 6299,4506 z "
             style="fill:#ffffff;fill-opacity:1" />
          <path
             id="path803"
             d="M 6327,4347 L 6249,4476 L 6238,4468 L 6327,4347 z "
             style="fill:#ffffff;fill-opacity:1" />
          <path
             id="path805"
             d="M 6238,4468 L 6191,4433 L 6281,4313 L 6371,4193 L 6417,4227 L 6327,4347 L 6238,4468 z "
             style="fill:#ffffff;fill-opacity:1" />
          <path
             id="path807"
             d="M 6281,4313 L 6191,4433 L 6180,4424 L 6281,4313 z "
             style="fill:#ffffff;fill-opacity:1" />
          <path
             id="path809"
             d="M 6180,4424 L 6138,4385 L 6239,4274 L 6340,4163 L 6382,4202 L 6281,4313 L 6180,4424 z "
             style="fill:#ffffff;fill-opacity:1" />
          <path
             id="path811"
             d="M 6239,4274 L 6138,4385 L 6128,4375 L 6239,4274 z "
             style="fill:#ffffff;fill-opacity:1" />
          <path
             id="path813"
             d="M 6128,4375 L 6089,4333 L 6200,4232 L 6311,4131 L 6350,4173 L 6239,4274 L 6128,4375 z "
             style="fill:#ffffff;fill-opacity:1" />
          <path
             id="path815"
             d="M 6200,4232 L 6089,4333 L 6080,4322 L 6200,4232 z "
             style="fill:#ffffff;fill-opacity:1" />
          <path
             id="path817"
             d="M 6080,4322 L 6045,4275 L 6166,4186 L 6286,4096 L 6320,4142 L 6200,4232 L 6080,4322 z "
             style="fill:#ffffff;fill-opacity:1" />
          <path
             id="path819"
             d="M 6166,4186 L 6045,4275 L 6037,4264 L 6166,4186 z "
             style="fill:#ffffff;fill-opacity:1" />
          <path
             id="path821"
             d="M 6037,4264 L 6007,4214 L 6135,4136 L 6264,4058 L 6294,4108 L 6166,4186 L 6037,4264 z "
             style="fill:#ffffff;fill-opacity:1" />
          <path
             id="path823"
             d="M 6135,4136 L 6007,4214 L 6000,4201 L 6135,4136 z "
             style="fill:#ffffff;fill-opacity:1" />
          <path
             id="path825"
             d="M 6000,4201 L 5975,4149 L 6110,4084 L 6245,4019 L 6271,4071 L 6135,4136 L 6000,4201 z "
             style="fill:#ffffff;fill-opacity:1" />
          <path
             id="path827"
             d="M 6110,4084 L 5975,4149 L 5969,4136 L 6110,4084 z "
             style="fill:#ffffff;fill-opacity:1" />
          <path
             id="path829"
             d="M 5969,4136 L 5949,4081 L 6090,4029 L 6231,3977 L 6251,4032 L 6110,4084 L 5969,4136 z "
             style="fill:#ffffff;fill-opacity:1" />
          <path
             id="path831"
             d="M 6090,4029 L 5949,4081 L 5945,4066 L 6090,4029 z "
             style="fill:#ffffff;fill-opacity:1" />
          <path
             id="path833"
             d="M 5945,4066 L 5930,4009 L 6075,3971 L 6220,3934 L 6235,3991 L 6090,4029 L 5945,4066 z "
             style="fill:#ffffff;fill-opacity:1" />
          <path
             id="path835"
             d="M 6075,3971 L 5930,4009 L 5927,3994 L 6075,3971 z "
             style="fill:#ffffff;fill-opacity:1" />
          <path
             id="path837"
             d="M 5927,3994 L 5918,3935 L 6066,3912 L 6214,3889 L 6223,3949 L 6075,3971 L 5927,3994 z "
             style="fill:#ffffff;fill-opacity:1" />
          <path
             id="path839"
             d="M 6066,3912 L 5918,3935 L 5916,3920 L 6066,3912 z "
             style="fill:#ffffff;fill-opacity:1" />
          <path
             id="path841"
             d="M 5916,3920 L 5913,3859 L 6063,3851 L 6213,3843 L 6216,3905 L 6066,3912 L 5916,3920 z "
             style="fill:#ffffff;fill-opacity:1" />
          <path
             id="path843"
             d="M 6063,3851 L 5913,3859 L 5913,3843 L 6063,3851 z "
             style="fill:#ffffff;fill-opacity:1" />
          <path
             id="path845"
             d="M 5913,3843 L 5916,3782 L 6066,3790 L 6216,3797 L 6213,3859 L 6063,3851 L 5913,3843 z "
             style="fill:#ffffff;fill-opacity:1" />
          <path
             id="path847"
             d="M 6066,3790 L 5916,3782 L 5918,3767 L 6066,3790 z "
             style="fill:#ffffff;fill-opacity:1" />
          <path
             id="path849"
             d="M 5918,3767 L 5927,3708 L 6075,3731 L 6223,3753 L 6214,3813 L 6066,3790 L 5918,3767 z "
             style="fill:#ffffff;fill-opacity:1" />
          <path
             id="path851"
             d="M 6075,3731 L 5927,3708 L 5930,3693 L 6075,3731 z "
             style="fill:#ffffff;fill-opacity:1" />
          <path
             id="path853"
             d="M 5930,3693 L 5945,3636 L 6090,3673 L 6235,3711 L 6220,3768 L 6075,3731 L 5930,3693 z "
             style="fill:#ffffff;fill-opacity:1" />
          <path
             id="path855"
             d="M 6090,3673 L 5945,3636 L 5949,3621 L 6090,3673 z "
             style="fill:#ffffff;fill-opacity:1" />
          <path
             id="path857"
             d="M 5949,3621 L 5969,3566 L 6110,3618 L 6251,3670 L 6231,3725 L 6090,3673 L 5949,3621 z "
             style="fill:#ffffff;fill-opacity:1" />
          <path
             id="path859"
             d="M 6110,3618 L 5969,3566 L 5975,3553 L 6110,3618 z "
             style="fill:#ffffff;fill-opacity:1" />
          <path
             id="path861"
             d="M 5975,3553 L 6000,3501 L 6135,3566 L 6271,3631 L 6245,3683 L 6110,3618 L 5975,3553 z "
             style="fill:#ffffff;fill-opacity:1" />
          <path
             id="path863"
             d="M 6135,3566 L 6000,3501 L 6007,3488 L 6135,3566 z "
             style="fill:#ffffff;fill-opacity:1" />
          <path
             id="path865"
             d="M 6007,3488 L 6037,3438 L 6166,3516 L 6294,3594 L 6264,3644 L 6135,3566 L 6007,3488 z "
             style="fill:#ffffff;fill-opacity:1" />
          <path
             id="path867"
             d="M 6166,3516 L 6037,3438 L 6045,3427 L 6166,3516 z "
             style="fill:#ffffff;fill-opacity:1" />
          <path
             id="path869"
             d="M 6045,3427 L 6080,3380 L 6200,3470 L 6320,3560 L 6286,3606 L 6166,3516 L 6045,3427 z "
             style="fill:#ffffff;fill-opacity:1" />
          <path
             id="path871"
             d="M 6200,3470 L 6080,3380 L 6089,3369 L 6200,3470 z "
             style="fill:#ffffff;fill-opacity:1" />
          <path
             id="path873"
             d="M 6089,3369 L 6128,3327 L 6239,3428 L 6350,3529 L 6311,3571 L 6200,3470 L 6089,3369 z "
             style="fill:#ffffff;fill-opacity:1" />
          <path
             id="path875"
             d="M 6239,3428 L 6128,3327 L 6138,3317 L 6239,3428 z "
             style="fill:#ffffff;fill-opacity:1" />
          <path
             id="path877"
             d="M 6138,3317 L 6180,3278 L 6281,3389 L 6382,3500 L 6340,3539 L 6239,3428 L 6138,3317 z "
             style="fill:#ffffff;fill-opacity:1" />
          <path
             id="path879"
             d="M 6281,3389 L 6180,3278 L 6191,3269 L 6281,3389 z "
             style="fill:#ffffff;fill-opacity:1" />
          <path
             id="path881"
             d="M 6191,3269 L 6238,3234 L 6327,3355 L 6417,3475 L 6371,3509 L 6281,3389 L 6191,3269 z "
             style="fill:#ffffff;fill-opacity:1" />
          <path
             id="path883"
             d="M 6327,3355 L 6238,3234 L 6249,3226 L 6327,3355 z "
             style="fill:#ffffff;fill-opacity:1" />
          <path
             id="path885"
             d="M 6249,3226 L 6299,3196 L 6377,3324 L 6455,3453 L 6405,3483 L 6327,3355 L 6249,3226 z "
             style="fill:#ffffff;fill-opacity:1" />
          <path
             id="path887"
             d="M 6377,3324 L 6299,3196 L 6312,3189 L 6377,3324 z "
             style="fill:#ffffff;fill-opacity:1" />
          <path
             id="path889"
             d="M 6312,3189 L 6364,3164 L 6429,3299 L 6494,3434 L 6442,3460 L 6377,3324 L 6312,3189 z "
             style="fill:#ffffff;fill-opacity:1" />
          <path
             id="path891"
             d="M 6429,3299 L 6364,3164 L 6377,3158 L 6429,3299 z "
             style="fill:#ffffff;fill-opacity:1" />
          <path
             id="path893"
             d="M 6377,3158 L 6432,3138 L 6484,3279 L 6536,3420 L 6481,3440 L 6429,3299 L 6377,3158 z "
             style="fill:#ffffff;fill-opacity:1" />
          <path
             id="path895"
             d="M 6484,3279 L 6432,3138 L 6447,3134 L 6484,3279 z "
             style="fill:#ffffff;fill-opacity:1" />
          <path
             id="path897"
             d="M 6447,3134 L 6504,3119 L 6542,3264 L 6579,3409 L 6522,3424 L 6484,3279 L 6447,3134 z "
             style="fill:#ffffff;fill-opacity:1" />
          <path
             id="path899"
             d="M 6542,3264 L 6504,3119 L 6519,3116 L 6542,3264 z "
             style="fill:#ffffff;fill-opacity:1" />
          <path
             id="path901"
             d="M 6519,3116 L 6578,3107 L 6601,3255 L 6624,3403 L 6564,3412 L 6542,3264 L 6519,3116 z "
             style="fill:#ffffff;fill-opacity:1" />
          <path
             id="path903"
             d="M 6601,3255 L 6578,3107 L 6593,3105 L 6601,3255 z "
             style="fill:#ffffff;fill-opacity:1" />
          <path
             id="path905"
             d="M 6593,3105 L 6654,3102 L 6662,3252 L 6670,3402 L 6608,3405 L 6601,3255 L 6593,3105 z "
             style="fill:#ffffff;fill-opacity:1" />
          <path
             id="path907"
             d="M 6662,3252 L 6654,3102 L 6670,3102 L 6662,3252 z "
             style="fill:#ffffff;fill-opacity:1" />
          <path
             id="path909"
             d="M 6670,3102 L 6731,3105 L 6723,3255 L 6716,3405 L 6654,3402 L 6662,3252 L 6670,3102 z "
             style="fill:#ffffff;fill-opacity:1" />
          <path
             id="path911"
             d="M 6723,3255 L 6731,3105 L 6746,3107 L 6723,3255 z "
             style="fill:#ffffff;fill-opacity:1" />
          <path
             id="path913"
             d="M 6746,3107 L 6805,3116 L 6782,3264 L 6760,3412 L 6700,3403 L 6723,3255 L 6746,3107 z "
             style="fill:#ffffff;fill-opacity:1" />
          <path
             id="path915"
             d="M 6782,3264 L 6805,3116 L 6820,3119 L 6782,3264 z "
             style="fill:#ffffff;fill-opacity:1" />
          <path
             id="path917"
             d="M 6820,3119 L 6877,3134 L 6840,3279 L 6802,3424 L 6745,3409 L 6782,3264 L 6820,3119 z "
             style="fill:#ffffff;fill-opacity:1" />
          <path
             id="path919"
             d="M 6840,3279 L 6877,3134 L 6892,3138 L 6840,3279 z "
             style="fill:#ffffff;fill-opacity:1" />
          <path
             id="path921"
             d="M 6892,3138 L 6947,3158 L 6895,3299 L 6843,3440 L 6788,3420 L 6840,3279 L 6892,3138 z "
             style="fill:#ffffff;fill-opacity:1" />
          <path
             id="path923"
             d="M 6895,3299 L 6947,3158 L 6960,3164 L 6895,3299 z "
             style="fill:#ffffff;fill-opacity:1" />
          <path
             id="path925"
             d="M 6960,3164 L 7012,3189 L 6947,3324 L 6882,3460 L 6830,3434 L 6895,3299 L 6960,3164 z "
             style="fill:#ffffff;fill-opacity:1" />
          <path
             id="path927"
             d="M 6947,3324 L 7012,3189 L 7025,3196 L 6947,3324 z "
             style="fill:#ffffff;fill-opacity:1" />
          <path
             id="path929"
             d="M 7025,3196 L 7075,3226 L 6997,3355 L 6919,3483 L 6869,3453 L 6947,3324 L 7025,3196 z "
             style="fill:#ffffff;fill-opacity:1" />
          <path
             id="path931"
             d="M 6997,3355 L 7075,3226 L 7086,3234 L 6997,3355 z "
             style="fill:#ffffff;fill-opacity:1" />
          <path
             id="path933"
             d="M 7086,3234 L 7133,3269 L 7043,3389 L 6953,3509 L 6907,3475 L 6997,3355 L 7086,3234 z "
             style="fill:#ffffff;fill-opacity:1" />
          <path
             id="path935"
             d="M 7043,3389 L 7133,3269 L 7144,3278 L 7043,3389 z "
             style="fill:#ffffff;fill-opacity:1" />
          <path
             id="path937"
             d="M 7144,3278 L 7186,3317 L 7085,3428 L 6984,3539 L 6942,3500 L 7043,3389 L 7144,3278 z "
             style="fill:#ffffff;fill-opacity:1" />
          <path
             id="path939"
             d="M 7085,3428 L 7186,3317 L 7196,3327 L 7085,3428 z "
             style="fill:#ffffff;fill-opacity:1" />
          <path
             id="path941"
             d="M 7196,3327 L 7235,3369 L 7124,3470 L 7013,3571 L 6974,3529 L 7085,3428 L 7196,3327 z "
             style="fill:#ffffff;fill-opacity:1" />
          <path
             id="path943"
             d="M 7124,3470 L 7235,3369 L 7244,3380 L 7124,3470 z "
             style="fill:#ffffff;fill-opacity:1" />
          <path
             id="path945"
             d="M 7244,3380 L 7279,3427 L 7158,3516 L 7038,3606 L 7004,3560 L 7124,3470 L 7244,3380 z "
             style="fill:#ffffff;fill-opacity:1" />
          <path
             id="path947"
             d="M 7158,3516 L 7279,3427 L 7287,3438 L 7158,3516 z "
             style="fill:#ffffff;fill-opacity:1" />
          <path
             id="path949"
             d="M 7287,3438 L 7317,3488 L 7189,3566 L 7060,3644 L 7030,3594 L 7158,3516 L 7287,3438 z "
             style="fill:#ffffff;fill-opacity:1" />
          <path
             id="path951"
             d="M 7189,3566 L 7317,3488 L 7324,3501 L 7189,3566 z "
             style="fill:#ffffff;fill-opacity:1" />
          <path
             id="path953"
             d="M 7324,3501 L 7349,3553 L 7214,3618 L 7079,3683 L 7053,3631 L 7189,3566 L 7324,3501 z "
             style="fill:#ffffff;fill-opacity:1" />
          <path
             id="path955"
             d="M 7214,3618 L 7349,3553 L 7355,3566 L 7214,3618 z "
             style="fill:#ffffff;fill-opacity:1" />
          <path
             id="path957"
             d="M 7355,3566 L 7375,3621 L 7234,3673 L 7093,3725 L 7073,3670 L 7214,3618 L 7355,3566 z "
             style="fill:#ffffff;fill-opacity:1" />
          <path
             id="path959"
             d="M 7234,3673 L 7375,3621 L 7379,3636 L 7234,3673 z "
             style="fill:#ffffff;fill-opacity:1" />
          <path
             id="path961"
             d="M 7379,3636 L 7394,3693 L 7249,3731 L 7104,3768 L 7089,3711 L 7234,3673 L 7379,3636 z "
             style="fill:#ffffff;fill-opacity:1" />
          <path
             id="path963"
             d="M 7249,3731 L 7394,3693 L 7397,3708 L 7249,3731 z "
             style="fill:#ffffff;fill-opacity:1" />
          <path
             id="path965"
             d="M 7397,3708 L 7406,3767 L 7258,3790 L 7110,3813 L 7101,3753 L 7249,3731 L 7397,3708 z "
             style="fill:#ffffff;fill-opacity:1" />
          <path
             id="path967"
             d="M 7258,3790 L 7406,3767 L 7408,3782 L 7258,3790 z "
             style="fill:#ffffff;fill-opacity:1" />
          <path
             id="path969"
             d="M 7408,3782 L 7411,3843 L 7261,3851 L 7111,3859 L 7108,3797 L 7258,3790 L 7408,3782 z "
             style="fill:#ffffff;fill-opacity:1" />
          <path
             id="path971"
             d="M 7261,3851 L 7411,3843 L 7411,3859 L 7261,3851 z "
             style="fill:#ffffff;fill-opacity:1" />
          <path
             id="path973"
             d="M 7411,3859 L 7408,3920 L 7258,3912 L 7108,3905 L 7111,3843 L 7261,3851 L 7411,3859 z "
             style="fill:#ffffff;fill-opacity:1" />
          <path
             id="path975"
             d="M 7258,3912 L 7408,3920 L 7406,3935 L 7258,3912 z "
             style="fill:#ffffff;fill-opacity:1" />
          <path
             id="path977"
             d="M 7406,3935 L 7397,3994 L 7249,3971 L 7101,3949 L 7110,3889 L 7258,3912 L 7406,3935 z "
             style="fill:#ffffff;fill-opacity:1" />
          <path
             id="path979"
             d="M 7249,3971 L 7397,3994 L 7394,4009 L 7249,3971 z "
             style="fill:#ffffff;fill-opacity:1" />
          <path
             id="path981"
             d="M 7394,4009 L 7379,4066 L 7234,4029 L 7089,3991 L 7104,3934 L 7249,3971 L 7394,4009 z "
             style="fill:#ffffff;fill-opacity:1" />
          <path
             id="path983"
             d="M 7234,4029 L 7379,4066 L 7375,4081 L 7234,4029 z "
             style="fill:#ffffff;fill-opacity:1" />
          <path
             id="path985"
             d="M 7375,4081 L 7355,4136 L 7214,4084 L 7073,4032 L 7093,3977 L 7234,4029 L 7375,4081 z "
             style="fill:#ffffff;fill-opacity:1" />
          <path
             id="path987"
             d="M 7214,4084 L 7355,4136 L 7349,4149 L 7214,4084 z "
             style="fill:#ffffff;fill-opacity:1" />
          <path
             id="path989"
             d="M 7349,4149 L 7324,4201 L 7189,4136 L 7053,4071 L 7079,4019 L 7214,4084 L 7349,4149 z "
             style="fill:#ffffff;fill-opacity:1" />
          <path
             id="path991"
             d="M 7189,4136 L 7324,4201 L 7317,4214 L 7189,4136 z "
             style="fill:#ffffff;fill-opacity:1" />
          <path
             id="path993"
             d="M 7317,4214 L 7287,4264 L 7158,4186 L 7030,4108 L 7060,4058 L 7189,4136 L 7317,4214 z "
             style="fill:#ffffff;fill-opacity:1" />
          <path
             id="path995"
             d="M 7158,4186 L 7287,4264 L 7279,4275 L 7158,4186 z "
             style="fill:#ffffff;fill-opacity:1" />
          <path
             id="path997"
             d="M 7279,4275 L 7244,4322 L 7124,4232 L 7004,4142 L 7038,4096 L 7158,4186 L 7279,4275 z "
             style="fill:#ffffff;fill-opacity:1" />
          <path
             id="path999"
             d="M 7124,4232 L 7244,4322 L 7235,4333 L 7124,4232 z "
             style="fill:#ffffff;fill-opacity:1" />
          <path
             id="path1001"
             d="M 7235,4333 L 7196,4375 L 7085,4274 L 6974,4173 L 7013,4131 L 7124,4232 L 7235,4333 z "
             style="fill:#ffffff;fill-opacity:1" />
          <path
             id="path1003"
             d="M 7085,4274 L 7196,4375 L 7186,4385 L 7085,4274 z "
             style="fill:#ffffff;fill-opacity:1" />
          <path
             id="path1005"
             d="M 7186,4385 L 7144,4424 L 7043,4313 L 6942,4202 L 6984,4163 L 7085,4274 L 7186,4385 z "
             style="fill:#ffffff;fill-opacity:1" />
          <path
             id="path1007"
             d="M 7043,4313 L 7144,4424 L 7133,4433 L 7043,4313 z "
             style="fill:#ffffff;fill-opacity:1" />
          <path
             id="path1009"
             d="M 7133,4433 L 7086,4468 L 6997,4347 L 6907,4227 L 6953,4193 L 7043,4313 L 7133,4433 z "
             style="fill:#ffffff;fill-opacity:1" />
          <path
             id="path1011"
             d="M 6997,4347 L 7086,4468 L 7075,4476 L 6997,4347 z "
             style="fill:#ffffff;fill-opacity:1" />
          <path
             id="path1013"
             d="M 7075,4476 L 7025,4506 L 6947,4378 L 6869,4249 L 6919,4219 L 6997,4347 L 7075,4476 z "
             style="fill:#ffffff;fill-opacity:1" />
          <path
             id="path1015"
             d="M 6947,4378 L 7025,4506 L 7012,4513 L 6947,4378 z "
             style="fill:#ffffff;fill-opacity:1" />
          <path
             id="path1017"
             d="M 7012,4513 L 6960,4538 L 6895,4403 L 6830,4268 L 6882,4242 L 6947,4378 L 7012,4513 z "
             style="fill:#ffffff;fill-opacity:1" />
          <path
             id="path1019"
             d="M 6895,4403 L 6960,4538 L 6947,4544 L 6895,4403 z "
             style="fill:#ffffff;fill-opacity:1" />
          <path
             id="path1021"
             d="M 6947,4544 L 6892,4564 L 6840,4423 L 6788,4282 L 6843,4262 L 6895,4403 L 6947,4544 z "
             style="fill:#ffffff;fill-opacity:1" />
          <path
             id="path1023"
             d="M 6840,4423 L 6892,4564 L 6877,4568 L 6840,4423 z "
             style="fill:#ffffff;fill-opacity:1" />
          <path
             id="path1025"
             d="M 6877,4568 L 6820,4583 L 6782,4438 L 6745,4293 L 6802,4278 L 6840,4423 L 6877,4568 z "
             style="fill:#ffffff;fill-opacity:1" />
          <path
             id="path1027"
             d="M 6782,4438 L 6820,4583 L 6805,4586 L 6782,4438 z "
             style="fill:#ffffff;fill-opacity:1" />
          <path
             id="path1029"
             d="M 6805,4586 L 6746,4595 L 6723,4447 L 6700,4299 L 6760,4290 L 6782,4438 L 6805,4586 z "
             style="fill:#ffffff;fill-opacity:1" />
          <path
             id="path1031"
             d="M 6723,4447 L 6746,4595 L 6731,4597 L 6723,4447 z "
             style="fill:#ffffff;fill-opacity:1" />
          <path
             id="path1033"
             d="M 6731,4597 L 6670,4600 L 6662,4450 L 6654,4300 L 6716,4297 L 6723,4447 L 6731,4597 z "
             style="fill:#ffffff;fill-opacity:1" />
          <path
             id="path1035"
             d="M 6662,4450 L 6670,4600 L 6654,4600 L 6662,4450 z "
             style="fill:#ffffff;fill-opacity:1" />
        </g>
        <g
           id="g1037"
           style="fill:#ffffff;fill-opacity:1" />
      </g>
    </g>
    <g
       transform="matrix(1.0818337e-2,0,0,1.0818337e-2,-60.753143,-17.09174)"
       style="fill:#ffffff;fill-opacity:1;visibility:visible"
       id="g1039">
      <desc
         id="desc1041">Drawing</desc>
      <g
         id="g1043"
         style="fill:#ffffff;fill-opacity:1">
        <g
           id="g1045"
           style="fill:#ffffff;fill-opacity:1;stroke:none">
          <path
             id="path1047"
             d="M 7639,3134 L 7211,3515 L 7011,3291 L 7439,2910 L 7639,3134 z "
             style="fill:#ffffff;fill-opacity:1" />
        </g>
        <g
           id="g1049"
           style="fill:#ffffff;fill-opacity:1" />
      </g>
    </g>
    <g
       transform="matrix(1.0818337e-2,0,0,1.0818337e-2,-60.753143,-17.09174)"
       style="fill:#ffffff;fill-opacity:1;visibility:visible"
       id="g1051">
      <desc
         id="desc1053">Drawing</desc>
      <g
         id="g1055"
         style="fill:#ffffff;fill-opacity:1">
        <g
           id="g1057"
           style="fill:#ffffff;fill-opacity:1;stroke:none">
          <path
             id="path1059"
             d="M 7980,3316 L 7919,3313 L 7927,3163 L 7934,3013 L 7996,3016 L 7988,3166 L 7980,3316 z "
             style="fill:#ffffff;fill-opacity:1" />
          <path
             id="path1061"
             d="M 7927,3163 L 7919,3313 L 7904,3311 L 7927,3163 z "
             style="fill:#ffffff;fill-opacity:1" />
          <path
             id="path1063"
             d="M 7904,3311 L 7845,3302 L 7868,3154 L 7890,3006 L 7950,3015 L 7927,3163 L 7904,3311 z "
             style="fill:#ffffff;fill-opacity:1" />
          <path
             id="path1065"
             d="M 7868,3154 L 7845,3302 L 7830,3299 L 7868,3154 z "
             style="fill:#ffffff;fill-opacity:1" />
          <path
             id="path1067"
             d="M 7830,3299 L 7773,3284 L 7810,3139 L 7848,2994 L 7905,3009 L 7868,3154 L 7830,3299 z "
             style="fill:#ffffff;fill-opacity:1" />
          <path
             id="path1069"
             d="M 7810,3139 L 7773,3284 L 7758,3280 L 7810,3139 z "
             style="fill:#ffffff;fill-opacity:1" />
          <path
             id="path1071"
             d="M 7758,3280 L 7703,3260 L 7755,3119 L 7807,2978 L 7862,2998 L 7810,3139 L 7758,3280 z "
             style="fill:#ffffff;fill-opacity:1" />
          <path
             id="path1073"
             d="M 7755,3119 L 7703,3260 L 7690,3254 L 7755,3119 z "
             style="fill:#ffffff;fill-opacity:1" />
          <path
             id="path1075"
             d="M 7690,3254 L 7638,3229 L 7703,3094 L 7768,2958 L 7820,2984 L 7755,3119 L 7690,3254 z "
             style="fill:#ffffff;fill-opacity:1" />
          <path
             id="path1077"
             d="M 7703,3094 L 7638,3229 L 7625,3222 L 7703,3094 z "
             style="fill:#ffffff;fill-opacity:1" />
          <path
             id="path1079"
             d="M 7625,3222 L 7575,3192 L 7653,3063 L 7731,2935 L 7781,2965 L 7703,3094 L 7625,3222 z "
             style="fill:#ffffff;fill-opacity:1" />
          <path
             id="path1081"
             d="M 7653,3063 L 7575,3192 L 7564,3184 L 7653,3063 z "
             style="fill:#ffffff;fill-opacity:1" />
          <path
             id="path1083"
             d="M 7564,3184 L 7517,3149 L 7607,3029 L 7697,2909 L 7743,2943 L 7653,3063 L 7564,3184 z "
             style="fill:#ffffff;fill-opacity:1" />
          <path
             id="path1085"
             d="M 7607,3029 L 7517,3149 L 7506,3140 L 7607,3029 z "
             style="fill:#ffffff;fill-opacity:1" />
          <path
             id="path1087"
             d="M 7506,3140 L 7464,3101 L 7565,2990 L 7666,2879 L 7708,2918 L 7607,3029 L 7506,3140 z "
             style="fill:#ffffff;fill-opacity:1" />
          <path
             id="path1089"
             d="M 7565,2990 L 7464,3101 L 7454,3091 L 7565,2990 z "
             style="fill:#ffffff;fill-opacity:1" />
          <path
             id="path1091"
             d="M 7454,3091 L 7415,3049 L 7526,2948 L 7637,2847 L 7676,2889 L 7565,2990 L 7454,3091 z "
             style="fill:#ffffff;fill-opacity:1" />
          <path
             id="path1093"
             d="M 7526,2948 L 7415,3049 L 7406,3038 L 7526,2948 z "
             style="fill:#ffffff;fill-opacity:1" />
          <path
             id="path1095"
             d="M 7406,3038 L 7371,2991 L 7492,2902 L 7612,2812 L 7646,2858 L 7526,2948 L 7406,3038 z "
             style="fill:#ffffff;fill-opacity:1" />
          <path
             id="path1097"
             d="M 7492,2902 L 7371,2991 L 7363,2980 L 7492,2902 z "
             style="fill:#ffffff;fill-opacity:1" />
          <path
             id="path1099"
             d="M 7363,2980 L 7333,2930 L 7461,2852 L 7590,2774 L 7620,2824 L 7492,2902 L 7363,2980 z "
             style="fill:#ffffff;fill-opacity:1" />
          <path
             id="path1101"
             d="M 7461,2852 L 7333,2930 L 7326,2917 L 7461,2852 z "
             style="fill:#ffffff;fill-opacity:1" />
          <path
             id="path1103"
             d="M 7326,2917 L 7301,2865 L 7436,2800 L 7571,2735 L 7597,2787 L 7461,2852 L 7326,2917 z "
             style="fill:#ffffff;fill-opacity:1" />
          <path
             id="path1105"
             d="M 7436,2800 L 7301,2865 L 7295,2852 L 7436,2800 z "
             style="fill:#ffffff;fill-opacity:1" />
          <path
             id="path1107"
             d="M 7295,2852 L 7275,2797 L 7416,2745 L 7557,2693 L 7577,2748 L 7436,2800 L 7295,2852 z "
             style="fill:#ffffff;fill-opacity:1" />
          <path
             id="path1109"
             d="M 7416,2745 L 7275,2797 L 7271,2782 L 7416,2745 z "
             style="fill:#ffffff;fill-opacity:1" />
          <path
             id="path1111"
             d="M 7271,2782 L 7256,2725 L 7401,2687 L 7546,2650 L 7561,2707 L 7416,2745 L 7271,2782 z "
             style="fill:#ffffff;fill-opacity:1" />
          <path
             id="path1113"
             d="M 7401,2687 L 7256,2725 L 7253,2710 L 7401,2687 z "
             style="fill:#ffffff;fill-opacity:1" />
          <path
             id="path1115"
             d="M 7253,2710 L 7244,2651 L 7392,2628 L 7540,2605 L 7549,2665 L 7401,2687 L 7253,2710 z "
             style="fill:#ffffff;fill-opacity:1" />
          <path
             id="path1117"
             d="M 7392,2628 L 7244,2651 L 7242,2636 L 7392,2628 z "
             style="fill:#ffffff;fill-opacity:1" />
          <path
             id="path1119"
             d="M 7242,2636 L 7239,2575 L 7389,2567 L 7539,2559 L 7542,2621 L 7392,2628 L 7242,2636 z "
             style="fill:#ffffff;fill-opacity:1" />
          <path
             id="path1121"
             d="M 7389,2567 L 7239,2575 L 7239,2559 L 7389,2567 z "
             style="fill:#ffffff;fill-opacity:1" />
          <path
             id="path1123"
             d="M 7239,2559 L 7242,2498 L 7392,2506 L 7542,2513 L 7539,2575 L 7389,2567 L 7239,2559 z "
             style="fill:#ffffff;fill-opacity:1" />
          <path
             id="path1125"
             d="M 7392,2506 L 7242,2498 L 7244,2483 L 7392,2506 z "
             style="fill:#ffffff;fill-opacity:1" />
          <path
             id="path1127"
             d="M 7244,2483 L 7253,2424 L 7401,2447 L 7549,2469 L 7540,2529 L 7392,2506 L 7244,2483 z "
             style="fill:#ffffff;fill-opacity:1" />
          <path
             id="path1129"
             d="M 7401,2447 L 7253,2424 L 7256,2409 L 7401,2447 z "
             style="fill:#ffffff;fill-opacity:1" />
          <path
             id="path1131"
             d="M 7256,2409 L 7271,2352 L 7416,2389 L 7561,2427 L 7546,2484 L 7401,2447 L 7256,2409 z "
             style="fill:#ffffff;fill-opacity:1" />
          <path
             id="path1133"
             d="M 7416,2389 L 7271,2352 L 7275,2337 L 7416,2389 z "
             style="fill:#ffffff;fill-opacity:1" />
          <path
             id="path1135"
             d="M 7275,2337 L 7295,2282 L 7436,2334 L 7577,2386 L 7557,2441 L 7416,2389 L 7275,2337 z "
             style="fill:#ffffff;fill-opacity:1" />
          <path
             id="path1137"
             d="M 7436,2334 L 7295,2282 L 7301,2269 L 7436,2334 z "
             style="fill:#ffffff;fill-opacity:1" />
          <path
             id="path1139"
             d="M 7301,2269 L 7326,2217 L 7461,2282 L 7597,2347 L 7571,2399 L 7436,2334 L 7301,2269 z "
             style="fill:#ffffff;fill-opacity:1" />
          <path
             id="path1141"
             d="M 7461,2282 L 7326,2217 L 7333,2204 L 7461,2282 z "
             style="fill:#ffffff;fill-opacity:1" />
          <path
             id="path1143"
             d="M 7333,2204 L 7363,2154 L 7492,2232 L 7620,2310 L 7590,2360 L 7461,2282 L 7333,2204 z "
             style="fill:#ffffff;fill-opacity:1" />
          <path
             id="path1145"
             d="M 7492,2232 L 7363,2154 L 7371,2143 L 7492,2232 z "
             style="fill:#ffffff;fill-opacity:1" />
          <path
             id="path1147"
             d="M 7371,2143 L 7406,2096 L 7526,2186 L 7646,2276 L 7612,2322 L 7492,2232 L 7371,2143 z "
             style="fill:#ffffff;fill-opacity:1" />
          <path
             id="path1149"
             d="M 7526,2186 L 7406,2096 L 7415,2085 L 7526,2186 z "
             style="fill:#ffffff;fill-opacity:1" />
          <path
             id="path1151"
             d="M 7415,2085 L 7454,2043 L 7565,2144 L 7676,2245 L 7637,2287 L 7526,2186 L 7415,2085 z "
             style="fill:#ffffff;fill-opacity:1" />
          <path
             id="path1153"
             d="M 7565,2144 L 7454,2043 L 7464,2033 L 7565,2144 z "
             style="fill:#ffffff;fill-opacity:1" />
          <path
             id="path1155"
             d="M 7464,2033 L 7506,1994 L 7607,2105 L 7708,2216 L 7666,2255 L 7565,2144 L 7464,2033 z "
             style="fill:#ffffff;fill-opacity:1" />
          <path
             id="path1157"
             d="M 7607,2105 L 7506,1994 L 7517,1985 L 7607,2105 z "
             style="fill:#ffffff;fill-opacity:1" />
          <path
             id="path1159"
             d="M 7517,1985 L 7564,1950 L 7653,2071 L 7743,2191 L 7697,2225 L 7607,2105 L 7517,1985 z "
             style="fill:#ffffff;fill-opacity:1" />
          <path
             id="path1161"
             d="M 7653,2071 L 7564,1950 L 7575,1942 L 7653,2071 z "
             style="fill:#ffffff;fill-opacity:1" />
          <path
             id="path1163"
             d="M 7575,1942 L 7625,1912 L 7703,2040 L 7781,2169 L 7731,2199 L 7653,2071 L 7575,1942 z "
             style="fill:#ffffff;fill-opacity:1" />
          <path
             id="path1165"
             d="M 7703,2040 L 7625,1912 L 7638,1905 L 7703,2040 z "
             style="fill:#ffffff;fill-opacity:1" />
          <path
             id="path1167"
             d="M 7638,1905 L 7690,1880 L 7755,2015 L 7820,2150 L 7768,2176 L 7703,2040 L 7638,1905 z "
             style="fill:#ffffff;fill-opacity:1" />
          <path
             id="path1169"
             d="M 7755,2015 L 7690,1880 L 7703,1874 L 7755,2015 z "
             style="fill:#ffffff;fill-opacity:1" />
          <path
             id="path1171"
             d="M 7703,1874 L 7758,1854 L 7810,1995 L 7862,2136 L 7807,2156 L 7755,2015 L 7703,1874 z "
             style="fill:#ffffff;fill-opacity:1" />
          <path
             id="path1173"
             d="M 7810,1995 L 7758,1854 L 7773,1850 L 7810,1995 z "
             style="fill:#ffffff;fill-opacity:1" />
          <path
             id="path1175"
             d="M 7773,1850 L 7830,1835 L 7868,1980 L 7905,2125 L 7848,2140 L 7810,1995 L 7773,1850 z "
             style="fill:#ffffff;fill-opacity:1" />
          <path
             id="path1177"
             d="M 7868,1980 L 7830,1835 L 7845,1832 L 7868,1980 z "
             style="fill:#ffffff;fill-opacity:1" />
          <path
             id="path1179"
             d="M 7845,1832 L 7904,1823 L 7927,1971 L 7950,2119 L 7890,2128 L 7868,1980 L 7845,1832 z "
             style="fill:#ffffff;fill-opacity:1" />
          <path
             id="path1181"
             d="M 7927,1971 L 7904,1823 L 7919,1821 L 7927,1971 z "
             style="fill:#ffffff;fill-opacity:1" />
          <path
             id="path1183"
             d="M 7919,1821 L 7980,1818 L 7988,1968 L 7996,2118 L 7934,2121 L 7927,1971 L 7919,1821 z "
             style="fill:#ffffff;fill-opacity:1" />
          <path
             id="path1185"
             d="M 7988,1968 L 7980,1818 L 7996,1818 L 7988,1968 z "
             style="fill:#ffffff;fill-opacity:1" />
          <path
             id="path1187"
             d="M 7996,1818 L 8057,1821 L 8049,1971 L 8042,2121 L 7980,2118 L 7988,1968 L 7996,1818 z "
             style="fill:#ffffff;fill-opacity:1" />
          <path
             id="path1189"
             d="M 8049,1971 L 8057,1821 L 8072,1823 L 8049,1971 z "
             style="fill:#ffffff;fill-opacity:1" />
          <path
             id="path1191"
             d="M 8072,1823 L 8131,1832 L 8108,1980 L 8086,2128 L 8026,2119 L 8049,1971 L 8072,1823 z "
             style="fill:#ffffff;fill-opacity:1" />
          <path
             id="path1193"
             d="M 8108,1980 L 8131,1832 L 8146,1835 L 8108,1980 z "
             style="fill:#ffffff;fill-opacity:1" />
          <path
             id="path1195"
             d="M 8146,1835 L 8203,1850 L 8166,1995 L 8128,2140 L 8071,2125 L 8108,1980 L 8146,1835 z "
             style="fill:#ffffff;fill-opacity:1" />
          <path
             id="path1197"
             d="M 8166,1995 L 8203,1850 L 8218,1854 L 8166,1995 z "
             style="fill:#ffffff;fill-opacity:1" />
          <path
             id="path1199"
             d="M 8218,1854 L 8273,1874 L 8221,2015 L 8169,2156 L 8114,2136 L 8166,1995 L 8218,1854 z "
             style="fill:#ffffff;fill-opacity:1" />
          <path
             id="path1201"
             d="M 8221,2015 L 8273,1874 L 8286,1880 L 8221,2015 z "
             style="fill:#ffffff;fill-opacity:1" />
          <path
             id="path1203"
             d="M 8286,1880 L 8338,1905 L 8273,2040 L 8208,2176 L 8156,2150 L 8221,2015 L 8286,1880 z "
             style="fill:#ffffff;fill-opacity:1" />
          <path
             id="path1205"
             d="M 8273,2040 L 8338,1905 L 8351,1912 L 8273,2040 z "
             style="fill:#ffffff;fill-opacity:1" />
          <path
             id="path1207"
             d="M 8351,1912 L 8401,1942 L 8323,2071 L 8245,2199 L 8195,2169 L 8273,2040 L 8351,1912 z "
             style="fill:#ffffff;fill-opacity:1" />
          <path
             id="path1209"
             d="M 8323,2071 L 8401,1942 L 8412,1950 L 8323,2071 z "
             style="fill:#ffffff;fill-opacity:1" />
          <path
             id="path1211"
             d="M 8412,1950 L 8459,1985 L 8369,2105 L 8279,2225 L 8233,2191 L 8323,2071 L 8412,1950 z "
             style="fill:#ffffff;fill-opacity:1" />
          <path
             id="path1213"
             d="M 8369,2105 L 8459,1985 L 8470,1994 L 8369,2105 z "
             style="fill:#ffffff;fill-opacity:1" />
          <path
             id="path1215"
             d="M 8470,1994 L 8512,2033 L 8411,2144 L 8310,2255 L 8268,2216 L 8369,2105 L 8470,1994 z "
             style="fill:#ffffff;fill-opacity:1" />
          <path
             id="path1217"
             d="M 8411,2144 L 8512,2033 L 8522,2043 L 8411,2144 z "
             style="fill:#ffffff;fill-opacity:1" />
          <path
             id="path1219"
             d="M 8522,2043 L 8561,2085 L 8450,2186 L 8339,2287 L 8300,2245 L 8411,2144 L 8522,2043 z "
             style="fill:#ffffff;fill-opacity:1" />
          <path
             id="path1221"
             d="M 8450,2186 L 8561,2085 L 8570,2096 L 8450,2186 z "
             style="fill:#ffffff;fill-opacity:1" />
          <path
             id="path1223"
             d="M 8570,2096 L 8605,2143 L 8484,2232 L 8364,2322 L 8330,2276 L 8450,2186 L 8570,2096 z "
             style="fill:#ffffff;fill-opacity:1" />
          <path
             id="path1225"
             d="M 8484,2232 L 8605,2143 L 8613,2154 L 8484,2232 z "
             style="fill:#ffffff;fill-opacity:1" />
          <path
             id="path1227"
             d="M 8613,2154 L 8643,2204 L 8515,2282 L 8386,2360 L 8356,2310 L 8484,2232 L 8613,2154 z "
             style="fill:#ffffff;fill-opacity:1" />
          <path
             id="path1229"
             d="M 8515,2282 L 8643,2204 L 8650,2217 L 8515,2282 z "
             style="fill:#ffffff;fill-opacity:1" />
          <path
             id="path1231"
             d="M 8650,2217 L 8675,2269 L 8540,2334 L 8405,2399 L 8379,2347 L 8515,2282 L 8650,2217 z "
             style="fill:#ffffff;fill-opacity:1" />
          <path
             id="path1233"
             d="M 8540,2334 L 8675,2269 L 8681,2282 L 8540,2334 z "
             style="fill:#ffffff;fill-opacity:1" />
          <path
             id="path1235"
             d="M 8681,2282 L 8701,2337 L 8560,2389 L 8419,2441 L 8399,2386 L 8540,2334 L 8681,2282 z "
             style="fill:#ffffff;fill-opacity:1" />
          <path
             id="path1237"
             d="M 8560,2389 L 8701,2337 L 8705,2352 L 8560,2389 z "
             style="fill:#ffffff;fill-opacity:1" />
          <path
             id="path1239"
             d="M 8705,2352 L 8720,2409 L 8575,2447 L 8430,2484 L 8415,2427 L 8560,2389 L 8705,2352 z "
             style="fill:#ffffff;fill-opacity:1" />
          <path
             id="path1241"
             d="M 8575,2447 L 8720,2409 L 8723,2424 L 8575,2447 z "
             style="fill:#ffffff;fill-opacity:1" />
          <path
             id="path1243"
             d="M 8723,2424 L 8732,2483 L 8584,2506 L 8436,2529 L 8427,2469 L 8575,2447 L 8723,2424 z "
             style="fill:#ffffff;fill-opacity:1" />
          <path
             id="path1245"
             d="M 8584,2506 L 8732,2483 L 8734,2498 L 8584,2506 z "
             style="fill:#ffffff;fill-opacity:1" />
          <path
             id="path1247"
             d="M 8734,2498 L 8737,2559 L 8587,2567 L 8437,2575 L 8434,2513 L 8584,2506 L 8734,2498 z "
             style="fill:#ffffff;fill-opacity:1" />
          <path
             id="path1249"
             d="M 8587,2567 L 8737,2559 L 8737,2575 L 8587,2567 z "
             style="fill:#ffffff;fill-opacity:1" />
          <path
             id="path1251"
             d="M 8737,2575 L 8734,2636 L 8584,2628 L 8434,2621 L 8437,2559 L 8587,2567 L 8737,2575 z "
             style="fill:#ffffff;fill-opacity:1" />
          <path
             id="path1253"
             d="M 8584,2628 L 8734,2636 L 8732,2651 L 8584,2628 z "
             style="fill:#ffffff;fill-opacity:1" />
          <path
             id="path1255"
             d="M 8732,2651 L 8723,2710 L 8575,2687 L 8427,2665 L 8436,2605 L 8584,2628 L 8732,2651 z "
             style="fill:#ffffff;fill-opacity:1" />
          <path
             id="path1257"
             d="M 8575,2687 L 8723,2710 L 8720,2725 L 8575,2687 z "
             style="fill:#ffffff;fill-opacity:1" />
          <path
             id="path1259"
             d="M 8720,2725 L 8705,2782 L 8560,2745 L 8415,2707 L 8430,2650 L 8575,2687 L 8720,2725 z "
             style="fill:#ffffff;fill-opacity:1" />
          <path
             id="path1261"
             d="M 8560,2745 L 8705,2782 L 8701,2797 L 8560,2745 z "
             style="fill:#ffffff;fill-opacity:1" />
          <path
             id="path1263"
             d="M 8701,2797 L 8681,2852 L 8540,2800 L 8399,2748 L 8419,2693 L 8560,2745 L 8701,2797 z "
             style="fill:#ffffff;fill-opacity:1" />
          <path
             id="path1265"
             d="M 8540,2800 L 8681,2852 L 8675,2865 L 8540,2800 z "
             style="fill:#ffffff;fill-opacity:1" />
          <path
             id="path1267"
             d="M 8675,2865 L 8650,2917 L 8515,2852 L 8379,2787 L 8405,2735 L 8540,2800 L 8675,2865 z "
             style="fill:#ffffff;fill-opacity:1" />
          <path
             id="path1269"
             d="M 8515,2852 L 8650,2917 L 8643,2930 L 8515,2852 z "
             style="fill:#ffffff;fill-opacity:1" />
          <path
             id="path1271"
             d="M 8643,2930 L 8613,2980 L 8484,2902 L 8356,2824 L 8386,2774 L 8515,2852 L 8643,2930 z "
             style="fill:#ffffff;fill-opacity:1" />
          <path
             id="path1273"
             d="M 8484,2902 L 8613,2980 L 8605,2991 L 8484,2902 z "
             style="fill:#ffffff;fill-opacity:1" />
          <path
             id="path1275"
             d="M 8605,2991 L 8570,3038 L 8450,2948 L 8330,2858 L 8364,2812 L 8484,2902 L 8605,2991 z "
             style="fill:#ffffff;fill-opacity:1" />
          <path
             id="path1277"
             d="M 8450,2948 L 8570,3038 L 8561,3049 L 8450,2948 z "
             style="fill:#ffffff;fill-opacity:1" />
          <path
             id="path1279"
             d="M 8561,3049 L 8522,3091 L 8411,2990 L 8300,2889 L 8339,2847 L 8450,2948 L 8561,3049 z "
             style="fill:#ffffff;fill-opacity:1" />
          <path
             id="path1281"
             d="M 8411,2990 L 8522,3091 L 8512,3101 L 8411,2990 z "
             style="fill:#ffffff;fill-opacity:1" />
          <path
             id="path1283"
             d="M 8512,3101 L 8470,3140 L 8369,3029 L 8268,2918 L 8310,2879 L 8411,2990 L 8512,3101 z "
             style="fill:#ffffff;fill-opacity:1" />
          <path
             id="path1285"
             d="M 8369,3029 L 8470,3140 L 8459,3149 L 8369,3029 z "
             style="fill:#ffffff;fill-opacity:1" />
          <path
             id="path1287"
             d="M 8459,3149 L 8412,3184 L 8323,3063 L 8233,2943 L 8279,2909 L 8369,3029 L 8459,3149 z "
             style="fill:#ffffff;fill-opacity:1" />
          <path
             id="path1289"
             d="M 8323,3063 L 8412,3184 L 8401,3192 L 8323,3063 z "
             style="fill:#ffffff;fill-opacity:1" />
          <path
             id="path1291"
             d="M 8401,3192 L 8351,3222 L 8273,3094 L 8195,2965 L 8245,2935 L 8323,3063 L 8401,3192 z "
             style="fill:#ffffff;fill-opacity:1" />
          <path
             id="path1293"
             d="M 8273,3094 L 8351,3222 L 8338,3229 L 8273,3094 z "
             style="fill:#ffffff;fill-opacity:1" />
          <path
             id="path1295"
             d="M 8338,3229 L 8286,3254 L 8221,3119 L 8156,2984 L 8208,2958 L 8273,3094 L 8338,3229 z "
             style="fill:#ffffff;fill-opacity:1" />
          <path
             id="path1297"
             d="M 8221,3119 L 8286,3254 L 8273,3260 L 8221,3119 z "
             style="fill:#ffffff;fill-opacity:1" />
          <path
             id="path1299"
             d="M 8273,3260 L 8218,3280 L 8166,3139 L 8114,2998 L 8169,2978 L 8221,3119 L 8273,3260 z "
             style="fill:#ffffff;fill-opacity:1" />
          <path
             id="path1301"
             d="M 8166,3139 L 8218,3280 L 8203,3284 L 8166,3139 z "
             style="fill:#ffffff;fill-opacity:1" />
          <path
             id="path1303"
             d="M 8203,3284 L 8146,3299 L 8108,3154 L 8071,3009 L 8128,2994 L 8166,3139 L 8203,3284 z "
             style="fill:#ffffff;fill-opacity:1" />
          <path
             id="path1305"
             d="M 8108,3154 L 8146,3299 L 8131,3302 L 8108,3154 z "
             style="fill:#ffffff;fill-opacity:1" />
          <path
             id="path1307"
             d="M 8131,3302 L 8072,3311 L 8049,3163 L 8026,3015 L 8086,3006 L 8108,3154 L 8131,3302 z "
             style="fill:#ffffff;fill-opacity:1" />
          <path
             id="path1309"
             d="M 8049,3163 L 8072,3311 L 8057,3313 L 8049,3163 z "
             style="fill:#ffffff;fill-opacity:1" />
          <path
             id="path1311"
             d="M 8057,3313 L 7996,3316 L 7988,3166 L 7980,3016 L 8042,3013 L 8049,3163 L 8057,3313 z "
             style="fill:#ffffff;fill-opacity:1" />
          <path
             id="path1313"
             d="M 7988,3166 L 7996,3316 L 7980,3316 L 7988,3166 z "
             style="fill:#ffffff;fill-opacity:1" />
        </g>
        <g
           id="g1315"
           style="fill:#ffffff;fill-opacity:1" />
      </g>
    </g>
  </g>
</svg>
